<svg xmlns="http://www.w3.org/2000/svg" width="110" height="194" viewBox="0 0 110 194"><title>landian-36-face</title><g id="face"><ellipse cx="54.6" cy="49.56" rx="10.8" ry="14.82" fill="#c58b5e"/><ellipse cx="49.16" cy="51.43" rx="1.27" ry="2.06" transform="translate(-0.76 0.73) rotate(-0.85)" fill="#0c0506"/><ellipse cx="59.31" cy="51.28" rx="1.27" ry="2.06" transform="translate(-0.75 0.88) rotate(-0.85)" fill="#0c0506"/><path d="M58.17,58.52l-3.52.88L51,58.64a26.63,26.63,0,0,1,3.57-.36A20,20,0,0,1,58.17,58.52Z" fill="#a06c48"/><path d="M51,58.64a13.64,13.64,0,0,0,7.21-.12,4.13,4.13,0,0,1-3.55,2A3.82,3.82,0,0,1,51,58.64Z" fill="#93603e"/></g></svg>