<svg xmlns="http://www.w3.org/2000/svg" width="110" height="194" viewBox="0 0 110 194"><title>landian-14-body</title><g id="landians"><path d="M68.46,61.24c4.92,2.69,7.37,18.37,8.06,20.61.9,2.91,2.46,8.73,0,9.85s-4.26-2.69-6-6.94S64.64,72.51,63.75,69.3C62.63,65.27,63.53,58.55,68.46,61.24Z" fill="#79589f"/><path d="M42.23,61.72C37.28,64.37,34.73,80,34,82.27c-.91,2.91-2.52,8.72-.06,9.86s4.27-2.66,6.09-6.9S46,73,46.88,69.81C48,65.79,47.17,59.06,42.23,61.72Z" fill="#79589f"/><path d="M67.37,148.72a182.14,182.14,0,0,0,3.75-33.6c0-15.47-15.37-10.15-15.37,10.08,0,12.77.38,22.84.37,25.08C56.06,158.57,63,161.4,67.37,148.72Z" fill="#336181"/><path d="M57.27,188.13c.72-1.43.41-5,.37-7.32s-.86-2.69-2-12.51.45-12.28,1.79-19a4.5,4.5,0,0,1,8.93.89c.23,5.81-2.25,30.42-2.46,30.61-.27,2.15-.6,5.87.45,6.4,1.29.65,3.74,2.15,6.39,3.65,1.5.62,4.17,1.29,4.3,2.09,0,1.26-2.74.76-8.21.65-1.95,0-4.53-.24-6.52-.13C55.51,193.74,56.56,189.55,57.27,188.13Z" fill="#e4b88b"/><path d="M57.17,188.45s.48,2.05,6.88,2.63c2.43.21,3-2.57,3-2.57s6.56,2.09,8.55,4.17c-.36,1.6-3.67,1.35-8.71,1.23-1.8,0-10.14-.11-10.14-.11A5.64,5.64,0,0,1,57.17,188.45Z"/><path d="M65.75,177.87s1.18-23.12,1-28.65-8.28-5.73-9.31-.72c-1.3,6.38-2.32,8.68-1.74,18.08.38,6.15.56,10.32.67,11.62C56.4,179,64.28,180.48,65.75,177.87Z" fill="#336181"/><path d="M41.52,147.6S36.46,129.11,38,112.72c1.47-15.4,15.37-9.39,15.37,10.08,0,12.77-.38,22.84-.37,25.08C53.09,156.17,46,159,41.52,147.6Z" fill="#336181"/><path d="M51,188.13c-.71-1.43-.41-5-.36-7.32s.86-2.69,2-12.51-.44-12.28-1.78-19a4.51,4.51,0,0,0-8.94.89c-.22,5.81,2.26,30.42,2.46,30.61.27,2.15.61,5.87-.45,6.4-1.29.65-3.73,2.15-6.39,3.65-1.5.62-4.16,1.29-4.3,2.09,0,1.26,2.74.76,8.21.65,2,0,4.53-.24,6.52-.13C52.76,193.74,51.72,189.55,51,188.13Z" fill="#e4b88b"/><path d="M51.17,188.45s-.48,2.05-6.88,2.63c-2.43.21-3-2.57-3-2.57s-6.56,2.09-8.55,4.17c.35,1.6,3.67,1.35,8.71,1.23,1.8,0,10.14-.11,10.14-.11A5.64,5.64,0,0,0,51.17,188.45Z"/><path d="M42.76,177.87s-1.18-23.12-1-28.65,8.28-5.73,9.31-.72c1.31,6.38,2.32,8.68,1.74,18.08-.38,6.15-.56,10.32-.67,11.62C52.12,179,44.23,180.48,42.76,177.87Z" fill="#336181"/><path d="M42.68,96.46A42.75,42.75,0,0,0,37.88,110c-.07.36,2,6.6,3.58,6.85a74.65,74.65,0,0,0,13.19,1.41,80.71,80.71,0,0,0,13.7-1c1.49-.28,2.74-6.41,2.69-6.83-.7-7-4.61-14.11-4.61-14.11Z" fill="#336181"/><path d="M50.87,51.84s.39,6.32-2.65,8c-.67.37,3.22,27.58,6.77,27.81,2.52.16,4.87-22,6.39-27.46,0,0-3.06-1.34-2.38-7.58C59.29,49.9,50.87,51.84,50.87,51.84Z" fill="#c89d7c"/><path d="M72.64,113.69c-.22,1.16-7.74.57-11,.64-6.86.13-5.18-.13-13.51,0-7.15.11-9.47-.41-11.27-.71,0-3.46,3.46-13.32,3.46-13.32,1-3.84,4.35-10.24,4.23-12.8-.08-1.51-1-7.72-1-8.45-.13-1.54-.38-3.2-.77-8.45a60.32,60.32,0,0,1-.12-9.11c.2-.83,6.14-2,6.14-2s5.94,3.86,11.74.07A23.32,23.32,0,0,1,67,60.73c1,.29.06,6.09-.26,9.48-.38,4.1-.13,6-.77,9.61a58.17,58.17,0,0,0-.51,7.81c0,2.17,1.41,6.14,4.1,12.67C69.51,100.3,73.41,109.67,72.64,113.69Z" fill="#d8d8d8"/><path d="M84.11,114.44s-3-12.32-3.23-15.26S78.32,84.64,74.7,85.91c-3.22,1.13-2.09,9.35.23,14.89s5.8,13,6,14.55c.42,3.73-.76,8.8-.17,9.19.75.5,1.29-.92,2-3.23,1.13,0,3.29,4.49,5.88,6s.73-5.79-.4-7.32C87.33,118.79,84.68,116.05,84.11,114.44Z" fill="#e4b88b"/><path d="M83.47,109.83s-4.41-28.68-10-26c-2.72,1.28-1.54,8.48-1.54,8.48l6.89,19.41Z" fill="#79589f"/><path d="M25.89,114s3-12.32,3.23-15.26S31.68,84.23,35.3,85.5c3.22,1.13,2.09,9.35-.23,14.89s-5.8,13-6,14.55c-.42,3.73.76,8.8.17,9.19-.75.5-1.29-.92-2-3.23-1.13,0-3.29,4.49-5.88,6s-.73-5.79.4-7.32C22.67,118.38,25.32,115.64,25.89,114Z" fill="#e4b88b"/><path d="M26.56,109.42s4.41-28.68,10-26c2.72,1.28,1.54,8.48,1.54,8.48l-6.89,19.41Z" fill="#79589f"/><path d="M44.72,26.74a24.91,24.91,0,0,0-1.91,3.53,33.67,33.67,0,0,0-2.56,7.18s-1.17,3.85,1.52,6.24a55.64,55.64,0,0,0,6.58,4s3.26,2.81,11.06.64a32.82,32.82,0,0,0,8.45-5s2.19-1.79.51-6.83A30.39,30.39,0,0,0,63.19,26a58.83,58.83,0,0,0-18.47.74" fill="#905623"/><path d="M44.94,40s-1.7-2.11-3.45-.35,1.44,6.14,3.56,6.84S44.94,40,44.94,40Z" fill="#e4b88b"/><path d="M64.39,40s1.7-2.11,3.45-.35-1.44,6.14-3.56,6.84S64.39,40,64.39,40Z" fill="#e4b88b"/></g></svg>