<svg xmlns="http://www.w3.org/2000/svg" xmlns:xlink="http://www.w3.org/1999/xlink" width="110" height="194" viewBox="0 0 110 194"><defs><clipPath id="clip-path"><rect x="54.92" y="107.48" width="0.83" height="6.98" fill="none"/></clipPath></defs><title>landian-35</title><g id="landians"><path d="M68.55,60.62c4.79,2.61,7.17,17.87,7.84,20,.87,2.83,2.4,8.5,0,9.59s-4.14-2.62-5.88-6.76-5.67-11.91-6.54-15C62.88,64.54,63.75,58,68.55,60.62Z" fill="#79589f"/><path d="M43.09,59.61c-4.81,2.58-7.28,17.82-8,20-.89,2.83-2.45,8.49-.06,9.59S39.22,86.6,41,82.47s5.74-11.87,6.63-15C48.73,63.57,47.9,57,43.09,59.61Z" fill="#79589f"/><path d="M51,51.22s.38,6.15-2.58,7.76c-.65.35,3.13,26.82,6.58,27,2.45.16,4.9-21.83,6.38-27.09,0,0-3.18-.82-2.48-7C59.18,49.33,51,51.22,51,51.22Z" fill="#6b452b"/><path d="M48.61,58.75s-4.81.87-5.56,1.91c-.22,2.62-1.55,6.79,0,11.62.49,1.59-1.21,32-1.21,32,6.65,1.7,26.23-.38,26.23-.38-.89-2.86-2.19-30-1.67-31.66,1.5-4.83.22-9.64,0-12.25C65.07,59.1,61,58.64,61,58.64a5.45,5.45,0,0,1-3.13,3.65,7.62,7.62,0,0,1-5.68-.06A7,7,0,0,1,48.61,58.75Z" fill="#79589f"/><path d="M27.67,111.24s2.91-12,3.15-14.84,2.48-14.14,6-12.91c3.13,1.1,2,9.09-.23,14.48S31,110.59,30.79,112.12c-.41,3.63.74,8.56.17,8.94-.73.49-1.26-.89-2-3.14-1.1,0-3.2,4.37-5.72,5.85s-.71-5.63.39-7.13C24.54,115.46,27.12,112.81,27.67,111.24Z" fill="#895d3b"/><path d="M30.78,96.75c0-.13,0-.25,0-.35.24-2.86,2.48-14.14,6-12.91,3.13,1.1,2,9.09-.23,14.48" fill="#79589f"/><path d="M83.83,111.55s-2.9-12-3.15-14.85-2.48-14.14-6-12.9c-3.14,1.09-2,9.08.22,14.48s5.64,12.62,5.81,14.15c.41,3.63-.74,8.56-.17,8.94.74.49,1.27-.9,2-3.14,1.1,0,3.2,4.36,5.72,5.84s.71-5.63-.39-7.12C87,115.77,84.38,113.11,83.83,111.55Z" fill="#895d3b"/><path d="M80.68,96.7c-.24-2.85-2.48-14.14-6-12.9-3.14,1.09-2,9.08.22,14.48" fill="#79589f"/><path d="M45.64,175.6s1.46,6.74-.23,9.52a22.31,22.31,0,0,1-7.25,7.09l14.32-3.55s-.63-8.7-.63-12.23S45.64,175.6,45.64,175.6Z" fill="#895d3b"/><path d="M52.55,180.77l-6.57.68s0,2.93-1.08,4a58.23,58.23,0,0,1-5,4.3s-6.49,0-5.74,3.66c0,.55,4.4.57,9.73.46,1.89,0,5.7-.38,5.7-.38v.4H53A96.51,96.51,0,0,0,52.55,180.77Z"/><path d="M64.09,175.6s-1.47,6.74.23,9.52a22.31,22.31,0,0,0,7.25,7.09l-14.32-3.55s.62-8.7.62-12.23S64.09,175.6,64.09,175.6Z" fill="#895d3b"/><path d="M64.7,178s4.51-60.35,4.3-64.82-12.13-1.83-13.11,2.23c-1.25,5.16,1.22,61.8,1.32,62.85C57.27,178.82,63.3,180.05,64.7,178Z" fill="#9a9180"/><path d="M44.93,178.54s-4.2-60.32-4-64.79,11.27-3.1,12.24,1c1.25,5.15-.16,63-.27,64.09C52.85,179.41,46.33,180.64,44.93,178.54Z" fill="#9a9180"/><path d="M41.36,105.43s-.45,6.91-.42,8.32c0,1,0,1.43.56,1.91,5.19,4.52,21.14,4.74,26.16-.29.81-.81,1.41-1.16,1.34-2.24-.07-1.28-.54-7.95-.54-7.95Z" fill="#9a9180"/><path d="M45.38,43.07S43.71,41,42,42.73s1.41,6,3.47,6.67S45.38,43.07,45.38,43.07Z" fill="#895d3b"/><path d="M64.35,43.07S66,41,67.72,42.73s-1.41,6-3.47,6.67S64.35,43.07,64.35,43.07Z" fill="#895d3b"/><path d="M41.64,104.09s6.52.48,11.31.54h4.5s8.4-.41,10.62-.88c0,0,.45.21.58,1.08a1.71,1.71,0,0,1-.21,1.06s-1.74,1-11.14,1.48a40.44,40.44,0,0,1-4.85,0S42,107.14,41.16,106C41.16,106,41,104.57,41.64,104.09Z" fill="#221f1f"/><path d="M45.47,104.21l-.66,2.8a4.24,4.24,0,0,0,.94.18l.65-3Z" fill="#2b3a20"/><path d="M65,104.05l.65,2.8a3.77,3.77,0,0,1-.94.17l-.64-3Z" fill="#2b3a20"/><g clip-path="url(#clip-path)"><g opacity="0.2"><g id="ferMqf"><path d="M55.38,101.24l-.12,0v0a.76.76,0,0,1,.26,0v.08Z" fill="#fff"/><path d="M55.26,100.2a.58.58,0,0,1,.26,0v.09h-.15l-.09,0a0,0,0,0,1,0,0Z" fill="#fff"/><path d="M55.52,94.79v.07h0a.55.55,0,0,1-.18,0h-.06a0,0,0,0,1,0,0s0,0,0,0a.71.71,0,0,1,.25,0Z" fill="#fff"/><path d="M55.52,100v.08a.76.76,0,0,1-.26,0h0s0,0,0,0h.23Z" fill="#fff"/><path d="M55.26,100.42h0s0,0,0,0l.08,0h.15v.09A.58.58,0,0,1,55.26,100.42Z" fill="#fff"/><path d="M55.26,99.24h0s0,0,0,0a.75.75,0,0,1,.21,0h0v.09A.77.77,0,0,1,55.26,99.24Z" fill="#fff"/><path d="M55.26,94.25v0h.06a.62.62,0,0,1,.19,0h0v.08A.77.77,0,0,1,55.26,94.25Z" fill="#fff"/><path d="M55.52,99.78v.08a.58.58,0,0,1-.26,0v0A.76.76,0,0,1,55.52,99.78Z" fill="#fff"/><path d="M55.52,100.57v.07h0a.74.74,0,0,1-.25,0h0v0A.58.58,0,0,1,55.52,100.57Z" fill="#fff"/><path d="M55.26,100.82h0s0,0,0,0h.23v.09A1.15,1.15,0,0,1,55.26,100.82Z" fill="#fff"/><path d="M55.26,94a.76.76,0,0,1,.26,0v.08h0a.66.66,0,0,1-.2,0h0l0,0Z" fill="#fff"/><path d="M55.52,99.66a.61.61,0,0,1-.19,0h0s0,0,0,0,0,0,0,0l.11,0h.13Z" fill="#fff"/><path d="M55.26,99.41a.58.58,0,0,1,.26,0v.09h-.15l-.09,0a0,0,0,0,1,0,0Z" fill="#fff"/><path d="M55.26,94.42a.77.77,0,0,1,.26,0v.09h-.23s0,0,0,0Z" fill="#fff"/><path d="M55.39,99.34a.71.71,0,0,1-.25,0v-.08h0a.62.62,0,0,1,.23,0S55.4,99.31,55.39,99.34Z" fill="#fff"/><path d="M55.14,94.77v-.08h0a.5.5,0,0,1,.21,0h0s0,0,0,0,0,0,0,0A.7.7,0,0,1,55.14,94.77Z" fill="#fff"/><path d="M55.39,100.13a.71.71,0,0,1-.25,0v-.08h.16l.07,0s0,0,0,0Z" fill="#fff"/><path d="M55.52,95v.08a.58.58,0,0,1-.26,0v0h0a1,1,0,0,1,.25,0Z" fill="#fff"/><path d="M55.14,99.17V95.08h.24s0,0,0,0,0,4,0,4A1.07,1.07,0,0,1,55.14,99.17Z" fill="#fff"/><path d="M55.39,100.52a.54.54,0,0,1-.25,0v-.09h0a.64.64,0,0,1,.2,0s0,0,0,0,0,0,0,0Z" fill="#fff"/><path d="M55.52,94.59v.08a.76.76,0,0,1-.26,0h0s0,0,0,0A.6.6,0,0,1,55.52,94.59Z" fill="#fff"/><path d="M55.14,93.9a.71.71,0,0,1,.25,0h0s0,0,0,0a.78.78,0,0,1-.22,0h0Z" fill="#fff"/><path d="M55.14,100.35v-.08h0a.5.5,0,0,1,.21,0s0,0,0,0,0,0,0,0a.65.65,0,0,1-.24,0Z" fill="#fff"/><path d="M55.14,100v-.09a.65.65,0,0,1,.2,0h0s0,0,0,0a0,0,0,0,1,0,0,1,1,0,0,1-.24,0Z" fill="#fff"/><path d="M55.14,101.05h.15l.08,0s0,0,0,0v0a.71.71,0,0,1-.25,0Z" fill="#fff"/><path d="M55.13,99.76v-.09h.09a.76.76,0,0,1,.16,0s0,0,0,0A.63.63,0,0,1,55.13,99.76Z" fill="#fff"/><path d="M55.14,100.86a.5.5,0,0,1,.17,0h.07s0,0,0,0,0,0,0,0l-.12,0a.48.48,0,0,1-.12,0h0A.22.22,0,0,1,55.14,100.86Z" fill="#fff"/><path d="M55.14,99.56v-.08h.16l.08,0s0,0,0,0,0,0,0,0a.47.47,0,0,1-.17,0Z" fill="#fff"/><path d="M55.14,94.29h0l.2,0s0,0,0,0,0,0,0,0a.47.47,0,0,1-.17,0h-.07A.22.22,0,0,1,55.14,94.29Z" fill="#fff"/><path d="M55.14,100.75v-.09h.07l.17,0s0,0,0,0,0,0,0,0A1,1,0,0,1,55.14,100.75Z" fill="#fff"/><path d="M55.52,101V101a.76.76,0,0,1-.26,0h0v0A.58.58,0,0,1,55.52,101Z" fill="#fff"/><path d="M55.14,95v-.09h.22s0,0,0,0A.66.66,0,0,1,55.14,95Z" fill="#fff"/><path d="M55.39,94.12v0a.72.72,0,0,1-.25,0V94.1A.71.71,0,0,1,55.39,94.12Z" fill="#fff"/><path d="M55.14,94.57v-.09h.15l.08,0s0,0,0,0A.71.71,0,0,1,55.14,94.57Z" fill="#fff"/></g><g id="ferMqf-2" data-name="ferMqf"><path d="M55.39,105.82l-.12,0v0a.76.76,0,0,1,.26,0v.08Z" fill="#fff"/><path d="M55.53,101.39v.08a.76.76,0,0,1-.26,0v0h0A.58.58,0,0,1,55.53,101.39Z" fill="#fff"/><path d="M55.27,104.78a.58.58,0,0,1,.26,0v.09h-.15l-.09,0s0,0,0,0Z" fill="#fff"/><path d="M55.53,103.37v.07h0a.61.61,0,0,1-.19,0h0s0,0,0,0,0,0,0,0a.69.69,0,0,1,.25,0Z" fill="#fff"/><path d="M55.53,104.55v.08a.76.76,0,0,1-.26,0h0s0,0,0,0h.23Z" fill="#fff"/><path d="M55.27,105h0s0,0,0,0l.07,0h.16V105A.58.58,0,0,1,55.27,105Z" fill="#fff"/><path d="M55.53,101.79v.08a.6.6,0,0,1-.26,0v0A.76.76,0,0,1,55.53,101.79Z" fill="#fff"/><path d="M55.27,103.82h0s0,0,0,0a.75.75,0,0,1,.21,0h0v.09A1.15,1.15,0,0,1,55.27,103.82Z" fill="#fff"/><path d="M55.27,102.83v0h0a.68.68,0,0,1,.2,0h0v.08A.77.77,0,0,1,55.27,102.83Z" fill="#fff"/><path d="M55.53,104.35v.09a.58.58,0,0,1-.26,0v0A1.15,1.15,0,0,1,55.53,104.35Z" fill="#fff"/><path d="M55.53,102.18v.09a.65.65,0,0,1-.2,0h0s0,0,0,0h0A.58.58,0,0,1,55.53,102.18Z" fill="#fff"/><path d="M55.53,105.15v.07h0a.72.72,0,0,1-.25,0h0v0A.58.58,0,0,1,55.53,105.15Z" fill="#fff"/><path d="M55.27,105.4h0s0,0,0,0h.23v.08A.76.76,0,0,1,55.27,105.4Z" fill="#fff"/><path d="M55.27,102.6a.76.76,0,0,1,.26,0v.08h0a.61.61,0,0,1-.19,0h0s0,0,0,0Z" fill="#fff"/><path d="M55.53,104.24a.67.67,0,0,1-.2,0h0s0,0,0,0h0l.11,0h.13Z" fill="#fff"/><path d="M55.27,104a.76.76,0,0,1,.26,0v.09h-.15l-.09,0s0,0,0,0Z" fill="#fff"/><path d="M55.27,103a.77.77,0,0,1,.26,0v.09a.62.62,0,0,1-.19,0h-.05s0,0,0,0Z" fill="#fff"/><path d="M55.4,103.92a.74.74,0,0,1-.26,0v-.08h0a.65.65,0,0,1,.24,0S55.4,103.89,55.4,103.92Z" fill="#fff"/><path d="M55.14,103.35v-.08h0a.5.5,0,0,1,.21,0s0,0,0,0,0,0,0,0,0,0,0,0A.74.74,0,0,1,55.14,103.35Z" fill="#fff"/><path d="M55.4,104.71a.74.74,0,0,1-.26,0v-.08a1,1,0,0,1,.17,0l.07,0s0,0,0,0Z" fill="#fff"/><path d="M55.53,103.57v.08a.77.77,0,0,1-.26,0v0h0a1,1,0,0,1,.24,0Z" fill="#fff"/><path d="M55.14,103.75v-.09a.55.55,0,0,1,.18,0h.07s0,0,0,0,0,0,0,0A1,1,0,0,1,55.14,103.75Z" fill="#fff"/><path d="M55.4,105.1a.57.57,0,0,1-.26,0V105h0a.69.69,0,0,1,.2,0s0,0,0,0h0Z" fill="#fff"/><path d="M55.53,103.17v.08a.76.76,0,0,1-.26,0h0s0,0,0,0A.58.58,0,0,1,55.53,103.17Z" fill="#fff"/><path d="M55.14,102.08h.15l.09,0s0,0,0,0a.74.74,0,0,1-.26,0Z" fill="#fff"/><path d="M55.14,102.48a.74.74,0,0,1,.26,0h0s0,0,0,0a.86.86,0,0,1-.22,0h0Z" fill="#fff"/><path d="M55.15,104.93h0v-.08h0a.53.53,0,0,1,.22,0s0,0,0,0,0,0,0,0" fill="#fff"/><path d="M55.14,104.53v-.08a.75.75,0,0,1,.21,0h0s0,0,0,0a0,0,0,0,1,0,0,1,1,0,0,1-.24,0Z" fill="#fff"/><path d="M55.14,105.63h.16l.08,0s0,0,0,0v0a.74.74,0,0,1-.26,0Z" fill="#fff"/><path d="M55.14,101.57v-.08a.74.74,0,0,1,.26,0v0h0A.69.69,0,0,1,55.14,101.57Z" fill="#fff"/><path d="M55.14,104.34v-.09h.09l.16,0s0,0,0,0A.57.57,0,0,1,55.14,104.34Z" fill="#fff"/><path d="M55.14,105.44a.47.47,0,0,1,.17,0h.08s0,0,0,0,0,0,0,0l-.12,0a.48.48,0,0,1-.12,0h0Z" fill="#fff"/><path d="M55.14,104.14v-.08h.17l.08,0s0,0,0,0a0,0,0,0,1,0,0,.5.5,0,0,1-.17,0Z" fill="#fff"/><path d="M55.14,102.87h0l.2,0v0s0,0,0,0a1,1,0,0,1-.17,0h-.08Z" fill="#fff"/><path d="M55.27,102.4a.76.76,0,0,1,.26,0v.08a.78.78,0,0,1-.26,0Z" fill="#fff"/><path d="M55.53,102v.09a.77.77,0,0,1-.26,0v0A1.15,1.15,0,0,1,55.53,102Z" fill="#fff"/><path d="M55.14,102v-.09a1.09,1.09,0,0,1,.26,0h0s0,0,0,0h-.23Z" fill="#fff"/><path d="M55.53,101.59v.08a.76.76,0,0,1-.26,0v0A.76.76,0,0,1,55.53,101.59Z" fill="#fff"/><path d="M55.4,101.74a.57.57,0,0,1-.26,0v-.09h.08a.41.41,0,0,1,.16,0S55.41,101.71,55.4,101.74Z" fill="#fff"/><path d="M55.14,105.33v-.09h.07l.18,0s0,0,0,0,0,0,0,0A1,1,0,0,1,55.14,105.33Z" fill="#fff"/><path d="M55.53,105.54v.08a.76.76,0,0,1-.26,0h0v0A.58.58,0,0,1,55.53,105.54Z" fill="#fff"/><path d="M55.14,102.36v-.08a.59.59,0,0,1,.19,0h.06s0,0,0,0,0,0,0,0a.65.65,0,0,1-.24,0Z" fill="#fff"/><path d="M55.14,103.55v-.09h.23s0,0,0,0A1,1,0,0,1,55.14,103.55Z" fill="#fff"/><path d="M55.4,102.7v0a.74.74,0,0,1-.26,0v-.09A1.09,1.09,0,0,1,55.4,102.7Z" fill="#fff"/><path d="M55.14,103.15v-.09h.16l.07,0s0,0,0,0A.74.74,0,0,1,55.14,103.15Z" fill="#fff"/><path d="M55.14,101.37v-.08h.07l.18,0s0,0,0,0,0,0,0,0a.8.8,0,0,1-.15,0Z" fill="#fff"/></g><g id="ferMqf-3" data-name="ferMqf"><path d="M55.38,110.41l-.12,0v0a.77.77,0,0,1,.26,0v.09Z" fill="#fff"/><path d="M55.52,106v.08a.76.76,0,0,1-.26,0v0A.76.76,0,0,1,55.52,106Z" fill="#fff"/><path d="M55.26,109.36a.76.76,0,0,1,.26,0v.08h-.15l-.09,0a0,0,0,0,1,0,0Z" fill="#fff"/><path d="M55.52,108V108h-.25s0,0,0,0,0,0,0,0a1.07,1.07,0,0,1,.25,0Z" fill="#fff"/><path d="M55.52,109.14v.08a.76.76,0,0,1-.26,0h0s0,0,0,0h0A.67.67,0,0,1,55.52,109.14Z" fill="#fff"/><path d="M55.26,109.59h0s0,0,0,0h.23v.09A.58.58,0,0,1,55.26,109.59Z" fill="#fff"/><path d="M55.52,106.37v.09a.8.8,0,0,1-.26,0v0A.77.77,0,0,1,55.52,106.37Z" fill="#fff"/><path d="M55.26,108.41h0s0,0,0,0a.5.5,0,0,1,.21,0h0v.08A.76.76,0,0,1,55.26,108.41Z" fill="#fff"/><path d="M55.26,107.42v0l.06,0h.2v.07A.76.76,0,0,1,55.26,107.42Z" fill="#fff"/><path d="M55.52,108.94V109a.76.76,0,0,1-.26,0v0A.58.58,0,0,1,55.52,108.94Z" fill="#fff"/><path d="M55.52,106.77v.08a.45.45,0,0,1-.2,0h0l0,0v0A.76.76,0,0,1,55.52,106.77Z" fill="#fff"/><path d="M55.52,109.73v.08h0l-.25,0h0v0A.77.77,0,0,1,55.52,109.73Z" fill="#fff"/><path d="M55.26,110h0s0,0,0,0l.08,0h.15V110A.76.76,0,0,1,55.26,110Z" fill="#fff"/><path d="M55.26,107.19a1.15,1.15,0,0,1,.26,0v.09h0a.65.65,0,0,1-.2,0h0a0,0,0,0,1,0,0Z" fill="#fff"/><path d="M55.52,108.83a.62.62,0,0,1-.19,0h0s0,0,0,0,0,0,0,0l.11,0h.13Z" fill="#fff"/><path d="M55.26,108.57a.76.76,0,0,1,.26,0v.08h-.15l-.09,0s0,0,0,0Z" fill="#fff"/><path d="M55.26,107.58a.76.76,0,0,1,.26,0v.08a.55.55,0,0,1-.18,0h-.05s0,0,0,0Z" fill="#fff"/><path d="M55.39,108.5a.54.54,0,0,1-.25,0v-.08h0l.23,0S55.4,108.47,55.39,108.5Z" fill="#fff"/><path d="M55.14,107.94v-.09h0a.75.75,0,0,1,.21,0h0s0,0,0,0,0,0,0,0A1.1,1.1,0,0,1,55.14,107.94Z" fill="#fff"/><path d="M55.39,109.29a.54.54,0,0,1-.25,0v-.09h.16l.07,0s0,0,0,0Z" fill="#fff"/><path d="M55.52,108.15v.08a.76.76,0,0,1-.26,0v0h0a.69.69,0,0,1,.25,0Z" fill="#fff"/><path d="M55.14,108.33v-.08a.5.5,0,0,1,.17,0h.07s0,0,0,0,0,0,0,0A.71.71,0,0,1,55.14,108.33Z" fill="#fff"/><path d="M55.39,109.69a.71.71,0,0,1-.25,0v-.08h0a.65.65,0,0,1,.2,0s0,0,0,0,0,0,0,0Z" fill="#fff"/><path d="M55.52,107.76v.08a.58.58,0,0,1-.26,0h0s0,0,0,0A.89.89,0,0,1,55.52,107.76Z" fill="#fff"/><path d="M55.14,106.66h.14l.09,0s0,0,0,0a.71.71,0,0,1-.25,0Z" fill="#fff"/><path d="M55.14,107.06a.72.72,0,0,1,.25,0h0s0,0,0,0l-.22,0h0Z" fill="#fff"/><path d="M55.14,109.52v-.09h0l.21,0s0,0,0,0h0a1,1,0,0,1-.24,0Z" fill="#fff"/><path d="M55.14,109.12V109a.66.66,0,0,1,.2,0h0s0,0,0,0,0,0,0,0a.65.65,0,0,1-.24,0Z" fill="#fff"/><path d="M55.14,110.22h.23s0,0,0,0h0a.72.72,0,0,1-.25,0Z" fill="#fff"/><path d="M55.14,106.16v-.08a.71.71,0,0,1,.25,0v0h0A1,1,0,0,1,55.14,106.16Z" fill="#fff"/><path d="M55.13,108.92v-.08h.09l.16,0s0,0,0,0A.82.82,0,0,1,55.13,108.92Z" fill="#fff"/><path d="M55.14,110h.17l.07,0s0,0,0,0,0,0,0,0l-.12,0h-.12S55.14,110.05,55.14,110Z" fill="#fff"/><path d="M55.14,108.73v-.09h.16l.08,0s0,0,0,0,0,0,0,0a.86.86,0,0,1-.17,0Z" fill="#fff"/><path d="M55.14,107.46h0a.65.65,0,0,1,.2,0s0,0,0,0,0,0,0,0l-.17,0h-.06s0,0,0,0S55.14,107.49,55.14,107.46Z" fill="#fff"/><path d="M55.26,107a.76.76,0,0,1,.26,0v.08a.6.6,0,0,1-.26,0Z" fill="#fff"/><path d="M55.52,106.57v.08a.76.76,0,0,1-.26,0v0A.58.58,0,0,1,55.52,106.57Z" fill="#fff"/><path d="M55.13,106.55v-.08a.57.57,0,0,1,.26,0h0s0,0,0,0h0A.66.66,0,0,1,55.13,106.55Z" fill="#fff"/><path d="M55.52,106.18v.08a.77.77,0,0,1-.26,0v0A.76.76,0,0,1,55.52,106.18Z" fill="#fff"/><path d="M55.39,106.33a1.09,1.09,0,0,1-.26,0v-.09h.08l.16,0S55.4,106.3,55.39,106.33Z" fill="#fff"/><path d="M55.14,109.91v-.08h.07a.5.5,0,0,1,.17,0s0,0,0,0,0,0,0,0A.65.65,0,0,1,55.14,109.91Z" fill="#fff"/><path d="M55.52,110.13v.08a.58.58,0,0,1-.26,0h0v0A.76.76,0,0,1,55.52,110.13Z" fill="#fff"/><path d="M55.14,107v-.09a1.37,1.37,0,0,1,.19,0h.05s0,0,0,0,0,0,0,0a1,1,0,0,1-.24,0Z" fill="#fff"/><path d="M55.14,108.13v-.08h.22s0,0,0,0A.67.67,0,0,1,55.14,108.13Z" fill="#fff"/><path d="M55.39,107.29v0a.71.71,0,0,1-.25,0v-.08A.54.54,0,0,1,55.39,107.29Z" fill="#fff"/><path d="M55.14,107.74v-.09h.23s0,0,0,0A.54.54,0,0,1,55.14,107.74Z" fill="#fff"/><path d="M55.14,106v-.08h.07a.47.47,0,0,1,.17,0s0,0,0,0,0,0,0,0l-.15,0Z" fill="#fff"/></g><g id="ferMqf-4" data-name="ferMqf"><path d="M55.53,110.56v.08a.78.78,0,0,1-.26,0v0A.76.76,0,0,1,55.53,110.56Z" fill="#fff"/><path d="M55.53,112.53v.08h0a.55.55,0,0,1-.18,0h-.05s0,0,0,0,0,0,0,0l.25,0Z" fill="#fff"/><path d="M55.53,111V111a.77.77,0,0,1-.25,0v0A.69.69,0,0,1,55.53,111Z" fill="#fff"/><path d="M55.27,112v0l.06,0h.2V112A.78.78,0,0,1,55.27,112Z" fill="#fff"/><path d="M55.53,111.35v.08a.67.67,0,0,1-.2,0h0s0,0,0,0,0,0,0,0A.69.69,0,0,1,55.53,111.35Z" fill="#fff"/><path d="M55.27,111.77a1.15,1.15,0,0,1,.26,0v.09h0a.65.65,0,0,1-.2,0h0s0,0,0,0S55.27,111.77,55.27,111.77Z" fill="#fff"/><path d="M55.27,112.16a.76.76,0,0,1,.26,0v.08a.55.55,0,0,1-.18,0H55.3s0,0,0,0S55.27,112.17,55.27,112.16Z" fill="#fff"/><path d="M55.15,112.52v-.09h0a.75.75,0,0,1,.21,0h0s0,0,0,0l0,0Z" fill="#fff"/><path d="M55.15,112.72v-.08h0a.75.75,0,0,1,.21,0h0s0,0,0,0,0,0,0,0A.69.69,0,0,1,55.15,112.72Z" fill="#fff"/><path d="M55.53,112.34v.08a.54.54,0,0,1-.25,0h0s0,0,0,0A.89.89,0,0,1,55.53,112.34Z" fill="#fff"/><path d="M55.15,111.24h.14l.09,0s0,0,0,0a.69.69,0,0,1-.25,0Z" fill="#fff"/><path d="M55.15,111.64a.69.69,0,0,1,.25,0h0s0,0,0,0l-.22,0h0Z" fill="#fff"/><path d="M55.15,110.74v-.08a.71.71,0,0,1,.25,0s0,0,0,0h0A1.1,1.1,0,0,1,55.15,110.74Z" fill="#fff"/><path d="M55.15,112h.05a.62.62,0,0,1,.19,0,0,0,0,0,1,0,0s0,0,0,0l-.17,0h-.06a0,0,0,0,1,0,0Z" fill="#fff"/><path d="M55.28,111.57a.69.69,0,0,1,.25,0v.08a.54.54,0,0,1-.25,0Z" fill="#fff"/><path d="M55.53,111.15v.08a.71.71,0,0,1-.25,0v0A.52.52,0,0,1,55.53,111.15Z" fill="#fff"/><path d="M55.15,111.13v-.08a.54.54,0,0,1,.25,0h0s0,0,0,0h0A.61.61,0,0,1,55.15,111.13Z" fill="#fff"/><path d="M55.53,110.76v.08a.72.72,0,0,1-.25,0v0A.69.69,0,0,1,55.53,110.76Z" fill="#fff"/><path d="M55.4,110.91a1.07,1.07,0,0,1-.25,0v-.09h.08l.15,0S55.41,110.88,55.4,110.91Z" fill="#fff"/><path d="M55.15,111.53v-.09a.65.65,0,0,1,.19,0h.06s0,0,0,0a0,0,0,0,1,0,0,1,1,0,0,1-.24,0Z" fill="#fff"/><path d="M55.41,111.87v0a.76.76,0,0,1-.26,0v-.08A.6.6,0,0,1,55.41,111.87Z" fill="#fff"/><path d="M55.15,112.32v-.09h.23s0,0,0,0A.52.52,0,0,1,55.15,112.32Z" fill="#fff"/><path d="M55.15,110.54v-.08h.07a.55.55,0,0,1,.18,0s0,0,0,0,0,0,0,0l-.15,0Z" fill="#fff"/></g><g id="ferMqf-5" data-name="ferMqf"><path d="M55.15,112.83v.08a.76.76,0,0,0,.26,0v0A.74.74,0,0,0,55.15,112.83Z" fill="#fff"/><path d="M55.15,113.22v.09a.8.8,0,0,0,.26,0v0A.77.77,0,0,0,55.15,113.22Z" fill="#fff"/><path d="M55.41,114.27v0l0,0h-.21v.07A.76.76,0,0,0,55.41,114.27Z" fill="#fff"/><path d="M55.15,113.62v.08a.44.44,0,0,0,.2,0h0s0,0,0,0v0A.74.74,0,0,0,55.15,113.62Z" fill="#fff"/><path d="M55.41,114a1.15,1.15,0,0,0-.26,0v.09h0a.71.71,0,0,0,.2,0h0s0,0,0,0Z" fill="#fff"/><path d="M55.54,113.51h-.15l-.08,0s0,0,0,0a.74.74,0,0,0,.26,0Z" fill="#fff"/><path d="M55.54,113.91a.74.74,0,0,0-.26,0h0s0,0,0,0l.21,0h0Z" fill="#fff"/><path d="M55.54,113v-.08a.76.76,0,0,0-.26,0v0h0A1,1,0,0,0,55.54,113Z" fill="#fff"/><path d="M55.41,113.84a.76.76,0,0,0-.26,0v.08a.6.6,0,0,0,.26,0Z" fill="#fff"/><path d="M55.15,113.42v.08a.76.76,0,0,0,.26,0v0A.57.57,0,0,0,55.15,113.42Z" fill="#fff"/><path d="M55.54,113.4v-.08a.58.58,0,0,0-.26,0h0s0,0,0,0h0A.67.67,0,0,0,55.54,113.4Z" fill="#fff"/><path d="M55.15,113v.08a.58.58,0,0,0,.26,0v0A.74.74,0,0,0,55.15,113Z" fill="#fff"/><path d="M55.28,113.18a1.09,1.09,0,0,0,.26,0v-.09h-.08l-.16,0S55.28,113.15,55.28,113.18Z" fill="#fff"/><path d="M55.54,113.8v-.09a1.11,1.11,0,0,0-.19,0h-.06s0,0,0,0,0,0,0,0a1,1,0,0,0,.24,0Z" fill="#fff"/><path d="M55.28,114.14v0a.74.74,0,0,0,.26,0v-.08A.58.58,0,0,0,55.28,114.14Z" fill="#fff"/><path d="M55.54,112.81v-.08h-.07a.55.55,0,0,0-.18,0s0,0,0,0,0,0,0,0l.16,0Z" fill="#fff"/></g></g></g><path d="M54.66,104.34s2.71-.15,3,.2c0,0,.3,0,.35,1.17.05.9.09,1.75-.32,2a8,8,0,0,1-3.12,0v-.27s1.52,0,2.63,0c0,0,.14-2.3-.27-2.65a9.64,9.64,0,0,0-2.36-.06S54.39,104.34,54.66,104.34Z" fill="#59595c"/><path d="M57.48,180.77l6.56.68s0,2.93,1.09,4a58.23,58.23,0,0,0,5,4.3s6.48,0,5.74,3.66c0,.55-4.41.57-9.73.46-1.89,0-5.7-.38-5.7-.38v.4H57A94.38,94.38,0,0,1,57.48,180.77Z"/><path d="M47.1,187.85a7.63,7.63,0,0,0-2.22-2.66l-1,.89Z" fill="#4c4c4c"/><path d="M49.14,183.8s-2.14-1.07-3.36-.87l-.3,1.31Z" fill="#4c4c4c"/><path d="M45.49,189.43s-1.11-2.12-2.23-2.67l-1,.89Z" fill="#4c4c4c"/><path d="M63,187.85s1.11-2.11,2.23-2.66l1,.89Z" fill="#4c4c4c"/><path d="M61,183.8a7.68,7.68,0,0,1,3.37-.87l.29,1.31Z" fill="#4c4c4c"/><path d="M64.62,189.43s1.12-2.12,2.23-2.67l1,.89Z" fill="#4c4c4c"/></g><g id="face"><ellipse cx="54.89" cy="41.01" rx="10.78" ry="14.79" fill="#895d3b"/><ellipse cx="49.46" cy="42.87" rx="1.27" ry="2.06" transform="translate(-0.63 0.74) rotate(-0.85)" fill="#0e090a"/><ellipse cx="59.6" cy="42.72" rx="1.27" ry="2.06" transform="translate(-0.63 0.89) rotate(-0.85)" fill="#0e090a"/><path d="M50.93,49.22l7.83-.11a3.46,3.46,0,0,1-3.62,3.26C51.27,52.42,50.93,49.22,50.93,49.22Z" fill="#fff"/></g><g id="hair"><path d="M42.83,37.6a15,15,0,0,1,.85,4.91s2.16.21,4.66-6.07c2.31-3.9,13.5-1.46,15.32-3.54a24,24,0,0,0,.21,3.38c.12.91-.15,2.68,0,3.43.09.4.42-1,.72.21a12,12,0,0,0,1,2.8s2.43-7.6,1.91-9.33a4.25,4.25,0,0,0-3.23-3.34s-3.46-8-13.8-6.06a7.88,7.88,0,0,0,1,1.62c-2.69-.13-6,5-8.68,3.17,0,0-1,1.72.46,6.45,0,.05-1.82-.32-1.81-.28C41.83,36,42.44,36.48,42.83,37.6Z"/></g></svg>