<svg xmlns="http://www.w3.org/2000/svg" width="110" height="194" viewBox="0 0 110 194"><title>landian-14-hair</title><g id="hair"><path d="M66.08,41s.27-1.62.51-3.28a8.83,8.83,0,0,0,.3-4.94,26,26,0,0,0-3.22-6.63s-1.7-2.91-9.3-3.08c0,0-6.49-.34-9.65,3.67a17.59,17.59,0,0,0-2,5c-.51,2.39-1.35,2.81-1.2,5.52,0,0-.42,1,.24,1.58.2.17.79,1.53,2.24,1.7a2.38,2.38,0,0,0,2-2s.57-2.24,1-4.21a12.22,12.22,0,0,1,1.27-3.32s1.53-.21,3.62,1.64c.85.76,2,2.07,3.41,3.36a7,7,0,0,0,4.47,2.15s2.84.52,3.34,1.35c0,0,.73.58.77,2.59v2.55s1.25-.43,1.57-1.22A7.28,7.28,0,0,0,66.08,41Z" fill="#905623"/><path d="M46.51,22.59s.08,1.33,2.39,2.18a13.66,13.66,0,0,0,4.43.69,19.92,19.92,0,0,0,4.74-.54c1.73-.46,3.19-1.25,3.41-2.56,0,0,.52-1.93-1.82-3a13.47,13.47,0,0,0-5.41-.91s-3.67-.2-5.92,1.14C47.36,20.21,46.34,20.77,46.51,22.59Z" fill="#905623"/><path d="M47.65,24.09s.91.89,7.17.7a15.13,15.13,0,0,0,5.52-.89s-.62,1.76-6.83,1.59C53.51,25.49,49,25.55,47.65,24.09Z" fill="#77451c"/></g></svg>