<svg xmlns="http://www.w3.org/2000/svg" width="110" height="194" viewBox="0 0 110 194"><title>landian-15-hair</title><g id="hair"><path d="M47.06,49.05c.35-2,.69-3.43.69-3.43l.2-1a9.16,9.16,0,0,0,2,3.05,5.78,5.78,0,0,0,2,1.2,3.86,3.86,0,0,0,2.12.19c.55,0-.77-2-.77-2a10.55,10.55,0,0,1-1.35-2.63c-.39-1.23.46-.19.46-.19a30.79,30.79,0,0,0,1.93,2.66,6.8,6.8,0,0,0,2,1.7c.73.24,1.58.59,2.2.12.47-.35-1.89-3.32-1.47-4a23.21,23.21,0,0,1,1.78,2.71,2.36,2.36,0,0,0,2.13,1.19c.63,0-.2-1.5-.58-3.55A33.31,33.31,0,0,1,62,49.69c.25,2,.87,6,.86,6.45a12,12,0,0,1-1,5.35s4.46,1.84,5.46,1.35c3.92-1.93,2.21-9,2.21-9a35.49,35.49,0,0,1-1.22-4,63,63,0,0,0-1.64-7,11.21,11.21,0,0,0-3.48-5.42c-1.66-1.49-5.26-2.7-8.66-2.59a16.6,16.6,0,0,0-7.34,1.7,7.45,7.45,0,0,0-3.21,2.67,14.24,14.24,0,0,0-1.66,4.17c-.67,2.59-1,4.63-1.47,6.52a34.35,34.35,0,0,1-1.23,4s-3.17,7.22.36,10A10.09,10.09,0,0,0,44,65.32a29,29,0,0,0,4.55.74,21.68,21.68,0,0,1-1.27-3.31,23.84,23.84,0,0,1-.63-5.26c0-.49.12-5.77.37-7.8.14-1.15.58-5.3.58-5.3"/><path d="M63,37.31a11.21,11.21,0,0,1,3.48,5.42,63,63,0,0,1,1.64,7.05,35.49,35.49,0,0,0,1.22,4s3.18,7.22-.35,10c-.76.6-1.51.68-3.52,1.1-4,.81-4.9,1-4.9,1C60,65,60.31,63,60.31,63c.36-2.94,1.65-3.86,1.71-6,0-.49.1-5.33-.15-7.36-.14-1.15-.58-5.3-.58-5.3A7.14,7.14,0,0,0,58,40.85C56.91,40.29,61.37,35.82,63,37.31Z"/></g></svg>