<svg xmlns="http://www.w3.org/2000/svg" width="110" height="194" viewBox="0 0 110 194"><title>landian-17</title><g id="landians"><path d="M38.35,146.73c-1.36-20.46-1-42.19.58-46.57,1.31-3.69,8.81-4.67,12-4.33s4.82,12.4,3.72,15.84c-2.17,6.83-3.79,19.94-3.31,35.57.09,3.06-3.85,6.06-6.23,6C43.34,153.21,38.63,150.92,38.35,146.73Z" fill="#2c3b4c"/><path d="M71.65,146.73c1.36-20.46,1-42.19-.58-46.57-1.31-3.69-8.81-4.67-12-4.33s-4.82,12.4-3.72,15.84c2.17,6.83,3.79,19.94,3.31,35.57-.09,3.06,3.85,6.06,6.23,6C66.66,153.21,71.37,150.92,71.65,146.73Z" fill="#2c3b4c"/><path d="M62.39,48.51c-1.17-1-.53-6.48-.53-6.48l-13.46.32s.9,5.19-1.84,6.45l8.22,24.46Z" fill="#b7784b"/><path d="M72.48,99.13c-1.56-4.06.74-23.31,1.12-30.46.09-.82.2-1.62.32-2.39l0-.07C75,64.63,78.25,55.12,76.66,53c-1.06-1.4-11.27-4.89-12.74-4.53a11.4,11.4,0,0,1-2.18-1c-.53,4-3.59,5.51-6.67,5.64-3.48.15-6.66-1.84-6.92-5.89a17.12,17.12,0,0,1-2.64,1.18C43.5,48.4,34,51.69,33,53c-1.59,2.09,2.14,11.6,3.23,13.18S39,93.31,37.55,98.79c-.07.26,8,5.7,17,5.76C63,104.62,72.56,99.32,72.48,99.13Z" fill="#fff"/><polygon points="58.66 95.11 56.35 56.39 52.89 55.89 52.9 56.37 52.76 56.39 50.45 95.11 54.56 99.47 54.56 99.44 54.56 99.47 58.66 95.11" fill="#79589f"/><path d="M51.48,52.55s.77,6.15,3.08,6.41,3.59-6.16,3.59-6.16Z" fill="#513875"/><path d="M51.48,52s.77,6.15,3.08,6.41,3.59-6.16,3.59-6.16Z" fill="#79589f"/><path d="M31.12,54.42c0,4.19-6.41,25-6.78,32.34-.11,2.15.34,4.87,3.4,5.44s5.71-2.42,6.05-3.32S39.92,66,40.6,64.09s1-6.12,0-7.48S31.12,54.42,31.12,54.42Z" fill="#7894a6"/><path d="M26.41,112.5c-.42,2.71-1.36,8-.8,10.43s3.4,5.43,4.31,5.32,4-2.94,3.74-10.31c0,0,1.58,2.61,2.83,1.93s-1.47-7.71-1.93-9.52a4.92,4.92,0,0,0-5.21-3.4C27,107.41,26.63,111,26.41,112.5Z" fill="#ca9067"/><path d="M25.44,112.63s-2.83-16.71-1.3-25.5c.23-1.35,1.25-3.29,3.63-2.72s5.45.83,6,2.76,1,23.62,1,23.62Z" fill="#7894a6"/><path d="M38.51,185.7c2.91-1.12-12.9,4.33-14.47,4.7s-2,3.06-1.14,3.13,23.32.61,25.05.43,5.66.79,3-3.47C45.24,181.1,35.59,186.82,38.51,185.7Z" fill="#603917"/><path d="M36.56,186.27s3.54-13.28,1.7-42.45c-.46-7.3,12.2-9,13.13.37a276.74,276.74,0,0,1,.54,48.8S46.73,187.54,36.56,186.27Z" fill="#2c3b4c"/><path d="M71.49,185.7c-2.91-1.12,12.9,4.33,14.47,4.7s2,3.06,1.14,3.13-23.32.61-25,.43-5.66.79-3-3.47C64.76,181.1,74.41,186.82,71.49,185.7Z" fill="#603917"/><path d="M73.44,186.27S69.9,173,71.74,143.82c.46-7.3-12.2-9-13.13.37a276.74,276.74,0,0,0-.54,48.8S63.27,187.54,73.44,186.27Z" fill="#2c3b4c"/><path d="M78.86,54.42c0,4.19,6.41,25,6.78,32.34.11,2.15-.34,4.87-3.4,5.44s-5.7-2.42-6-3.32S70.07,66,69.39,64.09s-1-6.12,0-7.48S78.86,54.42,78.86,54.42Z" fill="#7894a6"/><path d="M83.58,112.5c.41,2.71,1.36,8,.79,10.43s-3.4,5.43-4.3,5.32-4-2.94-3.74-10.31c0,0-1.59,2.61-2.84,1.93s1.48-7.71,1.93-9.52a4.92,4.92,0,0,1,5.21-3.4C83,107.41,83.35,111,83.58,112.5Z" fill="#ca9067"/><path d="M84.55,112.63s2.82-16.71,1.29-25.5c-.23-1.35-1.24-3.29-3.62-2.72s-5.46.83-6,2.76-1,23.62-1,23.62Z" fill="#7894a6"/><path d="M46.59,34.16s-1.82-2.26-3.7-.38,1.55,6.58,3.82,7.33S46.59,34.16,46.59,34.16Z" fill="#d69471"/><path d="M62.9,33.92s1.76-2.32,3.69-.49-1.36,6.62-3.6,7.44S62.9,33.92,62.9,33.92Z" fill="#d69471"/><path d="M50.34,40.71l9-.13a4,4,0,0,1-4.18,3.77C50.74,44.41,50.34,40.71,50.34,40.71Z" fill="#fff"/><path d="M38.25,97.08c12.73,5.59,32.07,1.23,32.07,1.23l.6,14.61s-16.87,6.18-33.36-.11A133.06,133.06,0,0,1,38.25,97.08Z" fill="#2c3b4c"/><path d="M53.53,52,50.2,57.42l-4.69-9,2.64-2.08A22.89,22.89,0,0,0,53.53,52Z" fill="#fff"/><path d="M48,47.73v60.33c0,6-11,12.64-11.12,9.54-.31-6.49.74-18.66.7-29.92,0-6.4-.89-12.46-1.32-17.12,0-.46-.09-.94-.14-1.41-.17-1.66-4.91-14.7-4.91-14.7.93-3,7.7-4.17,11-5.25l1.29-.39,1-.27C45.66,48.22,46.93,48,48,47.73Z" fill="#7894a6"/><path d="M78.9,54.45s-4.75,13-4.92,14.7c-.14,1.45-.27,2.84-.36,4.2-.25,3.38-1.11,8.62-1.1,14.33,0,13.47,1.28,29.54.69,29.92C69.38,120.06,62,112.46,62,108.08V47.7c1.07.22,2.38.51,3.67.84l1,.27,1.29.39C71.19,50.28,78,51.48,78.9,54.45Z" fill="#7894a6"/><path d="M56.61,52l3.33,5.39,4.68-9L62,46.39A22.89,22.89,0,0,1,56.61,52Z" fill="#fff"/><line x1="47.94" y1="110.98" x2="47.94" y2="108.03" fill="none"/><line x1="47.94" y1="47.7" x2="47.94" y2="45.82" fill="none"/><line x1="61.94" y1="47.67" x2="61.94" y2="44.9" fill="none"/><line x1="61.94" y1="111.56" x2="61.94" y2="108.05" fill="none"/><path d="M48.15,46.39l-7.61,5,3.32,6-2.29,2s5.51,27.14,6.37,33.86C47.94,93.31,48.65,60.16,48.15,46.39Z" fill="#4b6a99"/><path d="M62,46.39l7.36,5-3.32,6,2.29,2S62.81,86.59,62,93.31C62,93.31,61.49,60.16,62,46.39Z" fill="#4b6a99"/><path d="M46.71,34.39s-1.8-2.22-3.65-.36,1.53,6.46,3.76,7.2S46.71,34.39,46.71,34.39Z" fill="#ca9067"/><path d="M62.79,34.16s1.74-2.28,3.64-.48S65.1,40.19,62.88,41,62.79,34.16,62.79,34.16Z" fill="#ca9067"/></g><g id="face"><ellipse cx="54.96" cy="34.49" rx="10.71" ry="14.15" transform="translate(-0.51 0.82) rotate(-0.86)" fill="#ca9067"/><ellipse cx="50.61" cy="33.69" rx="1.16" ry="1.88" transform="translate(-0.5 0.76) rotate(-0.85)" fill="#0c0506"/><ellipse cx="59.87" cy="33.55" rx="1.16" ry="1.88" transform="translate(-0.49 0.89) rotate(-0.85)" fill="#0c0506"/><path d="M50.25,40.46,60,40.33a4.29,4.29,0,0,1-4.5,4C50.67,44.43,50.25,40.46,50.25,40.46Z" fill="#fff"/></g><g id="hair"><path d="M44.3,33l2,2.32V26.11s14.93,1.67,17.25,0l.19,9.1,2-2.18v-6.6l-2-4.24-7.55-2.82-5.63,1-2.85,2.28-2.18,2.48-1.08,2.57Z"/></g></svg>