<svg xmlns="http://www.w3.org/2000/svg" xmlns:xlink="http://www.w3.org/1999/xlink" width="110" height="194" viewBox="0 0 110 194"><defs><clipPath id="clip-path"><path d="M-45.56,82.11c-3.33,3.47-11,4.56-11,4.56s.63-4,0-5.49c-1.06,15.74.84,36,.84,36l-38.2.6s1.45-28.33,2.55-40.63C-92.69,80.1-92.77,84-93.26,85L-94,87s-8.23-1.17-11-4.39c2.23-21.21,14.64-24.22,14.64-24.22l0,0c1.57-.56,3.3-1,4.56-1.37a21.26,21.26,0,0,0,4.06-1.69c.26,4,6.87,8.67,6.87,8.67s4.31-5.92,6.72-8.42A16.37,16.37,0,0,0-64.52,57a48.34,48.34,0,0,1,5.82,1.83c2.21,2.22,8.37.5,12.22,18.36Z" fill="none"/></clipPath><linearGradient id="linear-gradient" x1="46.54" y1="151.08" x2="47.5" y2="186.88" gradientUnits="userSpaceOnUse"><stop offset="0" stop-color="#698293"/><stop offset="0.26" stop-color="#657d8e"/><stop offset="0.58" stop-color="#59707f"/><stop offset="0.92" stop-color="#455b67"/><stop offset="1" stop-color="#405561"/></linearGradient><linearGradient id="linear-gradient-2" x1="66.56" y1="143.32" x2="63.68" y2="185.2" xlink:href="#linear-gradient"/></defs><title>landian-25-body</title><g id="landians"><g clip-path="url(#clip-path)"><path d="M.73,116.56a.24.24,0,0,0,0-.47.24.24,0,0,0,0,.47Z" fill="#410099"/><path d="M.73,108.43a.24.24,0,0,0,0-.47.24.24,0,0,0,0,.47Z" fill="#410099"/><path d="M.73,100.3a.24.24,0,0,0,0-.47.24.24,0,0,0,0,.47Z" fill="#410099"/><path d="M.73,92.17a.24.24,0,0,0,0-.47.24.24,0,0,0,0,.47Z" fill="#410099"/><path d="M1.1,84a.24.24,0,0,0,0-.47.24.24,0,0,0,0,.47Z" fill="#410099"/><path d="M1.1,75.91a.24.24,0,0,0,0-.47.24.24,0,0,0,0,.47Z" fill="#410099"/><path d="M1.1,67.78a.24.24,0,0,0,0-.47.24.24,0,0,0,0,.47Z" fill="#410099"/><path d="M1.1,59.65a.24.24,0,0,0,0-.47.24.24,0,0,0,0,.47Z" fill="#410099"/></g><path d="M43,29.39a26.2,26.2,0,0,0-.78,7.88,55.69,55.69,0,0,0,3.43,10c.07-.34,1-1.66,1.12-1.16a7,7,0,0,0,1.38,2.34,7.06,7.06,0,0,1,.7-1.55c.32-.36,1,1.3,1.09,1.75a3.55,3.55,0,0,0,.31.69,50.75,50.75,0,0,0,6.4,1A46.91,46.91,0,0,1,64,47.57a2.65,2.65,0,0,1,2.13.92,4.37,4.37,0,0,0,1-2.25s.55,1.17.67,1.33a27,27,0,0,0,1.2-5,9.8,9.8,0,0,0-.41-4.81C65.7,36.43,50.81,27.46,43,29.39Z" fill="#572512"/><path d="M42.86,186.1c2.52-1.07-11.17,4.12-12.53,4.47s-1.72,2.91-1,3,20.2.58,21.69.4,4.9.75,2.64-3.3C48.69,181.72,40.33,187.16,42.86,186.1Z" fill="#402312"/><path d="M44.29,185.52s-1.2-10.32-4.67-41.65c-.77-6.92,13.18-8.06,13.49.88.7,19.9-1.19,44-1.19,44S50.59,185.84,44.29,185.52Z" fill="url(#linear-gradient)"/><path d="M39.56,143.06a387.51,387.51,0,0,1-.73-40.91c.14-3.72,8.52-6.4,12.3-4.48,2.73,1.38,7,11.44,6,14.71-2,6.5-4.76,22.31-4.08,31.05.23,2.9-3.62,5.77-5.85,5.71C45.49,149.1,39.82,147,39.56,143.06Z" fill="#698293"/><path d="M70,186.1c-2.53-1.07,11.16,4.12,12.52,4.47s1.72,2.91,1,3-20.19.58-21.69.4-4.9.75-2.64-3.3C64.16,181.72,72.52,187.16,70,186.1Z" fill="#402312"/><path d="M68.57,185.52s1.2-10.32,4.67-41.65c.76-6.92-13.18-8.06-13.5.88-.7,19.9,1.2,44,1.2,44S62.26,185.84,68.57,185.52Z" fill="url(#linear-gradient-2)"/><path d="M73.29,143.06A382,382,0,0,0,74,102.15c-.14-3.72-8.51-6.4-12.3-4.48-2.72,1.38-7,11.44-6,14.71,2,6.5,4.76,22.31,4.08,31.05-.22,2.9,3.62,5.77,5.86,5.71C67.37,149.1,73,147,73.29,143.06Z" fill="#698293"/><path d="M36.81,60.33S26.92,81.12,26.13,88.1c-.23,2-.06,4.64,2.29,5.36s3.59-2.77,3.92-3.61,7.93-20.51,8.59-22.3,1.22-5.75.51-7.1S37.79,57.91,36.81,60.33Z" fill="#f1b186"/><path d="M77.07,59.86s9.41,21,10.05,28c.18,2,0,4.65-2.41,5.31s-3.53-2.85-3.84-3.69S73.41,68.79,72.78,67s-1.08-5.78-.35-7.11S76.14,57.43,77.07,59.86Z" fill="#f1b186"/><path d="M65.28,54c-4.47-1.51-4.69-7.12-4.69-7.12l-8.4.32s-.21,5.61-4.68,7.12l8.94,27Z" fill="#e19974"/><path d="M40.25,103.59c12,5.32,33.6,1.37,33.6,1.37l.24,13.91s-19.76,5.27-35.24-.72C38.85,118.15,38.67,106.63,40.25,103.59Z" fill="#698293"/><path d="M33,110.68s-.38-19.6-.7-21.46a4,4,0,0,0-2.86-3.57c-1.83-.67-2.75,1.11-3,2.38-1.63,7.5,1.43,18.8,1.25,22.48s-2.81,9.3-2.53,11.59,2.29,5.36,3,5.3,3.31-2.57,3.63-9.57c0,0,1.07,2.57,2.09,2S33.27,112.42,33,110.68Z" fill="#f1b186"/><path d="M47.66,36s-2-2.5-4-.42,1.69,7.25,4.15,8.08S47.66,36,47.66,36Z" fill="#f1b186"/><path d="M50.38,42l13.15-.17s-.2,6.92-6.05,7C51,48.91,50.38,42,50.38,42Z" fill="#f1b186"/><path d="M56.83,107.32a98.36,98.36,0,0,0,11.07-.79A65,65,0,0,1,56.83,107.32Z" fill="#e05b3b"/><path d="M88.27,91.27c0,1.88-.18,14.89-2,16.6a2.85,2.85,0,0,1-2.06.66h0a11.58,11.58,0,0,1-4.23-1.11S78.18,97,79.44,89.65c.28-1.67-3.11-7.05-5.74-14.48v4.15c.56,8.5,1.53,24.59,1,25.2a3.16,3.16,0,0,1-1,.5,27.52,27.52,0,0,1-5.81,1.51,98,98,0,0,1-11.06.79h-.34a96.42,96.42,0,0,1-11.08-.8,27.09,27.09,0,0,1-5.8-1.5,3.47,3.47,0,0,1-1-.5c-.58-.61.4-16.7,1-25.2.21-3.08.36-5.16.36-5.16l-.36,1C37,82.6,33.59,88,33.88,89.65c1.25,7.38-.49,17.76-.49,17.76s-4.43,2.17-6.24.46-2-14.72-2-16.6c0-1.48,1.23-10,1.76-13.65a14,14,0,0,1,.86-3.18c1.6-4,5.95-14.29,9.66-18.31.63-.68,13-3.85,13-3.85-.73,2.78.67,5.37,2.33,7.33l3.93,3.49v0h0L61,59.26c1.53-1.91,2.73-4.37,2-7,0,0,12.32,3.17,12.95,3.85,3.71,4,8.06,14.34,9.66,18.31a13.83,13.83,0,0,1,.79,2.78h0c.48,1.63,1,3.44,1.07,4.06a79.25,79.25,0,0,1,.62,8.39C88.22,90.42,88.27,91,88.27,91.27Z" fill="#ab8ecd"/><path d="M45.41,106.52a96.58,96.58,0,0,0,11.08.8A63.91,63.91,0,0,1,45.41,106.52Z" fill="#e05b3b"/><path d="M56.66,63.57c-8.6-4.35-7.28-11-7.28-11,.69-.84,1-.26,1-.26-1.3,3.84,6.06,10.64,6.27,10.84,0,0,7.5-6.77,6.18-10.67,0,0,.41-.75,1.11.09C63.94,52.54,65.25,59.22,56.66,63.57Z" fill="#733ec6"/><path d="M28,112.42a12.88,12.88,0,0,1,5.62-.44.37.37,0,0,0,.43-.38l-.22-4.41a.38.38,0,0,0-.31-.36c-1.24-.21-6-.94-6.63.18s.1,3.83.43,5A.53.53,0,0,0,28,112.42Z" fill="#d04528"/><path d="M33.9,119.82c-1,.58-2.09-2-2.09-2-.32,7-2.91,9.52-3.63,9.57s-2.73-3-3-5.3c-.24-1.94,1.61-6.25,2.29-9.76a11.51,11.51,0,0,0,.24-1.83,22.83,22.83,0,0,0-.33-3.88c1.25-.47,4.16-.1,5.58.12.06,2.33.09,3.93.09,3.93,0,.29.11.73.22,1.26C33.75,114.55,34.75,119.35,33.9,119.82Z" fill="#f1b186"/><path d="M34,111.6a.37.37,0,0,1-.43.38l-.32,0a12.91,12.91,0,0,0-5.3.48.55.55,0,0,1-.5-.08.62.62,0,0,1-.18-.29c-.33-1.21-1-4-.43-5a.93.93,0,0,1,.52-.38c1.25-.47,4.16-.1,5.58.12l.53.08a.38.38,0,0,1,.31.36Z" fill="#733ec6"/><path d="M85.63,109.09H80.27c0,1-.07,1.62-.07,1.62-.27,1.74-2.07,8.52-1.06,9.12s2.13-1.94,2.13-1.94c.17,7,2.7,9.58,3.41,9.65s2.8-3,3.13-5.23-2.17-8-2.27-11.65A13.74,13.74,0,0,1,85.63,109.09Z" fill="#f1b186"/><path d="M85.57,112.42A12.88,12.88,0,0,0,80,112a.37.37,0,0,1-.43-.38l.22-4.41a.38.38,0,0,1,.31-.36c1.24-.21,6-.94,6.63.18s-.1,3.83-.43,5A.53.53,0,0,1,85.57,112.42Z" fill="#733ec6"/><path d="M65.39,35.75s1.91-2.55,4-.53-1.47,7.29-3.91,8.19S65.39,35.75,65.39,35.75Z" fill="#f1b186"/></g></svg>