<svg xmlns="http://www.w3.org/2000/svg" width="110" height="194" viewBox="0 0 110 194"><title>landian-34-hair</title><g id="hair"><path d="M65.74,40.78a40,40,0,0,1-2.43-9.39,13.59,13.59,0,0,1-4.15,3.12c-.32.18-.54-2.41-1.27-2.41a24.43,24.43,0,0,1-2.65,2.24,13.52,13.52,0,0,1-5,1.46c-.94.11-3.32,2.15-3.86,3.3a8.55,8.55,0,0,0-.82,2.66A25.88,25.88,0,0,1,42.75,38c-2.51-6,.49-10,5.53-14.14,4.21-3.48,9.17-.05,9.17-.05a7.21,7.21,0,0,1,5.12.05,7.87,7.87,0,0,1,3.71,3.55,19.69,19.69,0,0,1,1.83,7.46C68.45,38.14,65.74,40.78,65.74,40.78Z" fill="#ac5f27"/></g></svg>