<svg xmlns="http://www.w3.org/2000/svg" xmlns:xlink="http://www.w3.org/1999/xlink" width="110" height="194" viewBox="0 0 110 194"><defs><linearGradient id="linear-gradient" x1="-6608.56" y1="150.63" x2="-6608.56" y2="180.46" gradientTransform="matrix(-1, 0, 0, 1, -6545.06, 0)" gradientUnits="userSpaceOnUse"><stop offset="0" stop-color="#698293"/><stop offset="0.26" stop-color="#657d8e"/><stop offset="0.58" stop-color="#59707f"/><stop offset="0.92" stop-color="#455b67"/><stop offset="1" stop-color="#405561"/></linearGradient><linearGradient id="linear-gradient-2" x1="291.89" y1="150.76" x2="291.89" y2="180.69" gradientTransform="translate(-245)" xlink:href="#linear-gradient"/><clipPath id="clip-path"><path d="M69.92,65.06a1.59,1.59,0,0,1,.2,1,1.45,1.45,0,0,1-.4.87,1.48,1.48,0,0,1,.11,1.11,1.55,1.55,0,0,1-.58.87,1.43,1.43,0,0,1,.19,1.4,1.52,1.52,0,0,1-.56.77,1.42,1.42,0,0,1,.18,1.34,1.49,1.49,0,0,1-.62.84,1.47,1.47,0,0,1,.15,1.3,1.5,1.5,0,0,1-.61.82h0a1.37,1.37,0,0,1,.2,1.28.43.43,0,0,1,0,.11,1.48,1.48,0,0,1-.42.76,1.41,1.41,0,0,1,.47,1.29,1.5,1.5,0,0,1-.45.94,1.47,1.47,0,0,1,.4,1.25,1.45,1.45,0,0,1-.4.9,1.44,1.44,0,0,1,.44,1.31,1.51,1.51,0,0,1-.36.83,1.19,1.19,0,0,1,.36.53,2,2,0,0,1,.09.35,1.48,1.48,0,0,1,0,.21h0v.13a1.88,1.88,0,0,1,0,.33,1.46,1.46,0,0,1-.29.57,1.55,1.55,0,0,1,.25,2.21,1.47,1.47,0,0,1,.54,1.19,1.5,1.5,0,0,1-.3,1A1.46,1.46,0,0,1,69,91.81a1.54,1.54,0,0,1-.29.88,1.39,1.39,0,0,1,.61,1.15,1.54,1.54,0,0,1-.27,1A1.41,1.41,0,0,1,69.72,96a1.55,1.55,0,0,1-.27,1,1.49,1.49,0,0,1,.63,1.16c.14,1.15-1.35,1.65-1.59,1.79-1.91,1.06-7.66,1.71-13.43,1.77a.49.49,0,0,1-.17,0c-5.77-.06-15.2-.89-15.16-3.4a1.34,1.34,0,0,1,.63-1.17,1.49,1.49,0,0,1-.27-1A1.41,1.41,0,0,1,40.73,95a1.49,1.49,0,0,1-.27-1,1.38,1.38,0,0,1,.6-1.15,1.54,1.54,0,0,1-.29-.88,1.5,1.5,0,0,1,.59-1.27,1.57,1.57,0,0,1,.24-2.13,1.41,1.41,0,0,1-.35-1,1.44,1.44,0,0,1,.59-1.23,1.26,1.26,0,0,1-.21-.36l0-.1a.25.25,0,0,1,0-.07.94.94,0,0,0,0-.09l0-.21s0,0,0-.07v-.23a1.57,1.57,0,0,1,0-.23h0a1.28,1.28,0,0,1,.43-.76,1.52,1.52,0,0,1-.37-.82,1.47,1.47,0,0,1,.45-1.33,1.43,1.43,0,0,1-.41-.9,1.51,1.51,0,0,1,.41-1.24A1.47,1.47,0,0,1,41.6,79a1.41,1.41,0,0,1,.47-1.29,1.49,1.49,0,0,1-.43-.76.51.51,0,0,1,0-.13,1.39,1.39,0,0,1,.21-1.26,1.58,1.58,0,0,1-.46-2.12,1.5,1.5,0,0,1-.63-.84,1.45,1.45,0,0,1,.19-1.34,1.54,1.54,0,0,1-.57-.77,1.41,1.41,0,0,1,.2-1.39,1.53,1.53,0,0,1-.58-.88,1.48,1.48,0,0,1,.11-1.11,1.39,1.39,0,0,1-.4-.87,1.65,1.65,0,0,1,.19-1,1.35,1.35,0,0,1-.52-1.13,1.64,1.64,0,0,1,.14-.67,1.51,1.51,0,0,1-.14-.65,1.68,1.68,0,0,1,.25-.88c.11-2.48,9.59-4.81,11.06-3.46h0l4.46,7.35,4-7.5A3.23,3.23,0,0,1,61.06,58h.13c2.79.15,8,1.73,8.89,3.53h0a1.52,1.52,0,0,1,.36,1,1.67,1.67,0,0,1-.13.65,1.76,1.76,0,0,1,.13.66A1.37,1.37,0,0,1,69.92,65.06Z" fill="#231f20"/></clipPath></defs><title>landian-09-body</title><g id="landians"><path d="M43.88,43.9s-1,37.36,10.75,36.58c13-.87,11.71-37.06,11.71-37.06Z" fill="#11112d"/><path d="M67.85,60.28C72.77,63,75.22,78.61,75.9,80.84c.9,2.91,2.46,8.72,0,9.83s-4.25-2.68-6-6.92-5.82-12.23-6.71-15.43C62,64.3,62.94,57.59,67.85,60.28Z" fill="#733ec6"/><path d="M41.94,60.81C37,63.46,34.46,79.09,33.76,81.32c-.92,2.9-1.93,7.65.52,8.79s3.2-2.27,5.1-5.91c3-5.83,6.29-12.12,7.2-15.32C47.72,64.87,46.87,58.16,41.94,60.81Z" fill="#733ec6"/><path d="M70.56,148.53s3.78-19.44,2.16-36.13a9.36,9.36,0,0,0-3.2-6.5c-4.62-4.79-12.3,2.16-12.3,18,0,13,.4,23.28.38,25.56C57.54,157.89,65.93,160.17,70.56,148.53Z" fill="#698293"/><path d="M58.37,187.84c.72-1.42.41-5,.37-7.33s-.86-2.69-2-12.53.45-12.3,1.79-19a4.5,4.5,0,0,1,8.94.89c.23,5.82-2.25,30.48-2.46,30.66-.27,2.16-.6,5.89.45,6.42,1.29.64,3.74,2.15,6.4,3.65,1.51.63,4.18,1.3,4.31,2.09,0,1.27-2.75.77-8.23.66-1.95,0-4.53-.24-6.52-.13C56.61,193.47,57.65,189.27,58.37,187.84Z" fill="#fcdab5"/><path d="M58.27,188.17s.48,2.05,6.89,2.63c2.44.22,3-2.57,3-2.57s6.58,2.09,8.56,4.17C76.35,194,73,193.76,68,193.64c-1.8,0-10.15-.11-10.15-.11A5.63,5.63,0,0,1,58.27,188.17Z"/><path d="M65,184.92s4.34-28.31,5.79-37.93c1.31-8.63-11-8.6-12-3.22-1.37,6.84-2.5,9.11-2.6,19.52-.06,6.61,2,20.24,2.17,21.63C58.37,185.73,63.19,185.64,65,184.92Z" fill="url(#linear-gradient)"/><path d="M39.64,148.37s-3.94-19-2.31-35.66c.32-3.18.9-4.72,2.05-6.18,4.52-5.71,13.73,1.39,13.73,17.19,0,13-.4,23.28-.39,25.56C52.78,157.72,44.31,160,39.64,148.37Z" fill="#698293"/><path d="M52,188.12c-.72-1.43-.42-5-.37-7.33s.86-2.69,2-12.54-.45-12.3-1.79-19a4.51,4.51,0,0,0-9,.9c-.22,5.81,2.26,30.47,2.46,30.65.27,2.16.61,5.89-.45,6.42-1.29.65-3.74,2.15-6.4,3.66-1.5.62-4.17,1.29-4.31,2.08,0,1.27,2.75.77,8.23.66,1.95,0,4.53-.24,6.53-.13C53.78,193.74,52.73,189.55,52,188.12Z" fill="#fcdab5"/><path d="M52.18,188.44s-.48,2.05-6.89,2.63c-2.44.22-3-2.56-3-2.56s-6.57,2.08-8.56,4.16c.36,1.61,3.68,1.36,8.73,1.24,1.8,0,10.15-.11,10.15-.11A5.63,5.63,0,0,0,52.18,188.44Z"/><path d="M45.29,185.12s-4.2-28.64-5.66-38.26c-1.3-8.62,10.95-8.2,12-2.82,1.37,6.84,2.5,9.11,2.6,19.52.06,6.61-2,20.24-2.16,21.64C52,186,47.08,185.84,45.29,185.12Z" fill="url(#linear-gradient-2)"/><path d="M51.33,51.08s.39,6.34-2.66,8c-.67.37,3.23,27.62,6.78,27.86,2.52.16,4.88-22.08,6.41-27.51,0,0-3.07-1.34-2.39-7.59C59.76,49.14,51.33,51.08,51.33,51.08Z" fill="#e1c3a5"/><path d="M41.58,95a106.28,106.28,0,0,0-3.78,15.78c-.15.89,7.67,9.16,15.26,9.82a22.85,22.85,0,0,0,4.33.15C65,120.41,72.47,112,72.32,111a73,73,0,0,0-4.43-16.4Z" fill="#698293"/><path d="M48.68,58.62s-4.94.89-5.71,2c-.22,2.69-1,7.3.57,12.26.5,1.62,1,5.25.57,12.28-.17,2.92-2,8.58-3.12,11.94a66.47,66.47,0,0,0-2.67,10,31.42,31.42,0,0,0,12.17,3.36,68.76,68.76,0,0,0,13.1-.35,32.66,32.66,0,0,0,8.57-3c-.81-7.42-4.83-14.57-5.91-22.76a35,35,0,0,1,.62-11.77c1.54-5,.22-9.89,0-12.57-1.31-1-5.53-1.43-5.53-1.43s-.12,1.32-3,2.74a10.09,10.09,0,0,1-6.26-.11A7.29,7.29,0,0,1,48.68,58.62Z" fill="#733ec6"/><path d="M69.92,65.06a1.59,1.59,0,0,1,.2,1,1.45,1.45,0,0,1-.4.87,1.48,1.48,0,0,1,.11,1.11,1.55,1.55,0,0,1-.58.87,1.43,1.43,0,0,1,.19,1.4,1.52,1.52,0,0,1-.56.77,1.42,1.42,0,0,1,.18,1.34,1.49,1.49,0,0,1-.62.84,1.47,1.47,0,0,1,.15,1.3,1.5,1.5,0,0,1-.61.82h0a1.37,1.37,0,0,1,.2,1.28.43.43,0,0,1,0,.11,1.48,1.48,0,0,1-.42.76,1.41,1.41,0,0,1,.47,1.29,1.5,1.5,0,0,1-.45.94,1.47,1.47,0,0,1,.4,1.25,1.45,1.45,0,0,1-.4.9,1.44,1.44,0,0,1,.44,1.31,1.51,1.51,0,0,1-.36.83,1.19,1.19,0,0,1,.36.53,2,2,0,0,1,.09.35,1.48,1.48,0,0,1,0,.21h0v.13a1.88,1.88,0,0,1,0,.33,1.46,1.46,0,0,1-.29.57,1.55,1.55,0,0,1,.25,2.21,1.47,1.47,0,0,1,.54,1.19,1.5,1.5,0,0,1-.3,1A1.46,1.46,0,0,1,69,91.81a1.54,1.54,0,0,1-.29.88,1.39,1.39,0,0,1,.61,1.15,1.54,1.54,0,0,1-.27,1A1.41,1.41,0,0,1,69.72,96a1.55,1.55,0,0,1-.27,1,1.49,1.49,0,0,1,.63,1.16c.14,1.15-1.35,1.65-1.59,1.79-1.91,1.06-7.66,1.71-13.43,1.77a.49.49,0,0,1-.17,0c-5.77-.06-15.2-.89-15.16-3.4a1.34,1.34,0,0,1,.63-1.17,1.49,1.49,0,0,1-.27-1A1.41,1.41,0,0,1,40.73,95a1.49,1.49,0,0,1-.27-1,1.38,1.38,0,0,1,.6-1.15,1.54,1.54,0,0,1-.29-.88,1.5,1.5,0,0,1,.59-1.27,1.57,1.57,0,0,1,.24-2.13,1.41,1.41,0,0,1-.35-1,1.44,1.44,0,0,1,.59-1.23,1.26,1.26,0,0,1-.21-.36l0-.1a.25.25,0,0,1,0-.07.94.94,0,0,0,0-.09l0-.21s0,0,0-.07v-.23a1.57,1.57,0,0,1,0-.23h0a1.28,1.28,0,0,1,.43-.76,1.52,1.52,0,0,1-.37-.82,1.47,1.47,0,0,1,.45-1.33,1.43,1.43,0,0,1-.41-.9,1.51,1.51,0,0,1,.41-1.24A1.47,1.47,0,0,1,41.6,79a1.41,1.41,0,0,1,.47-1.29,1.49,1.49,0,0,1-.43-.76.51.51,0,0,1,0-.13,1.39,1.39,0,0,1,.21-1.26,1.58,1.58,0,0,1-.46-2.12,1.5,1.5,0,0,1-.63-.84,1.45,1.45,0,0,1,.19-1.34,1.54,1.54,0,0,1-.57-.77,1.41,1.41,0,0,1,.2-1.39,1.53,1.53,0,0,1-.58-.88,1.48,1.48,0,0,1,.11-1.11,1.39,1.39,0,0,1-.4-.87,1.65,1.65,0,0,1,.19-1,1.35,1.35,0,0,1-.52-1.13,1.64,1.64,0,0,1,.14-.67,1.51,1.51,0,0,1-.14-.65,1.68,1.68,0,0,1,.25-.88c.11-2.48,9.59-4.81,11.06-3.46h0l4.46,7.35,4-7.5A3.23,3.23,0,0,1,61.06,58h.13c2.79.15,8,1.73,8.89,3.53h0a1.52,1.52,0,0,1,.36,1,1.67,1.67,0,0,1-.13.65,1.76,1.76,0,0,1,.13.66A1.37,1.37,0,0,1,69.92,65.06Z" fill="#231f20"/><g clip-path="url(#clip-path)"><line x1="31.03" y1="59.28" x2="91.35" y2="59.28" fill="#808184" stroke="#404041" stroke-miterlimit="10" stroke-width="0.46"/><line x1="31.03" y1="61.2" x2="91.35" y2="61.2" fill="#808184" stroke="#404041" stroke-miterlimit="10" stroke-width="0.46"/><line x1="31.03" y1="65.05" x2="91.35" y2="65.05" fill="#808184" stroke="#404041" stroke-miterlimit="10" stroke-width="0.46"/><line x1="31.03" y1="68.9" x2="91.35" y2="68.9" fill="#808184" stroke="#404041" stroke-miterlimit="10" stroke-width="0.46"/><line x1="31.03" y1="63.13" x2="91.35" y2="63.13" fill="#808184" stroke="#404041" stroke-miterlimit="10" stroke-width="0.46"/><line x1="31.03" y1="66.97" x2="91.35" y2="66.97" fill="#808184" stroke="#404041" stroke-miterlimit="10" stroke-width="0.46"/><line x1="31.03" y1="74.66" x2="91.35" y2="74.66" fill="#808184" stroke="#404041" stroke-miterlimit="10" stroke-width="0.46"/><line x1="31.03" y1="76.59" x2="91.35" y2="76.59" fill="#808184" stroke="#404041" stroke-miterlimit="10" stroke-width="0.46"/><line x1="31.03" y1="70.82" x2="91.35" y2="70.82" fill="#808184" stroke="#404041" stroke-miterlimit="10" stroke-width="0.46"/><line x1="31.03" y1="72.74" x2="91.35" y2="72.74" fill="#808184" stroke="#404041" stroke-miterlimit="10" stroke-width="0.46"/><line x1="31.03" y1="82.35" x2="91.35" y2="82.35" fill="#808184" stroke="#404041" stroke-miterlimit="10" stroke-width="0.46"/><line x1="31.03" y1="88.12" x2="91.35" y2="88.12" fill="#808184" stroke="#404041" stroke-miterlimit="10" stroke-width="0.46"/><line x1="31.03" y1="84.28" x2="91.35" y2="84.28" fill="#808184" stroke="#404041" stroke-miterlimit="10" stroke-width="0.46"/><line x1="31.03" y1="90.05" x2="91.35" y2="90.05" fill="#808184" stroke="#404041" stroke-miterlimit="10" stroke-width="0.46"/><line x1="31.03" y1="78.51" x2="91.35" y2="78.51" fill="#808184" stroke="#404041" stroke-miterlimit="10" stroke-width="0.46"/><line x1="31.03" y1="80.43" x2="91.35" y2="80.43" fill="#808184" stroke="#404041" stroke-miterlimit="10" stroke-width="0.46"/><line x1="31.03" y1="86.2" x2="91.35" y2="86.2" fill="#808184" stroke="#404041" stroke-miterlimit="10" stroke-width="0.46"/><line x1="31.03" y1="91.97" x2="91.35" y2="91.97" fill="#808184" stroke="#404041" stroke-miterlimit="10" stroke-width="0.46"/><line x1="31.03" y1="97.74" x2="91.35" y2="97.74" fill="#808184" stroke="#404041" stroke-miterlimit="10" stroke-width="0.46"/><line x1="31.03" y1="99.66" x2="91.35" y2="99.66" fill="#808184" stroke="#404041" stroke-miterlimit="10" stroke-width="0.46"/><line x1="31.03" y1="93.89" x2="91.35" y2="93.89" fill="#808184" stroke="#404041" stroke-miterlimit="10" stroke-width="0.46"/><line x1="31.03" y1="95.81" x2="91.35" y2="95.81" fill="#808184" stroke="#404041" stroke-miterlimit="10" stroke-width="0.46"/></g><rect x="54.88" y="65.27" width="0.47" height="36.43" fill="#221f1f" stroke="#404041" stroke-miterlimit="10" stroke-width="0.46"/><path d="M53.48,60.73c.28.57,2.2,4.65,1.63,4.93s-3.42-3.35-3.7-3.92l-2.67-5.43a.5.5,0,0,1,.06-.55C50.4,53.94,53.48,60.73,53.48,60.73Z" fill="#231f20" stroke="#404041" stroke-miterlimit="10" stroke-width="0.46"/><path d="M56.76,60.83c-.28.58-2.2,4.66-1.63,4.94s3.42-3.35,3.7-3.92l2.67-5.44a.48.48,0,0,0-.06-.54C59.84,54,56.76,60.83,56.76,60.83Z" fill="#231f20" stroke="#404041" stroke-miterlimit="10" stroke-width="0.46"/><path d="M83.68,113.87s-2.94-12.36-3.18-15.3S78,84,74.37,85.25c-3.23,1.12-2.13,9.35.17,14.92s5.75,13,5.92,14.59c.41,3.75-.8,8.82-.21,9.21.75.51,1.31-.92,2-3.23,1.13,0,3.28,4.51,5.87,6.05s.75-5.8-.37-7.34C86.89,118.23,84.24,115.49,83.68,113.87Z" fill="#fcdab5"/><path d="M80.17,98.19c-.24-2.93-2.49-14.52-6.11-13.26-3.22,1.11-2.13,9.31.16,14.85" fill="#733ec6"/><path d="M26.37,115.17s3-12.35,3.24-15.29,2.56-14.57,6.19-13.29C39,87.72,37.89,96,35.57,101.5s-5.81,13-6,14.57c-.42,3.74.77,8.82.17,9.21s-1.29-.92-2-3.23c-1.13,0-3.3,4.49-5.89,6s-.73-5.8.4-7.34C23.15,119.51,25.81,116.78,26.37,115.17Z" fill="#fcdab5"/><path d="M29.43,99.87c0-.14,0-.26,0-.36C29.72,96.58,32,85,35.63,86.26c3.21,1.13,2.09,9.33-.23,14.86" fill="#733ec6"/></g></svg>