<svg xmlns="http://www.w3.org/2000/svg" width="110" height="194" viewBox="0 0 110 194"><title>landian-08-face</title><g id="face"><ellipse cx="54.55" cy="46.69" rx="10.74" ry="14.74" fill="#e4b88b"/><ellipse cx="49.13" cy="48.55" rx="1.26" ry="2.05" transform="translate(-0.71 0.73) rotate(-0.85)" fill="#0c0506"/><ellipse cx="59.24" cy="48.4" rx="1.26" ry="2.05" transform="translate(-0.71 0.88) rotate(-0.85)" fill="#0c0506"/><path d="M58.1,55.61l-3.5.87-3.68-.76a25.71,25.71,0,0,1,3.56-.35A19.75,19.75,0,0,1,58.1,55.61Z" fill="#9e2528"/><path d="M50.92,55.72a13.58,13.58,0,0,0,7.18-.11,4.08,4.08,0,0,1-3.53,2A3.79,3.79,0,0,1,50.92,55.72Z" fill="#d4212d"/></g></svg>