<svg xmlns="http://www.w3.org/2000/svg" width="110" height="194" viewBox="0 0 110 194"><title>landian-11-body</title><g id="landians"><path d="M57.49,67.19a23.65,23.65,0,0,0,7.09-1.83,7.73,7.73,0,0,0-.1-6l-4.56.44S51,63.79,57.49,67.19Z"/><path d="M68.12,73.7c4.58,2.46,8.34,27,6.07,28.07s-4-2.47-5.65-6.4-5.48-11.32-6.32-14.29c-.79-2.77.15-9.15,2.75-8.59A11,11,0,0,1,68.12,73.7Z" fill="#ab8ecd"/><path d="M41.2,73.84c-3.71,3.32-7.58,26.52-5.31,27.58s4-2.47,5.65-6.4S47,83.7,47.86,80.73c.66-2.33.88-7.27-1.18-8.36C45.37,71.68,42.48,72.69,41.2,73.84Z" fill="#ab8ecd"/><path d="M66,152.08s5.88-15.58,3.39-29.71-14.12-4.58-13.91,7.27.36,21.2.35,23.28C55.78,160.61,61.86,162.69,66,152.08Z" fill="#e4b88b"/><path d="M72.32,192.92l-.81-.73a.65.65,0,0,0-.28-.26c-2-1.8-6-5.55-7.4-7a3,3,0,0,1-.59-1.23c0-.57.11-1.13.17-1.6.18-.17,2.47-22.93,2.26-28.3a4.15,4.15,0,0,0-8.24-.82c-1.24,6.19-2.69,8.46-1.65,17.55a75.14,75.14,0,0,0,1.56,9.64c-.17,4-.54,9.26-.54,9.26l.14,0c-.35.7-.13.8,2.84.65l2.36.53a6,6,0,0,0,2.5,1.6c3.86,1,6.54,1.39,6.93.53Z" fill="#e4b88b"/><path d="M57,185.47s.13.32,6.06,4.62c2.83,2.07,6.06-.24,6.06-.24s5.33,1.89,5.48,2.82c0,1.18-4.15,1.29-9.24,1.18-1.82,0-3.47-3.21-5-3.28-.28,0-.19,3.22-.46,3.24a13,13,0,0,1-2.66-.08S54.72,188,57,185.47Z" fill="#58595b"/><path d="M43.25,150.21s-5.88-15.58-3.39-29.72,14.11-4.57,13.91,7.28S53.41,149,53.42,151C53.47,158.73,47.4,160.81,43.25,150.21Z" fill="#e4b88b"/><path d="M51.86,153.08a4.16,4.16,0,0,0-8.25.83c-.21,5.37,2.08,28.12,2.27,28.29,0,.13,0,.27,0,.4a4.11,4.11,0,0,1-.8,2.43c-1.32,1.45-5.29,5.09-7.29,6.92-1,.21-2,.37-2.07.84,0,1.16,2.37,1,7.42.91,1.51,0,3-2.13,4.52-3.16l4.45-1s-.28-4-.46-7.66c.1-1.88.83-2.63,1.81-11.25C54.54,161.55,53.1,159.28,51.86,153.08Z" fill="#e4b88b"/><path d="M52,185.59s-.14.31-6.06,4.62c-2.84,2.06-6.06-.24-6.06-.24s-5.34,1.88-5.49,2.82c0,1.17,4.16,1.28,9.24,1.18,1.82,0,3.48-3.21,5-3.29.29,0,.19,3.22.46,3.25a14,14,0,0,0,2.67-.08S54.24,188.08,52,185.59Z" fill="#58595b"/><path d="M60.55,69.44C58.62,68,55.1,68.29,55.1,68.29c-5,0-5.33,1.15-5.33,1.15s-2.38,5.39,2.06,5.39a10.46,10.46,0,0,0,7.24-.39l1.66-3Z" fill="#513875"/><path d="M50.92,63.88s1.82,5.45-1.37,7c-.09,0-1.37.53-1.34,1.42.15,5.53,3.7,24.59,6.53,24.77,2.12.14,5.44-18.45,6.72-25.35.13-.67-.33-.74-1.59-.93,0,0-2.1-.29-1.42-6.24C58.74,62.08,50.92,63.88,50.92,63.88Z" fill="#bf9c7e"/><path d="M44.43,99.78s-1.25,4.28-3.4,10.62c-.5,1.49-.88,3.07-1.37,4.83a35.35,35.35,0,0,0-.71,3.66,48.24,48.24,0,0,0-.35,14.82c.5,3.61,2.52,12.18,2.52,12.18s11-.08,13.59.08c1.92.13,13.34-.16,13.34-.16s1.93-8.24,2.52-12a43.78,43.78,0,0,0-.42-14.87c-.2-.94-.65-2.54-.92-3.53-.5-1.8-1-3.28-1.52-5.06-1.67-5.7-3-10.44-3-10.44Z" fill="#59272d"/><path d="M49.5,70.91s-6.36,1.31-6.57,2.14c-.2,2.49-1.52,7.33.41,11.88,1.34,3.17.62,13-.08,16.85C43,103.46,41.1,106.26,42,108c1.61,3.09,18.77,6.41,25,.54a2.11,2.11,0,0,0,.31-1.86c-.35-1.5-1.06-3.58-1.24-4.71-.38-2.47-1-15.46.08-17.6,1.59-3,2.09-10.2,1.49-11-1-1.45-7.09-2.46-7.09-2.46L55.1,81.69Z" fill="#ab8ecd"/><polygon points="46.89 77.33 49.58 74.89 55.1 81.69 51.09 72.84 49.97 72.45 46.89 77.33" fill="#513875"/><polygon points="47.24 71.43 46.38 78.74 50 74.7 48.2 71.14 47.24 71.43" fill="#513875"/><polygon points="54.39 80.22 49.71 73.35 47.08 76.88 47.88 71.34 49.91 69.32 54.39 80.22" fill="#79589f"/><polygon points="63.37 77.07 60.68 74.64 55.05 81.82 59.17 72.59 60.29 72.2 63.37 77.07" fill="#513875"/><polygon points="62.92 71.43 63.88 78.48 60.26 74.44 62.15 71.22 62.92 71.43" fill="#513875"/><polygon points="56.29 79.08 60.55 73.1 63.18 76.62 62.45 71.34 60.53 69.42 56.29 79.08" fill="#79589f"/><path d="M55.05,81.82v21.89s.15,6.78-.2,8.19a2.48,2.48,0,0,0,1.39.08l0-13.74V80.11Z" fill="#513875"/><path d="M81.33,123.41s-2.77-11.42-3-14.14S76,95.79,72.61,97c-3,1-1.94,8.66.21,13.8s5.37,12,5.54,13.48c.39,3.46-.71,8.16-.16,8.52s1.2-.85,1.86-3c1,0,3,4.16,5.45,5.57s.68-5.36-.37-6.79C84.31,127.44,81.85,124.91,81.33,123.41Z" fill="#e4b88b"/><path d="M81.53,122.51s-3.39-28.6-8.94-26.16c-2.69,1.19-1.69,8.37-1.69,8.37l6,19.49Z" fill="#ab8ecd"/><path d="M28.67,122.74s2.77-11.42,3-14.14S34,95.12,37.39,96.3c3,1,1.94,8.66-.21,13.8s-5.37,12-5.54,13.48c-.39,3.46.71,8.16.16,8.52s-1.2-.85-1.86-3c-1.05,0-3.05,4.15-5.45,5.57s-.68-5.37.37-6.79C25.69,126.76,28.15,124.23,28.67,122.74Z" fill="#e4b88b"/><path d="M28.47,121.84s3.39-28.6,8.94-26.16C40.1,96.87,39.1,104,39.1,104l-6,19.5Z" fill="#ab8ecd"/><path d="M64,53.37s1.63-2,3.31-.33-1.38,5.89-3.42,6.56S64,53.37,64,53.37Z" fill="#e4b88b"/><path d="M43.4,42.43S40.56,44.64,40,52c0,0,0,2.23.07,4.92,0,0,.08,2.81,0,4.67,0,0,.16,1.65,2.26,3.1a19.71,19.71,0,0,0,7.49,2.4h2.83S55.41,56.13,43.4,42.43Z" fill="#1a1a1a"/><path d="M45.31,53.37s-1.63-2-3.31-.33,1.38,5.89,3.41,6.56S45.31,53.37,45.31,53.37Z" fill="#e4b88b"/></g></svg>