<svg xmlns="http://www.w3.org/2000/svg" xmlns:xlink="http://www.w3.org/1999/xlink" width="110" height="194" viewBox="0 0 110 194"><defs><linearGradient id="linear-gradient" x1="69.16" y1="122.83" x2="69.16" y2="116.61" gradientUnits="userSpaceOnUse"><stop offset="0" stop-color="#182953"/><stop offset="0.3" stop-color="#16274e"/><stop offset="0.65" stop-color="#10203f"/><stop offset="1" stop-color="#08162a"/></linearGradient><linearGradient id="linear-gradient-2" x1="54.88" y1="127.49" x2="54.88" y2="106.1" gradientUnits="userSpaceOnUse"><stop offset="0" stop-color="#182953"/><stop offset="1" stop-color="#08162a"/></linearGradient><linearGradient id="linear-gradient-3" x1="49.25" y1="118.23" x2="49.25" y2="105.96" xlink:href="#linear-gradient"/><linearGradient id="linear-gradient-4" x1="43.74" y1="139.66" x2="43.74" y2="108.47" xlink:href="#linear-gradient"/><linearGradient id="linear-gradient-5" x1="43.69" y1="124.04" x2="43.69" y2="174.46" xlink:href="#linear-gradient"/><linearGradient id="linear-gradient-6" x1="66.02" y1="139.75" x2="66.02" y2="108.56" xlink:href="#linear-gradient"/><linearGradient id="linear-gradient-7" x1="66.42" y1="124.14" x2="66.42" y2="174.55" xlink:href="#linear-gradient"/><clipPath id="clip-path"><path d="M87,88.7s-7.07,5.9-11.34,4.75c0,0-.76-1.52-1.77-3.64a159.49,159.49,0,0,0,1.24,29s-10.29-10.44-20-10.35c-12.16.11-21,10.35-21,10.35S36.28,97.13,37.57,86c-1.65,3.67-3.31,7-3.31,7C30,94.09,22.92,88.19,22.92,88.19,26.66,68.06,38.8,67,38.8,67l0,0c1.63-.56,3.42-1,4.74-1.37A22.47,22.47,0,0,0,47.79,64c.27,4.05,7.15,8.68,7.15,8.68s6.45-4.44,7-8.42a18.22,18.22,0,0,0,3.7,1.43,44.08,44.08,0,0,1,6.41,2C74.9,68.32,83.4,71.64,87,88.7Z" fill="none"/></clipPath></defs><title>landian-22-body</title><g id="landians"><rect x="29.24" y="87.34" width="50.33" height="57.82" fill="#221f1f"/><rect x="22.55" y="115.79" width="4.75" height="71.79" rx="2.03" fill="#221f1f"/><rect x="19.73" y="120.64" width="2.86" height="62.09" rx="1.22" fill="#6d6f70"/><rect x="26.81" y="107.8" width="3.53" height="27.17" rx="1.51" fill="#a6a7aa"/><rect x="28.09" y="86.77" width="3.53" height="27.17" rx="1.51" fill="#a6a7aa"/><rect x="76.25" y="86.77" width="3.53" height="27.17" rx="1.51" fill="#a6a7aa"/><rect x="28.78" y="137.06" width="3.26" height="37.09" rx="1.39" fill="#a6a7aa"/><rect x="28.1" y="171.8" width="4.62" height="22.2" rx="1.97" fill="#221f1f"/><rect x="31.97" y="180.68" width="17.92" height="3.13" fill="#221f1f"/><polygon points="37.94 181.2 42.56 176.24 46.91 176.24 46.91 181.98 37.94 181.2" fill="#221f1f"/><rect x="80.98" y="115.79" width="4.75" height="71.79" rx="2.03" transform="translate(166.71 303.37) rotate(180)" fill="#221f1f"/><rect x="85.68" y="120.64" width="2.86" height="62.09" rx="1.22" transform="translate(174.23 303.37) rotate(180)" fill="#6d6f70"/><rect x="77.94" y="107.8" width="3.53" height="27.17" rx="1.51" transform="translate(159.41 242.76) rotate(180)" fill="#a6a7aa"/><rect x="76.25" y="137.06" width="3.26" height="37.09" rx="1.39" transform="translate(155.75 311.21) rotate(180)" fill="#a6a7aa"/><rect x="75.57" y="171.8" width="4.62" height="22.2" rx="1.97" transform="translate(155.75 365.8) rotate(-180)" fill="#221f1f"/><rect x="58.39" y="180.68" width="17.92" height="3.13" transform="translate(134.7 364.49) rotate(180)" fill="#221f1f"/><polygon points="70.34 181.2 65.72 176.24 61.38 176.24 61.38 181.98 70.34 181.2" fill="#221f1f"/><path d="M74.79,116.43a5.34,5.34,0,0,1-.33,1.83,24.34,24.34,0,0,0-6.84-12.14l-4.09,0,7.16,0S74.89,106.8,74.79,116.43Z" fill="url(#linear-gradient)"/><path d="M43,188.48c-6.14-.8-3.91-9.38-3.91-9.38h0c-.05-2.17.12-5.53,1.48-7,2.06-2.16.21-9.57.21-9.57s7.22-3,7.22.93a40,40,0,0,0,1.24,8.28S50.79,189.51,43,188.48Z" fill="#59231a"/><path d="M66.89,188.48c6.13-.8,3.9-9.38,3.9-9.38h0c0-2.17-.11-5.53-1.47-7-2.06-2.16-.21-9.57-.21-9.57s-7.22-3-7.22.93a40.79,40.79,0,0,1-1.24,8.28S59.1,189.51,66.89,188.48Z" fill="#59231a"/><path d="M55.36,127.18c-10.52,1.14-21.23-.86-20.45-6.72a22,22,0,0,1,.42-2.23,24.34,24.34,0,0,1,6.81-12l21.39-.11,4.09,0a24.34,24.34,0,0,1,6.84,12.14,19.72,19.72,0,0,1,.38,2.11C75.6,126,65.55,128.1,55.36,127.18Z" fill="url(#linear-gradient-2)"/><path d="M63.53,106.1l-21.39.11a24.34,24.34,0,0,0-6.81,12,5.29,5.29,0,0,1-.36-1.89c-.09-9.64,4.1-10.38,4.1-10.38Z" fill="url(#linear-gradient-3)"/><path d="M37.93,133.39c-3.37-4.57-3.15-10.54-3-17,.46-16,18.2-5.53,17.63,12.61C52,146.8,41.31,138,37.93,133.39Z" fill="url(#linear-gradient-4)"/><path d="M36,170.76s3-28.13,1.45-37.89c-1.38-8.75,12.17-11.47,13.31-6,1.44,6.94-.33,12.4-.23,23,.07,6.7.62,21.86.5,23.28C51,173.91,38,176.69,36,170.76Z" fill="url(#linear-gradient-5)"/><path d="M71.83,133.49c3.37-4.58,3.15-10.54,3-17.06-.46-16-18.2-5.53-17.63,12.62C57.72,146.9,68.45,138.07,71.83,133.49Z" fill="url(#linear-gradient-6)"/><path d="M74.08,170.86s-3-28.14-1.45-37.9c1.38-8.74-12.17-11.46-13.31-6-1.44,7,.33,12.41.23,23-.07,6.7-.62,21.86-.5,23.28C59.12,174,72.15,176.78,74.08,170.86Z" fill="url(#linear-gradient-7)"/><path d="M21.17,98.45c2.84-9.48,9.9-28.57,12-29.09,8.67-2.15,5.11,14.51,3.8,17.11s-5.41,8.24-8,15.93C28.09,104.77,19.17,105.13,21.17,98.45Z" fill="#ca9067"/><path d="M38.78,67s-12.13,1-15.88,21.18c0,0,7.08,5.9,11.35,4.74,0,0,6.13-12.19,6.53-15.78S41.58,69.71,38.78,67Z" fill="#fff"/><path d="M88.68,99c-2.84-9.49-9.13-29.11-13.61-29.11-8.95,0-3.47,14.52-2.16,17.13s5.41,8.23,8,15.92C81.76,105.28,90.68,105.64,88.68,99Z" fill="#ca9067"/><path d="M71.07,67.53S82.63,68,87,88.7c0,0-7.08,5.9-11.35,4.75,0,0-6.13-12.19-6.53-15.79S68.27,70.22,71.07,67.53Z" fill="#fff"/><path d="M62.59,65.21c-1.21-1-1.61-6.49-1.61-6.49L49.11,59s-.14,5.2-3,6.46L54.68,90Z" fill="#b7784b"/><polygon points="59.13 73.52 50.63 73.52 52.66 70.36 53.28 69.4 53.76 70.53 54.63 72.56 55.86 70.47 56.48 69.4 57.02 70.23 59.13 73.52" fill="#f2f2f2"/><path d="M74.19,69.73c-.81-2.45-5.72-3.18-8.57-4.07a18,18,0,0,1-3.7-1.42c-.55,4-7,8.42-7,8.42S48.05,68,47.77,64a21.76,21.76,0,0,1-4.22,1.68c-2.85.89-7.93,1.77-8.75,4.21,0,0,3.36,11.14,3.19,12.5-1.16,9.11-3.91,36.45-3.91,36.45s8.8-10.24,21-10.35c9.75-.09,20,10.35,20,10.35s-3.19-22-.17-37.6C75.16,79.87,74.19,69.73,74.19,69.73Z" fill="#fff"/><path d="M24.22,123.16s4.52-20,4.63-21.94S28.07,98,26.35,97s-4.11-.3-5.25,2.29c-3.24,7.37-1.53,20-2.56,23.72s-4.8,7.81-5,10.2,1.11,5.92,1.86,6,4-1.93,5.94-9c0,0,.5,2.83,1.69,2.45S24.05,125,24.22,123.16Z" fill="#ca9067"/><g clip-path="url(#clip-path)"><line x1="-28.43" y1="88.14" x2="138.31" y2="88.14" fill="none" stroke="#410099" stroke-miterlimit="10" stroke-width="0.09"/><line x1="-28.43" y1="66.13" x2="138.31" y2="66.13" fill="none" stroke="#410099" stroke-miterlimit="10" stroke-width="0.09"/><line x1="-28.43" y1="80.13" x2="138.31" y2="80.13" fill="none" stroke="#410099" stroke-miterlimit="10" stroke-width="0.09"/><line x1="-28.43" y1="64.13" x2="138.31" y2="64.13" fill="none" stroke="#410099" stroke-miterlimit="10" stroke-width="0.09"/><line x1="-28.43" y1="72.13" x2="138.31" y2="72.13" fill="none" stroke="#410099" stroke-miterlimit="10" stroke-width="0.09"/><line x1="-28.43" y1="63.13" x2="138.31" y2="63.13" fill="none" stroke="#410099" stroke-miterlimit="10" stroke-width="0.09"/><line x1="-28.43" y1="68.13" x2="138.31" y2="68.13" fill="none" stroke="#410099" stroke-miterlimit="10" stroke-width="0.09"/><line x1="-28.43" y1="62.13" x2="138.31" y2="62.13" fill="none" stroke="#410099" stroke-miterlimit="10" stroke-width="0.09"/><line x1="-28.43" y1="112.14" x2="138.31" y2="112.14" fill="none" stroke="#410099" stroke-miterlimit="10" stroke-width="0.09"/><line x1="-28.43" y1="96.14" x2="138.31" y2="96.14" fill="none" stroke="#410099" stroke-miterlimit="10" stroke-width="0.09"/><line x1="-28.43" y1="108.14" x2="138.31" y2="108.14" fill="none" stroke="#410099" stroke-miterlimit="10" stroke-width="0.09"/><line x1="-28.43" y1="92.14" x2="138.31" y2="92.14" fill="none" stroke="#410099" stroke-miterlimit="10" stroke-width="0.09"/><line x1="-28.43" y1="104.14" x2="138.31" y2="104.14" fill="none" stroke="#410099" stroke-miterlimit="10" stroke-width="0.09"/><line x1="-28.43" y1="84.13" x2="138.31" y2="84.13" fill="none" stroke="#410099" stroke-miterlimit="10" stroke-width="0.09"/><line x1="-28.43" y1="100.14" x2="138.31" y2="100.14" fill="none" stroke="#410099" stroke-miterlimit="10" stroke-width="0.09"/><line x1="-28.43" y1="76.13" x2="138.31" y2="76.13" fill="none" stroke="#410099" stroke-miterlimit="10" stroke-width="0.09"/><line x1="-28.43" y1="106.14" x2="138.31" y2="106.14" fill="none" stroke="#410099" stroke-miterlimit="10" stroke-width="0.09"/><line x1="-28.43" y1="82.13" x2="138.31" y2="82.13" fill="none" stroke="#410099" stroke-miterlimit="10" stroke-width="0.09"/><line x1="-28.43" y1="98.14" x2="138.31" y2="98.14" fill="none" stroke="#410099" stroke-miterlimit="10" stroke-width="0.09"/><line x1="-28.43" y1="78.13" x2="138.31" y2="78.13" fill="none" stroke="#410099" stroke-miterlimit="10" stroke-width="0.09"/><line x1="-28.43" y1="90.14" x2="138.31" y2="90.14" fill="none" stroke="#410099" stroke-miterlimit="10" stroke-width="0.09"/><line x1="-28.43" y1="74.13" x2="138.31" y2="74.13" fill="none" stroke="#410099" stroke-miterlimit="10" stroke-width="0.09"/><line x1="-28.43" y1="86.14" x2="138.31" y2="86.14" fill="none" stroke="#410099" stroke-miterlimit="10" stroke-width="0.09"/><line x1="-28.43" y1="70.13" x2="138.31" y2="70.13" fill="none" stroke="#410099" stroke-miterlimit="10" stroke-width="0.09"/><line x1="-28.43" y1="122.14" x2="138.31" y2="122.14" fill="none" stroke="#410099" stroke-miterlimit="10" stroke-width="0.09"/><line x1="-28.43" y1="114.14" x2="138.31" y2="114.14" fill="none" stroke="#410099" stroke-miterlimit="10" stroke-width="0.09"/><line x1="-28.43" y1="120.14" x2="138.31" y2="120.14" fill="none" stroke="#410099" stroke-miterlimit="10" stroke-width="0.09"/><line x1="-28.43" y1="110.14" x2="138.31" y2="110.14" fill="none" stroke="#410099" stroke-miterlimit="10" stroke-width="0.09"/><line x1="-28.43" y1="118.14" x2="138.31" y2="118.14" fill="none" stroke="#410099" stroke-miterlimit="10" stroke-width="0.09"/><line x1="-28.43" y1="102.14" x2="138.31" y2="102.14" fill="none" stroke="#410099" stroke-miterlimit="10" stroke-width="0.09"/><line x1="-28.43" y1="116.14" x2="138.31" y2="116.14" fill="none" stroke="#410099" stroke-miterlimit="10" stroke-width="0.09"/><line x1="-28.43" y1="94.14" x2="138.31" y2="94.14" fill="none" stroke="#410099" stroke-miterlimit="10" stroke-width="0.09"/><line x1="-28.43" y1="93.14" x2="138.31" y2="93.14" fill="none" stroke="#410099" stroke-miterlimit="10" stroke-width="0.09"/><line x1="-28.43" y1="71.13" x2="138.31" y2="71.13" fill="none" stroke="#410099" stroke-miterlimit="10" stroke-width="0.09"/><line x1="-28.43" y1="85.14" x2="138.31" y2="85.14" fill="none" stroke="#410099" stroke-miterlimit="10" stroke-width="0.09"/><line x1="-28.43" y1="69.13" x2="138.31" y2="69.13" fill="none" stroke="#410099" stroke-miterlimit="10" stroke-width="0.09"/><line x1="-28.43" y1="77.13" x2="138.31" y2="77.13" fill="none" stroke="#410099" stroke-miterlimit="10" stroke-width="0.09"/><line x1="-28.43" y1="67.13" x2="138.31" y2="67.13" fill="none" stroke="#410099" stroke-miterlimit="10" stroke-width="0.09"/><line x1="-28.43" y1="73.13" x2="138.31" y2="73.13" fill="none" stroke="#410099" stroke-miterlimit="10" stroke-width="0.09"/><line x1="-28.43" y1="65.13" x2="138.31" y2="65.13" fill="none" stroke="#410099" stroke-miterlimit="10" stroke-width="0.09"/><line x1="-28.43" y1="117.14" x2="138.31" y2="117.14" fill="none" stroke="#410099" stroke-miterlimit="10" stroke-width="0.09"/><line x1="-28.43" y1="101.14" x2="138.31" y2="101.14" fill="none" stroke="#410099" stroke-miterlimit="10" stroke-width="0.09"/><line x1="-28.43" y1="113.14" x2="138.31" y2="113.14" fill="none" stroke="#410099" stroke-miterlimit="10" stroke-width="0.09"/><line x1="-28.43" y1="97.14" x2="138.31" y2="97.14" fill="none" stroke="#410099" stroke-miterlimit="10" stroke-width="0.09"/><line x1="-28.43" y1="109.14" x2="138.31" y2="109.14" fill="none" stroke="#410099" stroke-miterlimit="10" stroke-width="0.09"/><line x1="-28.43" y1="89.14" x2="138.31" y2="89.14" fill="none" stroke="#410099" stroke-miterlimit="10" stroke-width="0.09"/><line x1="-28.43" y1="105.14" x2="138.31" y2="105.14" fill="none" stroke="#410099" stroke-miterlimit="10" stroke-width="0.09"/><line x1="-28.43" y1="81.13" x2="138.31" y2="81.13" fill="none" stroke="#410099" stroke-miterlimit="10" stroke-width="0.09"/><line x1="-28.43" y1="111.14" x2="138.31" y2="111.14" fill="none" stroke="#410099" stroke-miterlimit="10" stroke-width="0.09"/><line x1="-28.43" y1="87.14" x2="138.31" y2="87.14" fill="none" stroke="#410099" stroke-miterlimit="10" stroke-width="0.09"/><line x1="-28.43" y1="103.14" x2="138.31" y2="103.14" fill="none" stroke="#410099" stroke-miterlimit="10" stroke-width="0.09"/><line x1="-28.43" y1="83.13" x2="138.31" y2="83.13" fill="none" stroke="#410099" stroke-miterlimit="10" stroke-width="0.09"/><line x1="-28.43" y1="95.14" x2="138.31" y2="95.14" fill="none" stroke="#410099" stroke-miterlimit="10" stroke-width="0.09"/><line x1="-28.43" y1="79.13" x2="138.31" y2="79.13" fill="none" stroke="#410099" stroke-miterlimit="10" stroke-width="0.09"/><line x1="-28.43" y1="91.14" x2="138.31" y2="91.14" fill="none" stroke="#410099" stroke-miterlimit="10" stroke-width="0.09"/><line x1="-28.43" y1="75.13" x2="138.31" y2="75.13" fill="none" stroke="#410099" stroke-miterlimit="10" stroke-width="0.09"/><line x1="-28.43" y1="125.14" x2="138.31" y2="125.14" fill="none" stroke="#410099" stroke-miterlimit="10" stroke-width="0.09"/><line x1="-28.43" y1="119.14" x2="138.31" y2="119.14" fill="none" stroke="#410099" stroke-miterlimit="10" stroke-width="0.09"/><line x1="-28.43" y1="124.14" x2="138.31" y2="124.14" fill="none" stroke="#410099" stroke-miterlimit="10" stroke-width="0.09"/><line x1="-28.43" y1="115.14" x2="138.31" y2="115.14" fill="none" stroke="#410099" stroke-miterlimit="10" stroke-width="0.09"/><line x1="-28.43" y1="123.14" x2="138.31" y2="123.14" fill="none" stroke="#410099" stroke-miterlimit="10" stroke-width="0.09"/><line x1="-28.43" y1="107.14" x2="138.31" y2="107.14" fill="none" stroke="#410099" stroke-miterlimit="10" stroke-width="0.09"/><line x1="-28.43" y1="121.14" x2="138.31" y2="121.14" fill="none" stroke="#410099" stroke-miterlimit="10" stroke-width="0.09"/><line x1="-28.43" y1="99.14" x2="138.31" y2="99.14" fill="none" stroke="#410099" stroke-miterlimit="10" stroke-width="0.09"/></g><path d="M56.48,69.4,60,74.79l4.87-9-2.73-2.09A23.45,23.45,0,0,1,56.48,69.4Z" fill="#fff"/><path d="M50.17,57l9.42-.13a4.08,4.08,0,0,1-4.36,3.77C50.58,60.67,50.17,57,50.17,57Z" fill="#fff"/><path d="M53.28,69.4l-3.47,5.39-4.87-9,2.74-2.09A23.32,23.32,0,0,0,53.28,69.4Z" fill="#fff"/><path d="M53.5,77.27v31.3h2.27l.09-31.25s-.13-3.78,1.88-6L56.48,69.4S53.5,71.46,53.5,77.27Z" fill="#f2f2f2"/><ellipse cx="55.14" cy="74.47" rx="0.76" ry="0.73" fill="#fff"/><ellipse cx="54.7" cy="80.95" rx="0.76" ry="0.73" fill="#fff"/><ellipse cx="54.7" cy="87.13" rx="0.76" ry="0.73" fill="#fff"/><ellipse cx="54.7" cy="93.34" rx="0.76" ry="0.73" fill="#fff"/><ellipse cx="54.7" cy="99.6" rx="0.76" ry="0.73" fill="#fff"/><ellipse cx="54.7" cy="105.84" rx="0.76" ry="0.73" fill="#fff"/><path d="M70.24,87.51a17.82,17.82,0,0,1-.86,5.57h-8.3a17.82,17.82,0,0,1-.86-5.57,16.22,16.22,0,0,1,.86-5.29h8.3A16.22,16.22,0,0,1,70.24,87.51Z" fill="#fff"/><path d="M46.13,49.68s-1.93-2.3-3.91-.38,1.63,6.67,4,7.43S46.13,49.68,46.13,49.68Z" fill="#ca9067"/><path d="M63.33,49.43s1.85-2.35,3.89-.49-1.43,6.72-3.8,7.54S63.33,49.43,63.33,49.43Z" fill="#ca9067"/><path d="M85.78,123.16s-4.52-20-4.63-21.94.78-3.2,2.5-4.26,4.11-.3,5.25,2.29c3.24,7.37,1.53,20,2.56,23.72s4.8,7.81,5,10.2-1.11,5.92-1.86,6-4-1.93-5.94-9c0,0-.5,2.83-1.69,2.45S86,125,85.78,123.16Z" fill="#ca9067"/><path d="M86.55,86.78S84.94,89,75.07,92.17L76.14,95s7.74-1.67,11.21-5.13Z" fill="#fff"/><path d="M23.29,86.33s1.62,2.11,11.49,5.32l-1.07,2.82S26,92.81,22.5,89.34Z" fill="#fff"/></g></svg>