<svg xmlns="http://www.w3.org/2000/svg" width="110" height="194" viewBox="0 0 110 194"><title>landian-09-face</title><g id="face"><ellipse cx="55.71" cy="38.59" rx="11.07" ry="15.19" fill="#c58b5e"/><ellipse cx="50.13" cy="40.51" rx="1.3" ry="2.11" transform="translate(-0.59 0.75) rotate(-0.85)" fill="#0c0506"/><ellipse cx="60.54" cy="40.36" rx="1.3" ry="2.11" transform="translate(-0.59 0.9) rotate(-0.85)" fill="#0c0506"/><path d="M59.37,47.78l-3.61.9L52,47.9a27.16,27.16,0,0,1,3.67-.37A20.38,20.38,0,0,1,59.37,47.78Z" fill="#9945ad"/><path d="M52,47.9a14,14,0,0,0,7.4-.12,4.25,4.25,0,0,1-3.65,2.08A3.93,3.93,0,0,1,52,47.9Z" fill="#7f2f93"/></g></svg>