<svg xmlns="http://www.w3.org/2000/svg" width="110" height="194" viewBox="0 0 110 194"><title>landian-05-hair</title><g id="hair"><path d="M72.56,67.43a11.4,11.4,0,0,1,1,5.68,10,10,0,0,1-3.64,6.29,9.74,9.74,0,0,1-4.74,2.35c3.5-4.53.34-9.83.34-9.83A11.26,11.26,0,0,1,62.9,59.75c.83-1.6,1.66-3.85.77-4.74s-2-4.62-2-4.62c-1-2.76-1.53-4.93-2-6.09-.95-2.42-2.57-3.12-3.2-3.08-3.77.21-4.79,5-7.14,3-1.53-1.33-1.46,1.41-1.46,1.41C47.38,52.16,45.33,54,45.33,54s-4.19-5.08-2-10c.68-1.49,2.53-4.28,4.4-5.09a21.09,21.09,0,0,1,7.91-1.71c3.63-.17,6.44.78,8.17,2.34a11.58,11.58,0,0,1,3.63,5.66,36.27,36.27,0,0,1,1.71,7.35C69.33,53.78,70,57,70,57s.52,3.77.9,5.61A24.62,24.62,0,0,0,72.56,67.43Z" fill="#ac5f27"/></g></svg>