<svg xmlns="http://www.w3.org/2000/svg" xmlns:xlink="http://www.w3.org/1999/xlink" width="110" height="194" viewBox="0 0 110 194"><defs><clipPath id="clip-path"><path d="M-43,88.7s-7.07,5.9-11.34,4.75c0,0-.76-1.52-1.77-3.64a159.49,159.49,0,0,0,1.24,29s-10.29-10.44-20-10.35c-12.16.11-21,10.35-21,10.35S-93.72,97.13-92.43,86c-1.65,3.67-3.31,7-3.31,7-4.27,1.16-11.34-4.74-11.34-4.74C-103.34,68.06-91.2,67-91.2,67l0,0c1.63-.56,3.42-1,4.74-1.37A22.47,22.47,0,0,0-82.21,64c.27,4.05,7.15,8.68,7.15,8.68s6.45-4.44,7-8.42a18.22,18.22,0,0,0,3.7,1.43,44.08,44.08,0,0,1,6.41,2C-55.1,68.32-46.6,71.64-43,88.7Z" fill="none"/></clipPath><linearGradient id="linear-gradient" x1="44.61" y1="153.12" x2="45.62" y2="190.88" gradientUnits="userSpaceOnUse"><stop offset="0" stop-color="#7894a6"/><stop offset="0.22" stop-color="#748fa1"/><stop offset="0.48" stop-color="#688292"/><stop offset="0.77" stop-color="#556c7a"/><stop offset="1" stop-color="#405561"/></linearGradient><linearGradient id="linear-gradient-2" x1="45" y1="139.72" x2="45" y2="192.75" xlink:href="#linear-gradient"/><linearGradient id="linear-gradient-3" x1="-7915.33" y1="156.42" x2="-7914.4" y2="191.05" gradientTransform="matrix(-1, 0, 0, 1, -7851.36, 0)" xlink:href="#linear-gradient"/><linearGradient id="linear-gradient-4" x1="-7915.33" y1="156.42" x2="-7914.4" y2="191.05" gradientTransform="matrix(-1, 0, 0, 1, -7851.36, 0)" xlink:href="#linear-gradient"/></defs><title>landian-23</title><g id="landians"><g clip-path="url(#clip-path)"><line x1="-158.43" y1="88.14" x2="8.31" y2="88.14" fill="none" stroke="#410099" stroke-miterlimit="10" stroke-width="0.09"/><line x1="-158.43" y1="66.13" x2="8.31" y2="66.13" fill="none" stroke="#410099" stroke-miterlimit="10" stroke-width="0.09"/><line x1="-158.43" y1="80.13" x2="8.31" y2="80.13" fill="none" stroke="#410099" stroke-miterlimit="10" stroke-width="0.09"/><line x1="-158.43" y1="64.13" x2="8.31" y2="64.13" fill="none" stroke="#410099" stroke-miterlimit="10" stroke-width="0.09"/><line x1="-158.43" y1="72.13" x2="8.31" y2="72.13" fill="none" stroke="#410099" stroke-miterlimit="10" stroke-width="0.09"/><line x1="-158.43" y1="63.13" x2="8.31" y2="63.13" fill="none" stroke="#410099" stroke-miterlimit="10" stroke-width="0.09"/><line x1="-158.43" y1="68.13" x2="8.31" y2="68.13" fill="none" stroke="#410099" stroke-miterlimit="10" stroke-width="0.09"/><line x1="-158.43" y1="62.13" x2="8.31" y2="62.13" fill="none" stroke="#410099" stroke-miterlimit="10" stroke-width="0.09"/><line x1="-158.43" y1="112.14" x2="8.31" y2="112.14" fill="none" stroke="#410099" stroke-miterlimit="10" stroke-width="0.09"/><line x1="-158.43" y1="96.14" x2="8.31" y2="96.14" fill="none" stroke="#410099" stroke-miterlimit="10" stroke-width="0.09"/><line x1="-158.43" y1="108.14" x2="8.31" y2="108.14" fill="none" stroke="#410099" stroke-miterlimit="10" stroke-width="0.09"/><line x1="-158.43" y1="92.14" x2="8.31" y2="92.14" fill="none" stroke="#410099" stroke-miterlimit="10" stroke-width="0.09"/><line x1="-158.43" y1="104.14" x2="8.31" y2="104.14" fill="none" stroke="#410099" stroke-miterlimit="10" stroke-width="0.09"/><line x1="-158.43" y1="84.13" x2="8.31" y2="84.13" fill="none" stroke="#410099" stroke-miterlimit="10" stroke-width="0.09"/><line x1="-158.43" y1="100.14" x2="8.31" y2="100.14" fill="none" stroke="#410099" stroke-miterlimit="10" stroke-width="0.09"/><line x1="-158.43" y1="76.13" x2="8.31" y2="76.13" fill="none" stroke="#410099" stroke-miterlimit="10" stroke-width="0.09"/><line x1="-158.43" y1="106.14" x2="8.31" y2="106.14" fill="none" stroke="#410099" stroke-miterlimit="10" stroke-width="0.09"/><line x1="-158.43" y1="82.13" x2="8.31" y2="82.13" fill="none" stroke="#410099" stroke-miterlimit="10" stroke-width="0.09"/><line x1="-158.43" y1="98.14" x2="8.31" y2="98.14" fill="none" stroke="#410099" stroke-miterlimit="10" stroke-width="0.09"/><line x1="-158.43" y1="78.13" x2="8.31" y2="78.13" fill="none" stroke="#410099" stroke-miterlimit="10" stroke-width="0.09"/><line x1="-158.43" y1="90.14" x2="8.31" y2="90.14" fill="none" stroke="#410099" stroke-miterlimit="10" stroke-width="0.09"/><line x1="-158.43" y1="74.13" x2="8.31" y2="74.13" fill="none" stroke="#410099" stroke-miterlimit="10" stroke-width="0.09"/><line x1="-158.43" y1="86.14" x2="8.31" y2="86.14" fill="none" stroke="#410099" stroke-miterlimit="10" stroke-width="0.09"/><line x1="-158.43" y1="70.13" x2="8.31" y2="70.13" fill="none" stroke="#410099" stroke-miterlimit="10" stroke-width="0.09"/><line x1="-158.43" y1="122.14" x2="8.31" y2="122.14" fill="none" stroke="#410099" stroke-miterlimit="10" stroke-width="0.09"/><line x1="-158.43" y1="114.14" x2="8.31" y2="114.14" fill="none" stroke="#410099" stroke-miterlimit="10" stroke-width="0.09"/><line x1="-158.43" y1="120.14" x2="8.31" y2="120.14" fill="none" stroke="#410099" stroke-miterlimit="10" stroke-width="0.09"/><line x1="-158.43" y1="110.14" x2="8.31" y2="110.14" fill="none" stroke="#410099" stroke-miterlimit="10" stroke-width="0.09"/><line x1="-158.43" y1="118.14" x2="8.31" y2="118.14" fill="none" stroke="#410099" stroke-miterlimit="10" stroke-width="0.09"/><line x1="-158.43" y1="102.14" x2="8.31" y2="102.14" fill="none" stroke="#410099" stroke-miterlimit="10" stroke-width="0.09"/><line x1="-158.43" y1="116.14" x2="8.31" y2="116.14" fill="none" stroke="#410099" stroke-miterlimit="10" stroke-width="0.09"/><line x1="-158.43" y1="94.14" x2="8.31" y2="94.14" fill="none" stroke="#410099" stroke-miterlimit="10" stroke-width="0.09"/><line x1="-158.43" y1="93.14" x2="8.31" y2="93.14" fill="none" stroke="#410099" stroke-miterlimit="10" stroke-width="0.09"/><line x1="-158.43" y1="71.13" x2="8.31" y2="71.13" fill="none" stroke="#410099" stroke-miterlimit="10" stroke-width="0.09"/><line x1="-158.43" y1="85.14" x2="8.31" y2="85.14" fill="none" stroke="#410099" stroke-miterlimit="10" stroke-width="0.09"/><line x1="-158.43" y1="69.13" x2="8.31" y2="69.13" fill="none" stroke="#410099" stroke-miterlimit="10" stroke-width="0.09"/><line x1="-158.43" y1="77.13" x2="8.31" y2="77.13" fill="none" stroke="#410099" stroke-miterlimit="10" stroke-width="0.09"/><line x1="-158.43" y1="67.13" x2="8.31" y2="67.13" fill="none" stroke="#410099" stroke-miterlimit="10" stroke-width="0.09"/><line x1="-158.43" y1="73.13" x2="8.31" y2="73.13" fill="none" stroke="#410099" stroke-miterlimit="10" stroke-width="0.09"/><line x1="-158.43" y1="65.13" x2="8.31" y2="65.13" fill="none" stroke="#410099" stroke-miterlimit="10" stroke-width="0.09"/><line x1="-158.43" y1="117.14" x2="8.31" y2="117.14" fill="none" stroke="#410099" stroke-miterlimit="10" stroke-width="0.09"/><line x1="-158.43" y1="101.14" x2="8.31" y2="101.14" fill="none" stroke="#410099" stroke-miterlimit="10" stroke-width="0.09"/><line x1="-158.43" y1="113.14" x2="8.31" y2="113.14" fill="none" stroke="#410099" stroke-miterlimit="10" stroke-width="0.09"/><line x1="-158.43" y1="97.14" x2="8.31" y2="97.14" fill="none" stroke="#410099" stroke-miterlimit="10" stroke-width="0.09"/><line x1="-158.43" y1="109.14" x2="8.31" y2="109.14" fill="none" stroke="#410099" stroke-miterlimit="10" stroke-width="0.09"/><line x1="-158.43" y1="89.14" x2="8.31" y2="89.14" fill="none" stroke="#410099" stroke-miterlimit="10" stroke-width="0.09"/><line x1="-158.43" y1="105.14" x2="8.31" y2="105.14" fill="none" stroke="#410099" stroke-miterlimit="10" stroke-width="0.09"/><line x1="-158.43" y1="81.13" x2="8.31" y2="81.13" fill="none" stroke="#410099" stroke-miterlimit="10" stroke-width="0.09"/><line x1="-158.43" y1="111.14" x2="8.31" y2="111.14" fill="none" stroke="#410099" stroke-miterlimit="10" stroke-width="0.09"/><line x1="-158.43" y1="87.14" x2="8.31" y2="87.14" fill="none" stroke="#410099" stroke-miterlimit="10" stroke-width="0.09"/><line x1="-158.43" y1="103.14" x2="8.31" y2="103.14" fill="none" stroke="#410099" stroke-miterlimit="10" stroke-width="0.09"/><line x1="-158.43" y1="83.13" x2="8.31" y2="83.13" fill="none" stroke="#410099" stroke-miterlimit="10" stroke-width="0.09"/><line x1="-158.43" y1="95.14" x2="8.31" y2="95.14" fill="none" stroke="#410099" stroke-miterlimit="10" stroke-width="0.09"/><line x1="-158.43" y1="79.13" x2="8.31" y2="79.13" fill="none" stroke="#410099" stroke-miterlimit="10" stroke-width="0.09"/><line x1="-158.43" y1="91.14" x2="8.31" y2="91.14" fill="none" stroke="#410099" stroke-miterlimit="10" stroke-width="0.09"/><line x1="-158.43" y1="75.13" x2="8.31" y2="75.13" fill="none" stroke="#410099" stroke-miterlimit="10" stroke-width="0.09"/><line x1="-158.43" y1="125.14" x2="8.31" y2="125.14" fill="none" stroke="#410099" stroke-miterlimit="10" stroke-width="0.09"/><line x1="-158.43" y1="119.14" x2="8.31" y2="119.14" fill="none" stroke="#410099" stroke-miterlimit="10" stroke-width="0.09"/><line x1="-158.43" y1="124.14" x2="8.31" y2="124.14" fill="none" stroke="#410099" stroke-miterlimit="10" stroke-width="0.09"/><line x1="-158.43" y1="115.14" x2="8.31" y2="115.14" fill="none" stroke="#410099" stroke-miterlimit="10" stroke-width="0.09"/><line x1="-158.43" y1="123.14" x2="8.31" y2="123.14" fill="none" stroke="#410099" stroke-miterlimit="10" stroke-width="0.09"/><line x1="-158.43" y1="107.14" x2="8.31" y2="107.14" fill="none" stroke="#410099" stroke-miterlimit="10" stroke-width="0.09"/><line x1="-158.43" y1="121.14" x2="8.31" y2="121.14" fill="none" stroke="#410099" stroke-miterlimit="10" stroke-width="0.09"/><line x1="-158.43" y1="99.14" x2="8.31" y2="99.14" fill="none" stroke="#410099" stroke-miterlimit="10" stroke-width="0.09"/></g><path d="M42.31,185.72s-1.18-10.07-4.61-40.63c-.76-6.74,13-7.86,13.34.86.69,19.41,1.3,46.8,1.3,46.8S48.55,186,42.31,185.72Z" fill="url(#linear-gradient)"/><path d="M29.05,190.08c-2.37.5-1.73,3-1.73,3,.67.07,20.52,1,21.9.88s4.5.68,2.43-3c-1.94-3.42-5.46-6.6-9.34-5.26C36.89,187.59,30.2,189.83,29.05,190.08Z" fill="#603917"/><path d="M27.32,193.1s22.62-.27,25-.35V194h-25Z"/><path d="M42.31,185.72s-1.18-10.07-4.61-40.63c-.76-6.74,13-7.86,13.34.86.69,19.41,1.3,46.8,1.3,46.8S48.55,186,42.31,185.72Z" fill="url(#linear-gradient-2)"/><path d="M57.65,146c-.7,19.41-1.31,46.8-1.31,46.8s3.79-6.72,10-7c0,0,1.19-10.86,4.62-41.42" fill="url(#linear-gradient-3)"/><path d="M79.64,190.08c2.36.5,1.72,3,1.72,3-.67.07-20.52,1-21.89.88s-4.51.68-2.43-3c1.93-3.42,5.45-6.6,9.33-5.26C71.79,187.59,78.48,189.83,79.64,190.08Z" fill="#603917"/><path d="M81.36,193.1s-22.62-.27-25-.35V194h25Z"/><path d="M57.67,144.66c-.7,19.41-1.33,48.09-1.33,48.09s3.79-6.72,10-7c0,0,1.19-10.86,4.62-41.42" fill="url(#linear-gradient-4)"/><path d="M37.64,144.3a370.74,370.74,0,0,1-.72-39.91c.14-3.63,8.42-6.23,12.16-4.36,2.7,1.35,6.94,11.15,5.92,14.34-2,6.35-4.7,21.77-4,30.29.22,2.83-3.58,5.63-5.79,5.58C43.5,150.2,37.9,148.19,37.64,144.3Z" fill="#7894a6"/><path d="M71,144.3a371.49,371.49,0,0,0,.73-39.91c-.14-3.63-8.42-6.23-12.17-4.36-2.69,1.35-6.94,11.15-5.92,14.34,2,6.35,4.71,21.77,4,30.29-.23,2.83,3.57,5.63,5.78,5.58C65.13,150.2,70.73,148.19,71,144.3Z" fill="#7894a6"/><path d="M34.92,63.6S25.14,83.88,24.36,90.69c-.23,2-.06,4.53,2.27,5.23s3.55-2.7,3.87-3.52,7.84-20,8.5-21.75,1.2-5.61.5-6.93S35.89,61.24,34.92,63.6Z" fill="#f1b186"/><path d="M74.72,63.15S84,83.65,84.66,90.47c.19,2,0,4.53-2.38,5.18S78.79,92.87,78.49,92s-7.39-20.18-8-21.94-1.08-5.63-.35-6.93S73.81,60.77,74.72,63.15Z" fill="#f1b186"/><path d="M50,71,45.5,57.75l.09,0Z" fill="#895d3b"/><polygon points="58.61 71.02 54.33 84.05 54.28 83.9 58.61 71.02" fill="#895d3b"/><path d="M38.32,105.8c11.82,5.19,33.23,1.34,33.23,1.34l.23,13.56s-19.54,5.14-34.85-.7C36.93,120,36.76,108.77,38.32,105.8Z" fill="#7894a6"/><polygon points="54.28 83.9 54.23 84.05 49.95 71.02 54.28 83.9" fill="#895d3b"/><path d="M63.07,57.44l-.1.28L58.61,71,54.28,83.9,50,71l-4.36-13.3-.09-.28a5,5,0,0,0,3.27-2.89s0,0,0-.06A6.44,6.44,0,0,0,49,51.62H59.62a6.52,6.52,0,0,0,.15,2.87.14.14,0,0,1,0,.06A5.05,5.05,0,0,0,63.07,57.44Z" fill="#724c31"/><path d="M63.07,57.75,58.61,71,63,57.72Z" fill="#895d3b"/><path d="M38,77.09s-.15,2-.35,5v-4C37.81,77.75,37.93,77.43,38,77.09Z" fill="#e05b3b"/><path d="M54.71,109.44a98.19,98.19,0,0,0,10.95-.77A64.9,64.9,0,0,1,54.71,109.44Z" fill="#e05b3b"/><path d="M72.34,106.7a3.3,3.3,0,0,1-1,.5V82.12C72,90.42,72.91,106.11,72.34,106.7Z" fill="#e05b3b"/><path d="M71.39,78.08c-.11-.33-.23-.65-.34-1,0,0,.15,2,.34,5V107.2a28,28,0,0,1-5.73,1.47,98.19,98.19,0,0,1-10.95.77h-.34a95.89,95.89,0,0,1-10.94-.78,27.87,27.87,0,0,1-5.74-1.46V82.12c.2-3,.35-5,.35-5-.11.34-.23.66-.35,1V63.69a4.85,4.85,0,0,1,4.85-4.84l2.77-1.91,4,3.41a7.86,7.86,0,0,0,10,.08l3.68-3,3.7,1.41a4.63,4.63,0,0,1,4.63,4.63Z" fill="#fff"/><path d="M37.69,82.12V107.2a3.35,3.35,0,0,1-.94-.5C36.17,106.11,37.14,90.42,37.69,82.12Z" fill="#e05b3b"/><path d="M43.43,108.66a95.89,95.89,0,0,0,10.94.78A64.61,64.61,0,0,1,43.43,108.66Z" fill="#e05b3b"/><path d="M71.39,78.08v4c-.19-3-.34-5-.34-5C71.16,77.43,71.28,77.75,71.39,78.08Z" fill="#e05b3b"/><path d="M21.89,93.81c1.71-9.7,6.46-32.72,10.74-33.13,8.55-.81,6.26,13.94,5.25,16.66S33.5,86,31.71,93.88C31.16,96.31,20.4,102.3,21.89,93.81Z" fill="#410099"/><path d="M87.81,93.24C85.48,83.67,79.25,61,75,60.88c-8.59-.26-5.35,14.32-4.16,17S75.73,86.21,78,94C78.72,96.34,89.85,101.61,87.81,93.24Z" fill="#410099"/><path d="M45.31,56.94c-2.65,5.57,5,11.07,5,11.07a24.64,24.64,0,0,1,2.4,8.92c.12,5.06,1.61,24.15-.77,31.16-.93,2.73-16,5.9-16.6-.71-.4-4.31,1.36-31.27.28-32.85s-4.8-11.07-3.22-13.16c1.12-1.48,12.46-5.29,12.9-4.43" fill="#733ec6"/><path d="M35.35,107.38s-.13,4.86.43,5.51,9.53,2.61,15.28.13a33.92,33.92,0,0,0,.89-4.93S43.34,110.64,35.35,107.38Z" fill="#311759"/><path d="M35.36,103s6.32-3.34,8.28-8.94l.46,1.2A13.31,13.31,0,0,1,35.36,103Z" fill="#311759"/><path d="M63.16,56.94c.62,4.12-4.24,8-6.63,12.42-1.29,2.36-1.31,7.55-1.31,7.55s-1.08,24.17,1.31,31.18c.92,2.73,16,6.34,16.57-.26.4-4.31-.83-31.72.25-33.3s4.29-11.07,2.71-13.16c-1.12-1.48-12.46-5.29-12.9-4.43" fill="#733ec6"/><path d="M73.27,107.32s0,4.92-.58,5.57-9.53,2.61-15.28.13a33,33,0,0,1-.88-4.93S65.28,110.58,73.27,107.32Z" fill="#311759"/><path d="M73.11,103s-6-3.13-8-8.74l-.55,1A12.68,12.68,0,0,0,73.11,103Z" fill="#311759"/><path d="M31.86,113.13s-5.3-2.48-5.32,1.09-2.49,8.1-2.11,10.31,2.53,5.09,3.25,5,3.21-2.63,3.25-9.42c0,0,1.17,2.44,2.18,1.84S32.17,114.81,31.86,113.13Z" fill="#895d3b"/><path d="M21.84,94c-.46,2.21.94,13.57,2,20.75.39,2.64,8.24.15,9.43-1.55,0,0-.58-14.64-1.21-19.41S22.94,88.75,21.84,94Z" fill="#410099"/><path d="M24.77,115.42s2.72.08,8.38-2.7l.18,3.71s-3.43,3.8-8.2,3.49C24.76,119.89,24.77,115.42,24.77,115.42Z" fill="#311759"/><path d="M77.35,113.14s5.3-3.57,5.37,0,2.56,9.1,2.21,11.31-2.46,5.12-3.18,5-3.25-2.59-3.37-9.38c0,0-1.15,2.45-2.16,1.87S77.07,114.83,77.35,113.14Z" fill="#895d3b"/><path d="M88.14,94.9c.49,2.21-.74,12.55-1.72,19.75-.36,2.64-8.24.25-9.45-1.43,0,0,.36-13.62.93-18.4S87,89.7,88.14,94.9Z" fill="#410099"/><path d="M84.89,115.52s-2.55,1-7.92-2.3l-.53,3.69s3,4.11,7.82,4.25C84.63,121.17,84.89,115.52,84.89,115.52Z" fill="#311759"/><path d="M43.64,56.82s2.28-2.32,4.2-.91.88,9.93,2.37,11.8S40.35,62.89,43.64,56.82Z" fill="#311759"/><path d="M63.78,56.82a2.77,2.77,0,0,0-3.59-.27C58.27,58,59,65.94,57.46,67.81S67.08,62.89,63.78,56.82Z" fill="#311759"/><path d="M45.57,40.05s-2-2.43-4-.4,1.67,7.07,4.11,7.88S45.57,40.05,45.57,40.05Z" fill="#905e3b"/><path d="M63.1,39.79s1.89-2.49,4-.52-1.46,7.12-3.87,8S63.1,39.79,63.1,39.79Z" fill="#895d3b"/><path d="M45.57,40.05s-2-2.43-4-.4,1.67,7.07,4.11,7.88S45.57,40.05,45.57,40.05Z" fill="#895d3b"/><path d="M63.1,39.79s1.89-2.49,4-.52-1.46,7.12-3.87,8S63.1,39.79,63.1,39.79Z" fill="#895d3b"/></g><g id="face"><ellipse cx="54.56" cy="40.16" rx="11.68" ry="15.46" transform="translate(-0.59 0.81) rotate(-0.85)" fill="#895d3b"/><ellipse cx="49.82" cy="39.28" rx="1.26" ry="2.05" transform="translate(-0.58 0.74) rotate(-0.85)" fill="#0c0506"/><ellipse cx="59.91" cy="39.14" rx="1.26" ry="2.05" transform="translate(-0.57 0.89) rotate(-0.85)" fill="#0c0506"/><path d="M49.43,46.69,60,46.54A4.69,4.69,0,0,1,55.13,51C49.89,51,49.43,46.69,49.43,46.69Z" fill="#fff"/><ellipse cx="49.82" cy="39.28" rx="1.26" ry="2.05" transform="translate(-0.58 0.74) rotate(-0.85)" fill="#0c0506"/><ellipse cx="59.91" cy="39.14" rx="1.26" ry="2.05" transform="translate(-0.57 0.89) rotate(-0.85)" fill="#0c0506"/><path d="M49.43,46.69,60,46.54A4.69,4.69,0,0,1,55.13,51C49.89,51,49.43,46.69,49.43,46.69Z" fill="#fff"/></g><g id="hair"><path d="M66.2,38.36c.06-.55.09-1.12.11-1.7a24.31,24.31,0,0,0,0-3.54c-.13-2.87-.44-5.23-.44-5.23h0a1.47,1.47,0,0,0-1.45-1.23l-.27,0H64a1.24,1.24,0,0,0,0-.27,1.48,1.48,0,0,0-1.48-1.48l-.26,0a1.47,1.47,0,0,0-1.47-1.38l-.26,0a1.47,1.47,0,0,0-1.47-1.36,1.51,1.51,0,0,0-.83.26,1.46,1.46,0,0,0-2.6-.58,1.47,1.47,0,0,0-1.32-.83,1.46,1.46,0,0,0-1.3.78,1.46,1.46,0,0,0-1.13-.54,1.48,1.48,0,0,0-1.45,1.15,1.45,1.45,0,0,0-.83-.25,1.47,1.47,0,0,0-1.46,1.36l-.26,0a1.46,1.46,0,0,0-1.47,1.39,1.15,1.15,0,0,0-.26,0,1.48,1.48,0,0,0-1.48,1.48,2.45,2.45,0,0,0,0,.27h0a1.48,1.48,0,0,0-1.46,1.23h0a54.24,54.24,0,0,0-.32,10.92l1.55.74,0-.44a31.54,31.54,0,0,1,.88-6.31A11.93,11.93,0,0,0,46,30.23a1.51,1.51,0,0,0,.83-.59h0a1.5,1.5,0,0,0,1.23.65,1.48,1.48,0,0,0,1.24-.68,1.47,1.47,0,0,0,1.24.68,1.39,1.39,0,0,0,.67-.17,1.51,1.51,0,0,0,.6-.46,1.48,1.48,0,0,0,1.21.63,1.36,1.36,0,0,0,.67-.17,1.53,1.53,0,0,0,.64-.51,1.48,1.48,0,0,0,1.24.68,1.43,1.43,0,0,0,.68-.17,1.51,1.51,0,0,0,.6-.46,1.47,1.47,0,0,0,1.21.63,1.39,1.39,0,0,0,.67-.17,1.51,1.51,0,0,0,.6-.46,1.48,1.48,0,0,0,1.21.63,1.47,1.47,0,0,0,1.24-.68,1.48,1.48,0,0,0,1.24.68,1,1,0,0,0,.25,0c.08.46.21,1.16.33,1.74a4.56,4.56,0,0,0,.13.8,31.65,31.65,0,0,1,.89,6.31l0,.44,0,0v0l.27-.15,1.22-.59a.57.57,0,0,0,0-.13h0S66.19,38.56,66.2,38.36Zm-2-8.22v0h0Z"/></g></svg>