<svg xmlns="http://www.w3.org/2000/svg" width="110" height="194" viewBox="0 0 110 194"><title>landian-05-face</title><g id="face"><ellipse cx="55.12" cy="52.52" rx="10.59" ry="14.53" fill="#e4b88b"/><ellipse cx="49.79" cy="54.35" rx="1.25" ry="2.02" transform="translate(-0.8 0.74) rotate(-0.85)" fill="#0c0506"/><ellipse cx="59.75" cy="54.21" rx="1.25" ry="2.02" transform="translate(-0.79 0.89) rotate(-0.85)" fill="#0c0506"/><path d="M58.63,61.31l-3.45.86-3.63-.74a25.69,25.69,0,0,1,3.51-.36A19.25,19.25,0,0,1,58.63,61.31Z" fill="#d3a57d"/><path d="M51.55,61.43a13.38,13.38,0,0,0,7.08-.12,4.06,4.06,0,0,1-3.49,2A3.77,3.77,0,0,1,51.55,61.43Z" fill="#bc8e6c"/></g></svg>