<svg xmlns="http://www.w3.org/2000/svg" width="110" height="194" viewBox="0 0 110 194"><title>landian-06-face</title><g id="face"><ellipse cx="54.83" cy="45.8" rx="10.74" ry="14.74" fill="#fcdab5"/><ellipse cx="49.42" cy="47.66" rx="1.26" ry="2.05" transform="translate(-0.7 0.74) rotate(-0.85)" fill="#0c0506"/><ellipse cx="59.53" cy="47.51" rx="1.26" ry="2.05" transform="translate(-0.7 0.89) rotate(-0.85)" fill="#0c0506"/><path d="M58.39,54.72l-3.51.87-3.67-.76a26.35,26.35,0,0,1,3.56-.36A20.26,20.26,0,0,1,58.39,54.72Z" fill="#ea2127"/><path d="M51.21,54.83a13.58,13.58,0,0,0,7.18-.11,4.11,4.11,0,0,1-3.54,2A3.78,3.78,0,0,1,51.21,54.83Z" fill="#ea2127"/></g></svg>