<svg xmlns="http://www.w3.org/2000/svg" width="110" height="194" viewBox="0 0 110 194"><title>landian-22-face</title><g id="face"><path d="M66.41,49.61c.12,8.06-6.28,14.69-11.24,14.76S43.62,58,43.49,49.94s-.3-15.18,11.24-15.28C67.94,34.56,66.28,41.56,66.41,49.61Z" fill="#ca9067"/><ellipse cx="49.99" cy="48.04" rx="1.33" ry="2.08" transform="translate(-0.77 0.81) rotate(-0.93)" fill="#0c0506"/><ellipse cx="60.64" cy="47.89" rx="1.33" ry="2.08" transform="translate(-0.77 0.99) rotate(-0.93)" fill="#0c0506"/><path d="M50.38,55.89,60,55.76a4.16,4.16,0,0,1-4.44,3.84C50.79,59.66,50.38,55.89,50.38,55.89Z" fill="#fff"/><path d="M61.51,55.77H48.78c0-2.25,6.36-2.7,6.36-2.7S61.51,53.52,61.51,55.77Z"/></g></svg>