<svg xmlns="http://www.w3.org/2000/svg" width="110" height="194" viewBox="0 0 110 194"><title>landian-11-face</title><g id="face"><ellipse cx="54.66" cy="53.31" rx="10.59" ry="14.55" fill="#e4b88b"/><ellipse cx="49.32" cy="55.15" rx="1.25" ry="2.03" transform="translate(-0.81 0.73) rotate(-0.85)" fill="#0c0506"/><ellipse cx="59.29" cy="55" rx="1.25" ry="2.03" transform="translate(-0.8 0.88) rotate(-0.85)" fill="#0c0506"/><path d="M58.16,62.11,54.71,63l-3.62-.75a25.66,25.66,0,0,1,3.5-.36A19.14,19.14,0,0,1,58.16,62.11Z" fill="#9e2528"/><path d="M51.09,62.23a13.35,13.35,0,0,0,7.07-.12,4,4,0,0,1-3.48,2A3.75,3.75,0,0,1,51.09,62.23Z" fill="#d4212d"/></g></svg>