<svg xmlns="http://www.w3.org/2000/svg" width="110" height="194" viewBox="0 0 110 194"><title>landian-33-hair</title><g id="hair"><path d="M68.36,44.94a14.94,14.94,0,0,0-.85,4.9s-2.16.22-4.67-6.07c-2.3-3.89-13.49-1.45-15.31-3.54a24.19,24.19,0,0,1-.21,3.39c-.12.91.15,2.67,0,3.42-.09.41-.42-1-.72.22a11.68,11.68,0,0,1-1,2.8s-2.42-7.6-1.9-9.34a4.25,4.25,0,0,1,3.23-3.34s3.46-8,13.8-6.06a8.22,8.22,0,0,1-1,1.63c2.69-.14,6,5,8.68,3.17,0,0,1,1.71-.47,6.45,0,0,1.83-.33,1.82-.29C69.36,43.33,68.75,43.82,68.36,44.94Z"/></g></svg>