<svg xmlns="http://www.w3.org/2000/svg" width="110" height="194" viewBox="0 0 110 194"><title>landian-23-hair</title><g id="hair"><path d="M66.2,38.36c.06-.55.09-1.12.11-1.7a24.31,24.31,0,0,0,0-3.54c-.13-2.87-.44-5.23-.44-5.23h0a1.47,1.47,0,0,0-1.45-1.23l-.27,0H64a1.24,1.24,0,0,0,0-.27,1.48,1.48,0,0,0-1.48-1.48l-.26,0a1.47,1.47,0,0,0-1.47-1.38l-.26,0a1.47,1.47,0,0,0-1.47-1.36,1.51,1.51,0,0,0-.83.26,1.46,1.46,0,0,0-2.6-.58,1.47,1.47,0,0,0-1.32-.83,1.46,1.46,0,0,0-1.3.78,1.46,1.46,0,0,0-1.13-.54,1.48,1.48,0,0,0-1.45,1.15,1.45,1.45,0,0,0-.83-.25,1.47,1.47,0,0,0-1.46,1.36l-.26,0a1.46,1.46,0,0,0-1.47,1.39,1.15,1.15,0,0,0-.26,0,1.48,1.48,0,0,0-1.48,1.48,2.45,2.45,0,0,0,0,.27h0a1.48,1.48,0,0,0-1.46,1.23h0a54.24,54.24,0,0,0-.32,10.92l1.55.74,0-.44a31.54,31.54,0,0,1,.88-6.31A11.93,11.93,0,0,0,46,30.23a1.51,1.51,0,0,0,.83-.59h0a1.5,1.5,0,0,0,1.23.65,1.48,1.48,0,0,0,1.24-.68,1.47,1.47,0,0,0,1.24.68,1.39,1.39,0,0,0,.67-.17,1.51,1.51,0,0,0,.6-.46,1.48,1.48,0,0,0,1.21.63,1.36,1.36,0,0,0,.67-.17,1.53,1.53,0,0,0,.64-.51,1.48,1.48,0,0,0,1.24.68,1.43,1.43,0,0,0,.68-.17,1.51,1.51,0,0,0,.6-.46,1.47,1.47,0,0,0,1.21.63,1.39,1.39,0,0,0,.67-.17,1.51,1.51,0,0,0,.6-.46,1.48,1.48,0,0,0,1.21.63,1.47,1.47,0,0,0,1.24-.68,1.48,1.48,0,0,0,1.24.68,1,1,0,0,0,.25,0c.08.46.21,1.16.33,1.74a4.56,4.56,0,0,0,.13.8,31.65,31.65,0,0,1,.89,6.31l0,.44,0,0v0l.27-.15,1.22-.59a.57.57,0,0,0,0-.13h0S66.19,38.56,66.2,38.36Zm-2-8.22v0h0Z"/></g></svg>