<svg xmlns="http://www.w3.org/2000/svg" width="110" height="194" viewBox="0 0 110 194"><title>landian-11-hair</title><g id="hair"><path d="M68.35,66.86a16.86,16.86,0,0,1-3.28,3.2,11.76,11.76,0,0,1-3.45,1.8c.42-2.83.74-8.33.74-8.33.41-2.34.16-7.1-.32-8.24-.58-1.36-1.83-4.86-1.83-4.86-1-2.73-1.51-4.88-2-6-1-2.38-2.54-3.08-3.17-3-3.71.21-4.73,4.94-7,2.91-1.5-1.31-1.43,1.4-1.43,1.4-.51,6.5-2.54,8.35-2.54,8.35s-4.13-5-1.94-9.83c.67-1.47,2.5-4.22,4.35-5a20.26,20.26,0,0,1,7.81-1.69c3.58-.18,6.36.76,8.07,2.3a11.6,11.6,0,0,1,3.58,5.59,36.76,36.76,0,0,1,1.69,7.26c.14,1.13.76,4.31.76,4.31s.51,3.71.89,5.53A6.51,6.51,0,0,1,68.35,66.86Z" fill="#1a1a1a"/></g></svg>