<svg xmlns="http://www.w3.org/2000/svg" width="110" height="194" viewBox="0 0 110 194"><title>landian-09-hair</title><g id="hair"><path d="M72.69,58a6.93,6.93,0,0,1-2.17,4.64c-2.31,1.93-3.94,1.85-3.94,1.85-.23-.77-.69-3.71-.69-3.71a153.75,153.75,0,0,1-1.78-16.23,45.66,45.66,0,0,0-.85-6.25,13,13,0,0,0-5.33-4.72c-3.91-1.85-5.72-4.17-7.19-5.56C50.16,27.5,49,31.61,49,31.61c-1.86,6.73-3.29,7.48-3.29,7.48s-4.19-5.09-2-10c.68-1.49,2.53-4.28,4.4-5.09A20.7,20.7,0,0,1,56,22.33c3.63-.18,6.44.78,8.17,2.34a11.55,11.55,0,0,1,3.63,5.65,36.5,36.5,0,0,1,1.71,7.36c.15,1.15.77,4.36.77,4.36s.52,3.76.9,5.6C71.68,49.94,72.69,58,72.69,58Z" fill="#14103d"/><path d="M38,58a7,7,0,0,0,2.16,4.64c2.32,1.93,3.94,1.85,3.94,1.85.23-.77.7-3.71.7-3.71a79.08,79.08,0,0,0,1.81-16.69A42.77,42.77,0,0,1,47.65,36c1.24-2.17,2.17-5.72,2.63-6.88a4.11,4.11,0,0,1,3.53-2.88c1.88.11,7.19-2.41,6.75-3.3s-6.87-.63-8-.54c-3.17.23-5.83.87-7.34,3a14.77,14.77,0,0,0-2.63,5.26,48.45,48.45,0,0,0-1.44,7c-.18,1.14-.77,4.36-.77,4.36s-.51,3.76-.9,5.6C39,49.94,38,58,38,58Z" fill="#14103d"/></g></svg>