<svg xmlns="http://www.w3.org/2000/svg" width="110" height="194" viewBox="0 0 110 194"><title>landian-13-hair</title><g id="hair"><path d="M42.67,79.17s-.26-2.84-.34-3.92-1-1.2-1.37-.77c0,0-1.39,1.32-3.69,7.92,0,0-1.54-2.63.32-7.24a22.31,22.31,0,0,0,1.22-10.44L45,59.79s2.07,5.9.79,8.46a34.76,34.76,0,0,0-.64,5.25s-.08,2.13-.3,4.56a26.23,26.23,0,0,0,.73,6.36,5.09,5.09,0,0,0,.6,1.75c.36.61-.94.26-1.63-.59a8.4,8.4,0,0,1-1.4-3.08A13.25,13.25,0,0,1,42.67,79.17Z" fill="#211c1c"/><path d="M54.43,43.85c-.37.29-1.73-1.41-2.75-1.28-.74.09-1.23.51-1.67,2-1,3.33-1.71,5.25-2.77,10.2-.58,2.66-1.58,4.91-1.2,10.58.06.93-1.6-.12-2.24,1.24-.39.84-1.33.46-3,.71a2,2,0,0,1-1.79-1,6.06,6.06,0,0,1-.71-5.45A43.84,43.84,0,0,0,40,55.06c.23-1.43-.35-2.79,0-5C41.35,41.33,47.83,36.17,55.64,37,55.64,37,56,42.67,54.43,43.85Z" fill="#211c1c"/><path d="M65.91,79.17s.26-2.84.34-3.92,1-1.2,1.37-.77c0,0,1.38,1.32,3.69,7.92,0,0,1.54-2.63-.32-7.24a22.17,22.17,0,0,1-1.22-10.44l-6.14-4.93s-2.07,5.9-.79,8.46a34.76,34.76,0,0,1,.64,5.25s.08,2.13.29,4.56a26,26,0,0,1-.72,6.36,5.09,5.09,0,0,1-.6,1.75c-.37.61.94.26,1.62-.59a8.25,8.25,0,0,0,1.41-3.08A13.25,13.25,0,0,0,65.91,79.17Z" fill="#211c1c"/><path d="M54.15,43.85c.37.29,1.73-1.41,2.75-1.28.73.09,1.23.51,1.67,2,1,3.33,1.7,5.25,2.77,10.2.57,2.66,1.58,4.91,1.2,10.58-.07.93,1.6-.12,2.24,1.24.39.84,1.33.46,3,.71a2,2,0,0,0,1.79-1,6,6,0,0,0,.7-5.45,44,44,0,0,1-1.66-5.82c-.23-1.43.35-2.79,0-5C67.23,41.33,60.74,36.17,52.93,37,52.93,37,52.59,42.67,54.15,43.85Z" fill="#211c1c"/></g></svg>