<svg xmlns="http://www.w3.org/2000/svg" width="110" height="194" viewBox="0 0 110 194"><title>landian-10-hair</title><g id="hair"><path d="M58.16,34.78c.14-.86-.58-1.56-3.16-1.6-14.18-.27-14.78,12.68-12.24,15s5.73-4,5.73-4c.4.34,0,1.47,0,1.47A6.27,6.27,0,0,0,51,42.57c.53-.07,0,1.75,0,1.75,1.24-.61,2.36-2.42,3.11-3.88.58,1.18,1.78,3.35,2.8,3.48,0,0-1-1.62,0-2.11,0,0,.75,1.7,1.59,1.65,0,0-.79-1.22,0-1.28s6.55,5.53,6.93,9.1c.11,1,.63,1.58,1,.07C68,44.51,65.75,36.76,58.16,34.78Z" fill="#6c4b29"/></g></svg>