<svg xmlns="http://www.w3.org/2000/svg" xmlns:xlink="http://www.w3.org/1999/xlink" width="110" height="194" viewBox="0 0 110 194"><defs><linearGradient id="linear-gradient" x1="44.67" y1="137.85" x2="44.67" y2="192.99" gradientUnits="userSpaceOnUse"><stop offset="0" stop-color="#fff" stop-opacity="0"/><stop offset="1" stop-color="#3a2416"/></linearGradient><linearGradient id="linear-gradient-2" x1="65.33" y1="137.85" x2="65.33" y2="192.99" xlink:href="#linear-gradient"/></defs><title>landian-25</title><g style="isolation:isolate"><g id="landians"><path d="M38.38,146.81c-1.36-20.43-1-42.11.58-46.49,1.31-3.68,8.79-4.66,12-4.32s4.82,12.38,3.73,15.81c-2.17,6.82-3.8,19.91-3.31,35.51.09,3.06-3.85,6.05-6.23,6C43.36,153.27,38.66,151,38.38,146.81Z" fill="#ba9352"/><path d="M71.62,146.81c1.36-20.43,1-42.11-.58-46.49-1.31-3.68-8.79-4.66-12-4.32s-4.82,12.38-3.73,15.81c2.17,6.82,3.8,19.91,3.31,35.51-.09,3.06,3.85,6.05,6.23,6C66.64,153.27,71.34,151,71.62,146.81Z" fill="#ba9352"/><path d="M78.82,54.66s-4.74,13-4.91,14.67c-.14,1.45-1.36,2.43-1.46,3.79-.81,11.31-2,18-2.5,27.39-.2,4.23-6,8.15-15,8.07-8.91.08-15-6.5-13.74-10.56,3.21-10.75-3.85-14.47-5-27.28,0-.46-.09-.93-.14-1.41-.18-1.65-4.91-14.67-4.91-14.67.93-3,7.69-4.17,10.94-5.24L43.4,49l1-.27c2.37-.6,4.84-1.07,5.67-1.23l.28-.05c-.7,5.73,4.43,13.18,4.65,13.19s5.35-7.45,4.65-13.19l.28.05c.81.15,3.3.62,5.67,1.23l1,.27,1.29.39C71.13,50.49,77.89,51.69,78.82,54.66Z" fill="#f9ad42"/><path d="M62.37,48.76c-1.16-1-.52-6.47-.52-6.47l-13.44.32s.9,5.18-1.83,6.44l8.2,24.42Z" fill="#b48364"/><path d="M72.45,99.29C69,92.19,73.19,76,73.57,68.88c.09-.81.2-1.61.31-2.38l0-.07c1.08-1.58,4.29-11.07,2.71-13.16-1.06-1.39-11.26-4.88-12.73-4.52a11.86,11.86,0,0,1-2.18-1c-.52,4-3.65,4.23-6.72,4.36-3.47.14-6.58-.57-6.84-4.61a17.22,17.22,0,0,1-2.63,1.18c-2-.08-11.51,3.21-12.53,4.55-1.59,2.09,2.14,11.58,3.22,13.16S39,93.91,37.58,99a10.27,10.27,0,0,0,0,3.41c-.31,5.41,34.87-1.7,34.87-1.7h0A2,2,0,0,0,72.45,99.29Z" fill="#410099"/><path d="M31.17,54.66c0,4.19-6.41,24.92-6.78,32.28-.1,2.15.34,4.87,3.4,5.43s5.69-2.41,6-3.31,6.12-22.83,6.8-24.75,1-6.11,0-7.47S31.17,54.66,31.17,54.66Z" fill="#62747d"/><path d="M26.45,112.64c-.41,2.71-1.35,8-.79,10.41s3.4,5.43,4.3,5.31,4-2.94,3.73-10.29c0,0,1.59,2.6,2.83,1.92s-1.47-7.69-1.92-9.5a4.91,4.91,0,0,0-5.2-3.39C27,107.55,26.68,111.17,26.45,112.64Z" fill="#ca9067"/><path d="M25.49,112.77s-2.82-16.68-1.3-25.46c.23-1.34,1.25-3.28,3.62-2.72s5.45.84,6,2.76,1,23.59,1,23.59Z" fill="#62747d"/><path d="M38.53,185.71c2.91-1.12-12.87,4.33-14.44,4.69s-2,3.06-1.14,3.14,23.29.6,25,.42,5.65.79,3-3.47C45.26,181.12,35.62,186.83,38.53,185.71Z" fill="#59231a"/><path d="M36.6,186.29S40.12,173,38.29,143.9c-.46-7.28,12.18-9,13.11.37A275.82,275.82,0,0,1,51.94,193S46.75,187.55,36.6,186.29Z" fill="#ba9352"/><path d="M71.47,185.71c-2.91-1.12,12.87,4.33,14.44,4.69s2,3.06,1.14,3.14-23.29.6-25,.42-5.65.79-3-3.47C64.74,181.12,74.38,186.83,71.47,185.71Z" fill="#59231a"/><path d="M73.4,186.29S69.88,173,71.71,143.9c.46-7.28-12.18-9-13.11.37A275.82,275.82,0,0,0,58.06,193S63.25,187.55,73.4,186.29Z" fill="#ba9352"/><path d="M78.82,54.66c0,4.19,6.4,24.92,6.77,32.28.11,2.15-.34,4.87-3.39,5.43s-5.7-2.41-6-3.31S70,66.23,69.36,64.31s-1-6.11,0-7.47S78.82,54.66,78.82,54.66Z" fill="#62747d"/><path d="M83.53,112.64c.42,2.71,1.36,8,.79,10.41s-3.39,5.43-4.3,5.31-4-2.94-3.73-10.29c0,0-1.58,2.6-2.83,1.92s1.47-7.69,1.93-9.5a4.9,4.9,0,0,1,5.2-3.39C83,107.55,83.3,111.17,83.53,112.64Z" fill="#ca9067"/><path d="M84.5,112.77s2.81-16.68,1.29-25.46C85.56,86,84.55,84,82.17,84.59s-5.44.84-6,2.76-1,23.59-1,23.59Z" fill="#62747d"/><path d="M50.35,41l9-.12a4,4,0,0,1-4.18,3.75C50.74,44.67,50.35,41,50.35,41Z" fill="#fff"/><path d="M39.3,97.25c12.71,5.58,32,1.23,32,1.23l.6,14.57s-16.85,6.18-33.3-.1A128.89,128.89,0,0,1,39.3,97.25Z" fill="#ba9352"/><path d="M48,48v60.23c0,6-11,12.61-11.11,9.52-.31-6.48.74-18.63.71-29.87,0-6.39-.9-12.44-1.32-17.09,0-.46-.09-.93-.14-1.41-.18-1.65-4.91-14.67-4.91-14.67.93-3,7.69-4.17,10.94-5.24L43.4,49l1-.27C45.64,48.44,46.9,48.17,48,48Z" fill="#62747d"/><path d="M78.82,54.66s-4.74,13-4.91,14.67c-.14,1.45-.27,2.84-.36,4.19-.25,3.38-1.11,8.61-1.1,14.31,0,13.45,1.28,29.49.69,29.87-3.82,2.45-11.21-5.13-11.21-9.51V47.92c1.06.22,2.38.51,3.67.84l1,.27,1.29.39C71.13,50.49,77.89,51.69,78.82,54.66Z" fill="#62747d"/><path d="M53.53,52.28,50.2,57.65l-4.67-8.93,2.63-2.07A23,23,0,0,0,53.53,52.28Z" fill="#fff"/><path d="M56.61,52.28l3.32,5.37,4.68-8.93L62,46.65A23,23,0,0,1,56.61,52.28Z" fill="#fff"/><line x1="47.95" y1="111.13" x2="47.95" y2="108.18" fill="none"/><line x1="47.95" y1="47.95" x2="47.95" y2="46.08" fill="none"/><line x1="61.93" y1="47.92" x2="61.93" y2="45.15" fill="none"/><path d="M48.16,46.65l-7.6,5,3.32,6-2.29,2s5.5,27.09,6.36,33.8C48,93.48,48.66,60.39,48.16,46.65Z" fill="#4f5a5c"/><path d="M62,46.65l7.34,5-3.31,6,2.28,2s-5.5,27.09-6.35,33.8C61.94,93.48,61.47,60.39,62,46.65Z" fill="#4f5a5c"/><path d="M46.81,32.4S45,30.15,43.11,32s1.55,6.56,3.81,7.31S46.81,32.4,46.81,32.4Z" fill="#ca9067"/><path d="M63.08,32.16s1.76-2.31,3.69-.48-1.35,6.61-3.59,7.42S63.08,32.16,63.08,32.16Z" fill="#ca9067"/><path d="M36.6,186.29S40.12,173,38.29,143.9c-.46-7.28,12.18-9,13.11.37A275.82,275.82,0,0,1,51.94,193S46.75,187.55,36.6,186.29Z" opacity="0.41" fill="url(#linear-gradient)" style="mix-blend-mode:multiply"/><path d="M73.4,186.29S69.88,173,71.71,143.9c.46-7.28-12.18-9-13.11.37A275.82,275.82,0,0,0,58.06,193S63.25,187.55,73.4,186.29Z" opacity="0.41" fill="url(#linear-gradient-2)" style="mix-blend-mode:multiply"/></g><g id="face"><path d="M66,32.34c.12,7.93-5.94,14.45-10.63,14.52s-10.93-6.27-11-14.2S44,17.73,55,17.64C67.45,17.53,65.88,24.42,66,32.34Z" fill="#ca9067"/><ellipse cx="50.47" cy="30.79" rx="1.26" ry="2.05" transform="translate(-0.45 0.75) rotate(-0.85)" fill="#0c0506"/><ellipse cx="60.55" cy="30.64" rx="1.26" ry="2.05" transform="translate(-0.45 0.9) rotate(-0.85)" fill="#0c0506"/><path d="M50.83,38.52l9.08-.13a4,4,0,0,1-4.2,3.77C51.23,42.23,50.83,38.52,50.83,38.52Z" fill="#fff"/></g><g id="hair"><path d="M66.46,31.62l.17-9.51s.41-3.8-3.24-4.34c0,0-4.1-5-13.28-2.06a9.61,9.61,0,0,0-6.69,7.62c-.38,3.39,1.08,8.26,1.08,8.26l1.47.93a8.91,8.91,0,0,1,9.1-6.76c4.17.06,8.32-5.53,8.32-5.53,1.12,3.2,1.53,12.16,1.53,12.16Z"/></g></g></svg>