<svg xmlns="http://www.w3.org/2000/svg" xmlns:xlink="http://www.w3.org/1999/xlink" width="110" height="194" viewBox="0 0 110 194"><defs><linearGradient id="linear-gradient" x1="54.72" y1="86.55" x2="55.11" y2="159.66" gradientUnits="userSpaceOnUse"><stop offset="0" stop-color="#333"/><stop offset="0.26" stop-color="#2e2e2e"/><stop offset="0.58" stop-color="#1f1f1f"/><stop offset="0.91" stop-color="#070707"/><stop offset="1"/></linearGradient></defs><title>landian-04</title><g id="landians"><path d="M40.76,44.65a9.62,9.62,0,0,1-.93,2.25l-1.3,2.48a6,6,0,0,1-.55.92c-.3.39-.68.7-1,1.07a4.26,4.26,0,0,0-.41,4.82c.43.72,1.1,1.37,1.12,2.21,0,1.27-1.39,2.07-1.77,3.28s.52,2.7,1.63,3.55a15.17,15.17,0,0,0,5.52,2.36c1.12.29,2.24.55,3.38.73a5.63,5.63,0,0,0,2.24,0,5.34,5.34,0,0,0,1.78-.9A8,8,0,0,0,52,66a7.68,7.68,0,0,0,1.22-2.36A12.87,12.87,0,0,0,54,60.11a11.79,11.79,0,0,0-.78-4.77c-.42-1.14-1-2.22-1.37-3.38a5.19,5.19,0,0,0-.45-1.15,4.77,4.77,0,0,0-.79-.83,11.57,11.57,0,0,1-2.24-2.87C47.57,45.64,47,43.88,45.55,43a5.52,5.52,0,0,0-3.47-.49C40.56,42.7,41,43.35,40.76,44.65Z" fill="#f5d668"/><path d="M68.14,44.65a8.84,8.84,0,0,0,.93,2.25l1.3,2.48a5.33,5.33,0,0,0,.55.92c.3.39.68.7,1,1.07a4.24,4.24,0,0,1,.42,4.82c-.43.72-1.1,1.37-1.12,2.21,0,1.27,1.39,2.07,1.77,3.28s-.53,2.7-1.63,3.55a15.15,15.15,0,0,1-5.53,2.36c-1.11.29-2.24.55-3.38.73a5.63,5.63,0,0,1-2.24,0,5.3,5.3,0,0,1-1.77-.9A8,8,0,0,1,56.87,66a8.14,8.14,0,0,1-1.22-2.36,12.86,12.86,0,0,1-.76-3.57,12,12,0,0,1,.77-4.77c.43-1.14,1-2.22,1.38-3.38a3.13,3.13,0,0,1,1.23-2,11.38,11.38,0,0,0,2.25-2.87c.81-1.47,1.38-3.23,2.83-4.09a5.52,5.52,0,0,1,3.47-.49C68.34,42.7,67.85,43.35,68.14,44.65Z" fill="#f5d668"/><path d="M43.08,41.64S42.05,79,53.83,78.21c13-.86,11.7-37.06,11.7-37.06Z" fill="#f5d668"/><path d="M67.54,59.91c4.94,2.69,7.39,18.4,8.08,20.64.9,2.92,2.47,8.75,0,9.87s-4.26-2.69-6.06-7S63.72,71.2,62.83,68C61.71,64,62.61,57.21,67.54,59.91Z" fill="#e4b88b"/><path d="M43,60.29c-5,2.67-7.51,18.36-8.21,20.6-.92,2.91-2.53,8.73-.07,9.87s4.28-2.67,6.11-6.92,5.91-12.23,6.83-15.44C48.83,64.37,48,57.63,43,60.29Z" fill="#e4b88b"/><path d="M68.3,145.76a182.26,182.26,0,0,0,3.76-33.65c0-15.49-15.4-10.17-15.4,10.09,0,12.79.38,22.89.37,25.13C57,155.63,63.94,158.46,68.3,145.76Z" fill="#e4b88b"/><path d="M57.87,188.12c.72-1.43.42-5,.37-7.33s-.86-2.69-2-12.54.45-12.3,1.79-19a4.51,4.51,0,0,1,9,.9c.22,5.81-2.26,30.47-2.46,30.65-.27,2.16-.61,5.89.45,6.42,1.29.65,3.74,2.15,6.4,3.66,1.5.62,4.17,1.29,4.31,2.08,0,1.27-2.75.77-8.23.66-2,0-4.53-.24-6.53-.13C56.11,193.74,57.16,189.55,57.87,188.12Z" fill="#e4b88b"/><path d="M57.77,188.44s.48,2.05,6.9,2.63c2.43.22,3-2.56,3-2.56s6.57,2.08,8.56,4.16c-.35,1.61-3.68,1.36-8.73,1.24-1.8,0-10.15-.11-10.15-.11A5.66,5.66,0,0,1,57.77,188.44Z"/><path d="M41,147.05a344,344,0,0,1-3.5-34.94c-.57-15.48,15.4-9.41,15.4,10.09,0,12.79-.39,22.89-.37,25.13C52.57,155.63,45.47,158.49,41,147.05Z" fill="#e4b88b"/><path d="M52.66,188.12c-.72-1.43-.42-5-.37-7.33s.86-2.69,2-12.54-.45-12.3-1.79-19a4.51,4.51,0,0,0-8.95.9c-.22,5.81,2.26,30.47,2.46,30.65.27,2.16.61,5.89-.45,6.42-1.29.65-3.74,2.15-6.39,3.66-1.51.62-4.18,1.29-4.31,2.08,0,1.27,2.74.77,8.22.66,2,0,4.54-.24,6.53-.13C54.42,193.74,53.37,189.55,52.66,188.12Z" fill="#e4b88b"/><path d="M52.82,188.44s-.48,2.05-6.89,2.63c-2.44.22-3-2.56-3-2.56s-6.58,2.08-8.57,4.16c.36,1.61,3.68,1.36,8.73,1.24,1.8,0,10.15-.11,10.15-.11A5.63,5.63,0,0,0,52.82,188.44Z"/><path d="M51.32,51.56s.39,6.34-2.65,8c-.68.37,3.22,27.62,6.78,27.86,2.52.16,4.88-22.08,6.4-27.51,0,0-3.07-1.34-2.39-7.59C59.75,49.62,51.32,51.56,51.32,51.56Z" fill="#c89d7c"/><path d="M61,59.26a23.32,23.32,0,0,1,6.45,1.21c1,.29.22,7,.13,10.39-.08,3.11-.11,5-.64,10.52-.26,2.69-.77,6.91-.77,7.56,0,1.67-22.45,1.52-22.45-.51,0-1.51-.56-6.45-.64-7.18a88,88,0,0,1-.51-9.62,74.26,74.26,0,0,1,.51-10.39c.21-.83,6.16-2.05,6.16-2.05S55.16,63.06,61,59.26Z"/><path d="M43.6,88.16s-1.4,4.29-3.79,10.63c-.56,1.49-1,3.07-1.53,4.82a31,31,0,0,0-.79,3.67,43.56,43.56,0,0,0-.38,14.82c.56,3.61,5.43,37.14,5.43,37.14s9.23.38,12.83.38c2.14,0,11.8-.38,11.8-.38S72.36,126,72.7,122.18c.37-4.12.89-9.08-.47-14.87-.22-.94-.72-2.53-1-3.52-.55-1.81-1.11-3.28-1.69-5.07C67.66,93,66.21,88.29,66.21,88.29Z" fill="url(#linear-gradient)"/><path d="M43.22,83.94s8.21,2.82,23.43.17c0,0,.38.59.09,2.91-.26,2-.43,1.8-.43,1.8s-11.63,3.33-22.75-.43C43.56,88.39,42.62,87.36,43.22,83.94Z" fill="#ab8ecd"/><path d="M83.48,114.4s-3-12.35-3.24-15.29-2.56-14.57-6.18-13.29c-3.23,1.13-2.1,9.36.22,14.91s5.81,13,6,14.57c.42,3.74-.76,8.82-.17,9.21.75.5,1.3-.92,2-3.23,1.12,0,3.29,4.49,5.89,6s.73-5.8-.41-7.34C86.71,118.75,84.05,116,83.48,114.4Z" fill="#e4b88b"/><path d="M26.52,115.53s3-12.35,3.24-15.29S32.32,85.68,35.94,87c3.23,1.13,2.1,9.36-.22,14.91s-5.81,13-6,14.58c-.42,3.74.76,8.81.17,9.21-.75.5-1.3-.93-2-3.24-1.12,0-3.29,4.49-5.89,6s-.73-5.8.41-7.34C23.29,119.88,26,117.14,26.52,115.53Z" fill="#e4b88b"/></g><g id="face"><ellipse cx="54.91" cy="39.83" rx="11.07" ry="15.19" fill="#e4b88b"/><ellipse cx="49.34" cy="41.75" rx="1.3" ry="2.11" transform="translate(-0.61 0.73) rotate(-0.85)" fill="#0c0506"/><ellipse cx="59.75" cy="41.59" rx="1.3" ry="2.11" transform="translate(-0.61 0.89) rotate(-0.85)" fill="#0c0506"/><path d="M58.57,49,55,49.92l-3.78-.79a26.89,26.89,0,0,1,3.66-.37A20.38,20.38,0,0,1,58.57,49Z" fill="#ea2127"/><path d="M51.18,49.13A13.93,13.93,0,0,0,58.57,49a4.23,4.23,0,0,1-3.64,2.08A3.89,3.89,0,0,1,51.18,49.13Z" fill="#ea2127"/></g><g id="hair"><path d="M44.08,40.43s2.25-3.7,4.73-8.06c.9-1.58,1-2.46,3.33-2.56,1,0,2.16,4.66,6.33,6.84.58.3,3,1.61,3.24,2.14,1.26,2.3,4.47,3.07,4,1.15A11.17,11.17,0,0,0,66,32.51c-1.26-3.77-4.19-7.95-10.89-8.06a11.91,11.91,0,0,0-10.59,5.48c-2.06,3.08-2.44,3.34-3.21,6.35C40.82,38.36,44.08,40.43,44.08,40.43Z" fill="#fdde6d"/><path d="M45.77,42.7c-.66,1.62-1.9,3.25-1.32,4.91a12,12,0,0,0,1.09,2.11c1.11,1.88,2.12,4,1.6,6.16A18.17,18.17,0,0,1,45.69,59a3.92,3.92,0,0,0-.29,3.33,6.33,6.33,0,0,0,1.79,1.86,2.9,2.9,0,0,1,1.26,2.17c-.05,1.25-1.42,2-2.63,2.33a2.17,2.17,0,0,1-1.68,0c-.5-.28-.66-1.13-.16-1.4s.81,0,1.21-.06A1.19,1.19,0,0,0,46,65.7a2.37,2.37,0,0,0-1.37-1.3c-.59-.27-1.23-.43-1.8-.75a3.64,3.64,0,0,1-.64-5.91,7.79,7.79,0,0,0,.8-.71A2.49,2.49,0,0,0,43,54.27a7.92,7.92,0,0,0-2.28-2.4C39.49,51.1,38,49.11,38.27,48a4,4,0,0,1,1.41-2.76,1.25,1.25,0,0,0,.45-1.66,7.21,7.21,0,0,1-.45-2.76,17.56,17.56,0,0,1,1.6-5.39c1.29-3.27,4.36-6.63,4.3-6.09l3.79,1.34S46.8,40.2,45.77,42.7Z" fill="#fdde6d"/><path d="M62.6,42.89c.67,1.62,1.91,3.26,1.33,4.91a12.49,12.49,0,0,1-1.09,2.12c-1.11,1.87-2.12,4-1.6,6.15a16.79,16.79,0,0,0,1.45,3.14A4,4,0,0,1,63,62.54a6.22,6.22,0,0,1-1.79,1.86,2.89,2.89,0,0,0-1.26,2.17c0,1.25,1.42,2,2.62,2.33a2.22,2.22,0,0,0,1.68,0c.51-.28.67-1.14.16-1.41-.36-.19-.8,0-1.21-.06a1.19,1.19,0,0,1-.75-1.54,2.43,2.43,0,0,1,1.37-1.3c.59-.27,1.23-.43,1.8-.75a3.67,3.67,0,0,0,1.84-2.78,3.72,3.72,0,0,0-1.2-3.13,6,6,0,0,1-.8-.71,2.46,2.46,0,0,1,0-2.75,7.83,7.83,0,0,1,2.28-2.41c1.22-.77,2.69-2.76,2.44-3.85a4,4,0,0,0-1.41-2.75,1.26,1.26,0,0,1-.45-1.67A7.18,7.18,0,0,0,68.7,41a21.9,21.9,0,0,0-.92-5.1,42.33,42.33,0,0,0-1.88-4.05c-1.4-2.3-3.15-2.73-3.1-2.33L59,30.9S61.58,40.39,62.6,42.89Z" fill="#fdde6d"/></g></svg>