<svg xmlns="http://www.w3.org/2000/svg" xmlns:xlink="http://www.w3.org/1999/xlink" width="110" height="194" viewBox="0 0 110 194"><defs><clipPath id="clip-path"><path d="M85.18,109.55l-9.8-1.6s.36-15.57.84-20.22c-.48-1.66-1.77-6.49-3.1-11.42-.57,9-.06,14.29-1.2,22-1.17,7.91-32.51,7.91-33.68,0-1.13-7.67-.63-13-1.2-22-1.32,4.93-2.62,9.76-3.09,11.42.48,4.65.83,20.22.83,20.22L25,109.55s-2.45-14.16-.92-23a5.54,5.54,0,0,1,.24-.85c.63-7.86,7.4-29.7,7.4-29.7.91-2.84,7.54-4,10.73-5a25.06,25.06,0,0,0,6.15-3.18c-1,7.8,6.49,12.69,6.49,12.69s7.47-4.89,6.49-12.69A25.06,25.06,0,0,0,67.72,51c3.19,1,9.82,2.19,10.73,5,0,0,6.77,21.84,7.4,29.7a5.54,5.54,0,0,1,.24.85C87.62,95.39,85.18,109.55,85.18,109.55Z" fill="none"/></clipPath></defs><title>landian-20-body</title><g style="isolation:isolate"><g id="landians"><path d="M38.42,185.65c2.93-1.12-13,4.36-14.54,4.73s-2,3.07-1.15,3.15,23.45.62,25.18.43,5.69.79,3.07-3.49C45.19,181,35.49,186.78,38.42,185.65Z" fill="#221f1f"/><path d="M36.47,186.23s3.55-13.35,1.7-42.68c-.46-7.33,12.27-9,13.2.37A277.35,277.35,0,0,1,51.91,193S46.69,187.5,36.47,186.23Z" fill="#0f4875"/><path d="M38.26,146.48c-1.36-20.57-1-42.41.59-46.82C40.16,96,47.7,95,51,95.31s4.84,12.47,3.74,15.92c-2.18,6.87-3.82,20-3.33,35.77.09,3.07-3.87,6.09-6.26,6C43.27,153,38.54,150.69,38.26,146.48Z" fill="#0f4875"/><path d="M71.58,185.65c-2.93-1.12,13,4.36,14.54,4.73s2,3.07,1.15,3.15-23.45.62-25.18.43-5.69.79-3.07-3.49C64.81,181,74.51,186.78,71.58,185.65Z" fill="#221f1f"/><path d="M73.53,186.23s-3.55-13.35-1.7-42.68c.46-7.33-12.27-9-13.2.37A277.35,277.35,0,0,0,58.09,193S63.31,187.5,73.53,186.23Z" fill="#0f4875"/><path d="M71.74,146.48c1.36-20.57,1-42.41-.59-46.82C69.84,96,62.3,95,59.05,95.31s-4.84,12.47-3.74,15.92c2.18,6.87,3.82,20,3.33,35.77-.09,3.07,3.87,6.09,6.26,6C66.73,153,71.46,150.69,71.74,146.48Z" fill="#0f4875"/><path d="M31.63,56s-7.06,22.76-7.44,30.17c-.1,2.16.35,4.9,3.42,5.47s5.74-2.43,6.08-3.34,6.16-23,6.85-24.92,1-6.15,0-7.52S32.65,53.4,31.63,56Z" fill="#b42125"/><path d="M78.37,56s7.06,22.76,7.44,30.17c.1,2.16-.35,4.9-3.42,5.47s-5.74-2.43-6.08-3.34-6.16-23-6.85-24.92-1-6.15,0-7.52S77.35,53.4,78.37,56Z" fill="#b42125"/><path d="M64.23,49.85c-4.78-1.6-5-7.52-5-7.52l-9,.34s-.23,5.92-5,7.52l9.57,28.47Z" fill="#7a5034"/><polygon points="64.23 64.04 45.21 64.04 48.51 47.8 54.86 57.55 61.49 47.8 64.23 64.04" fill="#c5d3df"/><path d="M38.16,96.57C51,102.19,70.4,97.81,70.4,97.81L71,112.49s-17,6.21-33.54-.11A131.94,131.94,0,0,1,38.16,96.57Z" fill="#0f4875"/><path d="M67.64,51a25.29,25.29,0,0,1-6.15-3.19c1,7.8-6.49,12.7-6.49,12.7s-7.47-4.9-6.49-12.7A25.29,25.29,0,0,1,42.36,51c-3.19,1-9.82,2.18-10.73,5,0,0,4.64,12.5,4.81,14.09,1.37,13.06.34,18.9,1.72,28.18,1.17,7.9,32.51,7.9,33.68,0,1.38-9.28.35-15.12,1.72-28.18C73.73,68.52,78.37,56,78.37,56,77.46,53.17,70.83,52,67.64,51Z" fill="#b42125"/><path d="M26.27,112.07c-.42,2.73-1.37,8.09-.8,10.48s3.42,5.47,4.33,5.35,4-3,3.76-10.36c0,0,1.59,2.62,2.85,1.94s-1.48-7.75-1.94-9.57a5,5,0,0,0-5.24-3.42C26.84,107,26.5,110.59,26.27,112.07Z" fill="#895d3b"/><path d="M24.9,109.57s-2.44-14.16-.91-23c.24-1.35,1.26-3.3,3.65-2.73s5.48.84,6,2.77,1,21.37,1,21.37Z" fill="#b42125"/><path d="M83.73,112.07c.42,2.73,1.37,8.09.8,10.48S81.11,128,80.2,127.9s-4-3-3.76-10.36c0,0-1.59,2.62-2.85,1.94s1.48-7.75,1.94-9.57a5,5,0,0,1,5.24-3.42C83.16,107,83.5,110.59,83.73,112.07Z" fill="#895d3b"/><path d="M85.1,109.57s2.44-14.16.91-23c-.24-1.35-1.26-3.3-3.65-2.73s-5.48.84-6,2.77-1,21.37-1,21.37Z" fill="#b42125"/><path d="M63.07,33.13s1.81-2.39,3.8-.5-1.39,6.81-3.71,7.65S63.07,33.13,63.07,33.13Z" fill="#895d3b"/><path d="M46.28,33.37S44.4,31,42.46,33s1.6,6.77,3.94,7.54S46.28,33.37,46.28,33.37Z" fill="#895d3b"/><path d="M85.1,109.55,75.3,108s.35-15.57.84-20.22c-.48-1.66-1.77-6.49-3.1-11.42-.57,9-.06,14.29-1.2,22-1.17,7.91-32.51,7.91-33.68,0-1.13-7.67-.63-13-1.2-22-1.33,4.93-2.62,9.76-3.1,11.42.49,4.65.84,20.22.84,20.22l-9.8,1.6s-2.44-14.16-.91-23a5.54,5.54,0,0,1,.24-.85c.63-7.86,7.4-29.7,7.4-29.7.91-2.84,7.54-4,10.73-5a25.06,25.06,0,0,0,6.15-3.18c-1,7.8,6.49,12.69,6.49,12.69s7.47-4.89,6.49-12.69A25.06,25.06,0,0,0,67.64,51c3.19,1,9.82,2.19,10.73,5,0,0,6.77,21.84,7.4,29.7a5.54,5.54,0,0,1,.24.85C87.54,95.39,85.1,109.55,85.1,109.55Z" fill="#79589f"/><g opacity="0.47" style="mix-blend-mode:hard-light"><g clip-path="url(#clip-path)"><line x1="120.49" y1="122.65" x2="-4.41" y2="122.65" fill="none" stroke="#fff" stroke-miterlimit="10" stroke-width="0.49"/><line x1="120.49" y1="120.17" x2="-4.41" y2="120.17" fill="none" stroke="#fff" stroke-miterlimit="10" stroke-width="0.49"/><line x1="120.49" y1="85.53" x2="-4.41" y2="85.53" fill="none" stroke="#fff" stroke-miterlimit="10" stroke-width="0.49"/><line x1="120.49" y1="80.58" x2="-4.41" y2="80.58" fill="none" stroke="#fff" stroke-miterlimit="10" stroke-width="0.49"/><line x1="120.49" y1="105.32" x2="-4.41" y2="105.32" fill="none" stroke="#fff" stroke-miterlimit="10" stroke-width="0.49"/><line x1="120.49" y1="100.38" x2="-4.41" y2="100.38" fill="none" stroke="#fff" stroke-miterlimit="10" stroke-width="0.49"/><line x1="120.49" y1="65.73" x2="-4.41" y2="65.73" fill="none" stroke="#fff" stroke-miterlimit="10" stroke-width="0.49"/><line x1="120.49" y1="60.78" x2="-4.41" y2="60.78" fill="none" stroke="#fff" stroke-miterlimit="10" stroke-width="0.49"/><line x1="120.49" y1="115.22" x2="-4.41" y2="115.22" fill="none" stroke="#fff" stroke-miterlimit="10" stroke-width="0.49"/><line x1="120.49" y1="110.27" x2="-4.41" y2="110.27" fill="none" stroke="#fff" stroke-miterlimit="10" stroke-width="0.49"/><line x1="120.49" y1="75.63" x2="-4.41" y2="75.63" fill="none" stroke="#fff" stroke-miterlimit="10" stroke-width="0.49"/><line x1="120.49" y1="70.68" x2="-4.41" y2="70.68" fill="none" stroke="#fff" stroke-miterlimit="10" stroke-width="0.49"/><line x1="120.49" y1="95.43" x2="-4.41" y2="95.43" fill="none" stroke="#fff" stroke-miterlimit="10" stroke-width="0.49"/><line x1="120.49" y1="90.48" x2="-4.41" y2="90.48" fill="none" stroke="#fff" stroke-miterlimit="10" stroke-width="0.49"/><line x1="120.49" y1="55.83" x2="-4.41" y2="55.83" fill="none" stroke="#fff" stroke-miterlimit="10" stroke-width="0.49"/><line x1="120.49" y1="50.88" x2="-4.41" y2="50.88" fill="none" stroke="#fff" stroke-miterlimit="10" stroke-width="0.49"/><line x1="120.49" y1="117.7" x2="-4.41" y2="117.7" fill="none" stroke="#fff" stroke-miterlimit="10" stroke-width="0.49"/><line x1="120.49" y1="112.75" x2="-4.41" y2="112.75" fill="none" stroke="#fff" stroke-miterlimit="10" stroke-width="0.49"/><line x1="120.49" y1="78.1" x2="-4.41" y2="78.1" fill="none" stroke="#fff" stroke-miterlimit="10" stroke-width="0.49"/><line x1="120.49" y1="73.15" x2="-4.41" y2="73.15" fill="none" stroke="#fff" stroke-miterlimit="10" stroke-width="0.49"/><line x1="120.49" y1="97.9" x2="-4.41" y2="97.9" fill="none" stroke="#fff" stroke-miterlimit="10" stroke-width="0.49"/><line x1="120.49" y1="92.95" x2="-4.41" y2="92.95" fill="none" stroke="#fff" stroke-miterlimit="10" stroke-width="0.49"/><line x1="120.49" y1="58.31" x2="-4.41" y2="58.31" fill="none" stroke="#fff" stroke-miterlimit="10" stroke-width="0.49"/><line x1="120.49" y1="53.36" x2="-4.41" y2="53.36" fill="none" stroke="#fff" stroke-miterlimit="10" stroke-width="0.49"/><line x1="120.49" y1="107.8" x2="-4.41" y2="107.8" fill="none" stroke="#fff" stroke-miterlimit="10" stroke-width="0.49"/><line x1="120.49" y1="102.85" x2="-4.41" y2="102.85" fill="none" stroke="#fff" stroke-miterlimit="10" stroke-width="0.49"/><line x1="120.49" y1="68.2" x2="-4.41" y2="68.2" fill="none" stroke="#fff" stroke-miterlimit="10" stroke-width="0.49"/><line x1="120.49" y1="63.26" x2="-4.41" y2="63.26" fill="none" stroke="#fff" stroke-miterlimit="10" stroke-width="0.49"/><line x1="120.49" y1="88" x2="-4.41" y2="88" fill="none" stroke="#fff" stroke-miterlimit="10" stroke-width="0.49"/><line x1="120.49" y1="83.05" x2="-4.41" y2="83.05" fill="none" stroke="#fff" stroke-miterlimit="10" stroke-width="0.49"/><line x1="120.49" y1="48.41" x2="-4.41" y2="48.41" fill="none" stroke="#fff" stroke-miterlimit="10" stroke-width="0.49"/><line x1="120.49" y1="45.93" x2="-4.41" y2="45.93" fill="none" stroke="#fff" stroke-miterlimit="10" stroke-width="0.49"/></g></g><path d="M48.51,47.8,45,49.87l.34,5.92s7.14-1.92,8.51.13Z" fill="#d1e3f4"/><path d="M61.46,47.8,65,49.87l-.34,5.92s-7.35-1.92-8.72.13Z" fill="#d1e3f4"/><path d="M86.46,109l-1.82,6.15a21.15,21.15,0,0,1-11-3.08l.91-6.94S78,108.54,86.46,109Z" fill="#d1e3f4"/><path d="M23.54,109l1.82,6.15a21.15,21.15,0,0,0,11-3.08l-.91-6.94S32,108.54,23.54,109Z" fill="#d1e3f4"/></g></g></svg>