<svg xmlns="http://www.w3.org/2000/svg" width="110" height="194" viewBox="0 0 110 194"><title>landian-08-hair</title><g id="hair"><path d="M67.31,36a14.94,14.94,0,0,0-.85,4.9s-2.17.22-4.67-6.07c-2.31-3.9-13.49-1.46-15.31-3.54a24.19,24.19,0,0,1-.21,3.39c-.12.9.15,2.67,0,3.42-.1.41-.42-1-.73.21a12.2,12.2,0,0,1-1,2.81s-2.43-7.6-1.9-9.34,1.81-1.82,3.71-2.34c0,0,2.38-7.68,12.72-5.79a8.93,8.93,0,0,1-.87,1.92c2.69-.13,6.43,3.4,9.12,1.61,0,0,1,1.71-.47,6.44,0,.05,1.83-.32,1.81-.28C68.31,34.34,67.69,34.84,67.31,36Z"/></g></svg>