<svg xmlns="http://www.w3.org/2000/svg" width="110" height="194" viewBox="0 0 110 194"><title>landian-32-face</title><g id="face"><path d="M67.68,34c.12,8.38-6.29,15.27-11.24,15.35s-11.56-6.63-11.69-15S44.45,18.54,56,18.44C69.21,18.33,67.55,25.61,67.68,34Z" fill="#895d3b"/><ellipse cx="51.55" cy="33.3" rx="1.24" ry="2.01" transform="translate(-0.49 0.77) rotate(-0.85)" fill="#0f0b0c"/><ellipse cx="61.47" cy="33.15" rx="1.24" ry="2.01" transform="translate(-0.48 0.91) rotate(-0.85)" fill="#0f0b0c"/><path d="M60.8,41.75l-4.38,1.1-4.59-1a32.08,32.08,0,0,1,4.44-.45A25.22,25.22,0,0,1,60.8,41.75Z" fill="#724830"/><path d="M51.83,41.9a16.94,16.94,0,0,0,9-.15,5.13,5.13,0,0,1-4.42,2.52A4.71,4.71,0,0,1,51.83,41.9Z" fill="#664027"/></g></svg>