<svg xmlns="http://www.w3.org/2000/svg" xmlns:xlink="http://www.w3.org/1999/xlink" width="110" height="194" viewBox="0 0 110 194"><defs><linearGradient id="linear-gradient" x1="-5552.87" y1="151.94" x2="-5552.87" y2="174.94" gradientTransform="matrix(-1, 0, 0, 1, -5490.77, 0)" gradientUnits="userSpaceOnUse"><stop offset="0" stop-color="#698293"/><stop offset="0.26" stop-color="#657d8e"/><stop offset="0.58" stop-color="#59707f"/><stop offset="0.92" stop-color="#455b67"/><stop offset="1" stop-color="#405561"/></linearGradient><linearGradient id="linear-gradient-2" x1="291.57" y1="151.83" x2="291.57" y2="174.83" gradientTransform="translate(-245)" xlink:href="#linear-gradient"/></defs><title>landian-06</title><g id="landians"><path d="M40.27,56.1l2.65,14.05s1,1.91,12.6,2.43c16.63.73,13.29-14.66,13.29-14.66S55.27,40.78,53.14,39.06C45.76,41,40.27,53.89,40.27,56.1Z" fill="#b68049"/><path d="M67,67.5c4.79,2.61,7.17,17.87,7.84,20,.87,2.84,2.4,8.5,0,9.59S70.72,94.52,69,90.38s-5.67-11.92-6.54-15C61.35,71.42,62.22,64.88,67,67.5Z" fill="#e5e5e4"/><path d="M42.49,67.52c-4.81,2.58-7.29,17.82-8,20-.89,2.83-2.45,8.48-.06,9.59s4.16-2.59,5.93-6.72,5.74-11.88,6.63-15C48.13,71.47,47.3,64.93,42.49,67.52Z" fill="#e5e5e4"/><path d="M68.73,148.86s3.91-17.39,2.39-33.32c-1.44-15-15-9.87-15,9.8,0,12.42.38,22.21.36,24.39C56.47,157.79,64.37,160,68.73,148.86Z" fill="#698293"/><path d="M62.86,175.6s-1.67,7,.19,9S72,193,72,193l-16.29-3.67s.66-9.15.66-12.85S62.86,175.6,62.86,175.6Z" fill="#e4b88b"/><path d="M62.55,178.42s4.72-19,6.11-28.23c1.24-8.23-10.45-7.84-11.48-2.7-1.3,6.54-1.65,8.58-1.74,18.52a90.07,90.07,0,0,0,.78,12.07C56.28,178.85,60.84,179.11,62.55,178.42Z" fill="url(#linear-gradient)"/><path d="M55.74,184.83l.25-4.1,6.59.68s.94,3.51,2,4.62c2,2,4.06,3.74,4.06,3.74s5.6,2,5.76,3c0,1.23-4.36,1.35-9.7,1.24-1.91,0-3.64-3.37-5.29-3.45-.3,0-.2,3.38-.48,3.41a14.84,14.84,0,0,1-2.79-.09S54.8,188.17,55.74,184.83Z" fill="#603917"/><path d="M39.92,151.06S36,133.67,37.53,117.73c1.43-15,14.95-9.13,14.95,9.8,0,12.42-.37,22.22-.36,24.4C52.18,160,44.28,162.17,39.92,151.06Z" fill="#698293"/><path d="M45.75,175.49s1.67,7-.2,9-8.9,8.39-8.9,8.39l16.29-3.67s-.66-9.15-.66-12.86S45.75,175.49,45.75,175.49Z" fill="#e4b88b"/><path d="M53,184.73l-.26-4.1-6.58.68s-.95,3.51-2.06,4.62c-2,2-4.06,3.74-4.06,3.74s-5.59,2-5.76,3c0,1.23,4.37,1.34,9.7,1.23,1.91,0,3.65-3.36,5.29-3.44.3,0,.2,3.37.48,3.4a14.44,14.44,0,0,0,2.8-.08S53.9,188.07,53,184.73Z" fill="#603917"/><path d="M46.12,178.32s-4.72-19-6.11-28.24c-1.25-8.23,10.44-7.83,11.47-2.69,1.31,6.53,1.65,8.58,1.74,18.52A90.39,90.39,0,0,1,52.44,178C52.38,178.74,47.83,179,46.12,178.32Z" fill="#698293"/><path d="M46.12,178.32s-4.72-19-6.11-28.24c-1.25-8.23,10.44-7.83,11.47-2.69,1.31,6.53,1.65,8.58,1.74,18.52A90.39,90.39,0,0,1,52.44,178C52.38,178.74,47.83,179,46.12,178.32Z" fill="url(#linear-gradient-2)"/><path d="M50.75,58.33s.37,6.15-2.58,7.75c-.65.36,3.13,26.82,6.58,27.05,2.45.16,4.74-21.44,6.22-26.71,0,0-3-1.3-2.32-7.37C58.93,56.44,50.75,58.33,50.75,58.33Z" fill="#e1c3a5"/><path d="M41.39,101.61A141.38,141.38,0,0,0,38,116.18c-.17.84,7.12,5.27,14.36,5.9a24.41,24.41,0,0,0,4.36,0c7.29-.32,14.51-5.41,14.37-6.42a50.69,50.69,0,0,0-3.84-13.91Z" fill="#698293"/><path d="M54.79,73.25l1.7-4.66,4.4-2.84s5,.77,5.23,1.64c.21,2.62,1.5,7.17,0,12-.52,1.68-.1,7.72,1.16,14.68,1.29,7.15,3.2,14.79,3.89,17.83L57.69,113s-1.17-3.34-3-10.13L52.29,113l-14-1.09c1.2-3,2.93-10.48,4.11-18.21,1-6.59.91-12.76.42-14.34-1.5-4.83-.22-8.87,0-11.49.22-.87,5.48-2.32,5.48-2.32l4.3,3Z" fill="#e5e5e4"/><path d="M58.47,71.2l4.7-5.39s3.24.29,3.46,1.16a92.9,92.9,0,0,1-.55,12.26c-.28,3.56,1.37,15.53,2.39,19.84,0,0-.77,4.79-11.71,5.22l-3.77.09c-2.05-.18-12.54-.24-11.71-5.22.34-2,.51-3.32.85-5.56a132.4,132.4,0,0,0,1.63-14.11c-.26-4.79-.7-9.4-.48-12,.22-.88,3.56-1.5,3.56-1.5l4.36,5.39a5.37,5.37,0,0,0,3.55,1.28A4.81,4.81,0,0,0,58.47,71.2Z" fill="#733ec6"/><path d="M52.61,68.59,51.36,69.9l-2,2.28-3.53-5.84a11.75,11.75,0,0,1,2.7-3.72Z" fill="#f1f1f1"/><path d="M56.46,68.59l1.6,1.79,1.67,1.8,3.53-5.84a12,12,0,0,0-2.7-3.72Z" fill="#f1f1f1"/><path d="M82.17,118s-2.9-12-3.14-14.85S76.54,89,73,90.25c-3.13,1.1-2,9.09.22,14.49s5.65,12.62,5.82,14.15c.41,3.63-.74,8.56-.17,8.94.73.48,1.26-.9,2-3.14,1.09,0,3.2,4.36,5.72,5.84s.71-5.63-.39-7.12C85.31,122.23,82.72,119.57,82.17,118Z" fill="#fcdab5"/><path d="M79,103.16c-.25-2.85-2.49-14.14-6-12.91-3.13,1.1-2,9.09.22,14.49" fill="#e5e5e4"/><path d="M27.83,116.61s2.9-12,3.14-14.85,2.49-14.14,6-12.9c3.13,1.09,2,9.08-.22,14.48S31.11,116,30.94,117.49c-.41,3.63.74,8.56.17,8.94-.73.49-1.26-.9-2-3.14-1.09,0-3.2,4.36-5.72,5.84s-.71-5.63.39-7.12C24.69,120.83,27.28,118.17,27.83,116.61Z" fill="#fcdab5"/><path d="M30.93,102.12c0-.13,0-.25,0-.36.25-2.85,2.49-14.14,6-12.9,3.13,1.09,2,9.08-.22,14.48" fill="#e5e5e4"/></g><g id="face"><ellipse cx="54.83" cy="45.8" rx="10.74" ry="14.74" fill="#fcdab5"/><ellipse cx="49.42" cy="47.66" rx="1.26" ry="2.05" transform="translate(-0.7 0.74) rotate(-0.85)" fill="#0c0506"/><ellipse cx="59.53" cy="47.51" rx="1.26" ry="2.05" transform="translate(-0.7 0.89) rotate(-0.85)" fill="#0c0506"/><path d="M58.39,54.72l-3.51.87-3.67-.76a26.35,26.35,0,0,1,3.56-.36A20.26,20.26,0,0,1,58.39,54.72Z" fill="#ea2127"/><path d="M51.21,54.83a13.58,13.58,0,0,0,7.18-.11,4.11,4.11,0,0,1-3.54,2A3.78,3.78,0,0,1,51.21,54.83Z" fill="#ea2127"/></g><g id="hair"><path d="M41.6,70.87s.7-.22.89-.67-.12-.87-.64-1.6a4.08,4.08,0,0,1-1.54-3.14,6,6,0,0,0-.51-3.6A9.9,9.9,0,0,1,38.45,58L44,54.49a5.58,5.58,0,0,1,0,6.11,8,8,0,0,0,.16,6.78A4.56,4.56,0,0,1,44.35,70a2,2,0,0,1-1.09,1.38,3.29,3.29,0,0,0-1.28.77c-.47.54-.45,1.35.13,2.4,0,0-1.12-.12-1.41-1.76A1.69,1.69,0,0,1,41.6,70.87Z" fill="#d29653"/><path d="M54.68,35.38c-.37.28-2.37-1.42-3-.26a17.1,17.1,0,0,0-1.67,3.33c-1,3.34-1.71,5.26-2.78,10.22A9.33,9.33,0,0,1,44.46,54c-.65.67.86,2.83.21,4.19-.39.84-2.16,2.82-3.84,3.06-1.14.17-2.12-1.79-2.12-1.79C38.3,57.89,37.42,56,38,54.32c.36-1,1.71-3.56,2-5.35.23-1.42-.35-2.79,0-5,1.4-8.75,7.89-13.92,15.72-13.08C55.71,30.89,56.24,34.19,54.68,35.38Z" fill="#d29653"/><path d="M54,35.05s-1.43-2-3.27-1.81c0,0-3.2-.52-4.83,8.59,0,0-1.32,7.78-3.25,9.45a4,4,0,0,0-1.15,4.45s1,3.16.77,4c0,0-1.73,4.92,1.34,8.64,0,0-1.86-4.1-.74-7.7a4.78,4.78,0,0,0,.59-2.9,7.12,7.12,0,0,0-.72-2.14s-.63-1.56,1.58-2.91c0,0,2-.67,2.35-5,0,0,1.48-9.43,2.61-11.12.08-.13,1-2.82,2.82-2.27A4.65,4.65,0,0,1,54,35.05Z" fill="#eeba66"/><path d="M67.59,70.87s-.7-.22-.89-.67.12-.87.64-1.6a4.11,4.11,0,0,0,1.54-3.14,6,6,0,0,1,.51-3.6A9.9,9.9,0,0,0,70.74,58L65.2,54.49a5.58,5.58,0,0,0,0,6.11A8,8,0,0,1,65,67.38,4.56,4.56,0,0,0,64.84,70a2,2,0,0,0,1.09,1.38,3.29,3.29,0,0,1,1.28.77c.47.54.45,1.35-.13,2.4,0,0,1.12-.12,1.41-1.76A1.69,1.69,0,0,0,67.59,70.87Z" fill="#d29653"/><path d="M54.51,35.38c.37.28,2.37-1.42,3-.26a17.1,17.1,0,0,1,1.67,3.33c1,3.34,1.71,5.26,2.78,10.22A9.33,9.33,0,0,0,64.73,54c.65.67-.86,2.83-.22,4.19.4.84,2.17,2.82,3.85,3.06,1.14.17,2.12-1.79,2.12-1.79.41-1.54,1.29-3.45.7-5.11-.35-1-1.7-3.56-2-5.35-.23-1.42.35-2.79,0-5-1.4-8.75-7.89-13.92-15.72-13.08C53.48,30.89,53,34.19,54.51,35.38Z" fill="#d29653"/><path d="M55.21,35.05s1.44-2,3.28-1.81c0,0,3.2-.52,4.83,8.59,0,0,1.32,7.78,3.25,9.45a4,4,0,0,1,1.15,4.45s-1,3.16-.77,4c0,0,1.73,4.92-1.35,8.64,0,0,1.86-4.1.75-7.7a4.83,4.83,0,0,1-.6-2.9,7.44,7.44,0,0,1,.73-2.14s.63-1.56-1.58-2.91c0,0-2-.67-2.35-5,0,0-1.48-9.43-2.61-11.12-.09-.13-1-2.82-2.82-2.27A4.72,4.72,0,0,0,55.21,35.05Z" fill="#eeba66"/></g></svg>