<svg xmlns="http://www.w3.org/2000/svg" xmlns:xlink="http://www.w3.org/1999/xlink" width="110" height="194" viewBox="0 0 110 194"><defs><linearGradient id="linear-gradient" x1="60.82" y1="147.62" x2="60.82" y2="181.23" gradientUnits="userSpaceOnUse"><stop offset="0" stop-color="#698293"/><stop offset="0.26" stop-color="#657d8e"/><stop offset="0.58" stop-color="#59707f"/><stop offset="0.92" stop-color="#455b67"/><stop offset="1" stop-color="#405561"/></linearGradient><linearGradient id="linear-gradient-2" x1="48.11" y1="147.62" x2="48.11" y2="181.23" xlink:href="#linear-gradient"/></defs><title>landian-03-body</title><g id="landians"><path d="M67.48,70.48C72.14,73,74.45,87.84,75.1,90c.85,2.75,2.33,8.25,0,9.31s-4-2.54-5.71-6.56S63.88,81.13,63,78.1C62,74.29,62.83,67.94,67.48,70.48Z" fill="#c58b5e"/><path d="M42.35,70.49C37.67,73,35.27,87.81,34.6,89.92c-.86,2.74-2.38,8.23-.06,9.31s4-2.52,5.76-6.53,5.58-11.53,6.44-14.56C47.82,74.34,47,68,42.35,70.49Z" fill="#c58b5e"/><path d="M67.43,149.15s5.22-15.68,2.68-30.07-13.61-4.85-13.4,7.21.37,21.59.35,23.7C57,157.82,63.2,159.94,67.43,149.15Z" fill="#698293"/><path d="M63.87,177.07s-1.6,6.63.18,8.57,8.48,8,8.48,8L57,190.14s.62-8.72.62-12.24S63.87,177.07,63.87,177.07Z" fill="#c58b5e"/><path d="M57,187.45s-.28,1,6.67,1.5a7.38,7.38,0,0,0,3.84-.67s7.09,3.28,7.23,4.26c0,1.23-4,1.34-8.78,1.24-1.72,0-9.72-.11-9.72-.11S54.87,190.07,57,187.45Z"/><path d="M69.49,189.17s-2.89-2.67-3.95-3A1.49,1.49,0,0,0,63.82,188c.33.78,2.22,2,2.22,2Z"/><path d="M70.83,189.84s4.33.67,4.55,3.89c-4.33.67-19.45-.11-19.45-.11s-1.67-4.12,1.11-6.17a14.28,14.28,0,0,1,2,4.61l11,.22A3.77,3.77,0,0,1,70.83,189.84Z"/><path d="M64.82,189.62s1.11-2.12,2.23-2.67l1,.89Z" fill="#cbcbca"/><path d="M66.27,191a7.72,7.72,0,0,1,2.22-2.67l1,.89Z" fill="#cbcbca"/><path d="M65.24,179.8s1.12-22.57.92-28-7.91-5.6-8.88-.71c-1.25,6.23-2.22,8.47-1.66,17.65.36,6,.53,10.07.63,11.34C56.31,180.85,63.84,182.34,65.24,179.8Z" fill="url(#linear-gradient)"/><path d="M41.81,149.89s-6-15.87-3.46-30.26S52.74,115,52.53,127s-.37,21.58-.35,23.7C52.23,158.57,46,160.68,41.81,149.89Z" fill="#698293"/><path d="M45.37,177.07s1.6,6.63-.18,8.57-8.48,8-8.48,8l15.52-3.5s-.63-8.72-.63-12.24S45.37,177.07,45.37,177.07Z" fill="#c58b5e"/><path d="M51.84,187.45s.28,1-6.67,1.5a7.32,7.32,0,0,1-3.83-.67s-7.09,3.28-7.24,4.26c0,1.23,3.95,1.34,8.78,1.24,1.73,0,9.72-.11,9.72-.11S54,190.07,51.84,187.45Z"/><path d="M39.39,189.17s2.89-2.67,4-3A1.48,1.48,0,0,1,45.06,188c-.33.78-2.22,2-2.22,2Z"/><path d="M38.06,189.84s-4.34.67-4.56,3.89c4.34.67,19.46-.11,19.46-.11s1.66-4.12-1.12-6.17a14.52,14.52,0,0,0-2,4.61l-11,.22A3.77,3.77,0,0,0,38.06,189.84Z"/><path d="M44.06,189.62S43,187.5,41.84,187l-1,.89Z" fill="#cbcbca"/><path d="M42.62,191a7.79,7.79,0,0,0-2.23-2.67l-1,.89Z" fill="#cbcbca"/><path d="M43.69,179.8s-1.12-22.57-.91-28,7.9-5.6,8.88-.71c1.24,6.23,2.21,8.47,1.66,17.65-.36,6-.54,10.07-.64,11.34C52.62,180.85,45.09,182.34,43.69,179.8Z" fill="url(#linear-gradient-2)"/><path d="M50.71,61.33s1.85,5.55-1.4,7.13c-.09.05-1.39.54-1.36,1.46.15,5.63,3.76,25,6.65,25.21,2.17.14,5.55-18.78,6.86-25.81.12-.68-.34-.75-1.63-.94,0,0-2.14-.3-1.44-6.35C58.68,59.49,50.71,61.33,50.71,61.33Z" fill="#b7784b"/><path d="M41.85,106.62s-1.64,2.37-3.2,9.58a26.88,26.88,0,0,0-.67,5.28c0,1.21.11,1.33.66,1.92,5.19,5.45,25.54,6.1,30.56,0a3,3,0,0,0,.84-2.71,42.62,42.62,0,0,0-.69-5.1,41.37,41.37,0,0,0-2.71-9.2Z" fill="#698293"/><path d="M82.91,121.84s-2.82-11.64-3.06-14.42S77.44,93.68,74,94.89c-3,1.06-2,8.82.21,14.06s5.48,12.26,5.65,13.75c.4,3.52-.72,8.31-.16,8.68.71.47,1.22-.87,1.9-3,1.06,0,3.11,4.24,5.55,5.68s.69-5.47-.38-6.92C86,125.94,83.44,123.36,82.91,121.84Z" fill="#c58b5e"/><path d="M27.09,121.54s2.82-11.64,3.06-14.42S32.56,93.38,36,94.58c3.05,1.07,2,8.83-.21,14.07s-5.48,12.26-5.65,13.75c-.4,3.52.72,8.31.16,8.68-.71.47-1.22-.87-1.9-3.05-1.06,0-3.11,4.24-5.55,5.68s-.69-5.47.38-6.92C24.05,125.64,26.56,123.06,27.09,121.54Z" fill="#c58b5e"/><path d="M41.08,47.93s.81,7.11,3.09,10.62c0,.07,1.31,1.74,10.31,2.67a27,27,0,0,0,9.78-2c1.12-.48,2.32-5.17,3-6.68l.27-2.36s-18.38-9.08-26.61-7A17.4,17.4,0,0,0,41.08,47.93Z" fill="#6c4b29"/><path d="M45.07,49.63s-1.67-2.07-3.38-.34,1.41,6,3.48,6.68S45.07,49.63,45.07,49.63Z" fill="#c58b5e"/><path d="M63.38,76.88H59.57a.48.48,0,0,0-.47.48v4.33a.48.48,0,0,0,.47.48h3.81a.49.49,0,0,0,.48-.48V77.36a.49.49,0,0,0-.48-.48m.21,4.81a.21.21,0,0,1-.21.21H59.57a.21.21,0,0,1-.21-.21V77.36a.21.21,0,0,1,.21-.21h3.81a.21.21,0,0,1,.21.21Z" fill="#fff"/><polygon points="60.29 81.38 60.88 80.85 60.29 80.32 60.29 81.38" fill="#fff"/><path d="M62.44,79.23a.86.86,0,0,0-.63-.23,3.18,3.18,0,0,0-1,.18v-1.5h-.53V80l.37-.17a3.36,3.36,0,0,1,1.15-.28c.27,0,.33.15.33.28v1.57h.53V79.79a.88.88,0,0,0-.23-.56" fill="#fff"/><path d="M61.74,78.53h.53a1.55,1.55,0,0,0,.4-.85h-.53a2.06,2.06,0,0,1-.4.85" fill="#fff"/><path d="M70.23,73.08a93.41,93.41,0,0,1,5.3,14.78s-3.39,3.84-8,2.88c0,0-2.44-8.51-2.21-11.52S66.36,72.24,70.23,73.08Z" fill="#410099"/><path d="M39.8,73.08a92.84,92.84,0,0,0-5.29,14.78s3.39,3.84,8,2.88c0,0,2.43-8.51,2.21-11.52S43.68,72.24,39.8,73.08Z" fill="#410099"/><path d="M67.84,83.15c.23-1.11,2.39-10.07,2.39-10.07-2.71-4-4.55-3-6.82-3.74s-4.31-1.49-4.31-1.49.77,5.1-4.53,5.1-4.51-5-4.51-5-1.92.66-4.19,1.39-4.82.12-6.6,4.92c0,0,2,7.77,2.17,8.89,1.8,10.8-.75,17.24-2.16,28-.36,2.74,14.1,2.64,14.1,2.64s15.64.28,15.12-2.64C66.87,101.81,65.14,96.11,67.84,83.15Z" fill="#410099"/><path d="M58,81H51a.87.87,0,0,0-.87.88v8a.87.87,0,0,0,.87.88h7a.87.87,0,0,0,.87-.88v-8A.87.87,0,0,0,58,81m.39,8.84a.39.39,0,0,1-.39.39H51a.38.38,0,0,1-.38-.39v-8a.38.38,0,0,1,.38-.39h7a.39.39,0,0,1,.39.39Z" fill="#fff"/><polygon points="52.3 89.24 53.39 88.27 52.3 87.3 52.3 89.24" fill="#fff"/><path d="M56.24,85.3a1.53,1.53,0,0,0-1.15-.43,6,6,0,0,0-1.82.33V82.44h-1v4.21l.68-.31a6.23,6.23,0,0,1,2.11-.5c.49,0,.6.27.61.5v2.9h1V86.33a1.53,1.53,0,0,0-.43-1" fill="#fff"/><path d="M55,84h1a2.89,2.89,0,0,0,.73-1.58h-1A3.84,3.84,0,0,1,55,84" fill="#fff"/></g></svg>