<svg xmlns="http://www.w3.org/2000/svg" width="110" height="194" viewBox="0 0 110 194"><title>landian-25-face</title><g id="face"><ellipse cx="56.75" cy="36.13" rx="11.81" ry="15.85" transform="translate(-0.5 0.8) rotate(-0.81)" fill="#f1b186"/><ellipse cx="51.95" cy="36.23" rx="1.28" ry="2.1" transform="translate(-0.51 0.75) rotate(-0.82)" fill="#0c0506"/><ellipse cx="62.16" cy="36.07" rx="1.28" ry="2.1" transform="translate(-0.51 0.9) rotate(-0.82)" fill="#0c0506"/><path d="M61.44,44.51,57.06,45.6l-4.59-.94a32.08,32.08,0,0,1,4.44-.45A24.18,24.18,0,0,1,61.44,44.51Z" fill="#dd9d72"/><path d="M52.47,44.66a16.94,16.94,0,0,0,9-.15A5.15,5.15,0,0,1,57,47,4.75,4.75,0,0,1,52.47,44.66Z" fill="#bf8156"/></g></svg>