<svg xmlns="http://www.w3.org/2000/svg" xmlns:xlink="http://www.w3.org/1999/xlink" width="110" height="194" viewBox="0 0 110 194"><defs><clipPath id="clip-path"><path d="M89.31,87.81c-2.61-9.45-9.66-32.07-13.94-32.07-8.56,0-4.71,14.67-3.46,17.26s5.17,8.18,7.68,15.81C80.36,91.16,91.59,96.08,89.31,87.81Z" fill="none"/></clipPath><linearGradient id="linear-gradient" x1="44.82" y1="142.14" x2="45.28" y2="183.86" gradientUnits="userSpaceOnUse"><stop offset="0" stop-color="#698293"/><stop offset="0.26" stop-color="#657d8e"/><stop offset="0.58" stop-color="#59707f"/><stop offset="0.92" stop-color="#455b67"/><stop offset="1" stop-color="#405561"/></linearGradient><linearGradient id="linear-gradient-2" x1="65.6" y1="142.76" x2="60.26" y2="192.37" xlink:href="#linear-gradient"/><clipPath id="clip-path-2"><rect x="55.1" y="101.12" width="1.1" height="9.23" fill="none"/></clipPath></defs><title>landian-24-body</title><g id="landians"><path d="M41.11,53.59s-.93-6.57,15.63-5l-.18,5.37Z" fill="#79589f"/><g clip-path="url(#clip-path)"><path d="M82.68,61.61a.6.6,0,0,0,.08.08l-.08-.07Z" fill="#003660"/><polygon points="82.92 61.84 82.92 61.84 82.92 61.84 82.92 61.84" fill="#003660"/><polygon points="82.68 61.61 82.68 61.61 82.68 61.61 82.68 61.61" fill="#003660"/><path d="M82.75,62.4a3.74,3.74,0,0,0,.16-.52v0C82.86,62.06,82.81,62.23,82.75,62.4Z" fill="#003660"/><path d="M78.45,61.18A3.34,3.34,0,0,1,81.23,61l.06-.07a3.43,3.43,0,0,0-.57-.17,2.92,2.92,0,0,0-.94-.07,3.51,3.51,0,0,0-1.39.4h0a.56.56,0,0,0,0,.08,2.43,2.43,0,0,0-.09.33,3.18,3.18,0,0,0-.06,1.15,3.23,3.23,0,0,0,.3,1,2.59,2.59,0,0,0,.17.33l.06-.07A3.18,3.18,0,0,1,78.45,61.18Z" fill="none"/><path d="M82.64,61.91a4.83,4.83,0,0,1-.8,1.69.58.58,0,0,0-.9-.12h-.1s0,0,0-.1c.28-.39.15-.45,0-.44l-.1.11c.21,0,0,.19-.07.27-.17.24-.12.34,0,.37h.16c.59-.09.49.49.32.64a5,5,0,0,1-1.32.85c-.18-.16-.35-.31-.49-.46l-.06.07.37.34.18.14h0l.13-.05L80.4,65a5.14,5.14,0,0,0,1.29-1.09,4.91,4.91,0,0,0,1-1.83,1.8,1.8,0,0,0,0-.19v0l0,0-.11-.09h0a4.59,4.59,0,0,0-.41-.32l0,.07A4.32,4.32,0,0,1,82.64,61.91Z" fill="none"/><path d="M80.71,63.1l0,0,.1-.11h0Z" fill="#003660"/><path d="M82.46,61.09l-.09,0L82,60.89l-.22-.34-.06-.08-.06.07-.25.3a3.64,3.64,0,0,0-1-.26,3.58,3.58,0,0,0-1,0,3.66,3.66,0,0,0-1.13.4h0v0a2,2,0,0,0-.13.38,3,3,0,0,0-.11.7,3.49,3.49,0,0,0,.25,1.47,3.91,3.91,0,0,0,.3.57l-.24.28-.07.07.09,0,.37.16.22.34.06.08.06-.07.11-.14.37.35.22.18,0,0h0a4.25,4.25,0,0,0,.65-.33A5.46,5.46,0,0,0,81.82,64a5,5,0,0,0,.93-1.62c.06-.17.11-.34.16-.52v0h0l0,0-.12-.11a.6.6,0,0,1-.08-.08h0c-.11-.08-.24-.19-.41-.3l.12-.14Z" fill="#0c3b60"/><polygon points="78.72 62.99 78.53 62.43 79.11 62.45 79.11 62.45 79.11 62.45 79.1 62.58 78.91 62.68 78.88 62.97 78.72 62.99 78.72 62.99 78.72 62.99" fill="#0c3b60"/><path d="M78.67,61.86l-.06,0a.24.24,0,0,1-.06-.11.17.17,0,0,1,0-.13s0,0,.06,0l.08,0h0v0a.11.11,0,0,1,0-.11.15.15,0,0,1,.07,0,.11.11,0,0,1,.08,0h0v0a.21.21,0,0,1,0-.07.19.19,0,0,1,.28,0,.18.18,0,0,1,.06.13.18.18,0,0,1,0,.14l0,0h0a.2.2,0,0,1,0,.07.09.09,0,0,1,0,.07.1.1,0,0,1,0,0h0v0a.29.29,0,0,1,0,.09.36.36,0,0,1,0,.09l-.08,0H79v0a0,0,0,0,1,0,0,.15.15,0,0,1-.2,0l0-.06a.22.22,0,0,1,0-.08v0Z" fill="#0c3b60"/><polygon points="80.13 61.22 80.11 61.35 79.89 61.4 79.84 61.59 79.74 61.64 79.74 61.64 79.74 61.64 79.61 61.18 80.13 61.22 80.13 61.22 80.13 61.22" fill="#0c3b60"/><polygon points="79.34 62.31 79.34 62.31 79.32 62.03 79.64 62.04 79.64 62.04 79.64 62.04 79.62 62.14 79.52 62.19 79.47 62.3 79.34 62.31 79.34 62.31 79.34 62.31" fill="#0c3b60"/><path d="M78.5,63.7a3.23,3.23,0,0,1-.3-1,3.18,3.18,0,0,1,.06-1.15,2.43,2.43,0,0,1,.09-.33.56.56,0,0,1,0-.08h0a3.51,3.51,0,0,1,1.39-.4,2.92,2.92,0,0,1,.94.07,3.43,3.43,0,0,1,.57.17l-.06.07a3.34,3.34,0,0,0-2.78.14A3.18,3.18,0,0,0,78.73,64l-.06.07A2.59,2.59,0,0,1,78.5,63.7Z" fill="#0c3b60"/><polygon points="80.14 61.22 80.14 61.22 80.12 61.36 80.14 61.22" fill="#fff"/><polygon points="78.97 64.05 78.96 64.05 78.95 64.04 78.95 64.05 78.94 64.05 78.94 64.06 78.93 64.06 78.92 64.08 78.88 64.12 78.85 64.16 78.84 64.17 78.81 64.2 78.78 64.25 78.78 64.25 78.75 64.28 78.74 64.29 78.71 64.33 78.7 64.33 78.69 64.35 78.68 64.36 78.67 64.37 78.67 64.38 78.67 64.38 78.68 64.39 78.69 64.4 78.71 64.41 78.72 64.42 78.73 64.44 78.74 64.44 78.75 64.44 78.75 64.45 78.76 64.45 78.76 64.45 78.77 64.44 78.77 64.44 78.78 64.43 78.79 64.42 78.8 64.41 78.8 64.4 78.82 64.39 78.83 64.38 78.84 64.36 78.85 64.35 78.85 64.34 78.86 64.35 78.87 64.35 78.9 64.38 78.94 64.42 78.95 64.42 78.98 64.45 78.99 64.45 79.02 64.48 79.03 64.49 79.06 64.52 79.1 64.55 79.11 64.56 79.13 64.58 79.14 64.59 79.15 64.59 79.15 64.59 79.16 64.59 79.18 64.56 79.19 64.55 79.21 64.53 79.22 64.52 79.23 64.51 79.24 64.5 79.24 64.49 79.24 64.48 79.24 64.48 79.23 64.47 79.2 64.45 79.19 64.45 79.16 64.42 79.11 64.38 79.08 64.35 79.07 64.34 79.04 64.31 79.03 64.3 79 64.28 78.99 64.27 78.96 64.24 78.95 64.23 78.95 64.23 78.96 64.22 78.96 64.22 78.97 64.21 78.98 64.2 78.99 64.19 79.01 64.16 79.01 64.16 79.03 64.14 79.04 64.13 79.04 64.13 79.04 64.12 79.04 64.11 79.03 64.11 79.03 64.1 79.02 64.1 79 64.08 79 64.08 78.98 64.06 78.97 64.05 78.97 64.05" fill="#fff"/><path d="M79.68,64h-.2v0h0v0h-.28l0,0,0,0h0l0,0-.06.06,0,0h0v0h0l0,0h0l0,0h0l0,0h0l0,0h0l0,0h0l0,0h0l0,0h0l0,0h0v0h0l0,0h0l0,0,0,0h0l0,0h0l0,0h.24l0,0h0l0,0,0,0h0Zm-.33-.07h0l0,0h0l0,0h0l0,0h0l0,0h0l0,0h.1Z" fill="#fff"/><path d="M80,63.47H80l0,0h-.15l0,0h-.17l0,0,0,0,0,0h0l0,0h0l0,0h0l0,0h0l0,.05,0,0h0v0h0l0,0h0l0,0h0v0h0v0h0l0,0h0l0,0h0l0-.05h0l0,0h0l0,0,0,0h0l0,0h0l.06,0h0l0,0,0,0h0Zm-.26.07h0l0,0,0,0h0l0,0h0l0-.05h0l0,0h0l0,0h0Z" fill="#fff"/><polygon points="80.08 63.19 80.05 63.16 80.04 63.16 80.01 63.13 80 63.12 79.97 63.1 79.97 63.09 79.94 63.07 79.88 63.02 79.87 63.01 79.86 63 79.85 63 79.85 63 79.84 63 79.81 63.03 79.79 63.06 79.78 63.07 79.77 63.08 79.77 63.09 79.76 63.09 79.76 63.1 79.76 63.11 79.76 63.11 79.79 63.14 79.84 63.18 79.87 63.2 79.88 63.21 79.91 63.23 79.95 63.27 79.98 63.3 79.99 63.31 80.02 63.33 80.03 63.34 80.06 63.36 80.07 63.37 80.1 63.4 80.11 63.4 80.11 63.41 80.12 63.42 80.14 63.43 80.14 63.43 80.15 63.43 80.15 63.43 80.17 63.4 80.2 63.37 80.23 63.34 80.23 63.34 80.24 63.33 80.23 63.33 80.23 63.32 80.2 63.29 80.19 63.29 80.16 63.26 80.16 63.25 80.12 63.23 80.08 63.19" fill="#fff"/><polygon points="80.51 62.91 80.48 62.88 80.47 62.88 80.47 62.88 80.46 62.88 80.45 62.88 80.45 62.89 80.44 62.9 80.43 62.92 80.42 62.93 80.35 63.01 80.35 63.02 80.33 63.03 80.32 63.05 80.31 63.06 80.31 63.06 80.3 63.06 80.3 63.06 80.29 63.05 80.22 62.99 80.22 62.98 80.18 62.95 80.17 62.95 80.14 62.92 80.13 62.91 80.1 62.89 80.1 62.88 80.06 62.85 80.02 62.81 80.01 62.81 80 62.81 80 62.82 79.97 62.86 79.96 62.87 79.94 62.89 79.93 62.9 79.93 62.91 79.92 62.91 79.92 62.92 79.92 62.92 79.93 62.93 79.93 62.93 79.94 62.94 79.96 62.95 80 62.99 80.03 63.02 80.04 63.02 80.11 63.08 80.12 63.09 80.18 63.14 80.19 63.15 80.22 63.18 80.23 63.18 80.26 63.21 80.27 63.21 80.28 63.23 80.29 63.24 80.3 63.25 80.31 63.25 80.31 63.24 80.32 63.24 80.32 63.23 80.33 63.22 80.35 63.2 80.38 63.16 80.41 63.13 80.45 63.08 80.49 63.04 80.54 62.98 80.55 62.97 80.55 62.97 80.55 62.96 80.56 62.96 80.55 62.95 80.55 62.94 80.54 62.94 80.54 62.93 80.52 62.92 80.51 62.91" fill="#fff"/><polygon points="80.65 62.3 80.62 62.27 80.61 62.27 80.58 62.24 80.57 62.24 80.55 62.22 80.54 62.21 80.53 62.2 80.53 62.21 80.52 62.21 80.52 62.22 80.51 62.23 80.49 62.25 80.48 62.26 80.45 62.29 80.45 62.3 80.44 62.3 80.44 62.31 80.45 62.32 80.49 62.35 80.5 62.36 80.53 62.39 80.54 62.39 80.57 62.43 80.58 62.43 80.58 62.44 80.58 62.45 80.58 62.45 80.57 62.46 80.54 62.49 80.51 62.52 80.5 62.53 80.49 62.55 80.48 62.56 80.47 62.57 80.47 62.57 80.47 62.57 80.46 62.57 80.45 62.57 80.41 62.53 80.37 62.5 80.37 62.49 80.34 62.47 80.33 62.46 80.33 62.46 80.32 62.45 80.31 62.45 80.31 62.46 80.3 62.47 80.29 62.48 80.28 62.5 80.27 62.51 80.25 62.53 80.24 62.54 80.23 62.55 80.23 62.56 80.23 62.56 80.23 62.57 80.25 62.58 80.27 62.59 80.28 62.6 80.3 62.63 80.31 62.63 80.34 62.66 80.35 62.67 80.38 62.7 80.41 62.72 80.42 62.73 80.45 62.75 80.46 62.76 80.49 62.79 80.5 62.79 80.53 62.82 80.57 62.86 80.58 62.87 80.59 62.88 80.6 62.88 80.61 62.89 80.61 62.89 80.62 62.88 80.62 62.88 80.63 62.88 80.63 62.87 80.65 62.84 80.66 62.83 80.68 62.81 80.69 62.8 80.7 62.8 80.7 62.79 80.7 62.78 80.7 62.77 80.68 62.76 80.66 62.74 80.65 62.73 80.62 62.7 80.61 62.7 80.57 62.67 80.56 62.66 80.56 62.65 80.56 62.65 80.57 62.64 80.6 62.61 80.64 62.57 80.64 62.56 80.66 62.54 80.67 62.52 80.68 62.52 80.68 62.52 80.69 62.53 80.73 62.56 80.73 62.56 80.77 62.6 80.78 62.6 80.81 62.63 80.82 62.64 80.83 62.64 80.84 62.63 80.85 62.62 80.87 62.59 80.88 62.58 80.9 62.55 80.91 62.55 80.91 62.54 80.91 62.53 80.91 62.52 80.9 62.52 80.89 62.51 80.88 62.5 80.87 62.49 80.83 62.46 80.8 62.44 80.8 62.43 80.77 62.4 80.76 62.4 80.73 62.37 80.72 62.36 80.69 62.34 80.69 62.33 80.66 62.31 80.65 62.3" fill="#fff"/><polygon points="81.17 62.07 81.16 62.07 81.16 62.07 81.14 62.09 81.13 62.1 81.12 62.11 81.09 62.15 81.08 62.16 81.05 62.19 81.03 62.22 81.02 62.23 80.99 62.26 80.99 62.27 80.98 62.27 80.98 62.27 80.97 62.26 80.96 62.25 80.95 62.24 80.94 62.23 80.93 62.22 80.93 62.22 80.93 62.21 80.94 62.21 80.94 62.2 80.96 62.18 80.97 62.17 81 62.13 81.03 62.09 81.04 62.08 81.07 62.06 81.08 62.05 81.08 62.04 81.08 62.03 81.08 62.03 81.07 62.02 81.06 62.01 81.04 62 81.03 61.98 81.02 61.98 81.01 61.97 81 61.97 81 61.96 80.99 61.97 80.98 61.97 80.97 61.99 80.92 62.05 80.88 62.1 80.86 62.12 80.85 62.13 80.84 62.14 80.83 62.14 80.83 62.14 80.82 62.13 80.81 62.13 80.81 62.12 80.79 62.1 80.79 62.1 80.79 62.1 80.79 62.09 80.79 62.08 80.79 62.08 80.8 62.07 80.82 62.05 80.85 62.02 80.85 62.01 80.88 61.98 80.88 61.98 80.93 61.93 80.94 61.92 80.94 61.91 80.94 61.91 80.94 61.9 80.94 61.9 80.94 61.89 80.93 61.88 80.92 61.88 80.91 61.86 80.9 61.86 80.89 61.84 80.87 61.83 80.86 61.83 80.86 61.82 80.85 61.83 80.84 61.83 80.83 61.84 80.82 61.86 80.81 61.87 80.75 61.95 80.74 61.95 80.71 61.99 80.71 62 80.68 62.03 80.67 62.04 80.64 62.07 80.61 62.1 80.61 62.11 80.6 62.12 80.6 62.12 80.6 62.13 80.61 62.13 80.64 62.16 80.65 62.16 80.66 62.18 80.67 62.19 80.68 62.2 80.71 62.22 80.72 62.23 80.75 62.26 80.8 62.29 80.82 62.32 80.83 62.33 80.86 62.35 80.87 62.36 80.9 62.38 80.91 62.39 80.94 62.42 80.94 62.42 80.95 62.43 80.96 62.44 80.97 62.45 80.98 62.45 80.98 62.45 80.99 62.45 81 62.45 81.01 62.43 81.05 62.38 81.06 62.37 81.08 62.34 81.12 62.31 81.12 62.3 81.14 62.27 81.15 62.26 81.18 62.23 81.19 62.22 81.25 62.15 81.25 62.15 81.24 62.14 81.24 62.14 81.21 62.11 81.2 62.1 81.17 62.08 81.17 62.07" fill="#fff"/><path d="M81.62,61.63h-.49l0,0,0,0,0,0h0v0h0v0h0v0h0l0,0,0,.05h0l0,0v0l0,0h0l0,0h0l0,0h0l0,0h0l0,0h0l0,0h0l0,0h0l0,0h0l0,0,0,0h0l0,0h0l.06,0h0l0,0,0,0h0Zm-.27.07h0l0,0,0,0h0l0,0h0l0,0h0l0,0h0l0,0Z" fill="#fff"/><path d="M81.84,61.06h-.31v0h0l0,0h0l0,0h0l0,0h0l0,0h0l0,0,0,0h0l0,0h0l0,0h0v0h0l0,0h0l0,0h0v0h0v0h0l0,0h0l0,0h0v0l0,0h0v0h0v0h0l0,0h0v0h0v0h0v0h0v0h0v0h-.07Zm-.09.11h0v0h0v0h0l0,.06h0v0h0l0,0h-.09v0h.22Z" fill="#fff"/><path d="M78.5,63.7a3.23,3.23,0,0,1-.3-1,3.18,3.18,0,0,1,.06-1.15,2.43,2.43,0,0,1,.09-.33.56.56,0,0,1,0-.08h0a3.51,3.51,0,0,1,1.39-.4,2.92,2.92,0,0,1,.94.07,3.43,3.43,0,0,1,.57.17L78.67,64A2.59,2.59,0,0,1,78.5,63.7Z" fill="#8ec6e7"/><path d="M82.1,61.5l.06-.07a4.59,4.59,0,0,1,.41.32h0l.11.09,0,0,0,0c0,.06,0,.12,0,.19a4.91,4.91,0,0,1-1,1.83A5.14,5.14,0,0,1,80.4,65c-.19.11-.35.19-.46.24l-.13.05h0l-.17-.14-.37-.34" fill="#4b8b40"/><path d="M78.5,63.7a3.23,3.23,0,0,1-.3-1,3.18,3.18,0,0,1,.06-1.15,2.43,2.43,0,0,1,.09-.33.56.56,0,0,1,0-.08h0a3.51,3.51,0,0,1,1.39-.4,2.92,2.92,0,0,1,.94.07,3.43,3.43,0,0,1,.57.17l-.06.07a3.34,3.34,0,0,0-2.78.14A3.18,3.18,0,0,0,78.73,64l-.06.07A2.59,2.59,0,0,1,78.5,63.7Z" fill="#fff"/><path d="M80.84,63h0c.14,0,.27.05,0,.44,0,.05,0,.09,0,.1h.1a.58.58,0,0,1,.9.12,4.83,4.83,0,0,0,.8-1.69,4.32,4.32,0,0,0-.53-.41l0-.07a4.59,4.59,0,0,1,.41.32h0l.11.09,0,0v0a1.8,1.8,0,0,1,0,.19,4.91,4.91,0,0,1-1,1.83A5.14,5.14,0,0,1,80.4,65l-.45.24-.13.05h0l-.18-.14-.37-.34.06-.07c.14.15.31.3.49.46a5,5,0,0,0,1.32-.85c.17-.15.27-.73-.32-.64h-.16c-.1,0-.15-.13,0-.37.06-.08.28-.31.07-.27h0Z" fill="#fff"/><path d="M79.34,62.3v0h.14l.05-.11.12-.06V62h0l0,.08h-.07l-.07.13Z" fill="#fff"/><polygon points="79.1 62.45 79.13 62.45 79.13 62.6 78.93 62.69 78.9 63 78.73 63.01 78.72 62.99 78.86 62.94 78.89 62.67 79.09 62.57 79.1 62.45" fill="#fff"/><polygon points="79.73 61.63 79.74 61.66 79.89 61.61 79.91 61.44 80.15 61.36 80.14 61.22 80.13 61.22 79.97 61.35 79.86 61.39 79.84 61.49 79.73 61.63" fill="#fff"/><polygon points="78.72 62.99 78.53 62.43 79.11 62.45 79.11 62.45 79.11 62.45 79.1 62.58 78.91 62.68 78.88 62.97 78.72 62.99 78.72 62.99 78.72 62.99" fill="#d0d2d3"/><polygon points="80.13 61.22 80.11 61.35 79.89 61.4 79.84 61.59 79.74 61.64 79.74 61.64 79.74 61.64 79.61 61.18 80.13 61.22 80.13 61.22 80.13 61.22" fill="#d0d2d3"/><polygon points="79.34 62.31 79.34 62.31 79.32 62.03 79.64 62.04 79.64 62.04 79.64 62.04 79.62 62.14 79.52 62.19 79.47 62.3 79.34 62.31 79.34 62.31 79.34 62.31" fill="#d0d2d3"/><path d="M79,61.25a.21.21,0,0,0,0,.07v0h0a.11.11,0,0,0-.08,0,.15.15,0,0,0-.06,0,.15.15,0,0,0,0,.11v0h0l-.08,0-.06,0a.16.16,0,0,0,0,.13.14.14,0,0,0,.06.11s0,0,.06,0h0v0a.22.22,0,0,0,0,.08l0,.06a.14.14,0,0,0,.11,0,.12.12,0,0,0,.09,0,0,0,0,0,0,0,0v0h.11l.08,0a.36.36,0,0,0,0-.09.15.15,0,0,0,0-.09v0h0a.1.1,0,0,0,0,0,.09.09,0,0,0,0-.07.07.07,0,0,0,0-.06v0h0l0,0a.19.19,0,0,0,0-.14.2.2,0,0,0-.06-.14.18.18,0,0,0-.14,0A.2.2,0,0,0,79,61.25Z" fill="#009fdc"/><polygon points="80.15 61.22 80.15 61.22 80.14 61.22 80.14 61.22 80.12 61.36 79.9 61.42 79.85 61.61 79.74 61.66 79.85 62.04 79.66 62.04 79.65 62.04 79.64 62.15 79.53 62.21 79.48 62.31 79.36 62.33 79.34 62.33 79.36 62.47 79.12 62.45 79.12 62.59 78.93 62.69 78.89 62.99 78.73 63.01 78.73 63.01 78.96 63.7 81.02 61.29 80.15 61.22" fill="#644b78"/></g><path d="M68.92,53.59s.93-6.57-15.63-5l.19,5.37Z" fill="#79589f"/><path d="M34.34,58.12s-10.16,21.07-11,28.15c-.23,2.06-.06,4.7,2.36,5.43s3.69-2.8,4-3.65,8.15-20.8,8.83-22.61,1.25-5.83.52-7.19S35.34,55.67,34.34,58.12Z" fill="#e2b68a"/><path d="M29.94,109.56s-.39-19.86-.71-21.75a4.06,4.06,0,0,0-2.95-3.61c-1.87-.68-2.82,1.13-3.1,2.41-1.68,7.6,1.47,19,1.28,22.78s-2.89,9.43-2.6,11.75,2.36,5.43,3.09,5.38,3.4-2.61,3.73-9.7c0,0,1.1,2.6,2.15,2S30.18,111.34,29.94,109.56Z" fill="#e2b68a"/><path d="M42.68,185.6s-1.23-10.46-4.8-42.22c-.78-7,13.54-8.16,13.87.89.72,20.18-1.35,46.27-1.35,46.27S49.16,185.92,42.68,185.6Z" fill="url(#linear-gradient)"/><path d="M37.83,142.56c-1.07-16-1.11-27.81-.92-36.18.05-1.94,1.16-3.53,1.41-5.1.7-4.28,7.5-6.66,11.39-4.72,2.8,1.4,7.21,11.59,6.16,14.91-2.1,6.59-4.89,22.62-4.2,31.47.23,2.94-3.71,5.84-6,5.79C43.91,148.69,38.09,146.6,37.83,142.56Z" fill="#698293"/><path d="M67.63,185.6s1.23-10.46,4.79-42.22c.79-7-13.54-8.16-13.86.89-.72,20.18,1.09,46.12,1.09,46.12S61.15,185.92,67.63,185.6Z" fill="url(#linear-gradient-2)"/><path d="M72.48,142.56c1.12-16.89.9-28.67.68-37.11a9.31,9.31,0,0,0-1-4.57C70,97.74,64.48,94.62,60.6,96.56c-2.81,1.4-7.22,11.59-6.16,14.91,2.1,6.59,4.89,22.62,4.19,31.47-.23,2.94,3.72,5.84,6,5.79C66.39,148.69,72.21,146.6,72.48,142.56Z" fill="#698293"/><path d="M76.36,58.15S86,79.45,86.69,86.54c.19,2.07,0,4.71-2.48,5.38S80.59,89,80.27,88.18,72.6,67.2,72,65.38s-1.12-5.86-.36-7.21S75.41,55.68,76.36,58.15Z" fill="#e2b68a"/><path d="M64.24,52.31c-4.59-1.53-4.81-7.22-4.81-7.22l-8.63.33s-.22,5.69-4.81,7.22L55.17,80Z" fill="#c69b7c"/><path d="M79.58,109.68S80.42,89.83,80.79,88a4,4,0,0,1,3-3.55c1.89-.64,2.8,1.19,3.06,2.48,1.49,7.64-1.91,19-1.81,22.75s2.68,9.49,2.34,11.8-2.48,5.38-3.22,5.31-3.33-2.68-3.51-9.79c0,0-1.15,2.58-2.19,2S79.3,111.45,79.58,109.68Z" fill="#e2b68a"/><path d="M46.76,34.05s-1.93-2.39-3.91-.39,1.63,6.94,4,7.73S46.76,34.05,46.76,34.05Z" fill="#e2b68a"/><path d="M64,33.8s1.86-2.45,3.9-.51-1.43,7-3.8,7.84S64,33.8,64,33.8Z" fill="#e2b68a"/><path d="M37.92,101.4a214.77,214.77,0,0,0,34.42-.12l.82,4.63L72.77,118s-19.78,5.36-35.68-.7c0,0-.78-7-.1-11.58A25.41,25.41,0,0,1,37.92,101.4Z" fill="#698293"/><path d="M37.69,102s8.62.64,14.94.72h5.94s11.11-.54,14-1.16c0,0,.6.27.78,1.43a2.25,2.25,0,0,1-.29,1.39s-2.3,1.38-14.72,2a53.45,53.45,0,0,1-6.4,0s-13.77-.27-14.93-1.73C37.05,104.6,36.88,102.67,37.69,102Z" fill="#221f1f"/><path d="M42.5,102.19l-.87,3.7a4.9,4.9,0,0,0,1.23.23l.87-3.93Z" fill="#2b3a20"/><path d="M68.31,102l.85,3.7a4.9,4.9,0,0,1-1.23.23L67.08,102Z" fill="#2b3a20"/><path d="M54.64,102.36s3.59-.19,3.93.27c0,0,.39,0,.47,1.54.06,1.19.11,2.32-.43,2.67a10.93,10.93,0,0,1-4.13-.08v-.35s2,0,3.48,0c0,0,.19-3-.35-3.51a13.06,13.06,0,0,0-3.13-.07S54.29,102.36,54.64,102.36Z" fill="#59595c"/><path d="M28.49,190c-2.44.52-1.78,3.11-1.78,3.11.7.07,21.15,1.07,22.56.91s4.65.7,2.51-3.09c-2-3.53-5.62-6.81-9.62-5.42C36.58,187.39,29.68,189.71,28.49,190Z" fill="#603a19"/><path d="M26.71,193.07s23.31-.27,25.78-.36V194H26.71Z"/><path d="M82.05,190c2.43.52,1.77,3.11,1.77,3.11-.69.07-21.14,1.07-22.56.91s-4.64.7-2.5-3.09c2-3.53,5.62-6.81,9.62-5.42C74,187.39,80.85,189.71,82.05,190Z" fill="#603a19"/><path d="M83.82,193.07s-23.31-.27-25.77-.36V194H83.83Z"/><path d="M20.65,88c2.6-9.45,9.83-32.19,14.11-32.19,8.55,0,4.54,14.78,3.28,17.37S32.88,81.33,30.37,89C29.59,91.32,18.37,96.23,20.65,88Z" fill="#410099"/><path d="M89.39,88c-2.61-9.45-9.67-32.07-14-32.07-8.55,0-4.71,14.66-3.45,17.25S77.15,81.33,79.66,89C80.44,91.32,91.66,96.23,89.39,88Z" fill="#410099"/><path d="M74.2,111s-1.27-24.53-1-42.77c0-1.36.38-11.65.38-11.65-.78-2.44-5.47-3.17-8.19-4a11,11,0,0,1-3.51-1.58c-.52,4-3.59,5.64-6.65,5.77-3.46.14-6.61-1.58-6.87-5.61,0,0-1.32.54-4,1.42S36.78,54.24,36,56.67c0,0,3.21,11.06,3,12.41-1.1,9-3.12,41.64-3.12,41.64s7.53,2.78,19.82,2.9C55.74,113.62,69,112.92,74.2,111Z" fill="#adadad"/><path d="M53.92,77.88v-.16c-.05-1.26-.1-2.33-.16-3.12-.46-6.66-9.58-16.34-9.58-16.34l-.7.78s9,10,9.45,14.95c.08,1,.14,2.64.18,4.7" fill="#fff"/><path d="M43.25,56a24.64,24.64,0,0,1,1.4,4.24c1.58,5.62-1.12,7.52.18,14.09l.47-.43s.33-5.31.93-9.51c.56-3.89-1.49-8.13-1.68-8.74S43.25,54.28,43.25,56Z" fill="#fff"/><path d="M55.33,69a24.5,24.5,0,0,0-2.76-4.62c-3.48-5-6.88-7.69-6.43-12.24-.44-.86-11.73,2.94-12.84,4.41-1.58,2.08,2.13,11.53,3.2,13.1s-.68,28.4-.28,32.69c.53,5.62,13,7.49,17.36,6.93l3.28,0c4.25,0,16.56-.59,17.08-6.1.4-4.3-1-32,.1-33.56s4.27-11,2.69-13.1c-1.11-1.47-12.51-5.43-13-4.57-.39,3.94-4.22,7.22-6.92,13.6,0,0-.2.55-.45,1.12A11.89,11.89,0,0,0,55.87,69a5.39,5.39,0,0,1-.22.82C55.58,69.92,55.39,69.18,55.33,69Z" fill="#410099"/><path d="M55.66,71.25a11.81,11.81,0,0,1,.2-3.72c2.58-8.35,7.67-11.21,7.48-15.5-.14-3.07,5.49-.86,8.37,2,.31.31-8,1.18-15,13.62A20.05,20.05,0,0,0,56,70.46C55.9,70.9,55.7,72.51,55.66,71.25Z" fill="#79589f"/><path d="M20.27,89.72c-.55,2.18.36,13.52,1.12,20.71.28,2.64,8.19.5,9.44-1.13,0,0,.05-14.59-.37-19.36S21.59,84.58,20.27,89.72Z" fill="#410099"/><path d="M89.73,89.72c.55,2.18-.36,13.52-1.12,20.71-.28,2.64-8.19.5-9.44-1.13,0,0,0-14.59.37-19.36S88.41,84.58,89.73,89.72Z" fill="#410099"/><path d="M22.24,111.35s2.75-.08,8.28-2.88l.42,3.28a11.74,11.74,0,0,1-8,3.57C22.54,115.32,22.24,111.35,22.24,111.35Z" fill="#79589f"/><path d="M87.74,111.24s-2.75-.09-8.27-2.88L79,111.64a11.75,11.75,0,0,0,8,3.56C87.45,115.2,87.74,111.24,87.74,111.24Z" fill="#79589f"/><polygon points="55.19 70.09 55.1 106.26 56.16 106.26 56.14 70.11 55.19 70.09" fill="#fff"/><path d="M57.33,110.16c3.6-.28,6.17-.53,8.87-.89A30.54,30.54,0,0,0,74.05,107l-.11-4.72s-15.17,3.22-17.74,3.32l-.77,0c-.48,0-.7,0-.7,0l-1.08,0c-2.89-.12-17.43-3.3-17.43-3.3l.09,5.15a77.77,77.77,0,0,0,16.53,2.7s.9.06,2.35.06C55.19,110.23,56.4,110.23,57.33,110.16Z" fill="#79589f"/><g id="ferMqf"><path d="M55.71,74.41l-.16,0v0a1,1,0,0,1,.34,0v.12Z" fill="#a0a0a0"/><path d="M55.55,73a1,1,0,0,1,.34,0v.11h-.2l-.12,0s0,0,0,0Z" fill="#a0a0a0"/><path d="M55.89,71.16v.1h0a.71.71,0,0,1-.25,0h-.06s0,0,0,0,0,0,0,0a.93.93,0,0,1,.33,0Z" fill="#a0a0a0"/><path d="M55.89,72.72v.12a1,1,0,0,1-.34,0h0s0,0,0,0h0A1.14,1.14,0,0,1,55.89,72.72Z" fill="#a0a0a0"/><path d="M55.55,73.32h0s0,0,0,0l.1,0h.2v.12A.8.8,0,0,1,55.55,73.32Z" fill="#a0a0a0"/><path d="M55.55,71.76h0s0,0,0,0a.65.65,0,0,1,.28,0h0v.11A.79.79,0,0,1,55.55,71.76Z" fill="#a0a0a0"/><path d="M55.55,70.45v0l.07,0a1.14,1.14,0,0,1,.26,0h0v.11A1,1,0,0,1,55.55,70.45Z" fill="#a0a0a0"/><path d="M55.89,72.47v.1a.79.79,0,0,1-.34,0v0A1,1,0,0,1,55.89,72.47Z" fill="#a0a0a0"/><path d="M55.89,73.51v.1h0a.93.93,0,0,1-.33,0v0A1,1,0,0,1,55.89,73.51Z" fill="#a0a0a0"/><path d="M55.55,73.85h0s0,0,0,0h.1l.2,0v.12A1,1,0,0,1,55.55,73.85Z" fill="#a0a0a0"/><path d="M55.55,70.15a.79.79,0,0,1,.34,0v.11h0a1.23,1.23,0,0,1-.27,0h0s0,0,0,0Z" fill="#a0a0a0"/><path d="M55.89,72.32a2.28,2.28,0,0,1-.26,0h-.06s0,0,0,0a0,0,0,0,1,0,0l.15,0h.17Z" fill="#a0a0a0"/><path d="M55.55,72a1,1,0,0,1,.34,0v.12H55.7l-.12,0s0,0,0,0Z" fill="#a0a0a0"/><path d="M55.55,70.67a1,1,0,0,1,.34,0v.11a.65.65,0,0,1-.24,0h-.07a0,0,0,0,1,0,0Z" fill="#a0a0a0"/><path d="M55.72,71.89a1,1,0,0,1-.34,0v-.11h0a.87.87,0,0,1,.32,0S55.73,71.85,55.72,71.89Z" fill="#a0a0a0"/><path d="M55.38,71.14V71h0a.67.67,0,0,1,.28,0h0s0,0,0,0,0,0,0,0A1.23,1.23,0,0,1,55.38,71.14Z" fill="#a0a0a0"/><path d="M55.72,72.93a1,1,0,0,1-.34,0v-.11a.81.81,0,0,1,.22,0l.09,0s0,0,0,0Z" fill="#a0a0a0"/><path d="M55.89,71.42v.11a1,1,0,0,1-.34,0v0h0a.93.93,0,0,1,.33,0Z" fill="#a0a0a0"/><path d="M55.38,71.66v-.11a.89.89,0,0,1,.23,0l.1,0s0,0,0,0,0,0,0,0A1.16,1.16,0,0,1,55.38,71.66Z" fill="#a0a0a0"/><path d="M55.72,73.45a.78.78,0,0,1-.34,0v-.12h.06a1.26,1.26,0,0,1,.27,0,0,0,0,0,1,0,0,0,0,0,0,1,0,0Z" fill="#a0a0a0"/><path d="M55.89,70.9V71a.8.8,0,0,1-.34,0h0s0,0,0,0A1,1,0,0,1,55.89,70.9Z" fill="#a0a0a0"/><path d="M55.38,70a.78.78,0,0,1,.34,0h0s0,0,0,0a.93.93,0,0,1-.29,0h0Z" fill="#a0a0a0"/><path d="M55.38,73.23v-.11h0a1.33,1.33,0,0,1,.28,0s0,0,0,0,0,0,0,0a1.73,1.73,0,0,1-.32,0Z" fill="#a0a0a0"/><path d="M55.38,72.7v-.11a1.27,1.27,0,0,1,.28,0h.05s0,0,0,0,0,0,0,0a1.12,1.12,0,0,1-.32,0Z" fill="#a0a0a0"/><path d="M55.38,74.15l.21,0,.11,0s0,0,0,0v0a1,1,0,0,1-.34,0Z" fill="#a0a0a0"/><path d="M55.38,72.44v-.11h.12a1.52,1.52,0,0,1,.21,0s0,0,0,0A1,1,0,0,1,55.38,72.44Z" fill="#a0a0a0"/><path d="M55.38,73.9a.89.89,0,0,1,.23,0l.1,0s0,0,0,0,0,0,0,0l-.16,0h-.17Z" fill="#a0a0a0"/><path d="M55.38,72.18v-.11h.22l.11,0s0,0,0,0,0,0,0,0a.91.91,0,0,1-.23,0Z" fill="#a0a0a0"/><path d="M55.38,70.5h.07a2.3,2.3,0,0,1,.26,0v0s0,0,0,0a1.81,1.81,0,0,1-.23,0h-.1Z" fill="#a0a0a0"/><path d="M55.38,73.75v-.11h.09a.63.63,0,0,1,.24,0s0,0,0,0,0,0,0,0A1.23,1.23,0,0,1,55.38,73.75Z" fill="#a0a0a0"/><path d="M55.89,74v.11a1,1,0,0,1-.34,0h0v0A.8.8,0,0,1,55.89,74Z" fill="#a0a0a0"/><path d="M55.38,71.4v-.12h.21l.09,0s0,0,0,0A.91.91,0,0,1,55.38,71.4Z" fill="#a0a0a0"/><path d="M55.72,70.28v0a1,1,0,0,1-.34,0v-.1A.78.78,0,0,1,55.72,70.28Z" fill="#a0a0a0"/><path d="M55.38,70.88v-.12h.21l.1,0s0,0,0,0A1,1,0,0,1,55.38,70.88Z" fill="#a0a0a0"/></g><g id="ferMqf-2" data-name="ferMqf"><path d="M55.72,80.46l-.16,0v0a1,1,0,0,1,.34,0v.12Z" fill="#a0a0a0"/><path d="M55.9,74.6v.11a1,1,0,0,1-.34,0v0A1,1,0,0,1,55.9,74.6Z" fill="#a0a0a0"/><path d="M55.56,79.07a1,1,0,0,1,.34,0v.11h-.2l-.12,0s0,0,0,0Z" fill="#a0a0a0"/><path d="M55.9,77.21v.1h0a.7.7,0,0,1-.25,0l-.06,0s0,0,0,0,0,0,0,0a1.23,1.23,0,0,1,.33,0Z" fill="#a0a0a0"/><path d="M55.9,78.78v.11a1,1,0,0,1-.34,0h0s0,0,0,0h0A.76.76,0,0,1,55.9,78.78Z" fill="#a0a0a0"/><path d="M55.56,79.38h0s0,0,0-.05h.1l.2,0v.12A1,1,0,0,1,55.56,79.38Z" fill="#a0a0a0"/><path d="M55.9,75.12v.11a.81.81,0,0,1-.34,0v0A1,1,0,0,1,55.9,75.12Z" fill="#a0a0a0"/><path d="M55.56,77.81h0s0,0,0,0a1.27,1.27,0,0,1,.28,0h0v.11A.79.79,0,0,1,55.56,77.81Z" fill="#a0a0a0"/><path d="M55.56,76.5v0h.07a.58.58,0,0,1,.26,0h0v.1A.8.8,0,0,1,55.56,76.5Z" fill="#a0a0a0"/><path d="M55.9,78.52v.11a1,1,0,0,1-.34,0v0A1,1,0,0,1,55.9,78.52Z" fill="#a0a0a0"/><path d="M55.9,75.65v.11a1.1,1.1,0,0,1-.26,0h0a0,0,0,0,1,0,0v0A.79.79,0,0,1,55.9,75.65Z" fill="#a0a0a0"/><path d="M55.9,79.56v.1a0,0,0,0,1,0,0,.93.93,0,0,1-.33,0h0v0A.8.8,0,0,1,55.9,79.56Z" fill="#a0a0a0"/><path d="M55.56,79.9h0c0-.06,0,0,0-.05l.1,0h.2v.11A1,1,0,0,1,55.56,79.9Z" fill="#a0a0a0"/><path d="M55.56,76.2a1,1,0,0,1,.34,0v.11h0a1.23,1.23,0,0,1-.27,0h-.05s0,0,0,0Z" fill="#a0a0a0"/><path d="M55.9,78.37a1.14,1.14,0,0,1-.26,0h-.06s0,0,0,0l0,0,.15,0h.17Z" fill="#a0a0a0"/><path d="M55.56,78a1,1,0,0,1,.34,0v.11h-.19l-.12,0s0,0,0,0Z" fill="#a0a0a0"/><path d="M55.56,76.72a1.31,1.31,0,0,1,.34,0v.11a1,1,0,0,1-.24,0l-.07,0a0,0,0,0,1,0,0Z" fill="#a0a0a0"/><path d="M55.73,77.94a1,1,0,0,1-.34,0v-.11h0a1.16,1.16,0,0,1,.32,0S55.74,77.9,55.73,77.94Z" fill="#a0a0a0"/><path d="M55.39,77.19v-.11h0a1.32,1.32,0,0,1,.28,0h0s0,0,0,0,0,0,0,0A.91.91,0,0,1,55.39,77.19Z" fill="#a0a0a0"/><path d="M55.73,79a.78.78,0,0,1-.34,0V78.9h.22l.09,0s0,0,0,0Z" fill="#a0a0a0"/><path d="M55.9,77.47v.11a1,1,0,0,1-.34,0v0h0a1.23,1.23,0,0,1,.33,0Z" fill="#a0a0a0"/><path d="M55.39,77.71V77.6a.89.89,0,0,1,.23,0l.1,0s0,0,0,0,0,0,0,0A.89.89,0,0,1,55.39,77.71Z" fill="#a0a0a0"/><path d="M55.73,79.5a.78.78,0,0,1-.34,0v-.11h.06a.83.83,0,0,1,.27,0,0,0,0,0,1,0,0s0,0,0,0Z" fill="#a0a0a0"/><path d="M55.9,77v.11a1,1,0,0,1-.34,0h0s0,0,0-.06A1,1,0,0,1,55.9,77Z" fill="#a0a0a0"/><path d="M55.39,75.51h.2l.11,0s0,0,0,0a1,1,0,0,1-.34,0Z" fill="#a0a0a0"/><path d="M55.39,76a1,1,0,0,1,.34,0h0s0,0,0,.05a1.33,1.33,0,0,1-.28,0h0Z" fill="#a0a0a0"/><path d="M55.4,79.28h0v-.11h0a.88.88,0,0,1,.28,0s0,0,0,0,0,0,0,0" fill="#a0a0a0"/><path d="M55.39,78.76v-.11a.87.87,0,0,1,.28,0l0,0s0,0,0,0a0,0,0,0,1,0,0,1.12,1.12,0,0,1-.32,0Z" fill="#a0a0a0"/><path d="M55.39,80.21h.21l.11,0s0,0,0,0v0a1,1,0,0,1-.34,0Z" fill="#a0a0a0"/><path d="M55.39,74.84v-.11a1,1,0,0,1,.34,0v0h0A.93.93,0,0,1,55.39,74.84Z" fill="#a0a0a0"/><path d="M55.39,78.49v-.11h.12a1.52,1.52,0,0,1,.21,0s0,0,0,0A1,1,0,0,1,55.39,78.49Z" fill="#a0a0a0"/><path d="M55.39,80a.89.89,0,0,1,.23,0l.1,0s0,0,0,0,0,0,0,0l-.16,0H55.4a0,0,0,0,1,0,0Z" fill="#a0a0a0"/><path d="M55.39,78.24v-.12h.22l.11,0s0,0,0,0,0,0,0,0a.93.93,0,0,1-.23,0Z" fill="#a0a0a0"/><path d="M55.39,76.56h.07a.77.77,0,0,1,.26,0s0,0,0,0,0,0,0,0a1.81,1.81,0,0,1-.23,0h-.1Z" fill="#a0a0a0"/><path d="M55.56,75.94a1,1,0,0,1,.34,0V76a1,1,0,0,1-.34,0Z" fill="#a0a0a0"/><path d="M55.9,75.38v.11a1,1,0,0,1-.34,0v0A1,1,0,0,1,55.9,75.38Z" fill="#a0a0a0"/><path d="M55.39,75.36v-.11a1.27,1.27,0,0,1,.34,0h0s0,0,0,0h-.05A1.11,1.11,0,0,1,55.39,75.36Z" fill="#a0a0a0"/><path d="M55.9,74.86V75a1,1,0,0,1-.34,0v0A1,1,0,0,1,55.9,74.86Z" fill="#a0a0a0"/><path d="M55.73,75.07a1,1,0,0,1-.34,0V75h.11a.69.69,0,0,1,.2,0S55.74,75,55.73,75.07Z" fill="#a0a0a0"/><path d="M55.39,79.8v-.11h.09a.93.93,0,0,1,.24,0s0,0,0,0,0,0,0,0A.93.93,0,0,1,55.39,79.8Z" fill="#a0a0a0"/><path d="M55.9,80.08v.11a1,1,0,0,1-.34,0h0v0A1,1,0,0,1,55.9,80.08Z" fill="#a0a0a0"/><path d="M55.39,75.88v-.11a1,1,0,0,1,.25,0h.08s0,0,0,0,0,0,0,0a1.15,1.15,0,0,1-.32,0Z" fill="#a0a0a0"/><path d="M55.39,77.45v-.12l.21,0h.09c.05,0,.05,0,0,.06A1.2,1.2,0,0,1,55.39,77.45Z" fill="#a0a0a0"/><path d="M55.73,76.33v0a1,1,0,0,1-.34,0V76.3A.78.78,0,0,1,55.73,76.33Z" fill="#a0a0a0"/><path d="M55.39,76.93v-.12l.21,0h.1s0,0,0,0A.78.78,0,0,1,55.39,76.93Z" fill="#a0a0a0"/><path d="M55.39,74.58v-.11h.1a.61.61,0,0,1,.23,0s0,0,0,0,0,0,0,0a1.52,1.52,0,0,1-.21,0Z" fill="#a0a0a0"/></g><g id="ferMqf-3" data-name="ferMqf"><path d="M55.71,86.52l-.16,0v0a.78.78,0,0,1,.34,0v.11Z" fill="#a0a0a0"/><path d="M55.89,80.66v.11a1,1,0,0,1-.34,0v0A1,1,0,0,1,55.89,80.66Z" fill="#a0a0a0"/><path d="M55.55,85.14a.8.8,0,0,1,.34,0v.12h-.2l-.12,0s0,0,0,0Z" fill="#a0a0a0"/><path d="M55.89,83.28v.11a1.06,1.06,0,0,1-.25,0h-.06l0,0s0,0,0,0a1.23,1.23,0,0,1,.33,0Z" fill="#a0a0a0"/><path d="M55.89,84.84V85a1,1,0,0,1-.34,0h0s0,0,0,0h0A.76.76,0,0,1,55.89,84.84Z" fill="#a0a0a0"/><path d="M55.55,85.44h0s0,0,0,0l.1,0h.2v.11A1,1,0,0,1,55.55,85.44Z" fill="#a0a0a0"/><path d="M55.89,81.19v.11a1,1,0,0,1-.34,0v0A.79.79,0,0,1,55.89,81.19Z" fill="#a0a0a0"/><path d="M55.55,83.87h0c0-.05,0,0,0-.05a1.27,1.27,0,0,1,.28,0h0v.12A1,1,0,0,1,55.55,83.87Z" fill="#a0a0a0"/><path d="M55.55,82.57v0h.07a1.14,1.14,0,0,1,.26,0h0v.1A1,1,0,0,1,55.55,82.57Z" fill="#a0a0a0"/><path d="M55.89,84.58v.11a1,1,0,0,1-.34,0v0A1,1,0,0,1,55.89,84.58Z" fill="#a0a0a0"/><path d="M55.89,81.71v.11a1.1,1.1,0,0,1-.26,0h-.05a0,0,0,0,1,0,0v0A1,1,0,0,1,55.89,81.71Z" fill="#a0a0a0"/><path d="M55.89,85.62v.1a0,0,0,0,1,0,0,1.24,1.24,0,0,1-.33,0h0v0A1,1,0,0,1,55.89,85.62Z" fill="#a0a0a0"/><path d="M55.55,86h0c0-.06,0,0,0,0l.1,0h.2V86A1,1,0,0,1,55.55,86Z" fill="#a0a0a0"/><path d="M55.55,82.26a1,1,0,0,1,.34,0v.11h0a.82.82,0,0,1-.27,0h0s0,0,0,0Z" fill="#a0a0a0"/><path d="M55.89,84.43a.76.76,0,0,1-.26,0h-.06s0,0,0,0,0,0,0,0l.15,0h.17Z" fill="#a0a0a0"/><path d="M55.55,84.09a1,1,0,0,1,.34,0v.11H55.7l-.12,0s0,0,0,0Z" fill="#a0a0a0"/><path d="M55.55,82.78a1.31,1.31,0,0,1,.34,0v.11a1,1,0,0,1-.24,0h-.07s0,0,0,0Z" fill="#a0a0a0"/><path d="M55.72,84a1,1,0,0,1-.34,0v-.11h0a1.73,1.73,0,0,1,.32,0S55.73,84,55.72,84Z" fill="#a0a0a0"/><path d="M55.38,83.25v-.11h0a1.32,1.32,0,0,1,.28,0s0,0,0,0,0,0,0,0,0,0,0,0A.91.91,0,0,1,55.38,83.25Z" fill="#a0a0a0"/><path d="M55.72,85a.78.78,0,0,1-.34,0V85a.81.81,0,0,1,.22,0h.09s0,0,0,0Z" fill="#a0a0a0"/><path d="M55.89,83.54v.1a.79.79,0,0,1-.34,0v0a0,0,0,0,1,0,0,1.24,1.24,0,0,1,.33,0Z" fill="#a0a0a0"/><path d="M55.38,83.77v-.11a.89.89,0,0,1,.23,0l.1,0s0,0,0,0,0,0,0,0A.89.89,0,0,1,55.38,83.77Z" fill="#a0a0a0"/><path d="M55.72,85.57a1,1,0,0,1-.34,0v-.11h.06a.83.83,0,0,1,.27,0s0,0,0,0,0,0,0,0Z" fill="#a0a0a0"/><path d="M55.89,83v.11a1,1,0,0,1-.34,0h0s0,0,0,0A.77.77,0,0,1,55.89,83Z" fill="#a0a0a0"/><path d="M55.38,81.57h.2l.11,0s0,0,0,.05a.78.78,0,0,1-.34,0Z" fill="#a0a0a0"/><path d="M55.38,82.1a1,1,0,0,1,.34,0h0s0,0,0,0a1.36,1.36,0,0,1-.29,0h0Z" fill="#a0a0a0"/><path d="M55.38,85.34v-.11h0a.67.67,0,0,1,.28,0s0,0,0,0v0a.87.87,0,0,1-.32,0Z" fill="#a0a0a0"/><path d="M55.38,84.82v-.11a.86.86,0,0,1,.28,0h.05s0,0,0,0,0,0,0,0a1.12,1.12,0,0,1-.32,0Z" fill="#a0a0a0"/><path d="M55.38,86.27h.21l.11,0s0,0,0,0v0a.78.78,0,0,1-.34,0Z" fill="#a0a0a0"/><path d="M55.38,80.9v-.11a1,1,0,0,1,.34,0v0h0A.93.93,0,0,1,55.38,80.9Z" fill="#a0a0a0"/><path d="M55.38,84.56v-.12h.12a.78.78,0,0,1,.21,0s0,0,0,0A1,1,0,0,1,55.38,84.56Z" fill="#a0a0a0"/><path d="M55.38,86a.89.89,0,0,1,.23,0l.1,0s0,0,0,0,0,0,0,0l-.16,0h-.17Z" fill="#a0a0a0"/><path d="M55.38,84.3v-.11h.22l.11,0s0,0,0,0,0,0,0,0a1.81,1.81,0,0,1-.23,0Z" fill="#a0a0a0"/><path d="M55.38,82.62h.07a.77.77,0,0,1,.26,0s0,0,0,0,0,0,0,0a.91.91,0,0,1-.23,0h-.1Z" fill="#a0a0a0"/><path d="M55.55,82a1,1,0,0,1,.34,0v.11a.81.81,0,0,1-.34,0Z" fill="#a0a0a0"/><path d="M55.89,81.45v.11a1,1,0,0,1-.34,0v0A1,1,0,0,1,55.89,81.45Z" fill="#a0a0a0"/><path d="M55.38,81.43v-.12a1,1,0,0,1,.34,0h0s0,0,0,.05h0A2.11,2.11,0,0,1,55.38,81.43Z" fill="#a0a0a0"/><path d="M55.89,80.92V81a1,1,0,0,1-.34,0v0A1,1,0,0,1,55.89,80.92Z" fill="#a0a0a0"/><path d="M55.72,81.13a1,1,0,0,1-.34,0v-.11h.11a.69.69,0,0,1,.2,0S55.73,81.09,55.72,81.13Z" fill="#a0a0a0"/><path d="M55.38,85.86v-.11h.09a1.75,1.75,0,0,1,.24,0s0,0,0,0,0,0,0,0A.93.93,0,0,1,55.38,85.86Z" fill="#a0a0a0"/><path d="M55.89,86.15v.1a.79.79,0,0,1-.34,0h0v0A1,1,0,0,1,55.89,86.15Z" fill="#a0a0a0"/><path d="M55.38,81.94v-.11a2,2,0,0,1,.25,0l.08,0s0,0,0,0,0,0,0,0a1.73,1.73,0,0,1-.32,0Z" fill="#a0a0a0"/><path d="M55.38,83.51V83.4h.21l.09,0s0,0,0,0A1.2,1.2,0,0,1,55.38,83.51Z" fill="#a0a0a0"/><path d="M55.72,82.39v0a1,1,0,0,1-.34,0v-.11A1,1,0,0,1,55.72,82.39Z" fill="#a0a0a0"/><path d="M55.38,83v-.12l.21,0h.1s0,0,0,.06A1,1,0,0,1,55.38,83Z" fill="#a0a0a0"/><path d="M55.38,80.64v-.11h.1a.91.91,0,0,1,.23,0s0,0,0,0,0,0,0,0a1.52,1.52,0,0,1-.21,0Z" fill="#a0a0a0"/></g><g id="ferMqf-4" data-name="ferMqf"><path d="M55.91,86.72v.11a1,1,0,0,1-.34,0v0A.78.78,0,0,1,55.91,86.72Z" fill="#a0a0a0"/><path d="M55.91,89.33v.1h0a1,1,0,0,1-.24,0h-.07s0,0,0,0,0,0,0,0a1.15,1.15,0,0,1,.32,0Z" fill="#a0a0a0"/><path d="M55.91,87.24v.11a1,1,0,0,1-.34,0v0A1,1,0,0,1,55.91,87.24Z" fill="#a0a0a0"/><path d="M55.57,88.62v0l.07,0a1.06,1.06,0,0,1,.25,0h0v.1A1,1,0,0,1,55.57,88.62Z" fill="#a0a0a0"/><path d="M55.91,87.76v.11a.82.82,0,0,1-.27,0h0s0,0,0,0v0A1,1,0,0,1,55.91,87.76Z" fill="#a0a0a0"/><path d="M55.57,88.32a.78.78,0,0,1,.34,0v.11h0a.57.57,0,0,1-.26,0h0s0,0,0,0Z" fill="#a0a0a0"/><path d="M55.57,88.84a1,1,0,0,1,.34,0v.12a1,1,0,0,1-.25,0h-.07s0,0,0,0Z" fill="#a0a0a0"/><path d="M55.4,89.3v-.11h0a.86.86,0,0,1,.28,0h0s0,0,0,0,0,0,0,0A1.22,1.22,0,0,1,55.4,89.3Z" fill="#a0a0a0"/><path d="M55.4,89.58v-.11h0a.67.67,0,0,1,.28,0h0s0,0,0,0,0,0,0,0A1.23,1.23,0,0,1,55.4,89.58Z" fill="#a0a0a0"/><path d="M55.91,89.07v.1a1,1,0,0,1-.34,0h0s0,0,0,0A1.06,1.06,0,0,1,55.91,89.07Z" fill="#a0a0a0"/><path d="M55.4,87.62h.19l.11,0s0,0,0,0a1,1,0,0,1-.34,0Z" fill="#a0a0a0"/><path d="M55.4,88.15a1,1,0,0,1,.34,0h0s0,0,0,0a.65.65,0,0,1-.28,0h0Z" fill="#a0a0a0"/><path d="M55.4,87v-.11a1,1,0,0,1,.34,0v0a0,0,0,0,1,0,0A.74.74,0,0,1,55.4,87Z" fill="#a0a0a0"/><path d="M55.4,88.67h.06a1.09,1.09,0,0,1,.26,0s0,0,0,0,0,0,0,0a.83.83,0,0,1-.22,0h-.09a0,0,0,0,1,0,0Z" fill="#a0a0a0"/><path d="M55.57,88.05a1,1,0,0,1,.34,0v.11a1,1,0,0,1-.34,0Z" fill="#a0a0a0"/><path d="M55.91,87.5v.11a.78.78,0,0,1-.34,0v0A1,1,0,0,1,55.91,87.5Z" fill="#a0a0a0"/><path d="M55.4,87.48v-.11a1,1,0,0,1,.34,0h0s0,0,0,0h0A1.18,1.18,0,0,1,55.4,87.48Z" fill="#a0a0a0"/><path d="M55.91,87v.1a.78.78,0,0,1-.34,0v0A1,1,0,0,1,55.91,87Z" fill="#a0a0a0"/><path d="M55.74,87.18a1,1,0,0,1-.34,0V87.1h.1a1.52,1.52,0,0,1,.21,0S55.74,87.14,55.74,87.18Z" fill="#a0a0a0"/><path d="M55.4,88v-.11a1,1,0,0,1,.25,0l.08,0s0,0,0,0,0,0,0,0a1.12,1.12,0,0,1-.32,0Z" fill="#a0a0a0"/><path d="M55.74,88.44v0a.8.8,0,0,1-.34,0v-.11A1,1,0,0,1,55.74,88.44Z" fill="#a0a0a0"/><path d="M55.4,89v-.11h.2l.1,0s0,0,0,.05A1,1,0,0,1,55.4,89Z" fill="#a0a0a0"/><path d="M55.4,86.69v-.11h.09a2,2,0,0,1,.24,0s0,0,0,0,0,0,0,0a.44.44,0,0,1-.2,0Z" fill="#a0a0a0"/></g><g id="ferMqf-5" data-name="ferMqf"><path d="M55.4,89.72v.11a1,1,0,0,0,.34,0v0A.78.78,0,0,0,55.4,89.72Z" fill="#a0a0a0"/><path d="M55.4,90.24v.11a1,1,0,0,0,.34,0v0A1,1,0,0,0,55.4,90.24Z" fill="#a0a0a0"/><path d="M55.74,91.62v0l-.07,0a1.06,1.06,0,0,0-.25,0h0v.1A1,1,0,0,0,55.74,91.62Z" fill="#a0a0a0"/><path d="M55.4,90.76v.11a.82.82,0,0,0,.27,0h0s0,0,0,0v0A1,1,0,0,0,55.4,90.76Z" fill="#a0a0a0"/><path d="M55.74,91.32a.78.78,0,0,0-.34,0v.11h0a.57.57,0,0,0,.26,0h0s0,0,0,0Z" fill="#a0a0a0"/><path d="M55.91,90.62h-.19l-.11,0s0,0,0,0a1,1,0,0,0,.34,0Z" fill="#a0a0a0"/><path d="M55.91,91.15a1,1,0,0,0-.34,0h0s0,0,0,0a.86.86,0,0,0,.28,0h0Z" fill="#a0a0a0"/><path d="M55.91,90v-.1a.8.8,0,0,0-.34,0v0s0,0,0,0A.69.69,0,0,0,55.91,90Z" fill="#a0a0a0"/><path d="M55.74,91.05a1,1,0,0,0-.34,0v.11a1,1,0,0,0,.34,0Z" fill="#a0a0a0"/><path d="M55.4,90.5v.11a.78.78,0,0,0,.34,0v0A1,1,0,0,0,55.4,90.5Z" fill="#a0a0a0"/><path d="M55.91,90.48v-.11a1,1,0,0,0-.34,0h0s0,0,0,0h0A1.18,1.18,0,0,0,55.91,90.48Z" fill="#a0a0a0"/><path d="M55.4,90v.11a1,1,0,0,0,.34,0v0A1,1,0,0,0,55.4,90Z" fill="#a0a0a0"/><path d="M55.57,90.18a1,1,0,0,0,.34,0V90.1h-.1a1.52,1.52,0,0,0-.21,0S55.57,90.14,55.57,90.18Z" fill="#a0a0a0"/><path d="M55.91,91v-.11a1,1,0,0,0-.25,0l-.08,0s0,0,0,0,0,0,0,0a1.12,1.12,0,0,0,.32,0Z" fill="#a0a0a0"/><path d="M55.57,91.44v0a1,1,0,0,0,.34,0v-.11A1.34,1.34,0,0,0,55.57,91.44Z" fill="#a0a0a0"/><path d="M55.91,89.69v-.11h-.09a1.6,1.6,0,0,0-.23,0l0,0s0,0,0,0a.44.44,0,0,0,.2,0Z" fill="#a0a0a0"/></g><path d="M55.33,70.77s.34-.07.35-.48a9.24,9.24,0,0,0-.34-2.18,8.43,8.43,0,0,0-.88-1.74c-4.86-7.58-7.8-9.54-7.77-14.34,0-3.08-5.48-.86-8.37,2-.3.3,9,3,15.72,13A10.72,10.72,0,0,1,55.33,70.77Z" fill="#79589f"/><path d="M45,90.67,55.62,91s5.49,0,10.36-.47a68.62,68.62,0,0,0,5,9.12s-5.64,1.53-15.38,1.47c-8.81-.06-10.6-.87-15.22-1.78A45.83,45.83,0,0,0,45,90.67Z" fill="#79589f"/><g clip-path="url(#clip-path-2)"><g opacity="0.2"><g id="ferMqf-6" data-name="ferMqf"><path d="M55.71,92.88l-.16,0v0a1,1,0,0,1,.34,0v.12Z" fill="#fff"/><path d="M55.55,91.49a1,1,0,0,1,.34,0v.11h-.2l-.12,0s0,0,0,0Z" fill="#fff"/><path d="M55.89,89.63v.1h0a1,1,0,0,1-.25,0l-.06,0s0,0,0,0,0,0,0,0a1.23,1.23,0,0,1,.33,0Z" fill="#fff"/><path d="M55.89,91.19v.12a1,1,0,0,1-.34,0h0s0,0,0,0h0A1.14,1.14,0,0,1,55.89,91.19Z" fill="#fff"/><path d="M55.55,91.79h0s0,0,0-.05h.1l.2,0v.12A.8.8,0,0,1,55.55,91.79Z" fill="#fff"/><path d="M55.55,90.23h0s0,0,0,0a1.27,1.27,0,0,1,.28,0h0v.11A.79.79,0,0,1,55.55,90.23Z" fill="#fff"/><path d="M55.55,88.92v0h.07a.58.58,0,0,1,.26,0,0,0,0,0,1,0,0V89A1,1,0,0,1,55.55,88.92Z" fill="#fff"/><path d="M55.89,90.94v.11a1,1,0,0,1-.34,0v0A1,1,0,0,1,55.89,90.94Z" fill="#fff"/><path d="M55.89,92v.1a0,0,0,0,1,0,0,.93.93,0,0,1-.33,0h0v0A.8.8,0,0,1,55.89,92Z" fill="#fff"/><path d="M55.55,92.32h0c0-.06,0,0,0,0l.1,0,.2,0v.12A1,1,0,0,1,55.55,92.32Z" fill="#fff"/><path d="M55.55,88.62a1,1,0,0,1,.34,0v.11h0a1.23,1.23,0,0,1-.27,0h0s0,0,0,0Z" fill="#fff"/><path d="M55.89,90.79a1.14,1.14,0,0,1-.26,0h-.06s0,0,0,0a0,0,0,0,1,0,0l.15,0h.17Z" fill="#fff"/><path d="M55.55,90.45a1,1,0,0,1,.34,0v.12H55.7l-.12,0s0,0,0,0Z" fill="#fff"/><path d="M55.55,89.14a1.31,1.31,0,0,1,.34,0v.11a1,1,0,0,1-.24,0l-.07,0a0,0,0,0,1,0,0Z" fill="#fff"/><path d="M55.72,90.36a1,1,0,0,1-.34,0v-.11h0a1.16,1.16,0,0,1,.32,0S55.73,90.32,55.72,90.36Z" fill="#fff"/><path d="M55.38,89.61V89.5h0a.88.88,0,0,1,.28,0h0s0,0,0,0,0,0,0,0A.91.91,0,0,1,55.38,89.61Z" fill="#fff"/><path d="M55.72,91.4a.78.78,0,0,1-.34,0v-.12h.22l.09,0s0,0,0,0Z" fill="#fff"/><path d="M55.89,89.89V90a1,1,0,0,1-.34,0v0h0a1.23,1.23,0,0,1,.33,0Z" fill="#fff"/><path d="M55.38,90.13V90a.89.89,0,0,1,.23,0l.1,0s0,0,0,0,0,0,0,0A.89.89,0,0,1,55.38,90.13Z" fill="#fff"/><path d="M55.72,91.92a.78.78,0,0,1-.34,0v-.11h.06a.83.83,0,0,1,.27,0,0,0,0,0,1,0,0,0,0,0,0,1,0,0Z" fill="#fff"/><path d="M55.89,89.37v.11a1,1,0,0,1-.34,0h0s0,0,0,0A1,1,0,0,1,55.89,89.37Z" fill="#fff"/><path d="M55.38,88.45a1,1,0,0,1,.34,0h0s0,0,0,.05a1.36,1.36,0,0,1-.29,0h0Z" fill="#fff"/><path d="M55.38,91.7v-.11h0a.88.88,0,0,1,.28,0s0,0,0,0v0a1.16,1.16,0,0,1-.32,0Z" fill="#fff"/><path d="M55.38,91.17v-.11a1.27,1.27,0,0,1,.28,0l.05,0s0,0,0,0,0,0,0,0a1.12,1.12,0,0,1-.32,0Z" fill="#fff"/><path d="M55.38,92.63h.21l.11,0s0,0,0,0v0a1,1,0,0,1-.34,0Z" fill="#fff"/><path d="M55.38,90.91V90.8h.12a1.52,1.52,0,0,1,.21,0s0,0,0,0A1,1,0,0,1,55.38,90.91Z" fill="#fff"/><path d="M55.38,92.37a.89.89,0,0,1,.23,0l.1,0s0,0,0,0,0,0,0,0l-.16,0h-.16a0,0,0,0,1,0,0Z" fill="#fff"/><path d="M55.38,90.66v-.12h.22l.11,0s0,0,0,0,0,0,0,0a1.85,1.85,0,0,1-.23,0Z" fill="#fff"/><path d="M55.38,89s0,0,.07,0a1.17,1.17,0,0,1,.26,0s0,0,0,0,0,0,0,0a1.81,1.81,0,0,1-.23,0h-.1Z" fill="#fff"/><path d="M55.38,92.22v-.11h.09a.93.93,0,0,1,.24,0s0,0,0,0,0,0,0,0A1.23,1.23,0,0,1,55.38,92.22Z" fill="#fff"/><path d="M55.89,92.5v.11a1,1,0,0,1-.34,0h0v0A1,1,0,0,1,55.89,92.5Z" fill="#fff"/><path d="M55.38,89.87v-.12l.21,0h.09s0,0,0,0A.91.91,0,0,1,55.38,89.87Z" fill="#fff"/><path d="M55.72,88.75v0a.78.78,0,0,1-.34,0v-.1A.78.78,0,0,1,55.72,88.75Z" fill="#fff"/><path d="M55.38,89.35v-.12h.21l.1,0s0,0,0,0A.78.78,0,0,1,55.38,89.35Z" fill="#fff"/></g><g id="ferMqf-7" data-name="ferMqf"><path d="M55.72,98.93l-.16,0v0a.78.78,0,0,1,.34,0v.11Z" fill="#fff"/><path d="M55.9,93.07v.11a1,1,0,0,1-.34,0v0A1,1,0,0,1,55.9,93.07Z" fill="#fff"/><path d="M55.56,97.55a.8.8,0,0,1,.34,0v.12h-.2l-.12,0s0,0,0,0Z" fill="#fff"/><path d="M55.9,95.68v.1a0,0,0,0,1,0,0,1.06,1.06,0,0,1-.25,0h-.06s0,0,0,0,0,0,0,0a1.23,1.23,0,0,1,.33,0Z" fill="#fff"/><path d="M55.9,97.25v.11a1,1,0,0,1-.34,0h0s0,0,0,0h0A.76.76,0,0,1,55.9,97.25Z" fill="#fff"/><path d="M55.56,97.85h0s0,0,0,0l.1,0,.2,0v.12A1,1,0,0,1,55.56,97.85Z" fill="#fff"/><path d="M55.9,93.59v.12a1,1,0,0,1-.34,0v0A1,1,0,0,1,55.9,93.59Z" fill="#fff"/><path d="M55.56,96.28h0s0,0,0,0a1.27,1.27,0,0,1,.28,0h0v.12A1,1,0,0,1,55.56,96.28Z" fill="#fff"/><path d="M55.56,95v0h.07a1.14,1.14,0,0,1,.26,0h0V95A.8.8,0,0,1,55.56,95Z" fill="#fff"/><path d="M55.9,97v.11a.8.8,0,0,1-.34,0v0A1,1,0,0,1,55.9,97Z" fill="#fff"/><path d="M55.9,94.12v.11a1.1,1.1,0,0,1-.26,0h0a0,0,0,0,1,0,0v0A.79.79,0,0,1,55.9,94.12Z" fill="#fff"/><path d="M55.9,98v.1a0,0,0,0,1,0,0,.93.93,0,0,1-.33,0h0v0A1,1,0,0,1,55.9,98Z" fill="#fff"/><path d="M55.56,98.37h0c0-.06,0,0,0-.05l.1,0h.2v.11A1,1,0,0,1,55.56,98.37Z" fill="#fff"/><path d="M55.56,94.67a1,1,0,0,1,.34,0v.11h0a.82.82,0,0,1-.27,0h-.05s0,0,0,0Z" fill="#fff"/><path d="M55.9,96.84a.76.76,0,0,1-.26,0h-.06s0,0,0,0,0,0,0,0l.15,0h.17Z" fill="#fff"/><path d="M55.56,96.5a1,1,0,0,1,.34,0v.11h-.19l-.12,0s0,0,0,0Z" fill="#fff"/><path d="M55.56,95.19a1.31,1.31,0,0,1,.34,0v.11a1,1,0,0,1-.24,0h-.07s0,0,0,0Z" fill="#fff"/><path d="M55.73,96.41a1,1,0,0,1-.34,0v-.11h0a1.73,1.73,0,0,1,.32,0S55.74,96.37,55.73,96.41Z" fill="#fff"/><path d="M55.39,95.66v-.11h0a1.32,1.32,0,0,1,.28,0s0,0,0,0,0,0,0,0,0,0,0,0A.91.91,0,0,1,55.39,95.66Z" fill="#fff"/><path d="M55.73,97.45a.78.78,0,0,1-.34,0v-.11h.22l.09,0s0,0,0,0Z" fill="#fff"/><path d="M55.9,96v.1a1,1,0,0,1-.34,0v0s0,0,0,0a1.84,1.84,0,0,1,.33,0Z" fill="#fff"/><path d="M55.39,96.18v-.11a.89.89,0,0,1,.23,0l.1,0s0,0,0,0,0,0,0,0A.89.89,0,0,1,55.39,96.18Z" fill="#fff"/><path d="M55.73,98a1,1,0,0,1-.34,0V97.9h.06a.83.83,0,0,1,.27,0s0,0,0,0,0,0,0,0Z" fill="#fff"/><path d="M55.9,95.42v.11a1,1,0,0,1-.34,0h0s0,0,0,0A.77.77,0,0,1,55.9,95.42Z" fill="#fff"/><path d="M55.39,94h.2l.11,0s0,0,0,0a1,1,0,0,1-.34,0Z" fill="#fff"/><path d="M55.39,94.51a1,1,0,0,1,.34,0h0s0,0,0,0a1.33,1.33,0,0,1-.28,0h0Z" fill="#fff"/><path d="M55.4,97.75h0v-.11h0a.67.67,0,0,1,.28,0s0,0,0,0,0,0,0,0" fill="#fff"/><path d="M55.39,97.23v-.11a.86.86,0,0,1,.28,0h0s0,0,0,0,0,0,0,0a1.12,1.12,0,0,1-.32,0Z" fill="#fff"/><path d="M55.39,98.68h.21l.11,0s0,0,0,0v0a1,1,0,0,1-.34,0Z" fill="#fff"/><path d="M55.39,93.31V93.2a1,1,0,0,1,.34,0v0h0A.93.93,0,0,1,55.39,93.31Z" fill="#fff"/><path d="M55.39,97v-.12h.12a1.52,1.52,0,0,1,.21,0s0,0,0,.05A1,1,0,0,1,55.39,97Z" fill="#fff"/><path d="M55.39,98.42a.89.89,0,0,1,.23,0l.1,0s0,0,0,0,0,0,0,0l-.16,0a.85.85,0,0,1-.16,0,0,0,0,0,1,0,0Z" fill="#fff"/><path d="M55.39,96.71V96.6h.22l.11,0s0,0,0,0,0,0,0,0a1.81,1.81,0,0,1-.23,0Z" fill="#fff"/><path d="M55.39,95h.07a.77.77,0,0,1,.26,0s0,0,0,0,0,0,0,0a.91.91,0,0,1-.23,0h-.1Z" fill="#fff"/><path d="M55.56,94.41a1,1,0,0,1,.34,0v.11a1,1,0,0,1-.34,0Z" fill="#fff"/><path d="M55.9,93.86V94a.79.79,0,0,1-.34,0v0A1,1,0,0,1,55.9,93.86Z" fill="#fff"/><path d="M55.39,93.83v-.11a1,1,0,0,1,.34,0h0s0,0,0,0h-.05A1.11,1.11,0,0,1,55.39,93.83Z" fill="#fff"/><path d="M55.9,93.33v.11a1,1,0,0,1-.34,0v0A1,1,0,0,1,55.9,93.33Z" fill="#fff"/><path d="M55.73,93.54a1,1,0,0,1-.34,0v-.11h.11a.69.69,0,0,1,.2,0S55.74,93.5,55.73,93.54Z" fill="#fff"/><path d="M55.39,98.27v-.11h.09a.93.93,0,0,1,.24,0s0,0,0,0,0,0,0,0A.93.93,0,0,1,55.39,98.27Z" fill="#fff"/><path d="M55.9,98.56v.1a.79.79,0,0,1-.34,0h0v0A1,1,0,0,1,55.9,98.56Z" fill="#fff"/><path d="M55.39,94.35v-.11a1,1,0,0,1,.25,0h.08s0,0,0,0,0,0,0,0a1.73,1.73,0,0,1-.32,0Z" fill="#fff"/><path d="M55.39,95.92v-.11h.21l.09,0c.05,0,.05,0,0,0A1.2,1.2,0,0,1,55.39,95.92Z" fill="#fff"/><path d="M55.73,94.8v0a1,1,0,0,1-.34,0v-.11A1,1,0,0,1,55.73,94.8Z" fill="#fff"/><path d="M55.39,95.4v-.12l.21,0h.1s0,0,0,0A.78.78,0,0,1,55.39,95.4Z" fill="#fff"/><path d="M55.39,93.05v-.11h.1a.61.61,0,0,1,.23,0s0,0,0,0,0,0,0,0a1.52,1.52,0,0,1-.21,0Z" fill="#fff"/></g><g id="ferMqf-8" data-name="ferMqf"><path d="M55.71,105l-.16,0v0a.78.78,0,0,1,.34,0V105Z" fill="#fff"/><path d="M55.89,99.13v.12a1,1,0,0,1-.34,0v0A1,1,0,0,1,55.89,99.13Z" fill="#fff"/><path d="M55.55,103.61a1,1,0,0,1,.34,0v.12h-.2l-.12,0s0,0,0,0Z" fill="#fff"/><path d="M55.89,101.75v.11a1.06,1.06,0,0,1-.25,0h-.06s0,0,0,0,0,0,0,0a1.84,1.84,0,0,1,.33,0Z" fill="#fff"/><path d="M55.89,103.31v.11a1,1,0,0,1-.34,0h0s0,0,0,0h0A.76.76,0,0,1,55.89,103.31Z" fill="#fff"/><path d="M55.55,103.91h0s0,0,0,0l.1,0h.2v.11A1,1,0,0,1,55.55,103.91Z" fill="#fff"/><path d="M55.89,99.66v.11a1,1,0,0,1-.34,0v0A.79.79,0,0,1,55.89,99.66Z" fill="#fff"/><path d="M55.55,102.34h0s0,0,0,0a.86.86,0,0,1,.28,0h0v.11A1,1,0,0,1,55.55,102.34Z" fill="#fff"/><path d="M55.55,101V101h.07a1.14,1.14,0,0,1,.26,0h0v.1A1,1,0,0,1,55.55,101Z" fill="#fff"/><path d="M55.89,103.05v.11a1,1,0,0,1-.34,0v0A1,1,0,0,1,55.89,103.05Z" fill="#fff"/><path d="M55.89,100.18v.11a.74.74,0,0,1-.26,0h-.05a0,0,0,0,1,0,0v0A1,1,0,0,1,55.89,100.18Z" fill="#fff"/><path d="M55.89,104.1v.1h0a1.24,1.24,0,0,1-.33,0h0v0A.79.79,0,0,1,55.89,104.1Z" fill="#fff"/><path d="M55.55,104.43h0c0-.05,0,0,0-.05l.1,0h.2v.12A1,1,0,0,1,55.55,104.43Z" fill="#fff"/><path d="M55.55,100.74a.8.8,0,0,1,.34,0v.11h0a.62.62,0,0,1-.27,0h0s0,0,0,0Z" fill="#fff"/><path d="M55.89,102.9a.76.76,0,0,1-.26,0h-.06s0,0,0,0,0,0,0,0l.15,0h.17Z" fill="#fff"/><path d="M55.55,102.56a1,1,0,0,1,.34,0v.11H55.7l-.12,0s0,0,0,0Z" fill="#fff"/><path d="M55.55,101.26a1,1,0,0,1,.34,0v.12a1,1,0,0,1-.24,0h-.07s0,0,0,0Z" fill="#fff"/><path d="M55.72,102.47a.78.78,0,0,1-.34,0v-.11h0a1.73,1.73,0,0,1,.32,0S55.73,102.43,55.72,102.47Z" fill="#fff"/><path d="M55.38,101.72v-.11h0a.89.89,0,0,1,.28,0h0s0,0,0,0,0,0,0,0A1.2,1.2,0,0,1,55.38,101.72Z" fill="#fff"/><path d="M55.72,103.52a1,1,0,0,1-.34,0v-.11a.81.81,0,0,1,.22,0l.09,0s0,0,0,0Z" fill="#fff"/><path d="M55.89,102v.11a1,1,0,0,1-.34,0v0h0a.93.93,0,0,1,.33,0Z" fill="#fff"/><path d="M55.38,102.25v-.12h.23l.1,0s0,0,0,0,0,0,0,0A1.16,1.16,0,0,1,55.38,102.25Z" fill="#fff"/><path d="M55.72,104a1,1,0,0,1-.34,0V104h.06a.83.83,0,0,1,.27,0s0,0,0,0,0,0,0,0Z" fill="#fff"/><path d="M55.89,101.48v.11a1,1,0,0,1-.34,0h0s0,0,0,0A1,1,0,0,1,55.89,101.48Z" fill="#fff"/><path d="M55.38,100h.2l.11,0s0,0,0,.05a1,1,0,0,1-.34,0Z" fill="#fff"/><path d="M55.38,100.57a1,1,0,0,1,.34,0h0s0,0,0,0a.7.7,0,0,1-.29,0h0Z" fill="#fff"/><path d="M55.38,103.81v-.11h0a.89.89,0,0,1,.28,0s0,0,0,0v0a.87.87,0,0,1-.32,0Z" fill="#fff"/><path d="M55.38,103.29v-.11a.86.86,0,0,1,.28,0h.05s0,0,0,0,0,0,0,0a.85.85,0,0,1-.32,0Z" fill="#fff"/><path d="M55.38,104.74h.21l.11,0s0,0,0,0h0a1,1,0,0,1-.34,0Z" fill="#fff"/><path d="M55.38,99.37v-.11a1,1,0,0,1,.34,0v0a0,0,0,0,1,0,0A.74.74,0,0,1,55.38,99.37Z" fill="#fff"/><path d="M55.38,103v-.11h.12a.51.51,0,0,1,.21,0s0,0,0,0A.78.78,0,0,1,55.38,103Z" fill="#fff"/><path d="M55.38,104.48a.9.9,0,0,1,.23,0h.1s0,0,0,0a0,0,0,0,1,0,0l-.16,0h-.17Z" fill="#fff"/><path d="M55.38,102.77v-.11h.22l.11,0s0,0,0,0,0,0,0,0a1.81,1.81,0,0,1-.23,0Z" fill="#fff"/><path d="M55.38,101.09h.07a1.15,1.15,0,0,1,.26,0s0,0,0,0,0,0,0,0a.91.91,0,0,1-.23,0H55.4s0,0,0,0Z" fill="#fff"/><path d="M55.55,100.47a1,1,0,0,1,.34,0v.11a1,1,0,0,1-.34,0Z" fill="#fff"/><path d="M55.89,99.92V100a.8.8,0,0,1-.34,0v0A1,1,0,0,1,55.89,99.92Z" fill="#fff"/><path d="M55.38,99.9v-.11a.78.78,0,0,1,.34,0h0c0,.05,0,.05,0,.05h0A1.1,1.1,0,0,1,55.38,99.9Z" fill="#fff"/><path d="M55.89,99.4v.1a1,1,0,0,1-.34,0v0A.79.79,0,0,1,55.89,99.4Z" fill="#fff"/><path d="M55.72,99.6a1,1,0,0,1-.34,0v-.11h.11a1.38,1.38,0,0,1,.2,0S55.73,99.56,55.72,99.6Z" fill="#fff"/><path d="M55.38,104.33v-.11a.27.27,0,0,0,.09,0,1.75,1.75,0,0,1,.24,0s0,0,0,0,0,0,0,0A.93.93,0,0,1,55.38,104.33Z" fill="#fff"/><path d="M55.89,104.62v.11a1,1,0,0,1-.34,0h0v0A1,1,0,0,1,55.89,104.62Z" fill="#fff"/><path d="M55.38,100.42v-.11a1,1,0,0,1,.25,0l.08,0s0,0,0,0,0,0,0,0a1.16,1.16,0,0,1-.32,0Z" fill="#fff"/><path d="M55.38,102v-.11h.21l.09,0s0,0,0,0A.92.92,0,0,1,55.38,102Z" fill="#fff"/><path d="M55.72,100.86v0a.78.78,0,0,1-.34,0v-.11A1,1,0,0,1,55.72,100.86Z" fill="#fff"/><path d="M55.38,101.46v-.11h.21l.1,0s0,0,0,.05A1,1,0,0,1,55.38,101.46Z" fill="#fff"/><path d="M55.38,99.11V99h.1a1.81,1.81,0,0,1,.23,0s0,0,0,0,0,0,0,0a.76.76,0,0,1-.21,0Z" fill="#fff"/></g><g id="ferMqf-9" data-name="ferMqf"><path d="M55.91,105.19v.11a1,1,0,0,1-.34,0v0A.78.78,0,0,1,55.91,105.19Z" fill="#fff"/><path d="M55.91,107.8v.1h0a.65.65,0,0,1-.24,0h-.07s0,0,0,0,0,0,0,0a.87.87,0,0,1,.32,0Z" fill="#fff"/><path d="M55.91,105.71v.11a1,1,0,0,1-.34,0v-.05A1,1,0,0,1,55.91,105.71Z" fill="#fff"/><path d="M55.57,107.09v0l.07,0a1.06,1.06,0,0,1,.25,0h0v.1A1,1,0,0,1,55.57,107.09Z" fill="#fff"/><path d="M55.91,106.23v.11a.62.62,0,0,1-.27,0h0s0,0,0,0h0A.78.78,0,0,1,55.91,106.23Z" fill="#fff"/><path d="M55.57,106.79a1,1,0,0,1,.34,0v.11h0a.74.74,0,0,1-.26,0h0s0,0,0,0Z" fill="#fff"/><path d="M55.57,107.31a.78.78,0,0,1,.34,0v.11a.69.69,0,0,1-.25,0h-.07s0,0,0,0Z" fill="#fff"/><path d="M55.4,107.77v-.1h0a.86.86,0,0,1,.28,0h0s0,0,0,0,0,0,0,0A.9.9,0,0,1,55.4,107.77Z" fill="#fff"/><path d="M55.4,108.05v-.11h0a.88.88,0,0,1,.28,0h0s0,0,0,0,0,0,0,0A.91.91,0,0,1,55.4,108.05Z" fill="#fff"/><path d="M55.91,107.54v.11a1,1,0,0,1-.34,0h0s0,0,0,0A1.06,1.06,0,0,1,55.91,107.54Z" fill="#fff"/><path d="M55.4,106.09h.19l.11,0s0,0,0,.06a1.31,1.31,0,0,1-.34,0Z" fill="#fff"/><path d="M55.4,106.62a.8.8,0,0,1,.34,0h0s0,0,0,0a.86.86,0,0,1-.28,0h0Z" fill="#fff"/><path d="M55.4,105.43v-.11a.8.8,0,0,1,.34,0v0s0,0,0,0A1.23,1.23,0,0,1,55.4,105.43Z" fill="#fff"/><path d="M55.4,107.14h.06a1.09,1.09,0,0,1,.26,0l0,0s0,0,0,0a.56.56,0,0,1-.22,0,.27.27,0,0,1-.09,0,0,0,0,0,1,0,0Z" fill="#fff"/><path d="M55.57,106.53a.78.78,0,0,1,.34,0v.11a1,1,0,0,1-.34,0Z" fill="#fff"/><path d="M55.91,106v.11a1,1,0,0,1-.34,0v0A1,1,0,0,1,55.91,106Z" fill="#fff"/><path d="M55.4,106v-.11a1,1,0,0,1,.34,0h0s0,0,0,0h0A.78.78,0,0,1,55.4,106Z" fill="#fff"/><path d="M55.91,105.45v.11a.78.78,0,0,1-.34,0v0A1,1,0,0,1,55.91,105.45Z" fill="#fff"/><path d="M55.74,105.65a1,1,0,0,1-.34,0v-.12a.34.34,0,0,0,.1,0,1.52,1.52,0,0,1,.21,0S55.74,105.61,55.74,105.65Z" fill="#fff"/><path d="M55.4,106.47v-.11a1,1,0,0,1,.25,0l.08,0s0,0,0,0,0,0,0,0a.85.85,0,0,1-.32,0Z" fill="#fff"/><path d="M55.74,106.92v0a1,1,0,0,1-.34,0v-.11A1,1,0,0,1,55.74,106.92Z" fill="#fff"/><path d="M55.4,107.51v-.11h.2l.1,0s0,0,0,0A1,1,0,0,1,55.4,107.51Z" fill="#fff"/><path d="M55.4,105.17v-.12h.09a2,2,0,0,1,.24,0s0,0,0,0,0,0,0,0a1.2,1.2,0,0,1-.2,0A.48.48,0,0,0,55.4,105.17Z" fill="#fff"/></g><g id="ferMqf-10" data-name="ferMqf"><path d="M55.4,108.19v.11a1,1,0,0,0,.34,0v0A.78.78,0,0,0,55.4,108.19Z" fill="#fff"/><path d="M55.4,108.71v.11a1,1,0,0,0,.34,0v-.05A1,1,0,0,0,55.4,108.71Z" fill="#fff"/><path d="M55.74,110.09v0l-.07,0a1.06,1.06,0,0,0-.25,0h0v.1A.78.78,0,0,0,55.74,110.09Z" fill="#fff"/><path d="M55.4,109.23v.11a.62.62,0,0,0,.27,0h0s0,0,0,0h0A1,1,0,0,0,55.4,109.23Z" fill="#fff"/><path d="M55.74,109.79a1,1,0,0,0-.34,0v.11h0a1.1,1.1,0,0,0,.26,0h0s0,0,0,0Z" fill="#fff"/><path d="M55.91,109.09h-.19l-.11,0s0,0,0,.06a1,1,0,0,0,.34,0Z" fill="#fff"/><path d="M55.91,109.62a.8.8,0,0,0-.34,0h0s0,0,0,0a.86.86,0,0,0,.28,0h0Z" fill="#fff"/><path d="M55.91,108.43v-.11a.8.8,0,0,0-.34,0v0s0,0,0,0A1.12,1.12,0,0,0,55.91,108.43Z" fill="#fff"/><path d="M55.74,109.53a1,1,0,0,0-.34,0v.11a1,1,0,0,0,.34,0Z" fill="#fff"/><path d="M55.4,109v.11a1,1,0,0,0,.34,0v0A1,1,0,0,0,55.4,109Z" fill="#fff"/><path d="M55.91,109v-.11a1,1,0,0,0-.34,0h0s0,0,0,0h0A.78.78,0,0,0,55.91,109Z" fill="#fff"/><path d="M55.4,108.45v.11a.78.78,0,0,0,.34,0v0A1,1,0,0,0,55.4,108.45Z" fill="#fff"/><path d="M55.57,108.65a1,1,0,0,0,.34,0v-.11h-.1a1.52,1.52,0,0,0-.21,0S55.57,108.61,55.57,108.65Z" fill="#fff"/><path d="M55.91,109.47v-.11a1,1,0,0,0-.25,0l-.08,0s0,0,0,0,0,0,0,0a.85.85,0,0,0,.32,0Z" fill="#fff"/><path d="M55.57,109.92v0a1,1,0,0,0,.34,0v-.11A1,1,0,0,0,55.57,109.92Z" fill="#fff"/><path d="M55.91,108.17v-.12h-.09a1.6,1.6,0,0,0-.23,0s0,0,0,0,0,0,0,0a1.2,1.2,0,0,0,.2,0Z" fill="#fff"/></g></g></g><path d="M68.1,68.63H62.79a.67.67,0,0,0-.66.67v6a.67.67,0,0,0,.66.66H68.1a.66.66,0,0,0,.66-.66v-6a.66.66,0,0,0-.66-.67m.29,6.71a.29.29,0,0,1-.29.29H62.79a.29.29,0,0,1-.29-.29v-6a.29.29,0,0,1,.29-.3H68.1a.29.29,0,0,1,.29.3Z" fill="#79589f"/><polygon points="63.79 74.89 64.62 74.16 63.79 73.42 63.79 74.89" fill="#79589f"/><path d="M66.78,71.91a1.16,1.16,0,0,0-.87-.33,4.59,4.59,0,0,0-1.38.25V69.74h-.74v3.19l.52-.23a4.5,4.5,0,0,1,1.6-.38c.37,0,.45.2.46.37v2.2h.73V72.68a1.13,1.13,0,0,0-.32-.77" fill="#79589f"/><path d="M65.82,70.93h.73a2.07,2.07,0,0,0,.55-1.19h-.73a3,3,0,0,1-.55,1.19" fill="#79589f"/><path d="M44.93,55.59a22.8,22.8,0,0,1,1.32,4c1.5,5.31-1,7.11.18,13.33l.44-.41s.31-5,.88-9c.53-3.68-1.41-7.69-1.58-8.26S44.93,54,44.93,55.59Z" fill="#fff"/><path d="M65.49,55.59a22.8,22.8,0,0,0-1.32,4c-1.5,5.31,1,7.11-.18,13.33l-.44-.41s-.31-5-.88-9c-.53-3.68,1.41-7.69,1.58-8.26S65.49,54,65.49,55.59Z" fill="#fff"/></g></svg>