<svg xmlns="http://www.w3.org/2000/svg" width="110" height="194" viewBox="0 0 110 194"><title>landian-21-hair</title><g id="hair"><path d="M68.21,28.72a2.73,2.73,0,0,0,.19-.57,2.22,2.22,0,0,0-1.27-2.45s0-.08,0-.12a3.61,3.61,0,0,0-3.86-3.29,4.4,4.4,0,0,0-1.94.46,1.83,1.83,0,0,0-1.65-1.16,1.88,1.88,0,0,0-1.77,1.55,4,4,0,0,0-3.26-1.55,3.72,3.72,0,0,0-3.79,2.74,2.51,2.51,0,0,0-.62-.09A2.28,2.28,0,0,0,48,25.91a4.35,4.35,0,0,0-.59.25,2.84,2.84,0,0,0-.5-.06,3.16,3.16,0,0,0-3,3.29c0,.12,0,.23,0,.35a1.67,1.67,0,0,0-.63.58,1.78,1.78,0,0,0,.45,2.27,4,4,0,0,0-3,1.93,3.48,3.48,0,0,0,.91,4.91,3.28,3.28,0,0,0,2.87.15l0,1.33.06.21.48.3.94.47s.07-1.59.24-3.65c.09-.11.18-.22.26-.34a4,4,0,0,0,.61-2.1,2.91,2.91,0,0,0,1.43-1.12s1.38.58,2.74-1.24a2.44,2.44,0,0,0,.51-2,20.24,20.24,0,0,0,3.45.3,21.3,21.3,0,0,0,4.48-.45,2.86,2.86,0,0,0-.21,1.06A3,3,0,0,0,62,35.18a2.82,2.82,0,0,0-.08.65,2.93,2.93,0,0,0,2.13,2.79c.15,1.87.21,3.27.21,3.27l.93-.46.49-.31s0-.08.07-.23l0-2.26a3.12,3.12,0,0,0,.77-.34l.1,0A2,2,0,0,0,69,36.93a1.62,1.62,0,0,0-.47-1.44,4,4,0,0,0,1.78-2.65A3.62,3.62,0,0,0,68.21,28.72Z"/></g></svg>