<svg xmlns="http://www.w3.org/2000/svg" width="110" height="194" viewBox="0 0 110 194"><title>landian-08-hair</title><g id="hair"><path d="M54.39,36.27c-.37.28-2.37-1.42-3-.26a16.62,16.62,0,0,0-1.66,3.33c-1,3.34-1.71,5.26-2.78,10.22-.58,2.67-1.16,3.78-2.83,5.31-.68.62.86,2.82.22,4.19-.39.83-2.17,2.81-3.85,3-1.13.17-2.12-1.79-2.12-1.79-.4-1.54-1.29-3.45-.7-5.11.36-1,1.7-3.56,2-5.35.22-1.42-.36-2.79,0-5,1.39-8.75,7.88-13.92,15.71-13.08C55.42,31.78,56,35.08,54.39,36.27Z" fill="#603813"/><path d="M54.22,36.27c.37.28,2.38-1.42,3-.26a17.1,17.1,0,0,1,1.67,3.33c1,3.34,1.71,5.26,2.78,10.22a9.4,9.4,0,0,0,2.82,5.31c.66.66-.85,2.82-.21,4.19.39.83,2.17,2.81,3.85,3,1.13.17,2.11-1.79,2.11-1.79.41-1.54,1.29-3.45.71-5.11-.36-1-1.7-3.56-2-5.35-.23-1.42.35-2.79,0-5C67.52,36.11,61,30.94,53.2,31.78,53.2,31.78,52.67,35.08,54.22,36.27Z" fill="#603813"/><path d="M45.17,53.06s-1.79,3,.65,7.7c0,0,1.68,4.23,0,11.18,0,0-.46,3.31-1.56,4.58A4.55,4.55,0,0,1,39.79,78a5,5,0,0,0,1.74-3.94,11.09,11.09,0,0,0-1.16-3.71A10.22,10.22,0,0,1,38.17,61a9.2,9.2,0,0,0-.29-3.71s-.76-1.39,1.91-5.1a3.6,3.6,0,0,0,.75-2S45.22,50.93,45.17,53.06Z" fill="#603813"/><path d="M63.65,53.06s1.78,3-.65,7.7c0,0-1.68,4.23-.06,11.18,0,0,.46,3.31,1.56,4.58A4.57,4.57,0,0,0,69,78a4.92,4.92,0,0,1-1.74-3.94,10.85,10.85,0,0,1,1.16-3.71A10.22,10.22,0,0,0,70.65,61a9.2,9.2,0,0,1,.29-3.71s.75-1.39-1.91-5.1a3.57,3.57,0,0,1-.76-2S63.6,50.93,63.65,53.06Z" fill="#603813"/></g></svg>