<svg xmlns="http://www.w3.org/2000/svg" width="110" height="194" viewBox="0 0 110 194"><title>landian-30</title><g id="landians"><path d="M38.73,185.7c2.92-1.12-12.89,4.33-14.46,4.7s-2,3.06-1.15,3.13,23.33.61,25.05.43,5.66.79,3-3.47C45.47,181.1,35.81,186.82,38.73,185.7Z" fill="#221f1f"/><path d="M36.79,186.27s3.53-13.28,1.69-42.45c-.46-7.3,12.21-9,13.14.37a276.74,276.74,0,0,1,.54,48.8S47,187.54,36.79,186.27Z" fill="#cdb17b"/><path d="M38.58,143.14C37.22,122.67,38.45,100.35,40,96c1.31-3.68,8-4.06,11.18-3.72s4.82,12.4,3.73,15.84c-2.17,6.83-4,26.4-3.32,35.57.24,3-3.85,6.06-6.23,6C43.56,149.61,38.85,147.33,38.58,143.14Z" fill="#cdb17b"/><path d="M71.27,185.7c-2.92-1.12,12.89,4.33,14.46,4.7s2,3.06,1.15,3.13-23.33.61-25,.43-5.66.79-3-3.47C64.53,181.1,74.19,186.82,71.27,185.7Z" fill="#221f1f"/><path d="M73.21,186.27S69.68,173,71.52,143.82c.46-7.3-12.21-9-13.14.37a276.74,276.74,0,0,0-.54,48.8S63,187.54,73.21,186.27Z" fill="#cdb17b"/><path d="M71.42,143.14c1.36-20.47.13-42.79-1.43-47.18C68.68,92.28,62,91.9,58.81,92.24s-4.82,12.4-3.73,15.84c2.17,6.83,4,26.4,3.32,35.57-.24,3,3.85,6.06,6.23,6C66.44,149.61,71.15,147.33,71.42,143.14Z" fill="#cdb17b"/><path d="M35,53.24S25,75.79,24.58,83.17c-.11,2.14.34,4.87,3.4,5.43s4.18-.52,4.52-1.43,8.7-24.77,9.38-26.7,0-6.1-1-7.46S36,50.64,35,53.24Z" fill="#733ec6"/><path d="M64.41,47c-4.76-1.59-5-7.48-5-7.48l-9,.34s-.23,5.89-5,7.48L55,75.67Z" fill="#b9805b"/><path d="M54.88,59.59S61.55,50.86,61.57,45a19.8,19.8,0,0,0,5.78,3.17c3.17,1,6.79,2.27,7.7,5.1,0,0-4,11.3-4.53,12.8-3.33,9.74.71,21.85-.79,34.79-.92,7.92-15,.11-15,.11Z" fill="#733ec6"/><path d="M55.12,59.59s-6-9.41-6.35-14.62a24.92,24.92,0,0,1-6.12,3.17c-3.17,1-6.79,2.27-7.7,5.1,0,0,4,11.3,4.53,12.8,3.33,9.74-.71,21.85.79,34.79.92,7.92,15,.11,15,.11Z" fill="#733ec6"/><path d="M54.89,59.59v41.35H57l.12-39.09S62,53.41,62.65,51.2l-2.89-.34S57,56.92,54.89,59.59Z" fill="#ab8ecd"/><circle cx="59.53" cy="54.83" r="0.73" fill="#fff"/><circle cx="55.91" cy="61.51" r="0.73" fill="#fff"/><circle cx="55.91" cy="67.74" r="0.73" fill="#fff"/><circle cx="55.91" cy="73.98" r="0.73" fill="#fff"/><circle cx="55.91" cy="80.21" r="0.73" fill="#fff"/><circle cx="55.91" cy="86.44" r="0.73" fill="#fff"/><circle cx="55.91" cy="92.67" r="0.73" fill="#fff"/><path d="M48.77,45,45.23,47l-1.44,6.77s6-3.29,7.36-1.25Z" fill="#ab8ecd"/><path d="M61.57,45,65.12,47l1.44,6.77s-6-3.29-7.36-1.25Z" fill="#ab8ecd"/><path d="M40.09,94.19c12.74,5.59,30.45.53,30.45.53l.61,14.6s-15.3,6.29-31.78,0C39.37,109.32,39.16,96.06,40.09,94.19Z" fill="#cdb17b"/><path d="M46.46,28.92s-1.92-2.29-3.89-.38,1.62,6.66,4,7.42S46.46,28.92,46.46,28.92Z" fill="#ca9067"/><path d="M63.59,28.67s1.85-2.34,3.88-.49-1.42,6.71-3.78,7.54S63.59,28.67,63.59,28.67Z" fill="#ca9067"/><path d="M34.65,106.52s-1.14-21.28-1.58-23.29a4.6,4.6,0,0,0-3.66-3.82c-2.27-.7-3.35,1.26-3.64,2.63-1.75,8.18,2.4,20.39,2.31,24.39s-3.15,10.16-2.73,12.64,3,5.78,3.89,5.7,4-2.85,4.14-10.46c0,0,1.4,2.77,2.64,2.13S35,108.41,34.65,106.52Z" fill="#ca9067"/><path d="M75.29,53.24s10,22.55,10.36,29.93c.11,2.14-.34,4.87-3.4,5.43s-4.18-.52-4.52-1.43S69,62.4,68.36,60.47s0-6.1,1-7.46S74.27,50.64,75.29,53.24Z" fill="#733ec6"/><path d="M75.58,106.52s1.14-21.28,1.59-23.29a4.59,4.59,0,0,1,3.65-3.82c2.27-.7,3.35,1.26,3.64,2.63,1.75,8.18-2.4,20.39-2.3,24.39s3.14,10.16,2.72,12.64-3,5.78-3.89,5.7-4-2.85-4.14-10.46c0,0-1.4,2.77-2.64,2.13S75.24,108.41,75.58,106.52Z" fill="#ca9067"/></g><g id="face"><path d="M55.47,43.59c-4.93.07-11.51-6.36-11.63-14.41S43.53,14,55,13.93c13.16-.1,11.51,6.88,11.63,14.93S60.41,43.52,55.47,43.59" fill="#ca9067"/><ellipse cx="50.61" cy="28.19" rx="1.23" ry="1.93" transform="matrix(1, -0.02, 0.02, 1, -0.45, 0.82)" fill="#0e090a"/><ellipse cx="60.48" cy="28.05" rx="1.23" ry="1.93" transform="translate(-0.44 0.98) rotate(-0.92)" fill="#0e090a"/><path d="M59.66,35.79l-4.38,1.1-4.59-1a32.08,32.08,0,0,1,4.44-.45A25.22,25.22,0,0,1,59.66,35.79Z" fill="#ba805a"/><path d="M50.69,35.94a16.94,16.94,0,0,0,9-.15,5.13,5.13,0,0,1-4.42,2.52A4.73,4.73,0,0,1,50.69,35.94Z" fill="#a56a49"/></g><g id="hair"><path d="M66.92,18.39v9.36l-1.8,1.08a48.39,48.39,0,0,0,.21-5.25c-.06-2.87-.45-6-1.83-7.09-1.07-.82-4.57,0-8.26,1.42-3.69-1.38-7.19-2.24-8.26-1.42-1.38,1.05-1.77,4.22-1.82,7.09a47,47,0,0,0,.2,5.25l-1.62-.91-.18-.17V18.39s.77-3.72,2.74-4.24a7.52,7.52,0,0,1,6.27-4.9c.17,0,5.36-.58,5.53-.57,4.86.49,6.08,5.47,6.08,5.47C66.16,14.67,66.92,18.39,66.92,18.39Z" fill="#572512"/></g></svg>