<svg xmlns="http://www.w3.org/2000/svg" width="110" height="194" viewBox="0 0 110 194"><title>landian-19-hair</title><g id="hair"><path d="M68.76,26.32c1.1-.8.61-3.92.61-3.92-3.87,3-3.52,2.72-9.33-1.49S48.85,20.2,44.38,23c-2.81,1.74-1.57,4.4-.25,6.15a12.18,12.18,0,0,0-.49,1.17v0c-.51,3.22,0,9.74,0,9.74l1.8,1.13a50.93,50.93,0,0,1-.2-5.47,22.5,22.5,0,0,1,.55-4.94c1.28-4.12,4.62-1.21,10.09,0a19,19,0,0,0,8.87-.34,20.39,20.39,0,0,1,0,10.78l2.06-1.48s1.44-6.49.26-9.39v0c0-.08-.1-.28-.22-.57a7.57,7.57,0,0,0,.75-.32c1-.31,2.7-3.65,2.7-3.65Z" fill="#fddc0d"/></g></svg>