<svg xmlns="http://www.w3.org/2000/svg" width="110" height="194" viewBox="0 0 110 194"><title>landian-14-face</title><g id="face"><ellipse cx="54.69" cy="39.91" rx="11.05" ry="15.16" fill="#e4b88b"/><ellipse cx="49.13" cy="41.83" rx="1.3" ry="2.11" transform="translate(-0.61 0.73) rotate(-0.85)" fill="#0c0506"/><ellipse cx="59.52" cy="41.67" rx="1.3" ry="2.11" transform="translate(-0.61 0.88) rotate(-0.85)" fill="#0c0506"/><path d="M58.35,49.08l-3.6.9L51,49.2a26.85,26.85,0,0,1,3.65-.37A20.38,20.38,0,0,1,58.35,49.08Z" fill="#dd858c"/><path d="M51,49.2a20.23,20.23,0,0,0,7.38-.12,4.23,4.23,0,0,1-3.64,2.08A3.9,3.9,0,0,1,51,49.2Z" fill="#c46570"/></g></svg>