<svg xmlns="http://www.w3.org/2000/svg" width="110" height="194" viewBox="0 0 110 194"><title>landian-25-hair</title><g id="hair"><path d="M60.38,20.33c.15-.9-.72-2.16-3.43-2.21C42.1,17.84,41.61,31.93,44.26,34.4s6-4.23,6-4.23c.42.35,0,1.54,0,1.54a6.56,6.56,0,0,0,2.58-3.22c.55-.07,0,1.82,0,1.82,1.29-.63,2.47-2.52,3.25-4C56.71,27.49,58,29.77,59,29.9c0,0-1-1.7,0-2.21,0,0,.79,1.78,1.67,1.72,0,0-.82-1.27,0-1.33s6.86,5.79,7.26,9.53c.12,1.06.65,1.65,1,.07C70.73,30.52,71.18,19.56,60.38,20.33Z" fill="#572512"/></g></svg>