<svg xmlns="http://www.w3.org/2000/svg" xmlns:xlink="http://www.w3.org/1999/xlink" width="110" height="194" viewBox="0 0 110 194"><defs><linearGradient id="New_Gradient_Swatch_4" x1="45.72" y1="152.13" x2="46.66" y2="187.06" gradientUnits="userSpaceOnUse"><stop offset="0" stop-color="#2c3b4c"/><stop offset="0.21" stop-color="#293747"/><stop offset="0.46" stop-color="#212c38"/><stop offset="0.73" stop-color="#131920"/><stop offset="1"/></linearGradient><linearGradient id="New_Gradient_Swatch_4-2" x1="65.52" y1="144.57" x2="62.71" y2="185.42" xlink:href="#New_Gradient_Swatch_4"/></defs><title>landian-27</title><g id="landians"><path d="M39.5,105.81c11.83,5.19,33.23,1.34,33.23,1.34L73,120.71s-19.54,5.14-34.84-.7C38.12,120,37.94,108.78,39.5,105.81Z" fill="#2c3b4c"/><path d="M35.47,63S25.69,83.32,24.91,90.13c-.23,2-.07,4.53,2.26,5.23s3.55-2.7,3.87-3.52,7.85-20,8.5-21.75,1.2-5.61.5-6.93S36.43,60.68,35.47,63Z" fill="#d69471"/><path d="M35.76,60.9a128.14,128.14,0,0,0-9.67,17.93s3.59,5.62,9.67,5.3c0,0,4.84-10.44,5.15-14.34S40.91,60.59,35.76,60.9Z" fill="#410099"/><path d="M31.24,112.55s-.38-19.11-.69-20.93a3.91,3.91,0,0,0-2.83-3.48c-1.81-.65-2.72,1.09-3,2.32-1.61,7.32,1.41,18.34,1.23,21.93s-2.78,9.07-2.5,11.3,2.27,5.23,3,5.18,3.26-2.51,3.58-9.34c0,0,1.06,2.5,2.07,1.94S31.47,114.26,31.24,112.55Z" fill="#d69471"/><path d="M43.49,185.73s-1.18-10.07-4.61-40.63c-.76-6.74,13-7.86,13.34.86.69,19.41-1.18,42.88-1.18,42.88S49.73,186,43.49,185.73Z" fill="url(#New_Gradient_Swatch_4)"/><path d="M38.82,144.31a370.74,370.74,0,0,1-.72-39.91c.14-3.63,8.42-6.23,12.16-4.36,2.7,1.35,6.94,11.15,5.93,14.34-2,6.35-4.71,21.77-4,30.29.22,2.83-3.58,5.63-5.78,5.58C44.68,150.21,39.08,148.2,38.82,144.31Z" fill="#2c3b4c"/><path d="M67.51,185.73s1.18-10.07,4.61-40.63c.76-6.74-13-7.86-13.34.86C58.09,165.37,60,188.84,60,188.84S61.27,186,67.51,185.73Z" fill="url(#New_Gradient_Swatch_4-2)"/><path d="M72.18,144.31a370.74,370.74,0,0,0,.72-39.91c-.14-3.63-8.42-6.23-12.16-4.36-2.7,1.35-6.94,11.15-5.93,14.34,2,6.35,4.71,21.77,4,30.29-.22,2.83,3.58,5.63,5.78,5.58C66.32,150.21,71.92,148.2,72.18,144.31Z" fill="#2c3b4c"/><path d="M75.91,63.07s9.31,20.5,9.94,27.33c.18,2,0,4.53-2.39,5.17S80,92.79,79.67,92s-7.38-20.19-8-22-1.07-5.63-.34-6.93S75,60.7,75.91,63.07Z" fill="#d69471"/><path d="M75.24,60.9a128.14,128.14,0,0,1,9.67,17.93s-3.59,5.62-9.67,5.3c0,0-4.84-10.44-5.15-14.34S70.09,60.59,75.24,60.9Z" fill="#410099"/><path d="M64.25,57.45c-4.42-1.48-4.63-7-4.63-7l-8.31.32s-.21,5.47-4.63,6.94l8.84,26.3Z" fill="#cc8969"/><path d="M72.57,75.89c.3-1.44,3.11-14.32,3.11-14.32-.84-2.62-5.92-2.68-8.86-3.63a27.52,27.52,0,0,1-5.29-2.38s.69,7.08-6.2,7.08-5.82-6.87-5.82-6.87A49.25,49.25,0,0,1,44,57.94c-3,1-7.84.52-9.05,4.52,0,0,3.05,12,3.29,13.43,2.34,14,.64,16-1.2,29.92-.47,3.56,18.32,3.43,18.32,3.43s18.43.16,18.42-3.43C73.79,93.51,69.06,92.73,72.57,75.89Z" fill="#410099"/><path d="M79,112.67s.81-19.11,1.16-20.91a3.89,3.89,0,0,1,2.91-3.41c1.82-.62,2.7,1.14,2.94,2.38,1.44,7.35-1.83,18.3-1.73,21.89s2.57,9.14,2.24,11.36-2.38,5.18-3.09,5.11-3.21-2.58-3.38-9.42c0,0-1.11,2.48-2.1,1.9S78.74,114.37,79,112.67Z" fill="#d69471"/><path d="M47.42,39.88s-1.86-2.3-3.76-.38,1.57,6.68,3.87,7.44S47.42,39.88,47.42,39.88Z" fill="#d69471"/><path d="M64,39.63s1.79-2.35,3.75-.49-1.38,6.72-3.66,7.55S64,39.63,64,39.63Z" fill="#d69471"/><path d="M52.37,184.63c-.08,1.8-.11,3.63-.19,5.14-3.38-4.85-8-4.33-9.75-3.72-.11-1-.24-2.05-.37-3.22A13.5,13.5,0,0,1,52.37,184.63Z" fill="#7894a6"/><path d="M69.05,182.83c-.14,1.18-.26,2.25-.37,3.23-1.76-.62-6.29-1.33-9.68,3.5-.09-1.5-.18-3.16-.27-4.95A13.56,13.56,0,0,1,69.05,182.83Z" fill="#7894a6"/><path d="M42.08,186.29c2.5-1-11,4-12.38,4.36s-1.71,2.85-1,2.92,20,.56,21.44.39,4.85.74,2.62-3.22C47.85,182,39.58,187.33,42.08,186.29Z" fill="#603917"/><path d="M68.92,186.29c-2.5-1,11,4,12.38,4.36s1.71,2.85,1,2.92-20,.56-21.44.39-4.85.74-2.62-3.22C63.15,182,71.42,187.33,68.92,186.29Z" fill="#603917"/><path d="M60.76,71.05H51.05a1.22,1.22,0,0,0-1.22,1.21V83.32a1.22,1.22,0,0,0,1.22,1.22h9.71A1.22,1.22,0,0,0,62,83.32V72.26a1.22,1.22,0,0,0-1.22-1.21m.54,12.27a.54.54,0,0,1-.54.54H51.05a.54.54,0,0,1-.54-.54V72.26a.54.54,0,0,1,.54-.54h9.71a.54.54,0,0,1,.54.54Z" fill="#fff"/><polygon points="52.87 82.52 54.39 81.17 52.87 79.82 52.87 82.52" fill="#fff"/><path d="M58.35,77.05a2.14,2.14,0,0,0-1.6-.61,8.46,8.46,0,0,0-2.53.46V73.07H52.87v5.85l1-.43a8.43,8.43,0,0,1,2.93-.7c.68,0,.84.38.84.7v4h1.35v-4a2.1,2.1,0,0,0-.59-1.42" fill="#fff"/><path d="M56.58,75.26h1.35a3.92,3.92,0,0,0,1-2.19H57.59a5.19,5.19,0,0,1-1,2.19" fill="#fff"/></g><g id="face"><path d="M66.94,39.82c.12,8.06-6,14.7-10.81,14.77S45,48.21,44.88,40.14s-.29-15.2,10.82-15.29C68.42,24.75,66.82,31.75,66.94,39.82Z" fill="#d69471"/><ellipse cx="51.43" cy="39.15" rx="1.19" ry="1.94" transform="translate(-0.57 0.76) rotate(-0.85)" fill="#0e090a"/><ellipse cx="60.97" cy="39.01" rx="1.19" ry="1.94" transform="translate(-0.57 0.91) rotate(-0.85)" fill="#0e090a"/><path d="M51.23,46.53l9.19-.12a4.07,4.07,0,0,1-4.25,3.82C51.63,50.29,51.23,46.53,51.23,46.53Z" fill="#fff"/><path d="M50.9,41.71h0a3.78,3.78,0,0,1-3.78-3.78v-.55a.79.79,0,0,1,.79-.78h5.55a.78.78,0,0,1,.78.78v1A3.34,3.34,0,0,1,50.9,41.71Z" fill="none" stroke="#544741" stroke-linecap="round" stroke-linejoin="round" stroke-width="0.6"/><path d="M61.35,36.6h0a3.34,3.34,0,0,1,3.34,3.34v1a.78.78,0,0,1-.78.78H58.35a.78.78,0,0,1-.78-.78v-.55A3.78,3.78,0,0,1,61.35,36.6Z" transform="translate(122.25 78.3) rotate(180)" fill="none" stroke="#544741" stroke-linecap="round" stroke-linejoin="round" stroke-width="0.6"/><line x1="54.24" y1="37.27" x2="57.57" y2="37.27" fill="none" stroke="#544741" stroke-linecap="round" stroke-linejoin="round" stroke-width="0.6"/></g></svg>