<svg xmlns="http://www.w3.org/2000/svg" width="110" height="194" viewBox="0 0 110 194"><title>landian-03-hair</title><g id="hair"><path d="M44.9,51.33c.58-.43.62-.77.93-2,.23-.93.46-1.68.85-3.6.35-1.7.5-3.82.93-4,.89-.49,1.89,1.08,5.56,2.59.6.24,6.11,2.47,9.54,3.94s-1,11.9-1,11.9a12.23,12.23,0,0,0,4.52-1.74c1-.82,1.24-2.71,1.51-4,.15-.73.48-5,.46-5.26a27.74,27.74,0,0,0-2.59-11.47c-1.74-3.52-5.16-5.45-11.86-5.56a13.55,13.55,0,0,0-11.36,5.79,13.54,13.54,0,0,0-1.62,5.53c-.08,2.78.47,5.49,1.93,5.13C44.63,48.08,44.9,51.33,44.9,51.33Z" fill="#6c4b29"/></g></svg>