<svg xmlns="http://www.w3.org/2000/svg" width="110" height="194" viewBox="0 0 110 194"><title>landian-27-face</title><g id="face"><path d="M66.94,39.82c.12,8.06-6,14.7-10.81,14.77S45,48.21,44.88,40.14s-.29-15.2,10.82-15.29C68.42,24.75,66.82,31.75,66.94,39.82Z" fill="#d69471"/><ellipse cx="51.43" cy="39.15" rx="1.19" ry="1.94" transform="translate(-0.57 0.76) rotate(-0.85)" fill="#0e090a"/><ellipse cx="60.97" cy="39.01" rx="1.19" ry="1.94" transform="translate(-0.57 0.91) rotate(-0.85)" fill="#0e090a"/><path d="M51.23,46.53l9.19-.12a4.07,4.07,0,0,1-4.25,3.82C51.63,50.29,51.23,46.53,51.23,46.53Z" fill="#fff"/><path d="M50.9,41.71h0a3.78,3.78,0,0,1-3.78-3.78v-.55a.79.79,0,0,1,.79-.78h5.55a.78.78,0,0,1,.78.78v1A3.34,3.34,0,0,1,50.9,41.71Z" fill="none" stroke="#544741" stroke-linecap="round" stroke-linejoin="round" stroke-width="0.6"/><path d="M61.35,36.6h0a3.34,3.34,0,0,1,3.34,3.34v1a.78.78,0,0,1-.78.78H58.35a.78.78,0,0,1-.78-.78v-.55a3.78,3.78,0,0,1,3.78-3.78Z" transform="translate(122.25 78.3) rotate(180)" fill="none" stroke="#544741" stroke-linecap="round" stroke-linejoin="round" stroke-width="0.6"/><line x1="54.24" y1="37.27" x2="57.57" y2="37.27" fill="none" stroke="#544741" stroke-linecap="round" stroke-linejoin="round" stroke-width="0.6"/></g></svg>