<svg xmlns="http://www.w3.org/2000/svg" width="110" height="194" viewBox="0 0 110 194"><title>landian-13-face</title><g id="face"><ellipse cx="54.48" cy="51.92" rx="10.57" ry="14.53" fill="#fcdab5"/><ellipse cx="49.15" cy="53.76" rx="1.24" ry="2.02" transform="translate(-0.79 0.73) rotate(-0.85)" fill="#0c0506"/><ellipse cx="59.1" cy="53.61" rx="1.24" ry="2.02" transform="translate(-0.78 0.88) rotate(-0.85)" fill="#0c0506"/><path d="M58,60.71l-3.45.87-3.62-.75a25.66,25.66,0,0,1,3.5-.36A20.21,20.21,0,0,1,58,60.71Z" fill="#9e2528"/><path d="M50.91,60.83A13.35,13.35,0,0,0,58,60.71a4.06,4.06,0,0,1-3.48,2A3.75,3.75,0,0,1,50.91,60.83Z" fill="#d4212d"/></g></svg>