<svg xmlns="http://www.w3.org/2000/svg" width="110" height="194" viewBox="0 0 110 194"><title>landian-16-hair</title><g id="hair"><path d="M70.17,65.51c1.21-.76,1.37-2.89,1.12-4a5.69,5.69,0,0,0-1.67-3.32,1.27,1.27,0,0,1-.45-1.67,6.74,6.74,0,0,0,.45-2.75,21.51,21.51,0,0,0-.91-5.09c-.32-.82-1.47-3.25-1.88-4-.52-1-.82-1.57-1.11-2-1.64-2.88-4.56-5.42-9.75-5.51s-8.44,1.69-10.38,4.26h0a14,14,0,0,0-1.33,2,14.94,14.94,0,0,0-1.11,2.17c-.51,1.05-1.2,2.53-1.43,3.13a21.89,21.89,0,0,0-.92,5.09,7.1,7.1,0,0,0,.45,2.75,1.26,1.26,0,0,1-.45,1.67,5.72,5.72,0,0,0-1.66,3.32c-.26,1.08-.1,3.21,1.12,4a4.48,4.48,0,0,1,2,2.21,2.56,2.56,0,0,1-.74,2.35,4.39,4.39,0,0,0-1.23,2.4,3.26,3.26,0,0,0,.73,2.9,5,5,0,0,0,2.17,1.74c.58.28,1,.61,1.7.92s1.15.74.38,1.35a2.38,2.38,0,0,1-.93.39c-.7.47-.37.88.93.66s1.59-.27,2.09-1.05A1.28,1.28,0,0,0,47,77.57c-.66-.56-2-2.13-1.7-2.94s.62-.89,1.74-2.24a7.36,7.36,0,0,0,1.62-3c.52-2.11-.41-2.55-1-4.64a41.49,41.49,0,0,1-1-4.13c-.19-1.7-.49-3.3.18-4.91,1-2.5,3.58-12,3.58-12h0A2.7,2.7,0,0,1,53,42.47c1,0,1.05,3.77,5.3,7.32.48.4,3.59,2.38,4.25,2.84.39,1.28.76,2.39,1,3,.66,1.61.37,3.21.17,4.91a41.23,41.23,0,0,1-1,4.13c-.6,2.09-1.52,2.53-1,4.64a7.36,7.36,0,0,0,1.62,3c1.12,1.35,1.43,1.43,1.74,2.24s-1,2.38-1.7,2.94a1.27,1.27,0,0,0-.31,1.81c.5.78.92.85,2.08,1.05s1.64-.19.93-.66a2.44,2.44,0,0,1-.93-.39c-.77-.61-.2-1.08.39-1.35s1.12-.64,1.7-.92a5,5,0,0,0,2.16-1.74,3.26,3.26,0,0,0,.74-2.9,4.39,4.39,0,0,0-1.24-2.4,2.58,2.58,0,0,1-.73-2.35A4.44,4.44,0,0,1,70.17,65.51Z" fill="#5c2a23"/></g></svg>