<svg xmlns="http://www.w3.org/2000/svg" width="110" height="194" viewBox="0 0 110 194"><title>landian-20-hair</title><g id="hair"><path d="M69.32,33.53a4.15,4.15,0,0,0-1-1.67c-.54-.54-1.25-1.75-.3-4a6.11,6.11,0,0,0,.43-2.71c-.24-4.24-1.87-14.35-12.22-9.34l-.55,0-.82.1,0-.4C42,13.92,41.2,22.7,41.33,25.8a4.45,4.45,0,0,0,.43,1.71c1.07,2.34.48,3.62-.06,4.23a5.54,5.54,0,0,0-1.22,2.11C38.91,39.35,45,39.71,45,39.71h0C42.92,38,40.9,34.57,42.46,33A2.15,2.15,0,0,1,45,32.42c5.28-.41,4.49-5.7,3.59-7.12a3.1,3.1,0,0,1-.44-3c4.53-1.4,6.2-1.19,6.2-1.19h1.89a12.6,12.6,0,0,1,5.61,1.44,3.13,3.13,0,0,1-.58,2.78c-.83,1.32-.28,5.58,3.12,6.79a2.12,2.12,0,0,1,2.46.54c1.47,1.39,0,4.45-1.79,6.29l-.17.79S71.23,39.34,69.32,33.53Z"/></g></svg>