<svg xmlns="http://www.w3.org/2000/svg" xmlns:xlink="http://www.w3.org/1999/xlink" width="110" height="194" viewBox="0 0 110 194"><defs><linearGradient id="linear-gradient" x1="49.39" y1="143.32" x2="50.17" y2="180.41" gradientUnits="userSpaceOnUse"><stop offset="0" stop-color="#698293"/><stop offset="0.26" stop-color="#657d8e"/><stop offset="0.58" stop-color="#59707f"/><stop offset="0.92" stop-color="#455b67"/><stop offset="1" stop-color="#405561"/></linearGradient><linearGradient id="linear-gradient-2" x1="61.94" y1="142.66" x2="60.4" y2="181.6" xlink:href="#linear-gradient"/><clipPath id="clip-path"><rect x="54.92" y="104.1" width="0.83" height="6.98" fill="none"/></clipPath></defs><title>landian-02-body</title><g id="landians"><path d="M44.42,35.31a12.94,12.94,0,0,0-2.17,5.2c-.12.72-.88,5.61-1.54,8.9-.49,2.4-1.49,7.44-1.7,8.29-1.35,5.41-5.95,16.58-1.16,20.42,0,0,8,.95,10.66,2.62,0,0,7.35.48,9.14-.46,0,0,14-1.12,15.28-1.48.8-.22,2.55-4.11,2.08-7.39-.43-3.08-2.39-9.19-3.63-13.86-.62-2.34-2-9.07-2.16-9.95-1.16-8.67-3.4-11.76-3.4-11.76s-3.15-5.05-11.51-4.67C51,31.32,47,31.7,44.42,35.31Z" fill="#14103d"/><path d="M44.34,68.13s-.71-5,11.82-3.79l-.14,4Z" fill="#79589f"/><path d="M65.38,68.13s.7-5-11.83-3.79l.14,4Z" fill="#79589f"/><path d="M47,175.6s1.47,6.74-.23,9.52a22.31,22.31,0,0,1-7.25,7.09l14.32-3.55s-.62-8.7-.62-12.23S47,175.6,47,175.6Z" fill="#fad8b4"/><path d="M54.13,184.86l-.26-4.09-6.56.68s-.94,3.5-2.05,4.61c-2,2-4,3.73-4,3.73s-5.57,2-5.74,3c0,1.22,4.35,1.34,9.67,1.23,1.9,0,3.63-3.36,5.27-3.44.3,0,.2,3.37.48,3.4a14.84,14.84,0,0,0,2.79-.09S55.06,188.19,54.13,184.86Z"/><path d="M64.41,175.6s-1.46,6.74.23,9.52a22.31,22.31,0,0,0,7.25,7.09l-14.32-3.55s.63-8.7.63-12.23S64.41,175.6,64.41,175.6Z" fill="#fad8b4"/><path d="M57.25,184.86l.25-4.09,6.57.68s.93,3.5,2,4.61c2,2,4,3.73,4,3.73s5.58,2,5.74,3c0,1.22-4.35,1.34-9.67,1.23-1.9,0-3.63-3.36-5.27-3.44-.3,0-.2,3.37-.48,3.4a14.84,14.84,0,0,1-2.79-.09S56.31,188.19,57.25,184.86Z"/><path d="M42.75,146.46s-6-15.85-3.45-30.21,14.37-4.65,14.15,7.39-.36,21.55-.35,23.66C53.16,155.12,47,157.23,42.75,146.46Z" fill="#698293"/><path d="M67.65,146.46s5.21-15.65,2.67-30S56.74,111.6,57,123.64s.36,21.55.35,23.66C57.25,155.12,63.43,157.23,67.65,146.46Z" fill="#698293"/><path d="M42,69.14c-4.67,2.51-7.07,17.29-7.73,19.39-.86,2.74-2.34,9,0,10s3.85-2.48,5.57-6.49S45.54,79.8,46.4,76.78C47.48,73,46.67,66.64,42,69.14Z" fill="#410099"/><path d="M68,69.19c4.65,2.54,7,17.33,7.61,19.44.85,2.75,2.32,8.24,0,9.3s-4-2.54-5.7-6.55-5.5-11.56-6.34-14.58C62.51,73,63.36,66.66,68,69.19Z" fill="#410099"/><path d="M51.48,59.83s1.85,5.54-1.39,7.12c-.09,0-1.39.54-1.37,1.45.16,5.63,3.76,25,6.65,25.18,2.16.14,5.54-18.76,6.84-25.78.13-.68-.34-.74-1.62-.93,0,0-2.13-.3-1.44-6.34C59.44,58,51.48,59.83,51.48,59.83Z" fill="#e0c2a4"/><path d="M27,119.76s2.81-11.62,3-14.39,2.41-13.72,5.83-12.52c3,1.07,2,8.81-.22,14.05S30.2,119.13,30,120.62c-.4,3.52.72,8.3.16,8.67-.71.47-1.22-.87-1.9-3-1.06,0-3.1,4.24-5.54,5.67s-.69-5.46.38-6.91C24,123.86,26.48,121.28,27,119.76Z" fill="#fad8b4"/><path d="M83,119.76s-2.81-11.62-3-14.39-2.41-13.72-5.83-12.52c-3,1.07-2,8.81.22,14.05S79.8,119.13,80,120.62c.4,3.52-.72,8.3-.16,8.67s1.22-.87,1.9-3c1.06,0,3.1,4.24,5.54,5.67s.69-5.46-.38-6.91C86,123.86,83.52,121.28,83,119.76Z" fill="#fad8b4"/><path d="M45.88,48.62s-1.67-2.06-3.37-.34,1.41,6,3.47,6.67S45.88,48.62,45.88,48.62Z" fill="#fad8b4"/><path d="M64.85,48.62s1.67-2.06,3.37-.34-1.41,6-3.47,6.67S64.85,48.62,64.85,48.62Z" fill="#fad8b4"/><path d="M45.28,178.34s-1.12-22.54-.92-27.93,7.89-5.58,8.87-.7c1.24,6.22,2.21,8.46,1.66,17.62-.36,6-.53,10.06-.64,11.33C54.19,179.39,46.68,180.88,45.28,178.34Z" fill="url(#linear-gradient)"/><path d="M65.71,178.34s1.12-22.54.92-27.93-7.89-5.58-8.87-.7c-1.24,6.22-2.21,8.46-1.66,17.62.36,6,.53,10.06.64,11.33C56.8,179.39,64.31,180.88,65.71,178.34Z" fill="url(#linear-gradient-2)"/><path d="M49.93,66.94s-6.56,1.57-6.77,2.41c-.22,2.54.21,6.63.83,11.5.73,5.75.81,7.75,1,10.88,0,.26-.54,4.86-.92,6.94-.27,1.42-.43,2.14-.77,3.66-.64,2.79-1.08,3.32-1.32,4.71-.33,2,25,1.93,26,.15.17-.28-.15-.84-.77-4-.21-1.06-.54-2-.85-3.93s-.9-7-.84-7.56c.59-5.64.6-8,1-11.09.48-3.44,1.77-9.92,1.16-10.78-1.06-1.48-6.86-2.9-6.86-2.9l-.79,2c-1.74,2.21-2.39,2.36-4.52,2.44A5.07,5.07,0,0,1,51.06,69Z" fill="#ab8ecd"/><path d="M46.34,99.56c-1.31-.15-2.45-.48-2.51-.3-.53,1.61-1.91,5.92-2.42,7.86-.41,1.55-1,3.92-1.82,7.52a28.57,28.57,0,0,0-.46,5.32c0,1.21,4.65.85,5.44,1,10.8,1.54,12.19,1.08,21.76-.16,1.26-.16,4.4,0,4.34-1.33a49.78,49.78,0,0,0-.58-5.39c-.56-2.82-1.28-5.23-1.68-6.78s-1.51-6.15-1.93-8c-.06-.28-.92.23-3.32.54a58.5,58.5,0,0,1-7.48.31A90.66,90.66,0,0,1,46.34,99.56Z" fill="#698293"/><path d="M55.1,79.78A19.33,19.33,0,0,0,53,76.28c-2.63-3.74-5.2-5.82-4.87-9.26-.33-.65-5,1.69-5.89,2.8-1.19,1.57.58,8.35,1,12.17a90.65,90.65,0,0,1,.58,9.89c0,6.48-3.31,11.65-3.12,13.64.39,4.25,9.74,5.15,13,4.73l2.48,0c3.22,0,12.35.07,12.74-4.1a5.73,5.73,0,0,0-.43-1.51c-.74-2.56-2.71-7.32-2.78-12.71,0-4.21,1.39-9.39,1.39-10.9s2.24-10.25,1-11.82c-.84-1.11-6.39-3-6.72-2.35-.3,3-3.19,5.47-5.24,10.29,0,0-.15.42-.34.85a8.85,8.85,0,0,0-.4,1.76,5.23,5.23,0,0,1-.17.63C55.29,80.49,55.14,79.93,55.1,79.78Z" fill="#410099"/><path d="M55.35,81.5a8.89,8.89,0,0,1,.14-2.82c2-6.32,5.81-8.49,5.67-11.73-.11-2.33,4.15-.65,6.33,1.51.23.23-6,.89-11.38,10.3a16.24,16.24,0,0,0-.51,2.14C55.53,81.23,55.38,82.45,55.35,81.5Z" fill="#79589f"/><polygon points="54.99 80.62 54.92 107.98 55.73 107.98 55.71 80.63 54.99 80.62" fill="#fff"/><g id="ferMqf"><path d="M55.38,83.88l-.12,0v0a.76.76,0,0,1,.26,0v.08Z" fill="#a0a0a0"/><path d="M55.26,82.84a.58.58,0,0,1,.26,0v.09h-.15l-.09,0a0,0,0,0,1,0,0Z" fill="#a0a0a0"/><path d="M55.52,81.43v.07h-.25a0,0,0,0,1,0,0s0,0,0,0a1.07,1.07,0,0,1,.25,0Z" fill="#a0a0a0"/><path d="M55.52,82.61v.08a.76.76,0,0,1-.26,0h0s0,0,0,0h0A.67.67,0,0,1,55.52,82.61Z" fill="#a0a0a0"/><path d="M55.26,83.06h0s0,0,0,0h.23v.09A.58.58,0,0,1,55.26,83.06Z" fill="#a0a0a0"/><path d="M55.26,81.88h0s0,0,0,0a.5.5,0,0,1,.21,0h0v.08A.76.76,0,0,1,55.26,81.88Z" fill="#a0a0a0"/><path d="M55.26,80.89v0h.06a.62.62,0,0,1,.19,0h0v.08A.77.77,0,0,1,55.26,80.89Z" fill="#a0a0a0"/><path d="M55.52,82.41v.09a1.15,1.15,0,0,1-.26,0v0A1.15,1.15,0,0,1,55.52,82.41Z" fill="#a0a0a0"/><path d="M55.52,83.2v.08h0l-.25,0h0v0A.77.77,0,0,1,55.52,83.2Z" fill="#a0a0a0"/><path d="M55.26,83.46h0s0,0,0,0h.23v.08A.76.76,0,0,1,55.26,83.46Z" fill="#a0a0a0"/><path d="M55.26,80.66a.76.76,0,0,1,.26,0v.08h0a.65.65,0,0,1-.2,0h0l0,0Z" fill="#a0a0a0"/><path d="M55.52,82.3a.61.61,0,0,1-.19,0h0s0,0,0,0,0,0,0,0l.11,0h.13Z" fill="#a0a0a0"/><path d="M55.26,82a.76.76,0,0,1,.26,0v.08h-.15l-.09,0,0,0Z" fill="#a0a0a0"/><path d="M55.26,81.05a1.14,1.14,0,0,1,.26,0v.09a1.1,1.1,0,0,1-.18,0h-.05s0,0,0,0Z" fill="#a0a0a0"/><path d="M55.39,82a.54.54,0,0,1-.25,0v-.08h0a.62.62,0,0,1,.23,0S55.4,81.94,55.39,82Z" fill="#a0a0a0"/><path d="M55.14,81.41v-.08h0a.75.75,0,0,1,.21,0h0s0,0,0,0,0,0,0,0A.7.7,0,0,1,55.14,81.41Z" fill="#a0a0a0"/><path d="M55.39,82.77a.71.71,0,0,1-.25,0v-.08h.16l.07,0s0,0,0,0Z" fill="#a0a0a0"/><path d="M55.52,81.62v.09a1.15,1.15,0,0,1-.26,0v0h0a1,1,0,0,1,.25,0Z" fill="#a0a0a0"/><path d="M55.14,81.8v-.08a.5.5,0,0,1,.17,0h.07s0,0,0,0,0,0,0,0A.71.71,0,0,1,55.14,81.8Z" fill="#a0a0a0"/><path d="M55.39,83.16a.72.72,0,0,1-.25,0V83.1h0a.64.64,0,0,1,.2,0s0,0,0,0,0,0,0,0Z" fill="#a0a0a0"/><path d="M55.52,81.23v.08a.76.76,0,0,1-.26,0h0s0,0,0,0A.6.6,0,0,1,55.52,81.23Z" fill="#a0a0a0"/><path d="M55.14,80.54a.71.71,0,0,1,.25,0h0s0,0,0,0a.78.78,0,0,1-.22,0h0Z" fill="#a0a0a0"/><path d="M55.14,83v-.08h0a.5.5,0,0,1,.21,0s0,0,0,0,0,0,0,0a.65.65,0,0,1-.24,0Z" fill="#a0a0a0"/><path d="M55.14,82.59v-.08h.24s0,0,0,0,0,0,0,0a1,1,0,0,1-.24,0Z" fill="#a0a0a0"/><path d="M55.14,83.69h.15l.08,0s0,0,0,0h0a.54.54,0,0,1-.25,0Z" fill="#a0a0a0"/><path d="M55.13,82.4v-.09h.09l.16,0s0,0,0,0A1.24,1.24,0,0,1,55.13,82.4Z" fill="#a0a0a0"/><path d="M55.14,83.5a.5.5,0,0,1,.17,0h.07s0,0,0,0,0,0,0,0l-.12,0a.48.48,0,0,1-.12,0h0A.21.21,0,0,1,55.14,83.5Z" fill="#a0a0a0"/><path d="M55.14,82.2v-.08h.16l.08,0s0,0,0,0,0,0,0,0l-.17,0Z" fill="#a0a0a0"/><path d="M55.14,80.93h0l.2,0s0,0,0,0,0,0,0,0a.47.47,0,0,1-.17,0h-.07A.22.22,0,0,1,55.14,80.93Z" fill="#a0a0a0"/><path d="M55.14,83.38V83.3h.07l.17,0s0,0,0,0,0,0,0,0A.65.65,0,0,1,55.14,83.38Z" fill="#a0a0a0"/><path d="M55.52,83.6v.08a.76.76,0,0,1-.26,0h0v0A.76.76,0,0,1,55.52,83.6Z" fill="#a0a0a0"/><path d="M55.14,81.61v-.09h.22s0,0,0,0A1,1,0,0,1,55.14,81.61Z" fill="#a0a0a0"/><path d="M55.39,80.76v0a.72.72,0,0,1-.25,0v-.09A.72.72,0,0,1,55.39,80.76Z" fill="#a0a0a0"/><path d="M55.14,81.21v-.09h.15l.08,0s0,0,0,0A.54.54,0,0,1,55.14,81.21Z" fill="#a0a0a0"/></g><g id="ferMqf-2" data-name="ferMqf"><path d="M55.39,88.46l-.12,0v0a.76.76,0,0,1,.26,0v.08Z" fill="#a0a0a0"/><path d="M55.53,84v.08a.76.76,0,0,1-.26,0v0h0A.58.58,0,0,1,55.53,84Z" fill="#a0a0a0"/><path d="M55.27,87.41a.76.76,0,0,1,.26,0v.09h-.15l-.09,0s0,0,0,0Z" fill="#a0a0a0"/><path d="M55.53,86v.07h-.25s0,0,0,0,0,0,0,0a1,1,0,0,1,.25,0Z" fill="#a0a0a0"/><path d="M55.53,87.19v.08a.76.76,0,0,1-.26,0h0s0,0,0,0h0A.67.67,0,0,1,55.53,87.19Z" fill="#a0a0a0"/><path d="M55.27,87.64h0s0,0,0,0h.23v.09A.58.58,0,0,1,55.27,87.64Z" fill="#a0a0a0"/><path d="M55.53,84.42v.09a.6.6,0,0,1-.26,0v0A1.15,1.15,0,0,1,55.53,84.42Z" fill="#a0a0a0"/><path d="M55.27,86.46h0s0,0,0,0a.5.5,0,0,1,.21,0h0v.08A.76.76,0,0,1,55.27,86.46Z" fill="#a0a0a0"/><path d="M55.27,85.47v0h0a.68.68,0,0,1,.2,0h0v.08A.77.77,0,0,1,55.27,85.47Z" fill="#a0a0a0"/><path d="M55.53,87v.09a1.15,1.15,0,0,1-.26,0v0A.77.77,0,0,1,55.53,87Z" fill="#a0a0a0"/><path d="M55.53,84.82v.08a.44.44,0,0,1-.2,0h0s0,0,0,0h0A.58.58,0,0,1,55.53,84.82Z" fill="#a0a0a0"/><path d="M55.53,87.78v.08h0a1.07,1.07,0,0,1-.25,0h0v0A.77.77,0,0,1,55.53,87.78Z" fill="#a0a0a0"/><path d="M55.27,88h0s0,0,0,0h.23v.08A.76.76,0,0,1,55.27,88Z" fill="#a0a0a0"/><path d="M55.27,85.24a.76.76,0,0,1,.26,0v.08h0a.62.62,0,0,1-.19,0h0s0,0,0,0Z" fill="#a0a0a0"/><path d="M55.53,86.88a.67.67,0,0,1-.2,0h0s0,0,0,0,0,0,0,0l.11,0h.13Z" fill="#a0a0a0"/><path d="M55.27,86.62a.76.76,0,0,1,.26,0v.08h-.15l-.09,0s0,0,0,0Z" fill="#a0a0a0"/><path d="M55.27,85.63a.76.76,0,0,1,.26,0v.09a1.23,1.23,0,0,1-.19,0h-.05s0,0,0,0Z" fill="#a0a0a0"/><path d="M55.4,86.55a.57.57,0,0,1-.26,0V86.5h0a.65.65,0,0,1,.24,0S55.4,86.52,55.4,86.55Z" fill="#a0a0a0"/><path d="M55.14,86v-.08h0a.75.75,0,0,1,.21,0h0s0,0,0,0v0A.74.74,0,0,1,55.14,86Z" fill="#a0a0a0"/><path d="M55.4,87.34a.57.57,0,0,1-.26,0v-.08a1,1,0,0,1,.17,0l.07,0s0,0,0,0Z" fill="#a0a0a0"/><path d="M55.53,86.2v.09a1.15,1.15,0,0,1-.26,0v0h0a1,1,0,0,1,.24,0Z" fill="#a0a0a0"/><path d="M55.14,86.38V86.3a.55.55,0,0,1,.18,0h.07s0,0,0,0,0,0,0,0A.67.67,0,0,1,55.14,86.38Z" fill="#a0a0a0"/><path d="M55.4,87.74a1.09,1.09,0,0,1-.26,0v-.09h0a.69.69,0,0,1,.2,0s0,0,0,0h0Z" fill="#a0a0a0"/><path d="M55.53,85.81v.08a.76.76,0,0,1-.26,0h0s0,0,0,0A.58.58,0,0,1,55.53,85.81Z" fill="#a0a0a0"/><path d="M55.14,84.72h.15l.09,0s0,0,0,0a.74.74,0,0,1-.26,0Z" fill="#a0a0a0"/><path d="M55.14,85.11a.74.74,0,0,1,.26,0h0s0,0,0,0a.86.86,0,0,1-.22,0h0Z" fill="#a0a0a0"/><path d="M55.15,87.57h0v-.09h0l.22,0s0,0,0,0,0,0,0,0" fill="#a0a0a0"/><path d="M55.14,87.17v-.08h.25s0,0,0,0,0,0,0,0a.65.65,0,0,1-.24,0Z" fill="#a0a0a0"/><path d="M55.14,88.27h.16l.08,0s0,0,0,0h0a.57.57,0,0,1-.26,0Z" fill="#a0a0a0"/><path d="M55.14,84.21v-.08a.74.74,0,0,1,.26,0v0h0A1,1,0,0,1,55.14,84.21Z" fill="#a0a0a0"/><path d="M55.14,87v-.09h.09l.16,0s0,0,0,0A1.09,1.09,0,0,1,55.14,87Z" fill="#a0a0a0"/><path d="M55.14,88.08a.47.47,0,0,1,.17,0h.08s0,0,0,0,0,0,0,0l-.12,0h-.13Z" fill="#a0a0a0"/><path d="M55.14,86.78V86.7h.17l.08,0s0,0,0,0a0,0,0,0,1,0,0l-.17,0Z" fill="#a0a0a0"/><path d="M55.14,85.51h0l.2,0s0,0,0,0,0,0,0,0a.5.5,0,0,1-.17,0h-.08Z" fill="#a0a0a0"/><path d="M55.27,85a.76.76,0,0,1,.26,0v.08a.6.6,0,0,1-.26,0Z" fill="#a0a0a0"/><path d="M55.53,84.62v.08a.58.58,0,0,1-.26,0v0A.58.58,0,0,1,55.53,84.62Z" fill="#a0a0a0"/><path d="M55.14,84.61v-.09a.57.57,0,0,1,.26,0h0s0,0,0,0h0A1.36,1.36,0,0,1,55.14,84.61Z" fill="#a0a0a0"/><path d="M55.53,84.23v.08a.58.58,0,0,1-.26,0v0A.76.76,0,0,1,55.53,84.23Z" fill="#a0a0a0"/><path d="M55.4,84.38a.74.74,0,0,1-.26,0v-.09h.08l.16,0S55.41,84.35,55.4,84.38Z" fill="#a0a0a0"/><path d="M55.14,88v-.08h.07l.18,0s0,0,0,0,0,0,0,0A.69.69,0,0,1,55.14,88Z" fill="#a0a0a0"/><path d="M55.53,88.18v.08a.76.76,0,0,1-.26,0h0v0A.76.76,0,0,1,55.53,88.18Z" fill="#a0a0a0"/><path d="M55.14,85v-.08a.59.59,0,0,1,.19,0h.06s0,0,0,0,0,0,0,0a.65.65,0,0,1-.24,0Z" fill="#a0a0a0"/><path d="M55.14,86.19V86.1h.23s0,0,0,0A1,1,0,0,1,55.14,86.19Z" fill="#a0a0a0"/><path d="M55.4,85.34v0a.57.57,0,0,1-.26,0v-.08A.74.74,0,0,1,55.4,85.34Z" fill="#a0a0a0"/><path d="M55.14,85.79V85.7h.16l.07,0s0,0,0,0A.57.57,0,0,1,55.14,85.79Z" fill="#a0a0a0"/><path d="M55.14,84v-.08h.07a.55.55,0,0,1,.18,0s0,0,0,0,0,0,0,0a.39.39,0,0,1-.15,0Z" fill="#a0a0a0"/></g><g id="ferMqf-3" data-name="ferMqf"><path d="M55.38,93.05l-.12,0v0a.77.77,0,0,1,.26,0v.09Z" fill="#a0a0a0"/><path d="M55.52,88.62v.08a.58.58,0,0,1-.26,0h0v0A.76.76,0,0,1,55.52,88.62Z" fill="#a0a0a0"/><path d="M55.26,92a.76.76,0,0,1,.26,0v.08h-.24s0,0,0,0Z" fill="#a0a0a0"/><path d="M55.52,90.59v.08h0a.55.55,0,0,1-.18,0h-.06a0,0,0,0,1,0,0,0,0,0,0,1,0,0,1.06,1.06,0,0,1,.25,0Z" fill="#a0a0a0"/><path d="M55.52,91.78v.08a.76.76,0,0,1-.26,0h0s0,0,0,0h0A.45.45,0,0,1,55.52,91.78Z" fill="#a0a0a0"/><path d="M55.26,92.23h0s0,0,0,0h.23v.09A1.15,1.15,0,0,1,55.26,92.23Z" fill="#a0a0a0"/><path d="M55.52,89v.09a1.22,1.22,0,0,1-.26,0v0A.58.58,0,0,1,55.52,89Z" fill="#a0a0a0"/><path d="M55.26,91.05h0s0,0,0,0a.5.5,0,0,1,.21,0h0v.08A.76.76,0,0,1,55.26,91.05Z" fill="#a0a0a0"/><path d="M55.26,90.06v0h.26v.07A.76.76,0,0,1,55.26,90.06Z" fill="#a0a0a0"/><path d="M55.52,91.58v.08a.76.76,0,0,1-.26,0v0A.58.58,0,0,1,55.52,91.58Z" fill="#a0a0a0"/><path d="M55.52,89.41v.08a.67.67,0,0,1-.2,0h0s0,0,0,0h0A.76.76,0,0,1,55.52,89.41Z" fill="#a0a0a0"/><path d="M55.52,92.37v.08h0l-.25,0h0v0A.58.58,0,0,1,55.52,92.37Z" fill="#a0a0a0"/><path d="M55.26,92.62h0s0,0,0,0l.08,0h.15v.09A.58.58,0,0,1,55.26,92.62Z" fill="#a0a0a0"/><path d="M55.26,89.83a.58.58,0,0,1,.26,0v.09h0a.65.65,0,0,1-.2,0h0s0,0,0,0Z" fill="#a0a0a0"/><path d="M55.52,91.47a1.23,1.23,0,0,1-.19,0h0s0,0,0,0a0,0,0,0,1,0,0l.11,0h.13Z" fill="#a0a0a0"/><path d="M55.26,91.21a.76.76,0,0,1,.26,0v.08h-.24s0,0,0,0Z" fill="#a0a0a0"/><path d="M55.26,90.22a.76.76,0,0,1,.26,0v.08a.55.55,0,0,1-.18,0h-.05s0,0,0,0Z" fill="#a0a0a0"/><path d="M55.39,91.14a.72.72,0,0,1-.25,0v-.09h0l.23,0S55.4,91.11,55.39,91.14Z" fill="#a0a0a0"/><path d="M55.14,90.57v-.08h0a.75.75,0,0,1,.21,0h0s0,0,0,0,0,0,0,0A.7.7,0,0,1,55.14,90.57Z" fill="#a0a0a0"/><path d="M55.39,91.93a.54.54,0,0,1-.25,0v-.09h.23s0,0,0,0Z" fill="#a0a0a0"/><path d="M55.52,90.79v.08a.76.76,0,0,1-.26,0v0h0a.69.69,0,0,1,.25,0Z" fill="#a0a0a0"/><path d="M55.14,91v-.08a1,1,0,0,1,.17,0l.07,0s0,0,0,0a0,0,0,0,1,0,0A.71.71,0,0,1,55.14,91Z" fill="#a0a0a0"/><path d="M55.39,92.33a.71.71,0,0,1-.25,0v-.08h0a.65.65,0,0,1,.2,0h0a0,0,0,0,1,0,0Z" fill="#a0a0a0"/><path d="M55.52,90.39v.09a.58.58,0,0,1-.26,0h0s0,0,0,0A.9.9,0,0,1,55.52,90.39Z" fill="#a0a0a0"/><path d="M55.14,89.3h.14l.09,0s0,0,0,0a.54.54,0,0,1-.25,0Z" fill="#a0a0a0"/><path d="M55.14,89.7a.72.72,0,0,1,.25,0h0s0,0,0,0l-.22,0h0Z" fill="#a0a0a0"/><path d="M55.14,92.16v-.09h0a.75.75,0,0,1,.21,0s0,0,0,0h0a1,1,0,0,1-.24,0Z" fill="#a0a0a0"/><path d="M55.14,91.76v-.08a.66.66,0,0,1,.2,0h0s0,0,0,0,0,0,0,0a.65.65,0,0,1-.24,0Z" fill="#a0a0a0"/><path d="M55.14,92.86h.23s0,0,0,0h0a1.07,1.07,0,0,1-.25,0Z" fill="#a0a0a0"/><path d="M55.14,88.8v-.09a.72.72,0,0,1,.25,0v0h0A.66.66,0,0,1,55.14,88.8Z" fill="#a0a0a0"/><path d="M55.13,91.56v-.08h.09l.16,0s0,0,0,0A.82.82,0,0,1,55.13,91.56Z" fill="#a0a0a0"/><path d="M55.14,92.66h.17l.07,0s0,0,0,0,0,0,0,0l-.12,0h-.12S55.14,92.69,55.14,92.66Z" fill="#a0a0a0"/><path d="M55.14,91.37v-.09h.16l.08,0s0,0,0,0,0,0,0,0a.86.86,0,0,1-.17,0Z" fill="#a0a0a0"/><path d="M55.14,90.1h0a.44.44,0,0,1,.2,0h0s0,0,0,0l-.17,0h-.06s0,0,0,0S55.14,90.12,55.14,90.1Z" fill="#a0a0a0"/><path d="M55.26,89.63a1.15,1.15,0,0,1,.26,0v.09a.6.6,0,0,1-.26,0Z" fill="#a0a0a0"/><path d="M55.52,89.21v.08a.76.76,0,0,1-.26,0v0A.76.76,0,0,1,55.52,89.21Z" fill="#a0a0a0"/><path d="M55.13,89.19v-.08a.74.74,0,0,1,.26,0h0s0,0,0,0h0A.66.66,0,0,1,55.13,89.19Z" fill="#a0a0a0"/><path d="M55.52,88.81v.09a.77.77,0,0,1-.26,0v0A1.15,1.15,0,0,1,55.52,88.81Z" fill="#a0a0a0"/><path d="M55.39,89a.74.74,0,0,1-.26,0v-.08h.08l.16,0S55.4,88.94,55.39,89Z" fill="#a0a0a0"/><path d="M55.14,92.55v-.08h.07a.5.5,0,0,1,.17,0s0,0,0,0,0,0,0,0A.65.65,0,0,1,55.14,92.55Z" fill="#a0a0a0"/><path d="M55.52,92.77v.08a.58.58,0,0,1-.26,0h0v0A.76.76,0,0,1,55.52,92.77Z" fill="#a0a0a0"/><path d="M55.14,89.59V89.5a.65.65,0,0,1,.19,0h.05s0,0,0,0,0,0,0,0l-.24,0Z" fill="#a0a0a0"/><path d="M55.14,90.77v-.08h.15l.07,0s0,0,0,0A.67.67,0,0,1,55.14,90.77Z" fill="#a0a0a0"/><path d="M55.39,89.92v0a.71.71,0,0,1-.25,0V89.9A.71.71,0,0,1,55.39,89.92Z" fill="#a0a0a0"/><path d="M55.14,90.38v-.09h.23s0,0,0,0A.72.72,0,0,1,55.14,90.38Z" fill="#a0a0a0"/><path d="M55.14,88.6v-.08h.07a.47.47,0,0,1,.17,0s0,0,0,0,0,0,0,0l-.15,0Z" fill="#a0a0a0"/></g><g id="ferMqf-4" data-name="ferMqf"><path d="M55.53,93.2v.08a.6.6,0,0,1-.26,0h0v0A.76.76,0,0,1,55.53,93.2Z" fill="#a0a0a0"/><path d="M55.53,95.17v.08h0a.55.55,0,0,1-.18,0h-.05s0,0,0,0,0,0,0,0a1.1,1.1,0,0,1,.25,0Z" fill="#a0a0a0"/><path d="M55.53,93.59v.09a1.21,1.21,0,0,1-.25,0v0A.52.52,0,0,1,55.53,93.59Z" fill="#a0a0a0"/><path d="M55.27,94.64v0h.26v.07A.78.78,0,0,1,55.27,94.64Z" fill="#a0a0a0"/><path d="M55.53,94v.08a.67.67,0,0,1-.2,0h0a0,0,0,0,1,0,0h0A.69.69,0,0,1,55.53,94Z" fill="#a0a0a0"/><path d="M55.27,94.41a.58.58,0,0,1,.26,0v.08h0a.65.65,0,0,1-.2,0h0s0,0,0,0S55.27,94.41,55.27,94.41Z" fill="#a0a0a0"/><path d="M55.27,94.8a.76.76,0,0,1,.26,0v.08a.55.55,0,0,1-.18,0H55.3a0,0,0,0,1,0,0S55.27,94.81,55.27,94.8Z" fill="#a0a0a0"/><path d="M55.15,95.15v-.08h0a.75.75,0,0,1,.21,0h0a0,0,0,0,1,0,0s0,0,0,0A.69.69,0,0,1,55.15,95.15Z" fill="#a0a0a0"/><path d="M55.15,95.36v-.08h0a.75.75,0,0,1,.21,0h0s0,0,0,0,0,0,0,0A.69.69,0,0,1,55.15,95.36Z" fill="#a0a0a0"/><path d="M55.53,95v.09a.72.72,0,0,1-.25,0h0s0,0,0,0A.9.9,0,0,1,55.53,95Z" fill="#a0a0a0"/><path d="M55.15,93.88h.14l.09,0s0,0,0,0a.52.52,0,0,1-.25,0Z" fill="#a0a0a0"/><path d="M55.15,94.28a.52.52,0,0,1,.25,0h0s0,0,0,0l-.22,0h0Z" fill="#a0a0a0"/><path d="M55.15,93.38v-.09a.72.72,0,0,1,.25,0s0,0,0,0h0A.74.74,0,0,1,55.15,93.38Z" fill="#a0a0a0"/><path d="M55.15,94.68h.05a.41.41,0,0,1,.19,0h0s0,0,0,0l-.17,0h-.06a0,0,0,0,1,0,0Z" fill="#a0a0a0"/><path d="M55.28,94.21a1,1,0,0,1,.25,0v.09a.72.72,0,0,1-.25,0Z" fill="#a0a0a0"/><path d="M55.53,93.79v.08a.71.71,0,0,1-.25,0v0A.69.69,0,0,1,55.53,93.79Z" fill="#a0a0a0"/><path d="M55.15,93.77v-.08a.71.71,0,0,1,.25,0h0s0,0,0,0h0A.61.61,0,0,1,55.15,93.77Z" fill="#a0a0a0"/><path d="M55.53,93.39v.09a.72.72,0,0,1-.25,0v0A1,1,0,0,1,55.53,93.39Z" fill="#a0a0a0"/><path d="M55.4,93.55a.71.71,0,0,1-.25,0v-.08h.08l.15,0S55.41,93.52,55.4,93.55Z" fill="#a0a0a0"/><path d="M55.15,94.17v-.09h.19l.06,0s0,0,0,0,0,0,0,0l-.24,0Z" fill="#a0a0a0"/><path d="M55.41,94.5v0a.76.76,0,0,1-.26,0v-.08A.78.78,0,0,1,55.41,94.5Z" fill="#a0a0a0"/><path d="M55.15,95v-.09h.23s0,0,0,0A.69.69,0,0,1,55.15,95Z" fill="#a0a0a0"/><path d="M55.15,93.18v-.09h.07a1.13,1.13,0,0,1,.18,0h0s0,0,0,0l-.15,0Z" fill="#a0a0a0"/></g><g id="ferMqf-5" data-name="ferMqf"><path d="M55.15,95.47v.08a.58.58,0,0,0,.26,0h0v0A.74.74,0,0,0,55.15,95.47Z" fill="#a0a0a0"/><path d="M55.15,95.86V96a1.22,1.22,0,0,0,.26,0v0A.58.58,0,0,0,55.15,95.86Z" fill="#a0a0a0"/><path d="M55.41,96.91v0h-.26v.07A.76.76,0,0,0,55.41,96.91Z" fill="#a0a0a0"/><path d="M55.15,96.26v.08a.66.66,0,0,0,.2,0h0s0,0,0,0h0A.74.74,0,0,0,55.15,96.26Z" fill="#a0a0a0"/><path d="M55.41,96.68a.58.58,0,0,0-.26,0v.09h0a.71.71,0,0,0,.2,0h0s0,0,0,0Z" fill="#a0a0a0"/><path d="M55.54,96.15h-.15l-.08,0s0,0,0,0a.57.57,0,0,0,.26,0Z" fill="#a0a0a0"/><path d="M55.54,96.55a.74.74,0,0,0-.26,0h0s0,0,0,0l.21,0h0Z" fill="#a0a0a0"/><path d="M55.54,95.65v-.09a.77.77,0,0,0-.26,0v0h0A.69.69,0,0,0,55.54,95.65Z" fill="#a0a0a0"/><path d="M55.41,96.48a1.15,1.15,0,0,0-.26,0v.09a.6.6,0,0,0,.26,0Z" fill="#a0a0a0"/><path d="M55.15,96.06v.08a.76.76,0,0,0,.26,0v0A.74.74,0,0,0,55.15,96.06Z" fill="#a0a0a0"/><path d="M55.54,96V96a.76.76,0,0,0-.26,0h0s0,0,0,0h0A.67.67,0,0,0,55.54,96Z" fill="#a0a0a0"/><path d="M55.15,95.66v.09a.77.77,0,0,0,.26,0v0A1.09,1.09,0,0,0,55.15,95.66Z" fill="#a0a0a0"/><path d="M55.28,95.82a.74.74,0,0,0,.26,0v-.08h-.08l-.16,0S55.28,95.79,55.28,95.82Z" fill="#a0a0a0"/><path d="M55.54,96.44v-.09a.58.58,0,0,0-.19,0h-.06s0,0,0,0v0l.24,0Z" fill="#a0a0a0"/><path d="M55.28,96.77v0a.74.74,0,0,0,.26,0v-.08A.76.76,0,0,0,55.28,96.77Z" fill="#a0a0a0"/><path d="M55.54,95.45v-.08h-.07a.55.55,0,0,0-.18,0s0,0,0,0,0,0,0,0l.16,0Z" fill="#a0a0a0"/></g><path d="M31.28,118s3.13-8,4.53-11.28c2.27-5.24,3.28-13,.14-14.07-3.53-1.19-6.45,10.55-7.14,13.56-.54,2.33-1.59,7.71-2,10.84,0,0,.85.6,4.09,1.14Z" fill="#410099"/><path d="M26.84,116.76A8.13,8.13,0,0,0,31.18,118l-.52,1.68a4.2,4.2,0,0,1-2.2.17,3,3,0,0,1-1.74-.87A2.07,2.07,0,0,1,26.84,116.76Z" fill="#79589f"/><path d="M78.82,118s-3.13-8-4.53-11.28c-2.27-5.24-3.28-13-.15-14.07,3.54-1.19,6.46,10.55,7.15,13.56.54,2.33,1.59,7.71,2,10.84,0,0-.85.6-4.09,1.14Z" fill="#410099"/><path d="M83.26,116.76A8.13,8.13,0,0,1,78.92,118l.52,1.68a4.16,4.16,0,0,0,2.2.17,3,3,0,0,0,1.74-.87A2.07,2.07,0,0,0,83.26,116.76Z" fill="#79589f"/><path d="M56.61,110.94c2.72-.22,4.67-.41,6.71-.68a25,25,0,0,0,5.78-1.5l-.23-3.55c-5.05,2.06-11.17,2.23-13.11,2.3l-.59,0c-.36,0-.52,0-.52,0s-.3,0-.82,0c-2.19-.09-13.19-2.5-13.19-2.5l.06,3.9a58.59,58.59,0,0,0,12.51,2s.68,0,1.78,0C55,111,55.91,111,56.61,110.94Z" fill="#79589f"/><path d="M55.1,81.13s.25,0,.26-.36a6.41,6.41,0,0,0-.26-1.65,6.7,6.7,0,0,0-.66-1.32c-3.68-5.73-5.9-7.22-5.88-10.85,0-2.33-4.15-.65-6.33,1.51-.23.22,6.82,2.29,11.89,9.82A8.18,8.18,0,0,1,55.1,81.13Z" fill="#79589f"/><path d="M47.25,96.19l8.07.23s3.72.06,7.41-.29A77.21,77.21,0,0,0,66,103.24s-3.28.89-10.65.84a43.12,43.12,0,0,1-11.52-1.34A35.14,35.14,0,0,0,47.25,96.19Z" fill="#79589f"/><g clip-path="url(#clip-path)"><g opacity="0.2"><g id="ferMqf-6" data-name="ferMqf"><path d="M55.38,97.86l-.12,0v0a.77.77,0,0,1,.26,0v.09Z" fill="#fff"/><path d="M55.26,96.81a.76.76,0,0,1,.26,0v.08h-.24s0,0,0,0Z" fill="#fff"/><path d="M55.52,95.4v.08h0a.55.55,0,0,1-.18,0h-.07a0,0,0,0,1,0,0,1.06,1.06,0,0,1,.25,0Z" fill="#fff"/><path d="M55.52,96.59v.08a.76.76,0,0,1-.26,0h0s0,0,0,0h0A.67.67,0,0,1,55.52,96.59Z" fill="#fff"/><path d="M55.26,97h0s0,0,0,0h.23v.09A1.15,1.15,0,0,1,55.26,97Z" fill="#fff"/><path d="M55.26,95.86h0s0,0,0,0a.5.5,0,0,1,.21,0h0v.08A.76.76,0,0,1,55.26,95.86Z" fill="#fff"/><path d="M55.26,94.87v0h.26v.07A.76.76,0,0,1,55.26,94.87Z" fill="#fff"/><path d="M55.52,96.39v.08a.76.76,0,0,1-.26,0v0A.58.58,0,0,1,55.52,96.39Z" fill="#fff"/><path d="M55.52,97.18v.08h0l-.25,0h0v0A.77.77,0,0,1,55.52,97.18Z" fill="#fff"/><path d="M55.26,97.44h0s0,0,0,0l.08,0h.15v.09A.76.76,0,0,1,55.26,97.44Z" fill="#fff"/><path d="M55.26,94.64a.58.58,0,0,1,.26,0v.09h0a.65.65,0,0,1-.2,0h0s0,0,0,0Z" fill="#fff"/><path d="M55.52,96.28a.62.62,0,0,1-.19,0h0s0,0,0,0,0,0,0,0l.11,0h.13Z" fill="#fff"/><path d="M55.26,96a.76.76,0,0,1,.26,0v.08h-.15l-.09,0s0,0,0,0Z" fill="#fff"/><path d="M55.26,95a.76.76,0,0,1,.26,0v.08a.55.55,0,0,1-.18,0h-.05s0,0,0,0Z" fill="#fff"/><path d="M55.39,96a.54.54,0,0,1-.25,0v-.09h0l.23,0S55.4,95.92,55.39,96Z" fill="#fff"/><path d="M55.14,95.39V95.3h0a.75.75,0,0,1,.21,0h0s0,0,0,0,0,0,0,0Z" fill="#fff"/><path d="M55.39,96.74a.54.54,0,0,1-.25,0v-.09h.23s0,0,0,0Z" fill="#fff"/><path d="M55.52,95.6v.08a.76.76,0,0,1-.26,0v0h0a.69.69,0,0,1,.25,0Z" fill="#fff"/><path d="M55.14,95.78V95.7a1,1,0,0,1,.17,0l.07,0s0,0,0,0a0,0,0,0,1,0,0A.71.71,0,0,1,55.14,95.78Z" fill="#fff"/><path d="M55.39,97.14a.71.71,0,0,1-.25,0v-.08h0a.65.65,0,0,1,.2,0s0,0,0,0,0,0,0,0Z" fill="#fff"/><path d="M55.52,95.21v.08a.58.58,0,0,1-.26,0h0s0,0,0,0A.89.89,0,0,1,55.52,95.21Z" fill="#fff"/><path d="M55.14,94.51a.72.72,0,0,1,.25,0h0s0,0,0,0l-.22,0h0Z" fill="#fff"/><path d="M55.14,97v-.09h0a.75.75,0,0,1,.21,0s0,0,0,0h0a1,1,0,0,1-.24,0Z" fill="#fff"/><path d="M55.14,96.57v-.08a.66.66,0,0,1,.2,0h0s0,0,0,0,0,0,0,0a.65.65,0,0,1-.24,0Z" fill="#fff"/><path d="M55.14,97.67h.23s0,0,0,0h0a1.07,1.07,0,0,1-.25,0Z" fill="#fff"/><path d="M55.13,96.37v-.08h.09l.16,0s0,0,0,0A.82.82,0,0,1,55.13,96.37Z" fill="#fff"/><path d="M55.14,97.47h.17l.07,0s0,0,0,0,0,0,0,0l-.12,0h-.12S55.14,97.5,55.14,97.47Z" fill="#fff"/><path d="M55.14,96.18v-.09h.16l.08,0s0,0,0,0,0,0,0,0a.86.86,0,0,1-.17,0Z" fill="#fff"/><path d="M55.14,94.91h0a.44.44,0,0,1,.2,0s0,0,0,0,0,0,0,0l-.17,0h-.07S55.14,94.93,55.14,94.91Z" fill="#fff"/><path d="M55.14,97.36v-.08h.07a.5.5,0,0,1,.17,0s0,0,0,0,0,0,0,0A.65.65,0,0,1,55.14,97.36Z" fill="#fff"/><path d="M55.52,97.58v.08a.58.58,0,0,1-.26,0h0v0A.76.76,0,0,1,55.52,97.58Z" fill="#fff"/><path d="M55.14,95.58V95.5h.15l.07,0s0,0,0,0A.67.67,0,0,1,55.14,95.58Z" fill="#fff"/><path d="M55.39,94.73v0a.71.71,0,0,1-.25,0v-.08A.71.71,0,0,1,55.39,94.73Z" fill="#fff"/><path d="M55.14,95.19V95.1h.23s0,0,0,0A.72.72,0,0,1,55.14,95.19Z" fill="#fff"/></g><g id="ferMqf-7" data-name="ferMqf"><path d="M55.39,102.44l-.12,0v0a.77.77,0,0,1,.26,0v.09Z" fill="#fff"/><path d="M55.53,98v.08a.58.58,0,0,1-.26,0h0v0A.76.76,0,0,1,55.53,98Z" fill="#fff"/><path d="M55.27,101.39a.76.76,0,0,1,.26,0v.08h-.24s0,0,0,0Z" fill="#fff"/><path d="M55.53,100v.08h0a.62.62,0,0,1-.19,0h0s0,0,0,0a0,0,0,0,1,0,0,1,1,0,0,1,.25,0Z" fill="#fff"/><path d="M55.53,101.17v.08a.76.76,0,0,1-.26,0h0s0,0,0,0h0A.45.45,0,0,1,55.53,101.17Z" fill="#fff"/><path d="M55.27,101.62h0s0,0,0,0h.23v.09A1.15,1.15,0,0,1,55.27,101.62Z" fill="#fff"/><path d="M55.53,98.4v.09a1.22,1.22,0,0,1-.26,0v0A.58.58,0,0,1,55.53,98.4Z" fill="#fff"/><path d="M55.27,100.44h0s0,0,0,0a.5.5,0,0,1,.21,0h0v.08A.76.76,0,0,1,55.27,100.44Z" fill="#fff"/><path d="M55.27,99.45v0h.26v.07A.76.76,0,0,1,55.27,99.45Z" fill="#fff"/><path d="M55.53,101v.08a.76.76,0,0,1-.26,0v0A.58.58,0,0,1,55.53,101Z" fill="#fff"/><path d="M55.53,98.8v.08a.66.66,0,0,1-.2,0h0s0,0,0,0h0A.76.76,0,0,1,55.53,98.8Z" fill="#fff"/><path d="M55.53,101.76v.08h0a.71.71,0,0,1-.25,0h0v0A.58.58,0,0,1,55.53,101.76Z" fill="#fff"/><path d="M55.27,102h0s0,0,0,0l.08,0h.15V102A.58.58,0,0,1,55.27,102Z" fill="#fff"/><path d="M55.27,99.22a.58.58,0,0,1,.26,0v.09h0a.62.62,0,0,1-.19,0h0s0,0,0,0Z" fill="#fff"/><path d="M55.53,100.86a1.36,1.36,0,0,1-.2,0h0a0,0,0,0,1,0,0,0,0,0,0,1,0,0l.11,0h.13Z" fill="#fff"/><path d="M55.27,100.6a.76.76,0,0,1,.26,0v.08h-.24s0,0,0,0Z" fill="#fff"/><path d="M55.27,99.61a.76.76,0,0,1,.26,0v.08a.61.61,0,0,1-.19,0h-.05a0,0,0,0,1,0,0Z" fill="#fff"/><path d="M55.4,100.53a.74.74,0,0,1-.26,0v-.09h0a1,1,0,0,1,.24,0S55.4,100.5,55.4,100.53Z" fill="#fff"/><path d="M55.14,100v-.08h0a.75.75,0,0,1,.21,0h0s0,0,0,0,0,0,0,0A.74.74,0,0,1,55.14,100Z" fill="#fff"/><path d="M55.4,101.32a.57.57,0,0,1-.26,0v-.09h.24s0,0,0,0Z" fill="#fff"/><path d="M55.53,100.18v.08a.76.76,0,0,1-.26,0v0h0a.65.65,0,0,1,.24,0Z" fill="#fff"/><path d="M55.14,100.36v-.08a1.08,1.08,0,0,1,.18,0l.07,0s0,0,0,0,0,0,0,0A.67.67,0,0,1,55.14,100.36Z" fill="#fff"/><path d="M55.4,101.72a.74.74,0,0,1-.26,0v-.08h0a.68.68,0,0,1,.2,0h0v0Z" fill="#fff"/><path d="M55.53,99.78v.09a.58.58,0,0,1-.26,0h0s0,0,0,0A.86.86,0,0,1,55.53,99.78Z" fill="#fff"/><path d="M55.14,98.69h.15l.09,0s0,0,0,0a.57.57,0,0,1-.26,0Z" fill="#fff"/><path d="M55.14,99.09a.74.74,0,0,1,.26,0h0s0,0,0,0l-.22,0h0Z" fill="#fff"/><path d="M55.15,101.55h0v-.09h0a.78.78,0,0,1,.22,0s0,0,0,0h0" fill="#fff"/><path d="M55.14,101.15v-.08a.74.74,0,0,1,.21,0h0s0,0,0,0,0,0,0,0a.65.65,0,0,1-.24,0Z" fill="#fff"/><path d="M55.14,102.25h.24s0,0,0,0h0a1.09,1.09,0,0,1-.26,0Z" fill="#fff"/><path d="M55.14,98.19V98.1a.74.74,0,0,1,.26,0v0h0A.69.69,0,0,1,55.14,98.19Z" fill="#fff"/><path d="M55.14,101v-.08h.09l.16,0s0,0,0,0A.74.74,0,0,1,55.14,101Z" fill="#fff"/><path d="M55.14,102.05h.17l.08,0s0,0,0,0,0,0,0,0l-.12,0h-.13Z" fill="#fff"/><path d="M55.14,100.76v-.09h.17l.08,0h0s0,0,0,0a1,1,0,0,1-.17,0Z" fill="#fff"/><path d="M55.14,99.49h0a.46.46,0,0,1,.2,0h0a0,0,0,0,1,0,0l-.17,0h-.08Z" fill="#fff"/><path d="M55.27,99a1.15,1.15,0,0,1,.26,0v.09a.6.6,0,0,1-.26,0Z" fill="#fff"/><path d="M55.53,98.6v.08a.76.76,0,0,1-.26,0v0A.76.76,0,0,1,55.53,98.6Z" fill="#fff"/><path d="M55.14,98.58V98.5a.74.74,0,0,1,.26,0h0s0,0,0,0h0A.67.67,0,0,1,55.14,98.58Z" fill="#fff"/><path d="M55.53,98.2v.09a.77.77,0,0,1-.26,0v0A1.15,1.15,0,0,1,55.53,98.2Z" fill="#fff"/><path d="M55.4,98.36a.74.74,0,0,1-.26,0V98.3h.08l.16,0S55.41,98.33,55.4,98.36Z" fill="#fff"/><path d="M55.14,101.94v-.08h.07a.55.55,0,0,1,.18,0s0,0,0,0,0,0,0,0A.69.69,0,0,1,55.14,101.94Z" fill="#fff"/><path d="M55.53,102.16v.08a.58.58,0,0,1-.26,0h0v0A.76.76,0,0,1,55.53,102.16Z" fill="#fff"/><path d="M55.14,99v-.09a.58.58,0,0,1,.19,0h.06s0,0,0,0,0,0,0,0l-.24,0Z" fill="#fff"/><path d="M55.14,100.16v-.08h.16l.07,0s0,0,0,0A.71.71,0,0,1,55.14,100.16Z" fill="#fff"/><path d="M55.4,99.31v0a.74.74,0,0,1-.26,0v-.08A.74.74,0,0,1,55.4,99.31Z" fill="#fff"/><path d="M55.14,99.77v-.09h.23s0,0,0,0A.74.74,0,0,1,55.14,99.77Z" fill="#fff"/><path d="M55.14,98v-.08h.07a.55.55,0,0,1,.18,0h0s0,0,0,0l-.15,0Z" fill="#fff"/></g><g id="ferMqf-8" data-name="ferMqf"><path d="M55.38,107l-.12,0v0a.58.58,0,0,1,.26,0V107Z" fill="#fff"/><path d="M55.52,102.59v.09a.77.77,0,0,1-.26,0h0v0A.77.77,0,0,1,55.52,102.59Z" fill="#fff"/><path d="M55.26,106a.77.77,0,0,1,.26,0V106h-.15l-.09,0s0,0,0,0Z" fill="#fff"/><path d="M55.52,104.57v.07h0a.37.37,0,0,1-.18,0h-.07s0,0,0,0a.71.71,0,0,1,.25,0Z" fill="#fff"/><path d="M55.52,105.75v.09a.58.58,0,0,1-.26,0h0s0,0,0,0h0A.68.68,0,0,1,55.52,105.75Z" fill="#fff"/><path d="M55.26,106.21h0s0,0,0,0l.08,0h.15v.09A.76.76,0,0,1,55.26,106.21Z" fill="#fff"/><path d="M55.52,103v.08a.78.78,0,0,1-.26,0v0A.76.76,0,0,1,55.52,103Z" fill="#fff"/><path d="M55.26,105h0s0,0,0,0l.21,0h0v.09A.77.77,0,0,1,55.26,105Z" fill="#fff"/><path d="M55.26,104v0h.06a.41.41,0,0,1,.19,0h0v.08A.58.58,0,0,1,55.26,104Z" fill="#fff"/><path d="M55.52,105.56v.08a.58.58,0,0,1-.26,0v0A.76.76,0,0,1,55.52,105.56Z" fill="#fff"/><path d="M55.52,103.38v.09a.68.68,0,0,1-.2,0h0s0,0,0,0h0A1.15,1.15,0,0,1,55.52,103.38Z" fill="#fff"/><path d="M55.52,106.35v.07h0a.72.72,0,0,1-.25,0h0v0A.76.76,0,0,1,55.52,106.35Z" fill="#fff"/><path d="M55.26,106.6h0s0,0,0,0h.23v.09A.58.58,0,0,1,55.26,106.6Z" fill="#fff"/><path d="M55.26,103.81a.58.58,0,0,1,.26,0v.08h0a.44.44,0,0,1-.2,0h0a0,0,0,0,1,0,0Z" fill="#fff"/><path d="M55.52,105.44a.61.61,0,0,1-.19,0h0s0,0,0,0,0,0,0,0l.11,0h.13Z" fill="#fff"/><path d="M55.26,105.19a.58.58,0,0,1,.26,0v.09h-.24s0,0,0,0Z" fill="#fff"/><path d="M55.26,104.2a.76.76,0,0,1,.26,0v.08a.55.55,0,0,1-.18,0h-.05a0,0,0,0,1,0,0Z" fill="#fff"/><path d="M55.39,105.12a.71.71,0,0,1-.25,0v-.08h0a.93.93,0,0,1,.23,0S55.4,105.09,55.39,105.12Z" fill="#fff"/><path d="M55.14,104.55v-.08h0a.75.75,0,0,1,.21,0h0s0,0,0,0,0,0,0,0A.7.7,0,0,1,55.14,104.55Z" fill="#fff"/><path d="M55.39,105.91a1.07,1.07,0,0,1-.25,0v-.09a.45.45,0,0,1,.16,0h.07s0,0,0,0Z" fill="#fff"/><path d="M55.52,104.77v.08a.58.58,0,0,1-.26,0v0h0a.69.69,0,0,1,.25,0Z" fill="#fff"/><path d="M55.14,105v-.09h.17l.07,0s0,0,0,0,0,0,0,0A1.06,1.06,0,0,1,55.14,105Z" fill="#fff"/><path d="M55.39,106.3a.54.54,0,0,1-.25,0v-.08h0a1.2,1.2,0,0,1,.2,0,0,0,0,0,1,0,0s0,0,0,0Z" fill="#fff"/><path d="M55.52,104.37v.08a.76.76,0,0,1-.26,0h0s0,0,0,0A.9.9,0,0,1,55.52,104.37Z" fill="#fff"/><path d="M55.14,103.28h.23s0,0,0,0a1.07,1.07,0,0,1-.25,0Z" fill="#fff"/><path d="M55.14,103.68a.54.54,0,0,1,.25,0h0s0,0,0,0a.53.53,0,0,1-.22,0h0Z" fill="#fff"/><path d="M55.14,106.13v-.08h0a.75.75,0,0,1,.21,0s0,0,0,0a0,0,0,0,1,0,0,.65.65,0,0,1-.24,0Z" fill="#fff"/><path d="M55.14,105.74v-.09a.65.65,0,0,1,.2,0h0s0,0,0,0h0a.5.5,0,0,1-.24,0Z" fill="#fff"/><path d="M55.14,106.84h.15l.08,0s0,0,0,0h0a.71.71,0,0,1-.25,0Z" fill="#fff"/><path d="M55.14,102.77v-.08a.54.54,0,0,1,.25,0v0h0A.49.49,0,0,1,55.14,102.77Z" fill="#fff"/><path d="M55.13,105.54v-.08h.09a.41.41,0,0,1,.16,0s0,0,0,0A.63.63,0,0,1,55.13,105.54Z" fill="#fff"/><path d="M55.14,106.64h.24s0,0,0,0,0,0,0,0l-.12,0h-.12A.22.22,0,0,1,55.14,106.64Z" fill="#fff"/><path d="M55.14,105.34v-.08h.24s0,0,0,0,0,0,0,0a.47.47,0,0,1-.17,0Z" fill="#fff"/><path d="M55.14,104.07h0a.64.64,0,0,1,.2,0s0,0,0,0,0,0,0,0a.47.47,0,0,1-.17,0h-.07S55.14,104.1,55.14,104.07Z" fill="#fff"/><path d="M55.26,103.61a.58.58,0,0,1,.26,0v.08a.78.78,0,0,1-.26,0Z" fill="#fff"/><path d="M55.52,103.19v.08a.58.58,0,0,1-.26,0v0A.76.76,0,0,1,55.52,103.19Z" fill="#fff"/><path d="M55.13,103.17v-.08a.74.74,0,0,1,.26,0h0s0,0,0,0h0A.66.66,0,0,1,55.13,103.17Z" fill="#fff"/><path d="M55.52,102.79v.08a.76.76,0,0,1-.26,0v0A.58.58,0,0,1,55.52,102.79Z" fill="#fff"/><path d="M55.39,103a.74.74,0,0,1-.26,0v-.08h.08l.16,0S55.4,102.92,55.39,103Z" fill="#fff"/><path d="M55.14,106.53v-.09a.16.16,0,0,0,.07,0,1,1,0,0,1,.17,0s0,0,0,0,0,0,0,0A1,1,0,0,1,55.14,106.53Z" fill="#fff"/><path d="M55.52,106.74v.09a1.15,1.15,0,0,1-.26,0h0v0A1.15,1.15,0,0,1,55.52,106.74Z" fill="#fff"/><path d="M55.14,103.56v-.08a.62.62,0,0,1,.19,0h.05s0,0,0,0,0,0,0,0a1,1,0,0,1-.24,0Z" fill="#fff"/><path d="M55.14,104.75v-.09h.22s0,0,0,0A.66.66,0,0,1,55.14,104.75Z" fill="#fff"/><path d="M55.39,103.9v0a.72.72,0,0,1-.25,0v-.08A.71.71,0,0,1,55.39,103.9Z" fill="#fff"/><path d="M55.14,104.35v-.08h.23s0,0,0,0A.71.71,0,0,1,55.14,104.35Z" fill="#fff"/><path d="M55.14,102.58v-.09h.07a.47.47,0,0,1,.17,0s0,0,0,0,0,0,0,0a.8.8,0,0,1-.15,0Z" fill="#fff"/></g><g id="ferMqf-9" data-name="ferMqf"><path d="M55.53,107.17v.09a.8.8,0,0,1-.26,0h0v0A.77.77,0,0,1,55.53,107.17Z" fill="#fff"/><path d="M55.53,109.15v.07h0a.55.55,0,0,1-.18,0h-.07s0,0,0,0a.72.72,0,0,1,.25,0Z" fill="#fff"/><path d="M55.53,107.57v.08a.74.74,0,0,1-.25,0v0A.69.69,0,0,1,55.53,107.57Z" fill="#fff"/><path d="M55.27,108.61v0h.06a.62.62,0,0,1,.19,0h0v.08A.8.8,0,0,1,55.27,108.61Z" fill="#fff"/><path d="M55.53,108v.09a.68.68,0,0,1-.2,0h0a0,0,0,0,1,0,0s0,0,0,0A.69.69,0,0,1,55.53,108Z" fill="#fff"/><path d="M55.27,108.39a.58.58,0,0,1,.26,0v.08h0a.44.44,0,0,1-.2,0h0a0,0,0,0,1,0,0S55.27,108.39,55.27,108.39Z" fill="#fff"/><path d="M55.27,108.78a1.15,1.15,0,0,1,.26,0v.09H55.3a0,0,0,0,1,0,0S55.27,108.78,55.27,108.78Z" fill="#fff"/><path d="M55.15,109.13v-.08h0a.75.75,0,0,1,.21,0h0a0,0,0,0,1,0,0,0,0,0,0,1,0,0A.69.69,0,0,1,55.15,109.13Z" fill="#fff"/><path d="M55.15,109.34v-.08h0a.75.75,0,0,1,.21,0h0s0,0,0,0,0,0,0,0A.69.69,0,0,1,55.15,109.34Z" fill="#fff"/><path d="M55.53,109V109a.71.71,0,0,1-.25,0h0s0,0,0,0A.6.6,0,0,1,55.53,109Z" fill="#fff"/><path d="M55.15,107.86h.23s0,0,0,0a1,1,0,0,1-.25,0Z" fill="#fff"/><path d="M55.15,108.26a.52.52,0,0,1,.25,0h0s0,0,0,0a.53.53,0,0,1-.22,0h0Z" fill="#fff"/><path d="M55.15,107.35v-.08a.54.54,0,0,1,.25,0,0,0,0,0,1,0,0h0A.54.54,0,0,1,55.15,107.35Z" fill="#fff"/><path d="M55.15,108.65h.05a.63.63,0,0,1,.19,0h0s0,0,0,0a.47.47,0,0,1-.17,0h-.07Z" fill="#fff"/><path d="M55.28,108.19a.52.52,0,0,1,.25,0v.08a.71.71,0,0,1-.25,0Z" fill="#fff"/><path d="M55.53,107.77v.08a.72.72,0,0,1-.25,0v0A.69.69,0,0,1,55.53,107.77Z" fill="#fff"/><path d="M55.15,107.75v-.08a.71.71,0,0,1,.25,0h0s0,0,0,0h0A.61.61,0,0,1,55.15,107.75Z" fill="#fff"/><path d="M55.53,107.37v.08a.71.71,0,0,1-.25,0v0A.52.52,0,0,1,55.53,107.37Z" fill="#fff"/><path d="M55.4,107.53a.71.71,0,0,1-.25,0v-.08h.08l.15,0S55.41,107.49,55.4,107.53Z" fill="#fff"/><path d="M55.15,108.14v-.08a.62.62,0,0,1,.19,0h.06s0,0,0,0,0,0,0,0a.65.65,0,0,1-.24,0Z" fill="#fff"/><path d="M55.41,108.48v0a.77.77,0,0,1-.26,0v-.08A.78.78,0,0,1,55.41,108.48Z" fill="#fff"/><path d="M55.15,108.93v-.08h.23s0,0,0,0A.69.69,0,0,1,55.15,108.93Z" fill="#fff"/><path d="M55.15,107.16v-.09h.07a.57.57,0,0,1,.18,0s0,0,0,0,0,0,0,0a.8.8,0,0,1-.15,0Z" fill="#fff"/></g><g id="ferMqf-10" data-name="ferMqf"><path d="M55.15,109.44v.09a.77.77,0,0,0,.26,0h0v0A.74.74,0,0,0,55.15,109.44Z" fill="#fff"/><path d="M55.15,109.84v.08a.78.78,0,0,0,.26,0v0A.76.76,0,0,0,55.15,109.84Z" fill="#fff"/><path d="M55.41,110.88v0h0a.45.45,0,0,0-.2,0h0v.08A.58.58,0,0,0,55.41,110.88Z" fill="#fff"/><path d="M55.15,110.23v.09a.65.65,0,0,0,.2,0h0s0,0,0,0h0A1.09,1.09,0,0,0,55.15,110.23Z" fill="#fff"/><path d="M55.41,110.66a.58.58,0,0,0-.26,0v.08h0a.46.46,0,0,0,.2,0h0s0,0,0,0Z" fill="#fff"/><path d="M55.54,110.13h-.23s0,0,0,0a1.09,1.09,0,0,0,.26,0Z" fill="#fff"/><path d="M55.54,110.53a.57.57,0,0,0-.26,0h0s0,0,0,0a.5.5,0,0,0,.21,0h0Z" fill="#fff"/><path d="M55.54,109.62v-.08a.58.58,0,0,0-.26,0v0h0A.52.52,0,0,0,55.54,109.62Z" fill="#fff"/><path d="M55.41,110.46a.58.58,0,0,0-.26,0v.08a.78.78,0,0,0,.26,0Z" fill="#fff"/><path d="M55.15,110v.08a.58.58,0,0,0,.26,0v0A.74.74,0,0,0,55.15,110Z" fill="#fff"/><path d="M55.54,110v-.08a.76.76,0,0,0-.26,0h0s0,0,0,0h0A.67.67,0,0,0,55.54,110Z" fill="#fff"/><path d="M55.15,109.64v.08a.76.76,0,0,0,.26,0v0A.57.57,0,0,0,55.15,109.64Z" fill="#fff"/><path d="M55.28,109.8a.74.74,0,0,0,.26,0v-.08h-.08l-.16,0S55.28,109.77,55.28,109.8Z" fill="#fff"/><path d="M55.54,110.41v-.08a.59.59,0,0,0-.19,0h-.06s0,0,0,0,0,0,0,0a1,1,0,0,0,.24,0Z" fill="#fff"/><path d="M55.28,110.75v0a.74.74,0,0,0,.26,0v-.08A.76.76,0,0,0,55.28,110.75Z" fill="#fff"/><path d="M55.54,109.43v-.09h-.07a.57.57,0,0,0-.18,0h0s0,0,0,0a.76.76,0,0,0,.16,0Z" fill="#fff"/></g></g></g><path d="M47.23,69.64a17.82,17.82,0,0,1,1,3c1.13,4-.8,5.38.13,10.09l.33-.31s.24-3.8.67-6.81c.4-2.79-1.07-5.82-1.2-6.26S47.23,68.4,47.23,69.64Z" fill="#fff"/><path d="M63.24,80H59.45a.49.49,0,0,0-.48.48v4.32a.48.48,0,0,0,.48.47h3.79a.47.47,0,0,0,.47-.47V80.44a.48.48,0,0,0-.47-.48m.21,4.8a.21.21,0,0,1-.21.21H59.45a.21.21,0,0,1-.21-.21V80.44a.21.21,0,0,1,.21-.21h3.79a.21.21,0,0,1,.21.21Z" fill="#79589f"/><polygon points="60.16 84.44 60.75 83.91 60.16 83.39 60.16 84.44" fill="#79589f"/><path d="M62.3,82.31a.84.84,0,0,0-.63-.24,3.17,3.17,0,0,0-1,.18v-1.5h-.53V83l.37-.17a3.44,3.44,0,0,1,1.14-.27c.27,0,.33.14.33.27v1.57h.53V82.86a.79.79,0,0,0-.23-.55" fill="#79589f"/><path d="M61.61,81.61h.52a1.58,1.58,0,0,0,.4-.86H62a2.15,2.15,0,0,1-.39.86" fill="#79589f"/><path d="M62.78,69.64a17.82,17.82,0,0,0-1,3c-1.13,4,.8,5.38-.13,10.09l-.33-.31s-.24-3.8-.67-6.81c-.4-2.79,1.07-5.82,1.2-6.26S62.78,68.4,62.78,69.64Z" fill="#fff"/></g></svg>