<svg xmlns="http://www.w3.org/2000/svg" xmlns:xlink="http://www.w3.org/1999/xlink" width="110" height="194" viewBox="0 0 110 194"><defs><linearGradient id="New_Gradient_Swatch_4" x1="45.72" y1="152.13" x2="46.66" y2="187.06" gradientUnits="userSpaceOnUse"><stop offset="0" stop-color="#2c3b4c"/><stop offset="0.21" stop-color="#293747"/><stop offset="0.46" stop-color="#212c38"/><stop offset="0.73" stop-color="#131920"/><stop offset="1"/></linearGradient><linearGradient id="New_Gradient_Swatch_4-2" x1="65.52" y1="144.57" x2="62.71" y2="185.42" xlink:href="#New_Gradient_Swatch_4"/><clipPath id="clip-path"><path d="M75.14,64.22a2.21,2.21,0,0,1,.26,1.34,1.91,1.91,0,0,1-.53,1.13A1.91,1.91,0,0,1,75,68.14a2,2,0,0,1-.76,1.14,2,2,0,0,1-.48,2.82A1.86,1.86,0,0,1,74,73.86,2,2,0,0,1,73.2,75a1.91,1.91,0,0,1,.2,1.69,1.88,1.88,0,0,1-.8,1.07h0a1.76,1.76,0,0,1,.26,1.67.68.68,0,0,1,0,.14,2,2,0,0,1-.55,1,1.85,1.85,0,0,1,.61,1.69,2,2,0,0,1-.58,1.22,2.11,2.11,0,0,1,0,2.8A1.94,1.94,0,0,1,72.9,88,2,2,0,0,1,72.42,89a1.61,1.61,0,0,1,.47.7,2.12,2.12,0,0,1,.11.45,1.27,1.27,0,0,1,0,.28h0a.43.43,0,0,1,0,.16,1.93,1.93,0,0,1-.07.43,1.76,1.76,0,0,1-.37.75,1.87,1.87,0,0,1,.78,1.6,1.93,1.93,0,0,1-.45,1.29,2.08,2.08,0,0,1,.3,2.78A1.91,1.91,0,0,1,74,99.13a1.94,1.94,0,0,1-.38,1.14,1.84,1.84,0,0,1,.79,1.51,2,2,0,0,1-.35,1.28,1.83,1.83,0,0,1,.83,1.53,2,2,0,0,1-.35,1.27,2,2,0,0,1,.82,1.52c.19,1.5-1.76,2.15-2.08,2.33-2.48,1.38-10,2.23-17.51,2.32h-.22c-7.53-.09-19.85-1.16-19.79-4.45a1.77,1.77,0,0,1,.82-1.52,2,2,0,0,1-.35-1.28,1.8,1.8,0,0,1,.83-1.52,2,2,0,0,1-.36-1.28,1.86,1.86,0,0,1,.8-1.51,1.9,1.9,0,0,1-.38-1.14,1.92,1.92,0,0,1,.76-1.66,2.07,2.07,0,0,1,.31-2.78,1.93,1.93,0,0,1-.45-1.28,1.89,1.89,0,0,1,.77-1.6,1.56,1.56,0,0,1-.27-.47.78.78,0,0,1,0-.14.16.16,0,0,1,0-.09l0-.12a2,2,0,0,1,0-.26s0-.07,0-.1v-.3a1.57,1.57,0,0,1,.05-.3h0a1.66,1.66,0,0,1,.56-1,2,2,0,0,1-.48-1.08,1.91,1.91,0,0,1,.59-1.72,1.86,1.86,0,0,1-.54-1.18,1.94,1.94,0,0,1,.53-1.62,1.91,1.91,0,0,1-.58-1.23,1.87,1.87,0,0,1,.61-1.69,2,2,0,0,1-.56-1,1,1,0,0,1,0-.17,1.82,1.82,0,0,1,.26-1.65,2.06,2.06,0,0,1-.59-2.76,2,2,0,0,1-.82-1.1,1.86,1.86,0,0,1,.25-1.75,1.89,1.89,0,0,1-.74-1,1.84,1.84,0,0,1,.25-1.82,2,2,0,0,1-.76-1.14,2,2,0,0,1,.14-1.46,1.93,1.93,0,0,1-.52-1.12,2.19,2.19,0,0,1,.26-1.34,1.75,1.75,0,0,1-.68-1.48,2.25,2.25,0,0,1,.17-.87,2,2,0,0,1-.17-.85,2.15,2.15,0,0,1,.32-1.15c.15-3.24,12.52-6.28,14.43-4.51h0l5.83,9.59,5.23-9.79a4.32,4.32,0,0,1,2.51-.3h.16c3.65.2,10.49,2.27,11.6,4.61h0A1.94,1.94,0,0,1,75.81,61a2,2,0,0,1-.17.85,2.25,2.25,0,0,1,.17.87A1.78,1.78,0,0,1,75.14,64.22Z" fill="none"/></clipPath></defs><title>landian-28-body</title><g id="landians"><path d="M35.47,63S25.69,83.32,24.91,90.13c-.23,2-.07,4.53,2.26,5.23s3.55-2.7,3.87-3.52,7.85-20,8.5-21.75,1.2-5.61.5-6.93S36.43,60.68,35.47,63Z" fill="#d69471"/><path d="M35.76,60.9a128.14,128.14,0,0,0-9.67,17.93s3.59,5.62,9.67,5.3c0,0,4.84-10.44,5.15-14.34S40.91,60.59,35.76,60.9Z" fill="#e6f5fc"/><path d="M31.24,112.55s-.38-19.11-.69-20.93a3.91,3.91,0,0,0-2.83-3.48c-1.81-.65-2.72,1.09-3,2.32-1.61,7.32,1.41,18.34,1.23,21.93s-2.78,9.07-2.5,11.3,2.27,5.23,3,5.18,3.26-2.51,3.58-9.34c0,0,1.06,2.5,2.07,1.94S31.47,114.26,31.24,112.55Z" fill="#d69471"/><path d="M43.49,185.73s-1.18-10.07-4.61-40.63c-.76-6.74,13-7.86,13.34.86.69,19.41-1.18,42.88-1.18,42.88S49.73,186,43.49,185.73Z" fill="url(#New_Gradient_Swatch_4)"/><path d="M38.82,144.31a370.74,370.74,0,0,1-.72-39.91c.14-3.63,8.42-6.23,12.16-4.36,2.7,1.35,6.94,11.15,5.93,14.34-2,6.35-4.71,21.77-4,30.29.22,2.83-3.58,5.63-5.78,5.58C44.68,150.21,39.08,148.2,38.82,144.31Z" fill="#2c3b4c"/><path d="M67.51,185.73s1.18-10.07,4.61-40.63c.76-6.74-13-7.86-13.34.86C58.09,165.37,60,188.84,60,188.84S61.27,186,67.51,185.73Z" fill="url(#New_Gradient_Swatch_4-2)"/><path d="M72.18,144.31a370.74,370.74,0,0,0,.72-39.91c-.14-3.63-8.42-6.23-12.16-4.36-2.7,1.35-6.94,11.15-5.93,14.34,2,6.35,4.71,21.77,4,30.29-.22,2.83,3.58,5.63,5.78,5.58C66.32,150.21,71.92,148.2,72.18,144.31Z" fill="#2c3b4c"/><path d="M75.91,63.07s9.31,20.5,9.94,27.33c.18,2,0,4.53-2.39,5.17S80,92.79,79.67,92s-7.38-20.19-8-22-1.07-5.63-.34-6.93S75,60.7,75.91,63.07Z" fill="#d69471"/><path d="M75.24,60.9a128.14,128.14,0,0,1,9.67,17.93s-3.59,5.62-9.67,5.3c0,0-4.84-10.44-5.15-14.34S70.09,60.59,75.24,60.9Z" fill="#e6f5fc"/><path d="M64.25,57.45c-4.42-1.48-4.63-7-4.63-7l-8.31.32s-.21,5.47-4.63,6.94l8.84,26.3Z" fill="#cc8969"/><path d="M55.62,69.12s-5.57-8.73-5.89-13.57A42.09,42.09,0,0,1,44,57.94c-3,1-8.21,1.89-9.05,4.52,0,0,3.05,12,3.29,13.43,2.34,14,3.59,15.9.08,31.34-.8,3.49,17.38.29,17.38.29Z" fill="#e6f5fc"/><path d="M39.5,105.81c11.83,5.19,33.23,1.34,33.23,1.34L73,120.71s-19.54,5.14-34.84-.7C38.12,120,37.94,108.78,39.5,105.81Z" fill="#2c3b4c"/><path d="M55.22,69.12s5.49-8.53,6.11-13.28a58.38,58.38,0,0,0,5.49,2.1c2.94,1,8,1.74,8.86,4.37,0,0-2.81,12.14-3.11,13.58-3.51,16.84-1.95,19.64-.08,31.34.57,3.54-17.37.29-17.37.29Z" fill="#e6f5fc"/><path d="M61.49,55.6l3,1.4,1.26,6.76s-5.57-3-6.84-1.16Z" fill="#e6f5fc"/><path d="M49.73,55.55,46.36,57,45.1,63.76s5.58-3,6.84-1.16Z" fill="#e6f5fc"/><path d="M79,112.67s.81-19.11,1.16-20.91a3.89,3.89,0,0,1,2.91-3.41c1.82-.62,2.7,1.14,2.94,2.38,1.44,7.35-1.83,18.3-1.73,21.89s2.57,9.14,2.24,11.36-2.38,5.18-3.09,5.11-3.21-2.58-3.38-9.42c0,0-1.11,2.48-2.1,1.9S78.74,114.37,79,112.67Z" fill="#d69471"/><path d="M75.14,64.22a2.21,2.21,0,0,1,.26,1.34,1.91,1.91,0,0,1-.53,1.13A1.91,1.91,0,0,1,75,68.14a2,2,0,0,1-.76,1.14,2,2,0,0,1-.48,2.82A1.86,1.86,0,0,1,74,73.86,2,2,0,0,1,73.2,75a1.91,1.91,0,0,1,.2,1.69,1.88,1.88,0,0,1-.8,1.07h0a1.76,1.76,0,0,1,.26,1.67.68.68,0,0,1,0,.14,2,2,0,0,1-.55,1,1.85,1.85,0,0,1,.61,1.69,2,2,0,0,1-.58,1.22,2.11,2.11,0,0,1,0,2.8A1.94,1.94,0,0,1,72.9,88,2,2,0,0,1,72.42,89a1.61,1.61,0,0,1,.47.7,2.12,2.12,0,0,1,.11.45,1.27,1.27,0,0,1,0,.28h0a.43.43,0,0,1,0,.16,1.93,1.93,0,0,1-.07.43,1.76,1.76,0,0,1-.37.75,1.87,1.87,0,0,1,.78,1.6,1.93,1.93,0,0,1-.45,1.29,2.08,2.08,0,0,1,.3,2.78A1.91,1.91,0,0,1,74,99.13a1.94,1.94,0,0,1-.38,1.14,1.84,1.84,0,0,1,.79,1.51,2,2,0,0,1-.35,1.28,1.83,1.83,0,0,1,.83,1.53,2,2,0,0,1-.35,1.27,2,2,0,0,1,.82,1.52c.19,1.5-1.76,2.15-2.08,2.33-2.48,1.38-10,2.23-17.51,2.32h-.22c-7.53-.09-19.85-1.16-19.79-4.45a1.77,1.77,0,0,1,.82-1.52,2,2,0,0,1-.35-1.28,1.8,1.8,0,0,1,.83-1.52,2,2,0,0,1-.36-1.28,1.86,1.86,0,0,1,.8-1.51,1.9,1.9,0,0,1-.38-1.14,1.92,1.92,0,0,1,.76-1.66,2.07,2.07,0,0,1,.31-2.78,1.93,1.93,0,0,1-.45-1.28,1.89,1.89,0,0,1,.77-1.6,1.56,1.56,0,0,1-.27-.47.78.78,0,0,1,0-.14.16.16,0,0,1,0-.09l0-.12a2,2,0,0,1,0-.26s0-.07,0-.1v-.3a1.57,1.57,0,0,1,.05-.3h0a1.66,1.66,0,0,1,.56-1,2,2,0,0,1-.48-1.08,1.91,1.91,0,0,1,.59-1.72,1.86,1.86,0,0,1-.54-1.18,1.94,1.94,0,0,1,.53-1.62,1.91,1.91,0,0,1-.58-1.23,1.87,1.87,0,0,1,.61-1.69,2,2,0,0,1-.56-1,1,1,0,0,1,0-.17,1.82,1.82,0,0,1,.26-1.65,2.06,2.06,0,0,1-.59-2.76,2,2,0,0,1-.82-1.1,1.86,1.86,0,0,1,.25-1.75,1.89,1.89,0,0,1-.74-1,1.84,1.84,0,0,1,.25-1.82,2,2,0,0,1-.76-1.14,2,2,0,0,1,.14-1.46,1.93,1.93,0,0,1-.52-1.12,2.19,2.19,0,0,1,.26-1.34,1.75,1.75,0,0,1-.68-1.48,2.25,2.25,0,0,1,.17-.87,2,2,0,0,1-.17-.85,2.15,2.15,0,0,1,.32-1.15c.15-3.24,12.52-6.28,14.43-4.51h0l5.83,9.59,5.23-9.79a4.32,4.32,0,0,1,2.51-.3h.16c3.65.2,10.49,2.27,11.6,4.61h0A1.94,1.94,0,0,1,75.81,61a2,2,0,0,1-.17.85,2.25,2.25,0,0,1,.17.87A1.78,1.78,0,0,1,75.14,64.22Z" fill="#79589f"/><g clip-path="url(#clip-path)"><line x1="24.38" y1="56.68" x2="103.1" y2="56.68" fill="none" stroke="#cfd1d2" stroke-miterlimit="10" stroke-width="0.04" opacity="0.25"/><line x1="24.38" y1="59.19" x2="103.1" y2="59.19" fill="none" stroke="#cfd1d2" stroke-miterlimit="10" stroke-width="0.04" opacity="0.25"/><line x1="24.38" y1="64.21" x2="103.1" y2="64.21" fill="none" stroke="#cfd1d2" stroke-miterlimit="10" stroke-width="0.04" opacity="0.25"/><line x1="24.38" y1="69.23" x2="103.1" y2="69.23" fill="none" stroke="#cfd1d2" stroke-miterlimit="10" stroke-width="0.04" opacity="0.25"/><line x1="24.38" y1="61.7" x2="103.1" y2="61.7" fill="none" stroke="#cfd1d2" stroke-miterlimit="10" stroke-width="0.04" opacity="0.25"/><line x1="24.38" y1="66.72" x2="103.1" y2="66.72" fill="none" stroke="#cfd1d2" stroke-miterlimit="10" stroke-width="0.04" opacity="0.25"/><line x1="24.38" y1="76.76" x2="103.1" y2="76.76" fill="none" stroke="#cfd1d2" stroke-miterlimit="10" stroke-width="0.04" opacity="0.25"/><line x1="24.38" y1="79.27" x2="103.1" y2="79.27" fill="none" stroke="#cfd1d2" stroke-miterlimit="10" stroke-width="0.04" opacity="0.25"/><line x1="24.38" y1="71.74" x2="103.1" y2="71.74" fill="none" stroke="#cfd1d2" stroke-miterlimit="10" stroke-width="0.04" opacity="0.25"/><line x1="24.38" y1="74.25" x2="103.1" y2="74.25" fill="none" stroke="#cfd1d2" stroke-miterlimit="10" stroke-width="0.04" opacity="0.25"/><line x1="24.38" y1="86.79" x2="103.1" y2="86.79" fill="none" stroke="#cfd1d2" stroke-miterlimit="10" stroke-width="0.04" opacity="0.25"/><line x1="24.38" y1="94.32" x2="103.1" y2="94.32" fill="none" stroke="#cfd1d2" stroke-miterlimit="10" stroke-width="0.04" opacity="0.25"/><line x1="24.38" y1="89.3" x2="103.1" y2="89.3" fill="none" stroke="#cfd1d2" stroke-miterlimit="10" stroke-width="0.04" opacity="0.25"/><line x1="24.38" y1="96.83" x2="103.1" y2="96.83" fill="none" stroke="#cfd1d2" stroke-miterlimit="10" stroke-width="0.04" opacity="0.25"/><line x1="24.38" y1="81.78" x2="103.1" y2="81.78" fill="none" stroke="#cfd1d2" stroke-miterlimit="10" stroke-width="0.04" opacity="0.25"/><line x1="24.38" y1="84.28" x2="103.1" y2="84.28" fill="none" stroke="#cfd1d2" stroke-miterlimit="10" stroke-width="0.04" opacity="0.25"/><line x1="24.38" y1="91.81" x2="103.1" y2="91.81" fill="none" stroke="#cfd1d2" stroke-miterlimit="10" stroke-width="0.04" opacity="0.25"/><line x1="24.38" y1="99.34" x2="103.1" y2="99.34" fill="none" stroke="#cfd1d2" stroke-miterlimit="10" stroke-width="0.04" opacity="0.25"/><line x1="24.38" y1="106.87" x2="103.1" y2="106.87" fill="none" stroke="#cfd1d2" stroke-miterlimit="10" stroke-width="0.04" opacity="0.25"/><line x1="24.38" y1="109.38" x2="103.1" y2="109.38" fill="none" stroke="#cfd1d2" stroke-miterlimit="10" stroke-width="0.04" opacity="0.25"/><line x1="24.38" y1="101.85" x2="103.1" y2="101.85" fill="none" stroke="#cfd1d2" stroke-miterlimit="10" stroke-width="0.04" opacity="0.25"/><line x1="24.38" y1="104.36" x2="103.1" y2="104.36" fill="none" stroke="#cfd1d2" stroke-miterlimit="10" stroke-width="0.04" opacity="0.25"/></g><path d="M58,58.71c-.37.75-2.88,6.08-2.13,6.44s4.45-4.37,4.82-5.12l3.49-7.09a.65.65,0,0,0-.08-.71C62,49.84,58,58.71,58,58.71Z" fill="#513875"/><rect x="55.18" y="64.49" width="1.28" height="47.54" fill="#513875"/><rect x="55.51" y="64.49" width="0.62" height="47.54" fill="#adadad"/><path d="M53.68,58.57c.37.75,2.87,6.08,2.13,6.44S51.35,60.64,51,59.89L47.5,52.8a.63.63,0,0,1,.07-.71C49.66,49.71,53.68,58.57,53.68,58.57Z" fill="#513875"/><path d="M47.42,39.88s-1.86-2.3-3.76-.38,1.57,6.68,3.87,7.44S47.42,39.88,47.42,39.88Z" fill="#d69471"/><path d="M64,39.63s1.79-2.35,3.75-.49-1.38,6.72-3.66,7.55S64,39.63,64,39.63Z" fill="#d69471"/><path d="M52.37,184.63c-.08,1.8-.11,3.63-.19,5.14-3.38-4.85-8-4.33-9.75-3.72-.11-1-.24-2.05-.37-3.22A13.5,13.5,0,0,1,52.37,184.63Z" fill="#7894a6"/><path d="M69.05,182.83c-.14,1.18-.26,2.25-.37,3.23-1.76-.62-6.29-1.33-9.68,3.5-.09-1.5-.18-3.16-.27-4.95A13.56,13.56,0,0,1,69.05,182.83Z" fill="#7894a6"/><path d="M42.08,186.29c2.5-1-11,4-12.38,4.36s-1.71,2.85-1,2.92,20,.56,21.44.39,4.85.74,2.62-3.22C47.85,182,39.58,187.33,42.08,186.29Z" fill="#603917"/><path d="M68.92,186.29c-2.5-1,11,4,12.38,4.36s1.71,2.85,1,2.92-20,.56-21.44.39-4.85.74-2.62-3.22C63.15,182,71.42,187.33,68.92,186.29Z" fill="#603917"/></g></svg>