<svg xmlns="http://www.w3.org/2000/svg" width="110" height="194" viewBox="0 0 110 194"><title>landian-01-face</title><g id="face"><ellipse cx="54.79" cy="53.52" rx="10.54" ry="14.48" fill="#e2b68a"/><ellipse cx="49.48" cy="55.35" rx="1.24" ry="2.02" transform="translate(-0.81 0.74) rotate(-0.85)" fill="#0e090a"/><ellipse cx="59.39" cy="55.2" rx="1.24" ry="2.02" transform="translate(-0.81 0.88) rotate(-0.85)" fill="#0e090a"/><path d="M58.28,62.27l-3.44.86-3.6-.74A24.54,24.54,0,0,1,54.73,62,19.57,19.57,0,0,1,58.28,62.27Z" fill="#d66770"/><path d="M51.24,62.39a13.25,13.25,0,0,0,7-.12,4,4,0,0,1-3.47,2A3.71,3.71,0,0,1,51.24,62.39Z" fill="#db4557"/></g></svg>