<svg xmlns="http://www.w3.org/2000/svg" xmlns:xlink="http://www.w3.org/1999/xlink" width="110" height="194" viewBox="0 0 110 194"><defs><clipPath id="clip-path"><path d="M68.85,75.2a1.56,1.56,0,0,1,.19,1,1.38,1.38,0,0,1-.39.84,1.4,1.4,0,0,1,.11,1.08,1.5,1.5,0,0,1-.57.85,1.36,1.36,0,0,1,.19,1.36,1.41,1.41,0,0,1-.54.74,1.55,1.55,0,0,1-.43,2.11,1.44,1.44,0,0,1,.15,1.27,1.42,1.42,0,0,1-.6.79h0a1.31,1.31,0,0,1,.2,1.24.36.36,0,0,1,0,.1,1.41,1.41,0,0,1-.41.74,1.4,1.4,0,0,1,.46,1.25,1.48,1.48,0,0,1-.44.92,1.41,1.41,0,0,1,.39,1.21,1.36,1.36,0,0,1-.39.87,1.4,1.4,0,0,1,.43,1.28,1.44,1.44,0,0,1-.35.8,1.17,1.17,0,0,1,.35.52,1.14,1.14,0,0,1,.08.33,1.49,1.49,0,0,1,0,.21h0v.12a1.64,1.64,0,0,1,0,.32,1.41,1.41,0,0,1-.28.56,1.4,1.4,0,0,1,.58,1.19,1.42,1.42,0,0,1-.34,1A1.42,1.42,0,0,1,67.72,99a1.49,1.49,0,0,1-.3.92,1.43,1.43,0,0,1,.57,1.22,1.49,1.49,0,0,1-.28.85,1.42,1.42,0,0,1,.59,1.13,1.47,1.47,0,0,1-.27,1,1.34,1.34,0,0,1,.62,1.13,1.46,1.46,0,0,1-.26,1A1.45,1.45,0,0,1,69,107.3c.14,1.12-1.31,1.6-1.54,1.73-1.85,1-7.43,1.66-13,1.73h-.17c-5.6-.07-14.76-.86-14.72-3.31a1.33,1.33,0,0,1,.61-1.13,1.46,1.46,0,0,1-.26-.95,1.38,1.38,0,0,1,.62-1.14,1.46,1.46,0,0,1-.26-1,1.35,1.35,0,0,1,.59-1.12,1.35,1.35,0,0,1-.28-.85,1.4,1.4,0,0,1,.56-1.23A1.56,1.56,0,0,1,41.35,98a1.54,1.54,0,0,1,.24-2.15,1.13,1.13,0,0,1-.2-.34s0-.07,0-.11a.14.14,0,0,1,0-.06l0-.09,0-.2s0,0,0-.07v-.22a1.57,1.57,0,0,1,0-.23h0a1.26,1.26,0,0,1,.41-.73,1.47,1.47,0,0,1-.35-.8,1.41,1.41,0,0,1,.44-1.29,1.42,1.42,0,0,1-.4-.87,1.44,1.44,0,0,1,.39-1.21,1.45,1.45,0,0,1-.43-.91,1.39,1.39,0,0,1,.45-1.26,1.38,1.38,0,0,1-.41-.73.5.5,0,0,1,0-.12,1.35,1.35,0,0,1,.2-1.23,1.38,1.38,0,0,1-.59-.8,1.42,1.42,0,0,1,.15-1.26,1.51,1.51,0,0,1-.43-2.12,1.51,1.51,0,0,1-.36-2.09,1.55,1.55,0,0,1-.46-1.93,1.41,1.41,0,0,1-.39-.84,1.59,1.59,0,0,1,.19-1,1.3,1.3,0,0,1-.5-1.1,1.5,1.5,0,0,1,.13-.64,1.47,1.47,0,0,1-.13-.64,1.57,1.57,0,0,1,.24-.85c.1-2.41,9.3-4.67,10.73-3.36h0l4.33,7.14,3.9-7.29a3.21,3.21,0,0,1,1.86-.22h.12c2.72.15,7.81,1.68,8.63,3.43h0a1.48,1.48,0,0,1,.34,1,1.57,1.57,0,0,1-.12.63,1.66,1.66,0,0,1,.12.64A1.34,1.34,0,0,1,68.85,75.2Z" fill="#6d6e70"/></clipPath></defs><title>landian-10</title><g id="landians"><path d="M67.48,70.48C72.14,73,74.45,87.84,75.1,90c.85,2.75,2.33,8.25,0,9.31s-4-2.54-5.71-6.56S63.88,81.13,63,78.1C62,74.29,62.83,67.94,67.48,70.48Z" fill="#d0d2d3"/><path d="M42.35,70.49C37.67,73,35.27,87.81,34.6,89.92c-.86,2.74-2.38,8.23-.06,9.31s4-2.52,5.76-6.53,5.58-11.53,6.44-14.56C47.82,74.34,47,68,42.35,70.49Z" fill="#d0d2d3"/><path d="M67.43,149.15s5.22-15.68,2.68-30.07-13.61-4.85-13.4,7.21.37,21.59.35,23.7C57,157.82,63.2,159.94,67.43,149.15Z" fill="#733ec6"/><path d="M63.87,177.07s-1.6,6.63.18,8.57,8.48,8,8.48,8L57,190.14s.62-8.72.62-12.24S63.87,177.07,63.87,177.07Z" fill="#c58b5e"/><path d="M57,187.45s-.28,1,6.67,1.5a7.38,7.38,0,0,0,3.84-.67s7.09,3.28,7.23,4.26c0,1.23-4,1.34-8.78,1.24-1.72,0-9.72-.11-9.72-.11S54.87,190.07,57,187.45Z"/><path d="M69.49,189.17s-2.89-2.67-3.95-3A1.49,1.49,0,0,0,63.82,188c.33.78,2.22,2,2.22,2Z"/><path d="M70.83,189.84s4.33.67,4.55,3.89c-4.33.67-19.45-.11-19.45-.11s-1.67-4.12,1.11-6.17a14.28,14.28,0,0,1,2,4.61l11,.22A3.77,3.77,0,0,1,70.83,189.84Z"/><path d="M64.82,189.62s1.11-2.12,2.23-2.67l1,.89Z" fill="#cbcbca"/><path d="M66.27,191a7.72,7.72,0,0,1,2.22-2.67l1,.89Z" fill="#cbcbca"/><path d="M65.24,179.8s1.12-22.57.92-28-7.91-5.6-8.88-.71c-1.25,6.23-2.22,8.47-1.66,17.65.36,6,.53,10.07.63,11.34C56.31,180.85,63.84,182.34,65.24,179.8Z" fill="#733ec6"/><path d="M41.81,149.89s-6-15.87-3.46-30.26S52.74,115,52.53,127s-.37,21.58-.35,23.7C52.23,158.57,46,160.68,41.81,149.89Z" fill="#733ec6"/><path d="M45.37,177.07s1.6,6.63-.18,8.57-8.48,8-8.48,8l15.52-3.5s-.63-8.72-.63-12.24S45.37,177.07,45.37,177.07Z" fill="#c58b5e"/><path d="M51.84,187.45s.28,1-6.67,1.5a7.32,7.32,0,0,1-3.83-.67s-7.09,3.28-7.24,4.26c0,1.23,3.95,1.34,8.78,1.24,1.73,0,9.72-.11,9.72-.11S54,190.07,51.84,187.45Z"/><path d="M39.39,189.17s2.89-2.67,4-3A1.48,1.48,0,0,1,45.06,188c-.33.78-2.22,2-2.22,2Z"/><path d="M38.06,189.84s-4.34.67-4.56,3.89c4.34.67,19.46-.11,19.46-.11s1.66-4.12-1.12-6.17a14.52,14.52,0,0,0-2,4.61l-11,.22A3.77,3.77,0,0,0,38.06,189.84Z"/><path d="M44.06,189.62S43,187.5,41.84,187l-1,.89Z" fill="#cbcbca"/><path d="M42.62,191a7.79,7.79,0,0,0-2.23-2.67l-1,.89Z" fill="#cbcbca"/><path d="M43.69,179.8s-1.12-22.57-.91-28,7.9-5.6,8.88-.71c1.24,6.23,2.21,8.47,1.66,17.65-.36,6-.54,10.07-.64,11.34C52.62,180.85,45.09,182.34,43.69,179.8Z" fill="#733ec6"/><path d="M50.71,61.33s1.85,5.55-1.4,7.13c-.09.05-1.39.54-1.36,1.46.15,5.63,3.76,25,6.65,25.21,2.17.14,5.55-18.78,6.86-25.81.12-.68-.34-.75-1.63-.94,0,0-2.14-.3-1.44-6.35C58.68,59.49,50.71,61.33,50.71,61.33Z" fill="#b7784b"/><path d="M41.85,106.62s-1.64,2.37-3.2,9.58a26.88,26.88,0,0,0-.67,5.28c0,1.21.11,1.33.66,1.92,5.19,5.45,25.54,6.1,30.56,0a3,3,0,0,0,.84-2.71,42.62,42.62,0,0,0-.69-5.1,41.37,41.37,0,0,0-2.71-9.2Z" fill="#733ec6"/><path d="M49.16,68.45S42.58,70,42.37,70.87a52.5,52.5,0,0,0,.1,11.41c.73,5.76,1.07,8.59,1.41,11.58.09.74-3.07,13.16-3.07,14.7,0,2.06,26.85,1.86,26.85.17,0-.67-2.77-12.37-2.48-15,.6-5.65,1.37-8,1.45-11.2.09-3.48,1.69-10.76,1.08-11.62-1.06-1.49-7.64-2.44-7.64-2.44L55,76.19Z" fill="#d0d2d3"/><path d="M68.85,75.2a1.56,1.56,0,0,1,.19,1,1.38,1.38,0,0,1-.39.84,1.4,1.4,0,0,1,.11,1.08,1.5,1.5,0,0,1-.57.85,1.36,1.36,0,0,1,.19,1.36,1.41,1.41,0,0,1-.54.74,1.55,1.55,0,0,1-.43,2.11,1.44,1.44,0,0,1,.15,1.27,1.42,1.42,0,0,1-.6.79h0a1.31,1.31,0,0,1,.2,1.24.36.36,0,0,1,0,.1,1.41,1.41,0,0,1-.41.74,1.4,1.4,0,0,1,.46,1.25,1.48,1.48,0,0,1-.44.92,1.41,1.41,0,0,1,.39,1.21,1.36,1.36,0,0,1-.39.87,1.4,1.4,0,0,1,.43,1.28,1.44,1.44,0,0,1-.35.8,1.17,1.17,0,0,1,.35.52,1.14,1.14,0,0,1,.08.33,1.49,1.49,0,0,1,0,.21h0v.12a1.64,1.64,0,0,1,0,.32,1.41,1.41,0,0,1-.28.56,1.4,1.4,0,0,1,.58,1.19,1.42,1.42,0,0,1-.34,1A1.42,1.42,0,0,1,67.72,99a1.49,1.49,0,0,1-.3.92,1.43,1.43,0,0,1,.57,1.22,1.49,1.49,0,0,1-.28.85,1.42,1.42,0,0,1,.59,1.13,1.47,1.47,0,0,1-.27,1,1.34,1.34,0,0,1,.62,1.13,1.46,1.46,0,0,1-.26,1A1.45,1.45,0,0,1,69,107.3c.14,1.12-1.31,1.6-1.54,1.73-1.85,1-7.43,1.66-13,1.73h-.17c-5.6-.07-14.76-.86-14.72-3.31a1.33,1.33,0,0,1,.61-1.13,1.46,1.46,0,0,1-.26-.95,1.38,1.38,0,0,1,.62-1.14,1.46,1.46,0,0,1-.26-1,1.35,1.35,0,0,1,.59-1.12,1.35,1.35,0,0,1-.28-.85,1.4,1.4,0,0,1,.56-1.23A1.56,1.56,0,0,1,41.35,98a1.54,1.54,0,0,1,.24-2.15,1.13,1.13,0,0,1-.2-.34s0-.07,0-.11a.14.14,0,0,1,0-.06l0-.09,0-.2s0,0,0-.07v-.22a1.57,1.57,0,0,1,0-.23h0a1.26,1.26,0,0,1,.41-.73,1.47,1.47,0,0,1-.35-.8,1.41,1.41,0,0,1,.44-1.29,1.42,1.42,0,0,1-.4-.87,1.44,1.44,0,0,1,.39-1.21,1.45,1.45,0,0,1-.43-.91,1.39,1.39,0,0,1,.45-1.26,1.38,1.38,0,0,1-.41-.73.5.5,0,0,1,0-.12,1.35,1.35,0,0,1,.2-1.23,1.38,1.38,0,0,1-.59-.8,1.42,1.42,0,0,1,.15-1.26,1.51,1.51,0,0,1-.43-2.12,1.51,1.51,0,0,1-.36-2.09,1.55,1.55,0,0,1-.46-1.93,1.41,1.41,0,0,1-.39-.84,1.59,1.59,0,0,1,.19-1,1.3,1.3,0,0,1-.5-1.1,1.5,1.5,0,0,1,.13-.64,1.47,1.47,0,0,1-.13-.64,1.57,1.57,0,0,1,.24-.85c.1-2.41,9.3-4.67,10.73-3.36h0l4.33,7.14,3.9-7.29a3.21,3.21,0,0,1,1.86-.22h.12c2.72.15,7.81,1.68,8.63,3.43h0a1.48,1.48,0,0,1,.34,1,1.57,1.57,0,0,1-.12.63,1.66,1.66,0,0,1,.12.64A1.34,1.34,0,0,1,68.85,75.2Z" fill="#6d6e70"/><g clip-path="url(#clip-path)"><line x1="31.1" y1="69.59" x2="89.65" y2="69.59" fill="#808184" stroke="#404041" stroke-miterlimit="10" stroke-width="0.46"/><line x1="31.1" y1="71.45" x2="89.65" y2="71.45" fill="#808184" stroke="#404041" stroke-miterlimit="10" stroke-width="0.46"/><line x1="31.1" y1="75.19" x2="89.65" y2="75.19" fill="#808184" stroke="#404041" stroke-miterlimit="10" stroke-width="0.46"/><line x1="31.1" y1="78.92" x2="89.65" y2="78.92" fill="#808184" stroke="#404041" stroke-miterlimit="10" stroke-width="0.46"/><line x1="31.1" y1="73.32" x2="89.65" y2="73.32" fill="#808184" stroke="#404041" stroke-miterlimit="10" stroke-width="0.46"/><line x1="31.1" y1="77.05" x2="89.65" y2="77.05" fill="#808184" stroke="#404041" stroke-miterlimit="10" stroke-width="0.46"/><line x1="31.1" y1="84.52" x2="89.65" y2="84.52" fill="#808184" stroke="#404041" stroke-miterlimit="10" stroke-width="0.46"/><line x1="31.1" y1="86.39" x2="89.65" y2="86.39" fill="#808184" stroke="#404041" stroke-miterlimit="10" stroke-width="0.46"/><line x1="31.1" y1="80.79" x2="89.65" y2="80.79" fill="#808184" stroke="#404041" stroke-miterlimit="10" stroke-width="0.46"/><line x1="31.1" y1="82.65" x2="89.65" y2="82.65" fill="#808184" stroke="#404041" stroke-miterlimit="10" stroke-width="0.46"/><line x1="31.1" y1="91.99" x2="89.65" y2="91.99" fill="#808184" stroke="#404041" stroke-miterlimit="10" stroke-width="0.46"/><line x1="31.1" y1="97.59" x2="89.65" y2="97.59" fill="#808184" stroke="#404041" stroke-miterlimit="10" stroke-width="0.46"/><line x1="31.1" y1="93.85" x2="89.65" y2="93.85" fill="#808184" stroke="#404041" stroke-miterlimit="10" stroke-width="0.46"/><line x1="31.1" y1="99.45" x2="89.65" y2="99.45" fill="#808184" stroke="#404041" stroke-miterlimit="10" stroke-width="0.46"/><line x1="31.1" y1="88.25" x2="89.65" y2="88.25" fill="#808184" stroke="#404041" stroke-miterlimit="10" stroke-width="0.46"/><line x1="31.1" y1="90.12" x2="89.65" y2="90.12" fill="#808184" stroke="#404041" stroke-miterlimit="10" stroke-width="0.46"/><line x1="31.1" y1="95.72" x2="89.65" y2="95.72" fill="#808184" stroke="#404041" stroke-miterlimit="10" stroke-width="0.46"/><line x1="31.1" y1="101.32" x2="89.65" y2="101.32" fill="#808184" stroke="#404041" stroke-miterlimit="10" stroke-width="0.46"/><line x1="31.1" y1="106.92" x2="89.65" y2="106.92" fill="#808184" stroke="#404041" stroke-miterlimit="10" stroke-width="0.46"/><line x1="31.1" y1="108.79" x2="89.65" y2="108.79" fill="#808184" stroke="#404041" stroke-miterlimit="10" stroke-width="0.46"/><line x1="31.1" y1="103.19" x2="89.65" y2="103.19" fill="#808184" stroke="#404041" stroke-miterlimit="10" stroke-width="0.46"/><line x1="31.1" y1="105.05" x2="89.65" y2="105.05" fill="#808184" stroke="#404041" stroke-miterlimit="10" stroke-width="0.46"/></g><rect x="54.25" y="75.4" width="0.46" height="35.36" fill="#221f1f" stroke="#404041" stroke-miterlimit="10" stroke-width="0.46"/><path d="M52.89,71c.27.56,2.13,4.52,1.58,4.79S51.16,72.53,50.88,72L48.29,66.7a.49.49,0,0,1,.05-.53C49.9,64.4,52.89,71,52.89,71Z" fill="#6d6e70" stroke="#404041" stroke-miterlimit="10" stroke-width="0.46"/><path d="M56.08,71.09c-.28.56-2.14,4.53-1.59,4.8s3.32-3.26,3.59-3.81l2.6-5.28a.49.49,0,0,0-.06-.53C59.07,64.5,56.08,71.09,56.08,71.09Z" fill="#6d6e70" stroke="#404041" stroke-miterlimit="10" stroke-width="0.46"/><path d="M82.91,121.84s-2.82-11.64-3.06-14.42S77.44,93.68,74,94.89c-3,1.06-2,8.82.21,14.06s5.48,12.26,5.65,13.75c.4,3.52-.72,8.31-.16,8.68.71.47,1.22-.87,1.9-3,1.06,0,3.11,4.24,5.55,5.68s.69-5.47-.38-6.92C86,125.94,83.44,123.36,82.91,121.84Z" fill="#c58b5e"/><path d="M80.51,110.89s-1.69-9.76-1.92-10.49c-.7-2.2-2.37-6.56-4.59-6.19s-2.08,4.78-1.89,7.11c.36,4.53,3.44,10.94,3.44,10.94Z" fill="#d0d2d3"/><path d="M27.09,121.54s2.82-11.64,3.06-14.42S32.56,93.38,36,94.58c3.05,1.07,2,8.83-.21,14.07s-5.48,12.26-5.65,13.75c-.4,3.52.72,8.31.16,8.68-.71.47-1.22-.87-1.9-3.05-1.06,0-3.11,4.24-5.55,5.68s-.69-5.47.38-6.92C24.05,125.64,26.56,123.06,27.09,121.54Z" fill="#c58b5e"/><path d="M29.48,110.63s1.7-9.76,1.93-10.49c.7-2.2,2.36-6.55,4.59-6.18s2.07,4.77,1.89,7.1c-.37,4.53-3.45,10.94-3.45,10.94Z" fill="#d0d2d3"/><path d="M41.08,47.93s.81,7.11,3.09,10.62c0,.07,1.31,1.74,10.31,2.67a27,27,0,0,0,9.78-2c1.12-.48,2.32-5.17,3-6.68l.27-2.36s-18.38-9.08-26.61-7A17.4,17.4,0,0,0,41.08,47.93Z" fill="#6c4b29"/><path d="M45.07,49.63s-1.67-2.07-3.38-.34,1.41,6,3.48,6.68S45.07,49.63,45.07,49.63Z" fill="#c58b5e"/></g><g id="face"><ellipse cx="54.6" cy="49.56" rx="10.8" ry="14.82" fill="#c58b5e"/><ellipse cx="49.16" cy="51.43" rx="1.27" ry="2.06" transform="translate(-0.76 0.73) rotate(-0.85)" fill="#0c0506"/><ellipse cx="59.31" cy="51.28" rx="1.27" ry="2.06" transform="translate(-0.75 0.88) rotate(-0.85)" fill="#0c0506"/><path d="M58.17,58.52l-3.52.88L51,58.64a26.63,26.63,0,0,1,3.57-.36A20,20,0,0,1,58.17,58.52Z" fill="#9e2528"/><path d="M51,58.64a13.64,13.64,0,0,0,7.21-.12,4.13,4.13,0,0,1-3.55,2A3.82,3.82,0,0,1,51,58.64Z" fill="#d4212d"/></g><g id="hair"><path d="M44.9,51.33c.58-.43.62-.77.93-2,.23-.93.46-1.68.85-3.6.35-1.7.5-3.82.93-4,.89-.49,1.89,1.08,5.56,2.59.6.24,6.11,2.47,9.54,3.94s-1,11.9-1,11.9a12.23,12.23,0,0,0,4.52-1.74c1-.82,1.24-2.71,1.51-4,.15-.73.48-5,.46-5.26a27.74,27.74,0,0,0-2.59-11.47c-1.74-3.52-5.16-5.45-11.86-5.56a13.55,13.55,0,0,0-11.36,5.79,13.54,13.54,0,0,0-1.62,5.53c-.08,2.78.47,5.49,1.93,5.13C44.63,48.08,44.9,51.33,44.9,51.33Z" fill="#6c4b29"/></g></svg>