<svg xmlns="http://www.w3.org/2000/svg" width="110" height="194" viewBox="0 0 110 194"><title>landian-01-body</title><g id="landians"><path d="M67.69,73.46c4.55,2.48,6.81,17,7.44,19,.83,2.68,2.27,8.06,0,9.09s-3.93-2.48-5.58-6.41-5.37-11.3-6.19-14.26C62.32,77.18,63.15,71,67.69,73.46Z" fill="#ab8ecd"/><path d="M42.32,74.06C37.76,76.51,35.41,91,34.76,93c-.84,2.68-2.32,8-.06,9.1s3.94-2.46,5.62-6.37,5.45-11.28,6.29-14.23C47.66,77.81,46.88,71.6,42.32,74.06Z" fill="#ab8ecd"/><path d="M66,152.45s5.85-15.51,3.37-29.57-14-4.55-13.84,7.24.36,21.09.35,23.15C55.84,160.92,61.88,163,66,152.45Z" fill="#e2b68a"/><path d="M56.91,188.8c.66-1.32.38-4.6.34-6.73s-.79-2.47-1.82-11.51.41-11.3,1.64-17.46a4.14,4.14,0,0,1,8.21.82c.2,5.34-2.07,28-2.26,28.15-.25,2-.56,5.41.41,5.89,1.19.6,3.43,2,5.87,3.36,1.38.57,1.77.4,1.9,1.13,0,1.16-2.79.78-7-.28-2-.53-2.31-2.27-4.14-2.17C55.68,190.24,56.25,190.11,56.91,188.8Z" fill="#e2b68a"/><path d="M63.27,176.34s-1.59,6.62.18,8.55,8.44,8,8.44,8l-15.44-3.48s.62-8.69.62-12.2S63.27,176.34,63.27,176.34Z" fill="#e2b68a"/><path d="M56.66,185.44s.13.31,6,4.6c2.83,2.05,6-.24,6-.24s5.31,1.87,5.46,2.8c0,1.17-4.13,1.28-9.19,1.18-1.81,0-3.46-3.2-5-3.27-.28,0-.19,3.2-.45,3.23a13.76,13.76,0,0,1-2.65-.08S54.38,187.92,56.66,185.44Z" fill="#393b5b"/><path d="M42.56,149.35s-5.85-15.5-3.38-29.57,14-4.55,13.84,7.24-.36,21.09-.34,23.16C52.73,157.83,46.69,159.9,42.56,149.35Z" fill="#e2b68a"/><path d="M45.26,176.53s1.59,6.62-.18,8.55-8.44,8-8.44,8l15.44-3.48s-.62-8.68-.62-12.2S45.26,176.53,45.26,176.53Z" fill="#e2b68a"/><path d="M51.64,188.72c-.66-1.31-.08-4.33,0-6.46s.79-2.47,1.82-11.51-.41-11.29-1.65-17.46a4.13,4.13,0,0,0-8.2.83c-.21,5.34,2.07,28,2.26,28.14.24,2,.55,5.41-.42,5.9-1.18.59-3.43,2-5.86,3.35-1.39.57-3.66.55-3.78,1.28,0,1.17,2.36,1,7.38.91,1.8,0,3.62-3,5.36-3.6C51,189.25,52.29,190,51.64,188.72Z" fill="#e2b68a"/><path d="M51.87,185.63s-.13.31-6,4.6c-2.82,2.05-6-.24-6-.24s-5.31,1.88-5.47,2.81c0,1.16,4.14,1.27,9.2,1.17,1.81,0,3.46-3.2,5-3.27.28,0,.18,3.2.45,3.23a13.76,13.76,0,0,0,2.65-.08S54.14,188.11,51.87,185.63Z" fill="#393b5b"/><path d="M51.1,64.52s1.81,5.42-1.36,7c-.09,0-1.36.53-1.34,1.42.16,5.5,3.68,24.46,6.5,24.64,2.11.14,5.41-18.36,6.69-25.22.12-.67-.33-.74-1.59-.92,0,0-2.08-.3-1.41-6.21C58.88,62.73,51.1,64.52,51.1,64.52Z" fill="#bd9a7d"/><path d="M49.59,71.48s-6.33,1.3-6.54,2.13a52.9,52.9,0,0,0,0,11.38c.72,5.63,1.05,8.39,1.39,11.32.08.72.16,3.34.16,4.84,0,2,20.29,1.74,20.29.09,0-.65,0-2.49.33-5.1.59-5.52,1.34-7.85,1.42-11,.09-3.39,1.65-10.42,1-11.27-1-1.44-7-2.44-7-2.44l-5.73,1.35Z" fill="#ab8ecd"/><path d="M44.65,100.23s-1.25,4.26-3.38,10.57c-.51,1.49-.88,3-1.37,4.8a35.16,35.16,0,0,0-.71,3.65A48,48,0,0,0,38.84,134c.51,3.6,2.51,12.12,2.51,12.12s10.93-.09,13.52.08c1.91.13,13.27-.17,13.27-.17s1.92-8.18,2.51-11.94a43.57,43.57,0,0,0-.42-14.79c-.2-.94-.65-2.53-.92-3.51-.49-1.8-1-3.26-1.51-5-1.66-5.67-3-10.38-3-10.38Z" fill="#565b92"/><path d="M51.53,68.57a8.26,8.26,0,0,0,7-.17A4.13,4.13,0,0,0,61,71.66a8.09,8.09,0,0,1-5.8,2.75,7.44,7.44,0,0,1-5.92-2.8A3.4,3.4,0,0,0,51.53,68.57Z" fill="#efce7b"/><path d="M60.8,71.57a7.31,7.31,0,0,1-11.61.13A5.68,5.68,0,0,0,55,75.83,5.85,5.85,0,0,0,60.8,71.57Z" fill="#79589f"/><ellipse cx="49.28" cy="106.75" rx="1.63" ry="0.79" fill="#393b5b"/><ellipse cx="49.28" cy="110.78" rx="1.63" ry="0.79" fill="#393b5b"/><ellipse cx="49.28" cy="114.8" rx="1.63" ry="0.79" fill="#393b5b"/><ellipse cx="60.21" cy="106.75" rx="1.63" ry="0.79" fill="#393b5b"/><ellipse cx="60.21" cy="110.78" rx="1.63" ry="0.79" fill="#393b5b"/><ellipse cx="60.21" cy="114.8" rx="1.63" ry="0.79" fill="#393b5b"/><path d="M82.05,122.14s-2.75-11.38-3-14.09-2.36-13.42-5.7-12.25c-3,1-1.93,8.63.21,13.74s5.35,12,5.51,13.43c.39,3.45-.7,8.13-.15,8.49s1.19-.85,1.85-3c1,0,3,4.14,5.43,5.55s.67-5.35-.38-6.76C85,126.15,82.57,123.62,82.05,122.14Z" fill="#e2b68a"/><path d="M79.71,111.44s-1.65-9.54-1.88-10.25c-.68-2.15-2.3-6.41-4.47-6s-2,4.67-1.85,7c.36,4.42,3.36,10.69,3.36,10.69Z" fill="#ab8ecd"/><path d="M28,123s2.75-11.37,3-14.08,2.36-13.43,5.7-12.25c3,1,1.93,8.62-.21,13.74s-5.35,12-5.51,13.43c-.39,3.45.7,8.13.15,8.49s-1.19-.85-1.85-3c-1,0-3,4.15-5.43,5.55s-.67-5.34.38-6.76C25,127.05,27.43,124.53,28,123Z" fill="#e2b68a"/><path d="M30.28,112.39s1.66-9.54,1.88-10.25c.68-2.15,2.31-6.41,4.48-6s2,4.67,1.84,7c-.35,4.42-3.35,10.68-3.35,10.68Z" fill="#ab8ecd"/><path d="M44,39.68a11.71,11.71,0,0,0-2.08,2.88c-.69,1.3-1.38,3-1.84,4.11-1.66,4-2.73,10.07,0,15.86,0,0,2.17,5.39,4.84,7.11a4.86,4.86,0,0,0,3.63-.3,4,4,0,0,0,1.75-.91,6.77,6.77,0,0,0,1.92-1.81s2.8-7.68.55-12.15C52.74,54.47,50.56,42.94,44,39.68Z" fill="#603a19"/><path d="M45.49,53.58s-1.63-2-3.3-.33,1.38,5.86,3.4,6.52S45.49,53.58,45.49,53.58Z" fill="#e2b68a"/><path d="M64,53.58s1.63-2,3.3-.33-1.38,5.86-3.4,6.52S64,53.58,64,53.58Z" fill="#e2b68a"/><path d="M44.56,69.26s-4.72,5.22.71,10.74A14.23,14.23,0,0,0,47,81.4a3,3,0,0,1,1.27,1.32c.22.4.23.66,0,1s-.19.73,0,.85A.9.9,0,0,0,49.5,84a2.3,2.3,0,0,0,.26-1.86s-.29-1.37-.45-1.79c-.49-1.3.32-1.92.69-3.27s1.19-2.3-1.56-8A6.72,6.72,0,0,0,44.56,69.26Z" fill="#603a19"/><path d="M44.47,69.36a3.81,3.81,0,0,1,4.14,0s-.07.23-.45.11a5.65,5.65,0,0,0-3.24,0S44.37,69.55,44.47,69.36Z" fill="#565b92"/></g></svg>