<svg xmlns="http://www.w3.org/2000/svg" width="110" height="194" viewBox="0 0 110 194"><title>landian-16</title><g id="landians"><path d="M41.2,61a9.28,9.28,0,0,1-.92,2.24L39,65.71a5.33,5.33,0,0,1-.55.92c-.3.39-.68.7-1,1.07A4.25,4.25,0,0,0,37,72.51c.43.72,1.1,1.37,1.12,2.21,0,1.26-1.38,2.07-1.77,3.27s.53,2.7,1.63,3.54a15,15,0,0,0,5.52,2.36c1.11.29,2.23.55,3.37.73a5.63,5.63,0,0,0,2.24,0,5.3,5.3,0,0,0,1.77-.9,7.36,7.36,0,0,0,1.55-1.4A7.74,7.74,0,0,0,53.67,80a12.86,12.86,0,0,0,.76-3.57,11.69,11.69,0,0,0-.77-4.75c-.42-1.14-1-2.22-1.37-3.38a5,5,0,0,0-.45-1.15,4.77,4.77,0,0,0-.79-.83,11.26,11.26,0,0,1-2.23-2.86C48,62,47.43,60.22,46,59.36a5.5,5.5,0,0,0-3.46-.48C41,59.05,41.49,59.69,41.2,61Z" fill="#421e19"/><path d="M68.54,61a9.31,9.31,0,0,0,.93,2.24l1.29,2.48a6.1,6.1,0,0,0,.56.92c.29.39.67.7,1,1.07a4.24,4.24,0,0,1,.41,4.81c-.43.72-1.1,1.37-1.12,2.21C71.57,76,73,76.79,73.37,78s-.52,2.7-1.63,3.54a14.89,14.89,0,0,1-5.51,2.36c-1.11.29-2.24.55-3.37.73a5.63,5.63,0,0,1-2.24,0,5.2,5.2,0,0,1-1.77-.9,7.13,7.13,0,0,1-1.55-1.4A8,8,0,0,1,56.07,80a12.84,12.84,0,0,1-.75-3.57,11.68,11.68,0,0,1,.76-4.75c.43-1.14,1-2.22,1.38-3.38a4.59,4.59,0,0,1,.45-1.15,4.71,4.71,0,0,1,.78-.83,11.52,11.52,0,0,0,2.24-2.86c.81-1.48,1.38-3.23,2.83-4.09a5.49,5.49,0,0,1,3.46-.48C68.74,59.05,68.25,59.69,68.54,61Z" fill="#421e19"/><path d="M69.45,73.57c4.58,2.46,8.33,27,6.06,28s-4-2.47-5.63-6.39-5.47-11.3-6.31-14.26C62.51,77.21,64.88,71.11,69.45,73.57Z" fill="#ab8ecd"/><path d="M41.46,75.07c-4.58,2.46-8.33,27-6.06,28s4-2.46,5.64-6.39,5.46-11.3,6.31-14.26C48.41,78.72,46,72.61,41.46,75.07Z" fill="#ab8ecd"/><path d="M67.07,149s5.87-15.54,3.38-29.63-14.09-4.56-13.88,7.25.36,21.13.35,23.21C56.86,157.51,62.93,159.58,67.07,149Z"/><path d="M64.47,177s-1.59,6.63.19,8.57,8.46,8,8.46,8l-15.49-3.49s.63-8.7.63-12.23S64.47,177,64.47,177Z" fill="#e4b88b"/><path d="M66,178.52s1.12-22.53.91-27.92S59,145,58.05,149.9c-1.24,6.22-2.21,8.46-1.66,17.62.36,6,.53,10,.64,11.32C57.09,179.57,64.6,181.06,66,178.52Z"/><path d="M57.66,187.39s-.28,1,6.66,1.5a7.44,7.44,0,0,0,3.83-.67s7.08,3.27,7.22,4.25c0,1.23-3.94,1.34-8.77,1.23-1.72,0-9.7-.1-9.7-.1S55.49,190,57.66,187.39Z" fill="#bcaa96"/><path d="M71.42,189.77s4.33.67,4.55,3.89c-4.33.66-19.42-.11-19.42-.11s-1.67-4.11,1.11-6.16a14.54,14.54,0,0,1,2,4.6l11,.23A3.79,3.79,0,0,1,71.42,189.77Z" fill="#bcaa96"/><path d="M42.72,149.1s-5.87-15.54-3.38-29.64,14.09-4.56,13.88,7.26-.36,21.13-.34,23.2C52.93,157.59,46.87,159.67,42.72,149.1Z"/><path d="M45.6,177.09s1.59,6.63-.18,8.57-8.47,8-8.47,8l15.49-3.49s-.63-8.7-.63-12.23S45.6,177.09,45.6,177.09Z" fill="#e4b88b"/><path d="M44.07,178.59s-1.12-22.53-.91-27.92S51,145.09,52,150c1.25,6.22,2.21,8.46,1.66,17.62-.36,6-.53,10-.64,11.32C53,179.64,45.47,181.13,44.07,178.59Z"/><path d="M52.06,187.46s.27,1-6.66,1.5a7.44,7.44,0,0,1-3.83-.67s-7.08,3.27-7.23,4.25c0,1.23,3.95,1.34,8.77,1.24,1.72,0,9.7-.11,9.7-.11S54.22,190.07,52.06,187.46Z" fill="#bcaa96"/><path d="M38.29,189.85s-4.33.66-4.55,3.88c4.33.67,19.43-.11,19.43-.11s1.66-4.11-1.11-6.16a14.28,14.28,0,0,0-2,4.61l-11,.22A3.77,3.77,0,0,0,38.29,189.85Z" fill="#bcaa96"/><path d="M43.31,105.91S41.17,109,39.51,119s32.31,9.9,31-.21a36.29,36.29,0,0,0-3.87-12.85Z"/><path d="M51.46,64.12S53,69.48,50.2,71c-.62.34,1.79,26,5.07,26.21,2.33.16,5.06-19.64,5.76-26.12,0,0-2.68-.52-2.05-6.3C59.25,62.32,51.46,64.12,51.46,64.12Z" fill="#c89d7c"/><path d="M49.82,70.59s-6.35,1.3-6.56,2.13c-.21,2.49-1.42,6.82,0,11.41,1,3.28.92,14.85.51,16.51s-1.76,3-2.59,6.35,19.27,7.53,26.39.42c1.18-1.19-1.24-4.9-1.24-6.56s-1-14.65.17-16.79c1.58-3,2.08-10.18,1.48-11-1-1.45-7.08-2.45-7.08-2.45s0,6.22-1.78,7.5a6.12,6.12,0,0,1-3.38,1,7.18,7.18,0,0,1-4.18-1.33s-1.25-1.47-1.74-7.22" fill="#e5e5e4"/><path d="M48.42,70.35s.08,21.3.71,29.3c.7,9.09-.83,21.14-.83,21.14s-8.26-.24-11.81-2.37c0,0,4.25-12.19,6.62-20.77,1.88-6.85-1.86-18-.77-24.68Z" fill="#ab8ecd"/><path d="M61.74,70s.31,21.69-.32,29.69c-.7,9.09.83,21.14.83,21.14s8.26-.24,11.81-2.37c0,0-4.25-12.19-6.62-20.77-1.88-6.85,1.73-19,1-24.23Z" fill="#ab8ecd"/><path d="M47.41,70.85l3.32-2.3a23.16,23.16,0,0,0-.32,8.9c3,15.82-1,25.78-1.22,30.35,0,0-1.9-10.31-2.75-15.17l1.28-3.53s1.58-9,.13-13.12A8.82,8.82,0,0,1,47.41,70.85Z" fill="#79589f"/><path d="M63.06,70.6l-3.13-2a23.6,23.6,0,0,1,.25,8.81c-3,15.82,1,25.78,1.21,30.35,0,0,1.9-10.31,2.75-15.17L62.86,89.1s-1.58-9-.12-13.12A10.42,10.42,0,0,0,63.06,70.6Z" fill="#79589f"/><path d="M81.28,122.29s-2.76-11.41-3-14.12-2.36-13.46-5.71-12.28c-3,1-1.93,8.64.21,13.78s5.37,12,5.53,13.46c.39,3.45-.7,8.14-.16,8.5.7.46,1.2-.85,1.87-3,1,0,3,4.15,5.44,5.56s.67-5.35-.37-6.77C84.26,126.3,81.8,123.78,81.28,122.29Z" fill="#e4b88b"/><path d="M81.48,121.39s-3.39-28.55-8.92-26.12c-2.69,1.19-1.69,8.35-1.69,8.35l6,19.46Z" fill="#ab8ecd"/><path d="M28.72,123.21s2.76-11.4,3-14.12,2.36-13.46,5.71-12.28c3,1,1.93,8.65-.21,13.78s-5.37,12-5.53,13.46c-.39,3.45.7,8.14.16,8.5-.7.47-1.2-.85-1.87-3-1,0-3,4.16-5.44,5.56s-.67-5.35.37-6.77C25.74,127.23,28.2,124.7,28.72,123.21Z" fill="#e4b88b"/><path d="M28.52,122.31s3.39-28.55,8.92-26.11c2.69,1.18,1.69,8.34,1.69,8.34l-6,19.46Z" fill="#ab8ecd"/></g><g id="face"><ellipse cx="55.42" cy="53.97" rx="10.57" ry="14.51" fill="#e4b88b"/><ellipse cx="50.09" cy="55.8" rx="1.24" ry="2.02" transform="translate(-0.82 0.75) rotate(-0.85)" fill="#0c0506"/><ellipse cx="60.04" cy="55.65" rx="1.24" ry="2.02" transform="translate(-0.82 0.89) rotate(-0.85)" fill="#0c0506"/><path d="M58.92,62.74l-3.45.87-3.61-.75a24.81,24.81,0,0,1,3.5-.35A19.63,19.63,0,0,1,58.92,62.74Z" fill="#9e2528"/><path d="M51.86,62.86a13.32,13.32,0,0,0,7.06-.12,4.06,4.06,0,0,1-3.48,2A3.75,3.75,0,0,1,51.86,62.86Z" fill="#d4212d"/></g><g id="hair"><path d="M70.17,65.51c1.21-.76,1.37-2.89,1.12-4a5.69,5.69,0,0,0-1.67-3.32,1.27,1.27,0,0,1-.45-1.67,6.74,6.74,0,0,0,.45-2.75,21.51,21.51,0,0,0-.91-5.09c-.32-.82-1.47-3.25-1.88-4-.52-1-.82-1.57-1.11-2-1.64-2.88-4.56-5.42-9.75-5.51s-8.44,1.69-10.38,4.26h0a14,14,0,0,0-1.33,2,14.94,14.94,0,0,0-1.11,2.17c-.51,1.05-1.2,2.53-1.43,3.13a21.89,21.89,0,0,0-.92,5.09,7.1,7.1,0,0,0,.45,2.75,1.26,1.26,0,0,1-.45,1.67,5.72,5.72,0,0,0-1.66,3.32c-.26,1.08-.1,3.21,1.12,4a4.48,4.48,0,0,1,2,2.21,2.56,2.56,0,0,1-.74,2.35,4.39,4.39,0,0,0-1.23,2.4,3.26,3.26,0,0,0,.73,2.9,5,5,0,0,0,2.17,1.74c.58.28,1,.61,1.7.92s1.15.74.38,1.35a2.38,2.38,0,0,1-.93.39c-.7.47-.37.88.93.66s1.59-.27,2.09-1.05A1.28,1.28,0,0,0,47,77.57c-.66-.56-2-2.13-1.7-2.94s.62-.89,1.74-2.24a7.36,7.36,0,0,0,1.62-3c.52-2.11-.41-2.55-1-4.64a41.49,41.49,0,0,1-1-4.13c-.19-1.7-.49-3.3.18-4.91,1-2.5,3.58-12,3.58-12h0A2.7,2.7,0,0,1,53,42.47c1,0,1.05,3.77,5.3,7.32.48.4,3.59,2.38,4.25,2.84.39,1.28.76,2.39,1,3,.66,1.61.37,3.21.17,4.91a41.23,41.23,0,0,1-1,4.13c-.6,2.09-1.52,2.53-1,4.64a7.36,7.36,0,0,0,1.62,3c1.12,1.35,1.43,1.43,1.74,2.24s-1,2.38-1.7,2.94a1.27,1.27,0,0,0-.31,1.81c.5.78.92.85,2.08,1.05s1.64-.19.93-.66a2.44,2.44,0,0,1-.93-.39c-.77-.61-.2-1.08.39-1.35s1.12-.64,1.7-.92a5,5,0,0,0,2.16-1.74,3.26,3.26,0,0,0,.74-2.9,4.39,4.39,0,0,0-1.24-2.4,2.58,2.58,0,0,1-.73-2.35A4.44,4.44,0,0,1,70.17,65.51Z" fill="#5c2a23"/></g></svg>