<svg xmlns="http://www.w3.org/2000/svg" width="110" height="194" viewBox="0 0 110 194"><title>landian-12-hair</title><g id="hair"><path d="M67.93,71.76s-.71-.22-.9-.67.12-.87.64-1.6a4.09,4.09,0,0,0,1.54-3.14,5.92,5.92,0,0,1,.51-3.58,10,10,0,0,0,1.34-3.91L65.53,55.4a5.6,5.6,0,0,0,0,6.11,8,8,0,0,1-.16,6.76,4.65,4.65,0,0,0-.16,2.66,2.11,2.11,0,0,0,1.09,1.38,3.21,3.21,0,0,1,1.28.76c.47.54.45,1.35-.13,2.4,0,0,1.12-.12,1.41-1.76A1.68,1.68,0,0,0,67.93,71.76Z" fill="#3a1b54"/><path d="M49.66,36.4c.41-.21,3.58-4.55,8.15-.33a8.48,8.48,0,0,1,1.66,3.33,105.53,105.53,0,0,1,2.78,10.2,9.33,9.33,0,0,0,2.82,5.29c.65.66-.86,2.82-.22,4.18.39.84,2.17,2.81,3.84,3.06,1.14.16,2.12-1.8,2.12-1.8.4-1.54,1.28-3.44.7-5.1-.36-1-1.7-3.55-2-5.33-.23-1.43.35-2.79,0-5C68.14,36.17,61.65,31,53.84,31.84a8.55,8.55,0,0,0-5.27,2.76c-.69.73-1.44,1.85-1.28,2.18S48.38,37,49.66,36.4Z" fill="#3a1b54"/><path d="M50.08,35.35s1.94-2.79,5.08-2.22c0,0,6.87.55,8.5,9.64,0,0,1.43,6.75,3.54,8.42,0,0,3.33,4.22,1.15,6.46,0,0-1.28.64-1.07,3,0,0,1.73,4.91-1.34,8.62,0,0,1.86-4.1.75-7.68a4.75,4.75,0,0,1-.6-2.9,7.15,7.15,0,0,1,.73-2.14s.89-1.48-1.54-3.4a10.19,10.19,0,0,1-2.5-5.7s-1.63-7.6-2.75-9.28c-.09-.13-2.11-4.49-5.44-4.49A6.1,6.1,0,0,0,50.08,35.35Z" fill="#b398c7"/></g></svg>