<svg xmlns="http://www.w3.org/2000/svg" width="110" height="194" viewBox="0 0 110 194"><title>landian-04-hair</title><g id="hair"><path d="M44.08,40.43s2.25-3.7,4.73-8.06c.9-1.58,1-2.46,3.33-2.56,1,0,2.16,4.66,6.33,6.84.58.3,3,1.61,3.24,2.14,1.26,2.3,4.47,3.07,4,1.15A11.17,11.17,0,0,0,66,32.51c-1.26-3.77-4.19-7.95-10.89-8.06a11.91,11.91,0,0,0-10.59,5.48c-2.06,3.08-2.44,3.34-3.21,6.35C40.82,38.36,44.08,40.43,44.08,40.43Z" fill="#fdde6d"/><path d="M45.77,42.7c-.66,1.62-1.9,3.25-1.32,4.91a12,12,0,0,0,1.09,2.11c1.11,1.88,2.12,4,1.6,6.16A18.17,18.17,0,0,1,45.69,59a3.92,3.92,0,0,0-.29,3.33,6.33,6.33,0,0,0,1.79,1.86,2.9,2.9,0,0,1,1.26,2.17c-.05,1.25-1.42,2-2.63,2.33a2.17,2.17,0,0,1-1.68,0c-.5-.28-.66-1.13-.16-1.4s.81,0,1.21-.06A1.19,1.19,0,0,0,46,65.7a2.37,2.37,0,0,0-1.37-1.3c-.59-.27-1.23-.43-1.8-.75a3.64,3.64,0,0,1-.64-5.91,7.79,7.79,0,0,0,.8-.71A2.49,2.49,0,0,0,43,54.27a7.92,7.92,0,0,0-2.28-2.4C39.49,51.1,38,49.11,38.27,48a4,4,0,0,1,1.41-2.76,1.25,1.25,0,0,0,.45-1.66,7.21,7.21,0,0,1-.45-2.76,17.56,17.56,0,0,1,1.6-5.39c1.29-3.27,4.36-6.63,4.3-6.09l3.79,1.34S46.8,40.2,45.77,42.7Z" fill="#fdde6d"/><path d="M62.6,42.89c.67,1.62,1.91,3.26,1.33,4.91a12.49,12.49,0,0,1-1.09,2.12c-1.11,1.87-2.12,4-1.6,6.15a16.79,16.79,0,0,0,1.45,3.14A4,4,0,0,1,63,62.54a6.22,6.22,0,0,1-1.79,1.86,2.89,2.89,0,0,0-1.26,2.17c0,1.25,1.42,2,2.62,2.33a2.22,2.22,0,0,0,1.68,0c.51-.28.67-1.14.16-1.41-.36-.19-.8,0-1.21-.06a1.19,1.19,0,0,1-.75-1.54,2.43,2.43,0,0,1,1.37-1.3c.59-.27,1.23-.43,1.8-.75a3.67,3.67,0,0,0,1.84-2.78,3.72,3.72,0,0,0-1.2-3.13,6,6,0,0,1-.8-.71,2.46,2.46,0,0,1,0-2.75,7.83,7.83,0,0,1,2.28-2.41c1.22-.77,2.69-2.76,2.44-3.85a4,4,0,0,0-1.41-2.75,1.26,1.26,0,0,1-.45-1.67A7.18,7.18,0,0,0,68.7,41a21.9,21.9,0,0,0-.92-5.1,42.33,42.33,0,0,0-1.88-4.05c-1.4-2.3-3.15-2.73-3.1-2.33L59,30.9S61.58,40.39,62.6,42.89Z" fill="#fdde6d"/></g></svg>