<svg xmlns="http://www.w3.org/2000/svg" xmlns:xlink="http://www.w3.org/1999/xlink" width="110" height="194" viewBox="0 0 110 194"><defs><linearGradient id="linear-gradient" x1="44.6" y1="135.43" x2="44.6" y2="192.94" gradientUnits="userSpaceOnUse"><stop offset="0" stop-color="#2c3b4c"/><stop offset="0.31" stop-color="#293748"/><stop offset="0.63" stop-color="#1f2c3c"/><stop offset="0.95" stop-color="#0f1928"/><stop offset="1" stop-color="#0c1624"/></linearGradient><linearGradient id="linear-gradient-2" x1="65.4" y1="135.43" x2="65.4" y2="192.94" xlink:href="#linear-gradient"/></defs><title>landian-29</title><g id="landians"><path d="M84.13,105.4c.42,2.82,1.39,8.38.81,10.86s-3.49,5.66-4.42,5.54-4.08-3.07-3.84-10.73c0,0-1.63,2.71-2.91,2s1.51-8,2-9.91,2.91-4,5.35-3.54S83.89,103.87,84.13,105.4Z" fill="#895d3b"/><path d="M75.56,47.44S85.83,70.92,86.21,78.6c.11,2.23-.35,5.07-3.49,5.66S78.37,79.1,78,80c-.91,2-9.18-22-9.88-24s.39-7.43,1.44-8.84S75.56,47.44,75.56,47.44Z" fill="#98bde4"/><path d="M54.85,54.05S61,44.26,61.36,38.83c0,0,5.65,1.87,8.91,2.93s4.36,2.73,5.29,5.68c0,0-4.13,11.77-4.65,13.33,0,0,.73,22.75-.82,36.22-.94,8.25-15.36.12-15.36.12Z" fill="#98bde4"/><path d="M85,108.59c.7-5.4,2-23.63,1.4-29.61a3,3,0,0,0-3.73-2.83c-2.44.59-5.07-.36-5.65,1.65s-3.31,27.6-3.31,27.6Z" fill="#98bde4"/><path d="M54.88,54.05s6.17-9.79,6.52-15.22c0,0,5.64,1.87,8.9,2.93s4.37,2.73,5.3,5.68c0,0-4.13,11.77-4.66,13.33-3.42,10.13.73,22.75-.81,36.22-.95,8.25-15.37.12-15.37.12Z" fill="#98bde4"/><path d="M38.29,185.35c3-1.16-13.25,4.52-14.86,4.9s-2.05,3.18-1.18,3.27,24,.63,25.74.44,5.81.82,3.13-3.62C45.21,180.57,35.29,186.52,38.29,185.35Z" fill="#221f1f"/><path d="M36.29,186s3.63-13.83,1.74-44.2c-.47-7.6,12.54-9.35,13.5.38a292,292,0,0,1,.55,50.81S46.74,187.27,36.29,186Z" fill="url(#linear-gradient)"/><path d="M38.13,141.05c-1.4-21.32-.13-44.56,1.47-49.13C41,88.09,47.77,87.69,51.09,88S56,101,54.92,104.54c-2.23,7.11-4.15,27.48-3.41,37,.25,3.17-3.95,6.31-6.4,6.25C43.25,147.78,38.41,145.4,38.13,141.05Z" fill="#2c3b4c"/><path d="M71.71,185.35c-3-1.16,13.25,4.52,14.86,4.9s2.05,3.18,1.18,3.27-24,.63-25.74.44-5.81.82-3.13-3.62C64.79,180.57,74.71,186.52,71.71,185.35Z" fill="#221f1f"/><path d="M73.71,186s-3.63-13.83-1.74-44.2c.47-7.6-12.54-9.35-13.5.38a292,292,0,0,0-.55,50.81S63.26,187.27,73.71,186Z" fill="url(#linear-gradient-2)"/><path d="M71.87,141.05c1.4-21.32.13-44.56-1.47-49.13-1.35-3.83-8.17-4.23-11.49-3.88S54,101,55.08,104.54c2.23,7.11,4.15,27.48,3.41,37-.25,3.17,3.95,6.31,6.4,6.25C66.75,147.78,71.59,145.4,71.87,141.05Z" fill="#2c3b4c"/><path d="M34.4,47.44S24.13,70.92,23.75,78.6c-.11,2.23.35,5.07,3.49,5.66S31.6,79.1,32,80c.91,2,9.17-22,9.87-24s-.39-7.43-1.44-8.84S34.4,47.44,34.4,47.44Z" fill="#98bde4"/><path d="M64.66,41c-4.89-1.65-5.12-7.78-5.12-7.78l-9.19.35s-.24,6.14-5.12,7.79L55,70.8Z" fill="#805837"/><path d="M54.88,54.05s6.52-9.79,6.87-15.22a50.08,50.08,0,0,0,7.88,3.82c3.26,1.06,5,1.84,6,4.79,0,0-4.13,11.77-4.66,13.33-3.42,10.13.73,22.75-.81,36.22-.95,8.25-15.37.12-15.37.12Z" fill="#733ec6"/><path d="M55.12,54.05S49,44.26,48.6,38.83c0,0-5.64,1.87-8.9,2.93s-4.37,2.73-5.3,5.68c0,0,4.13,11.77,4.66,13.33,0,0-.73,22.75.81,36.22,1,8.25,15.37.12,15.37.12Z" fill="#733ec6"/><path d="M54.89,54.05V97.11H57.1l.11-40.7s4.95-8.79,5.65-11.09l-3-.36S57,51.28,54.89,54.05Z" fill="#bcd5ee" opacity="0.49"/><ellipse cx="59.66" cy="49.09" rx="0.75" ry="0.76" fill="#fff"/><ellipse cx="55.93" cy="56.05" rx="0.75" ry="0.76" fill="#fff"/><ellipse cx="55.93" cy="62.54" rx="0.75" ry="0.76" fill="#fff"/><ellipse cx="55.93" cy="69.03" rx="0.75" ry="0.76" fill="#fff"/><ellipse cx="55.93" cy="75.52" rx="0.75" ry="0.76" fill="#fff"/><ellipse cx="55.93" cy="82.01" rx="0.75" ry="0.76" fill="#fff"/><ellipse cx="55.93" cy="88.49" rx="0.75" ry="0.76" fill="#fff"/><path d="M39.69,90.08C52.77,95.9,71,90.63,71,90.63l.62,15.2s-15.71,6.55-32.65,0C38.94,105.83,38.73,92,39.69,90.08Z" fill="#2c3b4c"/><path d="M25.87,105.4c-.42,2.82-1.39,8.38-.81,10.86s3.49,5.66,4.42,5.54,4.08-3.07,3.84-10.73c0,0,1.63,2.71,2.91,2s-1.51-8-2-9.91-2.91-4-5.35-3.54S26.11,103.87,25.87,105.4Z" fill="#895d3b"/><path d="M24.94,108.59c-.7-5.4-2-23.63-1.39-29.61a3,3,0,0,1,3.72-2.83c2.44.59,5.07-.36,5.66,1.65s3.3,27.6,3.3,27.6Z" fill="#98bde4"/><path d="M45.63,22.23s-2-2.54-4.15-.42,1.74,7.37,4.28,8.21S45.63,22.23,45.63,22.23Z" fill="#895d3b"/><path d="M63.91,22s2-2.6,4.14-.54-1.52,7.42-4,8.33S63.91,22,63.91,22Z" fill="#895d3b"/><path d="M59.69,14.54a.23.23,0,0,1,0-.07.31.31,0,0,1,0,.07Z"/><path d="M46.86,39.3l.9,61.86a2.21,2.21,0,0,1-2.21,2.24h-8l1.39-39-5.45,16.8L36,103.4l-11.46,3.72S22.34,83.58,23.4,77.27c.92-5.53,9.44-27.42,11.51-32.69A2.78,2.78,0,0,1,36.52,43Z" fill="#0a2240"/><path d="M63.17,39.3l-.9,61.86a2.21,2.21,0,0,0,2.21,2.24h8l-1.39-39,5.45,16.8L74.05,103.4l11.47,3.72s2.16-23.54,1.11-29.85c-.92-5.53-9.45-27.42-11.52-32.69A2.74,2.74,0,0,0,73.51,43Z" fill="#0a2240"/><path d="M23.08,102.22l1.86,6.37a21.36,21.36,0,0,0,11.29-3.19l-.55-7.19S31.69,101.75,23.08,102.22Z" fill="#ab8ecd"/><path d="M86.92,102.22l-1.86,6.37a21.36,21.36,0,0,1-11.29-3.19l.93-7.19S78.31,101.75,86.92,102.22Z" fill="#ab8ecd"/><path d="M48.6,38.83l-3.37.91L43.48,48s6.17-3.42,7.57-1.3Z" fill="#ab8ecd"/><path d="M61.75,38.76l3.66,1.33L66.88,48s-6.17-3.42-7.57-1.29Z" fill="#ab8ecd"/><path d="M59.63,106.75a.94.94,0,0,0,0-1.88.94.94,0,0,0,0,1.88Z" fill="#2c3b4c"/></g><g id="face"><path d="M67.18,22.16c.13,8.9-6.67,16.22-11.93,16.3S43,31.42,42.84,22.52,42.51,5.75,54.77,5.65C68.81,5.53,67.05,13.26,67.18,22.16Z" fill="#895d3b"/><ellipse cx="49.74" cy="20.42" rx="1.41" ry="2.3" transform="translate(-0.3 0.74) rotate(-0.85)" fill="#0c0506"/><ellipse cx="61.06" cy="20.25" rx="1.41" ry="2.3" transform="translate(-0.29 0.9) rotate(-0.85)" fill="#0c0506"/><path d="M50.15,29.09,60.34,29a4.51,4.51,0,0,1-4.71,4.24C50.6,33.26,50.15,29.09,50.15,29.09Z" fill="#fff"/></g><g id="hair"><path d="M67.36,13.66l-.12,7a1.36,1.36,0,0,0-.06.2l0,.07-.57.36-.8.4c0-.15,0-.42,0-.78h0c0-.18,0-.39,0-.61s0-.24,0-.37l0-.37h0q0-.39-.06-.84c-.24-3.27-.72-8.23-1.53-10.53l-1.48.54,0,0a25.32,25.32,0,0,1-7.07,1.19h-.94a25.39,25.39,0,0,1-7.07-1.19l0,0L46,8.16v0c-.8,2.31-1.28,7.25-1.52,10.51q0,.45-.06.84h0l0,.37c0,.13,0,.25,0,.37s0,.43,0,.61h0c0,.36,0,.63-.05.78l-.8-.4-.57-.36,0-.07a1.36,1.36,0,0,0-.06-.2l-.12-6.89v-.1l0-1.91a3.48,3.48,0,0,1,.11-.72.06.06,0,0,0,0,0,12,12,0,0,1,5.8-7.39,12.68,12.68,0,0,1,2.44-1l.39-.1a15.2,15.2,0,0,1,7.18,0L59,2.6a12.92,12.92,0,0,1,2.4,1A11.93,11.93,0,0,1,67.22,11a.06.06,0,0,0,0,0,3.48,3.48,0,0,1,.11.72Z"/></g></svg>