<svg xmlns="http://www.w3.org/2000/svg" xmlns:xlink="http://www.w3.org/1999/xlink" width="110" height="194" viewBox="0 0 110 194"><defs><linearGradient id="New_Gradient_Swatch_4" x1="61.82" y1="117.92" x2="61.82" y2="185.12" gradientUnits="userSpaceOnUse"><stop offset="0" stop-color="#2c3b4c"/><stop offset="0.21" stop-color="#293747"/><stop offset="0.46" stop-color="#212c38"/><stop offset="0.73" stop-color="#131920"/><stop offset="1"/></linearGradient><linearGradient id="New_Gradient_Swatch_4-2" x1="46.85" y1="118.13" x2="46.85" y2="185.59" xlink:href="#New_Gradient_Swatch_4"/></defs><title>landian-36</title><g id="landians"><path d="M67.48,70.48C72.14,73,74.45,87.84,75.1,90c.85,2.75,2.33,8.25,0,9.31s-4-2.54-5.71-6.56S63.88,81.13,63,78.1C62,74.29,62.83,67.94,67.48,70.48Z" fill="#c58b5e"/><path d="M42.35,70.49C37.67,73,35.27,87.81,34.6,89.92c-.86,2.74-2.38,8.23-.06,9.31s4-2.52,5.76-6.53,5.58-11.53,6.44-14.56C47.82,74.34,47,68,42.35,70.49Z" fill="#c58b5e"/><path d="M63.87,177.07s-1.6,6.63.18,8.57a34.16,34.16,0,0,1,3.46,4.74L57,191.3s.62-9.88.62-13.4S63.87,177.07,63.87,177.07Z" fill="#c58b5e"/><path d="M64.24,184.15s4.51-58,4.3-63.42-12.13-2.21-13.11,2.69c-1.24,6.23,1.22,59.78,1.32,61.05C56.81,185.2,62.87,185.57,64.24,184.15Z" fill="url(#New_Gradient_Swatch_4)"/><path d="M45.37,177.07s1.6,6.63-.18,8.57-8.48,8-8.48,8l15.52-3.5s-.63-8.72-.63-12.24S45.37,177.07,45.37,177.07Z" fill="#c58b5e"/><path d="M44.47,184.86s-4.2-58-4-63.38,11.27-3.74,12.25,1.15c1.24,6.23-.17,61.28-.28,62.55C52.39,185.91,46.85,185.57,44.47,184.86Z" fill="url(#New_Gradient_Swatch_4-2)"/><path d="M50.71,61.33s1.85,5.55-1.4,7.13c-.09.05-1.39.54-1.36,1.46.15,5.63,3.76,25,6.65,25.21,2.17.14,5.55-18.78,6.86-25.81.12-.68-.34-.75-1.63-.94,0,0-2.14-.3-1.44-6.35C58.68,59.49,50.71,61.33,50.71,61.33Z" fill="#b7784b"/><path d="M40.9,111.43s-.45,8.34-.42,10c0,1.21,0,1.72.56,2.3,5.19,5.46,21.14,5.72,26.16-.34.81-1,1.41-1.4,1.34-2.71-.07-1.55-.54-9.6-.54-9.6Z" fill="#2c3b4c"/><path d="M82.91,121.84s-2.82-11.64-3.06-14.42S77.44,93.68,74,94.89c-3,1.06-2,8.82.21,14.06s5.48,12.26,5.65,13.75c.4,3.52-.72,8.31-.16,8.68.71.47,1.22-.87,1.9-3,1.06,0,3.11,4.24,5.55,5.68s.69-5.47-.38-6.92C86,125.94,83.44,123.36,82.91,121.84Z" fill="#c58b5e"/><path d="M27.09,121.54s2.82-11.64,3.06-14.42S32.56,93.38,36,94.58c3.05,1.07,2,8.83-.21,14.07s-5.48,12.26-5.65,13.75c-.4,3.52.72,8.31.16,8.68-.71.47-1.22-.87-1.9-3.05-1.06,0-3.11,4.24-5.55,5.68s-.69-5.47.38-6.92C24.05,125.64,26.56,123.06,27.09,121.54Z" fill="#c58b5e"/><path d="M45.07,49.63s-1.67-2.07-3.38-.34,1.41,6,3.48,6.68S45.07,49.63,45.07,49.63Z" fill="#c58b5e"/><path d="M64.38,49.63s1.67-2.07,3.38-.34-1.41,6-3.48,6.68S64.38,49.63,64.38,49.63Z" fill="#c58b5e"/><path d="M70.23,73.08a93.41,93.41,0,0,1,5.3,14.78s-3.39,3.84-8,2.88c0,0-2.44-8.51-2.21-11.52S66.36,72.24,70.23,73.08Z" fill="#733ec6"/><path d="M39.8,73.08a92.84,92.84,0,0,0-5.29,14.78s3.39,3.84,8,2.88c0,0,2.43-8.51,2.21-11.52S43.68,72.24,39.8,73.08Z" fill="#733ec6"/><path d="M67.84,83.15c0-1.13,2.39-10.07,2.39-10.07-2.71-4-4.55-3-6.82-3.74s-4.31-1.49-4.31-1.49.77,5.1-4.53,5.1-4.51-5-4.51-5-1.92.66-4.19,1.39-4.82.12-6.6,4.92c0,0,2.23,7.76,2.17,8.89-.65,12-.58,24.33-1,32.12C40.24,118,54,117.91,54,117.91s14.6.32,14.61-2.64C68.67,104.32,67.5,96.21,67.84,83.15Z" fill="#733ec6"/><path d="M34.26,190.33c-2,.43-1.49,2.61-1.49,2.61.58.06,17.75.9,18.93.76s3.9.59,2.11-2.59c-1.68-3-4.72-5.72-8.08-4.56C41.05,188.17,35.26,190.11,34.26,190.33Z" fill="#603a19"/><path d="M32.77,192.94s19.56-.23,21.63-.31v1.09H32.76Z"/><path d="M75.21,190.33c2.05.43,1.5,2.61,1.5,2.61-.59.06-17.75.9-18.94.76s-3.9.59-2.1-2.59c1.67-3,4.71-5.72,8.07-4.56C68.43,188.17,74.21,190.11,75.21,190.33Z" fill="#603a19"/><path d="M76.71,192.94s-19.57-.23-21.64-.31v1.09H76.71Z"/></g><g id="face"><ellipse cx="54.6" cy="49.56" rx="10.8" ry="14.82" fill="#c58b5e"/><ellipse cx="49.16" cy="51.43" rx="1.27" ry="2.06" transform="translate(-0.76 0.73) rotate(-0.85)" fill="#0c0506"/><ellipse cx="59.31" cy="51.28" rx="1.27" ry="2.06" transform="translate(-0.75 0.88) rotate(-0.85)" fill="#0c0506"/><path d="M58.17,58.52l-3.52.88L51,58.64a26.63,26.63,0,0,1,3.57-.36A20,20,0,0,1,58.17,58.52Z" fill="#a06c48"/><path d="M51,58.64a13.64,13.64,0,0,0,7.21-.12,4.13,4.13,0,0,1-3.55,2A3.82,3.82,0,0,1,51,58.64Z" fill="#93603e"/></g><g id="hair"><path d="M66.58,45.45a14.46,14.46,0,0,0-.84,4.85l-1.63,1s.8-4.79-.92-6.85C60.5,41.22,47.79,42.86,46,40.8c-1.46,1.76-.4,10.48-.4,10.48L44,50.51s-2.4-7.51-1.88-9.22S44,39.49,45.83,39c0,0,1.75-9.44,12-7.58a1.69,1.69,0,0,1-.48.73c2.66-.13,6.8.72,9.46-1,0,0,1.77,6.38.34,11.06,0,0,1.16-.25,1.14-.21C68,43,67,44.35,66.58,45.45Z" fill="#572512"/></g></svg>