<svg xmlns="http://www.w3.org/2000/svg" width="110" height="194" viewBox="0 0 110 194"><title>landian-02-hair</title><g id="hair"><path d="M44.65,50a40.15,40.15,0,0,0,2.43-9.39,13.6,13.6,0,0,0,4.14,3.12,20.28,20.28,0,0,0,7.86,2.4c.94.11,4.35,1,4.89,2.19A8.33,8.33,0,0,1,64.78,51s2.64-2.66,2.85-3.8c.82-4.29,0-10.71-5.52-14.14-1.72-1.06-5.25-1.44-8-1.39a14.32,14.32,0,0,0-6.25,1.39,7.83,7.83,0,0,0-3.71,3.55,8.33,8.33,0,0,0-1.24,4,11.42,11.42,0,0,0,.13,2c.06.67.16,1.32.26,1.93A53.71,53.71,0,0,0,44.65,50Z" fill="#14103d"/></g></svg>