<svg xmlns="http://www.w3.org/2000/svg" xmlns:xlink="http://www.w3.org/1999/xlink" width="110" height="194" viewBox="0 0 110 194"><defs><linearGradient id="linear-gradient" x1="37.54" y1="152.08" x2="53.31" y2="152.08" gradientUnits="userSpaceOnUse"><stop offset="0" stop-color="#698293"/><stop offset="0.26" stop-color="#657d8e"/><stop offset="0.58" stop-color="#59707f"/><stop offset="0.92" stop-color="#455b67"/><stop offset="1" stop-color="#405561"/></linearGradient><linearGradient id="linear-gradient-2" x1="56.91" y1="151.64" x2="72.51" y2="151.64" xlink:href="#linear-gradient"/></defs><title>landian-39-body</title><g id="landians"><path d="M67.59,186.3c-2.32-1,11.87,1.57,13.12,1.89s1.7,4.8,1,4.87-20.28.54-21.65.38-4.51.68-2.43-3C62.23,182.33,69.92,187.27,67.59,186.3Z" fill="#443a10"/><path d="M82.16,192.21s-22.81.08-25.2,0v1.7l25.37.09Z" fill="#cfd1d2"/><path d="M66.85,187.85a.4.4,0,0,1-.43-.66c.87-.82,2-1.65,2.53-1.27C69.82,186.49,69.47,186.83,66.85,187.85Z" fill="#e5e6e6"/><path d="M70.27,188.47a.4.4,0,0,1-.45-.63c.73-.86,1.75-1.81,2.35-1.41C73.07,187,73.05,187.36,70.27,188.47Z" fill="#e5e6e6"/><path d="M73.71,189a.4.4,0,0,1-.46-.63C74,187.5,75,186.55,75.6,187,76.5,187.55,76.48,187.89,73.71,189Z" fill="#e5e6e6"/><path d="M42.9,186.15c2.32-1-11.86,1.57-13.11,1.89s-1.7,4.8-1,4.87,20.29.54,21.66.38,4.51.68,2.43-3C48.27,182.18,40.58,187.12,42.9,186.15Z" fill="#443a10"/><path d="M28.34,192.06s22.81.08,25.2,0v1.7l-25.37.09Z" fill="#cfd1d2"/><path d="M43.64,187.7a.4.4,0,0,0,.43-.66c-.86-.82-2-1.65-2.53-1.27C40.67,186.34,41,186.68,43.64,187.7Z" fill="#e5e6e6"/><path d="M40.22,188.32a.4.4,0,0,0,.46-.63c-.74-.86-1.75-1.81-2.35-1.41C37.43,186.88,37.45,187.21,40.22,188.32Z" fill="#e5e6e6"/><path d="M36.79,188.84a.4.4,0,0,0,.46-.63c-.74-.86-1.75-1.81-2.35-1.41C34,187.4,34,187.74,36.79,188.84Z" fill="#e5e6e6"/><path d="M41.54,185.77c-.53-5.07-3.69-53-4-64.39-.26-9.28,15.77-9.25,15.77,2.11,0,18.9-.59,66-.59,66S49.36,187.08,41.54,185.77Z" fill="url(#linear-gradient)"/><path d="M69.5,186.18c0-5.94,2.93-54,3-65.34.06-10-16.63-8.58-15.55,2.78,2,21.06.94,65.54.94,65.54A27.78,27.78,0,0,1,69.5,186.18Z" fill="url(#linear-gradient-2)"/><path d="M23.17,109.11q-2.87.26-5.71.56a12,12,0,0,1,.08,2.61c-.45,3.55-3.44,7.76-3.33,10s1.91,5.36,2.63,5.36,3.51-2.23,4.36-9c0,0,.88,2.57,1.95,2.09s-.08-7.21-.19-8.92C23,111.83,23.05,110.76,23.17,109.11Z" fill="#f1b186"/><path d="M50.69,48.33l9.05-.12A4,4,0,0,1,55.55,52C51.08,52,50.69,48.33,50.69,48.33Z" fill="#fff"/><path d="M26,61a114,114,0,0,0-7.24,13.72,13.76,13.76,0,0,0-1,3.15C17,81.47,15.42,90,15.35,91.44c-.08,1.88-.46,14.89,1.28,16.68s6.25-.19,6.25-.19,2.2-10.3,1.27-17.73c-.16-1.25,1.79-4.45,4-9Q27.15,71.09,26,61Z" fill="#ab8ecd"/><path d="M23.32,112.14a.37.37,0,0,1-.44.36l-.32-.06a12.76,12.76,0,0,0-5.32.26.52.52,0,0,1-.66-.41c-.28-1.22-.84-4.08-.21-5.05a1,1,0,0,1,.54-.36c1.27-.41,4.16.08,5.57.36l.52.11a.38.38,0,0,1,.29.37Z" fill="#733ec6"/><path d="M87.27,109.24q2.87.09,5.73.24a12.24,12.24,0,0,0,.07,2.6c.66,3.51,3.89,7.55,3.91,9.79s-1.59,5.46-2.31,5.51-3.64-2-4.88-8.71c0,0-.72,2.61-1.82,2.2s-.34-7.2-.34-8.92Z" fill="#f1b186"/><path d="M81.68,61.4a115,115,0,0,1,8,13.28,13.34,13.34,0,0,1,1.18,3.08c.9,3.53,3,11.92,3.14,13.39.2,1.88,1.34,14.84-.29,16.72s-6.26.18-6.26.18-2.79-10.15-2.3-17.62c.09-1.26-2.05-4.34-4.54-8.76C80.92,74.91,81.29,68.16,81.68,61.4Z" fill="#ab8ecd"/><path d="M87.3,112.28a.37.37,0,0,0,.45.34l.33-.08a12.79,12.79,0,0,1,5.31-.06.53.53,0,0,0,.49-.14A.55.55,0,0,0,94,112c.2-1.23.59-4.12-.09-5.06a1,1,0,0,0-.56-.32c-1.3-.34-4.15.32-5.54.68l-.51.14a.37.37,0,0,0-.27.39Z" fill="#733ec6"/><rect x="21.69" y="13.44" width="31.69" height="160.33" rx="15.84" fill="#ce9c5f"/><rect x="57.31" y="13.44" width="31.69" height="160.33" rx="15.84" fill="#ce9c5f"/><rect x="40.43" y="15.99" width="29.92" height="151.41" rx="14.96" fill="#87511b"/><path d="M50.77,65.41c3.63,4.82,7.75,10.21,8.46,16.4.68,5.84-2.52,10.77-5.06,15.74a30.94,30.94,0,0,0-3,7.75,22.2,22.2,0,0,0,.42,9.76,77.78,77.78,0,0,0,3.28,10c1.23,3.15,2.8,6.18,3.82,9.41a14.46,14.46,0,0,1-.35,10.28,43.31,43.31,0,0,1-5.56,8.85,1.88,1.88,0,0,0,.67,2.56,1.92,1.92,0,0,0,2.57-.67c3.8-5.09,7.81-10.9,7.19-17.58-.32-3.52-1.69-6.75-3.09-10a98.09,98.09,0,0,1-3.88-10.25c-1-3.34-2.07-6.88-1.62-10.42a23.89,23.89,0,0,1,2.78-7.83C60,94.32,63.2,89.22,63.07,83.25c-.15-7.5-4.73-14-9.06-19.73a1.92,1.92,0,0,0-2.56-.67,1.88,1.88,0,0,0-.68,2.56Z" fill="#fddc0d"/></g></svg>