<svg xmlns="http://www.w3.org/2000/svg" xmlns:xlink="http://www.w3.org/1999/xlink" width="110" height="194" viewBox="0 0 110 194"><defs><linearGradient id="linear-gradient" x1="46.16" y1="144.15" x2="46.16" y2="193.06" gradientUnits="userSpaceOnUse"><stop offset="0" stop-color="#2c3b4c"/><stop offset="0.31" stop-color="#293748"/><stop offset="0.63" stop-color="#1f2c3c"/><stop offset="0.95" stop-color="#0f1928"/><stop offset="1" stop-color="#0c1624"/></linearGradient><linearGradient id="linear-gradient-2" x1="64.24" y1="144.15" x2="64.24" y2="193.06" xlink:href="#linear-gradient"/><clipPath id="clip-path"><path d="M89.06,96.87c-2.33,1.84-8.66-1.32-9.24-3.07a57.14,57.14,0,0,0-3.43-8.14l0,0c-1-1.82-1.89-3.41-2.65-4.72-.06,8.83.48,23.69.19,26.77a3.24,3.24,0,0,1-.28,1.12c.31,5.08-3.22,9.31-3.22,9.31l-28.72-.51s-5.45-3.54-5.15-8.95a3.75,3.75,0,0,1-.42-1.41c-.3-3.16.57-18.48.63-27.08-.84,1.44-1.92,3.29-3.1,5.47l0,0A58.32,58.32,0,0,0,30.2,93.8c-.58,1.76-6.95,4.93-9.26,3a0,0,0,0,1,0,0c-1-.63-1.41-1.94-.93-4.29,1.55-7.47,5.82-19.48,9.75-26.35a15.07,15.07,0,0,1,3.36-4.9.54.54,0,0,1,.07-.13c1-1.35,10.54-4.63,12.56-4.56a16.49,16.49,0,0,0,2.63-1.19,6,6,0,0,0,4.79,5.71,7.19,7.19,0,0,0,1.05.17l.84,2,1.18-2.1A10.59,10.59,0,0,0,57.34,61,6.06,6.06,0,0,0,62,55.67a11.4,11.4,0,0,0,2.18,1c1.47-.36,11.68,3.13,12.75,4.53,0,.05.07.1.1.16a15.48,15.48,0,0,1,3.3,4.85C84.21,73,88.49,85.06,90,92.54,90.53,94.93,90,96.26,89.06,96.87Z" fill="none"/></clipPath></defs><title>landian-19</title><g style="isolation:isolate"><g id="landians"><path d="M28.13,115.12c-1-4.6,1.41-13,.87-20.68C28.74,90.8,27,91,24.86,90.33s-3.31.33-3.63,1.52c-2.12,7.77,2.73,18.53-.1,24.26-1.09,2.22-2.41,7.35-2.11,9.54s2.59,5.17,3.41,5.15,3.81-2.31,4.24-8.94c0,0,1.2,2.47,2.38,2S28.49,116.77,28.13,115.12Z" fill="#f1b186"/><path d="M42.48,187.33c2.32-1-11.86,1.57-13.11,1.88s-1.7,3.78-1,3.85,20.29.54,21.66.38,4.51.68,2.43-3C47.85,182.33,40.16,188.3,42.48,187.33Z" fill="#603917"/><path d="M27.92,192.21s22.73.08,25.13,0v1.7l-25.3.09Z"/><path d="M39.37,188.45c-2.56-3.6.51-25.9-.85-36.93-1.17-9.35,12.47-10.42,14,.35,2.62,18.3.94,41.19.94,41.19S41.94,192,39.37,188.45Z" fill="url(#linear-gradient)"/><path d="M67.71,187.33c-2.32-1,11.86,1.57,13.11,1.88s1.7,3.78,1,3.85-20.28.54-21.66.38-4.5.68-2.42-3C62.35,182.33,70,188.3,67.71,187.33Z" fill="#603917"/><path d="M82.28,192.21s-22.74.08-25.13,0v1.7l25.3.09Z"/><path d="M71.34,188.45c2.56-3.6-1-25.9.34-36.93,1.16-9.35-12.48-10.42-14,.35-2.61,18.3-.94,41.19-.94,41.19S68.77,192,71.34,188.45Z" fill="url(#linear-gradient-2)"/><path d="M62.59,56.72c-1.17-1-.53-6.49-.53-6.49l-13.46.32s.9,5.2-1.84,6.46L55,81.47Z" fill="#d69471"/><path d="M81.87,115.12c1-4.6-1.41-13-.87-20.68.26-3.64,2-3.4,4.14-4.11s3.31.33,3.63,1.52c2.12,7.77-2.73,18.53.1,24.26,1.09,2.22,2.41,7.35,2.11,9.54s-2.59,5.17-3.41,5.15-3.81-2.31-4.24-8.94c0,0-1.2,2.47-2.38,2S81.51,116.77,81.87,115.12Z" fill="#f1b186"/><polygon points="59.35 64.36 51.18 64.36 53.13 61.2 53.73 60.24 54.19 61.37 55.03 63.4 56.2 61.3 56.8 60.24 57.32 61.07 59.35 64.36" fill="#2a006d"/><path d="M89.06,96.87c-2.33,1.84-8.66-1.32-9.24-3.07a57.14,57.14,0,0,0-3.43-8.14l0,0c-1-1.82-1.89-3.41-2.65-4.72-.06,8.83.48,23.69.19,26.77a3.24,3.24,0,0,1-.28,1.12c.31,5.08-3.22,9.31-3.22,9.31l-28.72-.51s-5.45-3.54-5.15-8.95a3.75,3.75,0,0,1-.42-1.41c-.3-3.16.57-18.48.63-27.08-.84,1.44-1.92,3.29-3.1,5.47l0,0A58.32,58.32,0,0,0,30.2,93.8c-.58,1.76-6.95,4.93-9.26,3a0,0,0,0,1,0,0c-1-.63-1.41-1.94-.93-4.29,1.55-7.47,5.82-19.48,9.75-26.35a15.07,15.07,0,0,1,3.36-4.9.54.54,0,0,1,.07-.13c1-1.35,10.54-4.63,12.56-4.56a16.49,16.49,0,0,0,2.63-1.19,6,6,0,0,0,4.79,5.71,7.19,7.19,0,0,0,1.05.17l.84,2,1.18-2.1A10.59,10.59,0,0,0,57.34,61,6.06,6.06,0,0,0,62,55.67a11.4,11.4,0,0,0,2.18,1c1.47-.36,11.68,3.13,12.75,4.53,0,.05.07.1.1.16a15.48,15.48,0,0,1,3.3,4.85C84.21,73,88.49,85.06,90,92.54,90.53,94.93,90,96.26,89.06,96.87Z" fill="#733ec6"/><g opacity="0.54" style="mix-blend-mode:hard-light"><g clip-path="url(#clip-path)"><polyline points="99.64 75.13 1.53 75.13 1.53 73.74 99.64 73.74" fill="#131427" opacity="0.4" style="mix-blend-mode:multiply"/><polyline points="99.64 78.65 1.53 78.65 1.53 77.27 99.64 77.27" fill="#131427" opacity="0.4" style="mix-blend-mode:multiply"/><polyline points="99.64 82.17 1.53 82.17 1.53 80.79 99.64 80.79" fill="#131427" opacity="0.4" style="mix-blend-mode:multiply"/><polyline points="99.64 85.69 1.53 85.69 1.53 84.31 99.64 84.31" fill="#131427" opacity="0.4" style="mix-blend-mode:multiply"/><polyline points="99.64 89.22 1.53 89.22 1.53 87.83 99.64 87.83" fill="#131427" opacity="0.4" style="mix-blend-mode:multiply"/><polyline points="99.64 92.74 1.53 92.74 1.53 91.36 99.64 91.36" fill="#131427" opacity="0.4" style="mix-blend-mode:multiply"/><polyline points="99.64 96.26 1.53 96.26 1.53 94.88 99.64 94.88" fill="#131427" opacity="0.4" style="mix-blend-mode:multiply"/><polyline points="99.64 99.78 1.53 99.78 1.53 98.4 99.64 98.4" fill="#131427" opacity="0.4" style="mix-blend-mode:multiply"/><polyline points="99.64 103.31 1.53 103.31 1.53 101.92 99.64 101.92" fill="#131427" opacity="0.4" style="mix-blend-mode:multiply"/><polyline points="99.64 106.83 1.53 106.83 1.53 105.45 99.64 105.45" fill="#131427" opacity="0.4" style="mix-blend-mode:multiply"/><polyline points="99.64 110.35 1.53 110.35 1.53 108.97 99.64 108.97" fill="#131427" opacity="0.4" style="mix-blend-mode:multiply"/><polyline points="99.64 113.87 1.53 113.87 1.53 112.49 99.64 112.49" fill="#131427" opacity="0.4" style="mix-blend-mode:multiply"/><polyline points="99.64 117.4 1.53 117.4 1.53 116.01 99.64 116.01" fill="#131427" opacity="0.4" style="mix-blend-mode:multiply"/><polyline points="99.64 120.92 1.53 120.92 1.53 119.54 99.64 119.54" fill="#131427" opacity="0.4" style="mix-blend-mode:multiply"/><polyline points="99.64 124.44 1.53 124.44 1.53 123.06 99.64 123.06" fill="#131427" opacity="0.4" style="mix-blend-mode:multiply"/><polyline points="99.64 127.96 1.53 127.96 1.53 126.58 99.64 126.58" fill="#131427" opacity="0.4" style="mix-blend-mode:multiply"/><polyline points="99.88 46.94 1.76 46.94 1.76 45.56 99.88 45.56" fill="#131427" opacity="0.4" style="mix-blend-mode:multiply"/><polyline points="99.88 50.47 1.76 50.47 1.76 49.09 99.88 49.09" fill="#131427" opacity="0.4" style="mix-blend-mode:multiply"/><polyline points="99.88 53.99 1.76 53.99 1.76 52.61 99.88 52.61" fill="#131427" opacity="0.4" style="mix-blend-mode:multiply"/><polyline points="99.88 57.51 1.76 57.51 1.76 56.13 99.88 56.13" fill="#131427" opacity="0.4" style="mix-blend-mode:multiply"/><polyline points="99.88 61.03 1.76 61.03 1.76 59.65 99.88 59.65" fill="#131427" opacity="0.4" style="mix-blend-mode:multiply"/><polyline points="99.88 64.56 1.76 64.56 1.76 63.17 99.88 63.17" fill="#131427" opacity="0.4" style="mix-blend-mode:multiply"/><polyline points="99.88 68.08 1.76 68.08 1.76 66.7 99.88 66.7" fill="#131427" opacity="0.4" style="mix-blend-mode:multiply"/><polyline points="99.88 71.6 1.76 71.6 1.76 70.22 99.88 70.22" fill="#131427" opacity="0.4" style="mix-blend-mode:multiply"/><polyline points="62.34 135.71 62.34 37.59 63.72 37.59 63.72 135.71" fill="#131427" opacity="0.81" style="mix-blend-mode:multiply"/><polyline points="58.82 135.71 58.82 37.59 60.2 37.59 60.2 135.71" fill="#131427" opacity="0.81" style="mix-blend-mode:multiply"/><polyline points="55.3 135.71 55.3 37.59 56.68 37.59 56.68 135.71" fill="#131427" opacity="0.81" style="mix-blend-mode:multiply"/><polyline points="51.77 135.71 51.77 37.59 53.15 37.59 53.15 135.71" fill="#131427" opacity="0.81" style="mix-blend-mode:multiply"/><polyline points="48.25 135.71 48.25 37.59 49.63 37.59 49.63 135.71" fill="#131427" opacity="0.81" style="mix-blend-mode:multiply"/><polyline points="44.73 135.71 44.73 37.59 46.11 37.59 46.11 135.71" fill="#131427" opacity="0.81" style="mix-blend-mode:multiply"/><polyline points="41.2 135.71 41.2 37.59 42.59 37.59 42.59 135.71" fill="#131427" opacity="0.81" style="mix-blend-mode:multiply"/><polyline points="37.68 135.71 37.68 37.59 39.06 37.59 39.06 135.71" fill="#131427" opacity="0.81" style="mix-blend-mode:multiply"/><polyline points="34.16 135.71 34.16 37.59 35.54 37.59 35.54 135.71" fill="#131427" opacity="0.81" style="mix-blend-mode:multiply"/><polyline points="30.64 135.71 30.64 37.59 32.02 37.59 32.02 135.71" fill="#131427" opacity="0.81" style="mix-blend-mode:multiply"/><polyline points="27.11 135.71 27.11 37.59 28.5 37.59 28.5 135.71" fill="#131427" opacity="0.81" style="mix-blend-mode:multiply"/><polyline points="23.59 135.71 23.59 37.59 24.97 37.59 24.97 135.71" fill="#131427" opacity="0.81" style="mix-blend-mode:multiply"/><polyline points="20.07 135.71 20.07 37.59 21.45 37.59 21.45 135.71" fill="#131427" opacity="0.81" style="mix-blend-mode:multiply"/><polyline points="16.55 135.71 16.55 37.59 17.93 37.59 17.93 135.71" fill="#131427" opacity="0.81" style="mix-blend-mode:multiply"/><polyline points="13.02 135.71 13.02 37.59 14.41 37.59 14.41 135.71" fill="#131427" opacity="0.81" style="mix-blend-mode:multiply"/><polyline points="9.5 135.71 9.5 37.59 10.88 37.59 10.88 135.71" fill="#131427" opacity="0.81" style="mix-blend-mode:multiply"/><polyline points="90.52 135.94 90.52 37.82 91.9 37.82 91.9 135.94" fill="#131427" opacity="0.81" style="mix-blend-mode:multiply"/><polyline points="87 135.94 87 37.82 88.38 37.82 88.38 135.94" fill="#131427" opacity="0.81" style="mix-blend-mode:multiply"/><polyline points="83.48 135.94 83.48 37.82 84.86 37.82 84.86 135.94" fill="#131427" opacity="0.81" style="mix-blend-mode:multiply"/><polyline points="79.95 135.94 79.95 37.82 81.33 37.82 81.33 135.94" fill="#131427" opacity="0.81" style="mix-blend-mode:multiply"/><polyline points="76.43 135.94 76.43 37.82 77.81 37.82 77.81 135.94" fill="#131427" opacity="0.81" style="mix-blend-mode:multiply"/><polyline points="72.91 135.94 72.91 37.82 74.29 37.82 74.29 135.94" fill="#131427" opacity="0.81" style="mix-blend-mode:multiply"/><polyline points="69.39 135.94 69.39 37.82 70.77 37.82 70.77 135.94" fill="#131427" opacity="0.81" style="mix-blend-mode:multiply"/><polyline points="65.86 135.94 65.86 37.82 67.24 37.82 67.24 135.94" fill="#131427" opacity="0.81" style="mix-blend-mode:multiply"/></g></g><path d="M38.17,149a206.09,206.09,0,0,1-1.71-32.48c.16-3.45,7.21-5.34,11.37-3.56,3,1.28,6,9.58,5.56,12.79-1,7.52-.17,14.53-.94,24.27-.53,6.73-5.53,7.26-8,6.84C40.57,156.14,38.82,154.06,38.17,149Z" fill="#2c3b4c"/><path d="M72,149a204.88,204.88,0,0,0,1.71-32.48c-.15-3.45-7.21-5.34-11.37-3.56-3,1.28-6,9.58-5.55,12.79,1,7.52.17,14.53.94,24.27.53,6.73,5.53,7.26,8,6.84C69.63,156.14,71.38,154.06,72,149Z" fill="#2c3b4c"/><path d="M36.81,108.19c11,4.83,34.36,1.44,36.66,1,.43,5.56.26,14.36.26,14.36s-23,3.38-37.18-2A92.2,92.2,0,0,1,36.81,108.19Z" fill="#2c3b4c"/><path d="M20.36,92.11c1.38.41,4.37.89,9.78,0a.37.37,0,0,1,.44.4L30.05,96a1.13,1.13,0,0,1-.71.88,17.47,17.47,0,0,1-9.76.8,1.34,1.34,0,0,1-1-1.49c.14-1,.35-2.45.59-3.39A1,1,0,0,1,20.36,92.11Z" fill="#410099"/><path d="M89.64,92.11c-1.38.41-4.37.89-9.78,0a.37.37,0,0,0-.44.4L80,96a1.13,1.13,0,0,0,.71.88,17.47,17.47,0,0,0,9.76.8,1.34,1.34,0,0,0,1-1.49c-.14-1-.35-2.45-.59-3.39A1,1,0,0,0,89.64,92.11Z" fill="#410099"/><path d="M53.73,60.24,50.4,65.62l-4.69-8.94,2.63-2.08A23.21,23.21,0,0,0,53.73,60.24Z" fill="#410099"/><path d="M56.81,60.24l3.33,5.38,4.68-8.94L62.19,54.6A23.08,23.08,0,0,1,56.81,60.24Z" fill="#410099"/><path d="M53.94,68.1v42.65l2.15,0,.12-42.59s-.13-3.78,1.8-6l-1.2-1.94S53.94,62.3,53.94,68.1Z" fill="#410099"/><circle cx="55.44" cy="65.09" r="0.73" fill="#fff"/><circle cx="55.01" cy="71.56" r="0.73" fill="#fff"/><circle cx="55.01" cy="77.74" r="0.73" fill="#fff"/><circle cx="55.01" cy="83.95" r="0.73" fill="#fff"/><circle cx="55.01" cy="90.2" r="0.73" fill="#fff"/><circle cx="55.01" cy="96.43" r="0.73" fill="#fff"/><circle cx="55.01" cy="102.66" r="0.73" fill="#fff"/><path d="M46.54,41.05s-1.93-2.39-3.91-.4,1.63,6.94,4,7.73S46.54,41.05,46.54,41.05Z" fill="#f1b186"/><path d="M63.74,40.8s1.85-2.45,3.89-.52-1.43,7-3.8,7.85S63.74,40.8,63.74,40.8Z" fill="#f1b186"/></g><g id="face"><path d="M66.81,40.48C67.3,48.85,61.21,56,56.26,56.3S44.43,50.2,43.93,41.83s-1-15.76,10.53-16.36C67.65,24.78,66.32,32.12,66.81,40.48Z" fill="#f1b186"/><ellipse cx="50.7" cy="40.3" rx="1.24" ry="2.01" transform="translate(-0.59 0.75) rotate(-0.85)" fill="#0e090a"/><ellipse cx="60.61" cy="40.15" rx="1.24" ry="2.01" transform="translate(-0.59 0.9) rotate(-0.85)" fill="#0e090a"/><path d="M59.92,48.91,55.54,50l-4.59-1a32.12,32.12,0,0,1,4.45-.45A24.61,24.61,0,0,1,59.92,48.91Z" fill="#c68866"/><path d="M51,49.05a17,17,0,0,0,9-.14,5.11,5.11,0,0,1-4.42,2.51A4.74,4.74,0,0,1,51,49.05Z" fill="#b5795b"/></g><g id="hair"><path d="M68.76,26.32c1.1-.8.61-3.92.61-3.92-3.87,3-3.52,2.72-9.33-1.49S48.85,20.2,44.38,23c-2.81,1.74-1.57,4.4-.25,6.15a12.18,12.18,0,0,0-.49,1.17v0c-.51,3.22,0,9.74,0,9.74l1.8,1.13a50.93,50.93,0,0,1-.2-5.47,22.5,22.5,0,0,1,.55-4.94c1.28-4.12,4.62-1.21,10.09,0a19,19,0,0,0,8.87-.34,20.39,20.39,0,0,1,0,10.78l2.06-1.48s1.44-6.49.26-9.39v0c0-.08-.1-.28-.22-.57a7.57,7.57,0,0,0,.75-.32c1-.31,2.7-3.65,2.7-3.65Z" fill="#fddc0d"/></g></g></svg>