<svg xmlns="http://www.w3.org/2000/svg" width="110" height="194" viewBox="0 0 110 194"><title>landian-07-face</title><g id="face"><ellipse cx="54.56" cy="49.22" rx="10.8" ry="14.82" fill="#a4612f"/><ellipse cx="49.12" cy="51.09" rx="1.27" ry="2.06" transform="translate(-0.75 0.73) rotate(-0.85)" fill="#0c0506"/><ellipse cx="59.28" cy="50.94" rx="1.27" ry="2.06" transform="translate(-0.75 0.88) rotate(-0.85)" fill="#0c0506"/><path d="M58.13,58.18l-3.52.88-3.69-.76a24.81,24.81,0,0,1,3.57-.36A19.87,19.87,0,0,1,58.13,58.18Z" fill="#9e2528"/><path d="M50.92,58.3a13.62,13.62,0,0,0,7.21-.12,4.09,4.09,0,0,1-3.55,2A3.81,3.81,0,0,1,50.92,58.3Z" fill="#d4212d"/></g></svg>