<svg xmlns="http://www.w3.org/2000/svg" width="110" height="194" viewBox="0 0 110 194"><title>landian-19-face</title><g id="face"><path d="M66.81,40.48C67.3,48.85,61.21,56,56.26,56.3S44.43,50.2,43.93,41.83s-1-15.76,10.53-16.36C67.65,24.78,66.32,32.12,66.81,40.48Z" fill="#f1b186"/><ellipse cx="50.7" cy="40.3" rx="1.24" ry="2.01" transform="translate(-0.59 0.75) rotate(-0.85)" fill="#0e090a"/><ellipse cx="60.61" cy="40.15" rx="1.24" ry="2.01" transform="translate(-0.59 0.9) rotate(-0.85)" fill="#0e090a"/><path d="M59.92,48.91,55.54,50l-4.59-1a32.12,32.12,0,0,1,4.45-.45A24.61,24.61,0,0,1,59.92,48.91Z" fill="#c68866"/><path d="M51,49.05a17,17,0,0,0,9-.14,5.11,5.11,0,0,1-4.42,2.51A4.74,4.74,0,0,1,51,49.05Z" fill="#b5795b"/></g></svg>