<svg xmlns="http://www.w3.org/2000/svg" width="110" height="194" viewBox="0 0 110 194"><title>landian-23-face</title><g id="face"><ellipse cx="54.56" cy="40.16" rx="11.68" ry="15.46" transform="translate(-0.59 0.81) rotate(-0.85)" fill="#895d3b"/><ellipse cx="49.82" cy="39.28" rx="1.26" ry="2.05" transform="translate(-0.58 0.74) rotate(-0.85)" fill="#0c0506"/><ellipse cx="59.91" cy="39.14" rx="1.26" ry="2.05" transform="translate(-0.57 0.89) rotate(-0.85)" fill="#0c0506"/><path d="M49.43,46.69,60,46.54A4.69,4.69,0,0,1,55.13,51C49.89,51,49.43,46.69,49.43,46.69Z" fill="#fff"/><ellipse cx="49.82" cy="39.28" rx="1.26" ry="2.05" transform="translate(-0.58 0.74) rotate(-0.85)" fill="#0c0506"/><ellipse cx="59.91" cy="39.14" rx="1.26" ry="2.05" transform="translate(-0.57 0.89) rotate(-0.85)" fill="#0c0506"/><path d="M49.43,46.69,60,46.54A4.69,4.69,0,0,1,55.13,51C49.89,51,49.43,46.69,49.43,46.69Z" fill="#fff"/></g></svg>