<svg xmlns="http://www.w3.org/2000/svg" width="110" height="194" viewBox="0 0 110 194"><title>landian-01-hair</title><g id="hair"><path d="M44.7,54.47a39,39,0,0,0,2.36-9.14,13.25,13.25,0,0,0,4,3,19.63,19.63,0,0,0,7.65,2.34c.92.1,4.23,1,4.76,2.13a8.43,8.43,0,0,1,.79,2.59s1.88-1.72,2-2.84c.55-3.85,0-11.54-5.43-14.88A13.2,13.2,0,0,0,54,36a21.48,21.48,0,0,0-6.19,1.11A8.55,8.55,0,0,0,43.58,40a16.5,16.5,0,0,0-2.73,5.84c0,.16.33.37.79.59.63.3,1.44.62,1.46.86.06.65.14,1.29.25,1.88A52.49,52.49,0,0,0,44.7,54.47Z" fill="#603a19"/></g></svg>