<svg xmlns="http://www.w3.org/2000/svg" xmlns:xlink="http://www.w3.org/1999/xlink" width="110" height="194" viewBox="0 0 110 194"><defs><clipPath id="clip-path"><path d="M89.94,87.81C87.34,78.36,80.28,55.74,76,55.74c-8.56,0-4.71,14.67-3.46,17.26s5.17,8.18,7.68,15.81C81,91.16,92.22,96.08,89.94,87.81Z" fill="none"/></clipPath><linearGradient id="linear-gradient" x1="45.45" y1="142.14" x2="45.91" y2="183.86" gradientUnits="userSpaceOnUse"><stop offset="0" stop-color="#698293"/><stop offset="0.26" stop-color="#657d8e"/><stop offset="0.58" stop-color="#59707f"/><stop offset="0.92" stop-color="#455b67"/><stop offset="1" stop-color="#405561"/></linearGradient><linearGradient id="linear-gradient-2" x1="66.23" y1="142.77" x2="60.92" y2="192.37" xlink:href="#linear-gradient"/><clipPath id="clip-path-2"><rect x="55.73" y="101.12" width="1.1" height="9.23" fill="none"/></clipPath></defs><title>landian-32-body</title><g id="landians"><path d="M42.91,25.55A32.65,32.65,0,0,0,42,35.81c.46,4.39,1.07,4.91,3,8.78.07-.34,1.4-1.34,1.54-.83a8.55,8.55,0,0,0,1.59,2.54,10.75,10.75,0,0,1,.68-2.42c.32-.36,1,1.3,1.09,1.75a3.55,3.55,0,0,0,.31.69,50.75,50.75,0,0,0,6.4,1A46.91,46.91,0,0,1,64,44.51a2.65,2.65,0,0,1,2.13.92,4.37,4.37,0,0,0,1-2.25,12.54,12.54,0,0,1,1.35.82,22.73,22.73,0,0,0,1.76-6.64c.49-4,0-10.19-.71-11.81C66.64,24.19,50.67,23.61,42.91,25.55Z"/><path d="M41.74,53.59s-.93-6.57,15.63-5l-.18,5.37Z" fill="#79589f"/><g clip-path="url(#clip-path)"><path d="M83.31,61.61l.08.08-.08-.07Z" fill="#003660"/><polygon points="83.55 61.84 83.55 61.84 83.55 61.84 83.55 61.84" fill="#003660"/><polygon points="83.31 61.61 83.31 61.61 83.31 61.61 83.31 61.61" fill="#003660"/><path d="M83.39,62.4a4.49,4.49,0,0,0,.15-.52v0Z" fill="#003660"/><path d="M79.08,61.18A3.34,3.34,0,0,1,81.86,61l.06-.07a3.43,3.43,0,0,0-.57-.17,2.92,2.92,0,0,0-.94-.07,3.56,3.56,0,0,0-1.39.4h0l0,.08c0,.08-.06.19-.09.33a3.18,3.18,0,0,0-.06,1.15,3.23,3.23,0,0,0,.3,1c.05.11.11.22.17.33l.06-.07A3.18,3.18,0,0,1,79.08,61.18Z" fill="none"/><path d="M83.27,61.91a4.66,4.66,0,0,1-.8,1.69.58.58,0,0,0-.9-.12h-.1s0,0,0-.1c.28-.39.14-.45,0-.44l-.1.11c.21,0,0,.19-.07.27-.17.24-.12.34,0,.37h.16c.59-.09.49.49.33.64a5.13,5.13,0,0,1-1.33.85L80,64.74l0,.07c.11.11.23.23.36.34l.18.14h0l.13-.05L81,65a5.14,5.14,0,0,0,1.29-1.09,4.91,4.91,0,0,0,1-1.83,1.8,1.8,0,0,0,0-.19v0l0,0a.53.53,0,0,0-.11-.09h0a4.26,4.26,0,0,0-.4-.32l-.06.07A4.32,4.32,0,0,1,83.27,61.91Z" fill="none"/><path d="M81.34,63.1l0,0,.1-.11h0Z" fill="#003660"/><path d="M83.09,61.09l-.09,0-.37-.16-.22-.34,0-.08-.07.07-.25.3a3.64,3.64,0,0,0-1-.26,3.58,3.58,0,0,0-1,0,3.66,3.66,0,0,0-1.13.4h0v0a2,2,0,0,0-.13.38,3.68,3.68,0,0,0-.11.7,3.36,3.36,0,0,0,.26,1.47,3.07,3.07,0,0,0,.29.57l-.24.28-.07.07.1,0,.36.16.22.34.06.08.06-.07.12-.14c.11.12.23.23.36.35l.22.18,0,0h0a4.58,4.58,0,0,0,.66-.33A5.63,5.63,0,0,0,82.45,64a5,5,0,0,0,.94-1.62l.15-.52v0h0l0,0-.12-.11-.08-.08h0a5,5,0,0,0-.41-.3l.12-.14Z" fill="#0c3b60"/><polygon points="79.35 62.99 79.16 62.43 79.74 62.45 79.74 62.45 79.74 62.45 79.73 62.58 79.54 62.68 79.51 62.97 79.35 62.99 79.35 62.99 79.35 62.99" fill="#0c3b60"/><path d="M79.31,61.86a.09.09,0,0,1-.06,0,.14.14,0,0,1-.06-.11.16.16,0,0,1,0-.13s0,0,.06,0l.08,0h0v0a.14.14,0,0,1,0-.11.15.15,0,0,1,.07,0,.11.11,0,0,1,.08,0h0v0a.21.21,0,0,1,0-.07.27.27,0,0,1,.14-.07.19.19,0,0,1,.16.32l0,0h0s0,.05,0,.07a.09.09,0,0,1,0,.07.1.1,0,0,1-.05,0h0v0a.15.15,0,0,1,0,.09.36.36,0,0,1,0,.09l-.08,0H79.6v0a0,0,0,0,1,0,0,.1.1,0,0,1-.09,0,.11.11,0,0,1-.11,0s0,0,0-.06a.22.22,0,0,1,0-.08v0Z" fill="#0c3b60"/><polygon points="80.76 61.22 80.74 61.35 80.52 61.4 80.47 61.59 80.37 61.64 80.37 61.64 80.37 61.64 80.24 61.18 80.76 61.22 80.76 61.22 80.76 61.22" fill="#0c3b60"/><polygon points="79.97 62.31 79.97 62.31 79.95 62.03 80.27 62.04 80.27 62.04 80.27 62.04 80.26 62.14 80.15 62.19 80.1 62.3 79.97 62.31 79.97 62.31 79.97 62.31" fill="#0c3b60"/><path d="M79.13,63.7a3.23,3.23,0,0,1-.3-1,3.18,3.18,0,0,1,.06-1.15c0-.14.07-.25.09-.33l0-.08h0a3.56,3.56,0,0,1,1.39-.4,2.92,2.92,0,0,1,.94.07,3.43,3.43,0,0,1,.57.17l-.06.07a3.34,3.34,0,0,0-2.78.14A3.18,3.18,0,0,0,79.36,64L79.3,64C79.24,63.92,79.18,63.81,79.13,63.7Z" fill="#0c3b60"/><polygon points="80.78 61.22 80.78 61.22 80.75 61.36 80.78 61.22" fill="#fff"/><polygon points="79.6 64.05 79.59 64.05 79.59 64.04 79.58 64.05 79.58 64.05 79.57 64.06 79.56 64.06 79.55 64.08 79.51 64.12 79.48 64.16 79.47 64.17 79.44 64.2 79.41 64.25 79.41 64.25 79.38 64.28 79.37 64.29 79.34 64.33 79.34 64.33 79.32 64.35 79.31 64.36 79.3 64.37 79.3 64.38 79.31 64.38 79.31 64.39 79.32 64.4 79.34 64.41 79.35 64.42 79.36 64.44 79.37 64.44 79.38 64.44 79.38 64.45 79.39 64.45 79.39 64.45 79.4 64.44 79.4 64.44 79.41 64.43 79.42 64.42 79.43 64.41 79.44 64.4 79.45 64.39 79.46 64.38 79.47 64.36 79.48 64.35 79.48 64.34 79.49 64.35 79.5 64.35 79.53 64.38 79.57 64.42 79.58 64.42 79.61 64.45 79.62 64.45 79.65 64.48 79.66 64.49 79.69 64.52 79.73 64.55 79.74 64.56 79.76 64.58 79.77 64.59 79.78 64.59 79.78 64.59 79.79 64.59 79.81 64.56 79.82 64.55 79.84 64.53 79.85 64.52 79.86 64.51 79.87 64.5 79.88 64.49 79.88 64.48 79.87 64.48 79.86 64.47 79.83 64.45 79.83 64.45 79.8 64.42 79.75 64.38 79.71 64.35 79.7 64.34 79.67 64.31 79.67 64.3 79.63 64.28 79.62 64.27 79.59 64.24 79.59 64.23 79.58 64.23 79.59 64.22 79.59 64.22 79.6 64.21 79.61 64.2 79.62 64.19 79.64 64.16 79.65 64.16 79.66 64.14 79.67 64.13 79.67 64.13 79.67 64.12 79.67 64.11 79.67 64.11 79.66 64.1 79.65 64.1 79.64 64.08 79.63 64.08 79.61 64.06 79.6 64.05 79.6 64.05" fill="#fff"/><path d="M80.31,64h-.2v0h0v0h-.29l0,0,0,0h0l0,0-.06.06,0,0h0l0,0h0l0,0h0l0,0h0l0,0h0l0,0h0l0,0h0l0,0h0l0,0h0l0,0h0l0,0h0l0,0h0l0,0,0,0h0l0,0h0l0,0h.24l0,0h0l0,0,0,0h0ZM80,63.88h0l0,0h0l0,0h0l0,0h0l0,0h0l0,0H80Z" fill="#fff"/><path d="M80.67,63.47h-.09l0,0h-.15l0,0h-.16l0,0,0,0,0,0h0v0h0l0,0h0v0h0v.05l0,0h0v0h0l0,0h0l0,0h0l0,0h0v0h0l0,0h0l0,0h0l0-.05h0l0,0h0l0,0,0,0h0l0,0h0l.06,0h0l0,0,0,0h0Zm-.26.07h0l0,0,0,0h0l0,0h0l0-.05h0l0,0h0l0,0h0Z" fill="#fff"/><polygon points="80.71 63.19 80.68 63.16 80.67 63.16 80.64 63.13 80.63 63.12 80.61 63.1 80.6 63.09 80.57 63.07 80.51 63.02 80.5 63.01 80.49 63 80.48 63 80.48 63 80.47 63 80.44 63.03 80.42 63.06 80.42 63.07 80.41 63.08 80.4 63.09 80.39 63.09 80.39 63.1 80.39 63.11 80.39 63.11 80.42 63.14 80.47 63.18 80.5 63.2 80.51 63.21 80.54 63.23 80.58 63.27 80.61 63.3 80.62 63.31 80.66 63.33 80.66 63.34 80.69 63.36 80.7 63.37 80.73 63.4 80.74 63.4 80.75 63.41 80.75 63.42 80.77 63.43 80.77 63.43 80.78 63.43 80.78 63.43 80.81 63.4 80.83 63.37 80.86 63.34 80.86 63.34 80.87 63.33 80.87 63.33 80.86 63.32 80.83 63.29 80.82 63.29 80.8 63.26 80.79 63.25 80.76 63.23 80.71 63.19" fill="#fff"/><polygon points="81.14 62.91 81.11 62.88 81.1 62.88 81.1 62.88 81.09 62.88 81.08 62.88 81.08 62.89 81.07 62.9 81.06 62.92 81.05 62.93 80.98 63.01 80.98 63.02 80.97 63.03 80.95 63.05 80.94 63.06 80.94 63.06 80.93 63.06 80.93 63.06 80.92 63.05 80.86 62.99 80.85 62.98 80.81 62.95 80.81 62.95 80.77 62.92 80.77 62.91 80.74 62.89 80.73 62.88 80.69 62.85 80.65 62.81 80.64 62.81 80.64 62.81 80.63 62.82 80.6 62.86 80.59 62.87 80.57 62.89 80.56 62.9 80.56 62.91 80.55 62.91 80.55 62.92 80.55 62.92 80.56 62.93 80.56 62.93 80.57 62.94 80.59 62.95 80.64 62.99 80.66 63.02 80.67 63.02 80.74 63.08 80.75 63.09 80.81 63.14 80.82 63.15 80.85 63.18 80.86 63.18 80.89 63.21 80.9 63.21 80.91 63.23 80.92 63.24 80.93 63.25 80.94 63.25 80.94 63.24 80.95 63.24 80.95 63.23 80.96 63.22 80.98 63.2 81.02 63.16 81.04 63.13 81.08 63.08 81.12 63.04 81.17 62.98 81.18 62.97 81.18 62.97 81.19 62.96 81.19 62.96 81.19 62.95 81.18 62.94 81.17 62.94 81.17 62.93 81.15 62.92 81.14 62.91" fill="#fff"/><polygon points="81.28 62.3 81.25 62.27 81.24 62.27 81.21 62.24 81.2 62.24 81.18 62.22 81.17 62.21 81.17 62.2 81.16 62.21 81.15 62.21 81.15 62.22 81.14 62.23 81.12 62.25 81.11 62.26 81.09 62.29 81.08 62.3 81.07 62.3 81.08 62.31 81.08 62.32 81.12 62.35 81.13 62.36 81.16 62.39 81.17 62.39 81.2 62.43 81.21 62.43 81.21 62.44 81.21 62.45 81.21 62.45 81.2 62.46 81.17 62.49 81.14 62.52 81.13 62.53 81.12 62.55 81.11 62.56 81.11 62.57 81.1 62.57 81.1 62.57 81.09 62.57 81.08 62.57 81.04 62.53 81 62.5 81 62.49 80.97 62.47 80.97 62.46 80.96 62.46 80.95 62.45 80.94 62.45 80.94 62.46 80.93 62.47 80.92 62.48 80.91 62.5 80.9 62.51 80.88 62.53 80.87 62.54 80.86 62.55 80.86 62.56 80.86 62.56 80.86 62.57 80.88 62.58 80.9 62.59 80.91 62.6 80.94 62.63 80.94 62.63 80.97 62.66 80.98 62.67 81.02 62.7 81.05 62.72 81.05 62.73 81.08 62.75 81.09 62.76 81.12 62.79 81.13 62.79 81.16 62.82 81.2 62.86 81.22 62.87 81.22 62.88 81.23 62.88 81.24 62.89 81.24 62.89 81.25 62.88 81.25 62.88 81.26 62.88 81.27 62.87 81.29 62.84 81.29 62.83 81.31 62.81 81.32 62.8 81.33 62.8 81.33 62.79 81.33 62.78 81.33 62.77 81.31 62.76 81.29 62.74 81.28 62.73 81.25 62.7 81.24 62.7 81.2 62.67 81.2 62.66 81.19 62.65 81.2 62.65 81.2 62.64 81.23 62.61 81.27 62.57 81.27 62.56 81.29 62.54 81.3 62.52 81.31 62.52 81.31 62.52 81.32 62.53 81.36 62.56 81.37 62.56 81.4 62.6 81.41 62.6 81.45 62.63 81.45 62.64 81.46 62.64 81.47 62.63 81.48 62.62 81.5 62.59 81.51 62.58 81.53 62.55 81.54 62.55 81.54 62.54 81.54 62.53 81.54 62.52 81.53 62.52 81.52 62.51 81.51 62.5 81.5 62.49 81.46 62.46 81.44 62.44 81.43 62.43 81.4 62.4 81.39 62.4 81.36 62.37 81.35 62.36 81.33 62.34 81.32 62.33 81.29 62.31 81.28 62.3" fill="#fff"/><polygon points="81.8 62.07 81.79 62.07 81.79 62.07 81.77 62.09 81.76 62.1 81.75 62.11 81.72 62.15 81.72 62.16 81.68 62.19 81.66 62.22 81.65 62.23 81.62 62.26 81.62 62.27 81.61 62.27 81.61 62.27 81.6 62.26 81.59 62.25 81.58 62.24 81.57 62.23 81.56 62.22 81.56 62.22 81.56 62.21 81.57 62.21 81.57 62.2 81.59 62.18 81.6 62.17 81.63 62.13 81.67 62.09 81.67 62.08 81.7 62.06 81.71 62.05 81.71 62.04 81.71 62.03 81.71 62.03 81.7 62.02 81.69 62.01 81.67 62 81.66 61.98 81.65 61.98 81.64 61.97 81.63 61.97 81.63 61.96 81.62 61.97 81.61 61.97 81.6 61.99 81.55 62.05 81.51 62.1 81.49 62.12 81.48 62.13 81.47 62.14 81.47 62.14 81.46 62.14 81.46 62.13 81.45 62.13 81.44 62.12 81.42 62.1 81.42 62.1 81.42 62.1 81.42 62.09 81.42 62.08 81.42 62.08 81.43 62.07 81.45 62.05 81.48 62.02 81.49 62.01 81.51 61.98 81.52 61.98 81.56 61.93 81.57 61.92 81.57 61.91 81.58 61.91 81.58 61.9 81.57 61.9 81.57 61.89 81.56 61.88 81.55 61.88 81.54 61.86 81.53 61.86 81.52 61.84 81.5 61.83 81.49 61.83 81.49 61.82 81.48 61.83 81.47 61.83 81.46 61.84 81.45 61.86 81.44 61.87 81.38 61.95 81.37 61.95 81.35 61.99 81.34 62 81.31 62.03 81.3 62.04 81.27 62.07 81.24 62.1 81.24 62.11 81.23 62.12 81.23 62.12 81.24 62.13 81.24 62.13 81.27 62.16 81.28 62.16 81.29 62.18 81.31 62.19 81.31 62.2 81.34 62.22 81.35 62.23 81.38 62.26 81.43 62.29 81.45 62.32 81.46 62.33 81.49 62.35 81.5 62.36 81.53 62.38 81.54 62.39 81.57 62.42 81.57 62.42 81.58 62.43 81.59 62.44 81.6 62.45 81.61 62.45 81.62 62.45 81.62 62.45 81.63 62.45 81.65 62.43 81.68 62.38 81.69 62.37 81.72 62.34 81.75 62.31 81.75 62.3 81.78 62.27 81.78 62.26 81.81 62.23 81.82 62.22 81.88 62.15 81.88 62.15 81.87 62.14 81.87 62.14 81.84 62.11 81.83 62.1 81.8 62.08 81.8 62.07" fill="#fff"/><path d="M82.25,61.63h-.49l0,0,0,0,0,0h0v0h0l0,0h0l0,0h0l0,0,0,.05h0l0,0v0h0l0,0h0l0,0h0v0h0l0,0h0l0,0h0l0,0h0l0,0h0l0,0,0,0h0l0,0h0l.06,0h0l0,0,0,0h0ZM82,61.7h0l0,0,0,0h0l0,0h0l0,0h0l0,0h0l0,0Z" fill="#fff"/><path d="M82.48,61.06h-.32v0h0l0,0h0l0,0h0l0,0h0l0,0h0l0,0,0,0h0l0,0h0l0,0h0v0h0l0,0h0l0,0h0v0h0v0h0l0,0h0l0,0h0v0l0,0h0v0h0v0h0l0,0h0v0h0v0h0v0h0v0h0v0h-.06Zm-.1.11h.05v0h0v0h0l0,.06h0v0h0l0,0h-.09v0h.21Z" fill="#fff"/><path d="M79.13,63.7a3.23,3.23,0,0,1-.3-1,3.18,3.18,0,0,1,.06-1.15c0-.14.07-.25.09-.33l0-.08h0a3.56,3.56,0,0,1,1.39-.4,2.92,2.92,0,0,1,.94.07,3.43,3.43,0,0,1,.57.17L79.3,64C79.24,63.92,79.18,63.81,79.13,63.7Z" fill="#8ec6e7"/><path d="M82.74,61.5l.05-.07a4.59,4.59,0,0,1,.41.32h0l.11.09,0,0,0,0c0,.06,0,.12,0,.19a4.91,4.91,0,0,1-1,1.83A5.14,5.14,0,0,1,81,65c-.19.11-.35.19-.46.24l-.12.05h0l-.17-.14-.37-.34" fill="#4b8b40"/><path d="M79.13,63.7a3.23,3.23,0,0,1-.3-1,3.18,3.18,0,0,1,.06-1.15c0-.14.07-.25.09-.33l0-.08h0a3.56,3.56,0,0,1,1.39-.4,2.92,2.92,0,0,1,.94.07,3.43,3.43,0,0,1,.57.17l-.06.07a3.34,3.34,0,0,0-2.78.14A3.18,3.18,0,0,0,79.36,64L79.3,64C79.24,63.92,79.18,63.81,79.13,63.7Z" fill="#fff"/><path d="M81.47,63h0c.14,0,.28.05,0,.44,0,.05,0,.09,0,.1h.1a.58.58,0,0,1,.9.12,4.66,4.66,0,0,0,.8-1.69,4.32,4.32,0,0,0-.53-.41l.06-.07a4.26,4.26,0,0,1,.4.32h0a.53.53,0,0,1,.11.09l0,0v0a1.8,1.8,0,0,1,0,.19,4.91,4.91,0,0,1-1,1.83A5.14,5.14,0,0,1,81,65l-.45.24-.13.05h0l-.18-.14c-.13-.11-.25-.23-.36-.34l0-.07.49.46a5.13,5.13,0,0,0,1.33-.85c.16-.15.26-.73-.33-.64h-.16c-.1,0-.15-.13,0-.37.06-.08.28-.31.07-.27h0Z" fill="#fff"/><path d="M80,62.3v0h.14l0-.11.12-.06V62h0l-.05.08h-.07l-.07.13Z" fill="#fff"/><polygon points="79.73 62.45 79.76 62.45 79.76 62.6 79.56 62.69 79.53 63 79.36 63.01 79.35 62.99 79.49 62.94 79.53 62.67 79.72 62.57 79.73 62.45" fill="#fff"/><polygon points="80.37 61.63 80.37 61.66 80.52 61.61 80.55 61.44 80.78 61.36 80.78 61.22 80.76 61.22 80.61 61.35 80.5 61.39 80.47 61.49 80.37 61.63" fill="#fff"/><polygon points="79.35 62.99 79.16 62.43 79.74 62.45 79.74 62.45 79.74 62.45 79.73 62.58 79.54 62.68 79.51 62.97 79.35 62.99 79.35 62.99 79.35 62.99" fill="#d0d2d3"/><polygon points="80.76 61.22 80.74 61.35 80.52 61.4 80.47 61.59 80.37 61.64 80.37 61.64 80.37 61.64 80.24 61.18 80.76 61.22 80.76 61.22 80.76 61.22" fill="#d0d2d3"/><polygon points="79.97 62.31 79.97 62.31 79.95 62.03 80.27 62.04 80.27 62.04 80.27 62.04 80.26 62.14 80.15 62.19 80.1 62.3 79.97 62.31 79.97 62.31 79.97 62.31" fill="#d0d2d3"/><path d="M79.64,61.25a.25.25,0,0,0,0,.07v0h0a.11.11,0,0,0-.08,0l-.06,0a.15.15,0,0,0,0,.11v0h0l-.08,0-.06,0a.2.2,0,0,0,0,.13.14.14,0,0,0,.06.11l.06,0h0v0a.22.22,0,0,0,0,.08.21.21,0,0,0,0,.06.14.14,0,0,0,.11,0,.16.16,0,0,0,.1,0,0,0,0,0,0,0,0v0h.11l.08,0a.36.36,0,0,0,0-.09.15.15,0,0,0,0-.09v0h0a.1.1,0,0,0,.05,0,.09.09,0,0,0,0-.07s0,0,0-.06v0h0l0,0a.19.19,0,0,0,0-.28.18.18,0,0,0-.14,0A.16.16,0,0,0,79.64,61.25Z" fill="#009fdc"/><polygon points="80.78 61.22 80.78 61.22 80.78 61.22 80.78 61.22 80.75 61.36 80.53 61.42 80.48 61.61 80.37 61.66 80.48 62.04 80.29 62.04 80.29 62.04 80.27 62.15 80.16 62.21 80.11 62.31 79.99 62.33 79.98 62.33 79.99 62.47 79.75 62.45 79.75 62.59 79.56 62.69 79.53 62.99 79.36 63.01 79.36 63.01 79.59 63.7 81.65 61.29 80.78 61.22" fill="#644b78"/></g><path d="M69.55,53.59s.93-6.57-15.63-5l.19,5.37Z" fill="#79589f"/><path d="M35,58.12S24.81,79.19,24,86.27c-.24,2.06-.07,4.7,2.35,5.43s3.69-2.8,4-3.65,8.15-20.8,8.83-22.61,1.25-5.83.53-7.19S36,55.67,35,58.12Z" fill="#e2b68a"/><path d="M30.57,109.56s-.39-19.86-.71-21.75a4.06,4.06,0,0,0-2.94-3.61c-1.88-.68-2.83,1.13-3.11,2.41-1.67,7.6,1.47,19,1.28,22.78s-2.89,9.43-2.6,11.75,2.36,5.43,3.09,5.38,3.4-2.61,3.73-9.7c0,0,1.1,2.6,2.15,2S30.81,111.34,30.57,109.56Z" fill="#895d3b"/><path d="M43.31,185.6s-1.23-10.46-4.79-42.22c-.79-7,13.53-8.16,13.86.89C53.1,164.45,51,190.54,51,190.54S49.79,185.92,43.31,185.6Z" fill="url(#linear-gradient)"/><path d="M38.46,142.56c-1.07-16-1.11-27.81-.92-36.18.05-1.94,1.16-3.53,1.41-5.1.7-4.28,7.5-6.66,11.39-4.72,2.8,1.4,7.21,11.59,6.16,14.91-2.1,6.59-4.89,22.62-4.2,31.47.24,2.94-3.71,5.84-6,5.79C44.55,148.69,38.73,146.6,38.46,142.56Z" fill="#698293"/><path d="M68.26,185.6s1.23-10.46,4.79-42.22c.79-7-13.53-8.16-13.86.89-.72,20.18,1.1,46.12,1.1,46.12S61.78,185.92,68.26,185.6Z" fill="url(#linear-gradient-2)"/><path d="M73.11,142.56c1.12-16.89.91-28.67.68-37.11a9.31,9.31,0,0,0-1.05-4.57c-2.09-3.14-7.63-6.26-11.51-4.32C58.42,98,54,108.15,55.07,111.47c2.1,6.59,4.89,22.62,4.19,31.47-.23,2.94,3.72,5.84,6,5.79C67,148.69,72.84,146.6,73.11,142.56Z" fill="#698293"/><path d="M77,58.15s9.68,21.3,10.33,28.39c.19,2.07,0,4.71-2.48,5.38S81.22,89,80.9,88.18s-7.67-21-8.31-22.8-1.12-5.86-.36-7.21S76,55.68,77,58.15Z" fill="#e2b68a"/><path d="M64.87,52.31c-4.59-1.53-4.8-7.22-4.8-7.22l-8.64.33s-.22,5.69-4.81,7.22L55.8,80Z" fill="#805837"/><path d="M80.21,109.68S81.05,89.83,81.42,88a4.06,4.06,0,0,1,3-3.55c1.89-.64,2.79,1.19,3,2.48,1.5,7.64-1.91,19-1.81,22.75s2.68,9.49,2.34,11.8-2.48,5.38-3.22,5.31-3.33-2.68-3.5-9.79c0,0-1.16,2.58-2.19,2S79.93,111.45,80.21,109.68Z" fill="#895d3b"/><path d="M47.39,34.05s-1.93-2.39-3.91-.39,1.63,6.94,4,7.73S47.39,34.05,47.39,34.05Z" fill="#895d3b"/><path d="M64.59,33.8s1.83-2.41,3.9-.51-1.19,7.11-3.8,7.84C62.26,41.82,64.59,33.8,64.59,33.8Z" fill="#895d3b"/><path d="M38.55,101.4A214.87,214.87,0,0,0,73,101.28l.81,4.63L73.4,118s-19.78,5.36-35.68-.7c0,0-.78-7-.1-11.58A25.41,25.41,0,0,1,38.55,101.4Z" fill="#698293"/><path d="M29.12,190c-2.44.52-1.78,3.11-1.78,3.11.7.07,21.15,1.07,22.57.91s4.64.7,2.5-3.09c-2-3.53-5.62-6.81-9.62-5.42C37.21,187.39,30.32,189.71,29.12,190Z" fill="#603a19"/><path d="M27.34,193.07s23.32-.27,25.78-.36V194H27.34Z"/><path d="M82.68,190c2.44.52,1.77,3.11,1.77,3.11-.69.07-21.14,1.07-22.56.91s-4.64.7-2.5-3.09c2-3.53,5.62-6.81,9.62-5.42C74.59,187.39,81.48,189.71,82.68,190Z" fill="#603a19"/><path d="M84.45,193.07s-23.31-.27-25.77-.36V194H84.46Z"/><path d="M21.28,88c2.6-9.45,9.83-32.19,14.11-32.19,8.56,0,4.54,14.78,3.28,17.37S33.51,81.33,31,89C30.22,91.32,19,96.23,21.28,88Z" fill="#410099"/><path d="M90,88c-2.61-9.45-9.67-32.07-14-32.07-8.55,0-4.7,14.66-3.45,17.25S77.78,81.33,80.3,89C81.07,91.32,92.3,96.23,90,88Z" fill="#410099"/><path d="M74.83,111s-1.27-24.53-1-42.77c0-1.36.38-11.65.38-11.65-.78-2.44-5.47-3.17-8.19-4a11,11,0,0,1-3.51-1.58c-.52,4-3.59,5.64-6.65,5.77-3.46.14-6.61-1.58-6.87-5.61,0,0-1.32.54-4,1.42s-7.58,1.75-8.36,4.18c0,0,3.21,11.06,3,12.41-1.1,9-3.12,41.64-3.12,41.64s7.54,2.78,19.82,2.9C56.37,113.62,69.64,112.92,74.83,111Z" fill="#adadad"/><path d="M56,69a25.17,25.17,0,0,0-2.77-4.62c-3.47-5-6.87-7.69-6.43-12.24-.44-.86-11.72,2.94-12.84,4.41-1.58,2.08,2.13,11.53,3.2,13.1s-.68,28.4-.28,32.69c.53,5.62,13,7.49,17.36,6.93l3.28,0c4.25,0,16.56-.59,17.08-6.1.4-4.3-1-32,.1-33.56s4.27-11,2.7-13.1c-1.12-1.47-12.52-5.43-13-4.57-.39,3.94-4.21,7.22-6.92,13.6,0,0-.2.55-.45,1.12A11.25,11.25,0,0,0,56.51,69a6.81,6.81,0,0,1-.23.82C56.22,69.92,56,69.18,56,69Z" fill="#410099"/><path d="M56.29,71.25a11.81,11.81,0,0,1,.2-3.72C59.08,59.18,64.16,56.32,64,52c-.14-3.07,5.49-.86,8.37,2,.31.31-8,1.18-15,13.62a20.05,20.05,0,0,0-.68,2.82C56.54,70.9,56.33,72.51,56.29,71.25Z" fill="#79589f"/><path d="M20.91,89.72c-.56,2.18.35,13.52,1.11,20.71.28,2.64,8.19.5,9.44-1.13,0,0,.05-14.59-.37-19.36S22.22,84.58,20.91,89.72Z" fill="#410099"/><path d="M90.36,89.72c.56,2.18-.36,13.52-1.12,20.71-.28,2.64-8.19.5-9.44-1.13,0,0,0-14.59.37-19.36S89,84.58,90.36,89.72Z" fill="#410099"/><path d="M22.87,111.35s2.75-.08,8.28-2.88l.42,3.28a11.73,11.73,0,0,1-8,3.57C23.17,115.32,22.87,111.35,22.87,111.35Z" fill="#79589f"/><path d="M88.37,111.24s-2.75-.09-8.27-2.88l-.43,3.28a11.78,11.78,0,0,0,8,3.56C88.08,115.2,88.37,111.24,88.37,111.24Z" fill="#79589f"/><polygon points="55.82 70.09 55.73 106.26 56.8 106.26 56.77 70.11 55.82 70.09" fill="#fff"/><path d="M58,110.16c3.6-.28,6.17-.53,8.87-.89A30.38,30.38,0,0,0,74.68,107l-.11-4.72s-15.17,3.22-17.74,3.32l-.77,0c-.48,0-.69,0-.69,0l-1.09,0c-2.89-.12-17.43-3.3-17.43-3.3l.09,5.15a77.91,77.91,0,0,0,16.53,2.7s.9.06,2.35.06C55.82,110.23,57,110.23,58,110.16Z" fill="#79589f"/><g id="ferMqf"><path d="M56.34,74.41l-.16,0v0a1,1,0,0,1,.34,0v.12Z" fill="#a0a0a0"/><path d="M56.18,73a1,1,0,0,1,.34,0v.11h-.19l-.12,0s0,0,0,0Z" fill="#a0a0a0"/><path d="M56.52,71.16v.1h0a.72.72,0,0,1-.25,0H56.2s0,0,0,0,0,0,0,0a.85.85,0,0,1,.32,0Z" fill="#a0a0a0"/><path d="M56.52,72.72v.12a1,1,0,0,1-.34,0h0s0,0,0,0h0A1.14,1.14,0,0,1,56.52,72.72Z" fill="#a0a0a0"/><path d="M56.18,73.32h0s0,0,0,0l.1,0h.2v.12A.81.81,0,0,1,56.18,73.32Z" fill="#a0a0a0"/><path d="M56.18,71.76h0s0,0,0,0a.65.65,0,0,1,.28,0h0v.11A.79.79,0,0,1,56.18,71.76Z" fill="#a0a0a0"/><path d="M56.18,70.45v0l.07,0a1.14,1.14,0,0,1,.26,0h0v.11A1,1,0,0,1,56.18,70.45Z" fill="#a0a0a0"/><path d="M56.52,72.47v.1a.8.8,0,0,1-.34,0v0A1,1,0,0,1,56.52,72.47Z" fill="#a0a0a0"/><path d="M56.52,73.51v.1h0a.93.93,0,0,1-.33,0v0A1,1,0,0,1,56.52,73.51Z" fill="#a0a0a0"/><path d="M56.18,73.85h0s0,0,0,0h.1l.2,0v.12A1,1,0,0,1,56.18,73.85Z" fill="#a0a0a0"/><path d="M56.18,70.15a.79.79,0,0,1,.34,0v.11h0a1.23,1.23,0,0,1-.27,0h0s0,0,0,0Z" fill="#a0a0a0"/><path d="M56.52,72.32a2.46,2.46,0,0,1-.26,0H56.2s0,0,0,0a0,0,0,0,1,0,0l.15,0h.17Z" fill="#a0a0a0"/><path d="M56.18,72a1,1,0,0,1,.34,0v.12h-.19l-.12,0s0,0,0,0Z" fill="#a0a0a0"/><path d="M56.18,70.67a1,1,0,0,1,.34,0v.11a.65.65,0,0,1-.24,0h-.07a0,0,0,0,1,0,0Z" fill="#a0a0a0"/><path d="M56.35,71.89a1,1,0,0,1-.34,0v-.11h0a.84.84,0,0,1,.31,0S56.36,71.85,56.35,71.89Z" fill="#a0a0a0"/><path d="M56,71.14V71h0a.67.67,0,0,1,.28,0h0s0,0,0,0a0,0,0,0,1,0,0A1.23,1.23,0,0,1,56,71.14Z" fill="#a0a0a0"/><path d="M56.35,72.93A1,1,0,0,1,56,73v-.11a.79.79,0,0,1,.22,0l.1,0s0,0,0,0Z" fill="#a0a0a0"/><path d="M56.52,71.42v.11a1,1,0,0,1-.34,0v0h0a.93.93,0,0,1,.33,0Z" fill="#a0a0a0"/><path d="M56,71.66v-.11a.87.87,0,0,1,.23,0l.1,0s0,0,0,0,0,0,0,0A1.16,1.16,0,0,1,56,71.66Z" fill="#a0a0a0"/><path d="M56.35,73.45a.78.78,0,0,1-.34,0v-.12h.06a1.17,1.17,0,0,1,.27,0,0,0,0,0,1,0,0v0Z" fill="#a0a0a0"/><path d="M56.52,70.9V71a.81.81,0,0,1-.34,0h0s0,0,0,0A1,1,0,0,1,56.52,70.9Z" fill="#a0a0a0"/><path d="M56,70a.78.78,0,0,1,.34,0h0s0,0,0,0a.88.88,0,0,1-.28,0h0Z" fill="#a0a0a0"/><path d="M56,73.23v-.11h0a1.43,1.43,0,0,1,.29,0s0,0,0,0v0a1.66,1.66,0,0,1-.32,0Z" fill="#a0a0a0"/><path d="M56,72.7v-.11a1.27,1.27,0,0,1,.28,0h.05s0,0,0,0,0,0,0,0a1.12,1.12,0,0,1-.32,0Z" fill="#a0a0a0"/><path d="M56,74.15l.21,0,.11,0a0,0,0,0,1,0,0v0a1,1,0,0,1-.34,0Z" fill="#a0a0a0"/><path d="M56,72.44v-.11h.12a1.52,1.52,0,0,1,.21,0s0,0,0,0A1,1,0,0,1,56,72.44Z" fill="#a0a0a0"/><path d="M56,73.9a.89.89,0,0,1,.23,0l.1,0s0,0,0,0,0,0,0,0l-.16,0H56Z" fill="#a0a0a0"/><path d="M56,72.18v-.11h.22l.11,0a0,0,0,0,1,0,0s0,0,0,0a.91.91,0,0,1-.23,0Z" fill="#a0a0a0"/><path d="M56,70.5h.07a2.3,2.3,0,0,1,.26,0l0,0s0,0,0,0a1.6,1.6,0,0,1-.23,0H56Z" fill="#a0a0a0"/><path d="M56,73.75v-.11h.1a.61.61,0,0,1,.23,0s0,0,0,0,0,0,0,0A1.19,1.19,0,0,1,56,73.75Z" fill="#a0a0a0"/><path d="M56.52,74v.11a1,1,0,0,1-.34,0h0v0A.8.8,0,0,1,56.52,74Z" fill="#a0a0a0"/><path d="M56,71.4v-.12h.21l.1,0s0,0,0,0A.91.91,0,0,1,56,71.4Z" fill="#a0a0a0"/><path d="M56.35,70.28v0a1,1,0,0,1-.34,0v-.1A.78.78,0,0,1,56.35,70.28Z" fill="#a0a0a0"/><path d="M56,70.88v-.12h.21l.1,0s0,0,0,0A1,1,0,0,1,56,70.88Z" fill="#a0a0a0"/></g><g id="ferMqf-2" data-name="ferMqf"><path d="M56.35,80.46l-.16,0v0a1,1,0,0,1,.34,0v.12Z" fill="#a0a0a0"/><path d="M56.53,74.6v.11a1,1,0,0,1-.34,0v0A1,1,0,0,1,56.53,74.6Z" fill="#a0a0a0"/><path d="M56.19,79.07a1,1,0,0,1,.34,0v.11h-.19l-.12,0s0,0,0,0Z" fill="#a0a0a0"/><path d="M56.53,77.21a.33.33,0,0,1,0,.1h0a.71.71,0,0,1-.25,0l-.06,0s0,0,0,0,0,0,0,0a1.12,1.12,0,0,1,.32,0Z" fill="#a0a0a0"/><path d="M56.53,78.78v.11a1,1,0,0,1-.34,0h0s0,0,0,0h0A.76.76,0,0,1,56.53,78.78Z" fill="#a0a0a0"/><path d="M56.19,79.38h0s0,0,0-.05h.1l.2,0v.12A1,1,0,0,1,56.19,79.38Z" fill="#a0a0a0"/><path d="M56.53,75.12v.11a.81.81,0,0,1-.34,0v0A1,1,0,0,1,56.53,75.12Z" fill="#a0a0a0"/><path d="M56.19,77.81h0s0,0,0,0a1.27,1.27,0,0,1,.28,0h0v.11A.79.79,0,0,1,56.19,77.81Z" fill="#a0a0a0"/><path d="M56.19,76.5v0h.07a.58.58,0,0,1,.26,0h0v.1A.8.8,0,0,1,56.19,76.5Z" fill="#a0a0a0"/><path d="M56.53,78.52v.11a1,1,0,0,1-.34,0v0A1,1,0,0,1,56.53,78.52Z" fill="#a0a0a0"/><path d="M56.53,75.65v.11a1.14,1.14,0,0,1-.26,0h-.05a0,0,0,0,1,0,0v0A.79.79,0,0,1,56.53,75.65Z" fill="#a0a0a0"/><path d="M56.53,79.56v.1a0,0,0,0,1,0,0,.93.93,0,0,1-.33,0h0v0A.8.8,0,0,1,56.53,79.56Z" fill="#a0a0a0"/><path d="M56.19,79.9h0c0-.06,0,0,0-.05l.1,0h.2v.11A1,1,0,0,1,56.19,79.9Z" fill="#a0a0a0"/><path d="M56.19,76.2a1,1,0,0,1,.34,0v.11h0a1.23,1.23,0,0,1-.27,0h0s0,0,0,0Z" fill="#a0a0a0"/><path d="M56.53,78.37a1.18,1.18,0,0,1-.26,0h-.06s0,0,0,0l0,0,.15,0h.17Z" fill="#a0a0a0"/><path d="M56.19,78a1,1,0,0,1,.34,0v.11h-.19l-.12,0s0,0,0,0Z" fill="#a0a0a0"/><path d="M56.19,76.72a1.34,1.34,0,0,1,.34,0v.11a1,1,0,0,1-.24,0l-.07,0a0,0,0,0,1,0,0Z" fill="#a0a0a0"/><path d="M56.36,77.94A1,1,0,0,1,56,78v-.11h0a1.12,1.12,0,0,1,.31,0S56.37,77.9,56.36,77.94Z" fill="#a0a0a0"/><path d="M56,77.19v-.11h0a1.32,1.32,0,0,1,.28,0h0s0,0,0,0a0,0,0,0,1,0,0A.91.91,0,0,1,56,77.19Z" fill="#a0a0a0"/><path d="M56.36,79A.78.78,0,0,1,56,79V78.9h.22l.1,0s0,0,0,0Z" fill="#a0a0a0"/><path d="M56.53,77.47v.11a1,1,0,0,1-.34,0v0h0a1.23,1.23,0,0,1,.33,0Z" fill="#a0a0a0"/><path d="M56,77.71V77.6a.87.87,0,0,1,.23,0l.1,0s0,0,0,0,0,0,0,0A.89.89,0,0,1,56,77.71Z" fill="#a0a0a0"/><path d="M56.36,79.5a.78.78,0,0,1-.34,0v-.11h.06a.8.8,0,0,1,.27,0,0,0,0,0,1,0,0,0,0,0,0,1,0,0Z" fill="#a0a0a0"/><path d="M56.53,77v.11a1,1,0,0,1-.34,0h0s0,0,0-.06A1,1,0,0,1,56.53,77Z" fill="#a0a0a0"/><path d="M56,75.51h.2l.11,0s0,0,0,0a1,1,0,0,1-.34,0Z" fill="#a0a0a0"/><path d="M56,76a1,1,0,0,1,.34,0h0s0,0,0,.05a1.33,1.33,0,0,1-.28,0h0Z" fill="#a0a0a0"/><path d="M56,79.28h0v-.11h0a1,1,0,0,1,.29,0s0,0,0,0,0,0,0,0" fill="#a0a0a0"/><path d="M56,78.76v-.11a.87.87,0,0,1,.28,0l.05,0s0,0,0,0a0,0,0,0,1,0,0,1.12,1.12,0,0,1-.32,0Z" fill="#a0a0a0"/><path d="M56,80.21h.21l.11,0a0,0,0,0,1,0,0v0a1,1,0,0,1-.34,0Z" fill="#a0a0a0"/><path d="M56,74.84v-.11a1,1,0,0,1,.34,0s0,0,0,0a0,0,0,0,1,0,0A.91.91,0,0,1,56,74.84Z" fill="#a0a0a0"/><path d="M56,78.49v-.11h.12a1.52,1.52,0,0,1,.21,0s0,0,0,0A1,1,0,0,1,56,78.49Z" fill="#a0a0a0"/><path d="M56,80a.89.89,0,0,1,.23,0l.1,0s0,0,0,0,0,0,0,0a.76.76,0,0,1-.16,0H56a0,0,0,0,1,0,0Z" fill="#a0a0a0"/><path d="M56,78.24v-.12h.22l.11,0s0,0,0,0,0,0,0,0a.93.93,0,0,1-.23,0Z" fill="#a0a0a0"/><path d="M56,76.56h.07a.77.77,0,0,1,.26,0,0,0,0,0,1,0,0s0,0,0,0a1.6,1.6,0,0,1-.23,0H56Z" fill="#a0a0a0"/><path d="M56.19,75.94a1,1,0,0,1,.34,0V76a1,1,0,0,1-.34,0Z" fill="#a0a0a0"/><path d="M56.53,75.38v.11a1,1,0,0,1-.34,0v0A1,1,0,0,1,56.53,75.38Z" fill="#a0a0a0"/><path d="M56,75.36v-.11a1.27,1.27,0,0,1,.34,0h0s0,0,0,0h0A1.11,1.11,0,0,1,56,75.36Z" fill="#a0a0a0"/><path d="M56.53,74.86V75a1,1,0,0,1-.34,0v0A1,1,0,0,1,56.53,74.86Z" fill="#a0a0a0"/><path d="M56.36,75.07a1,1,0,0,1-.34,0V75h.11a.64.64,0,0,1,.2,0S56.37,75,56.36,75.07Z" fill="#a0a0a0"/><path d="M56,79.8v-.11h.1a.91.91,0,0,1,.23,0s0,0,0,0,0,0,0,0A.91.91,0,0,1,56,79.8Z" fill="#a0a0a0"/><path d="M56.53,80.08v.11a1,1,0,0,1-.34,0h0v0A1,1,0,0,1,56.53,80.08Z" fill="#a0a0a0"/><path d="M56,75.88v-.11a1.14,1.14,0,0,1,.26,0h.07s0,0,0,0,0,0,0,0a1.13,1.13,0,0,1-.32,0Z" fill="#a0a0a0"/><path d="M56,77.45v-.12l.21,0h.1s0,0,0,.06A1.2,1.2,0,0,1,56,77.45Z" fill="#a0a0a0"/><path d="M56.36,76.33v0a1,1,0,0,1-.34,0V76.3A.78.78,0,0,1,56.36,76.33Z" fill="#a0a0a0"/><path d="M56,76.93v-.12l.21,0h.1s0,0,0,0A.78.78,0,0,1,56,76.93Z" fill="#a0a0a0"/><path d="M56,74.58v-.11h.1a.61.61,0,0,1,.23,0s0,0,0,0,0,0,0,0a1.38,1.38,0,0,1-.2,0Z" fill="#a0a0a0"/></g><g id="ferMqf-3" data-name="ferMqf"><path d="M56.34,86.52l-.16,0v0a.79.79,0,0,1,.34,0v.11Z" fill="#a0a0a0"/><path d="M56.52,80.66v.11a1,1,0,0,1-.34,0v0A1,1,0,0,1,56.52,80.66Z" fill="#a0a0a0"/><path d="M56.18,85.14a.8.8,0,0,1,.34,0v.12h-.19l-.12,0s0,0,0,0Z" fill="#a0a0a0"/><path d="M56.52,83.28v.09s0,0,0,0a1.1,1.1,0,0,1-.25,0H56.2l0,0s0,0,0,0a1.12,1.12,0,0,1,.32,0Z" fill="#a0a0a0"/><path d="M56.52,84.84V85a1,1,0,0,1-.34,0h0s0,0,0,0h0A.76.76,0,0,1,56.52,84.84Z" fill="#a0a0a0"/><path d="M56.18,85.44h0s0,0,0,0l.1,0h.2v.11A1,1,0,0,1,56.18,85.44Z" fill="#a0a0a0"/><path d="M56.52,81.19v.11a1,1,0,0,1-.34,0v0A.8.8,0,0,1,56.52,81.19Z" fill="#a0a0a0"/><path d="M56.18,83.87h0c0-.05,0,0,0-.05a1.27,1.27,0,0,1,.28,0h0v.12A1,1,0,0,1,56.18,83.87Z" fill="#a0a0a0"/><path d="M56.18,82.57v0h.07a1.14,1.14,0,0,1,.26,0h0v.1A1,1,0,0,1,56.18,82.57Z" fill="#a0a0a0"/><path d="M56.52,84.58v.11a1,1,0,0,1-.34,0v0A1,1,0,0,1,56.52,84.58Z" fill="#a0a0a0"/><path d="M56.52,81.71v.11a1.14,1.14,0,0,1-.26,0h0a0,0,0,0,1,0,0v0A1,1,0,0,1,56.52,81.71Z" fill="#a0a0a0"/><path d="M56.52,85.62v.1a0,0,0,0,1,0,0,1.24,1.24,0,0,1-.33,0h0v0A1,1,0,0,1,56.52,85.62Z" fill="#a0a0a0"/><path d="M56.18,86h0c0-.06,0,0,0,0l.1,0h.2V86A1,1,0,0,1,56.18,86Z" fill="#a0a0a0"/><path d="M56.18,82.26a1,1,0,0,1,.34,0v.11h0a.82.82,0,0,1-.27,0h0s0,0,0,0Z" fill="#a0a0a0"/><path d="M56.52,84.43a.78.78,0,0,1-.26,0H56.2s0,0,0,0,0,0,0,0l.15,0h.17Z" fill="#a0a0a0"/><path d="M56.18,84.09a1,1,0,0,1,.34,0v.11h-.19l-.12,0a0,0,0,0,1,0,0Z" fill="#a0a0a0"/><path d="M56.18,82.78a1.34,1.34,0,0,1,.34,0v.11a1,1,0,0,1-.24,0h-.07s0,0,0,0Z" fill="#a0a0a0"/><path d="M56.35,84A1,1,0,0,1,56,84v-.11h0l.31,0S56.36,84,56.35,84Z" fill="#a0a0a0"/><path d="M56,83.25v-.11h0a1.32,1.32,0,0,1,.28,0h0a0,0,0,0,1,0,0s0,0,0,0A.91.91,0,0,1,56,83.25Z" fill="#a0a0a0"/><path d="M56.35,85a.78.78,0,0,1-.34,0V85a.79.79,0,0,1,.22,0h.1s0,0,0,0Z" fill="#a0a0a0"/><path d="M56.52,83.54v.1a.8.8,0,0,1-.34,0v0a0,0,0,0,1,0,0,1.24,1.24,0,0,1,.33,0Z" fill="#a0a0a0"/><path d="M56,83.77v-.11a.87.87,0,0,1,.23,0l.1,0s0,0,0,0,0,0,0,0A.89.89,0,0,1,56,83.77Z" fill="#a0a0a0"/><path d="M56.35,85.57a1,1,0,0,1-.34,0v-.11h.06a.8.8,0,0,1,.27,0s0,0,0,0,0,0,0,0Z" fill="#a0a0a0"/><path d="M56.52,83v.11a1,1,0,0,1-.34,0h0s0,0,0,0A.77.77,0,0,1,56.52,83Z" fill="#a0a0a0"/><path d="M56,81.57h.2l.11,0s0,0,0,.05a.78.78,0,0,1-.34,0Z" fill="#a0a0a0"/><path d="M56,82.1a1,1,0,0,1,.34,0h0s0,0,0,0a1.33,1.33,0,0,1-.28,0h0Z" fill="#a0a0a0"/><path d="M56,85.34v-.11h0a.72.72,0,0,1,.29,0s0,0,0,0,0,0,0,0a.85.85,0,0,1-.32,0Z" fill="#a0a0a0"/><path d="M56,84.82v-.11a.86.86,0,0,1,.28,0h.05s0,0,0,0,0,0,0,0a1.12,1.12,0,0,1-.32,0Z" fill="#a0a0a0"/><path d="M56,86.27h.21l.11,0a0,0,0,0,1,0,0v0a.78.78,0,0,1-.34,0Z" fill="#a0a0a0"/><path d="M56,80.9v-.11a1,1,0,0,1,.34,0s0,0,0,0a0,0,0,0,1,0,0A.91.91,0,0,1,56,80.9Z" fill="#a0a0a0"/><path d="M56,84.56v-.12h.12a.78.78,0,0,1,.21,0s0,0,0,0A1,1,0,0,1,56,84.56Z" fill="#a0a0a0"/><path d="M56,86a.89.89,0,0,1,.23,0l.1,0s0,0,0,0,0,0,0,0a.76.76,0,0,1-.16,0H56Z" fill="#a0a0a0"/><path d="M56,84.3v-.11h.22l.11,0s0,0,0,0,0,0,0,0a1.81,1.81,0,0,1-.23,0Z" fill="#a0a0a0"/><path d="M56,82.62h.07a.77.77,0,0,1,.26,0,0,0,0,0,1,0,0s0,0,0,0a.85.85,0,0,1-.23,0H56Z" fill="#a0a0a0"/><path d="M56.18,82a1,1,0,0,1,.34,0v.11a.81.81,0,0,1-.34,0Z" fill="#a0a0a0"/><path d="M56.52,81.45v.11a1,1,0,0,1-.34,0v0A1,1,0,0,1,56.52,81.45Z" fill="#a0a0a0"/><path d="M56,81.43v-.12a1,1,0,0,1,.34,0h0s0,0,0,.05h0A2.11,2.11,0,0,1,56,81.43Z" fill="#a0a0a0"/><path d="M56.52,80.92V81a1,1,0,0,1-.34,0v0A1,1,0,0,1,56.52,80.92Z" fill="#a0a0a0"/><path d="M56.35,81.13a1,1,0,0,1-.34,0v-.11h.11a.64.64,0,0,1,.2,0S56.36,81.09,56.35,81.13Z" fill="#a0a0a0"/><path d="M56,85.86v-.11h.1a1.81,1.81,0,0,1,.23,0s0,0,0,0,0,0,0,0A.91.91,0,0,1,56,85.86Z" fill="#a0a0a0"/><path d="M56.52,86.15v.1a.79.79,0,0,1-.34,0h0v0A1,1,0,0,1,56.52,86.15Z" fill="#a0a0a0"/><path d="M56,81.94v-.11a2.28,2.28,0,0,1,.26,0l.07,0s0,0,0,0a0,0,0,0,1,0,0A1.66,1.66,0,0,1,56,82Z" fill="#a0a0a0"/><path d="M56,83.51V83.4h.21l.1,0s0,0,0,0A1.2,1.2,0,0,1,56,83.51Z" fill="#a0a0a0"/><path d="M56.35,82.39v0a1,1,0,0,1-.34,0v-.11A1,1,0,0,1,56.35,82.39Z" fill="#a0a0a0"/><path d="M56,83v-.12l.21,0h.1s0,0,0,.06A1,1,0,0,1,56,83Z" fill="#a0a0a0"/><path d="M56,80.64v-.11h.1a.91.91,0,0,1,.23,0s0,0,0,0,0,0,0,0a1.33,1.33,0,0,1-.21,0Z" fill="#a0a0a0"/></g><g id="ferMqf-4" data-name="ferMqf"><path d="M56.54,86.72v.11a1,1,0,0,1-.34,0v0A.78.78,0,0,1,56.54,86.72Z" fill="#a0a0a0"/><path d="M56.54,89.33v.1h0a1,1,0,0,1-.25,0h-.07s0,0,0,0,0,0,0,0a1.22,1.22,0,0,1,.33,0Z" fill="#a0a0a0"/><path d="M56.54,87.24v.11a1,1,0,0,1-.34,0v0A1,1,0,0,1,56.54,87.24Z" fill="#a0a0a0"/><path d="M56.2,88.62v0l.07,0a1.1,1.1,0,0,1,.26,0h0v.1A1,1,0,0,1,56.2,88.62Z" fill="#a0a0a0"/><path d="M56.54,87.76v.11a.74.74,0,0,1-.26,0h-.05s0,0,0,0v0A1,1,0,0,1,56.54,87.76Z" fill="#a0a0a0"/><path d="M56.2,88.32a.78.78,0,0,1,.34,0v.11h0a.58.58,0,0,1-.26,0h-.05s0,0,0,0Z" fill="#a0a0a0"/><path d="M56.2,88.84a1,1,0,0,1,.34,0v.12a1,1,0,0,1-.25,0h-.06s0,0,0,0Z" fill="#a0a0a0"/><path d="M56,89.3v-.11h0a.83.83,0,0,1,.27,0h0s0,0,0,0,0,0,0,0A1.22,1.22,0,0,1,56,89.3Z" fill="#a0a0a0"/><path d="M56,89.58v-.11h0a.67.67,0,0,1,.28,0h0s0,0,0,0a0,0,0,0,1,0,0A1.23,1.23,0,0,1,56,89.58Z" fill="#a0a0a0"/><path d="M56.54,89.07v.1a1,1,0,0,1-.34,0h0s0,0,0,0A1.06,1.06,0,0,1,56.54,89.07Z" fill="#a0a0a0"/><path d="M56,87.62h.19l.11,0s0,0,0,0a1,1,0,0,1-.34,0Z" fill="#a0a0a0"/><path d="M56,88.15a1,1,0,0,1,.34,0h0s0,0,0,0a.72.72,0,0,1-.29,0h0Z" fill="#a0a0a0"/><path d="M56,87v-.11a1,1,0,0,1,.34,0v0a0,0,0,0,1,0,0A.74.74,0,0,1,56,87Z" fill="#a0a0a0"/><path d="M56,88.67h.06a1.09,1.09,0,0,1,.26,0s0,0,0,0,0,0,0,0a.78.78,0,0,1-.22,0h-.08s0,0,0,0Z" fill="#a0a0a0"/><path d="M56.2,88.05a1,1,0,0,1,.34,0v.11a1,1,0,0,1-.34,0Z" fill="#a0a0a0"/><path d="M56.54,87.5v.11a.78.78,0,0,1-.34,0v0A1,1,0,0,1,56.54,87.5Z" fill="#a0a0a0"/><path d="M56,87.48v-.11a1,1,0,0,1,.34,0h0s0,0,0,0h0A1.14,1.14,0,0,1,56,87.48Z" fill="#a0a0a0"/><path d="M56.54,87v.1a.78.78,0,0,1-.34,0v0A1,1,0,0,1,56.54,87Z" fill="#a0a0a0"/><path d="M56.37,87.18a1,1,0,0,1-.34,0V87.1h.1a1.52,1.52,0,0,1,.21,0S56.38,87.14,56.37,87.18Z" fill="#a0a0a0"/><path d="M56,88v-.11a1,1,0,0,1,.25,0l.08,0s0,0,0,0,0,0,0,0A1.19,1.19,0,0,1,56,88Z" fill="#a0a0a0"/><path d="M56.37,88.44v0a.78.78,0,0,1-.34,0v-.11A1,1,0,0,1,56.37,88.44Z" fill="#a0a0a0"/><path d="M56,89v-.11h.21l.09,0s0,0,0,.05A1,1,0,0,1,56,89Z" fill="#a0a0a0"/><path d="M56,86.69v-.11h.09a2,2,0,0,1,.24,0s0,0,0,0,0,0,0,0a.51.51,0,0,1-.21,0Z" fill="#a0a0a0"/></g><g id="ferMqf-5" data-name="ferMqf"><path d="M56,89.72v.11a1,1,0,0,0,.35,0v0A.83.83,0,0,0,56,89.72Z" fill="#a0a0a0"/><path d="M56,90.24v.11a1,1,0,0,0,.34,0v0A1,1,0,0,0,56,90.24Z" fill="#a0a0a0"/><path d="M56.38,91.62v0l-.08,0a1.06,1.06,0,0,0-.25,0h0v.1A1,1,0,0,0,56.38,91.62Z" fill="#a0a0a0"/><path d="M56,90.76v.11a.78.78,0,0,0,.26,0h.05a0,0,0,0,0,0,0v0A1,1,0,0,0,56,90.76Z" fill="#a0a0a0"/><path d="M56.38,91.32a.84.84,0,0,0-.35,0v.11h0a.57.57,0,0,0,.26,0h.05s0,0,0,0Z" fill="#a0a0a0"/><path d="M56.54,90.62h-.19l-.11,0s0,0,0,0a1,1,0,0,0,.34,0Z" fill="#a0a0a0"/><path d="M56.55,91.15a1,1,0,0,0-.35,0h0s0,0,0,0a.88.88,0,0,0,.28,0h0Z" fill="#a0a0a0"/><path d="M56.55,90v-.1a.83.83,0,0,0-.35,0v0h0A.72.72,0,0,0,56.55,90Z" fill="#a0a0a0"/><path d="M56.37,91.05A.93.93,0,0,0,56,91v.11a1,1,0,0,0,.33,0Z" fill="#a0a0a0"/><path d="M56,90.5v.11a.78.78,0,0,0,.34,0v0A1,1,0,0,0,56,90.5Z" fill="#a0a0a0"/><path d="M56.55,90.48v-.11a1,1,0,0,0-.34,0h0s0,0,0,0h0A1.1,1.1,0,0,0,56.55,90.48Z" fill="#a0a0a0"/><path d="M56,90v.11a1,1,0,0,0,.35,0v0A1,1,0,0,0,56,90Z" fill="#a0a0a0"/><path d="M56.21,90.18a1,1,0,0,0,.34,0V90.1h-.11a1.52,1.52,0,0,0-.21,0S56.2,90.14,56.21,90.18Z" fill="#a0a0a0"/><path d="M56.55,91v-.11a1.13,1.13,0,0,0-.26,0l-.07,0s0,0,0,0,0,0,0,0a1.12,1.12,0,0,0,.32,0Z" fill="#a0a0a0"/><path d="M56.2,91.44v0a1,1,0,0,0,.34,0v-.11A1.34,1.34,0,0,0,56.2,91.44Z" fill="#a0a0a0"/><path d="M56.55,89.69v-.11h-.1a1.6,1.6,0,0,0-.23,0l0,0s0,0,0,0a.46.46,0,0,0,.2,0Z" fill="#a0a0a0"/></g><path d="M56,70.77s.33-.07.34-.48A9.24,9.24,0,0,0,56,68.11a9,9,0,0,0-.87-1.74c-4.87-7.58-7.8-9.54-7.77-14.34,0-3.08-5.49-.86-8.38,2-.3.3,9,3,15.72,13A10.91,10.91,0,0,1,56,70.77Z" fill="#79589f"/><path d="M45.59,90.67,56.25,91s5.49,0,10.36-.47a68.62,68.62,0,0,0,5,9.12S66,101.16,56.25,101.1c-8.8-.06-10.6-.87-15.22-1.78A45.12,45.12,0,0,0,45.59,90.67Z" fill="#79589f"/><g clip-path="url(#clip-path-2)"><g opacity="0.2"><g id="ferMqf-6" data-name="ferMqf"><path d="M56.34,92.88l-.16,0v0a1,1,0,0,1,.34,0v.12Z" fill="#fff"/><path d="M56.18,91.49a1,1,0,0,1,.34,0v.11h-.19l-.12,0s0,0,0,0Z" fill="#fff"/><path d="M56.52,89.63v.1h0a1.07,1.07,0,0,1-.25,0l-.06,0s0,0,0,0,0,0,0,0a1.12,1.12,0,0,1,.32,0Z" fill="#fff"/><path d="M56.52,91.19v.12a1,1,0,0,1-.34,0h0s0,0,0,0h0A1.14,1.14,0,0,1,56.52,91.19Z" fill="#fff"/><path d="M56.18,91.79h0s0,0,0-.05h.1l.2,0v.12A.81.81,0,0,1,56.18,91.79Z" fill="#fff"/><path d="M56.18,90.23h0s0,0,0,0a1.27,1.27,0,0,1,.28,0h0v.11A.79.79,0,0,1,56.18,90.23Z" fill="#fff"/><path d="M56.18,88.92v0h.07a.58.58,0,0,1,.26,0,0,0,0,0,1,0,0V89A1,1,0,0,1,56.18,88.92Z" fill="#fff"/><path d="M56.52,90.94v.11a1,1,0,0,1-.34,0v0A1,1,0,0,1,56.52,90.94Z" fill="#fff"/><path d="M56.52,92v.1a0,0,0,0,1,0,0,.93.93,0,0,1-.33,0h0v0A.8.8,0,0,1,56.52,92Z" fill="#fff"/><path d="M56.18,92.32h0c0-.06,0,0,0,0l.1,0,.2,0v.12A1,1,0,0,1,56.18,92.32Z" fill="#fff"/><path d="M56.18,88.62a1,1,0,0,1,.34,0v.11h0a1.23,1.23,0,0,1-.27,0h0s0,0,0,0Z" fill="#fff"/><path d="M56.52,90.79a1.18,1.18,0,0,1-.26,0H56.2s0,0,0,0a0,0,0,0,1,0,0l.15,0h.17Z" fill="#fff"/><path d="M56.18,90.45a1,1,0,0,1,.34,0v.12h-.19l-.12,0s0,0,0,0Z" fill="#fff"/><path d="M56.18,89.14a1.34,1.34,0,0,1,.34,0v.11a1,1,0,0,1-.24,0l-.07,0a0,0,0,0,1,0,0Z" fill="#fff"/><path d="M56.35,90.36a1,1,0,0,1-.34,0v-.11h0a1.12,1.12,0,0,1,.31,0S56.36,90.32,56.35,90.36Z" fill="#fff"/><path d="M56,89.61V89.5h0a.88.88,0,0,1,.28,0h0s0,0,0,0a0,0,0,0,1,0,0A.91.91,0,0,1,56,89.61Z" fill="#fff"/><path d="M56.35,91.4a.78.78,0,0,1-.34,0v-.12h.22l.1,0s0,0,0,0Z" fill="#fff"/><path d="M56.52,89.89V90a1,1,0,0,1-.34,0v0h0a1.23,1.23,0,0,1,.33,0Z" fill="#fff"/><path d="M56,90.13V90a.87.87,0,0,1,.23,0l.1,0s0,0,0,0,0,0,0,0A.89.89,0,0,1,56,90.13Z" fill="#fff"/><path d="M56.35,91.92A.78.78,0,0,1,56,92v-.11h.06a.8.8,0,0,1,.27,0,0,0,0,0,1,0,0v0Z" fill="#fff"/><path d="M56.52,89.37v.11a1,1,0,0,1-.34,0h0s0,0,0,0A1,1,0,0,1,56.52,89.37Z" fill="#fff"/><path d="M56,88.45a1,1,0,0,1,.34,0h0s0,0,0,.05a1.33,1.33,0,0,1-.28,0h0Z" fill="#fff"/><path d="M56,91.7v-.11h0a1,1,0,0,1,.29,0s0,0,0,0,0,0,0,0a1.12,1.12,0,0,1-.32,0Z" fill="#fff"/><path d="M56,91.17v-.11a1.27,1.27,0,0,1,.28,0l.05,0s0,0,0,0,0,0,0,0a1.12,1.12,0,0,1-.32,0Z" fill="#fff"/><path d="M56,92.63h.21l.11,0a0,0,0,0,1,0,0v0a1,1,0,0,1-.34,0Z" fill="#fff"/><path d="M56,90.91V90.8h.12a1.52,1.52,0,0,1,.21,0s0,0,0,0A1,1,0,0,1,56,90.91Z" fill="#fff"/><path d="M56,92.37a.89.89,0,0,1,.23,0l.1,0s0,0,0,0,0,0,0,0l-.16,0H56a0,0,0,0,1,0,0Z" fill="#fff"/><path d="M56,90.66v-.12h.22l.11,0s0,0,0,0,0,0,0,0a1.85,1.85,0,0,1-.23,0Z" fill="#fff"/><path d="M56,89s.05,0,.07,0a1.17,1.17,0,0,1,.26,0s0,0,0,0,0,0,0,0a1.6,1.6,0,0,1-.23,0H56Z" fill="#fff"/><path d="M56,92.22v-.11h.1a.91.91,0,0,1,.23,0s0,0,0,0,0,0,0,0A1.19,1.19,0,0,1,56,92.22Z" fill="#fff"/><path d="M56.52,92.5v.11a1,1,0,0,1-.34,0h0v0A1,1,0,0,1,56.52,92.5Z" fill="#fff"/><path d="M56,89.87v-.12l.21,0h.1s0,0,0,0A.91.91,0,0,1,56,89.87Z" fill="#fff"/><path d="M56.35,88.75v0a.78.78,0,0,1-.34,0v-.1A.78.78,0,0,1,56.35,88.75Z" fill="#fff"/><path d="M56,89.35v-.12h.21l.1,0s0,0,0,0A.78.78,0,0,1,56,89.35Z" fill="#fff"/></g><g id="ferMqf-7" data-name="ferMqf"><path d="M56.35,98.93l-.16,0v0a.79.79,0,0,1,.34,0v.11Z" fill="#fff"/><path d="M56.53,93.07v.11a1,1,0,0,1-.34,0v0A1,1,0,0,1,56.53,93.07Z" fill="#fff"/><path d="M56.19,97.55a.8.8,0,0,1,.34,0v.12h-.19l-.12,0s0,0,0,0Z" fill="#fff"/><path d="M56.53,95.68a.33.33,0,0,1,0,.1s0,0,0,0a1.1,1.1,0,0,1-.25,0h-.06s0,0,0,0,0,0,0,0a1.12,1.12,0,0,1,.32,0Z" fill="#fff"/><path d="M56.53,97.25v.11a1,1,0,0,1-.34,0h0s0,0,0,0h0A.76.76,0,0,1,56.53,97.25Z" fill="#fff"/><path d="M56.19,97.85h0s0,0,0,0l.1,0,.2,0v.12A1,1,0,0,1,56.19,97.85Z" fill="#fff"/><path d="M56.53,93.59v.12a1,1,0,0,1-.34,0v0A1,1,0,0,1,56.53,93.59Z" fill="#fff"/><path d="M56.19,96.28h0s0,0,0,0a1.27,1.27,0,0,1,.28,0h0v.12A1,1,0,0,1,56.19,96.28Z" fill="#fff"/><path d="M56.19,95v0h.07a1.14,1.14,0,0,1,.26,0h0V95A.8.8,0,0,1,56.19,95Z" fill="#fff"/><path d="M56.53,97v.11a.81.81,0,0,1-.34,0v0A1,1,0,0,1,56.53,97Z" fill="#fff"/><path d="M56.53,94.12v.11a1.14,1.14,0,0,1-.26,0h-.05a0,0,0,0,1,0,0v0A.79.79,0,0,1,56.53,94.12Z" fill="#fff"/><path d="M56.53,98v.1a0,0,0,0,1,0,0,.93.93,0,0,1-.33,0h0v0A1,1,0,0,1,56.53,98Z" fill="#fff"/><path d="M56.19,98.37h0c0-.06,0,0,0-.05l.1,0h.2v.11A1,1,0,0,1,56.19,98.37Z" fill="#fff"/><path d="M56.19,94.67a1,1,0,0,1,.34,0v.11h0a.82.82,0,0,1-.27,0h0s0,0,0,0Z" fill="#fff"/><path d="M56.53,96.84a.78.78,0,0,1-.26,0h-.06s0,0,0,0,0,0,0,0l.15,0h.17Z" fill="#fff"/><path d="M56.19,96.5a1,1,0,0,1,.34,0v.11h-.19l-.12,0a0,0,0,0,1,0,0Z" fill="#fff"/><path d="M56.19,95.19a1.34,1.34,0,0,1,.34,0v.11a1,1,0,0,1-.24,0h-.07s0,0,0,0Z" fill="#fff"/><path d="M56.36,96.41a1,1,0,0,1-.34,0v-.11h0l.31,0S56.37,96.37,56.36,96.41Z" fill="#fff"/><path d="M56,95.66v-.11h0a1.32,1.32,0,0,1,.28,0h0a0,0,0,0,1,0,0s0,0,0,0A.91.91,0,0,1,56,95.66Z" fill="#fff"/><path d="M56.36,97.45a.78.78,0,0,1-.34,0v-.11h.22l.1,0s0,0,0,0Z" fill="#fff"/><path d="M56.53,96v.1a1,1,0,0,1-.34,0v0s0,0,0,0a1.84,1.84,0,0,1,.33,0Z" fill="#fff"/><path d="M56,96.18v-.11a.87.87,0,0,1,.23,0l.1,0s0,0,0,0,0,0,0,0A.89.89,0,0,1,56,96.18Z" fill="#fff"/><path d="M56.36,98A1,1,0,0,1,56,98V97.9h.06a.8.8,0,0,1,.27,0s0,0,0,0,0,0,0,0Z" fill="#fff"/><path d="M56.53,95.42v.11a1,1,0,0,1-.34,0h0s0,0,0,0A.77.77,0,0,1,56.53,95.42Z" fill="#fff"/><path d="M56,94h.2l.11,0s0,0,0,0a1,1,0,0,1-.34,0Z" fill="#fff"/><path d="M56,94.51a1,1,0,0,1,.34,0h0s0,0,0,0a1.33,1.33,0,0,1-.28,0h0Z" fill="#fff"/><path d="M56,97.75h0v-.11h0a.72.72,0,0,1,.29,0s0,0,0,0,0,0,0,0" fill="#fff"/><path d="M56,97.23v-.11a.86.86,0,0,1,.28,0h.05s0,0,0,0,0,0,0,0a1.12,1.12,0,0,1-.32,0Z" fill="#fff"/><path d="M56,98.68h.21l.11,0a0,0,0,0,1,0,0v0a1,1,0,0,1-.34,0Z" fill="#fff"/><path d="M56,93.31V93.2a1,1,0,0,1,.34,0s0,0,0,0a0,0,0,0,1,0,0A.91.91,0,0,1,56,93.31Z" fill="#fff"/><path d="M56,97v-.12h.12a1.52,1.52,0,0,1,.21,0s0,0,0,.05A1,1,0,0,1,56,97Z" fill="#fff"/><path d="M56,98.42a.89.89,0,0,1,.23,0l.1,0s0,0,0,0,0,0,0,0a.76.76,0,0,1-.16,0,.85.85,0,0,1-.16,0,0,0,0,0,1,0,0Z" fill="#fff"/><path d="M56,96.71V96.6h.22l.11,0s0,0,0,0,0,0,0,0a1.81,1.81,0,0,1-.23,0Z" fill="#fff"/><path d="M56,95h.07a.77.77,0,0,1,.26,0,0,0,0,0,1,0,0s0,0,0,0a.85.85,0,0,1-.23,0H56Z" fill="#fff"/><path d="M56.19,94.41a1,1,0,0,1,.34,0v.11a1,1,0,0,1-.34,0Z" fill="#fff"/><path d="M56.53,93.86V94a.8.8,0,0,1-.34,0v0A1,1,0,0,1,56.53,93.86Z" fill="#fff"/><path d="M56,93.83v-.11a1,1,0,0,1,.34,0h0s0,0,0,0h0A1.11,1.11,0,0,1,56,93.83Z" fill="#fff"/><path d="M56.53,93.33v.11a1,1,0,0,1-.34,0v0A1,1,0,0,1,56.53,93.33Z" fill="#fff"/><path d="M56.36,93.54a1,1,0,0,1-.34,0v-.11h.11a.64.64,0,0,1,.2,0S56.37,93.5,56.36,93.54Z" fill="#fff"/><path d="M56,98.27v-.11h.1a.91.91,0,0,1,.23,0s0,0,0,0,0,0,0,0A.91.91,0,0,1,56,98.27Z" fill="#fff"/><path d="M56.53,98.56v.1a.79.79,0,0,1-.34,0h0v0A1,1,0,0,1,56.53,98.56Z" fill="#fff"/><path d="M56,94.35v-.11a1.14,1.14,0,0,1,.26,0h.07s0,0,0,0l0,0a1.66,1.66,0,0,1-.32,0Z" fill="#fff"/><path d="M56,95.92v-.11h.21l.1,0s0,0,0,0A1.2,1.2,0,0,1,56,95.92Z" fill="#fff"/><path d="M56.36,94.8v0a1,1,0,0,1-.34,0v-.11A1,1,0,0,1,56.36,94.8Z" fill="#fff"/><path d="M56,95.4v-.12l.21,0h.1s0,0,0,0A.78.78,0,0,1,56,95.4Z" fill="#fff"/><path d="M56,93.05v-.11h.1a.61.61,0,0,1,.23,0s0,0,0,0,0,0,0,0a1.38,1.38,0,0,1-.2,0Z" fill="#fff"/></g><g id="ferMqf-8" data-name="ferMqf"><path d="M56.34,105l-.16,0v0a.79.79,0,0,1,.34,0V105Z" fill="#fff"/><path d="M56.52,99.13v.12a1,1,0,0,1-.34,0v0A1,1,0,0,1,56.52,99.13Z" fill="#fff"/><path d="M56.18,103.61a1,1,0,0,1,.34,0v.12h-.19l-.12,0s0,0,0,0Z" fill="#fff"/><path d="M56.52,101.75v.09s0,0,0,0a1.1,1.1,0,0,1-.25,0H56.2s0,0,0,0,0,0,0,0a1.66,1.66,0,0,1,.32,0Z" fill="#fff"/><path d="M56.52,103.31v.11a1,1,0,0,1-.34,0h0s0,0,0,0h0A.76.76,0,0,1,56.52,103.31Z" fill="#fff"/><path d="M56.18,103.91h0s0,0,0,0l.1,0h.2v.11A1,1,0,0,1,56.18,103.91Z" fill="#fff"/><path d="M56.52,99.66v.11a1,1,0,0,1-.34,0v0A.8.8,0,0,1,56.52,99.66Z" fill="#fff"/><path d="M56.18,102.34h0s0,0,0,0a.86.86,0,0,1,.28,0h0v.11A1,1,0,0,1,56.18,102.34Z" fill="#fff"/><path d="M56.18,101V101h.07a1.14,1.14,0,0,1,.26,0h0v.1A1,1,0,0,1,56.18,101Z" fill="#fff"/><path d="M56.52,103.05v.11a1,1,0,0,1-.34,0v0A1,1,0,0,1,56.52,103.05Z" fill="#fff"/><path d="M56.52,100.18v.11a.76.76,0,0,1-.26,0h0a0,0,0,0,1,0,0v0A1,1,0,0,1,56.52,100.18Z" fill="#fff"/><path d="M56.52,104.1v.1h0a1.24,1.24,0,0,1-.33,0h0v0A.79.79,0,0,1,56.52,104.1Z" fill="#fff"/><path d="M56.18,104.43h0c0-.05,0,0,0-.05l.1,0h.2v.12A1,1,0,0,1,56.18,104.43Z" fill="#fff"/><path d="M56.18,100.74a.8.8,0,0,1,.34,0v.11h0a.62.62,0,0,1-.27,0h0a0,0,0,0,1,0,0Z" fill="#fff"/><path d="M56.52,102.9a.78.78,0,0,1-.26,0H56.2s0,0,0,0,0,0,0,0l.15,0h.17Z" fill="#fff"/><path d="M56.18,102.56a1,1,0,0,1,.34,0v.11h-.19l-.12,0a0,0,0,0,1,0,0Z" fill="#fff"/><path d="M56.18,101.26a1,1,0,0,1,.34,0v.12a1,1,0,0,1-.24,0h-.07s0,0,0,0Z" fill="#fff"/><path d="M56.35,102.47a.78.78,0,0,1-.34,0v-.11h0l.31,0S56.36,102.43,56.35,102.47Z" fill="#fff"/><path d="M56,101.72v-.11h0a.89.89,0,0,1,.28,0h0a0,0,0,0,1,0,0s0,0,0,0A1.2,1.2,0,0,1,56,101.72Z" fill="#fff"/><path d="M56.35,103.52a1,1,0,0,1-.34,0v-.11a.79.79,0,0,1,.22,0l.1,0a0,0,0,0,1,0,0Z" fill="#fff"/><path d="M56.52,102v.11a1,1,0,0,1-.34,0v0h0a.93.93,0,0,1,.33,0Z" fill="#fff"/><path d="M56,102.25v-.12h.23l.1,0s0,0,0,0,0,0,0,0A1.16,1.16,0,0,1,56,102.25Z" fill="#fff"/><path d="M56.35,104a1,1,0,0,1-.34,0V104h.06a.8.8,0,0,1,.27,0s0,0,0,0,0,0,0,0Z" fill="#fff"/><path d="M56.52,101.48v.11a1,1,0,0,1-.34,0h0s0,0,0,0A1,1,0,0,1,56.52,101.48Z" fill="#fff"/><path d="M56,100h.2l.11,0s0,0,0,.05a1,1,0,0,1-.34,0Z" fill="#fff"/><path d="M56,100.57a1,1,0,0,1,.34,0h0s0,0,0,0a.67.67,0,0,1-.28,0h0Z" fill="#fff"/><path d="M56,103.81v-.11h0a1,1,0,0,1,.29,0s0,0,0,0,0,0,0,0a.85.85,0,0,1-.32,0Z" fill="#fff"/><path d="M56,103.29v-.11a.86.86,0,0,1,.28,0h.05s0,0,0,0,0,0,0,0a.85.85,0,0,1-.32,0Z" fill="#fff"/><path d="M56,104.74h.21l.11,0s0,0,0,0h0a1,1,0,0,1-.34,0Z" fill="#fff"/><path d="M56,99.37v-.11a1,1,0,0,1,.34,0s0,0,0,0,0,0,0,0A.73.73,0,0,1,56,99.37Z" fill="#fff"/><path d="M56,103v-.11h.12a.51.51,0,0,1,.21,0s0,0,0,0A.84.84,0,0,1,56,103Z" fill="#fff"/><path d="M56,104.48a.9.9,0,0,1,.23,0h.1s0,0,0,0,0,0,0,0l-.16,0H56Z" fill="#fff"/><path d="M56,102.77v-.11h.22l.11,0s0,0,0,0,0,0,0,0a1.81,1.81,0,0,1-.23,0Z" fill="#fff"/><path d="M56,101.09h.07a1.15,1.15,0,0,1,.26,0,0,0,0,0,1,0,0s0,0,0,0a.85.85,0,0,1-.23,0H56s0,0,0,0Z" fill="#fff"/><path d="M56.18,100.47a1,1,0,0,1,.34,0v.11a1,1,0,0,1-.34,0Z" fill="#fff"/><path d="M56.52,99.92V100a.81.81,0,0,1-.34,0v0A1,1,0,0,1,56.52,99.92Z" fill="#fff"/><path d="M56,99.9v-.11a.78.78,0,0,1,.34,0h0c0,.05,0,.05,0,.05h0A1.1,1.1,0,0,1,56,99.9Z" fill="#fff"/><path d="M56.52,99.4v.1a1,1,0,0,1-.34,0v0A.79.79,0,0,1,56.52,99.4Z" fill="#fff"/><path d="M56.35,99.6a1,1,0,0,1-.34,0v-.11h.11a1.2,1.2,0,0,1,.2,0S56.36,99.56,56.35,99.6Z" fill="#fff"/><path d="M56,104.33v-.11a.34.34,0,0,0,.1,0,1.81,1.81,0,0,1,.23,0s0,0,0,0,0,0,0,0A.91.91,0,0,1,56,104.33Z" fill="#fff"/><path d="M56.52,104.62v.11a1,1,0,0,1-.34,0h0v0A1,1,0,0,1,56.52,104.62Z" fill="#fff"/><path d="M56,100.42v-.11a1.13,1.13,0,0,1,.26,0l.07,0s0,0,0,0a0,0,0,0,1,0,0,1.12,1.12,0,0,1-.32,0Z" fill="#fff"/><path d="M56,102v-.11h.21l.1,0s0,0,0,0A.92.92,0,0,1,56,102Z" fill="#fff"/><path d="M56.35,100.86v0a.78.78,0,0,1-.34,0v-.11A1,1,0,0,1,56.35,100.86Z" fill="#fff"/><path d="M56,101.46v-.11h.21l.1,0s0,0,0,.05A1,1,0,0,1,56,101.46Z" fill="#fff"/><path d="M56,99.11V99h.1a1.81,1.81,0,0,1,.23,0s0,0,0,0,0,0,0,0a.71.71,0,0,1-.21,0Z" fill="#fff"/></g><g id="ferMqf-9" data-name="ferMqf"><path d="M56.54,105.19v.11a1,1,0,0,1-.34,0v0A.78.78,0,0,1,56.54,105.19Z" fill="#fff"/><path d="M56.54,107.8v.1h0a.69.69,0,0,1-.25,0h-.07s0,0,0,0,0,0,0,0a.93.93,0,0,1,.33,0Z" fill="#fff"/><path d="M56.54,105.71v.11a1,1,0,0,1-.34,0v-.05A1,1,0,0,1,56.54,105.71Z" fill="#fff"/><path d="M56.2,107.09v0l.07,0a1.1,1.1,0,0,1,.26,0h0v.1A1,1,0,0,1,56.2,107.09Z" fill="#fff"/><path d="M56.54,106.23v.11a.57.57,0,0,1-.26,0h-.05s0,0,0,0h0A.78.78,0,0,1,56.54,106.23Z" fill="#fff"/><path d="M56.2,106.79a1,1,0,0,1,.34,0v.11h0a.77.77,0,0,1-.26,0h-.05s0,0,0,0Z" fill="#fff"/><path d="M56.2,107.31a.78.78,0,0,1,.34,0v.11a.69.69,0,0,1-.25,0h-.06s0,0,0,0Z" fill="#fff"/><path d="M56,107.77v-.1h0a.83.83,0,0,1,.27,0h0s0,0,0,0,0,0,0,0A.9.9,0,0,1,56,107.77Z" fill="#fff"/><path d="M56,108.05v-.11h0a.88.88,0,0,1,.28,0h0s0,0,0,0a0,0,0,0,1,0,0A.91.91,0,0,1,56,108.05Z" fill="#fff"/><path d="M56.54,107.54v.11a1,1,0,0,1-.34,0h0s0,0,0,0A1.06,1.06,0,0,1,56.54,107.54Z" fill="#fff"/><path d="M56,106.09h.19l.11,0s0,0,0,.06a1.27,1.27,0,0,1-.34,0Z" fill="#fff"/><path d="M56,106.62a.8.8,0,0,1,.34,0h0s0,0,0,0a1,1,0,0,1-.29,0h0Z" fill="#fff"/><path d="M56,105.43v-.11a.79.79,0,0,1,.34,0v0s0,0,0,0A1.23,1.23,0,0,1,56,105.43Z" fill="#fff"/><path d="M56,107.14h.06a1.09,1.09,0,0,1,.26,0l0,0s0,0,0,0a.53.53,0,0,1-.22,0s-.06,0-.08,0,0,0,0,0Z" fill="#fff"/><path d="M56.2,106.53a.78.78,0,0,1,.34,0v.11a1,1,0,0,1-.34,0Z" fill="#fff"/><path d="M56.54,106v.11a1,1,0,0,1-.34,0v0A1,1,0,0,1,56.54,106Z" fill="#fff"/><path d="M56,106v-.11a1,1,0,0,1,.34,0h0s0,0,0,0h0A.76.76,0,0,1,56,106Z" fill="#fff"/><path d="M56.54,105.45v.11a.78.78,0,0,1-.34,0v0A1,1,0,0,1,56.54,105.45Z" fill="#fff"/><path d="M56.37,105.65a1,1,0,0,1-.34,0v-.12a.34.34,0,0,0,.1,0,1.52,1.52,0,0,1,.21,0S56.38,105.61,56.37,105.65Z" fill="#fff"/><path d="M56,106.47v-.11a1,1,0,0,1,.25,0l.08,0s0,0,0,0,0,0,0,0a.89.89,0,0,1-.32,0Z" fill="#fff"/><path d="M56.37,106.92v0a1,1,0,0,1-.34,0v-.11A1,1,0,0,1,56.37,106.92Z" fill="#fff"/><path d="M56,107.51v-.11h.21l.09,0s0,0,0,0A1,1,0,0,1,56,107.51Z" fill="#fff"/><path d="M56,105.17v-.12h.09a2,2,0,0,1,.24,0s0,0,0,0,0,0,0,0a1.52,1.52,0,0,1-.21,0A.48.48,0,0,0,56,105.17Z" fill="#fff"/></g><g id="ferMqf-10" data-name="ferMqf"><path d="M56,108.19v.11a1,1,0,0,0,.35,0v0A.83.83,0,0,0,56,108.19Z" fill="#fff"/><path d="M56,108.71v.11a1,1,0,0,0,.34,0v-.05A1,1,0,0,0,56,108.71Z" fill="#fff"/><path d="M56.38,110.09v0l-.08,0a1.06,1.06,0,0,0-.25,0h0v.1A.83.83,0,0,0,56.38,110.09Z" fill="#fff"/><path d="M56,109.23v.11a.59.59,0,0,0,.26,0h.05s0,0,0,0h0A1,1,0,0,0,56,109.23Z" fill="#fff"/><path d="M56.38,109.79a1,1,0,0,0-.35,0v.11h0a1.1,1.1,0,0,0,.26,0h.05a0,0,0,0,0,0,0Z" fill="#fff"/><path d="M56.54,109.09h-.19l-.11,0s0,0,0,.06a1,1,0,0,0,.34,0Z" fill="#fff"/><path d="M56.55,109.62a.82.82,0,0,0-.35,0h0s0,0,0,0a.88.88,0,0,0,.28,0h0Z" fill="#fff"/><path d="M56.55,108.43v-.11a.83.83,0,0,0-.35,0v0l0,0A1.16,1.16,0,0,0,56.55,108.43Z" fill="#fff"/><path d="M56.37,109.53a.93.93,0,0,0-.33,0v.11a1,1,0,0,0,.33,0Z" fill="#fff"/><path d="M56,109v.11a1,1,0,0,0,.34,0v0A1,1,0,0,0,56,109Z" fill="#fff"/><path d="M56.55,109v-.11a1,1,0,0,0-.34,0h0s0,0,0,0h0A.74.74,0,0,0,56.55,109Z" fill="#fff"/><path d="M56,108.45v.11a.84.84,0,0,0,.35,0v0A1,1,0,0,0,56,108.45Z" fill="#fff"/><path d="M56.21,108.65a1,1,0,0,0,.34,0v-.11h-.11a1.52,1.52,0,0,0-.21,0S56.2,108.61,56.21,108.65Z" fill="#fff"/><path d="M56.55,109.47v-.11a1.13,1.13,0,0,0-.26,0l-.07,0s0,0,0,0,0,0,0,0a.85.85,0,0,0,.32,0Z" fill="#fff"/><path d="M56.2,109.92v0a1,1,0,0,0,.34,0v-.11A1,1,0,0,0,56.2,109.92Z" fill="#fff"/><path d="M56.55,108.17v-.12h-.1a1.6,1.6,0,0,0-.23,0s0,0,0,0,0,0,0,0a1.38,1.38,0,0,0,.2,0Z" fill="#fff"/></g></g></g><path d="M68.73,68.63h-5.3a.67.67,0,0,0-.67.67v6a.67.67,0,0,0,.67.66h5.3a.66.66,0,0,0,.66-.66v-6a.66.66,0,0,0-.66-.67m.3,6.71a.3.3,0,0,1-.3.29h-5.3a.29.29,0,0,1-.3-.29v-6a.29.29,0,0,1,.3-.3h5.3a.3.3,0,0,1,.3.3Z" fill="#79589f"/><polygon points="64.42 74.89 65.25 74.16 64.42 73.42 64.42 74.89" fill="#79589f"/><path d="M67.41,71.91a1.16,1.16,0,0,0-.87-.33,4.59,4.59,0,0,0-1.38.25V69.74h-.74v3.19l.52-.23a4.5,4.5,0,0,1,1.6-.38c.37,0,.46.2.46.37v2.2h.74V72.68a1.17,1.17,0,0,0-.33-.77" fill="#79589f"/><path d="M66.45,70.93h.73a2.08,2.08,0,0,0,.56-1.19H67a2.85,2.85,0,0,1-.55,1.19" fill="#79589f"/><path d="M45.56,55.59a22.8,22.8,0,0,1,1.32,4c1.5,5.31-1.05,7.11.18,13.33l.44-.41s.31-5,.88-9c.53-3.68-1.41-7.69-1.58-8.26S45.56,54,45.56,55.59Z" fill="#fff"/><path d="M66.12,55.59a22.8,22.8,0,0,0-1.32,4c-1.5,5.31,1,7.11-.18,13.33l-.44-.41s-.31-5-.88-9c-.53-3.68,1.41-7.69,1.58-8.26S66.12,54,66.12,55.59Z" fill="#fff"/></g></svg>