<svg xmlns="http://www.w3.org/2000/svg" width="110" height="194" viewBox="0 0 110 194"><title>landian-06-hair</title><g id="hair"><path d="M41.6,70.87s.7-.22.89-.67-.12-.87-.64-1.6a4.08,4.08,0,0,1-1.54-3.14,6,6,0,0,0-.51-3.6A9.9,9.9,0,0,1,38.45,58L44,54.49a5.58,5.58,0,0,1,0,6.11,8,8,0,0,0,.16,6.78A4.56,4.56,0,0,1,44.35,70a2,2,0,0,1-1.09,1.38,3.29,3.29,0,0,0-1.28.77c-.47.54-.45,1.35.13,2.4,0,0-1.12-.12-1.41-1.76A1.69,1.69,0,0,1,41.6,70.87Z" fill="#d29653"/><path d="M54.68,35.38c-.37.28-2.37-1.42-3-.26a17.1,17.1,0,0,0-1.67,3.33c-1,3.34-1.71,5.26-2.78,10.22A9.33,9.33,0,0,1,44.46,54c-.65.67.86,2.83.21,4.19-.39.84-2.16,2.82-3.84,3.06-1.14.17-2.12-1.79-2.12-1.79C38.3,57.89,37.42,56,38,54.32c.36-1,1.71-3.56,2-5.35.23-1.42-.35-2.79,0-5,1.4-8.75,7.89-13.92,15.72-13.08C55.71,30.89,56.24,34.19,54.68,35.38Z" fill="#d29653"/><path d="M54,35.05s-1.43-2-3.27-1.81c0,0-3.2-.52-4.83,8.59,0,0-1.32,7.78-3.25,9.45a4,4,0,0,0-1.15,4.45s1,3.16.77,4c0,0-1.73,4.92,1.34,8.64,0,0-1.86-4.1-.74-7.7a4.78,4.78,0,0,0,.59-2.9,7.12,7.12,0,0,0-.72-2.14s-.63-1.56,1.58-2.91c0,0,2-.67,2.35-5,0,0,1.48-9.43,2.61-11.12.08-.13,1-2.82,2.82-2.27A4.65,4.65,0,0,1,54,35.05Z" fill="#eeba66"/><path d="M67.59,70.87s-.7-.22-.89-.67.12-.87.64-1.6a4.11,4.11,0,0,0,1.54-3.14,6,6,0,0,1,.51-3.6A9.9,9.9,0,0,0,70.74,58L65.2,54.49a5.58,5.58,0,0,0,0,6.11A8,8,0,0,1,65,67.38,4.56,4.56,0,0,0,64.84,70a2,2,0,0,0,1.09,1.38,3.29,3.29,0,0,1,1.28.77c.47.54.45,1.35-.13,2.4,0,0,1.12-.12,1.41-1.76A1.69,1.69,0,0,0,67.59,70.87Z" fill="#d29653"/><path d="M54.51,35.38c.37.28,2.37-1.42,3-.26a17.1,17.1,0,0,1,1.67,3.33c1,3.34,1.71,5.26,2.78,10.22A9.33,9.33,0,0,0,64.73,54c.65.67-.86,2.83-.22,4.19.4.84,2.17,2.82,3.85,3.06,1.14.17,2.12-1.79,2.12-1.79.41-1.54,1.29-3.45.7-5.11-.35-1-1.7-3.56-2-5.35-.23-1.42.35-2.79,0-5-1.4-8.75-7.89-13.92-15.72-13.08C53.48,30.89,53,34.19,54.51,35.38Z" fill="#d29653"/><path d="M55.21,35.05s1.44-2,3.28-1.81c0,0,3.2-.52,4.83,8.59,0,0,1.32,7.78,3.25,9.45a4,4,0,0,1,1.15,4.45s-1,3.16-.77,4c0,0,1.73,4.92-1.35,8.64,0,0,1.86-4.1.75-7.7a4.83,4.83,0,0,1-.6-2.9,7.44,7.44,0,0,1,.73-2.14s.63-1.56-1.58-2.91c0,0-2-.67-2.35-5,0,0-1.48-9.43-2.61-11.12-.09-.13-1-2.82-2.82-2.27A4.72,4.72,0,0,0,55.21,35.05Z" fill="#eeba66"/></g></svg>