<svg xmlns="http://www.w3.org/2000/svg" width="110" height="194" viewBox="0 0 110 194"><title>landian-13-body</title><g id="landians"><path d="M40.51,61.58l2.64,14s1,1.91,12.57,2.43C72.32,78.76,69,63.39,69,63.39S55.47,46.28,53.35,44.56C46,46.52,40.51,59.37,40.51,61.58Z"/><path d="M68.21,72.91C72.77,75.4,75,89.93,75.67,92c.83,2.7,2.28,8.09,0,9.13s-3.94-2.49-5.6-6.43-5.39-11.35-6.22-14.32C62.82,76.64,63.65,70.42,68.21,72.91Z" fill="#79589f"/><path d="M42.57,72.92C38,75.38,35.63,89.9,35,92c-.85,2.69-2.34,8.07-.06,9.13s4-2.47,5.63-6.4S46,83.39,46.87,80.42C47.93,76.69,47.14,70.46,42.57,72.92Z" fill="#79589f"/><path d="M66.73,149.21s5.87-15.56,3.38-29.67S56,115,56.23,126.8s.36,21.16.34,23.24C56.52,157.72,62.58,159.79,66.73,149.21Z" fill="#fcdab5"/><path d="M71.79,192.93l-.8-.73a.57.57,0,0,0-.29-.26c-2-1.8-6-5.54-7.38-7a3,3,0,0,1-.59-1.22c0-.57.11-1.13.17-1.6.18-.17,2.47-22.89,2.26-28.25a4.15,4.15,0,0,0-8.23-.82c-1.24,6.18-2.68,8.45-1.65,17.52a74.48,74.48,0,0,0,1.56,9.62c-.17,4-.54,9.25-.54,9.25l.14,0c-.35.7-.13.79,2.84.64l2.35.53a6,6,0,0,0,2.49,1.61c3.86,1,6.53,1.38,6.92.52Z" fill="#fcdab5"/><path d="M56.51,185.49s.13.31,6.05,4.61c2.83,2.06,6-.24,6-.24s5.32,1.88,5.48,2.82c0,1.17-4.16,1.28-9.23,1.18-1.82,0-3.47-3.21-5-3.29-.28,0-.18,3.22-.45,3.24a13,13,0,0,1-2.66-.08S54.23,188,56.51,185.49Z" fill="#d72038"/><path d="M42.09,149.36s-5.87-15.56-3.39-29.67,14.1-4.56,13.89,7.27-.36,21.16-.34,23.23C52.3,157.87,46.23,159.94,42.09,149.36Z" fill="#fcdab5"/><path d="M51.23,153.15A4.15,4.15,0,0,0,43,154c-.2,5.36,2.08,28.07,2.27,28.24,0,.13,0,.27.05.4a4.11,4.11,0,0,1-.8,2.43c-1.32,1.44-5.28,5.08-7.28,6.91-1,.2-2,.36-2.06.83,0,1.16,2.37,1,7.41.91,1.5,0,3-2.12,4.5-3.15l4.45-1s-.28-4-.46-7.65c.1-1.88.83-2.62,1.81-11.23C53.91,161.6,52.46,159.34,51.23,153.15Z" fill="#fcdab5"/><path d="M51.33,185.6s-.14.32-6,4.61c-2.84,2.07-6.05-.24-6.05-.24s-5.33,1.89-5.48,2.82c0,1.17,4.15,1.28,9.23,1.18,1.81,0,3.46-3.21,5-3.28.28,0,.19,3.21.45,3.24a14,14,0,0,0,2.67-.08S53.61,188.09,51.33,185.6Z" fill="#d72038"/><path d="M50.89,64.24s1.82,5.44-1.36,7c-.09,0-1.37.53-1.34,1.43.15,5.52,3.69,24.54,6.51,24.72,2.13.14,5.44-18.42,6.72-25.31.13-.67-.33-.73-1.59-.92,0,0-2.09-.3-1.41-6.23C58.7,62.44,50.89,64.24,50.89,64.24Z" fill="#e1c3a5"/><path d="M60.47,71.22s6,1,7.08,2.46c.6.84-1,7.9-1.06,11.3-.09,3.11-.84,5.45-1.43,11-.27,2.62-.33,4.46-.33,5.11,0,1.66-20.35,2-20.35-.08,0-1.51-.09-4.14-.17-4.87-.34-2.93-.67-5.7-1.39-11.35a51,51,0,0,1-.16-11c.21-.83,6.72-2.54,6.72-2.54l5.7,13L60.59,71.8" fill="#79589f"/><path d="M55.08,84.26l-5.27-8.77-2.62,1.79,1.28-5.74a22.45,22.45,0,0,1,2.6-2.09Z" fill="#513875"/><path d="M55.08,84.22l4.15-8.54,3.32,1.6-1.36-5.82s-1.79-1.33-2.52-1.71L57.86,75C57.26,77.43,55,83.32,55.08,84.22Z" fill="#513875"/><path d="M44,103,32.25,137a7.69,7.69,0,0,0,5.21,3.75s3.16,4.53,9.47,2.48a20.92,20.92,0,0,0,7.51,1,28.37,28.37,0,0,0,6.83-.85l.69-.17c6.31,2.05,9.47-2.48,9.47-2.48A7.69,7.69,0,0,0,76.64,137L64.86,103s1-1.71-1.62-1.71S44.38,101,44.38,101Z" fill="#122238"/><path d="M55,84.26s0,6.19,0,10.63c0,.27.12,4.57,0,5.63l.47,0,0-17.46Z" fill="#513875"/><path d="M44.43,100.08l20.34,0s.69,2,.09,3.25a142.36,142.36,0,0,1-20.83,0A5.63,5.63,0,0,1,44.43,100.08Z"/><path d="M82.57,122s-2.76-11.42-3-14.14S77.21,94.42,73.86,95.6c-3,1.05-1.94,8.66.21,13.79s5.37,12,5.53,13.48c.39,3.46-.7,8.15-.16,8.52.7.46,1.2-.86,1.87-3,1,0,3,4.16,5.44,5.57s.67-5.36-.37-6.78C85.55,126.05,83.09,123.52,82.57,122Z" fill="#fcdab5"/><path d="M80.22,111.29s-1.66-9.56-1.88-10.28c-.68-2.16-2.32-6.43-4.5-6.07s-2,4.69-1.85,7c.36,4.44,3.37,10.73,3.37,10.73Z" fill="#79589f"/><path d="M27.43,122.37s2.76-11.42,3-14.14,2.36-13.47,5.71-12.29c3,1,1.94,8.65-.21,13.79s-5.37,12-5.53,13.48c-.39,3.46.7,8.15.16,8.51-.7.47-1.2-.85-1.87-3-1,0-3,4.16-5.44,5.57s-.67-5.36.37-6.79C24.45,126.39,26.91,123.86,27.43,122.37Z" fill="#fcdab5"/><path d="M29.77,111.67s1.66-9.56,1.89-10.28c.68-2.16,2.31-6.43,4.49-6.07s2,4.69,1.85,7c-.35,4.44-3.37,10.72-3.37,10.72Z" fill="#79589f"/></g></svg>