<svg xmlns="http://www.w3.org/2000/svg" width="110" height="194" viewBox="0 0 110 194"><title>landian-16-face</title><g id="face"><ellipse cx="55.42" cy="53.97" rx="10.57" ry="14.51" fill="#e4b88b"/><ellipse cx="50.09" cy="55.8" rx="1.24" ry="2.02" transform="translate(-0.82 0.75) rotate(-0.85)" fill="#0c0506"/><ellipse cx="60.04" cy="55.65" rx="1.24" ry="2.02" transform="translate(-0.82 0.89) rotate(-0.85)" fill="#0c0506"/><path d="M58.92,62.74l-3.45.87-3.61-.75a24.81,24.81,0,0,1,3.5-.35A19.63,19.63,0,0,1,58.92,62.74Z" fill="#9e2528"/><path d="M51.86,62.86a13.32,13.32,0,0,0,7.06-.12,4.06,4.06,0,0,1-3.48,2A3.75,3.75,0,0,1,51.86,62.86Z" fill="#d4212d"/></g></svg>