<svg xmlns="http://www.w3.org/2000/svg" width="110" height="194" viewBox="0 0 110 194"><title>landian-05</title><g id="landians"><path d="M44.69,61s-.42,12.83,4.92,13.09l2.23-6.72S51,63.24,44.69,61Z" fill="#955223"/><path d="M60.39,74.31s4.32.22,5.43-.55c0,0-2.61-8.43-2.14-11.55l-4.36.43S54.19,71.06,60.39,74.31Z" fill="#955223"/><path d="M44.06,45s-2.87,2.22-3.47,9.57c0,0,.13,2.44.3,4.75,0,0,.64,3.21.09,4.88,0,0-1.54,4.87.51,8.12,0,0,2,3.68,9.15,2.39l2.74-5S56.2,58.8,44.06,45Z" fill="#ac5f27"/><path d="M68.13,72.94c4.58,2.46,8.35,27,6.07,28.06s-4-2.46-5.65-6.4-5.47-11.31-6.32-14.28C61.17,76.59,63.55,70.48,68.13,72.94Z" fill="#79589f"/><path d="M42.28,73.63c-4.58,2.47-8.34,27-6.07,28.07s4-2.47,5.65-6.4S47.33,84,48.18,81C49.24,77.29,46.87,71.17,42.28,73.63Z" fill="#79589f"/><path d="M67.3,151.06s5.88-15.57,3.39-29.68-14.12-4.57-13.91,7.26.36,21.17.34,23.25C57.07,159.57,63.14,161.65,67.3,151.06Z" fill="#595138"/><path d="M64.42,177.07s-1.59,6.63.18,8.57,8.49,8,8.49,8l-15.52-3.5s.62-8.72.62-12.24S64.42,177.07,64.42,177.07Z" fill="#e4b88b"/><path d="M66,178.57s1.12-22.57.91-28S59,145,58,149.9c-1.24,6.23-2.21,8.47-1.66,17.65.37,6,.54,10.07.64,11.34C57,179.62,64.55,181.11,66,178.57Z" fill="#595138"/><path d="M75.94,193.73c-.22-3.22-4.56-3.89-4.56-3.89l0,0L70,189.19l.07,0s-2.89-2.67-4-3A1.48,1.48,0,0,0,64.38,188a3.28,3.28,0,0,0,.89,1c-.32,0-.65,0-1,0-4.72-.34-6.1-.91-6.5-1.24a2.67,2.67,0,0,0-.17-.26c-2.78,2.05-1.11,6.17-1.11,6.17l.35,0v0h.79C61.23,193.84,72.32,194.29,75.94,193.73Z"/><path d="M65.38,189.62s1.11-2.12,2.22-2.67l1,.89Z" fill="#cbcbca"/><path d="M66.82,191a7.67,7.67,0,0,1,2.23-2.67l1,.89Z" fill="#cbcbca"/><path d="M42.6,149.18s-5.88-15.57-3.39-29.69,14.11-4.56,13.91,7.27-.36,21.17-.35,23.25C52.82,157.69,46.75,159.77,42.6,149.18Z" fill="#595138"/><path d="M45.57,177.07s1.59,6.63-.19,8.57-8.48,8-8.48,8l15.52-3.5s-.63-8.72-.63-12.24S45.57,177.07,45.57,177.07Z" fill="#e4b88b"/><path d="M44,178.57s-1.13-22.57-.92-28S51,145,52,149.9c1.25,6.23,2.22,8.47,1.66,17.65-.36,6-.53,10.07-.64,11.34C53,179.62,45.44,181.11,44,178.57Z" fill="#595138"/><path d="M52,187.45a2.67,2.67,0,0,0-.17.26c-.4.33-1.78.9-6.51,1.24-.35,0-.68,0-1,0a3.42,3.42,0,0,0,.89-1,1.48,1.48,0,0,0-1.72-1.78c-1.06.33-4,3-4,3l.07,0-1.37.69,0,0s-4.34.67-4.56,3.89c3.61.56,14.71.11,18.31-.06h.79v0l.35,0S54.81,189.5,52,187.45Z"/><path d="M44.25,189.62S43.14,187.5,42,187l-1,.89Z" fill="#cbcbca"/><path d="M42.81,191a7.67,7.67,0,0,0-2.23-2.67l-1,.89Z" fill="#cbcbca"/><path d="M43.14,107.07s-2.15,3.11-3.81,13.07,32.37,9.92,31.07-.2a36.32,36.32,0,0,0-3.87-12.87Z" fill="#595138"/><path d="M60.7,70.21c-1.92-1.41-5.45-1.16-5.45-1.16-5,0-5.32,1.16-5.32,1.16s-2.38,5.38,2,5.38a10.46,10.46,0,0,0,7.25-.38l1.66-3Z" fill="#513875"/><path d="M51.3,65.2s1.56,5.37-1.26,6.9c-.62.34,1.79,26.05,5.08,26.26,2.33.15,4.36-21.15,5.77-26.17,0,0-2.69-.52-2.06-6.31C59.1,63.4,51.3,65.2,51.3,65.2Z" fill="#c89d7c"/><path d="M49.65,71.68S43.3,73,43.09,73.82c-.21,2.49-1.43,6.82,0,11.43,1,3.28.92,14.87.51,16.53s-1.76,3-2.59,6.37,19.3,7.54,26.43.41c1.18-1.18-1.24-4.91-1.24-6.57s-1-14.67.17-16.81c1.59-3,2.09-10.2,1.48-11.05-1-1.45-7.09-2.45-7.09-2.45L55.25,82.46Z" fill="#79589f"/><polygon points="47.04 78.09 49.74 75.66 55.25 82.46 51.24 73.61 50.12 73.22 47.04 78.09" fill="#513875"/><polygon points="47.4 72.19 46.53 79.51 50.15 75.47 48.36 71.91 47.4 72.19" fill="#513875"/><polygon points="53.84 79.7 49.87 74.12 47.23 77.65 48.03 72.1 50.06 70.08 53.84 79.7" fill="#79589f"/><polygon points="63.52 77.84 60.83 75.4 55.21 82.58 59.32 73.35 60.45 72.97 63.52 77.84" fill="#513875"/><polygon points="63.08 72.19 64.04 79.25 60.41 75.21 62.31 71.98 63.08 72.19" fill="#513875"/><polygon points="56.45 79.85 60.7 73.86 63.33 77.39 62.61 72.11 60.68 70.19 56.45 79.85" fill="#79589f"/><path d="M55.21,82.58v21.9s.21,6.5-.13,7.91c0,0,0,.12,1.37,0V80.87Z" fill="#513875"/><path d="M81.51,123.67s-2.76-11.42-3-14.15-2.37-13.47-5.73-12.29c-3,1-1.94,8.66.21,13.8s5.38,12,5.54,13.48c.39,3.46-.7,8.16-.16,8.52.7.46,1.21-.86,1.87-3,1,0,3,4.16,5.45,5.57s.68-5.36-.37-6.78C84.5,127.69,82,125.16,81.51,123.67Z" fill="#e4b88b"/><path d="M81.72,122.77s-3.4-28.6-8.94-26.16c-2.7,1.19-1.7,8.36-1.7,8.36l6,19.49Z" fill="#79589f"/><path d="M28.49,124.21s2.76-11.43,3-14.15,2.37-13.48,5.73-12.3c3,1,1.94,8.66-.21,13.8s-5.38,12-5.54,13.49c-.39,3.46.7,8.15.16,8.52-.7.46-1.21-.86-1.87-3-1,0-3.05,4.16-5.45,5.57s-.68-5.36.37-6.79C25.5,128.23,28,125.7,28.49,124.21Z" fill="#e4b88b"/><path d="M28.28,123.3s3.4-28.59,8.94-26.15c2.7,1.18,1.7,8.36,1.7,8.36l-6,19.49Z" fill="#79589f"/><path d="M45.78,52.58s-1.64-2-3.32-.33,1.39,5.88,3.42,6.55S45.78,52.58,45.78,52.58Z" fill="#e4b88b"/></g><g id="face"><ellipse cx="55.12" cy="52.52" rx="10.59" ry="14.53" fill="#e4b88b"/><ellipse cx="49.79" cy="54.35" rx="1.25" ry="2.02" transform="translate(-0.8 0.74) rotate(-0.85)" fill="#0c0506"/><ellipse cx="59.75" cy="54.21" rx="1.25" ry="2.02" transform="translate(-0.79 0.89) rotate(-0.85)" fill="#0c0506"/><path d="M58.63,61.31l-3.45.86-3.63-.74a25.69,25.69,0,0,1,3.51-.36A19.25,19.25,0,0,1,58.63,61.31Z" fill="#d3a57d"/><path d="M51.55,61.43a13.38,13.38,0,0,0,7.08-.12,4.06,4.06,0,0,1-3.49,2A3.77,3.77,0,0,1,51.55,61.43Z" fill="#bc8e6c"/></g><g id="hair"><path d="M72.56,67.43a11.4,11.4,0,0,1,1,5.68,10,10,0,0,1-3.64,6.29,9.74,9.74,0,0,1-4.74,2.35c3.5-4.53.34-9.83.34-9.83A11.26,11.26,0,0,1,62.9,59.75c.83-1.6,1.66-3.85.77-4.74s-2-4.62-2-4.62c-1-2.76-1.53-4.93-2-6.09-.95-2.42-2.57-3.12-3.2-3.08-3.77.21-4.79,5-7.14,3-1.53-1.33-1.46,1.41-1.46,1.41C47.38,52.16,45.33,54,45.33,54s-4.19-5.08-2-10c.68-1.49,2.53-4.28,4.4-5.09a21.09,21.09,0,0,1,7.91-1.71c3.63-.17,6.44.78,8.17,2.34a11.58,11.58,0,0,1,3.63,5.66,36.27,36.27,0,0,1,1.71,7.35C69.33,53.78,70,57,70,57s.52,3.77.9,5.61A24.62,24.62,0,0,0,72.56,67.43Z" fill="#ac5f27"/></g></svg>