<svg xmlns="http://www.w3.org/2000/svg" width="110" height="194" viewBox="0 0 110 194"><title>landian-30-hair</title><g id="hair"><path d="M66.92,18.39v9.36l-1.8,1.08a48.39,48.39,0,0,0,.21-5.25c-.06-2.87-.45-6-1.83-7.09-1.07-.82-4.57,0-8.26,1.42-3.69-1.38-7.19-2.24-8.26-1.42-1.38,1.05-1.77,4.22-1.82,7.09a47,47,0,0,0,.2,5.25l-1.62-.91-.18-.17V18.39s.77-3.72,2.74-4.24a7.52,7.52,0,0,1,6.27-4.9c.17,0,5.36-.58,5.53-.57,4.86.49,6.08,5.47,6.08,5.47C66.16,14.67,66.92,18.39,66.92,18.39Z" fill="#572512"/></g></svg>