<svg xmlns="http://www.w3.org/2000/svg" width="110" height="194" viewBox="0 0 110 194"><title>landian-37</title><g id="landians"><line x1="31.45" y1="78.46" x2="17.85" y2="78.46" fill="none" stroke="#000" stroke-miterlimit="10" stroke-width="0.75"/><rect x="17.85" y="76.76" width="0.64" height="3.39" transform="translate(36.35 156.92) rotate(-180)"/><rect x="60.9" y="141.41" width="8.06" height="42.5" fill="#4da0a0"/><rect x="44.55" y="141.41" width="8.06" height="42.5" fill="#4da0a0"/><rect x="44.55" y="143.23" width="8.06" height="0.89" fill="#4a7271"/><rect x="44.55" y="147.95" width="8.06" height="0.89" fill="#4a7271"/><rect x="44.55" y="152.66" width="8.06" height="0.89" fill="#4a7271"/><rect x="44.55" y="157.37" width="8.06" height="0.89" fill="#4a7271"/><rect x="44.55" y="162.09" width="8.06" height="0.89" fill="#4a7271"/><rect x="44.55" y="166.8" width="8.06" height="0.89" fill="#4a7271"/><rect x="44.55" y="171.51" width="8.06" height="0.89" fill="#4a7271"/><rect x="44.55" y="176.22" width="8.06" height="0.89" fill="#4a7271"/><rect x="44.55" y="180.94" width="8.06" height="0.89" fill="#4a7271"/><rect x="60.9" y="143.23" width="8.06" height="0.89" fill="#4a7271"/><rect x="60.9" y="147.95" width="8.06" height="0.89" fill="#4a7271"/><rect x="60.9" y="152.66" width="8.06" height="0.89" fill="#4a7271"/><rect x="60.9" y="157.37" width="8.06" height="0.89" fill="#4a7271"/><rect x="60.9" y="162.09" width="8.06" height="0.89" fill="#4a7271"/><rect x="60.9" y="166.8" width="8.06" height="0.89" fill="#4a7271"/><rect x="60.9" y="171.51" width="8.06" height="0.89" fill="#4a7271"/><rect x="60.9" y="176.22" width="8.06" height="0.89" fill="#4a7271"/><rect x="60.9" y="180.94" width="8.06" height="0.89" fill="#4a7271"/><rect x="33.42" y="42.56" width="5.03" height="13.96" rx="1" fill="#bf4343"/><rect x="42.02" y="64.2" width="26.31" height="4.48" fill="#4da0a0"/><rect x="72.55" y="42.56" width="5.03" height="13.96" rx="1" fill="#bf4343"/><rect x="35.93" y="30.66" width="39.13" height="34.98" rx="3.64" fill="#71c2c6"/><path d="M40.56,24.49c0-2.38.77-4.31,1.71-4.31S44,22.11,44,24.49a8.12,8.12,0,0,1-.63,3.35" fill="none" stroke="#000" stroke-miterlimit="10" stroke-width="0.5"/><ellipse cx="44.5" cy="24.49" rx="2.1" ry="4.32" fill="none" stroke="#000" stroke-miterlimit="10" stroke-width="0.5"/><ellipse cx="47.31" cy="24.49" rx="2.1" ry="4.32" fill="none" stroke="#000" stroke-miterlimit="10" stroke-width="0.5"/><ellipse cx="50.19" cy="24.49" rx="2.1" ry="4.32" fill="none" stroke="#000" stroke-miterlimit="10" stroke-width="0.5"/><ellipse cx="52.83" cy="24.49" rx="2.1" ry="4.32" fill="none" stroke="#000" stroke-miterlimit="10" stroke-width="0.5"/><ellipse cx="55.65" cy="24.49" rx="2.1" ry="4.32" fill="none" stroke="#000" stroke-miterlimit="10" stroke-width="0.5"/><ellipse cx="58.38" cy="24.49" rx="2.1" ry="4.32" fill="none" stroke="#000" stroke-miterlimit="10" stroke-width="0.5"/><ellipse cx="61.02" cy="24.49" rx="2.1" ry="4.32" fill="none" stroke="#000" stroke-miterlimit="10" stroke-width="0.5"/><ellipse cx="63.84" cy="24.49" rx="2.1" ry="4.32" fill="none" stroke="#000" stroke-miterlimit="10" stroke-width="0.5"/><ellipse cx="66.73" cy="24.49" rx="2.1" ry="4.32" fill="none" stroke="#000" stroke-miterlimit="10" stroke-width="0.5"/><path d="M68,27.85a10.59,10.59,0,0,1-.6-3.36c0-2.38.65-4.31,1.46-4.31s1.46,1.93,1.46,4.31" fill="none" stroke="#000" stroke-miterlimit="10" stroke-width="0.5"/><line x1="40.58" y1="23.91" x2="40.58" y2="30.66" fill="none" stroke="#000" stroke-miterlimit="10" stroke-width="0.5"/><line x1="70.29" y1="24.49" x2="70.29" y2="30.66" fill="none" stroke="#000" stroke-miterlimit="10" stroke-width="0.5"/><rect x="31.45" y="68.68" width="48.94" height="72.73" rx="5.88" fill="#71c2c6"/><polygon points="60.9 194 82.02 194 82.02 192.74 71.19 183.05 60.9 183.05 60.9 194" fill="#bf4343"/><polygon points="60.9 194 82.02 194 82.02 192.74 60.9 192.73 60.9 194" fill="#702525"/><polygon points="52.61 194 31.49 194 31.49 192.74 42.32 183.05 52.61 183.05 52.61 194" fill="#bf4343"/><polygon points="52.61 194 31.49 194 31.49 192.74 52.61 192.73 52.61 194" fill="#702525"/><rect x="36.98" y="77.47" width="19.53" height="19.53" rx="1" fill="#2b2525" stroke="#c49e22" stroke-miterlimit="10"/><circle cx="68.33" cy="87.03" r="6.58" fill="#fff" stroke="#c49e22" stroke-miterlimit="10"/><rect x="36.61" y="104.96" width="38.62" height="27.35" rx="1" fill="#2b2525" stroke="#c49e22" stroke-miterlimit="10" stroke-width="2"/><line x1="65.72" y1="83.44" x2="68.33" y2="87.03" fill="none" stroke="#bf4343" stroke-miterlimit="10"/><line x1="39.91" y1="91.62" x2="53.75" y2="91.62" fill="#c49e22" stroke="#fff" stroke-miterlimit="10" stroke-width="0.5"/><line x1="43.33" y1="85.04" x2="46.83" y2="91.62" fill="#c49e22" stroke="#fff" stroke-miterlimit="10" stroke-width="0.5"/><rect x="40.55" y="108.86" width="8.86" height="7.35" fill="#9fdddd"/><rect x="40.55" y="117.94" width="8.86" height="5.2" fill="#bf4343"/><rect x="65.55" y="108.19" width="5.84" height="1.81" fill="#bf4343"/><rect x="65.55" y="111.14" width="5.84" height="1.81" fill="#bf4343"/><rect x="65.55" y="114.09" width="5.84" height="1.81" fill="#bf4343"/><rect x="65.55" y="117.04" width="5.84" height="1.81" fill="#9fdddd"/><rect x="65.55" y="120.01" width="5.84" height="1.81" fill="#fff"/><rect x="40.55" y="125.43" width="30.84" height="4.05" fill="#9fdddd"/><circle cx="57.88" cy="116.22" r="5.42" fill="#fff" stroke="#c49e22" stroke-miterlimit="10"/><rect x="19.77" y="73.83" width="8.06" height="56.85" fill="#4da0a0"/><rect x="19.77" y="75.65" width="8.06" height="0.89" fill="#4a7271"/><rect x="19.77" y="80.37" width="8.06" height="0.89" fill="#4a7271"/><rect x="19.77" y="85.08" width="8.06" height="0.89" fill="#4a7271"/><rect x="19.77" y="89.79" width="8.06" height="0.89" fill="#4a7271"/><rect x="19.77" y="94.5" width="8.06" height="0.89" fill="#4a7271"/><rect x="19.77" y="99.22" width="8.06" height="0.89" fill="#4a7271"/><rect x="19.77" y="103.93" width="8.06" height="0.89" fill="#4a7271"/><rect x="19.77" y="108.64" width="8.06" height="0.89" fill="#4a7271"/><rect x="19.77" y="113.36" width="8.06" height="0.89" fill="#4a7271"/><rect x="19.77" y="118.12" width="8.06" height="0.89" fill="#4a7271"/><rect x="19.77" y="122.83" width="8.06" height="0.89" fill="#4a7271"/><rect x="19.77" y="127.54" width="8.06" height="0.89" fill="#4a7271"/><path d="M28.24,142.46l-4.88-4.88-4.88,4.88a6.9,6.9,0,1,1,9.76,0Z" fill="#bf4343"/><line x1="80.39" y1="78.46" x2="93.98" y2="78.46" fill="none" stroke="#000" stroke-miterlimit="10" stroke-width="0.75"/><rect x="93.34" y="76.76" width="0.64" height="3.39"/><rect x="84.01" y="73.83" width="8.06" height="56.85" transform="translate(176.07 204.5) rotate(-180)" fill="#4da0a0"/><rect x="84.01" y="75.65" width="8.06" height="0.89" transform="translate(176.07 152.19) rotate(-180)" fill="#4a7271"/><rect x="84.01" y="80.37" width="8.06" height="0.89" transform="translate(176.07 161.62) rotate(-180)" fill="#4a7271"/><rect x="84.01" y="85.08" width="8.06" height="0.89" transform="translate(176.07 171.04) rotate(-180)" fill="#4a7271"/><rect x="84.01" y="89.79" width="8.06" height="0.89" transform="translate(176.07 180.47) rotate(-180)" fill="#4a7271"/><rect x="84.01" y="94.5" width="8.06" height="0.89" transform="translate(176.07 189.89) rotate(-180)" fill="#4a7271"/><rect x="84.01" y="99.22" width="8.06" height="0.89" transform="translate(176.07 199.32) rotate(-180)" fill="#4a7271"/><rect x="84.01" y="103.93" width="8.06" height="0.89" transform="translate(176.07 208.75) rotate(-180)" fill="#4a7271"/><rect x="84.01" y="108.64" width="8.06" height="0.89" transform="translate(176.07 218.17) rotate(-180)" fill="#4a7271"/><rect x="84.01" y="113.36" width="8.06" height="0.89" transform="translate(176.07 227.6) rotate(-180)" fill="#4a7271"/><rect x="84.01" y="118.12" width="8.06" height="0.89" transform="translate(176.07 237.12) rotate(-180)" fill="#4a7271"/><rect x="84.01" y="122.83" width="8.06" height="0.89" transform="translate(176.07 246.55) rotate(-180)" fill="#4a7271"/><rect x="84.01" y="127.54" width="8.06" height="0.89" transform="translate(176.07 255.97) rotate(-180)" fill="#4a7271"/><path d="M83.6,142.46l4.88-4.88,4.88,4.88a6.9,6.9,0,1,0-9.76,0Z" fill="#bf4343"/></g><g id="face"><path d="M66.94,48.45c.12,8.07-6,14.7-10.81,14.77S45,56.85,44.88,48.78s-.29-15.2,10.82-15.29C68.42,33.38,66.82,40.38,66.94,48.45Z" fill="#d69471"/><ellipse cx="51.43" cy="47.79" rx="1.19" ry="1.94" transform="translate(-0.7 0.77) rotate(-0.85)" fill="#0e090a"/><ellipse cx="60.97" cy="47.65" rx="1.19" ry="1.94" transform="translate(-0.7 0.91) rotate(-0.85)" fill="#0e090a"/><path d="M51.23,55.17,60.42,55a4.06,4.06,0,0,1-4.25,3.82C51.63,58.93,51.23,55.17,51.23,55.17Z" fill="#fff"/></g></svg>