<svg xmlns="http://www.w3.org/2000/svg" width="110" height="194" viewBox="0 0 110 194"><title>landian-22-hair</title><g id="hair"><path d="M68.92,30.68c0-2.06-2-3.73-4.43-3.73a5,5,0,0,0-2.23.52,2.08,2.08,0,0,0-1.9-1.32,2.14,2.14,0,0,0-2,1.76,4.68,4.68,0,0,0-3.75-1.76,4.27,4.27,0,0,0-4.36,3.11,2.77,2.77,0,0,0-.71-.1,2.57,2.57,0,0,0-2.66,2.36,3.16,3.16,0,0,0-1.19-.24A3.6,3.6,0,0,0,42.21,35a3.92,3.92,0,0,0,.53,2,2.48,2.48,0,0,0-.22,1,2.36,2.36,0,0,0,.71,1.69l.16,8.7c0,.14.07.22.07.22l.53.32,1,.49s.2-4.11.69-7.79a3.56,3.56,0,0,0,1.58-1.25s1.57.66,3.14-1.41a3.31,3.31,0,0,0,.43-.73,23.11,23.11,0,0,0,4.31.41,23.65,23.65,0,0,0,5-.5c0,.07,0,.13,0,.2a3.4,3.4,0,0,0,3.47,3.33,3.65,3.65,0,0,0,.74-.08c.49,3.69.69,7.82.69,7.82l1-.48.54-.33.08-.25.16-8.79a3.16,3.16,0,0,0,.24-1.19,3.54,3.54,0,0,0,1.83-3,3.39,3.39,0,0,0-1-2.34A3.36,3.36,0,0,0,68.92,30.68Z"/></g></svg>