<svg xmlns="http://www.w3.org/2000/svg" xmlns:xlink="http://www.w3.org/1999/xlink" width="110" height="194" viewBox="0 0 110 194"><defs><clipPath id="clip-path"><path d="M86.36,81.19C83,84.66,75.59,86.32,75.59,86.32l-.71-1.95h0c-.28-.58-.83-1.74-1.49-3.18-1.06,15.74.84,36,.84,36l-38.2.6s1.45-28.33,2.55-40.63c-1.27,2.95-2.56,5.68-3,6.7h0l-.71,2s-7.43-1.67-10.77-5.13l.75-3v0c4.46-20.88,14.88-19.3,14.88-19.3l0,0c1.57-.56,3.3-1,4.56-1.37a21.26,21.26,0,0,0,4.06-1.69c.26,4,6.87,8.67,6.87,8.67s4.31-5.92,6.72-8.42A16.37,16.37,0,0,0,65.48,57a48.34,48.34,0,0,1,5.82,1.83c2.25,0,10.45,1.4,14.29,19.26l0,.11Z" fill="none"/></clipPath><clipPath id="clip-path-2"><path d="M217,88.7s-7.07,5.9-11.34,4.75c0,0-.76-1.52-1.77-3.64a159.49,159.49,0,0,0,1.24,29s-10.29-10.44-20-10.35c-12.16.11-21,10.35-21,10.35s2.18-21.69,3.47-32.86c-1.65,3.67-3.31,7-3.31,7-4.27,1.16-11.34-4.74-11.34-4.74C156.66,68.06,168.8,67,168.8,67l0,0c1.63-.56,3.42-1,4.74-1.37A22.47,22.47,0,0,0,177.79,64c.27,4.05,7.15,8.68,7.15,8.68s6.45-4.44,7-8.42a18.22,18.22,0,0,0,3.7,1.43,44.08,44.08,0,0,1,6.41,2C204.9,68.32,213.4,71.64,217,88.7Z" fill="none"/></clipPath></defs><title>landian-21</title><g id="landians"><path d="M71.91,186.43c2.62-3.68-1.28-24.57.12-35.84,1.18-9.57-12.76-10.66-14.33.35-2.68,18.71-1,42.12-1,42.12S69.29,190.1,71.91,186.43Z" fill="#9a9180"/><path d="M67.34,186.3c-2.33-1,11.86,1.57,13.11,1.89s1.7,4.8,1,4.87-20.28.54-21.65.38-4.51.68-2.43-3C62,182.33,69.66,187.27,67.34,186.3Z" fill="#13385e"/><path d="M81.9,192.21s-22.74.08-25.13,0v1.7l25.3.09Z" fill="#cfd1d2"/><path d="M66.59,187.85a.4.4,0,0,1-.42-.66c.86-.82,2-1.65,2.53-1.27C69.56,186.49,69.21,186.83,66.59,187.85Z" fill="#e5e6e6"/><path d="M70,188.47a.4.4,0,0,1-.46-.63c.73-.86,1.75-1.81,2.35-1.41C72.81,187,72.79,187.36,70,188.47Z" fill="#e5e6e6"/><path d="M73.45,189a.4.4,0,0,1-.46-.63c.74-.86,1.75-1.81,2.35-1.41C76.24,187.55,76.22,187.89,73.45,189Z" fill="#e5e6e6"/><path d="M57.7,150.94c-2.68,18.71-.93,41.27-.93,41.27s7.75-5.88,15.14-5.78" fill="#9a9180"/><path d="M72.37,147.73a212.71,212.71,0,0,0,1.4-33.64c-.16-3.46-6.91-4.23-11.07-2.45-3,1.28-6,9.6-5.56,12.81,1,7.53.17,14.54.94,24.3.53,6.73,5.53,7.27,8,6.85C70,154.91,71.72,152.83,72.37,147.73Z" fill="#9a9180"/><path d="M38.07,186.28c-2.62-3.68,1.28-24.57-.12-35.84-1.19-9.56,12.76-10.66,14.33.35,2.68,18.71,1,42.12,1,42.12S40.69,190,38.07,186.28Z" fill="#9a9180"/><path d="M37.83,148.85a204.14,204.14,0,0,1-1.71-32.51c.15-3.46,7.21-5.35,11.38-3.57,3,1.28,6,9.6,5.56,12.81-1,7.53-.17,14.54-.94,24.3-.53,6.73-5.54,7.27-8,6.85C40.22,156,38.47,154,37.83,148.85Z" fill="#9a9180"/><path d="M42.64,186.15c2.32-1-11.86,1.57-13.11,1.89s-1.7,4.8-1,4.87,20.29.54,21.66.38,4.51.68,2.43-3C48,182.18,40.32,187.12,42.64,186.15Z" fill="#13385e"/><path d="M28.08,192.06s22.73.08,25.13,0v1.7l-25.3.09Z" fill="#cfd1d2"/><path d="M43.38,187.7a.4.4,0,0,0,.43-.66c-.86-.82-2-1.65-2.53-1.27C40.41,186.34,40.77,186.68,43.38,187.7Z" fill="#e5e6e6"/><path d="M40,188.32a.4.4,0,0,0,.46-.63c-.74-.86-1.75-1.81-2.35-1.41C37.17,186.88,37.19,187.21,40,188.32Z" fill="#e5e6e6"/><path d="M36.53,188.84a.4.4,0,0,0,.46-.63c-.74-.86-1.75-1.81-2.35-1.41C33.74,187.4,33.76,187.74,36.53,188.84Z" fill="#e5e6e6"/><path d="M22.56,89.78c2.74-9.47,7.2-29.06,11.51-29.06,8.6,0,4.91,14.49,3.65,17.09S32.52,86,30,93.72C29.22,96.09,20.64,96.45,22.56,89.78Z" fill="#ca9067"/><path d="M39.49,58.37s-11-1.67-15.26,21.16c0,0,6.8,5.89,10.9,4.74,0,0,5.9-12.18,6.28-15.77S42.18,61.06,39.49,58.37Z" fill="#e5e6e6"/><path d="M24.6,77.67s1.55,2.11,11,5.32l-1,2.82s-7.44-1.67-10.77-5.13Z" fill="#cfd1d2"/><path d="M87.44,90.3c-2.74-9.48-7.2-29.07-11.51-29.07-8.6,0-4.91,14.49-3.65,17.1s5.2,8.23,7.72,15.91C80.78,96.61,89.36,97,87.44,90.3Z" fill="#ca9067"/><path d="M70.51,58.88s11-1.66,15.26,21.16c0,0-6.8,5.9-10.9,4.74,0,0-5.9-12.18-6.28-15.77S67.82,61.58,70.51,58.88Z" fill="#e5e6e6"/><path d="M85.39,78.12s-1.54,2.18-11,5.38l1,2.82s7.44-1.67,10.77-5.13Z" fill="#cfd1d2"/><path d="M62.37,56.57c-1.16-1-1.55-6.49-1.55-6.49l-11.41.32s-.13,5.2-2.87,6.46l8.22,24.46Z" fill="#b7784b"/><polygon points="59.04 64.87 50.87 64.87 52.82 61.71 53.42 60.75 53.88 61.88 54.72 63.92 55.9 61.82 56.49 60.75 57.01 61.59 59.04 64.87" fill="#c3c2c2"/><path d="M37.36,108c11,4.83,35.9,1,35.9,1l-.52,14.36s-21.66,4.4-35.89-1C36.85,122.39,35.91,110.79,37.36,108Z" fill="#9a9180"/><path d="M73.51,61.08C72.73,58.64,68,57.9,65.27,57a16.66,16.66,0,0,1-3.55-1.42C61.2,59.57,55,64,55,64s-6.61-4.62-6.87-8.67A20.94,20.94,0,0,1,44.07,57c-2.74.88-7.63,1.76-8.41,4.21,0,0,3.23,11.13,3.06,12.49-1.1,9.1-2.9,44.06-2.9,44.06l38.21-.6s-2.74-29.06.17-44.62C74.45,71.22,73.51,61.08,73.51,61.08Z" fill="#e5e6e6"/><path d="M30.08,113s0-19-.34-20.86-1.41-2.77-3.25-3.43-3.93.48-4.44,3c-1.46,7.31,2.84,18.53,2.66,22.1s-2.84,8-2.55,10.22,2.31,5.2,3,5.15,3.33-2.49,3.65-9.29c0,0,1.08,2.49,2.11,1.93S30.31,114.64,30.08,113Z" fill="#ca9067"/><path d="M56.5,60.75l3.33,5.39,4.68-9-2.63-2.08A22.89,22.89,0,0,1,56.5,60.75Z" fill="#cfd1d2"/><path d="M79.92,113.46s0-19,.34-20.86,1.41-2.77,3.25-3.42,3.93.47,4.44,3c1.46,7.32-2.84,18.53-2.66,22.1s2.84,8,2.55,10.23-2.31,5.2-3,5.14-3.33-2.49-3.65-9.29c0,0-1.08,2.49-2.11,1.94S79.69,115.16,79.92,113.46Z" fill="#ca9067"/><path d="M50.43,48.33l9-.12A4,4,0,0,1,55.29,52C50.82,52,50.43,48.33,50.43,48.33Z" fill="#fff"/><path d="M53.42,60.75l-3.33,5.39-4.69-9L48,55.11A23,23,0,0,0,53.42,60.75Z" fill="#cfd1d2"/><path d="M53.63,68.62v48.91l2.15,0,.12-48.85s-.13-3.78,1.8-6l-1.2-2S53.63,62.81,53.63,68.62Z" fill="#c3c2c2"/><circle cx="55.21" cy="65.82" r="0.73" fill="#fff"/><circle cx="54.78" cy="72.29" r="0.73" fill="#fff"/><circle cx="54.78" cy="78.47" r="0.73" fill="#fff"/><circle cx="54.78" cy="84.68" r="0.73" fill="#fff"/><circle cx="54.78" cy="90.93" r="0.73" fill="#fff"/><circle cx="54.78" cy="97.16" r="0.73" fill="#fff"/><circle cx="54.78" cy="103.39" r="0.73" fill="#fff"/><circle cx="54.78" cy="109.62" r="0.73" fill="#fff"/><circle cx="54.78" cy="115.85" r="0.73" fill="#fff"/><path d="M69.72,78.85a18.4,18.4,0,0,1-.83,5.57h-8a18.6,18.6,0,0,1-.82-5.57,17,17,0,0,1,.82-5.29h8A16.73,16.73,0,0,1,69.72,78.85Z" fill="#cfd1d2"/><g clip-path="url(#clip-path)"><path d="M.8,116.56a.24.24,0,0,0,0-.47.24.24,0,0,0,0,.47Z" fill="#410099"/><path d="M6.13,116.56a.24.24,0,0,0,0-.47.24.24,0,0,0,0,.47Z" fill="#410099"/><path d="M22.12,116.56a.24.24,0,0,0,0-.47.24.24,0,0,0,0,.47Z" fill="#410099"/><path d="M43.45,116.56a.24.24,0,0,0,0-.47.24.24,0,0,0,0,.47Z" fill="#410099"/><path d="M59.44,116.56a.24.24,0,0,0,0-.47.24.24,0,0,0,0,.47Z" fill="#410099"/><path d="M70.1,116.56a.24.24,0,0,0,0-.47.24.24,0,0,0,0,.47Z" fill="#410099"/><path d="M64.77,116.56a.24.24,0,0,0,0-.47.24.24,0,0,0,0,.47Z" fill="#410099"/><path d="M38.12,116.56a.24.24,0,0,0,0-.47.24.24,0,0,0,0,.47Z" fill="#410099"/><path d="M11.46,116.56a.24.24,0,0,0,0-.47.24.24,0,0,0,0,.47Z" fill="#410099"/><path d="M16.79,116.56a.24.24,0,0,0,0-.47.24.24,0,0,0,0,.47Z" fill="#410099"/><path d="M48.78,116.56a.24.24,0,0,0,0-.47.24.24,0,0,0,0,.47Z" fill="#410099"/><path d="M80.76,116.56a.24.24,0,0,0,0-.47.24.24,0,0,0,0,.47Z" fill="#410099"/><path d="M86.09,116.56a.24.24,0,0,0,0-.47.24.24,0,0,0,0,.47Z" fill="#410099"/><path d="M107.41,116.56a.24.24,0,0,0,0-.47.24.24,0,0,0,0,.47Z" fill="#410099"/><path d="M96.75,116.56a.24.24,0,0,0,0-.47.24.24,0,0,0,0,.47Z" fill="#410099"/><path d="M91.42,116.56a.24.24,0,0,0,0-.47.24.24,0,0,0,0,.47Z" fill="#410099"/><path d="M75.43,116.56a.24.24,0,0,0,0-.47.24.24,0,0,0,0,.47Z" fill="#410099"/><path d="M32.78,116.56a.24.24,0,0,0,0-.47.24.24,0,0,0,0,.47Z" fill="#410099"/><path d="M27.45,116.56a.24.24,0,0,0,0-.47.24.24,0,0,0,0,.47Z" fill="#410099"/><path d="M54.11,116.56a.24.24,0,0,0,0-.47.24.24,0,0,0,0,.47Z" fill="#410099"/><path d="M102.08,116.56a.24.24,0,0,0,0-.47.24.24,0,0,0,0,.47Z" fill="#410099"/><path d="M3.32,120.63a.24.24,0,0,0,0-.47.24.24,0,0,0,0,.47Z" fill="#410099"/><path d="M19.31,120.63a.24.24,0,0,0,0-.47.24.24,0,0,0,0,.47Z" fill="#410099"/><path d="M40.63,120.63a.24.24,0,0,0,0-.47.24.24,0,0,0,0,.47Z" fill="#410099"/><path d="M56.62,120.63a.24.24,0,0,0,0-.47.24.24,0,0,0,0,.47Z" fill="#410099"/><path d="M67.28,120.63a.24.24,0,0,0,0-.47.24.24,0,0,0,0,.47Z" fill="#410099"/><path d="M62,120.63a.24.24,0,0,0,0-.47.24.24,0,0,0,0,.47Z" fill="#410099"/><path d="M35.3,120.63a.24.24,0,0,0,0-.47.24.24,0,0,0,0,.47Z" fill="#410099"/><path d="M8.65,120.63a.24.24,0,0,0,0-.47.24.24,0,0,0,0,.47Z" fill="#410099"/><path d="M14,120.63a.24.24,0,0,0,0-.47.24.24,0,0,0,0,.47Z" fill="#410099"/><path d="M46,120.63a.24.24,0,0,0,0-.47.24.24,0,0,0,0,.47Z" fill="#410099"/><path d="M77.94,120.63a.24.24,0,0,0,0-.47.24.24,0,0,0,0,.47Z" fill="#410099"/><path d="M83.27,120.63a.24.24,0,0,0,0-.47.24.24,0,0,0,0,.47Z" fill="#410099"/><path d="M104.59,120.63a.24.24,0,0,0,0-.47.24.24,0,0,0,0,.47Z" fill="#410099"/><path d="M93.93,120.63a.24.24,0,0,0,0-.47.24.24,0,0,0,0,.47Z" fill="#410099"/><path d="M88.6,120.63a.24.24,0,0,0,0-.47.24.24,0,0,0,0,.47Z" fill="#410099"/><path d="M72.61,120.63a.24.24,0,0,0,0-.47.24.24,0,0,0,0,.47Z" fill="#410099"/><path d="M30,120.63a.24.24,0,0,0,0-.47.24.24,0,0,0,0,.47Z" fill="#410099"/><path d="M24.64,120.63a.24.24,0,0,0,0-.47.24.24,0,0,0,0,.47Z" fill="#410099"/><path d="M51.29,120.63a.24.24,0,0,0,0-.47.24.24,0,0,0,0,.47Z" fill="#410099"/><path d="M109.92,120.63a.24.24,0,0,0,0-.47.24.24,0,0,0,0,.47Z" fill="#410099"/><path d="M99.26,120.63a.24.24,0,0,0,0-.47.24.24,0,0,0,0,.47Z" fill="#410099"/><path d="M3.32,112.5a.24.24,0,0,0,0-.47.24.24,0,0,0,0,.47Z" fill="#410099"/><path d="M19.31,112.5a.24.24,0,0,0,0-.47.24.24,0,0,0,0,.47Z" fill="#410099"/><path d="M40.63,112.5a.24.24,0,0,0,0-.47.24.24,0,0,0,0,.47Z" fill="#410099"/><path d="M56.62,112.5a.24.24,0,0,0,0-.47.24.24,0,0,0,0,.47Z" fill="#410099"/><path d="M67.28,112.5a.24.24,0,0,0,0-.47.24.24,0,0,0,0,.47Z" fill="#410099"/><path d="M62,112.5a.24.24,0,0,0,0-.47.24.24,0,0,0,0,.47Z" fill="#410099"/><path d="M35.3,112.5a.24.24,0,0,0,0-.47.24.24,0,0,0,0,.47Z" fill="#410099"/><path d="M8.65,112.5a.24.24,0,0,0,0-.47.24.24,0,0,0,0,.47Z" fill="#410099"/><path d="M14,112.5a.24.24,0,0,0,0-.47.24.24,0,0,0,0,.47Z" fill="#410099"/><path d="M46,112.5a.24.24,0,0,0,0-.47.24.24,0,0,0,0,.47Z" fill="#410099"/><path d="M77.94,112.5a.24.24,0,0,0,0-.47.24.24,0,0,0,0,.47Z" fill="#410099"/><path d="M83.27,112.5a.24.24,0,0,0,0-.47.24.24,0,0,0,0,.47Z" fill="#410099"/><path d="M104.59,112.5a.24.24,0,0,0,0-.47.24.24,0,0,0,0,.47Z" fill="#410099"/><path d="M93.93,112.5a.24.24,0,0,0,0-.47.24.24,0,0,0,0,.47Z" fill="#410099"/><path d="M88.6,112.5a.24.24,0,0,0,0-.47.24.24,0,0,0,0,.47Z" fill="#410099"/><path d="M72.61,112.5a.24.24,0,0,0,0-.47.24.24,0,0,0,0,.47Z" fill="#410099"/><path d="M30,112.5a.24.24,0,0,0,0-.47.24.24,0,0,0,0,.47Z" fill="#410099"/><path d="M24.64,112.5a.24.24,0,0,0,0-.47.24.24,0,0,0,0,.47Z" fill="#410099"/><path d="M51.29,112.5a.24.24,0,0,0,0-.47.24.24,0,0,0,0,.47Z" fill="#410099"/><path d="M109.92,112.5a.24.24,0,0,0,0-.47.24.24,0,0,0,0,.47Z" fill="#410099"/><path d="M99.26,112.5a.24.24,0,0,0,0-.47.24.24,0,0,0,0,.47Z" fill="#410099"/><path d="M.8,108.43a.24.24,0,0,0,0-.47.24.24,0,0,0,0,.47Z" fill="#410099"/><path d="M6.13,108.43a.24.24,0,0,0,0-.47.24.24,0,0,0,0,.47Z" fill="#410099"/><path d="M22.12,108.43a.24.24,0,0,0,0-.47.24.24,0,0,0,0,.47Z" fill="#410099"/><path d="M43.45,108.43a.24.24,0,0,0,0-.47.24.24,0,0,0,0,.47Z" fill="#410099"/><path d="M59.44,108.43a.24.24,0,0,0,0-.47.24.24,0,0,0,0,.47Z" fill="#410099"/><path d="M70.1,108.43a.24.24,0,0,0,0-.47.24.24,0,0,0,0,.47Z" fill="#410099"/><path d="M64.77,108.43a.24.24,0,0,0,0-.47.24.24,0,0,0,0,.47Z" fill="#410099"/><path d="M38.12,108.43a.24.24,0,0,0,0-.47.24.24,0,0,0,0,.47Z" fill="#410099"/><path d="M11.46,108.43a.24.24,0,0,0,0-.47.24.24,0,0,0,0,.47Z" fill="#410099"/><path d="M16.79,108.43a.24.24,0,0,0,0-.47.24.24,0,0,0,0,.47Z" fill="#410099"/><path d="M48.78,108.43a.24.24,0,0,0,0-.47.24.24,0,0,0,0,.47Z" fill="#410099"/><path d="M80.76,108.43a.24.24,0,0,0,0-.47.24.24,0,0,0,0,.47Z" fill="#410099"/><path d="M86.09,108.43a.24.24,0,0,0,0-.47.24.24,0,0,0,0,.47Z" fill="#410099"/><path d="M107.41,108.43a.24.24,0,0,0,0-.47.24.24,0,0,0,0,.47Z" fill="#410099"/><path d="M96.75,108.43a.24.24,0,0,0,0-.47.24.24,0,0,0,0,.47Z" fill="#410099"/><path d="M91.42,108.43a.24.24,0,0,0,0-.47.24.24,0,0,0,0,.47Z" fill="#410099"/><path d="M75.43,108.43a.24.24,0,0,0,0-.47.24.24,0,0,0,0,.47Z" fill="#410099"/><path d="M32.78,108.43a.24.24,0,0,0,0-.47.24.24,0,0,0,0,.47Z" fill="#410099"/><path d="M27.45,108.43a.24.24,0,0,0,0-.47.24.24,0,0,0,0,.47Z" fill="#410099"/><path d="M54.11,108.43a.24.24,0,0,0,0-.47.24.24,0,0,0,0,.47Z" fill="#410099"/><path d="M102.08,108.43a.24.24,0,0,0,0-.47.24.24,0,0,0,0,.47Z" fill="#410099"/><path d="M3.32,104.37a.24.24,0,0,0,0-.47.24.24,0,0,0,0,.47Z" fill="#410099"/><path d="M19.31,104.37a.24.24,0,0,0,0-.47.24.24,0,0,0,0,.47Z" fill="#410099"/><path d="M40.63,104.37a.24.24,0,0,0,0-.47.24.24,0,0,0,0,.47Z" fill="#410099"/><path d="M56.62,104.37a.24.24,0,0,0,0-.47.24.24,0,0,0,0,.47Z" fill="#410099"/><path d="M67.28,104.37a.24.24,0,0,0,0-.47.24.24,0,0,0,0,.47Z" fill="#410099"/><path d="M62,104.37a.24.24,0,0,0,0-.47.24.24,0,0,0,0,.47Z" fill="#410099"/><path d="M35.3,104.37a.24.24,0,0,0,0-.47.24.24,0,0,0,0,.47Z" fill="#410099"/><path d="M8.65,104.37a.24.24,0,0,0,0-.47.24.24,0,0,0,0,.47Z" fill="#410099"/><path d="M14,104.37a.24.24,0,0,0,0-.47.24.24,0,0,0,0,.47Z" fill="#410099"/><path d="M46,104.37a.24.24,0,0,0,0-.47.24.24,0,0,0,0,.47Z" fill="#410099"/><path d="M77.94,104.37a.24.24,0,0,0,0-.47.24.24,0,0,0,0,.47Z" fill="#410099"/><path d="M83.27,104.37a.24.24,0,0,0,0-.47.24.24,0,0,0,0,.47Z" fill="#410099"/><path d="M104.59,104.37a.24.24,0,0,0,0-.47.24.24,0,0,0,0,.47Z" fill="#410099"/><path d="M93.93,104.37a.24.24,0,0,0,0-.47.24.24,0,0,0,0,.47Z" fill="#410099"/><path d="M88.6,104.37a.24.24,0,0,0,0-.47.24.24,0,0,0,0,.47Z" fill="#410099"/><path d="M72.61,104.37a.24.24,0,0,0,0-.47.24.24,0,0,0,0,.47Z" fill="#410099"/><path d="M30,104.37a.24.24,0,0,0,0-.47.24.24,0,0,0,0,.47Z" fill="#410099"/><path d="M24.64,104.37a.24.24,0,0,0,0-.47.24.24,0,0,0,0,.47Z" fill="#410099"/><path d="M51.29,104.37a.24.24,0,0,0,0-.47.24.24,0,0,0,0,.47Z" fill="#410099"/><path d="M109.92,104.37a.24.24,0,0,0,0-.47.24.24,0,0,0,0,.47Z" fill="#410099"/><path d="M99.26,104.37a.24.24,0,0,0,0-.47.24.24,0,0,0,0,.47Z" fill="#410099"/><path d="M.8,100.3a.24.24,0,0,0,0-.47.24.24,0,0,0,0,.47Z" fill="#410099"/><path d="M6.13,100.3a.24.24,0,0,0,0-.47.24.24,0,0,0,0,.47Z" fill="#410099"/><path d="M22.12,100.3a.24.24,0,0,0,0-.47.24.24,0,0,0,0,.47Z" fill="#410099"/><path d="M43.45,100.3a.24.24,0,0,0,0-.47.24.24,0,0,0,0,.47Z" fill="#410099"/><path d="M59.44,100.3a.24.24,0,0,0,0-.47.24.24,0,0,0,0,.47Z" fill="#410099"/><path d="M70.1,100.3a.24.24,0,0,0,0-.47.24.24,0,0,0,0,.47Z" fill="#410099"/><path d="M64.77,100.3a.24.24,0,0,0,0-.47.24.24,0,0,0,0,.47Z" fill="#410099"/><path d="M38.12,100.3a.24.24,0,0,0,0-.47.24.24,0,0,0,0,.47Z" fill="#410099"/><path d="M11.46,100.3a.24.24,0,0,0,0-.47.24.24,0,0,0,0,.47Z" fill="#410099"/><path d="M16.79,100.3a.24.24,0,0,0,0-.47.24.24,0,0,0,0,.47Z" fill="#410099"/><path d="M48.78,100.3a.24.24,0,0,0,0-.47.24.24,0,0,0,0,.47Z" fill="#410099"/><path d="M80.76,100.3a.24.24,0,0,0,0-.47.24.24,0,0,0,0,.47Z" fill="#410099"/><path d="M86.09,100.3a.24.24,0,0,0,0-.47.24.24,0,0,0,0,.47Z" fill="#410099"/><path d="M107.41,100.3a.24.24,0,0,0,0-.47.24.24,0,0,0,0,.47Z" fill="#410099"/><path d="M96.75,100.3a.24.24,0,0,0,0-.47.24.24,0,0,0,0,.47Z" fill="#410099"/><path d="M91.42,100.3a.24.24,0,0,0,0-.47.24.24,0,0,0,0,.47Z" fill="#410099"/><path d="M75.43,100.3a.24.24,0,0,0,0-.47.24.24,0,0,0,0,.47Z" fill="#410099"/><path d="M32.78,100.3a.24.24,0,0,0,0-.47.24.24,0,0,0,0,.47Z" fill="#410099"/><path d="M27.45,100.3a.24.24,0,0,0,0-.47.24.24,0,0,0,0,.47Z" fill="#410099"/><path d="M54.11,100.3a.24.24,0,0,0,0-.47.24.24,0,0,0,0,.47Z" fill="#410099"/><path d="M102.08,100.3a.24.24,0,0,0,0-.47.24.24,0,0,0,0,.47Z" fill="#410099"/><path d="M3.32,96.24a.24.24,0,0,0,0-.47.24.24,0,0,0,0,.47Z" fill="#410099"/><path d="M19.31,96.24a.24.24,0,0,0,0-.47.24.24,0,0,0,0,.47Z" fill="#410099"/><path d="M40.63,96.24a.24.24,0,0,0,0-.47.24.24,0,0,0,0,.47Z" fill="#410099"/><path d="M56.62,96.24a.24.24,0,0,0,0-.47.24.24,0,0,0,0,.47Z" fill="#410099"/><path d="M67.28,96.24a.24.24,0,0,0,0-.47.24.24,0,0,0,0,.47Z" fill="#410099"/><path d="M62,96.24a.24.24,0,0,0,0-.47.24.24,0,0,0,0,.47Z" fill="#410099"/><path d="M35.3,96.24a.24.24,0,0,0,0-.47.24.24,0,0,0,0,.47Z" fill="#410099"/><path d="M8.65,96.24a.24.24,0,0,0,0-.47.24.24,0,0,0,0,.47Z" fill="#410099"/><path d="M14,96.24a.24.24,0,0,0,0-.47.24.24,0,0,0,0,.47Z" fill="#410099"/><path d="M46,96.24a.24.24,0,0,0,0-.47.24.24,0,0,0,0,.47Z" fill="#410099"/><path d="M77.94,96.24a.24.24,0,0,0,0-.47.24.24,0,0,0,0,.47Z" fill="#410099"/><path d="M83.27,96.24a.24.24,0,0,0,0-.47.24.24,0,0,0,0,.47Z" fill="#410099"/><path d="M104.59,96.24a.24.24,0,0,0,0-.47.24.24,0,0,0,0,.47Z" fill="#410099"/><path d="M93.93,96.24a.24.24,0,0,0,0-.47.24.24,0,0,0,0,.47Z" fill="#410099"/><path d="M88.6,96.24a.24.24,0,0,0,0-.47.24.24,0,0,0,0,.47Z" fill="#410099"/><path d="M72.61,96.24a.24.24,0,0,0,0-.47.24.24,0,0,0,0,.47Z" fill="#410099"/><path d="M30,96.24a.24.24,0,0,0,0-.47.24.24,0,0,0,0,.47Z" fill="#410099"/><path d="M24.64,96.24a.24.24,0,0,0,0-.47.24.24,0,0,0,0,.47Z" fill="#410099"/><path d="M51.29,96.24a.24.24,0,0,0,0-.47.24.24,0,0,0,0,.47Z" fill="#410099"/><path d="M109.92,96.24a.24.24,0,0,0,0-.47.24.24,0,0,0,0,.47Z" fill="#410099"/><path d="M99.26,96.24a.24.24,0,0,0,0-.47.24.24,0,0,0,0,.47Z" fill="#410099"/><path d="M.8,92.17a.24.24,0,0,0,0-.47.24.24,0,0,0,0,.47Z" fill="#410099"/><path d="M6.13,92.17a.24.24,0,0,0,0-.47.24.24,0,0,0,0,.47Z" fill="#410099"/><path d="M22.12,92.17a.24.24,0,0,0,0-.47.24.24,0,0,0,0,.47Z" fill="#410099"/><path d="M43.45,92.17a.24.24,0,0,0,0-.47.24.24,0,0,0,0,.47Z" fill="#410099"/><path d="M59.44,92.17a.24.24,0,0,0,0-.47.24.24,0,0,0,0,.47Z" fill="#410099"/><path d="M70.1,92.17a.24.24,0,0,0,0-.47.24.24,0,0,0,0,.47Z" fill="#410099"/><path d="M64.77,92.17a.24.24,0,0,0,0-.47.24.24,0,0,0,0,.47Z" fill="#410099"/><path d="M38.12,92.17a.24.24,0,0,0,0-.47.24.24,0,0,0,0,.47Z" fill="#410099"/><path d="M11.46,92.17a.24.24,0,0,0,0-.47.24.24,0,0,0,0,.47Z" fill="#410099"/><path d="M16.79,92.17a.24.24,0,0,0,0-.47.24.24,0,0,0,0,.47Z" fill="#410099"/><path d="M48.78,92.17a.24.24,0,0,0,0-.47.24.24,0,0,0,0,.47Z" fill="#410099"/><path d="M80.76,92.17a.24.24,0,0,0,0-.47.24.24,0,0,0,0,.47Z" fill="#410099"/><path d="M86.09,92.17a.24.24,0,0,0,0-.47.24.24,0,0,0,0,.47Z" fill="#410099"/><path d="M107.41,92.17a.24.24,0,0,0,0-.47.24.24,0,0,0,0,.47Z" fill="#410099"/><path d="M96.75,92.17a.24.24,0,0,0,0-.47.24.24,0,0,0,0,.47Z" fill="#410099"/><path d="M91.42,92.17a.24.24,0,0,0,0-.47.24.24,0,0,0,0,.47Z" fill="#410099"/><path d="M75.43,92.17a.24.24,0,0,0,0-.47.24.24,0,0,0,0,.47Z" fill="#410099"/><path d="M32.78,92.17a.24.24,0,0,0,0-.47.24.24,0,0,0,0,.47Z" fill="#410099"/><path d="M27.45,92.17a.24.24,0,0,0,0-.47.24.24,0,0,0,0,.47Z" fill="#410099"/><path d="M54.11,92.17a.24.24,0,0,0,0-.47.24.24,0,0,0,0,.47Z" fill="#410099"/><path d="M102.08,92.17a.24.24,0,0,0,0-.47.24.24,0,0,0,0,.47Z" fill="#410099"/><path d="M3.32,88.1a.24.24,0,0,0,0-.47.24.24,0,0,0,0,.47Z" fill="#410099"/><path d="M19.31,88.1a.24.24,0,0,0,0-.47.24.24,0,0,0,0,.47Z" fill="#410099"/><path d="M40.63,88.1a.24.24,0,0,0,0-.47.24.24,0,0,0,0,.47Z" fill="#410099"/><path d="M56.62,88.1a.24.24,0,0,0,0-.47.24.24,0,0,0,0,.47Z" fill="#410099"/><path d="M67.28,88.1a.24.24,0,0,0,0-.47.24.24,0,0,0,0,.47Z" fill="#410099"/><path d="M62,88.1a.24.24,0,0,0,0-.47.24.24,0,0,0,0,.47Z" fill="#410099"/><path d="M35.3,88.1a.24.24,0,0,0,0-.47.24.24,0,0,0,0,.47Z" fill="#410099"/><path d="M8.65,88.1a.24.24,0,0,0,0-.47.24.24,0,0,0,0,.47Z" fill="#410099"/><path d="M14,88.1a.24.24,0,0,0,0-.47.24.24,0,0,0,0,.47Z" fill="#410099"/><path d="M46,88.1a.24.24,0,0,0,0-.47.24.24,0,0,0,0,.47Z" fill="#410099"/><path d="M77.94,88.1a.24.24,0,0,0,0-.47.24.24,0,0,0,0,.47Z" fill="#410099"/><path d="M83.27,88.1a.24.24,0,0,0,0-.47.24.24,0,0,0,0,.47Z" fill="#410099"/><path d="M104.59,88.1a.24.24,0,0,0,0-.47.24.24,0,0,0,0,.47Z" fill="#410099"/><path d="M93.93,88.1a.24.24,0,0,0,0-.47.24.24,0,0,0,0,.47Z" fill="#410099"/><path d="M88.6,88.1a.24.24,0,0,0,0-.47.24.24,0,0,0,0,.47Z" fill="#410099"/><path d="M72.61,88.1a.24.24,0,0,0,0-.47.24.24,0,0,0,0,.47Z" fill="#410099"/><path d="M30,88.1a.24.24,0,0,0,0-.47.24.24,0,0,0,0,.47Z" fill="#410099"/><path d="M24.64,88.1a.24.24,0,0,0,0-.47.24.24,0,0,0,0,.47Z" fill="#410099"/><path d="M51.29,88.1a.24.24,0,0,0,0-.47.24.24,0,0,0,0,.47Z" fill="#410099"/><path d="M109.92,88.1a.24.24,0,0,0,0-.47.24.24,0,0,0,0,.47Z" fill="#410099"/><path d="M99.26,88.1a.24.24,0,0,0,0-.47.24.24,0,0,0,0,.47Z" fill="#410099"/><path d="M1.17,84a.24.24,0,0,0,0-.47.24.24,0,0,0,0,.47Z" fill="#410099"/><path d="M6.5,84a.24.24,0,0,0,0-.47.24.24,0,0,0,0,.47Z" fill="#410099"/><path d="M22.49,84a.24.24,0,0,0,0-.47.24.24,0,0,0,0,.47Z" fill="#410099"/><path d="M43.82,84a.24.24,0,0,0,0-.47.24.24,0,0,0,0,.47Z" fill="#410099"/><path d="M59.81,84a.24.24,0,0,0,0-.47.24.24,0,0,0,0,.47Z" fill="#410099"/><path d="M70.47,84a.24.24,0,0,0,0-.47.24.24,0,0,0,0,.47Z" fill="#410099"/><path d="M65.14,84a.24.24,0,0,0,0-.47.24.24,0,0,0,0,.47Z" fill="#410099"/><path d="M38.49,84a.24.24,0,0,0,0-.47.24.24,0,0,0,0,.47Z" fill="#410099"/><path d="M11.83,84a.24.24,0,0,0,0-.47.24.24,0,0,0,0,.47Z" fill="#410099"/><path d="M17.16,84a.24.24,0,0,0,0-.47.24.24,0,0,0,0,.47Z" fill="#410099"/><path d="M49.15,84a.24.24,0,0,0,0-.47.24.24,0,0,0,0,.47Z" fill="#410099"/><path d="M81.13,84a.24.24,0,0,0,0-.47.24.24,0,0,0,0,.47Z" fill="#410099"/><path d="M86.46,84a.24.24,0,0,0,0-.47.24.24,0,0,0,0,.47Z" fill="#410099"/><path d="M107.78,84a.24.24,0,0,0,0-.47.24.24,0,0,0,0,.47Z" fill="#410099"/><path d="M97.12,84a.24.24,0,0,0,0-.47.24.24,0,0,0,0,.47Z" fill="#410099"/><path d="M91.79,84a.24.24,0,0,0,0-.47.24.24,0,0,0,0,.47Z" fill="#410099"/><path d="M75.8,84a.24.24,0,0,0,0-.47.24.24,0,0,0,0,.47Z" fill="#410099"/><path d="M33.16,84a.24.24,0,0,0,0-.47.24.24,0,0,0,0,.47Z" fill="#410099"/><path d="M27.82,84a.24.24,0,0,0,0-.47.24.24,0,0,0,0,.47Z" fill="#410099"/><path d="M54.48,84a.24.24,0,0,0,0-.47.24.24,0,0,0,0,.47Z" fill="#410099"/><path d="M102.45,84a.24.24,0,0,0,0-.47.24.24,0,0,0,0,.47Z" fill="#410099"/><path d="M3.69,80a.24.24,0,0,0,0-.47.24.24,0,0,0,0,.47Z" fill="#410099"/><path d="M19.68,80a.24.24,0,0,0,0-.47.24.24,0,0,0,0,.47Z" fill="#410099"/><path d="M41,80a.24.24,0,0,0,0-.47A.24.24,0,0,0,41,80Z" fill="#410099"/><path d="M57,80a.24.24,0,0,0,0-.47A.24.24,0,0,0,57,80Z" fill="#410099"/><path d="M67.65,80a.24.24,0,0,0,0-.47.24.24,0,0,0,0,.47Z" fill="#410099"/><path d="M62.32,80a.24.24,0,0,0,0-.47.24.24,0,0,0,0,.47Z" fill="#410099"/><path d="M35.67,80a.24.24,0,0,0,0-.47.24.24,0,0,0,0,.47Z" fill="#410099"/><path d="M9,80a.24.24,0,0,0,0-.47A.24.24,0,0,0,9,80Z" fill="#410099"/><path d="M14.35,80a.24.24,0,0,0,0-.47.24.24,0,0,0,0,.47Z" fill="#410099"/><path d="M46.33,80a.24.24,0,0,0,0-.47.24.24,0,0,0,0,.47Z" fill="#410099"/><path d="M78.31,80a.24.24,0,0,0,0-.47.24.24,0,0,0,0,.47Z" fill="#410099"/><path d="M83.64,80a.24.24,0,0,0,0-.47.24.24,0,0,0,0,.47Z" fill="#410099"/><path d="M105,80a.24.24,0,0,0,0-.47.24.24,0,0,0,0,.47Z" fill="#410099"/><path d="M94.3,80a.24.24,0,0,0,0-.47.24.24,0,0,0,0,.47Z" fill="#410099"/><path d="M89,80a.24.24,0,0,0,0-.47A.24.24,0,0,0,89,80Z" fill="#410099"/><path d="M73,80a.24.24,0,0,0,0-.47A.24.24,0,0,0,73,80Z" fill="#410099"/><path d="M30.34,80a.24.24,0,0,0,0-.47.24.24,0,0,0,0,.47Z" fill="#410099"/><path d="M25,80a.24.24,0,0,0,0-.47A.24.24,0,0,0,25,80Z" fill="#410099"/><path d="M51.66,80a.24.24,0,0,0,0-.47.24.24,0,0,0,0,.47Z" fill="#410099"/><path d="M99.63,80a.24.24,0,0,0,0-.47.24.24,0,0,0,0,.47Z" fill="#410099"/><path d="M1.17,75.91a.24.24,0,0,0,0-.47.24.24,0,0,0,0,.47Z" fill="#410099"/><path d="M6.5,75.91a.24.24,0,0,0,0-.47.24.24,0,0,0,0,.47Z" fill="#410099"/><path d="M22.49,75.91a.24.24,0,0,0,0-.47.24.24,0,0,0,0,.47Z" fill="#410099"/><path d="M43.82,75.91a.24.24,0,0,0,0-.47.24.24,0,0,0,0,.47Z" fill="#410099"/><path d="M59.81,75.91a.24.24,0,0,0,0-.47.24.24,0,0,0,0,.47Z" fill="#410099"/><path d="M70.47,75.91a.24.24,0,0,0,0-.47.24.24,0,0,0,0,.47Z" fill="#410099"/><path d="M65.14,75.91a.24.24,0,0,0,0-.47.24.24,0,0,0,0,.47Z" fill="#410099"/><path d="M38.49,75.91a.24.24,0,0,0,0-.47.24.24,0,0,0,0,.47Z" fill="#410099"/><path d="M11.83,75.91a.24.24,0,0,0,0-.47.24.24,0,0,0,0,.47Z" fill="#410099"/><path d="M17.16,75.91a.24.24,0,0,0,0-.47.24.24,0,0,0,0,.47Z" fill="#410099"/><path d="M49.15,75.91a.24.24,0,0,0,0-.47.24.24,0,0,0,0,.47Z" fill="#410099"/><path d="M81.13,75.91a.24.24,0,0,0,0-.47.24.24,0,0,0,0,.47Z" fill="#410099"/><path d="M86.46,75.91a.24.24,0,0,0,0-.47.24.24,0,0,0,0,.47Z" fill="#410099"/><path d="M107.78,75.91a.24.24,0,0,0,0-.47.24.24,0,0,0,0,.47Z" fill="#410099"/><path d="M97.12,75.91a.24.24,0,0,0,0-.47.24.24,0,0,0,0,.47Z" fill="#410099"/><path d="M91.79,75.91a.24.24,0,0,0,0-.47.24.24,0,0,0,0,.47Z" fill="#410099"/><path d="M75.8,75.91a.24.24,0,0,0,0-.47.24.24,0,0,0,0,.47Z" fill="#410099"/><path d="M33.16,75.91a.24.24,0,0,0,0-.47.24.24,0,0,0,0,.47Z" fill="#410099"/><path d="M27.82,75.91a.24.24,0,0,0,0-.47.24.24,0,0,0,0,.47Z" fill="#410099"/><path d="M54.48,75.91a.24.24,0,0,0,0-.47.24.24,0,0,0,0,.47Z" fill="#410099"/><path d="M102.45,75.91a.24.24,0,0,0,0-.47.24.24,0,0,0,0,.47Z" fill="#410099"/><path d="M3.69,71.84a.24.24,0,0,0,0-.47.24.24,0,0,0,0,.47Z" fill="#410099"/><path d="M19.68,71.84a.24.24,0,0,0,0-.47.24.24,0,0,0,0,.47Z" fill="#410099"/><path d="M41,71.84a.24.24,0,0,0,0-.47.24.24,0,0,0,0,.47Z" fill="#410099"/><path d="M57,71.84a.24.24,0,0,0,0-.47.24.24,0,0,0,0,.47Z" fill="#410099"/><path d="M67.65,71.84a.24.24,0,0,0,0-.47.24.24,0,0,0,0,.47Z" fill="#410099"/><path d="M62.32,71.84a.24.24,0,0,0,0-.47.24.24,0,0,0,0,.47Z" fill="#410099"/><path d="M35.67,71.84a.24.24,0,0,0,0-.47.24.24,0,0,0,0,.47Z" fill="#410099"/><path d="M9,71.84a.24.24,0,0,0,0-.47.24.24,0,0,0,0,.47Z" fill="#410099"/><path d="M14.35,71.84a.24.24,0,0,0,0-.47.24.24,0,0,0,0,.47Z" fill="#410099"/><path d="M46.33,71.84a.24.24,0,0,0,0-.47.24.24,0,0,0,0,.47Z" fill="#410099"/><path d="M78.31,71.84a.24.24,0,0,0,0-.47.24.24,0,0,0,0,.47Z" fill="#410099"/><path d="M83.64,71.84a.24.24,0,0,0,0-.47.24.24,0,0,0,0,.47Z" fill="#410099"/><path d="M105,71.84a.24.24,0,0,0,0-.47.24.24,0,0,0,0,.47Z" fill="#410099"/><path d="M94.3,71.84a.24.24,0,0,0,0-.47.24.24,0,0,0,0,.47Z" fill="#410099"/><path d="M89,71.84a.24.24,0,0,0,0-.47.24.24,0,0,0,0,.47Z" fill="#410099"/><path d="M73,71.84a.24.24,0,0,0,0-.47.24.24,0,0,0,0,.47Z" fill="#410099"/><path d="M30.34,71.84a.24.24,0,0,0,0-.47.24.24,0,0,0,0,.47Z" fill="#410099"/><path d="M25,71.84a.24.24,0,0,0,0-.47.24.24,0,0,0,0,.47Z" fill="#410099"/><path d="M51.66,71.84a.24.24,0,0,0,0-.47.24.24,0,0,0,0,.47Z" fill="#410099"/><path d="M99.63,71.84a.24.24,0,0,0,0-.47.24.24,0,0,0,0,.47Z" fill="#410099"/><path d="M1.17,67.78a.24.24,0,0,0,0-.47.24.24,0,0,0,0,.47Z" fill="#410099"/><path d="M6.5,67.78a.24.24,0,0,0,0-.47.24.24,0,0,0,0,.47Z" fill="#410099"/><path d="M22.49,67.78a.24.24,0,0,0,0-.47.24.24,0,0,0,0,.47Z" fill="#410099"/><path d="M43.82,67.78a.24.24,0,0,0,0-.47.24.24,0,0,0,0,.47Z" fill="#410099"/><path d="M59.81,67.78a.24.24,0,0,0,0-.47.24.24,0,0,0,0,.47Z" fill="#410099"/><path d="M70.47,67.78a.24.24,0,0,0,0-.47.24.24,0,0,0,0,.47Z" fill="#410099"/><path d="M65.14,67.78a.24.24,0,0,0,0-.47.24.24,0,0,0,0,.47Z" fill="#410099"/><path d="M38.49,67.78a.24.24,0,0,0,0-.47.24.24,0,0,0,0,.47Z" fill="#410099"/><path d="M11.83,67.78a.24.24,0,0,0,0-.47.24.24,0,0,0,0,.47Z" fill="#410099"/><path d="M17.16,67.78a.24.24,0,0,0,0-.47.24.24,0,0,0,0,.47Z" fill="#410099"/><path d="M49.15,67.78a.24.24,0,0,0,0-.47.24.24,0,0,0,0,.47Z" fill="#410099"/><path d="M81.13,67.78a.24.24,0,0,0,0-.47.24.24,0,0,0,0,.47Z" fill="#410099"/><path d="M86.46,67.78a.24.24,0,0,0,0-.47.24.24,0,0,0,0,.47Z" fill="#410099"/><path d="M107.78,67.78a.24.24,0,0,0,0-.47.24.24,0,0,0,0,.47Z" fill="#410099"/><path d="M97.12,67.78a.24.24,0,0,0,0-.47.24.24,0,0,0,0,.47Z" fill="#410099"/><path d="M91.79,67.78a.24.24,0,0,0,0-.47.24.24,0,0,0,0,.47Z" fill="#410099"/><path d="M75.8,67.78a.24.24,0,0,0,0-.47.24.24,0,0,0,0,.47Z" fill="#410099"/><path d="M33.16,67.78a.24.24,0,0,0,0-.47.24.24,0,0,0,0,.47Z" fill="#410099"/><path d="M27.82,67.78a.24.24,0,0,0,0-.47.24.24,0,0,0,0,.47Z" fill="#410099"/><path d="M54.48,67.78a.24.24,0,0,0,0-.47.24.24,0,0,0,0,.47Z" fill="#410099"/><path d="M102.45,67.78a.24.24,0,0,0,0-.47.24.24,0,0,0,0,.47Z" fill="#410099"/><path d="M3.69,63.71a.24.24,0,0,0,0-.47.24.24,0,0,0,0,.47Z" fill="#410099"/><path d="M19.68,63.71a.24.24,0,0,0,0-.47.24.24,0,0,0,0,.47Z" fill="#410099"/><path d="M41,63.71a.24.24,0,0,0,0-.47.24.24,0,0,0,0,.47Z" fill="#410099"/><path d="M57,63.71a.24.24,0,0,0,0-.47.24.24,0,0,0,0,.47Z" fill="#410099"/><path d="M67.65,63.71a.24.24,0,0,0,0-.47.24.24,0,0,0,0,.47Z" fill="#410099"/><path d="M62.32,63.71a.24.24,0,0,0,0-.47.24.24,0,0,0,0,.47Z" fill="#410099"/><path d="M35.67,63.71a.24.24,0,0,0,0-.47.24.24,0,0,0,0,.47Z" fill="#410099"/><path d="M9,63.71a.24.24,0,0,0,0-.47.24.24,0,0,0,0,.47Z" fill="#410099"/><path d="M14.35,63.71a.24.24,0,0,0,0-.47.24.24,0,0,0,0,.47Z" fill="#410099"/><path d="M46.33,63.71a.24.24,0,0,0,0-.47.24.24,0,0,0,0,.47Z" fill="#410099"/><path d="M78.31,63.71a.24.24,0,0,0,0-.47.24.24,0,0,0,0,.47Z" fill="#410099"/><path d="M83.64,63.71a.24.24,0,0,0,0-.47.24.24,0,0,0,0,.47Z" fill="#410099"/><path d="M105,63.71a.24.24,0,0,0,0-.47.24.24,0,0,0,0,.47Z" fill="#410099"/><path d="M94.3,63.71a.24.24,0,0,0,0-.47.24.24,0,0,0,0,.47Z" fill="#410099"/><path d="M89,63.71a.24.24,0,0,0,0-.47.24.24,0,0,0,0,.47Z" fill="#410099"/><path d="M73,63.71a.24.24,0,0,0,0-.47.24.24,0,0,0,0,.47Z" fill="#410099"/><path d="M30.34,63.71a.24.24,0,0,0,0-.47.24.24,0,0,0,0,.47Z" fill="#410099"/><path d="M25,63.71a.24.24,0,0,0,0-.47.24.24,0,0,0,0,.47Z" fill="#410099"/><path d="M51.66,63.71a.24.24,0,0,0,0-.47.24.24,0,0,0,0,.47Z" fill="#410099"/><path d="M99.63,63.71a.24.24,0,0,0,0-.47.24.24,0,0,0,0,.47Z" fill="#410099"/><path d="M1.17,59.65a.24.24,0,0,0,0-.47.24.24,0,0,0,0,.47Z" fill="#410099"/><path d="M6.5,59.65a.24.24,0,0,0,0-.47.24.24,0,0,0,0,.47Z" fill="#410099"/><path d="M22.49,59.65a.24.24,0,0,0,0-.47.24.24,0,0,0,0,.47Z" fill="#410099"/><path d="M43.82,59.65a.24.24,0,0,0,0-.47.24.24,0,0,0,0,.47Z" fill="#410099"/><path d="M59.81,59.65a.24.24,0,0,0,0-.47.24.24,0,0,0,0,.47Z" fill="#410099"/><path d="M70.47,59.65a.24.24,0,0,0,0-.47.24.24,0,0,0,0,.47Z" fill="#410099"/><path d="M65.14,59.65a.24.24,0,0,0,0-.47.24.24,0,0,0,0,.47Z" fill="#410099"/><path d="M38.49,59.65a.24.24,0,0,0,0-.47.24.24,0,0,0,0,.47Z" fill="#410099"/><path d="M11.83,59.65a.24.24,0,0,0,0-.47.24.24,0,0,0,0,.47Z" fill="#410099"/><path d="M17.16,59.65a.24.24,0,0,0,0-.47.24.24,0,0,0,0,.47Z" fill="#410099"/><path d="M49.15,59.65a.24.24,0,0,0,0-.47.24.24,0,0,0,0,.47Z" fill="#410099"/><path d="M81.13,59.65a.24.24,0,0,0,0-.47.24.24,0,0,0,0,.47Z" fill="#410099"/><path d="M86.46,59.65a.24.24,0,0,0,0-.47.24.24,0,0,0,0,.47Z" fill="#410099"/><path d="M107.78,59.65a.24.24,0,0,0,0-.47.24.24,0,0,0,0,.47Z" fill="#410099"/><path d="M97.12,59.65a.24.24,0,0,0,0-.47.24.24,0,0,0,0,.47Z" fill="#410099"/><path d="M91.79,59.65a.24.24,0,0,0,0-.47.24.24,0,0,0,0,.47Z" fill="#410099"/><path d="M75.8,59.65a.24.24,0,0,0,0-.47.24.24,0,0,0,0,.47Z" fill="#410099"/><path d="M33.16,59.65a.24.24,0,0,0,0-.47.24.24,0,0,0,0,.47Z" fill="#410099"/><path d="M27.82,59.65a.24.24,0,0,0,0-.47.24.24,0,0,0,0,.47Z" fill="#410099"/><path d="M54.48,59.65a.24.24,0,0,0,0-.47.24.24,0,0,0,0,.47Z" fill="#410099"/><path d="M102.45,59.65a.24.24,0,0,0,0-.47.24.24,0,0,0,0,.47Z" fill="#410099"/><path d="M3.69,55.58a.24.24,0,0,0,0-.47.24.24,0,0,0,0,.47Z" fill="#410099"/><path d="M19.68,55.58a.24.24,0,0,0,0-.47.24.24,0,0,0,0,.47Z" fill="#410099"/><path d="M41,55.58a.24.24,0,0,0,0-.47.24.24,0,0,0,0,.47Z" fill="#410099"/><path d="M57,55.58a.24.24,0,0,0,0-.47.24.24,0,0,0,0,.47Z" fill="#410099"/><path d="M67.65,55.58a.24.24,0,0,0,0-.47.24.24,0,0,0,0,.47Z" fill="#410099"/><path d="M62.32,55.58a.24.24,0,0,0,0-.47.24.24,0,0,0,0,.47Z" fill="#410099"/><path d="M35.67,55.58a.24.24,0,0,0,0-.47.24.24,0,0,0,0,.47Z" fill="#410099"/><path d="M9,55.58a.24.24,0,0,0,0-.47.24.24,0,0,0,0,.47Z" fill="#410099"/><path d="M14.35,55.58a.24.24,0,0,0,0-.47.24.24,0,0,0,0,.47Z" fill="#410099"/><path d="M46.33,55.58a.24.24,0,0,0,0-.47.24.24,0,0,0,0,.47Z" fill="#410099"/><path d="M78.31,55.58a.24.24,0,0,0,0-.47.24.24,0,0,0,0,.47Z" fill="#410099"/><path d="M83.64,55.58a.24.24,0,0,0,0-.47.24.24,0,0,0,0,.47Z" fill="#410099"/><path d="M105,55.58a.24.24,0,0,0,0-.47.24.24,0,0,0,0,.47Z" fill="#410099"/><path d="M94.3,55.58a.24.24,0,0,0,0-.47.24.24,0,0,0,0,.47Z" fill="#410099"/><path d="M89,55.58a.24.24,0,0,0,0-.47.24.24,0,0,0,0,.47Z" fill="#410099"/><path d="M73,55.58a.24.24,0,0,0,0-.47.24.24,0,0,0,0,.47Z" fill="#410099"/><path d="M30.34,55.58a.24.24,0,0,0,0-.47.24.24,0,0,0,0,.47Z" fill="#410099"/><path d="M25,55.58a.24.24,0,0,0,0-.47.24.24,0,0,0,0,.47Z" fill="#410099"/><path d="M51.66,55.58a.24.24,0,0,0,0-.47.24.24,0,0,0,0,.47Z" fill="#410099"/><path d="M99.63,55.58a.24.24,0,0,0,0-.47.24.24,0,0,0,0,.47Z" fill="#410099"/></g><ellipse cx="64.75" cy="40.39" rx="3.76" ry="3.37" transform="translate(11.16 94.72) rotate(-77.35)"/><ellipse cx="43.31" cy="40.47" rx="2.28" ry="2.18" transform="translate(-15.96 40.58) rotate(-43.16)"/><path d="M47,42.16S45.27,40,43.47,41.8s1.48,6.31,3.66,7S47,42.16,47,42.16Z" fill="#ca9067"/><path d="M62.69,41.93s1.69-2.23,3.54-.47-1.3,6.36-3.46,7.14S62.69,41.93,62.69,41.93Z" fill="#ca9067"/><path d="M52.28,150.79c2.68,18.71.93,41.27.93,41.27s-7.75-5.88-15.14-5.78" fill="#9a9180"/><g clip-path="url(#clip-path-2)"><line x1="101.57" y1="88.14" x2="268.31" y2="88.14" fill="none" stroke="#410099" stroke-miterlimit="10" stroke-width="0.09"/><line x1="101.57" y1="66.13" x2="268.31" y2="66.13" fill="none" stroke="#410099" stroke-miterlimit="10" stroke-width="0.09"/><line x1="101.57" y1="80.13" x2="268.31" y2="80.13" fill="none" stroke="#410099" stroke-miterlimit="10" stroke-width="0.09"/><line x1="101.57" y1="64.13" x2="268.31" y2="64.13" fill="none" stroke="#410099" stroke-miterlimit="10" stroke-width="0.09"/><line x1="101.57" y1="72.13" x2="268.31" y2="72.13" fill="none" stroke="#410099" stroke-miterlimit="10" stroke-width="0.09"/><line x1="101.57" y1="63.13" x2="268.31" y2="63.13" fill="none" stroke="#410099" stroke-miterlimit="10" stroke-width="0.09"/><line x1="101.57" y1="68.13" x2="268.31" y2="68.13" fill="none" stroke="#410099" stroke-miterlimit="10" stroke-width="0.09"/><line x1="101.57" y1="62.13" x2="268.31" y2="62.13" fill="none" stroke="#410099" stroke-miterlimit="10" stroke-width="0.09"/><line x1="101.57" y1="112.14" x2="268.31" y2="112.14" fill="none" stroke="#410099" stroke-miterlimit="10" stroke-width="0.09"/><line x1="101.57" y1="96.14" x2="268.31" y2="96.14" fill="none" stroke="#410099" stroke-miterlimit="10" stroke-width="0.09"/><line x1="101.57" y1="108.14" x2="268.31" y2="108.14" fill="none" stroke="#410099" stroke-miterlimit="10" stroke-width="0.09"/><line x1="101.57" y1="92.14" x2="268.31" y2="92.14" fill="none" stroke="#410099" stroke-miterlimit="10" stroke-width="0.09"/><line x1="101.57" y1="104.14" x2="268.31" y2="104.14" fill="none" stroke="#410099" stroke-miterlimit="10" stroke-width="0.09"/><line x1="101.57" y1="84.13" x2="268.31" y2="84.13" fill="none" stroke="#410099" stroke-miterlimit="10" stroke-width="0.09"/><line x1="101.57" y1="100.14" x2="268.31" y2="100.14" fill="none" stroke="#410099" stroke-miterlimit="10" stroke-width="0.09"/><line x1="101.57" y1="76.13" x2="268.31" y2="76.13" fill="none" stroke="#410099" stroke-miterlimit="10" stroke-width="0.09"/><line x1="101.57" y1="106.14" x2="268.31" y2="106.14" fill="none" stroke="#410099" stroke-miterlimit="10" stroke-width="0.09"/><line x1="101.57" y1="82.13" x2="268.31" y2="82.13" fill="none" stroke="#410099" stroke-miterlimit="10" stroke-width="0.09"/><line x1="101.57" y1="98.14" x2="268.31" y2="98.14" fill="none" stroke="#410099" stroke-miterlimit="10" stroke-width="0.09"/><line x1="101.57" y1="78.13" x2="268.31" y2="78.13" fill="none" stroke="#410099" stroke-miterlimit="10" stroke-width="0.09"/><line x1="101.57" y1="90.14" x2="268.31" y2="90.14" fill="none" stroke="#410099" stroke-miterlimit="10" stroke-width="0.09"/><line x1="101.57" y1="74.13" x2="268.31" y2="74.13" fill="none" stroke="#410099" stroke-miterlimit="10" stroke-width="0.09"/><line x1="101.57" y1="86.14" x2="268.31" y2="86.14" fill="none" stroke="#410099" stroke-miterlimit="10" stroke-width="0.09"/><line x1="101.57" y1="70.13" x2="268.31" y2="70.13" fill="none" stroke="#410099" stroke-miterlimit="10" stroke-width="0.09"/><line x1="101.57" y1="122.14" x2="268.31" y2="122.14" fill="none" stroke="#410099" stroke-miterlimit="10" stroke-width="0.09"/><line x1="101.57" y1="114.14" x2="268.31" y2="114.14" fill="none" stroke="#410099" stroke-miterlimit="10" stroke-width="0.09"/><line x1="101.57" y1="120.14" x2="268.31" y2="120.14" fill="none" stroke="#410099" stroke-miterlimit="10" stroke-width="0.09"/><line x1="101.57" y1="110.14" x2="268.31" y2="110.14" fill="none" stroke="#410099" stroke-miterlimit="10" stroke-width="0.09"/><line x1="101.57" y1="118.14" x2="268.31" y2="118.14" fill="none" stroke="#410099" stroke-miterlimit="10" stroke-width="0.09"/><line x1="101.57" y1="102.14" x2="268.31" y2="102.14" fill="none" stroke="#410099" stroke-miterlimit="10" stroke-width="0.09"/><line x1="101.57" y1="116.14" x2="268.31" y2="116.14" fill="none" stroke="#410099" stroke-miterlimit="10" stroke-width="0.09"/><line x1="101.57" y1="94.14" x2="268.31" y2="94.14" fill="none" stroke="#410099" stroke-miterlimit="10" stroke-width="0.09"/><line x1="101.57" y1="93.14" x2="268.31" y2="93.14" fill="none" stroke="#410099" stroke-miterlimit="10" stroke-width="0.09"/><line x1="101.57" y1="71.13" x2="268.31" y2="71.13" fill="none" stroke="#410099" stroke-miterlimit="10" stroke-width="0.09"/><line x1="101.57" y1="85.14" x2="268.31" y2="85.14" fill="none" stroke="#410099" stroke-miterlimit="10" stroke-width="0.09"/><line x1="101.57" y1="69.13" x2="268.31" y2="69.13" fill="none" stroke="#410099" stroke-miterlimit="10" stroke-width="0.09"/><line x1="101.57" y1="77.13" x2="268.31" y2="77.13" fill="none" stroke="#410099" stroke-miterlimit="10" stroke-width="0.09"/><line x1="101.57" y1="67.13" x2="268.31" y2="67.13" fill="none" stroke="#410099" stroke-miterlimit="10" stroke-width="0.09"/><line x1="101.57" y1="73.13" x2="268.31" y2="73.13" fill="none" stroke="#410099" stroke-miterlimit="10" stroke-width="0.09"/><line x1="101.57" y1="65.13" x2="268.31" y2="65.13" fill="none" stroke="#410099" stroke-miterlimit="10" stroke-width="0.09"/><line x1="101.57" y1="117.14" x2="268.31" y2="117.14" fill="none" stroke="#410099" stroke-miterlimit="10" stroke-width="0.09"/><line x1="101.57" y1="101.14" x2="268.31" y2="101.14" fill="none" stroke="#410099" stroke-miterlimit="10" stroke-width="0.09"/><line x1="101.57" y1="113.14" x2="268.31" y2="113.14" fill="none" stroke="#410099" stroke-miterlimit="10" stroke-width="0.09"/><line x1="101.57" y1="97.14" x2="268.31" y2="97.14" fill="none" stroke="#410099" stroke-miterlimit="10" stroke-width="0.09"/><line x1="101.57" y1="109.14" x2="268.31" y2="109.14" fill="none" stroke="#410099" stroke-miterlimit="10" stroke-width="0.09"/><line x1="101.57" y1="89.14" x2="268.31" y2="89.14" fill="none" stroke="#410099" stroke-miterlimit="10" stroke-width="0.09"/><line x1="101.57" y1="105.14" x2="268.31" y2="105.14" fill="none" stroke="#410099" stroke-miterlimit="10" stroke-width="0.09"/><line x1="101.57" y1="81.13" x2="268.31" y2="81.13" fill="none" stroke="#410099" stroke-miterlimit="10" stroke-width="0.09"/><line x1="101.57" y1="111.14" x2="268.31" y2="111.14" fill="none" stroke="#410099" stroke-miterlimit="10" stroke-width="0.09"/><line x1="101.57" y1="87.14" x2="268.31" y2="87.14" fill="none" stroke="#410099" stroke-miterlimit="10" stroke-width="0.09"/><line x1="101.57" y1="103.14" x2="268.31" y2="103.14" fill="none" stroke="#410099" stroke-miterlimit="10" stroke-width="0.09"/><line x1="101.57" y1="83.13" x2="268.31" y2="83.13" fill="none" stroke="#410099" stroke-miterlimit="10" stroke-width="0.09"/><line x1="101.57" y1="95.14" x2="268.31" y2="95.14" fill="none" stroke="#410099" stroke-miterlimit="10" stroke-width="0.09"/><line x1="101.57" y1="79.13" x2="268.31" y2="79.13" fill="none" stroke="#410099" stroke-miterlimit="10" stroke-width="0.09"/><line x1="101.57" y1="91.14" x2="268.31" y2="91.14" fill="none" stroke="#410099" stroke-miterlimit="10" stroke-width="0.09"/><line x1="101.57" y1="75.13" x2="268.31" y2="75.13" fill="none" stroke="#410099" stroke-miterlimit="10" stroke-width="0.09"/><line x1="101.57" y1="125.14" x2="268.31" y2="125.14" fill="none" stroke="#410099" stroke-miterlimit="10" stroke-width="0.09"/><line x1="101.57" y1="119.14" x2="268.31" y2="119.14" fill="none" stroke="#410099" stroke-miterlimit="10" stroke-width="0.09"/><line x1="101.57" y1="124.14" x2="268.31" y2="124.14" fill="none" stroke="#410099" stroke-miterlimit="10" stroke-width="0.09"/><line x1="101.57" y1="115.14" x2="268.31" y2="115.14" fill="none" stroke="#410099" stroke-miterlimit="10" stroke-width="0.09"/><line x1="101.57" y1="123.14" x2="268.31" y2="123.14" fill="none" stroke="#410099" stroke-miterlimit="10" stroke-width="0.09"/><line x1="101.57" y1="107.14" x2="268.31" y2="107.14" fill="none" stroke="#410099" stroke-miterlimit="10" stroke-width="0.09"/><line x1="101.57" y1="121.14" x2="268.31" y2="121.14" fill="none" stroke="#410099" stroke-miterlimit="10" stroke-width="0.09"/><line x1="101.57" y1="99.14" x2="268.31" y2="99.14" fill="none" stroke="#410099" stroke-miterlimit="10" stroke-width="0.09"/></g></g><g id="face"><path d="M65.49,42.1c.11,7.63-5.72,13.9-10.23,14S44.74,50,44.63,42.41,44.35,28,54.86,28C66.89,27.85,65.38,34.47,65.49,42.1Z" fill="#ca9067"/><ellipse cx="50.54" cy="40.61" rx="1.21" ry="1.97" transform="translate(-0.59 0.75) rotate(-0.85)" fill="#0c0506"/><ellipse cx="60.24" cy="40.46" rx="1.21" ry="1.97" transform="translate(-0.59 0.9) rotate(-0.85)" fill="#0c0506"/><path d="M50.9,48l8.73-.12a3.87,3.87,0,0,1-4,3.63C51.28,51.61,50.9,48,50.9,48Z" fill="#fff"/></g><g id="hair"><path d="M68.21,28.72a2.73,2.73,0,0,0,.19-.57,2.22,2.22,0,0,0-1.27-2.45s0-.08,0-.12a3.61,3.61,0,0,0-3.86-3.29,4.4,4.4,0,0,0-1.94.46,1.83,1.83,0,0,0-1.65-1.16,1.88,1.88,0,0,0-1.77,1.55,4,4,0,0,0-3.26-1.55,3.72,3.72,0,0,0-3.79,2.74,2.51,2.51,0,0,0-.62-.09A2.28,2.28,0,0,0,48,25.91a4.35,4.35,0,0,0-.59.25,2.84,2.84,0,0,0-.5-.06,3.16,3.16,0,0,0-3,3.29c0,.12,0,.23,0,.35a1.67,1.67,0,0,0-.63.58,1.78,1.78,0,0,0,.45,2.27,4,4,0,0,0-3,1.93,3.48,3.48,0,0,0,.91,4.91,3.28,3.28,0,0,0,2.87.15l0,1.33.06.21.48.3.94.47s.07-1.59.24-3.65c.09-.11.18-.22.26-.34a4,4,0,0,0,.61-2.1,2.91,2.91,0,0,0,1.43-1.12s1.38.58,2.74-1.24a2.44,2.44,0,0,0,.51-2,20.24,20.24,0,0,0,3.45.3,21.3,21.3,0,0,0,4.48-.45,2.86,2.86,0,0,0-.21,1.06A3,3,0,0,0,62,35.18a2.82,2.82,0,0,0-.08.65,2.93,2.93,0,0,0,2.13,2.79c.15,1.87.21,3.27.21,3.27l.93-.46.49-.31s0-.08.07-.23l0-2.26a3.12,3.12,0,0,0,.77-.34l.1,0A2,2,0,0,0,69,36.93a1.62,1.62,0,0,0-.47-1.44,4,4,0,0,0,1.78-2.65A3.62,3.62,0,0,0,68.21,28.72Z"/></g></svg>