<svg xmlns="http://www.w3.org/2000/svg" width="110" height="194" viewBox="0 0 110 194"><title>landian-29-hair</title><g id="hair"><path d="M67.36,13.66l-.12,7a1.36,1.36,0,0,0-.06.2l0,.07-.57.36-.8.4c0-.15,0-.42,0-.78h0c0-.18,0-.39,0-.61s0-.24,0-.37l0-.37h0q0-.39-.06-.84c-.24-3.27-.72-8.23-1.53-10.53l-1.48.54,0,0a25.32,25.32,0,0,1-7.07,1.19h-.94a25.39,25.39,0,0,1-7.07-1.19l0,0L46,8.16v0c-.8,2.31-1.28,7.25-1.52,10.51q0,.45-.06.84h0l0,.37c0,.13,0,.25,0,.37s0,.43,0,.61h0c0,.36,0,.63-.05.78l-.8-.4-.57-.36,0-.07a1.36,1.36,0,0,0-.06-.2l-.12-6.89v-.1l0-1.91a3.48,3.48,0,0,1,.11-.72.06.06,0,0,0,0,0,12,12,0,0,1,5.8-7.39,12.68,12.68,0,0,1,2.44-1l.39-.1a15.2,15.2,0,0,1,7.18,0L59,2.6a12.92,12.92,0,0,1,2.4,1A11.93,11.93,0,0,1,67.22,11a.06.06,0,0,0,0,0,3.48,3.48,0,0,1,.11.72Z"/></g></svg>