<svg xmlns="http://www.w3.org/2000/svg" width="110" height="194" viewBox="0 0 110 194"><title>landian-07-hair</title><g id="hair"><path d="M40.64,43.81a1.7,1.7,0,0,1-1-2c.13-1,.58-1.28,1.86-1.54.39-.32.18-.44,0-.64-1.21-1.35.32-2.56,1.42-2.24-.27-.39.27-1.15.33-1.66a2,2,0,0,1,3.09-1.46,2,2,0,0,1,2.21-1.57,2,2,0,0,1,1.38.82A2,2,0,0,1,51.55,33a2,2,0,0,1,1.36.78H53a2,2,0,0,1,2.14-1.3,1.86,1.86,0,0,1,.71.23A2.06,2.06,0,0,1,57.63,32a2,2,0,0,1,1.74,1.68,2,2,0,0,1,2.81,1.86h.26a2,2,0,0,1,1.76,2.25h0a2,2,0,0,1,1.77,2,1.74,1.74,0,0,1,.51,0,2,2,0,0,1,.64,3.82,2,2,0,0,1,.78,3.63,2,2,0,0,1,.85,1.89,2,2,0,0,1-.33.87h0c.83.42.84,1,.7,2.15a15.58,15.58,0,0,0-.35,1.79A2,2,0,0,1,69.27,55s-.48,1.36-.47,1.39c.19,1-.26,1-1,1.86a1,1,0,0,0-.32,1c-.64.89-.71.83-2,1.15-1.56.39-2.08,0-2.31-.32-.45-.7-.85-1.27.19-1.67s1.06-.92,1.09-1c-.51-1.8.49-1,0-2.81a2,2,0,0,1-1.55-2.21,1.75,1.75,0,0,1,.14-.51c-.91-.18-1.36-.12-1.62-1.59a2.71,2.71,0,0,1,1-2.11,2,2,0,0,1-.36-2.35l-.14-.15a2,2,0,0,1-1.49.42,2,2,0,0,1-1.77-2.26,2,2,0,0,1,.22-.68A2,2,0,0,1,58,40.22a2,2,0,0,1-3-1.21c-.43.54-.85-.55-1.45-1-2.12-1.48-3.52-1-3.53-1,0,.17,0,.7-1.67,1.21s-1.09,3.5-1.15,3.85c-.32,2-.83,4.74-.89,5.23-.14,1.11-1,1.64-1.42,2.85-.14.45-.78-.13-1.09-.45l-.19-.83s-.77.45-1,.26c-1-.19-1.17-.27-1.15-.77-1-.25-1.92-2.06-1.8-3.08A2.66,2.66,0,0,1,40.64,43.81Z"/></g></svg>