<svg xmlns="http://www.w3.org/2000/svg" xmlns:xlink="http://www.w3.org/1999/xlink" width="110" height="194" viewBox="0 0 110 194"><defs><linearGradient id="New_Gradient_Swatch_4" x1="61.82" y1="111.11" x2="61.82" y2="185.57" gradientUnits="userSpaceOnUse"><stop offset="0" stop-color="#2c3b4c"/><stop offset="0.21" stop-color="#293747"/><stop offset="0.46" stop-color="#212c38"/><stop offset="0.73" stop-color="#131920"/><stop offset="1"/></linearGradient><linearGradient id="New_Gradient_Swatch_4-2" x1="46.85" y1="111.32" x2="46.85" y2="186.28" xlink:href="#New_Gradient_Swatch_4"/></defs><title>landian-38-body</title><g id="landians"><path d="M82.17,114.27s-2.9-12-3.14-14.84-2.49-14.14-6-12.91c-3.13,1.1-2,9.09.22,14.49s5.65,12.61,5.82,14.15c.41,3.63-.74,8.56-.17,8.94.73.48,1.26-.9,2-3.15,1.09,0,3.2,4.37,5.72,5.85s.71-5.63-.39-7.12C85.31,118.5,82.72,115.84,82.17,114.27Z" fill="#fcdab5"/><path d="M79,99.43c-.25-2.85-2.49-14.14-6-12.91-3.13,1.1-2,9.09.22,14.49" fill="#c4c4b8"/><path d="M63.87,177.07s-1.6,6.63.18,8.57,8.48,8,8.48,8L57,190.14s.62-8.72.62-12.24S63.87,177.07,63.87,177.07Z" fill="#fcdab5"/><path d="M75.38,193.73c-.22-3.22-4.55-3.89-4.55-3.89s0,0,0,0l-1.37-.69.06,0s-2.89-2.67-3.95-3A1.49,1.49,0,0,0,63.82,188a3.42,3.42,0,0,0,.89,1c-.31,0-.64,0-1,0-4.73-.34-6.11-.91-6.51-1.24l-.16-.26c-2.78,2.05-1.11,6.17-1.11,6.17l.34,0v0h.79C60.67,193.84,71.77,194.29,75.38,193.73Z"/><path d="M64.82,189.62s1.11-2.12,2.23-2.67l1,.89Z" fill="#cbcbca"/><path d="M66.27,191a7.72,7.72,0,0,1,2.22-2.67l1,.89Z" fill="#cbcbca"/><path d="M64.24,184.15s4.51-64.83,4.3-70.23-12.13-2.2-13.11,2.69c-1.24,6.23,1.22,66.59,1.32,67.86C56.81,185.2,62.84,186.69,64.24,184.15Z" fill="url(#New_Gradient_Swatch_4)"/><path d="M45.37,177.07s1.6,6.63-.18,8.57-8.48,8-8.48,8l15.52-3.5s-.63-8.72-.63-12.24S45.37,177.07,45.37,177.07Z" fill="#fcdab5"/><path d="M51.84,187.45l-.16.26c-.4.33-1.78.9-6.51,1.24-.35,0-.68,0-1,0a3.42,3.42,0,0,0,.89-1,1.48,1.48,0,0,0-1.72-1.78c-1.06.33-4,3-4,3l.07,0c-.43.21-.9.44-1.37.69l0,0s-4.34.67-4.56,3.89c3.61.56,14.71.11,18.31-.06h.79v0l.35,0S54.62,189.5,51.84,187.45Z"/><path d="M44.06,189.62S43,187.5,41.84,187l-1,.89Z" fill="#cbcbca"/><path d="M42.62,191a7.79,7.79,0,0,0-2.23-2.67l-1,.89Z" fill="#cbcbca"/><path d="M44.47,184.86s-4.2-64.79-4-70.18,11.27-3.75,12.25,1.15c1.24,6.22-.17,68.08-.28,69.35C52.39,185.91,45.87,187.4,44.47,184.86Z" fill="url(#New_Gradient_Swatch_4-2)"/><path d="M40.9,104.62s-.45,8.35-.42,10.06c0,1.2,0,1.72.56,2.3,5.19,5.46,21.14,5.72,26.16-.35.81-1,1.41-1.4,1.34-2.71-.07-1.54-.54-9.59-.54-9.59Z" fill="#2c3b4c"/><path d="M67,63.77c4.79,2.61,7.17,17.87,7.84,20,.87,2.83,2.89,9.25,2.89,9.25l-6.13,2.67S69.93,88.9,69,86.64c-1.75-4.14-5.67-11.91-6.54-15C61.35,67.69,62.22,61.15,67,63.77Z" fill="#c4c4b8"/><path d="M42.49,63.78c-4.81,2.59-7.29,17.83-8,20-.89,2.82-2.68,9.42-2.68,9.42l5.64,4.46s1.85-8.54,2.91-11c1.77-4.13,5.74-11.88,6.63-15C48.13,67.74,47.3,61.2,42.49,63.78Z" fill="#c4c4b8"/><path d="M50.75,54.59s.37,6.15-2.58,7.76c-.65.36,3.13,26.82,6.58,27.05C57.2,89.56,59.49,68,61,62.69c0,0-3-1.3-2.32-7.38C58.93,52.71,50.75,54.59,50.75,54.59Z" fill="#e1c3a5"/><path d="M54.79,69.52l1.7-4.66L60.89,62s5,.78,5.23,1.65c.21,2.62,1.5,7.17,0,12-.52,1.68-.1,7.72,1.16,14.68,1.29,7.15,3.2,20.46,3.89,23.49L57.69,114.9s-1.17-3.33-3-10.13L52.29,115l-14-1.09c1.2-3,2.93-16.15,4.11-23.88,1-6.59.91-12.76.42-14.34-1.5-4.83-.22-8.87,0-11.49.22-.87,5.48-2.33,5.48-2.33l4.3,3Z" fill="#c4c4b8"/><path d="M27.83,112.88s2.9-12,3.14-14.85,2.49-14.14,6-12.9c3.13,1.09,2,9.08-.22,14.48s-5.65,12.62-5.82,14.15c-.41,3.63.74,8.56.17,8.94-.73.49-1.26-.9-2-3.14-1.09,0-3.2,4.36-5.72,5.84s-.71-5.63.39-7.12C24.69,117.1,27.28,114.44,27.83,112.88Z" fill="#fcdab5"/><path d="M30.93,98.39c0-.13,0-.25,0-.36.25-2.85,2.49-14.14,6-12.9,3.13,1.09,2,9.08-.22,14.48" fill="#c4c4b8"/><path d="M20.21,22.13S43.54,128.4,55.08,127,89.94,22.13,89.94,22.13Z" fill="#fddc0d"/><path d="M26.22,26.58c3.14.07,5.85-1.28,8.82-2.07a18.08,18.08,0,0,1,8.05,0c2.75.55,5.29,1.72,8,2.39a19,19,0,0,0,8.46.14,21,21,0,0,1,7.93-.3,27.49,27.49,0,0,0,3.09.57,5.64,5.64,0,0,0,2.87-.66,18.1,18.1,0,0,1,3.31-1.46,12.89,12.89,0,0,1,3.72-.3c3,.14,5.6,1.38,8.25,2.61.79-3.37,1.23-5.34,1.23-5.34H20.21L21,25.72A20.28,20.28,0,0,0,26.22,26.58Z" fill="#bf4343"/><rect x="15.75" y="13.59" width="78.5" height="10.71" rx="3.95" fill="#a06627"/><path d="M30.7,32.67a9.34,9.34,0,0,0-7.27,3.47c1,4.2,2.18,9.13,3.51,14.5a9.38,9.38,0,1,0,3.76-18Z" fill="#bf4343"/><circle cx="45.7" cy="73.41" r="9.38" fill="#bf4343"/><circle cx="40.14" cy="58.06" r="0.49" fill="#0c0506"/><circle cx="69.89" cy="35.18" r="0.49" fill="#0c0506"/><circle cx="75.54" cy="55.55" r="0.49" fill="#0c0506"/><circle cx="62.02" cy="64.44" r="0.49" fill="#0c0506"/><circle cx="49.16" cy="89.4" r="0.49" fill="#0c0506"/><circle cx="65.39" cy="87.92" r="0.49" fill="#0c0506"/><circle cx="55.08" cy="118.27" r="0.49" fill="#0c0506"/><path d="M82.78,34.25A9.37,9.37,0,0,0,82.46,53c1.71-6.68,3.21-12.79,4.41-17.79A9.35,9.35,0,0,0,82.78,34.25Z" fill="#bf4343"/><path d="M75.75,66.28a9.37,9.37,0,0,0-2,18.53c1.76-5.93,3.47-12,5.09-18A9.53,9.53,0,0,0,75.75,66.28Z" fill="#bf4343"/><path d="M58.53,105.32A9.37,9.37,0,0,0,41,100.7c1.66,5,3.32,9.54,4.94,13.42a9.56,9.56,0,0,0,3.22.57A9.36,9.36,0,0,0,58.53,105.32Z" fill="#bf4343"/></g></svg>