<svg xmlns="http://www.w3.org/2000/svg" width="110" height="194" viewBox="0 0 110 194"><title>landian-15-face</title><g id="face"><ellipse cx="54.8" cy="51.12" rx="10.78" ry="14.79" fill="#a4612f"/><ellipse cx="49.37" cy="52.99" rx="1.27" ry="2.06" transform="translate(-0.78 0.74) rotate(-0.85)" fill="#0c0506"/><ellipse cx="59.51" cy="52.84" rx="1.27" ry="2.06" transform="translate(-0.77 0.89) rotate(-0.85)" fill="#0c0506"/><path d="M58.37,60.06l-3.52.88-3.68-.76a26.63,26.63,0,0,1,3.57-.36A19.81,19.81,0,0,1,58.37,60.06Z" fill="#871a22"/><path d="M51.17,60.18a13.59,13.59,0,0,0,7.2-.12,4.13,4.13,0,0,1-3.55,2A3.81,3.81,0,0,1,51.17,60.18Z" fill="#9b1926"/></g></svg>