<svg xmlns="http://www.w3.org/2000/svg" width="110" height="194" viewBox="0 0 110 194"><title>landian-12</title><g id="landians"><path d="M45.49,54.48l-2.73,14s2.55,1,14.11,1.47c16.6.73,13.27-14.63,13.27-14.63S56.62,38.21,54.49,36.5C47.13,38.46,46.26,46,45.49,54.48Z" fill="#2d0e3e"/><path d="M67.76,67.12c4.78,2.61,7.16,17.84,7.83,20,.87,2.82,2.39,8.48,0,9.57S71.45,94.09,69.71,90s-5.66-11.89-6.52-15C62.1,71,63,64.51,67.76,67.12Z"/><path d="M43.65,66.18a3.89,3.89,0,0,0-1.82.85c-4.21,4.75-6.49,18.6-7.1,20.55-.89,2.82-2.45,8.46-.06,9.57s4.14-2.59,5.91-6.71,5.74-11.85,6.62-15C48.31,71.57,47,65.13,43.65,66.18Z"/><path d="M69.32,149.26S73.23,131.9,71.71,116c-1.43-14.95-14.93-9.86-14.93,9.78,0,12.4.38,22.18.36,24.36C57.09,158.17,65,160.35,69.32,149.26Z" fill="#513875"/><path d="M63.47,175.63s-1.67,7,.19,9S72.55,193,72.55,193l-16.26-3.66S57,180.2,57,176.5,63.47,175.63,63.47,175.63Z" fill="#c58b5e"/><path d="M63.16,178.45s4.71-19,6.1-28.19c1.24-8.22-10.43-7.82-11.46-2.69-1.3,6.53-1.65,8.57-1.74,18.49a90,90,0,0,0,.78,12.05C56.9,178.87,61.45,179.13,63.16,178.45Z" fill="#513875"/><path d="M56.36,184.85l.25-4.1,6.58.69s.93,3.5,2,4.61c2,2,4.06,3.73,4.06,3.73s5.59,2,5.75,2.95c0,1.23-4.36,1.35-9.69,1.24-1.9,0-3.63-3.37-5.28-3.44-.29,0-.19,3.37-.47,3.4a15,15,0,0,1-2.8-.09S55.42,188.18,56.36,184.85Z"/><path d="M40.7,148.81s-3.91-17.35-2.39-33.27c1.43-15,14.93-9.11,14.93,9.79,0,12.4-.38,22.18-.36,24.35C52.93,157.73,45.05,159.91,40.7,148.81Z" fill="#513875"/><path d="M46.55,175.63s1.67,7-.19,9S37.47,193,37.47,193l16.26-3.66s-.66-9.13-.66-12.83S46.55,175.63,46.55,175.63Z" fill="#c58b5e"/><path d="M53.75,184.85l-.26-4.1-6.57.69s-.94,3.5-2.05,4.61c-2,2-4.06,3.73-4.06,3.73s-5.58,2-5.74,2.95c0,1.23,4.35,1.35,9.68,1.24,1.9,0,3.64-3.37,5.28-3.44.3,0,.2,3.37.48,3.4a14.84,14.84,0,0,0,2.79-.09S54.69,188.18,53.75,184.85Z"/><path d="M46.92,178.45s-4.71-19-6.1-28.19c-1.24-8.22,10.43-7.82,11.46-2.69,1.3,6.53,1.64,8.57,1.74,18.49a91.83,91.83,0,0,1-.78,12.05C53.17,178.87,48.63,179.13,46.92,178.45Z" fill="#698293"/><path d="M46.92,178.45s-4.71-19-6.1-28.19c-1.24-8.22,10.43-7.82,11.46-2.69,1.3,6.53,1.64,8.57,1.74,18.49a91.83,91.83,0,0,1-.78,12.05C53.17,178.87,48.63,179.13,46.92,178.45Z" fill="#513875"/><path d="M48.81,62.72s4.58-5.15,12.35-.06L54.67,82.81Z" fill="#ac9283"/><path d="M51.23,58.31s.38,6.13-2.57,7.74c-.65.36,3.13,26.77,6.57,27,2.45.16,4.73-21.4,6.21-26.66,0,0-3-1.3-2.31-7.37C59.41,56.42,51.23,58.31,51.23,58.31Z" fill="#b7784b"/><path d="M41.89,101.51a144.13,144.13,0,0,0-3.39,14.55c-.17.84,7.11,5.26,14.34,5.89a24.3,24.3,0,0,0,4.35,0c7.27-.32,14.49-5.4,14.34-6.4a50.33,50.33,0,0,0-3.83-13.89Z" fill="#513875"/><path d="M55.08,76.31l4-6.73,2.31-3.87s4.32,1,4.54,1.83c.22,2.61,1,8.62-.51,13.44-.52,1.68-1.13,3.81.13,10.76,1.28,7.14,5.42,17,6.1,20.05L57.77,113s-1-2.24-2.43-5.57l-2.56,5.5-14-1.09c1.2-3,4.33-10.45,5.51-18.17,1-6.58.75-12,.26-13.58a33.37,33.37,0,0,1-1.25-12.21c.22-.87,5.48-2.33,5.48-2.33l2.68,4Z" fill="#d0b09b"/><path d="M48.81,64a15.36,15.36,0,0,0,.83,4.1c0,.16.57,1.22.89,1.28.55.1.9.13,1.16,1,.63,2,.24,5.89.19,8.26-.19,8.26-.39,12.42-.77,16.77-.8,9.09-2.43,19.07-2.43,19.07s-8.26-.24-11.8-2.36c0,0,4.24-12.2,6.61-20.78,1.89-6.85-1.86-18-.77-24.67Z"/><path d="M61.5,64a16,16,0,0,1-.83,4.1c-.05.16-.57,1.22-.9,1.28-.54.1-.9.13-1.15,1-.63,2-.25,5.89-.19,8.26.19,8.26.38,12.42.76,16.77.81,9.09,2.43,19.07,2.43,19.07s8.27-.24,11.81-2.36c0,0-4.24-12.2-6.61-20.78-1.89-6.85,1.85-18,.76-24.67Z"/><path d="M52,70.8l-3.84-2.94-2.63,1.79.77-3.34A11,11,0,0,1,49,62.54Z" fill="#d0b09b"/><path d="M58.35,70.8,61.42,68l3.33,1.6-1-3.27s-2.14-3.67-2.85-3.83l-1.95,6.27C58.6,69.9,58.11,71,58.35,70.8Z" fill="#d0b09b"/><path d="M82.19,117s-2.9-12-3.14-14.82-2.48-14.12-6-12.89c-3.12,1.1-2,9.08.23,14.46s5.63,12.6,5.8,14.13c.41,3.62-.74,8.54-.17,8.92.73.49,1.26-.89,2-3.13,1.09,0,3.19,4.35,5.71,5.83s.71-5.62-.39-7.11C85.32,121.18,82.74,118.53,82.19,117Z" fill="#c58b5e"/><path d="M79.05,102.15c-.24-2.85-2.48-14.12-6-12.89-3.12,1.1-2,9.08.23,14.46"/><path d="M27.81,117.78s2.9-12,3.14-14.82,2.48-14.12,6-12.88c3.12,1.1,2,9.07-.23,14.46s-5.63,12.59-5.8,14.12c-.41,3.63.74,8.55.17,8.93-.73.48-1.26-.9-2-3.14-1.09,0-3.19,4.36-5.71,5.84s-.71-5.62.39-7.12C24.68,122,27.26,119.34,27.81,117.78Z" fill="#c58b5e"/><path d="M30.91,103.32c0-.13,0-.25,0-.36.24-2.85,2.48-14.12,6-12.88,3.12,1.1,2,9.07-.23,14.46"/><path d="M45.72,46.79s-1.66-2-3.36-.34,1.41,6,3.46,6.64S45.72,46.79,45.72,46.79Z" fill="#c58b5e"/></g><g id="face"><ellipse cx="55.19" cy="46.73" rx="10.73" ry="14.72" fill="#c58b5e"/><ellipse cx="49.78" cy="48.59" rx="1.26" ry="2.05" transform="translate(-0.71 0.74) rotate(-0.85)" fill="#0c0506"/><ellipse cx="59.87" cy="48.44" rx="1.26" ry="2.05" transform="translate(-0.71 0.89) rotate(-0.85)" fill="#0c0506"/><path d="M58.73,55.63l-3.49.88-3.67-.76a26.31,26.31,0,0,1,3.55-.36A19.58,19.58,0,0,1,58.73,55.63Z" fill="#ea2127"/><path d="M51.57,55.75a13.56,13.56,0,0,0,7.16-.12,4.08,4.08,0,0,1-3.52,2A3.78,3.78,0,0,1,51.57,55.75Z" fill="#ea2127"/></g><g id="hair"><path d="M67.93,71.76s-.71-.22-.9-.67.12-.87.64-1.6a4.09,4.09,0,0,0,1.54-3.14,5.92,5.92,0,0,1,.51-3.58,10,10,0,0,0,1.34-3.91L65.53,55.4a5.6,5.6,0,0,0,0,6.11,8,8,0,0,1-.16,6.76,4.65,4.65,0,0,0-.16,2.66,2.11,2.11,0,0,0,1.09,1.38,3.21,3.21,0,0,1,1.28.76c.47.54.45,1.35-.13,2.4,0,0,1.12-.12,1.41-1.76A1.68,1.68,0,0,0,67.93,71.76Z" fill="#3a1b54"/><path d="M49.66,36.4c.41-.21,3.58-4.55,8.15-.33a8.48,8.48,0,0,1,1.66,3.33,105.53,105.53,0,0,1,2.78,10.2,9.33,9.33,0,0,0,2.82,5.29c.65.66-.86,2.82-.22,4.18.39.84,2.17,2.81,3.84,3.06,1.14.16,2.12-1.8,2.12-1.8.4-1.54,1.28-3.44.7-5.1-.36-1-1.7-3.55-2-5.33-.23-1.43.35-2.79,0-5C68.14,36.17,61.65,31,53.84,31.84a8.55,8.55,0,0,0-5.27,2.76c-.69.73-1.44,1.85-1.28,2.18S48.38,37,49.66,36.4Z" fill="#3a1b54"/><path d="M50.08,35.35s1.94-2.79,5.08-2.22c0,0,6.87.55,8.5,9.64,0,0,1.43,6.75,3.54,8.42,0,0,3.33,4.22,1.15,6.46,0,0-1.28.64-1.07,3,0,0,1.73,4.91-1.34,8.62,0,0,1.86-4.1.75-7.68a4.75,4.75,0,0,1-.6-2.9,7.15,7.15,0,0,1,.73-2.14s.89-1.48-1.54-3.4a10.19,10.19,0,0,1-2.5-5.7s-1.63-7.6-2.75-9.28c-.09-.13-2.11-4.49-5.44-4.49A6.1,6.1,0,0,0,50.08,35.35Z" fill="#b398c7"/></g></svg>