<svg xmlns="http://www.w3.org/2000/svg" width="110" height="194" viewBox="0 0 110 194"><title>landian-26-face</title><g id="face"><path d="M66,32.34c.12,7.93-5.94,14.45-10.63,14.52s-10.93-6.27-11-14.2S44,17.73,55,17.64C67.45,17.53,65.88,24.42,66,32.34Z" fill="#ca9067"/><path d="M50.61,33.2h0a3.78,3.78,0,0,1-3.78-3.78v-.55a.78.78,0,0,1,.78-.78h5.55a.78.78,0,0,1,.79.78v1A3.34,3.34,0,0,1,50.61,33.2Z" fill="none" stroke="#544741" stroke-linecap="round" stroke-linejoin="round" stroke-width="0.6"/><path d="M61,28.09h0a3.34,3.34,0,0,1,3.34,3.34v1a.78.78,0,0,1-.78.78H58.05a.78.78,0,0,1-.78-.78v-.55A3.78,3.78,0,0,1,61,28.09Z" transform="translate(121.66 61.29) rotate(-180)" fill="none" stroke="#544741" stroke-linecap="round" stroke-linejoin="round" stroke-width="0.6"/><line x1="53.95" y1="28.77" x2="57.28" y2="28.77" fill="none" stroke="#544741" stroke-linecap="round" stroke-linejoin="round" stroke-width="0.6"/><ellipse cx="50.47" cy="30.79" rx="1.26" ry="2.05" transform="translate(-0.45 0.75) rotate(-0.85)" fill="#0c0506"/><ellipse cx="60.55" cy="30.64" rx="1.26" ry="2.05" transform="matrix(1, -0.01, 0.01, 1, -0.45, 0.9)" fill="#0c0506"/><path d="M50.83,38.52l9.08-.13a4,4,0,0,1-4.2,3.77C51.23,42.23,50.83,38.52,50.83,38.52Z" fill="#fff"/></g></svg>