<svg xmlns="http://www.w3.org/2000/svg" xmlns:xlink="http://www.w3.org/1999/xlink" width="110" height="194" viewBox="0 0 110 194"><defs><linearGradient id="linear-gradient" x1="-6073.05" y1="151.99" x2="-6073.05" y2="174.99" gradientTransform="matrix(-1, 0, 0, 1, -6010.77, 0)" gradientUnits="userSpaceOnUse"><stop offset="0" stop-color="#698293"/><stop offset="0.26" stop-color="#657d8e"/><stop offset="0.58" stop-color="#59707f"/><stop offset="0.92" stop-color="#455b67"/><stop offset="1" stop-color="#405561"/></linearGradient><linearGradient id="linear-gradient-2" x1="291.36" y1="151.99" x2="291.36" y2="174.99" gradientTransform="translate(-245)" xlink:href="#linear-gradient"/></defs><title>landian-08</title><g id="landians"><path d="M38,55.19l2.65,14s1,1.91,12.6,2.43C69.83,72.4,66.5,57,66.5,57S53,39.87,50.82,38.14C43.45,40.11,38,53,38,55.19Z" fill="#4f2f15"/><path d="M67.8,68.54c4.79,2.61,7.17,17.87,7.84,20,.87,2.84,2.4,8.5,0,9.59s-4.14-2.61-5.88-6.75-5.67-11.92-6.54-15C62.13,72.46,63,65.93,67.8,68.54Z" fill="#410099"/><path d="M42.34,67.53c-4.81,2.59-7.29,17.83-8,20-.89,2.82-2.45,8.48-.06,9.58s4.16-2.59,5.93-6.71,5.74-11.88,6.63-15C48,71.49,47.15,65,42.34,67.53Z" fill="#410099"/><path d="M68.7,150.24s3.56-18.56,2-34.5a9,9,0,0,0-3-6.2c-4.35-4.58-11.58,2.07-11.58,17.17,0,12.43.38,22.22.36,24.4C56.45,159.17,64.35,161.35,68.7,150.24Z" fill="#698293"/><path d="M63.05,175.65s-1.68,7,.19,9,8.9,8.4,8.9,8.4l-16.28-3.67s.65-9.15.65-12.86S63.05,175.65,63.05,175.65Z" fill="#e4b88b"/><path d="M56,185.16s.14.33,6.37,4.86c3,2.16,6.37-.26,6.37-.26s5.61,2,5.78,3c0,1.23-4.38,1.35-9.73,1.24-1.91,0-3.65-3.38-5.3-3.46-.3,0-.19,3.39-.48,3.42a15,15,0,0,1-2.8-.09S53.62,187.78,56,185.16Z"/><path d="M62.73,178.48s4.72-19,6.11-28.24c1.25-8.23-10.45-7.83-11.47-2.69-1.31,6.53-1.65,8.58-1.75,18.51a87.59,87.59,0,0,0,.79,12.07C56.47,178.9,61,179.16,62.73,178.48Z" fill="url(#linear-gradient)"/><path d="M39.56,151.48s-3.67-18.1-2.15-34c.29-3,.84-4.51,1.91-5.9,4.22-5.45,12.81,1.32,12.81,16.41,0,12.42-.38,22.22-.37,24.4C51.82,160.41,43.92,162.59,39.56,151.48Z" fill="#698293"/><path d="M45.54,175.65s1.67,7-.2,9-8.9,8.4-8.9,8.4l16.29-3.67s-.66-9.15-.66-12.86S45.54,175.65,45.54,175.65Z" fill="#e4b88b"/><path d="M45.9,178.48s-4.72-19-6.1-28.24c-1.25-8.23,10.44-7.83,11.47-2.69,1.31,6.53,1.65,8.58,1.74,18.51a90.07,90.07,0,0,1-.78,12.07C52.17,178.9,47.62,179.16,45.9,178.48Z" fill="#698293"/><path d="M52.34,185.16s-.14.33-6.37,4.86c-3,2.16-6.38-.26-6.38-.26s-5.6,2-5.77,3c0,1.23,4.38,1.35,9.73,1.24,1.9,0,3.65-3.38,5.3-3.46.3,0,.19,3.39.48,3.42a15,15,0,0,0,2.8-.09S54.74,187.78,52.34,185.16Z"/><path d="M45.9,178.48s-4.72-19-6.1-28.24c-1.25-8.23,10.44-7.83,11.47-2.69,1.31,6.53,1.65,8.58,1.74,18.51a90.07,90.07,0,0,1-.78,12.07C52.17,178.9,47.62,179.16,45.9,178.48Z" fill="url(#linear-gradient-2)"/><path d="M50.23,59.14s.37,6.15-2.58,7.76C47,67.26,50.78,93.72,54.23,94c2.45.16,4.9-21.84,6.38-27.1,0,0-3.18-.81-2.48-7C58.43,57.26,50.23,59.14,50.23,59.14Z" fill="#c89d7c"/><path d="M41.22,101.21a102.12,102.12,0,0,0-3.61,15.07c-.14.85,7,6,14.23,6.61a22.67,22.67,0,0,0,4.36,0c7.28-.31,14.5-5.4,14.36-6.41a69.28,69.28,0,0,0-4.23-15.65Z" fill="#698293"/><path d="M47.86,66.67s-4.81.87-5.56,1.92c-.22,2.61-1.55,6.79,0,11.62A25.87,25.87,0,0,1,43,91.79a92.56,92.56,0,0,1-2.82,12.71v.19c6.64,1.7,10.4,2.22,13.87,2.13a44.62,44.62,0,0,0,9.15-1.24,30.93,30.93,0,0,0,4.37-1.51,86.26,86.26,0,0,1-2.78-12.9,25.74,25.74,0,0,1,.81-11c1.5-4.83.22-9.65,0-12.26-1.28-.93-5.39-1.39-5.39-1.39a5.45,5.45,0,0,1-3.13,3.65,7.56,7.56,0,0,1-5.68-.06A7,7,0,0,1,47.86,66.67Z" fill="#410099"/><path d="M26.92,119.16s2.9-12,3.15-14.84,2.48-14.14,6-12.91c3.13,1.1,2,9.09-.23,14.49S30.21,118.52,30,120.05c-.41,3.63.74,8.56.17,8.94-.74.48-1.27-.9-2-3.15-1.1,0-3.2,4.37-5.72,5.85s-.71-5.63.39-7.12C23.79,123.39,26.37,120.73,26.92,119.16Z" fill="#e4b88b"/><path d="M30,104.67c0-.13,0-.24,0-.35.24-2.85,2.48-14.14,6-12.91,3.13,1.1,2,9.09-.23,14.49" fill="#410099"/><path d="M83.08,119.47s-2.9-12-3.15-14.84-2.48-14.15-6-12.91c-3.13,1.1-2,9.09.23,14.48s5.64,12.62,5.81,14.15c.41,3.63-.74,8.56-.17,8.94.74.49,1.27-.89,2-3.14,1.1,0,3.2,4.37,5.72,5.85s.71-5.63-.39-7.13C86.21,123.69,83.63,121,83.08,119.47Z" fill="#e4b88b"/><path d="M79.93,104.63c-.24-2.86-2.48-14.15-6-12.91-3.13,1.1-2,9.09.23,14.48" fill="#410099"/></g><g id="face"><ellipse cx="54.55" cy="46.69" rx="10.74" ry="14.74" fill="#e4b88b"/><ellipse cx="49.13" cy="48.55" rx="1.26" ry="2.05" transform="translate(-0.71 0.73) rotate(-0.85)" fill="#0c0506"/><ellipse cx="59.24" cy="48.4" rx="1.26" ry="2.05" transform="translate(-0.71 0.88) rotate(-0.85)" fill="#0c0506"/><path d="M58.1,55.61l-3.5.87-3.68-.76a25.71,25.71,0,0,1,3.56-.35A19.75,19.75,0,0,1,58.1,55.61Z" fill="#9e2528"/><path d="M50.92,55.72a13.58,13.58,0,0,0,7.18-.11,4.08,4.08,0,0,1-3.53,2A3.79,3.79,0,0,1,50.92,55.72Z" fill="#d4212d"/></g><g id="hair"><path d="M54.39,36.27c-.37.28-2.37-1.42-3-.26a16.62,16.62,0,0,0-1.66,3.33c-1,3.34-1.71,5.26-2.78,10.22-.58,2.67-1.16,3.78-2.83,5.31-.68.62.86,2.82.22,4.19-.39.83-2.17,2.81-3.85,3-1.13.17-2.12-1.79-2.12-1.79-.4-1.54-1.29-3.45-.7-5.11.36-1,1.7-3.56,2-5.35.22-1.42-.36-2.79,0-5,1.39-8.75,7.88-13.92,15.71-13.08C55.42,31.78,56,35.08,54.39,36.27Z" fill="#603813"/><path d="M54.22,36.27c.37.28,2.38-1.42,3-.26a17.1,17.1,0,0,1,1.67,3.33c1,3.34,1.71,5.26,2.78,10.22a9.4,9.4,0,0,0,2.82,5.31c.66.66-.85,2.82-.21,4.19.39.83,2.17,2.81,3.85,3,1.13.17,2.11-1.79,2.11-1.79.41-1.54,1.29-3.45.71-5.11-.36-1-1.7-3.56-2-5.35-.23-1.42.35-2.79,0-5C67.52,36.11,61,30.94,53.2,31.78,53.2,31.78,52.67,35.08,54.22,36.27Z" fill="#603813"/><path d="M45.17,53.06s-1.79,3,.65,7.7c0,0,1.68,4.23,0,11.18,0,0-.46,3.31-1.56,4.58A4.55,4.55,0,0,1,39.79,78a5,5,0,0,0,1.74-3.94,11.09,11.09,0,0,0-1.16-3.71A10.22,10.22,0,0,1,38.17,61a9.2,9.2,0,0,0-.29-3.71s-.76-1.39,1.91-5.1a3.6,3.6,0,0,0,.75-2S45.22,50.93,45.17,53.06Z" fill="#603813"/><path d="M63.65,53.06s1.78,3-.65,7.7c0,0-1.68,4.23-.06,11.18,0,0,.46,3.31,1.56,4.58A4.57,4.57,0,0,0,69,78a4.92,4.92,0,0,1-1.74-3.94,10.85,10.85,0,0,1,1.16-3.71A10.22,10.22,0,0,0,70.65,61a9.2,9.2,0,0,1,.29-3.71s.75-1.39-1.91-5.1a3.57,3.57,0,0,1-.76-2S63.6,50.93,63.65,53.06Z" fill="#603813"/></g></svg>