<svg xmlns="http://www.w3.org/2000/svg" width="110" height="194" viewBox="0 0 110 194"><title>landian-07</title><g id="landians"><path d="M68.19,71.38c4.66,2.54,7,17.35,7.62,19.47.85,2.75,2.33,8.25,0,9.31s-4-2.54-5.71-6.56S64.59,82,63.75,79C62.69,75.19,63.54,68.84,68.19,71.38Z" fill="#ab8ecd"/><path d="M42.62,71.11c-4.68,2.51-7.08,17.32-7.75,19.43-.86,2.74-2.38,8.23-.06,9.31s4-2.52,5.76-6.53S46.15,81.79,47,78.76C48.09,75,47.29,68.6,42.62,71.11Z" fill="#ab8ecd"/><path d="M67,151s5.13-15.69,2.59-30.08-13.53-4.83-13.31,7.23.36,21.58.35,23.7C56.62,159.69,62.81,161.8,67,151Z" fill="#a4612f"/><path d="M56.94,188.75c.68-1.34.39-4.7.35-6.88s-.81-2.53-1.86-11.78.42-11.56,1.68-17.86a4.24,4.24,0,0,1,8.41.84c.21,5.46-2.12,28.63-2.31,28.8-.26,2-.58,5.53.42,6,1.21.61,3.51,2,6,3.44,1.42.58,1.82.4,1.94,1.15,0,1.19-2.85.8-7.12-.29-2.09-.53-2.36-2.31-4.23-2.21C55.69,190.23,56.27,190.1,56.94,188.75Z" fill="#a4612f"/><path d="M63.46,176s-1.63,6.77.18,8.74,8.65,8.16,8.65,8.16l-15.82-3.57s.64-8.89.64-12.49S63.46,176,63.46,176Z" fill="#a4612f"/><path d="M56.69,185.32s.13.32,6.17,4.7c2.89,2.1,6.18-.24,6.18-.24s5.43,1.92,5.59,2.87c0,1.2-4.24,1.31-9.42,1.2-1.85,0-3.54-3.27-5.14-3.35-.29,0-.19,3.28-.46,3.31a14.49,14.49,0,0,1-2.72-.08S54.36,187.86,56.69,185.32Z"/><path d="M41.87,149.28s-6-15.87-3.46-30.26,14.39-4.65,14.18,7.41-.37,21.58-.35,23.7C52.29,158,46.1,160.07,41.87,149.28Z" fill="#a4612f"/><path d="M44.85,176.12s1.63,6.77-.19,8.75S36,193,36,193l15.81-3.56s-.63-8.89-.63-12.49S44.85,176.12,44.85,176.12Z" fill="#a4612f"/><path d="M51.38,188.6c-.67-1.34-.08-4.44,0-6.62s.81-2.53,1.86-11.77-.42-11.56-1.68-17.87a4.23,4.23,0,0,0-8.4.84c-.21,5.47,2.12,28.64,2.31,28.81.25,2,.57,5.53-.42,6-1.22.6-3.52,2-6,3.43-1.41.59-3.74.57-3.87,1.32,0,1.18,2.42,1,7.57.93,1.84,0,3.7-3.1,5.48-3.69C50.77,189.14,52.06,189.94,51.38,188.6Z" fill="#a4612f"/><path d="M51.62,185.44s-.14.32-6.17,4.7c-2.9,2.1-6.18-.25-6.18-.25s-5.43,1.93-5.59,2.88c0,1.19,4.23,1.3,9.42,1.2,1.85,0,3.54-3.27,5.14-3.35.29,0,.19,3.28.46,3.31a14.49,14.49,0,0,0,2.72-.08S54,188,51.62,185.44Z"/><path d="M50.56,61.82s1.85,5.56-1.4,7.14c-.09,0-1.39.54-1.36,1.45.16,5.63,3.76,25,6.65,25.22,2.17.14,5.55-18.79,6.86-25.82.12-.68-.34-.74-1.63-.94,0,0-2.14-.3-1.44-6.35C58.53,60,50.56,61.82,50.56,61.82Z" fill="#90562d"/><path d="M31.9,144.67s6.71-27.79,7.05-29c.51-1.79,5-17.3,5-17.3l20.69.12s4.25,16.48,4.45,17.44c1.24,5.89,6.29,29.37,6.29,29.37S59.39,149.84,31.9,144.67Z" fill="#4d4e4e"/><path d="M49,69s-6.58,1.57-6.79,2.41a52.59,52.59,0,0,0,.1,11.42c.73,5.76,1.07,8.58,1.41,11.58.09.74-3.07,13.15-3.07,14.69,0,2.07,26.85,1.87,26.85.17,0-.66-2.77-12.36-2.48-15,.6-5.64,1.37-8,1.45-11.2.09-3.47,1.69-10.76,1.08-11.62-1.06-1.48-7.64-2.43-7.64-2.43l-5.06,7.76Z" fill="#ab8ecd"/><path d="M83.1,122.1S80.28,110.46,80,107.68s-2.41-13.74-5.83-12.54c-3,1.07-2,8.83.21,14.07S79.9,121.47,80.07,123c.4,3.52-.72,8.31-.16,8.68.71.47,1.22-.87,1.9-3,1.06,0,3.11,4.24,5.56,5.68s.68-5.47-.38-6.92C86.14,126.2,83.63,123.62,83.1,122.1Z" fill="#a4612f"/><path d="M80.7,111.15s-1.69-9.76-1.92-10.49c-.7-2.2-2.36-6.56-4.59-6.19s-2.08,4.78-1.89,7.11c.36,4.52,3.44,10.94,3.44,10.94Z" fill="#ab8ecd"/><path d="M26.9,123.23s2.82-11.64,3.06-14.41,2.41-13.74,5.83-12.54c3,1.07,2,8.83-.21,14.07s-5.48,12.25-5.65,13.74c-.4,3.53.72,8.32.16,8.69-.71.47-1.22-.88-1.9-3.06-1.06,0-3.11,4.24-5.56,5.68s-.68-5.47.38-6.92C23.86,127.34,26.37,124.76,26.9,123.23Z" fill="#a4612f"/><path d="M29.29,112.33s1.7-9.76,1.93-10.49c.69-2.2,2.36-6.56,4.58-6.19s2.08,4.78,1.89,7.11c-.36,4.52-3.44,10.94-3.44,10.94Z" fill="#ab8ecd"/><path d="M45,49.28s-1.66-2.06-3.37-.34,1.41,6,3.48,6.68S45,49.28,45,49.28Z" fill="#a4612f"/><path d="M64,49.28s1.66-2.06,3.38-.34-1.42,6-3.49,6.68S64,49.28,64,49.28Z" fill="#a4612f"/></g><g id="face"><ellipse cx="54.56" cy="49.22" rx="10.8" ry="14.82" fill="#a4612f"/><ellipse cx="49.12" cy="51.09" rx="1.27" ry="2.06" transform="translate(-0.75 0.73) rotate(-0.85)" fill="#0c0506"/><ellipse cx="59.28" cy="50.94" rx="1.27" ry="2.06" transform="translate(-0.75 0.88) rotate(-0.85)" fill="#0c0506"/><path d="M58.13,58.18l-3.52.88-3.69-.76a24.81,24.81,0,0,1,3.57-.36A19.87,19.87,0,0,1,58.13,58.18Z" fill="#9e2528"/><path d="M50.92,58.3a13.62,13.62,0,0,0,7.21-.12,4.09,4.09,0,0,1-3.55,2A3.81,3.81,0,0,1,50.92,58.3Z" fill="#d4212d"/></g><g id="hair"><path d="M40.64,43.81a1.7,1.7,0,0,1-1-2c.13-1,.58-1.28,1.86-1.54.39-.32.18-.44,0-.64-1.21-1.35.32-2.56,1.42-2.24-.27-.39.27-1.15.33-1.66a2,2,0,0,1,3.09-1.46,2,2,0,0,1,2.21-1.57,2,2,0,0,1,1.38.82A2,2,0,0,1,51.55,33a2,2,0,0,1,1.36.78H53a2,2,0,0,1,2.14-1.3,1.86,1.86,0,0,1,.71.23A2.06,2.06,0,0,1,57.63,32a2,2,0,0,1,1.74,1.68,2,2,0,0,1,2.81,1.86h.26a2,2,0,0,1,1.76,2.25h0a2,2,0,0,1,1.77,2,1.74,1.74,0,0,1,.51,0,2,2,0,0,1,.64,3.82,2,2,0,0,1,.78,3.63,2,2,0,0,1,.85,1.89,2,2,0,0,1-.33.87h0c.83.42.84,1,.7,2.15a15.58,15.58,0,0,0-.35,1.79A2,2,0,0,1,69.27,55s-.48,1.36-.47,1.39c.19,1-.26,1-1,1.86a1,1,0,0,0-.32,1c-.64.89-.71.83-2,1.15-1.56.39-2.08,0-2.31-.32-.45-.7-.85-1.27.19-1.67s1.06-.92,1.09-1c-.51-1.8.49-1,0-2.81a2,2,0,0,1-1.55-2.21,1.75,1.75,0,0,1,.14-.51c-.91-.18-1.36-.12-1.62-1.59a2.71,2.71,0,0,1,1-2.11,2,2,0,0,1-.36-2.35l-.14-.15a2,2,0,0,1-1.49.42,2,2,0,0,1-1.77-2.26,2,2,0,0,1,.22-.68A2,2,0,0,1,58,40.22a2,2,0,0,1-3-1.21c-.43.54-.85-.55-1.45-1-2.12-1.48-3.52-1-3.53-1,0,.17,0,.7-1.67,1.21s-1.09,3.5-1.15,3.85c-.32,2-.83,4.74-.89,5.23-.14,1.11-1,1.64-1.42,2.85-.14.45-.78-.13-1.09-.45l-.19-.83s-.77.45-1,.26c-1-.19-1.17-.27-1.15-.77-1-.25-1.92-2.06-1.8-3.08A2.66,2.66,0,0,1,40.64,43.81Z"/></g></svg>