<svg xmlns="http://www.w3.org/2000/svg" xmlns:xlink="http://www.w3.org/1999/xlink" width="110" height="194" viewBox="0 0 110 194"><defs><clipPath id="clip-path"><path d="M84.44,82.11c-3.33,3.47-11,4.56-11,4.56s.63-4,0-5.49c-1.06,15.74.84,36,.84,36l-38.2.6s1.45-28.33,2.55-40.63C37.31,80.1,37.23,84,36.74,85L36,87s-8.23-1.17-11-4.39c2.23-21.21,14.64-24.22,14.64-24.22l0,0c1.57-.56,3.3-1,4.56-1.37a21.26,21.26,0,0,0,4.06-1.69c.26,4,6.87,8.67,6.87,8.67s4.31-5.92,6.72-8.42A16.37,16.37,0,0,0,65.48,57a48.34,48.34,0,0,1,5.82,1.83c2.21,2.22,8.37.5,12.22,18.36Z" fill="none"/></clipPath></defs><title>landian-08</title><g id="landians"><path d="M43,35.21s-1.71,8-.43,10.83,3,3.89,2.88,4.77,1.74-.21,1.45-.72,0,2.73,1.23,2.91a8.77,8.77,0,0,0,2.35,0"/><path d="M67.12,35.21s1.7,8,.42,10.83-3,3.89-2.88,4.77-1.74-.21-1.44-.72,0,2.73-1.23,2.91a8.83,8.83,0,0,1-2.36,0"/><path d="M67.34,186.3c-2.33-1,11.86,1.57,13.11,1.89s1.7,4.8,1,4.87-20.28.54-21.65.38-4.51.68-2.43-3C62,182.33,69.66,187.27,67.34,186.3Z" fill="#443a10"/><path d="M81.9,192.21s-22.81.08-25.2,0v1.7l25.37.09Z" fill="#cfd1d2"/><path d="M66.59,187.85a.4.4,0,0,1-.42-.66c.86-.82,2-1.65,2.53-1.27C69.56,186.49,69.21,186.83,66.59,187.85Z" fill="#e5e6e6"/><path d="M70,188.47a.4.4,0,0,1-.46-.63c.73-.86,1.75-1.81,2.35-1.41C72.81,187,72.79,187.36,70,188.47Z" fill="#e5e6e6"/><path d="M73.45,189a.4.4,0,0,1-.46-.63c.74-.86,1.75-1.81,2.35-1.41C76.24,187.55,76.22,187.89,73.45,189Z" fill="#e5e6e6"/><path d="M42.64,186.15c2.32-1-11.86,1.57-13.11,1.89s-1.7,4.8-1,4.87,20.29.54,21.66.38,4.51.68,2.43-3C48,182.18,40.32,187.12,42.64,186.15Z" fill="#443a10"/><path d="M28.08,192.06s22.81.08,25.2,0v1.7l-25.37.09Z" fill="#cfd1d2"/><path d="M43.38,187.7a.4.4,0,0,0,.43-.66c-.86-.82-2-1.65-2.53-1.27C40.41,186.34,40.77,186.68,43.38,187.7Z" fill="#e5e6e6"/><path d="M40,188.32a.4.4,0,0,0,.46-.63c-.74-.86-1.75-1.81-2.35-1.41C37.17,186.88,37.19,187.21,40,188.32Z" fill="#e5e6e6"/><path d="M36.53,188.84a.4.4,0,0,0,.46-.63c-.74-.86-1.75-1.81-2.35-1.41C33.74,187.4,33.76,187.74,36.53,188.84Z" fill="#e5e6e6"/><path d="M41.28,185.77c-.53-5.07-3.69-53-4-64.39-.26-9.28,15.77-9.25,15.77,2.11,0,18.9-.59,66-.59,66S49.1,187.08,41.28,185.77Z" fill="#9a9180"/><path d="M69.24,186.18c0-5.94,2.93-54,3-65.34.06-10-16.63-8.58-15.55,2.78,2,21.06.94,65.54.94,65.54A27.78,27.78,0,0,1,69.24,186.18Z" fill="#9a9180"/><path d="M24.24,91.75c2.25-9.61,5.7-29.4,10-29.62,8.59-.44,5.65,14.22,4.52,16.89S34,87.5,31.87,95.3C31.21,97.71,22.66,98.5,24.24,91.75Z" fill="#ca9067"/><path d="M39.53,59.51s-11.1-1.1-14.15,21.91c0,0,7.09,5.54,11.13,4.18,0,0,5.26-12.47,5.46-16.07S42.36,62.06,39.53,59.51Z" fill="#79589f"/><path d="M25.65,79.55s1.66,2,11.3,4.74l-.88,2.87s-7.51-1.28-11-4.57Z" fill="#a78fcc"/><path d="M85.24,91.27c-2.23-9.6-5.66-29.4-10-29.63-8.59-.45-5.67,14.22-4.54,16.89S75.49,87,77.61,94.82C78.27,97.22,86.81,98,85.24,91.27Z" fill="#ca9067"/><path d="M70,59s11.1-1.09,14.13,21.92c0,0-7.1,5.53-11.14,4.17,0,0-5.24-12.48-5.44-16.08S67.16,61.56,70,59Z" fill="#79589f"/><path d="M83.83,79s-1.65,2.1-11.29,4.8l.88,2.87s7.51-1.27,11-4.56Z" fill="#a78fcc"/><path d="M62.37,56.57c-1.16-1-1.55-6.49-1.55-6.49l-11.41.32s-.13,5.2-2.87,6.46l8.22,24.46Z" fill="#b7784b"/><polygon points="59.04 64.87 50.87 64.87 52.82 61.71 53.42 60.75 53.88 61.88 54.72 63.92 55.9 61.82 56.49 60.75 57.01 61.59 59.04 64.87" fill="#c6b5e8"/><path d="M37.36,108c11,4.83,34.9,1,34.9,1l0,14.36s-20.54,5.3-34.77-.13C37.47,123.29,36.55,111.23,37.36,108Z" fill="#9a9180"/><path d="M73.51,61.08C72.73,58.64,68,57.9,65.27,57a16.66,16.66,0,0,1-3.55-1.42C61.2,59.57,55,64,55,64s-6.61-4.62-6.87-8.67A20.94,20.94,0,0,1,44.07,57c-2.74.88-7.63,1.76-8.41,4.21,0,0,3.23,11.13,3.06,12.49-1.1,9.1-2.9,44.06-2.9,44.06l38.21-.6s-2.74-29.06.17-44.62C74.45,71.22,73.51,61.08,73.51,61.08Z" fill="#79589f"/><path d="M32.38,114.66s0-19-.34-20.86S30.63,91,28.79,90.38s-3.93.47-4.44,3c-1.46,7.32,2.84,18.53,2.66,22.1s-2.84,8-2.55,10.22,2.31,5.21,3,5.15,3.33-2.49,3.65-9.29c0,0,1.08,2.49,2.11,1.94S32.61,116.35,32.38,114.66Z" fill="#ca9067"/><path d="M56.5,60.75l3.33,5.39,4.68-9-2.63-2.08A22.89,22.89,0,0,1,56.5,60.75Z" fill="#a78fcc"/><path d="M77.1,114.47s0-19,.34-20.85,1.41-2.78,3.25-3.43,3.93.48,4.44,3c1.46,7.32-2.84,18.53-2.66,22.1s2.84,8,2.55,10.23-2.3,5.2-3,5.14-3.33-2.49-3.65-9.29c0,0-1.08,2.49-2.1,1.94S76.87,116.17,77.1,114.47Z" fill="#ca9067"/><path d="M50.43,48.33l9-.12A4,4,0,0,1,55.29,52C50.82,52,50.43,48.33,50.43,48.33Z" fill="#fff"/><path d="M53.42,60.75l-3.33,5.39-4.69-9L48,55.11A23,23,0,0,0,53.42,60.75Z" fill="#a78fcc"/><path d="M53.63,68.62v48.91l2.15,0,.12-48.85s-.13-3.78,1.8-6l-1.2-2S53.63,62.81,53.63,68.62Z" fill="#c6b5e8"/><circle cx="55.21" cy="65.82" r="0.73" fill="#fff"/><circle cx="54.78" cy="72.29" r="0.73" fill="#fff"/><circle cx="54.78" cy="78.47" r="0.73" fill="#fff"/><circle cx="54.78" cy="84.68" r="0.73" fill="#fff"/><circle cx="54.78" cy="90.93" r="0.73" fill="#fff"/><circle cx="54.78" cy="97.16" r="0.73" fill="#fff"/><circle cx="54.78" cy="103.39" r="0.73" fill="#fff"/><circle cx="54.78" cy="109.62" r="0.73" fill="#fff"/><circle cx="54.78" cy="115.85" r="0.73" fill="#fff"/><path d="M69.72,78.85a18.4,18.4,0,0,1-.83,5.57h-8a18.6,18.6,0,0,1-.82-5.57,17,17,0,0,1,.82-5.29h8A16.73,16.73,0,0,1,69.72,78.85Z" fill="#a78fcc"/><g clip-path="url(#clip-path)"><path d="M2.8,116.56a.24.24,0,0,0,0-.47.24.24,0,0,0,0,.47Z" fill="#410099"/><path d="M8.13,116.56a.24.24,0,0,0,0-.47.24.24,0,0,0,0,.47Z" fill="#410099"/><path d="M24.12,116.56a.24.24,0,0,0,0-.47.24.24,0,0,0,0,.47Z" fill="#410099"/><path d="M45.45,116.56a.24.24,0,0,0,0-.47.24.24,0,0,0,0,.47Z" fill="#410099"/><path d="M61.44,116.56a.24.24,0,0,0,0-.47.24.24,0,0,0,0,.47Z" fill="#410099"/><path d="M72.1,116.56a.24.24,0,0,0,0-.47.24.24,0,0,0,0,.47Z" fill="#410099"/><path d="M66.77,116.56a.24.24,0,0,0,0-.47.24.24,0,0,0,0,.47Z" fill="#410099"/><path d="M40.12,116.56a.24.24,0,0,0,0-.47.24.24,0,0,0,0,.47Z" fill="#410099"/><path d="M13.46,116.56a.24.24,0,0,0,0-.47.24.24,0,0,0,0,.47Z" fill="#410099"/><path d="M18.79,116.56a.24.24,0,0,0,0-.47.24.24,0,0,0,0,.47Z" fill="#410099"/><path d="M50.78,116.56a.24.24,0,0,0,0-.47.24.24,0,0,0,0,.47Z" fill="#410099"/><path d="M82.76,116.56a.24.24,0,0,0,0-.47.24.24,0,0,0,0,.47Z" fill="#410099"/><path d="M88.09,116.56a.24.24,0,0,0,0-.47.24.24,0,0,0,0,.47Z" fill="#410099"/><path d="M109.41,116.56a.24.24,0,0,0,0-.47.24.24,0,0,0,0,.47Z" fill="#410099"/><path d="M98.75,116.56a.24.24,0,0,0,0-.47.24.24,0,0,0,0,.47Z" fill="#410099"/><path d="M93.42,116.56a.24.24,0,0,0,0-.47.24.24,0,0,0,0,.47Z" fill="#410099"/><path d="M77.43,116.56a.24.24,0,0,0,0-.47.24.24,0,0,0,0,.47Z" fill="#410099"/><path d="M34.78,116.56a.24.24,0,0,0,0-.47.24.24,0,0,0,0,.47Z" fill="#410099"/><path d="M29.45,116.56a.24.24,0,0,0,0-.47.24.24,0,0,0,0,.47Z" fill="#410099"/><path d="M56.11,116.56a.24.24,0,0,0,0-.47.24.24,0,0,0,0,.47Z" fill="#410099"/><path d="M104.08,116.56a.24.24,0,0,0,0-.47.24.24,0,0,0,0,.47Z" fill="#410099"/><path d="M0,120.63a.24.24,0,0,0,0-.47.24.24,0,0,0,0,.47Z" fill="#410099"/><path d="M5.32,120.63a.24.24,0,0,0,0-.47.24.24,0,0,0,0,.47Z" fill="#410099"/><path d="M21.31,120.63a.24.24,0,0,0,0-.47.24.24,0,0,0,0,.47Z" fill="#410099"/><path d="M42.63,120.63a.24.24,0,0,0,0-.47.24.24,0,0,0,0,.47Z" fill="#410099"/><path d="M58.62,120.63a.24.24,0,0,0,0-.47.24.24,0,0,0,0,.47Z" fill="#410099"/><path d="M69.28,120.63a.24.24,0,0,0,0-.47.24.24,0,0,0,0,.47Z" fill="#410099"/><path d="M64,120.63a.24.24,0,0,0,0-.47.24.24,0,0,0,0,.47Z" fill="#410099"/><path d="M37.3,120.63a.24.24,0,0,0,0-.47.24.24,0,0,0,0,.47Z" fill="#410099"/><path d="M10.65,120.63a.24.24,0,0,0,0-.47.24.24,0,0,0,0,.47Z" fill="#410099"/><path d="M16,120.63a.24.24,0,0,0,0-.47.24.24,0,0,0,0,.47Z" fill="#410099"/><path d="M48,120.63a.24.24,0,0,0,0-.47.24.24,0,0,0,0,.47Z" fill="#410099"/><path d="M79.94,120.63a.24.24,0,0,0,0-.47.24.24,0,0,0,0,.47Z" fill="#410099"/><path d="M85.27,120.63a.24.24,0,0,0,0-.47.24.24,0,0,0,0,.47Z" fill="#410099"/><path d="M106.59,120.63a.24.24,0,0,0,0-.47.24.24,0,0,0,0,.47Z" fill="#410099"/><path d="M95.93,120.63a.24.24,0,0,0,0-.47.24.24,0,0,0,0,.47Z" fill="#410099"/><path d="M90.6,120.63a.24.24,0,0,0,0-.47.24.24,0,0,0,0,.47Z" fill="#410099"/><path d="M74.61,120.63a.24.24,0,0,0,0-.47.24.24,0,0,0,0,.47Z" fill="#410099"/><path d="M32,120.63a.24.24,0,0,0,0-.47.24.24,0,0,0,0,.47Z" fill="#410099"/><path d="M26.64,120.63a.24.24,0,0,0,0-.47.24.24,0,0,0,0,.47Z" fill="#410099"/><path d="M53.29,120.63a.24.24,0,0,0,0-.47.24.24,0,0,0,0,.47Z" fill="#410099"/><path d="M101.26,120.63a.24.24,0,0,0,0-.47.24.24,0,0,0,0,.47Z" fill="#410099"/><path d="M0,112.5A.24.24,0,0,0,0,112a.24.24,0,0,0,0,.47Z" fill="#410099"/><path d="M5.32,112.5a.24.24,0,0,0,0-.47.24.24,0,0,0,0,.47Z" fill="#410099"/><path d="M21.31,112.5a.24.24,0,0,0,0-.47.24.24,0,0,0,0,.47Z" fill="#410099"/><path d="M42.63,112.5a.24.24,0,0,0,0-.47.24.24,0,0,0,0,.47Z" fill="#410099"/><path d="M58.62,112.5a.24.24,0,0,0,0-.47.24.24,0,0,0,0,.47Z" fill="#410099"/><path d="M69.28,112.5a.24.24,0,0,0,0-.47.24.24,0,0,0,0,.47Z" fill="#410099"/><path d="M64,112.5a.24.24,0,0,0,0-.47.24.24,0,0,0,0,.47Z" fill="#410099"/><path d="M37.3,112.5a.24.24,0,0,0,0-.47.24.24,0,0,0,0,.47Z" fill="#410099"/><path d="M10.65,112.5a.24.24,0,0,0,0-.47.24.24,0,0,0,0,.47Z" fill="#410099"/><path d="M16,112.5a.24.24,0,0,0,0-.47.24.24,0,0,0,0,.47Z" fill="#410099"/><path d="M48,112.5a.24.24,0,0,0,0-.47.24.24,0,0,0,0,.47Z" fill="#410099"/><path d="M79.94,112.5a.24.24,0,0,0,0-.47.24.24,0,0,0,0,.47Z" fill="#410099"/><path d="M85.27,112.5a.24.24,0,0,0,0-.47.24.24,0,0,0,0,.47Z" fill="#410099"/><path d="M106.59,112.5a.24.24,0,0,0,0-.47.24.24,0,0,0,0,.47Z" fill="#410099"/><path d="M95.93,112.5a.24.24,0,0,0,0-.47.24.24,0,0,0,0,.47Z" fill="#410099"/><path d="M90.6,112.5a.24.24,0,0,0,0-.47.24.24,0,0,0,0,.47Z" fill="#410099"/><path d="M74.61,112.5a.24.24,0,0,0,0-.47.24.24,0,0,0,0,.47Z" fill="#410099"/><path d="M32,112.5a.24.24,0,0,0,0-.47.24.24,0,0,0,0,.47Z" fill="#410099"/><path d="M26.64,112.5a.24.24,0,0,0,0-.47.24.24,0,0,0,0,.47Z" fill="#410099"/><path d="M53.29,112.5a.24.24,0,0,0,0-.47.24.24,0,0,0,0,.47Z" fill="#410099"/><path d="M101.26,112.5a.24.24,0,0,0,0-.47.24.24,0,0,0,0,.47Z" fill="#410099"/><path d="M2.8,108.43a.24.24,0,0,0,0-.47.24.24,0,0,0,0,.47Z" fill="#410099"/><path d="M8.13,108.43a.24.24,0,0,0,0-.47.24.24,0,0,0,0,.47Z" fill="#410099"/><path d="M24.12,108.43a.24.24,0,0,0,0-.47.24.24,0,0,0,0,.47Z" fill="#410099"/><path d="M45.45,108.43a.24.24,0,0,0,0-.47.24.24,0,0,0,0,.47Z" fill="#410099"/><path d="M61.44,108.43a.24.24,0,0,0,0-.47.24.24,0,0,0,0,.47Z" fill="#410099"/><path d="M72.1,108.43a.24.24,0,0,0,0-.47.24.24,0,0,0,0,.47Z" fill="#410099"/><path d="M66.77,108.43a.24.24,0,0,0,0-.47.24.24,0,0,0,0,.47Z" fill="#410099"/><path d="M40.12,108.43a.24.24,0,0,0,0-.47.24.24,0,0,0,0,.47Z" fill="#410099"/><path d="M13.46,108.43a.24.24,0,0,0,0-.47.24.24,0,0,0,0,.47Z" fill="#410099"/><path d="M18.79,108.43a.24.24,0,0,0,0-.47.24.24,0,0,0,0,.47Z" fill="#410099"/><path d="M50.78,108.43a.24.24,0,0,0,0-.47.24.24,0,0,0,0,.47Z" fill="#410099"/><path d="M82.76,108.43a.24.24,0,0,0,0-.47.24.24,0,0,0,0,.47Z" fill="#410099"/><path d="M88.09,108.43a.24.24,0,0,0,0-.47.24.24,0,0,0,0,.47Z" fill="#410099"/><path d="M109.41,108.43a.24.24,0,0,0,0-.47.24.24,0,0,0,0,.47Z" fill="#410099"/><path d="M98.75,108.43a.24.24,0,0,0,0-.47.24.24,0,0,0,0,.47Z" fill="#410099"/><path d="M93.42,108.43a.24.24,0,0,0,0-.47.24.24,0,0,0,0,.47Z" fill="#410099"/><path d="M77.43,108.43a.24.24,0,0,0,0-.47.24.24,0,0,0,0,.47Z" fill="#410099"/><path d="M34.78,108.43a.24.24,0,0,0,0-.47.24.24,0,0,0,0,.47Z" fill="#410099"/><path d="M29.45,108.43a.24.24,0,0,0,0-.47.24.24,0,0,0,0,.47Z" fill="#410099"/><path d="M56.11,108.43a.24.24,0,0,0,0-.47.24.24,0,0,0,0,.47Z" fill="#410099"/><path d="M104.08,108.43a.24.24,0,0,0,0-.47.24.24,0,0,0,0,.47Z" fill="#410099"/><path d="M0,104.37a.24.24,0,0,0,0-.47.24.24,0,0,0,0,.47Z" fill="#410099"/><path d="M5.32,104.37a.24.24,0,0,0,0-.47.24.24,0,0,0,0,.47Z" fill="#410099"/><path d="M21.31,104.37a.24.24,0,0,0,0-.47.24.24,0,0,0,0,.47Z" fill="#410099"/><path d="M42.63,104.37a.24.24,0,0,0,0-.47.24.24,0,0,0,0,.47Z" fill="#410099"/><path d="M58.62,104.37a.24.24,0,0,0,0-.47.24.24,0,0,0,0,.47Z" fill="#410099"/><path d="M69.28,104.37a.24.24,0,0,0,0-.47.24.24,0,0,0,0,.47Z" fill="#410099"/><path d="M64,104.37a.24.24,0,0,0,0-.47.24.24,0,0,0,0,.47Z" fill="#410099"/><path d="M37.3,104.37a.24.24,0,0,0,0-.47.24.24,0,0,0,0,.47Z" fill="#410099"/><path d="M10.65,104.37a.24.24,0,0,0,0-.47.24.24,0,0,0,0,.47Z" fill="#410099"/><path d="M16,104.37a.24.24,0,0,0,0-.47.24.24,0,0,0,0,.47Z" fill="#410099"/><path d="M48,104.37a.24.24,0,0,0,0-.47.24.24,0,0,0,0,.47Z" fill="#410099"/><path d="M79.94,104.37a.24.24,0,0,0,0-.47.24.24,0,0,0,0,.47Z" fill="#410099"/><path d="M85.27,104.37a.24.24,0,0,0,0-.47.24.24,0,0,0,0,.47Z" fill="#410099"/><path d="M106.59,104.37a.24.24,0,0,0,0-.47.24.24,0,0,0,0,.47Z" fill="#410099"/><path d="M95.93,104.37a.24.24,0,0,0,0-.47.24.24,0,0,0,0,.47Z" fill="#410099"/><path d="M90.6,104.37a.24.24,0,0,0,0-.47.24.24,0,0,0,0,.47Z" fill="#410099"/><path d="M74.61,104.37a.24.24,0,0,0,0-.47.24.24,0,0,0,0,.47Z" fill="#410099"/><path d="M32,104.37a.24.24,0,0,0,0-.47.24.24,0,0,0,0,.47Z" fill="#410099"/><path d="M26.64,104.37a.24.24,0,0,0,0-.47.24.24,0,0,0,0,.47Z" fill="#410099"/><path d="M53.29,104.37a.24.24,0,0,0,0-.47.24.24,0,0,0,0,.47Z" fill="#410099"/><path d="M101.26,104.37a.24.24,0,0,0,0-.47.24.24,0,0,0,0,.47Z" fill="#410099"/><path d="M2.8,100.3a.24.24,0,0,0,0-.47.24.24,0,0,0,0,.47Z" fill="#410099"/><path d="M8.13,100.3a.24.24,0,0,0,0-.47.24.24,0,0,0,0,.47Z" fill="#410099"/><path d="M24.12,100.3a.24.24,0,0,0,0-.47.24.24,0,0,0,0,.47Z" fill="#410099"/><path d="M45.45,100.3a.24.24,0,0,0,0-.47.24.24,0,0,0,0,.47Z" fill="#410099"/><path d="M61.44,100.3a.24.24,0,0,0,0-.47.24.24,0,0,0,0,.47Z" fill="#410099"/><path d="M72.1,100.3a.24.24,0,0,0,0-.47.24.24,0,0,0,0,.47Z" fill="#410099"/><path d="M66.77,100.3a.24.24,0,0,0,0-.47.24.24,0,0,0,0,.47Z" fill="#410099"/><path d="M40.12,100.3a.24.24,0,0,0,0-.47.24.24,0,0,0,0,.47Z" fill="#410099"/><path d="M13.46,100.3a.24.24,0,0,0,0-.47.24.24,0,0,0,0,.47Z" fill="#410099"/><path d="M18.79,100.3a.24.24,0,0,0,0-.47.24.24,0,0,0,0,.47Z" fill="#410099"/><path d="M50.78,100.3a.24.24,0,0,0,0-.47.24.24,0,0,0,0,.47Z" fill="#410099"/><path d="M82.76,100.3a.24.24,0,0,0,0-.47.24.24,0,0,0,0,.47Z" fill="#410099"/><path d="M88.09,100.3a.24.24,0,0,0,0-.47.24.24,0,0,0,0,.47Z" fill="#410099"/><path d="M109.41,100.3a.24.24,0,0,0,0-.47.24.24,0,0,0,0,.47Z" fill="#410099"/><path d="M98.75,100.3a.24.24,0,0,0,0-.47.24.24,0,0,0,0,.47Z" fill="#410099"/><path d="M93.42,100.3a.24.24,0,0,0,0-.47.24.24,0,0,0,0,.47Z" fill="#410099"/><path d="M77.43,100.3a.24.24,0,0,0,0-.47.24.24,0,0,0,0,.47Z" fill="#410099"/><path d="M34.78,100.3a.24.24,0,0,0,0-.47.24.24,0,0,0,0,.47Z" fill="#410099"/><path d="M29.45,100.3a.24.24,0,0,0,0-.47.24.24,0,0,0,0,.47Z" fill="#410099"/><path d="M56.11,100.3a.24.24,0,0,0,0-.47.24.24,0,0,0,0,.47Z" fill="#410099"/><path d="M104.08,100.3a.24.24,0,0,0,0-.47.24.24,0,0,0,0,.47Z" fill="#410099"/><path d="M0,96.24a.24.24,0,0,0,0-.47.24.24,0,0,0,0,.47Z" fill="#410099"/><path d="M5.32,96.24a.24.24,0,0,0,0-.47.24.24,0,0,0,0,.47Z" fill="#410099"/><path d="M21.31,96.24a.24.24,0,0,0,0-.47.24.24,0,0,0,0,.47Z" fill="#410099"/><path d="M42.63,96.24a.24.24,0,0,0,0-.47.24.24,0,0,0,0,.47Z" fill="#410099"/><path d="M58.62,96.24a.24.24,0,0,0,0-.47.24.24,0,0,0,0,.47Z" fill="#410099"/><path d="M69.28,96.24a.24.24,0,0,0,0-.47.24.24,0,0,0,0,.47Z" fill="#410099"/><path d="M64,96.24a.24.24,0,0,0,0-.47.24.24,0,0,0,0,.47Z" fill="#410099"/><path d="M37.3,96.24a.24.24,0,0,0,0-.47.24.24,0,0,0,0,.47Z" fill="#410099"/><path d="M10.65,96.24a.24.24,0,0,0,0-.47.24.24,0,0,0,0,.47Z" fill="#410099"/><path d="M16,96.24a.24.24,0,0,0,0-.47.24.24,0,0,0,0,.47Z" fill="#410099"/><path d="M48,96.24a.24.24,0,0,0,0-.47.24.24,0,0,0,0,.47Z" fill="#410099"/><path d="M79.94,96.24a.24.24,0,0,0,0-.47.24.24,0,0,0,0,.47Z" fill="#410099"/><path d="M85.27,96.24a.24.24,0,0,0,0-.47.24.24,0,0,0,0,.47Z" fill="#410099"/><path d="M106.59,96.24a.24.24,0,0,0,0-.47.24.24,0,0,0,0,.47Z" fill="#410099"/><path d="M95.93,96.24a.24.24,0,0,0,0-.47.24.24,0,0,0,0,.47Z" fill="#410099"/><path d="M90.6,96.24a.24.24,0,0,0,0-.47.24.24,0,0,0,0,.47Z" fill="#410099"/><path d="M74.61,96.24a.24.24,0,0,0,0-.47.24.24,0,0,0,0,.47Z" fill="#410099"/><path d="M32,96.24a.24.24,0,0,0,0-.47.24.24,0,0,0,0,.47Z" fill="#410099"/><path d="M26.64,96.24a.24.24,0,0,0,0-.47.24.24,0,0,0,0,.47Z" fill="#410099"/><path d="M53.29,96.24a.24.24,0,0,0,0-.47.24.24,0,0,0,0,.47Z" fill="#410099"/><path d="M101.26,96.24a.24.24,0,0,0,0-.47.24.24,0,0,0,0,.47Z" fill="#410099"/><path d="M2.8,92.17a.24.24,0,0,0,0-.47.24.24,0,0,0,0,.47Z" fill="#410099"/><path d="M8.13,92.17a.24.24,0,0,0,0-.47.24.24,0,0,0,0,.47Z" fill="#410099"/><path d="M24.12,92.17a.24.24,0,0,0,0-.47.24.24,0,0,0,0,.47Z" fill="#410099"/><path d="M45.45,92.17a.24.24,0,0,0,0-.47.24.24,0,0,0,0,.47Z" fill="#410099"/><path d="M61.44,92.17a.24.24,0,0,0,0-.47.24.24,0,0,0,0,.47Z" fill="#410099"/><path d="M72.1,92.17a.24.24,0,0,0,0-.47.24.24,0,0,0,0,.47Z" fill="#410099"/><path d="M66.77,92.17a.24.24,0,0,0,0-.47.24.24,0,0,0,0,.47Z" fill="#410099"/><path d="M40.12,92.17a.24.24,0,0,0,0-.47.24.24,0,0,0,0,.47Z" fill="#410099"/><path d="M13.46,92.17a.24.24,0,0,0,0-.47.24.24,0,0,0,0,.47Z" fill="#410099"/><path d="M18.79,92.17a.24.24,0,0,0,0-.47.24.24,0,0,0,0,.47Z" fill="#410099"/><path d="M50.78,92.17a.24.24,0,0,0,0-.47.24.24,0,0,0,0,.47Z" fill="#410099"/><path d="M82.76,92.17a.24.24,0,0,0,0-.47.24.24,0,0,0,0,.47Z" fill="#410099"/><path d="M88.09,92.17a.24.24,0,0,0,0-.47.24.24,0,0,0,0,.47Z" fill="#410099"/><path d="M109.41,92.17a.24.24,0,0,0,0-.47.24.24,0,0,0,0,.47Z" fill="#410099"/><path d="M98.75,92.17a.24.24,0,0,0,0-.47.24.24,0,0,0,0,.47Z" fill="#410099"/><path d="M93.42,92.17a.24.24,0,0,0,0-.47.24.24,0,0,0,0,.47Z" fill="#410099"/><path d="M77.43,92.17a.24.24,0,0,0,0-.47.24.24,0,0,0,0,.47Z" fill="#410099"/><path d="M34.78,92.17a.24.24,0,0,0,0-.47.24.24,0,0,0,0,.47Z" fill="#410099"/><path d="M29.45,92.17a.24.24,0,0,0,0-.47.24.24,0,0,0,0,.47Z" fill="#410099"/><path d="M56.11,92.17a.24.24,0,0,0,0-.47.24.24,0,0,0,0,.47Z" fill="#410099"/><path d="M104.08,92.17a.24.24,0,0,0,0-.47.24.24,0,0,0,0,.47Z" fill="#410099"/><path d="M0,88.1a.24.24,0,0,0,0-.47.24.24,0,0,0,0,.47Z" fill="#410099"/><path d="M5.32,88.1a.24.24,0,0,0,0-.47.24.24,0,0,0,0,.47Z" fill="#410099"/><path d="M21.31,88.1a.24.24,0,0,0,0-.47.24.24,0,0,0,0,.47Z" fill="#410099"/><path d="M42.63,88.1a.24.24,0,0,0,0-.47.24.24,0,0,0,0,.47Z" fill="#410099"/><path d="M58.62,88.1a.24.24,0,0,0,0-.47.24.24,0,0,0,0,.47Z" fill="#410099"/><path d="M69.28,88.1a.24.24,0,0,0,0-.47.24.24,0,0,0,0,.47Z" fill="#410099"/><path d="M64,88.1a.24.24,0,0,0,0-.47.24.24,0,0,0,0,.47Z" fill="#410099"/><path d="M37.3,88.1a.24.24,0,0,0,0-.47.24.24,0,0,0,0,.47Z" fill="#410099"/><path d="M10.65,88.1a.24.24,0,0,0,0-.47.24.24,0,0,0,0,.47Z" fill="#410099"/><path d="M16,88.1a.24.24,0,0,0,0-.47.24.24,0,0,0,0,.47Z" fill="#410099"/><path d="M48,88.1a.24.24,0,0,0,0-.47.24.24,0,0,0,0,.47Z" fill="#410099"/><path d="M79.94,88.1a.24.24,0,0,0,0-.47.24.24,0,0,0,0,.47Z" fill="#410099"/><path d="M85.27,88.1a.24.24,0,0,0,0-.47.24.24,0,0,0,0,.47Z" fill="#410099"/><path d="M106.59,88.1a.24.24,0,0,0,0-.47.24.24,0,0,0,0,.47Z" fill="#410099"/><path d="M95.93,88.1a.24.24,0,0,0,0-.47.24.24,0,0,0,0,.47Z" fill="#410099"/><path d="M90.6,88.1a.24.24,0,0,0,0-.47.24.24,0,0,0,0,.47Z" fill="#410099"/><path d="M74.61,88.1a.24.24,0,0,0,0-.47.24.24,0,0,0,0,.47Z" fill="#410099"/><path d="M32,88.1a.24.24,0,0,0,0-.47.24.24,0,0,0,0,.47Z" fill="#410099"/><path d="M26.64,88.1a.24.24,0,0,0,0-.47.24.24,0,0,0,0,.47Z" fill="#410099"/><path d="M53.29,88.1a.24.24,0,0,0,0-.47.24.24,0,0,0,0,.47Z" fill="#410099"/><path d="M101.26,88.1a.24.24,0,0,0,0-.47.24.24,0,0,0,0,.47Z" fill="#410099"/><path d="M3.17,84a.24.24,0,0,0,0-.47.24.24,0,0,0,0,.47Z" fill="#410099"/><path d="M8.5,84a.24.24,0,0,0,0-.47.24.24,0,0,0,0,.47Z" fill="#410099"/><path d="M24.49,84a.24.24,0,0,0,0-.47.24.24,0,0,0,0,.47Z" fill="#410099"/><path d="M45.82,84a.24.24,0,0,0,0-.47.24.24,0,0,0,0,.47Z" fill="#410099"/><path d="M61.81,84a.24.24,0,0,0,0-.47.24.24,0,0,0,0,.47Z" fill="#410099"/><path d="M72.47,84a.24.24,0,0,0,0-.47.24.24,0,0,0,0,.47Z" fill="#410099"/><path d="M67.14,84a.24.24,0,0,0,0-.47.24.24,0,0,0,0,.47Z" fill="#410099"/><path d="M40.49,84a.24.24,0,0,0,0-.47.24.24,0,0,0,0,.47Z" fill="#410099"/><path d="M13.83,84a.24.24,0,0,0,0-.47.24.24,0,0,0,0,.47Z" fill="#410099"/><path d="M19.16,84a.24.24,0,0,0,0-.47.24.24,0,0,0,0,.47Z" fill="#410099"/><path d="M51.15,84a.24.24,0,0,0,0-.47.24.24,0,0,0,0,.47Z" fill="#410099"/><path d="M83.13,84a.24.24,0,0,0,0-.47.24.24,0,0,0,0,.47Z" fill="#410099"/><path d="M88.46,84a.24.24,0,0,0,0-.47.24.24,0,0,0,0,.47Z" fill="#410099"/><path d="M109.78,84a.24.24,0,0,0,0-.47.24.24,0,0,0,0,.47Z" fill="#410099"/><path d="M99.12,84a.24.24,0,0,0,0-.47.24.24,0,0,0,0,.47Z" fill="#410099"/><path d="M93.79,84a.24.24,0,0,0,0-.47.24.24,0,0,0,0,.47Z" fill="#410099"/><path d="M77.8,84a.24.24,0,0,0,0-.47.24.24,0,0,0,0,.47Z" fill="#410099"/><path d="M35.16,84a.24.24,0,0,0,0-.47.24.24,0,0,0,0,.47Z" fill="#410099"/><path d="M29.82,84a.24.24,0,0,0,0-.47.24.24,0,0,0,0,.47Z" fill="#410099"/><path d="M56.48,84a.24.24,0,0,0,0-.47.24.24,0,0,0,0,.47Z" fill="#410099"/><path d="M104.45,84a.24.24,0,0,0,0-.47.24.24,0,0,0,0,.47Z" fill="#410099"/><path d="M.36,80a.24.24,0,0,0,0-.47.24.24,0,0,0,0,.47Z" fill="#410099"/><path d="M5.69,80a.24.24,0,0,0,0-.47.24.24,0,0,0,0,.47Z" fill="#410099"/><path d="M21.68,80a.24.24,0,0,0,0-.47.24.24,0,0,0,0,.47Z" fill="#410099"/><path d="M43,80a.24.24,0,0,0,0-.47A.24.24,0,0,0,43,80Z" fill="#410099"/><path d="M59,80a.24.24,0,0,0,0-.47A.24.24,0,0,0,59,80Z" fill="#410099"/><path d="M69.65,80a.24.24,0,0,0,0-.47.24.24,0,0,0,0,.47Z" fill="#410099"/><path d="M64.32,80a.24.24,0,0,0,0-.47.24.24,0,0,0,0,.47Z" fill="#410099"/><path d="M37.67,80a.24.24,0,0,0,0-.47.24.24,0,0,0,0,.47Z" fill="#410099"/><path d="M11,80a.24.24,0,0,0,0-.47A.24.24,0,0,0,11,80Z" fill="#410099"/><path d="M16.35,80a.24.24,0,0,0,0-.47.24.24,0,0,0,0,.47Z" fill="#410099"/><path d="M48.33,80a.24.24,0,0,0,0-.47.24.24,0,0,0,0,.47Z" fill="#410099"/><path d="M80.31,80a.24.24,0,0,0,0-.47.24.24,0,0,0,0,.47Z" fill="#410099"/><path d="M85.64,80a.24.24,0,0,0,0-.47.24.24,0,0,0,0,.47Z" fill="#410099"/><path d="M107,80a.24.24,0,0,0,0-.47.24.24,0,0,0,0,.47Z" fill="#410099"/><path d="M96.3,80a.24.24,0,0,0,0-.47.24.24,0,0,0,0,.47Z" fill="#410099"/><path d="M91,80a.24.24,0,0,0,0-.47A.24.24,0,0,0,91,80Z" fill="#410099"/><path d="M75,80a.24.24,0,0,0,0-.47A.24.24,0,0,0,75,80Z" fill="#410099"/><path d="M32.34,80a.24.24,0,0,0,0-.47.24.24,0,0,0,0,.47Z" fill="#410099"/><path d="M27,80a.24.24,0,0,0,0-.47A.24.24,0,0,0,27,80Z" fill="#410099"/><path d="M53.66,80a.24.24,0,0,0,0-.47.24.24,0,0,0,0,.47Z" fill="#410099"/><path d="M101.63,80a.24.24,0,0,0,0-.47.24.24,0,0,0,0,.47Z" fill="#410099"/><path d="M3.17,75.91a.24.24,0,0,0,0-.47.24.24,0,0,0,0,.47Z" fill="#410099"/><path d="M8.5,75.91a.24.24,0,0,0,0-.47.24.24,0,0,0,0,.47Z" fill="#410099"/><path d="M24.49,75.91a.24.24,0,0,0,0-.47.24.24,0,0,0,0,.47Z" fill="#410099"/><path d="M45.82,75.91a.24.24,0,0,0,0-.47.24.24,0,0,0,0,.47Z" fill="#410099"/><path d="M61.81,75.91a.24.24,0,0,0,0-.47.24.24,0,0,0,0,.47Z" fill="#410099"/><path d="M72.47,75.91a.24.24,0,0,0,0-.47.24.24,0,0,0,0,.47Z" fill="#410099"/><path d="M67.14,75.91a.24.24,0,0,0,0-.47.24.24,0,0,0,0,.47Z" fill="#410099"/><path d="M40.49,75.91a.24.24,0,0,0,0-.47.24.24,0,0,0,0,.47Z" fill="#410099"/><path d="M13.83,75.91a.24.24,0,0,0,0-.47.24.24,0,0,0,0,.47Z" fill="#410099"/><path d="M19.16,75.91a.24.24,0,0,0,0-.47.24.24,0,0,0,0,.47Z" fill="#410099"/><path d="M51.15,75.91a.24.24,0,0,0,0-.47.24.24,0,0,0,0,.47Z" fill="#410099"/><path d="M83.13,75.91a.24.24,0,0,0,0-.47.24.24,0,0,0,0,.47Z" fill="#410099"/><path d="M88.46,75.91a.24.24,0,0,0,0-.47.24.24,0,0,0,0,.47Z" fill="#410099"/><path d="M109.78,75.91a.24.24,0,0,0,0-.47.24.24,0,0,0,0,.47Z" fill="#410099"/><path d="M99.12,75.91a.24.24,0,0,0,0-.47.24.24,0,0,0,0,.47Z" fill="#410099"/><path d="M93.79,75.91a.24.24,0,0,0,0-.47.24.24,0,0,0,0,.47Z" fill="#410099"/><path d="M77.8,75.91a.24.24,0,0,0,0-.47.24.24,0,0,0,0,.47Z" fill="#410099"/><path d="M35.16,75.91a.24.24,0,0,0,0-.47.24.24,0,0,0,0,.47Z" fill="#410099"/><path d="M29.82,75.91a.24.24,0,0,0,0-.47.24.24,0,0,0,0,.47Z" fill="#410099"/><path d="M56.48,75.91a.24.24,0,0,0,0-.47.24.24,0,0,0,0,.47Z" fill="#410099"/><path d="M104.45,75.91a.24.24,0,0,0,0-.47.24.24,0,0,0,0,.47Z" fill="#410099"/><path d="M.36,71.84a.24.24,0,0,0,0-.47.24.24,0,0,0,0,.47Z" fill="#410099"/><path d="M5.69,71.84a.24.24,0,0,0,0-.47.24.24,0,0,0,0,.47Z" fill="#410099"/><path d="M21.68,71.84a.24.24,0,0,0,0-.47.24.24,0,0,0,0,.47Z" fill="#410099"/><path d="M43,71.84a.24.24,0,0,0,0-.47.24.24,0,0,0,0,.47Z" fill="#410099"/><path d="M59,71.84a.24.24,0,0,0,0-.47.24.24,0,0,0,0,.47Z" fill="#410099"/><path d="M69.65,71.84a.24.24,0,0,0,0-.47.24.24,0,0,0,0,.47Z" fill="#410099"/><path d="M64.32,71.84a.24.24,0,0,0,0-.47.24.24,0,0,0,0,.47Z" fill="#410099"/><path d="M37.67,71.84a.24.24,0,0,0,0-.47.24.24,0,0,0,0,.47Z" fill="#410099"/><path d="M11,71.84a.24.24,0,0,0,0-.47.24.24,0,0,0,0,.47Z" fill="#410099"/><path d="M16.35,71.84a.24.24,0,0,0,0-.47.24.24,0,0,0,0,.47Z" fill="#410099"/><path d="M48.33,71.84a.24.24,0,0,0,0-.47.24.24,0,0,0,0,.47Z" fill="#410099"/><path d="M80.31,71.84a.24.24,0,0,0,0-.47.24.24,0,0,0,0,.47Z" fill="#410099"/><path d="M85.64,71.84a.24.24,0,0,0,0-.47.24.24,0,0,0,0,.47Z" fill="#410099"/><path d="M107,71.84a.24.24,0,0,0,0-.47.24.24,0,0,0,0,.47Z" fill="#410099"/><path d="M96.3,71.84a.24.24,0,0,0,0-.47.24.24,0,0,0,0,.47Z" fill="#410099"/><path d="M91,71.84a.24.24,0,0,0,0-.47.24.24,0,0,0,0,.47Z" fill="#410099"/><path d="M75,71.84a.24.24,0,0,0,0-.47.24.24,0,0,0,0,.47Z" fill="#410099"/><path d="M32.34,71.84a.24.24,0,0,0,0-.47.24.24,0,0,0,0,.47Z" fill="#410099"/><path d="M27,71.84a.24.24,0,0,0,0-.47.24.24,0,0,0,0,.47Z" fill="#410099"/><path d="M53.66,71.84a.24.24,0,0,0,0-.47.24.24,0,0,0,0,.47Z" fill="#410099"/><path d="M101.63,71.84a.24.24,0,0,0,0-.47.24.24,0,0,0,0,.47Z" fill="#410099"/><path d="M3.17,67.78a.24.24,0,0,0,0-.47.24.24,0,0,0,0,.47Z" fill="#410099"/><path d="M8.5,67.78a.24.24,0,0,0,0-.47.24.24,0,0,0,0,.47Z" fill="#410099"/><path d="M24.49,67.78a.24.24,0,0,0,0-.47.24.24,0,0,0,0,.47Z" fill="#410099"/><path d="M45.82,67.78a.24.24,0,0,0,0-.47.24.24,0,0,0,0,.47Z" fill="#410099"/><path d="M61.81,67.78a.24.24,0,0,0,0-.47.24.24,0,0,0,0,.47Z" fill="#410099"/><path d="M72.47,67.78a.24.24,0,0,0,0-.47.24.24,0,0,0,0,.47Z" fill="#410099"/><path d="M67.14,67.78a.24.24,0,0,0,0-.47.24.24,0,0,0,0,.47Z" fill="#410099"/><path d="M40.49,67.78a.24.24,0,0,0,0-.47.24.24,0,0,0,0,.47Z" fill="#410099"/><path d="M13.83,67.78a.24.24,0,0,0,0-.47.24.24,0,0,0,0,.47Z" fill="#410099"/><path d="M19.16,67.78a.24.24,0,0,0,0-.47.24.24,0,0,0,0,.47Z" fill="#410099"/><path d="M51.15,67.78a.24.24,0,0,0,0-.47.24.24,0,0,0,0,.47Z" fill="#410099"/><path d="M83.13,67.78a.24.24,0,0,0,0-.47.24.24,0,0,0,0,.47Z" fill="#410099"/><path d="M88.46,67.78a.24.24,0,0,0,0-.47.24.24,0,0,0,0,.47Z" fill="#410099"/><path d="M109.78,67.78a.24.24,0,0,0,0-.47.24.24,0,0,0,0,.47Z" fill="#410099"/><path d="M99.12,67.78a.24.24,0,0,0,0-.47.24.24,0,0,0,0,.47Z" fill="#410099"/><path d="M93.79,67.78a.24.24,0,0,0,0-.47.24.24,0,0,0,0,.47Z" fill="#410099"/><path d="M77.8,67.78a.24.24,0,0,0,0-.47.24.24,0,0,0,0,.47Z" fill="#410099"/><path d="M35.16,67.78a.24.24,0,0,0,0-.47.24.24,0,0,0,0,.47Z" fill="#410099"/><path d="M29.82,67.78a.24.24,0,0,0,0-.47.24.24,0,0,0,0,.47Z" fill="#410099"/><path d="M56.48,67.78a.24.24,0,0,0,0-.47.24.24,0,0,0,0,.47Z" fill="#410099"/><path d="M104.45,67.78a.24.24,0,0,0,0-.47.24.24,0,0,0,0,.47Z" fill="#410099"/><path d="M.36,63.71a.24.24,0,0,0,0-.47.24.24,0,0,0,0,.47Z" fill="#410099"/><path d="M5.69,63.71a.24.24,0,0,0,0-.47.24.24,0,0,0,0,.47Z" fill="#410099"/><path d="M21.68,63.71a.24.24,0,0,0,0-.47.24.24,0,0,0,0,.47Z" fill="#410099"/><path d="M43,63.71a.24.24,0,0,0,0-.47.24.24,0,0,0,0,.47Z" fill="#410099"/><path d="M59,63.71a.24.24,0,0,0,0-.47.24.24,0,0,0,0,.47Z" fill="#410099"/><path d="M69.65,63.71a.24.24,0,0,0,0-.47.24.24,0,0,0,0,.47Z" fill="#410099"/><path d="M64.32,63.71a.24.24,0,0,0,0-.47.24.24,0,0,0,0,.47Z" fill="#410099"/><path d="M37.67,63.71a.24.24,0,0,0,0-.47.24.24,0,0,0,0,.47Z" fill="#410099"/><path d="M11,63.71a.24.24,0,0,0,0-.47.24.24,0,0,0,0,.47Z" fill="#410099"/><path d="M16.35,63.71a.24.24,0,0,0,0-.47.24.24,0,0,0,0,.47Z" fill="#410099"/><path d="M48.33,63.71a.24.24,0,0,0,0-.47.24.24,0,0,0,0,.47Z" fill="#410099"/><path d="M80.31,63.71a.24.24,0,0,0,0-.47.24.24,0,0,0,0,.47Z" fill="#410099"/><path d="M85.64,63.71a.24.24,0,0,0,0-.47.24.24,0,0,0,0,.47Z" fill="#410099"/><path d="M107,63.71a.24.24,0,0,0,0-.47.24.24,0,0,0,0,.47Z" fill="#410099"/><path d="M96.3,63.71a.24.24,0,0,0,0-.47.24.24,0,0,0,0,.47Z" fill="#410099"/><path d="M91,63.71a.24.24,0,0,0,0-.47.24.24,0,0,0,0,.47Z" fill="#410099"/><path d="M75,63.71a.24.24,0,0,0,0-.47.24.24,0,0,0,0,.47Z" fill="#410099"/><path d="M32.34,63.71a.24.24,0,0,0,0-.47.24.24,0,0,0,0,.47Z" fill="#410099"/><path d="M27,63.71a.24.24,0,0,0,0-.47.24.24,0,0,0,0,.47Z" fill="#410099"/><path d="M53.66,63.71a.24.24,0,0,0,0-.47.24.24,0,0,0,0,.47Z" fill="#410099"/><path d="M101.63,63.71a.24.24,0,0,0,0-.47.24.24,0,0,0,0,.47Z" fill="#410099"/><path d="M3.17,59.65a.24.24,0,0,0,0-.47.24.24,0,0,0,0,.47Z" fill="#410099"/><path d="M8.5,59.65a.24.24,0,0,0,0-.47.24.24,0,0,0,0,.47Z" fill="#410099"/><path d="M24.49,59.65a.24.24,0,0,0,0-.47.24.24,0,0,0,0,.47Z" fill="#410099"/><path d="M45.82,59.65a.24.24,0,0,0,0-.47.24.24,0,0,0,0,.47Z" fill="#410099"/><path d="M61.81,59.65a.24.24,0,0,0,0-.47.24.24,0,0,0,0,.47Z" fill="#410099"/><path d="M72.47,59.65a.24.24,0,0,0,0-.47.24.24,0,0,0,0,.47Z" fill="#410099"/><path d="M67.14,59.65a.24.24,0,0,0,0-.47.24.24,0,0,0,0,.47Z" fill="#410099"/><path d="M40.49,59.65a.24.24,0,0,0,0-.47.24.24,0,0,0,0,.47Z" fill="#410099"/><path d="M13.83,59.65a.24.24,0,0,0,0-.47.24.24,0,0,0,0,.47Z" fill="#410099"/><path d="M19.16,59.65a.24.24,0,0,0,0-.47.24.24,0,0,0,0,.47Z" fill="#410099"/><path d="M51.15,59.65a.24.24,0,0,0,0-.47.24.24,0,0,0,0,.47Z" fill="#410099"/><path d="M83.13,59.65a.24.24,0,0,0,0-.47.24.24,0,0,0,0,.47Z" fill="#410099"/><path d="M88.46,59.65a.24.24,0,0,0,0-.47.24.24,0,0,0,0,.47Z" fill="#410099"/><path d="M109.78,59.65a.24.24,0,0,0,0-.47.24.24,0,0,0,0,.47Z" fill="#410099"/><path d="M99.12,59.65a.24.24,0,0,0,0-.47.24.24,0,0,0,0,.47Z" fill="#410099"/><path d="M93.79,59.65a.24.24,0,0,0,0-.47.24.24,0,0,0,0,.47Z" fill="#410099"/><path d="M77.8,59.65a.24.24,0,0,0,0-.47.24.24,0,0,0,0,.47Z" fill="#410099"/><path d="M35.16,59.65a.24.24,0,0,0,0-.47.24.24,0,0,0,0,.47Z" fill="#410099"/><path d="M29.82,59.65a.24.24,0,0,0,0-.47.24.24,0,0,0,0,.47Z" fill="#410099"/><path d="M56.48,59.65a.24.24,0,0,0,0-.47.24.24,0,0,0,0,.47Z" fill="#410099"/><path d="M104.45,59.65a.24.24,0,0,0,0-.47.24.24,0,0,0,0,.47Z" fill="#410099"/><path d="M.36,55.58a.24.24,0,0,0,0-.47.24.24,0,0,0,0,.47Z" fill="#410099"/><path d="M5.69,55.58a.24.24,0,0,0,0-.47.24.24,0,0,0,0,.47Z" fill="#410099"/><path d="M21.68,55.58a.24.24,0,0,0,0-.47.24.24,0,0,0,0,.47Z" fill="#410099"/><path d="M43,55.58a.24.24,0,0,0,0-.47.24.24,0,0,0,0,.47Z" fill="#410099"/><path d="M59,55.58a.24.24,0,0,0,0-.47.24.24,0,0,0,0,.47Z" fill="#410099"/><path d="M69.65,55.58a.24.24,0,0,0,0-.47.24.24,0,0,0,0,.47Z" fill="#410099"/><path d="M64.32,55.58a.24.24,0,0,0,0-.47.24.24,0,0,0,0,.47Z" fill="#410099"/><path d="M37.67,55.58a.24.24,0,0,0,0-.47.24.24,0,0,0,0,.47Z" fill="#410099"/><path d="M11,55.58a.24.24,0,0,0,0-.47.24.24,0,0,0,0,.47Z" fill="#410099"/><path d="M16.35,55.58a.24.24,0,0,0,0-.47.24.24,0,0,0,0,.47Z" fill="#410099"/><path d="M48.33,55.58a.24.24,0,0,0,0-.47.24.24,0,0,0,0,.47Z" fill="#410099"/><path d="M80.31,55.58a.24.24,0,0,0,0-.47.24.24,0,0,0,0,.47Z" fill="#410099"/><path d="M85.64,55.58a.24.24,0,0,0,0-.47.24.24,0,0,0,0,.47Z" fill="#410099"/><path d="M107,55.58a.24.24,0,0,0,0-.47.24.24,0,0,0,0,.47Z" fill="#410099"/><path d="M96.3,55.58a.24.24,0,0,0,0-.47.24.24,0,0,0,0,.47Z" fill="#410099"/><path d="M91,55.58a.24.24,0,0,0,0-.47.24.24,0,0,0,0,.47Z" fill="#410099"/><path d="M75,55.58a.24.24,0,0,0,0-.47.24.24,0,0,0,0,.47Z" fill="#410099"/><path d="M32.34,55.58a.24.24,0,0,0,0-.47.24.24,0,0,0,0,.47Z" fill="#410099"/><path d="M27,55.58a.24.24,0,0,0,0-.47.24.24,0,0,0,0,.47Z" fill="#410099"/><path d="M53.66,55.58a.24.24,0,0,0,0-.47.24.24,0,0,0,0,.47Z" fill="#410099"/><path d="M101.63,55.58a.24.24,0,0,0,0-.47.24.24,0,0,0,0,.47Z" fill="#410099"/></g><path d="M47,42.16S45.27,40,43.47,41.8s1.48,6.31,3.66,7S47,42.16,47,42.16Z" fill="#ca9067"/><path d="M62.69,41.93s1.69-2.23,3.54-.47-1.3,6.36-3.46,7.14S62.69,41.93,62.69,41.93Z" fill="#ca9067"/></g><g id="face"><path d="M65.49,42.1c.11,7.63-5.72,13.9-10.23,14S44.74,50,44.63,42.41,44.35,28,54.86,28C66.89,27.85,65.38,34.47,65.49,42.1Z" fill="#ca9067"/><ellipse cx="50.54" cy="40.61" rx="1.21" ry="1.97" transform="translate(-0.59 0.75) rotate(-0.85)" fill="#0c0506"/><ellipse cx="60.24" cy="40.46" rx="1.21" ry="1.97" transform="translate(-0.59 0.9) rotate(-0.85)" fill="#0c0506"/><path d="M50.9,48l8.73-.12a3.87,3.87,0,0,1-4,3.63C51.28,51.61,50.9,48,50.9,48Z" fill="#fff"/></g><g id="hair"><path d="M67.31,36a14.94,14.94,0,0,0-.85,4.9s-2.17.22-4.67-6.07c-2.31-3.9-13.49-1.46-15.31-3.54a24.19,24.19,0,0,1-.21,3.39c-.12.9.15,2.67,0,3.42-.1.41-.42-1-.73.21a12.2,12.2,0,0,1-1,2.81s-2.43-7.6-1.9-9.34,1.81-1.82,3.71-2.34c0,0,2.38-7.68,12.72-5.79a8.93,8.93,0,0,1-.87,1.92c2.69-.13,6.43,3.4,9.12,1.61,0,0,1,1.71-.47,6.44,0,.05,1.83-.32,1.81-.28C68.31,34.34,67.69,34.84,67.31,36Z"/></g></svg>