<svg xmlns="http://www.w3.org/2000/svg" width="110" height="194" viewBox="0 0 110 194"><title>landian-05-body</title><g id="landians"><path d="M44.69,61s-.42,12.83,4.92,13.09l2.23-6.72S51,63.24,44.69,61Z" fill="#955223"/><path d="M60.39,74.31s4.32.22,5.43-.55c0,0-2.61-8.43-2.14-11.55l-4.36.43S54.19,71.06,60.39,74.31Z" fill="#955223"/><path d="M44.06,45s-2.87,2.22-3.47,9.57c0,0,.13,2.44.3,4.75,0,0,.64,3.21.09,4.88,0,0-1.54,4.87.51,8.12,0,0,2,3.68,9.15,2.39l2.74-5S56.2,58.8,44.06,45Z" fill="#ac5f27"/><path d="M68.13,72.94c4.58,2.46,8.35,27,6.07,28.06s-4-2.46-5.65-6.4-5.47-11.31-6.32-14.28C61.17,76.59,63.55,70.48,68.13,72.94Z" fill="#79589f"/><path d="M42.28,73.63c-4.58,2.47-8.34,27-6.07,28.07s4-2.47,5.65-6.4S47.33,84,48.18,81C49.24,77.29,46.87,71.17,42.28,73.63Z" fill="#79589f"/><path d="M67.3,151.06s5.88-15.57,3.39-29.68-14.12-4.57-13.91,7.26.36,21.17.34,23.25C57.07,159.57,63.14,161.65,67.3,151.06Z" fill="#595138"/><path d="M64.42,177.07s-1.59,6.63.18,8.57,8.49,8,8.49,8l-15.52-3.5s.62-8.72.62-12.24S64.42,177.07,64.42,177.07Z" fill="#e4b88b"/><path d="M66,178.57s1.12-22.57.91-28S59,145,58,149.9c-1.24,6.23-2.21,8.47-1.66,17.65.37,6,.54,10.07.64,11.34C57,179.62,64.55,181.11,66,178.57Z" fill="#595138"/><path d="M57.59,187.45s-.28,1,6.67,1.5a7.34,7.34,0,0,0,3.84-.67s7.09,3.28,7.24,4.26c0,1.23-4,1.34-8.79,1.24-1.72,0-9.71-.11-9.71-.11S55.42,190.07,57.59,187.45Z"/><path d="M70.05,189.17s-2.89-2.67-4-3A1.48,1.48,0,0,0,64.38,188c.33.78,2.22,2,2.22,2Z"/><path d="M71.38,189.84s4.34.67,4.56,3.89c-4.34.67-19.46-.11-19.46-.11s-1.67-4.12,1.11-6.17a14.28,14.28,0,0,1,2,4.61l11,.22A3.77,3.77,0,0,1,71.38,189.84Z"/><path d="M65.38,189.62s1.11-2.12,2.22-2.67l1,.89Z" fill="#cbcbca"/><path d="M66.82,191a7.67,7.67,0,0,1,2.23-2.67l1,.89Z" fill="#cbcbca"/><path d="M42.6,149.18s-5.88-15.57-3.39-29.69,14.11-4.56,13.91,7.27-.36,21.17-.35,23.25C52.82,157.69,46.75,159.77,42.6,149.18Z" fill="#595138"/><path d="M45.57,177.07s1.59,6.63-.19,8.57-8.48,8-8.48,8l15.52-3.5s-.63-8.72-.63-12.24S45.57,177.07,45.57,177.07Z" fill="#e4b88b"/><path d="M44,178.57s-1.13-22.57-.92-28S51,145,52,149.9c1.25,6.23,2.22,8.47,1.66,17.65-.36,6-.53,10.07-.64,11.34C53,179.62,45.44,181.11,44,178.57Z" fill="#595138"/><path d="M52,187.45s.27,1-6.68,1.5a7.32,7.32,0,0,1-3.83-.67s-7.09,3.28-7.24,4.26c0,1.23,4,1.34,8.79,1.24,1.72,0,9.71-.11,9.71-.11S54.21,190.07,52,187.45Z"/><path d="M39.58,189.17s2.89-2.67,4-3A1.48,1.48,0,0,1,45.25,188c-.33.78-2.22,2-2.22,2Z"/><path d="M38.25,189.84s-4.34.67-4.56,3.89c4.34.67,19.46-.11,19.46-.11s1.66-4.12-1.11-6.17a14.45,14.45,0,0,0-2,4.61l-11,.22A3.77,3.77,0,0,0,38.25,189.84Z"/><path d="M44.25,189.62S43.14,187.5,42,187l-1,.89Z" fill="#cbcbca"/><path d="M42.81,191a7.67,7.67,0,0,0-2.23-2.67l-1,.89Z" fill="#cbcbca"/><path d="M43.14,107.07s-2.15,3.11-3.81,13.07,32.37,9.92,31.07-.2a36.32,36.32,0,0,0-3.87-12.87Z" fill="#595138"/><path d="M60.7,70.21c-1.92-1.41-5.45-1.16-5.45-1.16-5,0-5.32,1.16-5.32,1.16s-2.38,5.38,2,5.38a10.46,10.46,0,0,0,7.25-.38l1.66-3Z" fill="#513875"/><path d="M51.3,65.2s1.56,5.37-1.26,6.9c-.62.34,1.79,26.05,5.08,26.26,2.33.15,4.36-21.15,5.77-26.17,0,0-2.69-.52-2.06-6.31C59.1,63.4,51.3,65.2,51.3,65.2Z" fill="#c89d7c"/><path d="M49.65,71.68S43.3,73,43.09,73.82c-.21,2.49-1.43,6.82,0,11.43,1,3.28.92,14.87.51,16.53s-1.76,3-2.59,6.37,19.3,7.54,26.43.41c1.18-1.18-1.24-4.91-1.24-6.57s-1-14.67.17-16.81c1.59-3,2.09-10.2,1.48-11.05-1-1.45-7.09-2.45-7.09-2.45L55.25,82.46Z" fill="#79589f"/><polygon points="47.04 78.09 49.74 75.66 55.25 82.46 51.24 73.61 50.12 73.22 47.04 78.09" fill="#513875"/><polygon points="47.4 72.19 46.53 79.51 50.15 75.47 48.36 71.91 47.4 72.19" fill="#513875"/><polygon points="53.84 79.7 49.87 74.12 47.23 77.65 48.03 72.1 50.06 70.08 53.84 79.7" fill="#79589f"/><polygon points="63.52 77.84 60.83 75.4 55.21 82.58 59.32 73.35 60.45 72.97 63.52 77.84" fill="#513875"/><polygon points="63.08 72.19 64.04 79.25 60.41 75.21 62.31 71.98 63.08 72.19" fill="#513875"/><polygon points="56.45 79.85 60.7 73.86 63.33 77.39 62.61 72.11 60.68 70.19 56.45 79.85" fill="#79589f"/><path d="M55.21,82.58v21.9s.21,6.5-.13,7.91c0,0,0,.12,1.37,0V80.87Z" fill="#513875"/><path d="M81.51,123.67s-2.76-11.42-3-14.15-2.37-13.47-5.73-12.29c-3,1-1.94,8.66.21,13.8s5.38,12,5.54,13.48c.39,3.46-.7,8.16-.16,8.52.7.46,1.21-.86,1.87-3,1,0,3,4.16,5.45,5.57s.68-5.36-.37-6.78C84.5,127.69,82,125.16,81.51,123.67Z" fill="#e4b88b"/><path d="M81.72,122.77s-3.4-28.6-8.94-26.16c-2.7,1.19-1.7,8.36-1.7,8.36l6,19.49Z" fill="#79589f"/><path d="M28.49,124.21s2.76-11.43,3-14.15,2.37-13.48,5.73-12.3c3,1,1.94,8.66-.21,13.8s-5.38,12-5.54,13.49c-.39,3.46.7,8.15.16,8.52-.7.46-1.21-.86-1.87-3-1,0-3.05,4.16-5.45,5.57s-.68-5.36.37-6.79C25.5,128.23,28,125.7,28.49,124.21Z" fill="#e4b88b"/><path d="M28.28,123.3s3.4-28.59,8.94-26.15c2.7,1.18,1.7,8.36,1.7,8.36l-6,19.49Z" fill="#79589f"/><path d="M45.78,52.58s-1.64-2-3.32-.33,1.39,5.88,3.42,6.55S45.78,52.58,45.78,52.58Z" fill="#e4b88b"/></g></svg>