<svg xmlns="http://www.w3.org/2000/svg" xmlns:xlink="http://www.w3.org/1999/xlink" width="110" height="194" viewBox="0 0 110 194"><defs><linearGradient id="New_Gradient_Swatch_4" x1="63.5" y1="112.35" x2="63.5" y2="179.13" gradientUnits="userSpaceOnUse"><stop offset="0" stop-color="#2c3b4c"/><stop offset="0.21" stop-color="#293747"/><stop offset="0.46" stop-color="#212c38"/><stop offset="0.73" stop-color="#131920"/><stop offset="1"/></linearGradient><linearGradient id="New_Gradient_Swatch_4-2" x1="48.54" y1="112.53" x2="48.54" y2="179.71" xlink:href="#New_Gradient_Swatch_4"/><clipPath id="clip-path"><rect x="56.14" y="104.1" width="0.83" height="6.98" fill="none"/></clipPath></defs><title>landian-33</title><g id="landians"><path d="M44,43.94s-1.7,8-.43,10.84,3,3.88,2.89,4.77,1.73-.22,1.44-.73,0,2.73,1.23,2.91a8.83,8.83,0,0,0,2.36,0"/><path d="M68.17,43.94s1.7,8,.42,10.84-3,3.88-2.88,4.77-1.74-.22-1.44-.73,0,2.73-1.23,2.91a8.83,8.83,0,0,1-2.36,0"/><path d="M46.86,175.6s1.47,6.74-.23,9.52a22.31,22.31,0,0,1-7.25,7.09l14.32-3.55s-.62-8.7-.62-12.23S46.86,175.6,46.86,175.6Z" fill="#fad8b4"/><path d="M53.77,180.77l-6.56.68s0,2.93-1.09,4a58.23,58.23,0,0,1-5,4.3s-6.48,0-5.74,3.66c0,.55,4.41.57,9.73.46,1.9,0,5.7-.38,5.7-.38v.4h3.46A94.38,94.38,0,0,0,53.77,180.77Z"/><path d="M65.31,175.6s-1.46,6.74.23,9.52a22.31,22.31,0,0,0,7.25,7.09l-14.32-3.55s.63-8.7.63-12.23S65.31,175.6,65.31,175.6Z" fill="#fad8b4"/><path d="M65.92,178s4.51-58.8,4.31-63.27-12.14-1.82-13.12,2.23c-1.24,5.16,1.22,60.25,1.33,61.3C58.5,178.82,64.52,180.05,65.92,178Z" fill="url(#New_Gradient_Swatch_4)"/><path d="M46.15,178.54s-4.2-58.76-4-63.23,11.27-3.1,12.25,1c1.24,5.16-.17,61.49-.27,62.54C54.08,179.41,47.55,180.64,46.15,178.54Z" fill="url(#New_Gradient_Swatch_4-2)"/><path d="M42.58,107s-.45,6.91-.42,8.33c0,1,0,1.42.56,1.9,5.19,4.52,21.14,4.74,26.16-.28.81-.82,1.41-1.16,1.35-2.25-.08-1.28-.54-7.94-.54-7.94Z" fill="#2c3b4c"/><path d="M45.56,68.13s-.7-5,11.83-3.79l-.14,4Z" fill="#79589f"/><path d="M66.6,68.13s.71-5-11.82-3.79l.14,4Z" fill="#79589f"/><path d="M43.23,69.14c-4.66,2.51-7.07,17.29-7.73,19.39-.86,2.74-2.34,9,0,10s3.84-2.48,5.56-6.49,5.72-12.27,6.58-15.29C48.7,73,47.9,66.64,43.23,69.14Z" fill="#410099"/><path d="M69.23,69.19c4.65,2.54,7,17.33,7.6,19.44.85,2.75,2.33,8.24,0,9.3s-4-2.54-5.7-6.55-5.5-11.56-6.34-14.58C63.73,73,64.58,66.66,69.23,69.19Z" fill="#410099"/><path d="M52.71,59.83s1.85,5.54-1.4,7.12c-.09,0-1.39.54-1.36,1.45.15,5.63,3.76,25,6.64,25.18,2.16.14,5.54-18.76,6.85-25.78.12-.68-.34-.74-1.63-.93,0,0-2.13-.3-1.44-6.34C60.66,58,52.71,59.83,52.71,59.83Z" fill="#b7784b"/><path d="M28.23,119.76s2.82-11.62,3.05-14.39,2.41-13.72,5.83-12.52c3,1.07,2,8.81-.22,14.05s-5.47,12.23-5.64,13.72c-.39,3.52.72,8.3.17,8.67-.71.47-1.23-.87-1.9-3-1.07,0-3.11,4.24-5.55,5.67s-.69-5.46.38-6.91C25.19,123.86,27.7,121.28,28.23,119.76Z" fill="#c58b5e"/><path d="M84.21,119.76s-2.81-11.62-3-14.39-2.41-13.72-5.82-12.52c-3,1.07-2,8.81.21,14.05s5.47,12.23,5.64,13.72c.4,3.52-.72,8.3-.16,8.67s1.22-.87,1.9-3c1.06,0,3.1,4.24,5.55,5.67s.68-5.46-.38-6.91C87.25,123.86,84.75,121.28,84.21,119.76Z" fill="#c58b5e"/><path d="M47.1,48.62s-1.66-2.06-3.37-.34,1.41,6,3.48,6.67S47.1,48.62,47.1,48.62Z" fill="#c58b5e"/><path d="M66.07,48.62s1.67-2.06,3.38-.34S68,54.27,66,55,66.07,48.62,66.07,48.62Z" fill="#c58b5e"/><path d="M51.16,66.94s-6.57,1.57-6.78,2.41a65.86,65.86,0,0,0,.84,11.5c.73,5.75.81,7.75,1,10.88,0,.26-.54,4.86-.93,6.94-.26,1.42-.42,2.14-.77,3.66-.63,2.79-1.08,3.32-1.31,4.71-.34,2,25,1.93,26,.15.16-.28-.16-.84-.77-4-.21-1.06-.55-2-.85-3.93s-.91-7-.85-7.56c.6-5.64.6-8,1-11.09.49-3.44,1.78-9.92,1.16-10.78-1-1.48-6.86-2.9-6.86-2.9l-.79,2c-1.73,2.21-2.39,2.36-4.52,2.44A5.07,5.07,0,0,1,52.28,69Z"/><path d="M56.32,79.78a18.76,18.76,0,0,0-2.09-3.5C51.6,72.54,49,70.46,49.36,67c-.33-.65-5,1.69-5.89,2.8-1.19,1.57.58,8.35,1.05,12.17a90.65,90.65,0,0,1,.58,9.89c0,6.48-3.32,11.65-3.13,13.64.4,4.25,9.74,5.15,13,4.73l2.49,0c3.21,0,12.34.07,12.73-4.1a5.37,5.37,0,0,0-.43-1.51C69,102.11,67.07,97.35,67,92c0-4.21,1.39-9.39,1.39-10.9s2.24-10.25,1-11.82c-.85-1.11-6.4-3-6.73-2.35-.29,3-3.19,5.47-5.23,10.29,0,0-.16.42-.34.85a8.81,8.81,0,0,0-.41,1.76,5.23,5.23,0,0,1-.17.63C56.51,80.49,56.37,79.93,56.32,79.78Z" fill="#410099"/><path d="M56.57,81.5a8.8,8.8,0,0,1,.15-2.82c2-6.32,5.8-8.49,5.66-11.73-.1-2.33,4.15-.65,6.33,1.51.24.23-6,.89-11.38,10.3a16.24,16.24,0,0,0-.51,2.14C56.75,81.23,56.6,82.45,56.57,81.5Z" fill="#79589f"/><polygon points="56.21 80.62 56.15 107.98 56.95 107.98 56.93 80.63 56.21 80.62" fill="#fff"/><g id="ferMqf"><path d="M56.61,83.88l-.12,0v0a.71.71,0,0,1,.25,0v.08Z" fill="#a0a0a0"/><path d="M56.49,82.84a.54.54,0,0,1,.25,0v.09h-.15l-.09,0s0,0,0,0Z" fill="#a0a0a0"/><path d="M56.75,81.43a.17.17,0,0,1,0,.07H56.5s0,0,0,0,0,0,0,0a1,1,0,0,1,.24,0Z" fill="#a0a0a0"/><path d="M56.74,82.61v.08a.71.71,0,0,1-.25,0h0s0,0,0,0h0A.61.61,0,0,1,56.74,82.61Z" fill="#a0a0a0"/><path d="M56.49,83.06h0s0,0,0,0h.23v.09A.54.54,0,0,1,56.49,83.06Z" fill="#a0a0a0"/><path d="M56.49,81.88h0s0,0,0,0a.5.5,0,0,1,.21,0h0v.08A.71.71,0,0,1,56.49,81.88Z" fill="#a0a0a0"/><path d="M56.49,80.89v0h0a.62.62,0,0,1,.19,0h0a.19.19,0,0,1,0,.08A.74.74,0,0,1,56.49,80.89Z" fill="#a0a0a0"/><path d="M56.74,82.41v.09a1.07,1.07,0,0,1-.25,0v0A1.07,1.07,0,0,1,56.74,82.41Z" fill="#a0a0a0"/><path d="M56.75,83.2a.22.22,0,0,1,0,.08h0a1,1,0,0,1-.24,0h0v0A.74.74,0,0,1,56.75,83.2Z" fill="#a0a0a0"/><path d="M56.49,83.46h0s0,0,0,0h.22v.08A.71.71,0,0,1,56.49,83.46Z" fill="#a0a0a0"/><path d="M56.49,80.66a.71.71,0,0,1,.25,0v.08h0a.68.68,0,0,1-.2,0h0s0,0,0,0Z" fill="#a0a0a0"/><path d="M56.74,82.3a.61.61,0,0,1-.19,0h0s0,0,0,0,0,0,0,0l.11,0h.13Z" fill="#a0a0a0"/><path d="M56.49,82a.71.71,0,0,1,.25,0v.08H56.6l-.09,0s0,0,0,0Z" fill="#a0a0a0"/><path d="M56.49,81.05a1.06,1.06,0,0,1,.25,0v.09a1.1,1.1,0,0,1-.18,0h-.05s0,0,0,0Z" fill="#a0a0a0"/><path d="M56.62,82a.58.58,0,0,1-.26,0v-.08h0a.58.58,0,0,1,.23,0S56.62,81.94,56.62,82Z" fill="#a0a0a0"/><path d="M56.36,81.41v-.08h0a.75.75,0,0,1,.21,0h0s0,0,0,0l0,0A.69.69,0,0,1,56.36,81.41Z" fill="#a0a0a0"/><path d="M56.62,82.77a.76.76,0,0,1-.26,0v-.08h.16l.08,0s0,0,0,0Z" fill="#a0a0a0"/><path d="M56.74,81.62v.09a1.07,1.07,0,0,1-.25,0v0h0l.25,0Z" fill="#a0a0a0"/><path d="M56.36,81.8v-.08a.49.49,0,0,1,.17,0h.08s0,0,0,0,0,0,0,0A.71.71,0,0,1,56.36,81.8Z" fill="#a0a0a0"/><path d="M56.62,83.16a.77.77,0,0,1-.26,0V83.1h0a.76.76,0,0,1,.21,0,0,0,0,0,1,0,0h0Z" fill="#a0a0a0"/><path d="M56.74,81.23v.08a.71.71,0,0,1-.25,0h0s0,0,0,0A.62.62,0,0,1,56.74,81.23Z" fill="#a0a0a0"/><path d="M56.36,80.54a.76.76,0,0,1,.26,0h0s0,0,0,0a.75.75,0,0,1-.21,0h0Z" fill="#a0a0a0"/><path d="M56.36,83v-.08h0a.5.5,0,0,1,.21,0s0,0,0,0v0a.65.65,0,0,1-.24,0Z" fill="#a0a0a0"/><path d="M56.36,82.59v-.08h.25v0a0,0,0,0,1,0,0,1,1,0,0,1-.25,0Z" fill="#a0a0a0"/><path d="M56.36,83.69h.15l.09,0s0,0,0,0h0a.58.58,0,0,1-.26,0Z" fill="#a0a0a0"/><path d="M56.36,82.4v-.09h.09l.15,0s0,0,0,0A1.15,1.15,0,0,1,56.36,82.4Z" fill="#a0a0a0"/><path d="M56.36,83.5a.49.49,0,0,1,.17,0h.07s0,0,0,0,0,0,0,0l-.11,0a.48.48,0,0,1-.12,0h0Z" fill="#a0a0a0"/><path d="M56.36,82.2v-.08h.16l.08,0s0,0,0,0a0,0,0,0,1,0,0l-.17,0Z" fill="#a0a0a0"/><path d="M56.36,80.93h0l.2,0s0,0,0,0,0,0,0,0a.55.55,0,0,1-.18,0h-.07Z" fill="#a0a0a0"/><path d="M56.36,83.38V83.3h.07l.18,0s0,0,0,0,0,0,0,0A.71.71,0,0,1,56.36,83.38Z" fill="#a0a0a0"/><path d="M56.74,83.6v.08a.71.71,0,0,1-.25,0h0v0A.71.71,0,0,1,56.74,83.6Z" fill="#a0a0a0"/><path d="M56.36,81.61v-.09h.23s0,0,0,0A1.09,1.09,0,0,1,56.36,81.61Z" fill="#a0a0a0"/><path d="M56.62,80.76v0a.77.77,0,0,1-.26,0v-.09A.77.77,0,0,1,56.62,80.76Z" fill="#a0a0a0"/><path d="M56.36,81.21v-.09h.16l.07,0s0,0,0,0A.58.58,0,0,1,56.36,81.21Z" fill="#a0a0a0"/></g><g id="ferMqf-2" data-name="ferMqf"><path d="M56.62,88.46l-.13,0v0a.76.76,0,0,1,.26,0v.08Z" fill="#a0a0a0"/><path d="M56.75,84v.08a.76.76,0,0,1-.26,0v0h0A.58.58,0,0,1,56.75,84Z" fill="#a0a0a0"/><path d="M56.49,87.41a.76.76,0,0,1,.26,0v.09H56.6l-.09,0a0,0,0,0,1,0,0Z" fill="#a0a0a0"/><path d="M56.75,86v.07h-.24a0,0,0,0,1,0,0s0,0,0,0l.25,0Z" fill="#a0a0a0"/><path d="M56.75,87.19v.08a.69.69,0,0,1-.25,0h0s0,0,0,0h0A.61.61,0,0,1,56.75,87.19Z" fill="#a0a0a0"/><path d="M56.49,87.64h0s0,0,0,0h.23v.09A.58.58,0,0,1,56.49,87.64Z" fill="#a0a0a0"/><path d="M56.75,84.42v.09a.61.61,0,0,1-.26,0v0A1.15,1.15,0,0,1,56.75,84.42Z" fill="#a0a0a0"/><path d="M56.5,86.46h0s0,0,0,0a.5.5,0,0,1,.21,0h0v.08A.69.69,0,0,1,56.5,86.46Z" fill="#a0a0a0"/><path d="M56.49,85.47v0h.06a.62.62,0,0,1,.19,0h0v.08A.77.77,0,0,1,56.49,85.47Z" fill="#a0a0a0"/><path d="M56.75,87v.09a1.15,1.15,0,0,1-.26,0v0A.77.77,0,0,1,56.75,87Z" fill="#a0a0a0"/><path d="M56.75,84.82v.08a.45.45,0,0,1-.2,0h0s0,0,0,0h0A.58.58,0,0,1,56.75,84.82Z" fill="#a0a0a0"/><path d="M56.75,87.78v.08h0l-.25,0h0v0A.77.77,0,0,1,56.75,87.78Z" fill="#a0a0a0"/><path d="M56.49,88h0s0,0,0,0h.23v.08A.76.76,0,0,1,56.49,88Z" fill="#a0a0a0"/><path d="M56.49,85.24a.76.76,0,0,1,.26,0v.08h0a.65.65,0,0,1-.2,0h0l0,0Z" fill="#a0a0a0"/><path d="M56.75,86.88a.61.61,0,0,1-.19,0h-.05s0,0,0,0,0,0,0,0l.11,0h.13Z" fill="#a0a0a0"/><path d="M56.49,86.62a.76.76,0,0,1,.26,0v.08H56.6l-.09,0s0,0,0,0Z" fill="#a0a0a0"/><path d="M56.49,85.63a.76.76,0,0,1,.26,0v.09a1.1,1.1,0,0,1-.18,0h0s0,0,0,0Z" fill="#a0a0a0"/><path d="M56.62,86.55a.54.54,0,0,1-.25,0V86.5h0a.6.6,0,0,1,.23,0S56.63,86.52,56.62,86.55Z" fill="#a0a0a0"/><path d="M56.37,86v-.08h0a.75.75,0,0,1,.21,0h0s0,0,0,0l0,0A.69.69,0,0,1,56.37,86Z" fill="#a0a0a0"/><path d="M56.62,87.34a.54.54,0,0,1-.25,0v-.08a.85.85,0,0,1,.16,0l.07,0a0,0,0,0,1,0,0Z" fill="#a0a0a0"/><path d="M56.75,86.2v.09a1.15,1.15,0,0,1-.26,0v0h0a1,1,0,0,1,.25,0Z" fill="#a0a0a0"/><path d="M56.37,86.38V86.3a.5.5,0,0,1,.17,0h.07s0,0,0,0,0,0,0,0A.71.71,0,0,1,56.37,86.38Z" fill="#a0a0a0"/><path d="M56.62,87.74a1.07,1.07,0,0,1-.25,0v-.09h0a.64.64,0,0,1,.2,0s0,0,0,0a0,0,0,0,1,0,0Z" fill="#a0a0a0"/><path d="M56.75,85.81v.08a.69.69,0,0,1-.25,0h0s0,0,0,0A.6.6,0,0,1,56.75,85.81Z" fill="#a0a0a0"/><path d="M56.37,84.72h.14l.09,0s0,0,0,0a.71.71,0,0,1-.25,0Z" fill="#a0a0a0"/><path d="M56.37,85.11a.72.72,0,0,1,.25,0h0s0,0,0,0a.78.78,0,0,1-.22,0h0Z" fill="#a0a0a0"/><path d="M56.37,87.57h0v-.09h0l.21,0s0,0,0,0,0,0,0,0" fill="#a0a0a0"/><path d="M56.37,87.17v-.08h.25s0,0,0,0v0a.71.71,0,0,1-.25,0Z" fill="#a0a0a0"/><path d="M56.37,88.27h.15l.08,0s0,0,0,0h0a.54.54,0,0,1-.25,0Z" fill="#a0a0a0"/><path d="M56.37,84.21v-.08a.71.71,0,0,1,.25,0v0h0A1,1,0,0,1,56.37,84.21Z" fill="#a0a0a0"/><path d="M56.37,87v-.09h.08l.16,0s0,0,0,0Z" fill="#a0a0a0"/><path d="M56.37,88.08a.5.5,0,0,1,.17,0h.07s0,0,0,0,0,0,0,0l-.12,0h-.12Z" fill="#a0a0a0"/><path d="M56.37,86.78V86.7h.16l.08,0s0,0,0,0,0,0,0,0l-.17,0Z" fill="#a0a0a0"/><path d="M56.37,85.51h0l.2,0,0,0s0,0,0,0a.47.47,0,0,1-.17,0h-.07Z" fill="#a0a0a0"/><path d="M56.49,85a.76.76,0,0,1,.26,0v.08a.6.6,0,0,1-.26,0Z" fill="#a0a0a0"/><path d="M56.75,84.62v.08a.52.52,0,0,1-.25,0v0A.52.52,0,0,1,56.75,84.62Z" fill="#a0a0a0"/><path d="M56.37,84.61v-.09a.54.54,0,0,1,.25,0h0s0,0,0,0h0A1.23,1.23,0,0,1,56.37,84.61Z" fill="#a0a0a0"/><path d="M56.75,84.23v.08a.58.58,0,0,1-.26,0v0A.76.76,0,0,1,56.75,84.23Z" fill="#a0a0a0"/><path d="M56.62,84.38a.72.72,0,0,1-.25,0v-.09h.08l.15,0S56.63,84.35,56.62,84.38Z" fill="#a0a0a0"/><path d="M56.37,88v-.08h.07l.17,0s0,0,0,0,0,0,0,0A.65.65,0,0,1,56.37,88Z" fill="#a0a0a0"/><path d="M56.75,88.18v.08a.76.76,0,0,1-.26,0h0v0A.76.76,0,0,1,56.75,88.18Z" fill="#a0a0a0"/><path d="M56.37,85v-.08a.62.62,0,0,1,.19,0h.06s0,0,0,0,0,0,0,0a.65.65,0,0,1-.24,0Z" fill="#a0a0a0"/><path d="M56.37,86.19V86.1h.22s0,0,0,0A1,1,0,0,1,56.37,86.19Z" fill="#a0a0a0"/><path d="M56.62,85.34v0a.53.53,0,0,1-.25,0v-.08A.72.72,0,0,1,56.62,85.34Z" fill="#a0a0a0"/><path d="M56.37,85.79V85.7h.15l.08,0s0,0,0,0A.54.54,0,0,1,56.37,85.79Z" fill="#a0a0a0"/><path d="M56.37,84v-.08h.07a.47.47,0,0,1,.17,0,0,0,0,0,1,0,0s0,0,0,0a.39.39,0,0,1-.15,0Z" fill="#a0a0a0"/></g><g id="ferMqf-3" data-name="ferMqf"><path d="M56.61,93.05l-.12,0v0a.72.72,0,0,1,.25,0v.09Z" fill="#a0a0a0"/><path d="M56.74,88.62v.08a.54.54,0,0,1-.25,0h0v0A.71.71,0,0,1,56.74,88.62Z" fill="#a0a0a0"/><path d="M56.49,92a.71.71,0,0,1,.25,0v.08H56.5s0,0,0,0Z" fill="#a0a0a0"/><path d="M56.75,90.59a.22.22,0,0,1,0,.08h0a.55.55,0,0,1-.18,0h0s0,0,0,0,0,0,0,0a1,1,0,0,1,.24,0Z" fill="#a0a0a0"/><path d="M56.74,91.78v.08a.71.71,0,0,1-.25,0h0s0,0,0,0h0A.41.41,0,0,1,56.74,91.78Z" fill="#a0a0a0"/><path d="M56.49,92.23h0s0,0,0,0h.23v.09A1.07,1.07,0,0,1,56.49,92.23Z" fill="#a0a0a0"/><path d="M56.74,89v.09a1.21,1.21,0,0,1-.25,0v0A.54.54,0,0,1,56.74,89Z" fill="#a0a0a0"/><path d="M56.49,91.05h0s0,0,0,0a.5.5,0,0,1,.21,0h0v.08A.71.71,0,0,1,56.49,91.05Z" fill="#a0a0a0"/><path d="M56.49,90.06v0h.25a.17.17,0,0,1,0,.07A.74.74,0,0,1,56.49,90.06Z" fill="#a0a0a0"/><path d="M56.74,91.58v.08a.71.71,0,0,1-.25,0v0A.54.54,0,0,1,56.74,91.58Z" fill="#a0a0a0"/><path d="M56.74,89.41v.08a.61.61,0,0,1-.19,0h0s0,0,0,0h0A.71.71,0,0,1,56.74,89.41Z" fill="#a0a0a0"/><path d="M56.75,92.37a.22.22,0,0,1,0,.08h0a1,1,0,0,1-.24,0h0v0A.57.57,0,0,1,56.75,92.37Z" fill="#a0a0a0"/><path d="M56.49,92.62h0s0,0,0,0l.07,0h.15v.09A.54.54,0,0,1,56.49,92.62Z" fill="#a0a0a0"/><path d="M56.49,89.83a.54.54,0,0,1,.25,0v.09h0a.68.68,0,0,1-.2,0h0s0,0,0,0Z" fill="#a0a0a0"/><path d="M56.74,91.47a1.23,1.23,0,0,1-.19,0h0s0,0,0,0,0,0,0,0l.11,0h.13Z" fill="#a0a0a0"/><path d="M56.49,91.21a.71.71,0,0,1,.25,0v.08h-.23s0,0,0,0Z" fill="#a0a0a0"/><path d="M56.49,90.22a.71.71,0,0,1,.25,0v.08a.55.55,0,0,1-.18,0h-.05s0,0,0,0Z" fill="#a0a0a0"/><path d="M56.62,91.14a.77.77,0,0,1-.26,0v-.09h0a.85.85,0,0,1,.23,0S56.62,91.11,56.62,91.14Z" fill="#a0a0a0"/><path d="M56.36,90.57v-.08h0a.75.75,0,0,1,.21,0h0s0,0,0,0,0,0,0,0A.69.69,0,0,1,56.36,90.57Z" fill="#a0a0a0"/><path d="M56.62,91.93a.58.58,0,0,1-.26,0v-.09h.24s0,0,0,0Z" fill="#a0a0a0"/><path d="M56.74,90.79v.08a.71.71,0,0,1-.25,0v0h0a.72.72,0,0,1,.25,0Z" fill="#a0a0a0"/><path d="M56.36,91v-.08a1,1,0,0,1,.17,0l.08,0s0,0,0,0v0A.71.71,0,0,1,56.36,91Z" fill="#a0a0a0"/><path d="M56.62,92.33a.76.76,0,0,1-.26,0v-.08h0a.75.75,0,0,1,.21,0h0v0Z" fill="#a0a0a0"/><path d="M56.74,90.39v.09a.54.54,0,0,1-.25,0h0s0,0,0,0A.93.93,0,0,1,56.74,90.39Z" fill="#a0a0a0"/><path d="M56.36,89.3h.15l.08,0s0,0,0,0a.58.58,0,0,1-.26,0Z" fill="#a0a0a0"/><path d="M56.36,89.7a.77.77,0,0,1,.26,0h0s0,0,0,0l-.21,0h0Z" fill="#a0a0a0"/><path d="M56.36,92.16v-.09h0a.75.75,0,0,1,.21,0s0,0,0,0h0a1,1,0,0,1-.24,0Z" fill="#a0a0a0"/><path d="M56.36,91.76v-.08a.74.74,0,0,1,.21,0h0s0,0,0,0a0,0,0,0,1,0,0,.69.69,0,0,1-.25,0Z" fill="#a0a0a0"/><path d="M56.36,92.86h.24s0,0,0,0h0a1.15,1.15,0,0,1-.26,0Z" fill="#a0a0a0"/><path d="M56.36,88.8v-.09a.77.77,0,0,1,.26,0v0h0A.72.72,0,0,1,56.36,88.8Z" fill="#a0a0a0"/><path d="M56.36,91.56v-.08h.09l.15,0s0,0,0,0A.76.76,0,0,1,56.36,91.56Z" fill="#a0a0a0"/><path d="M56.36,92.66h.17l.07,0s0,0,0,0,0,0,0,0l-.11,0h-.13Z" fill="#a0a0a0"/><path d="M56.36,91.37v-.09h.16l.08,0h0s0,0,0,0l-.17,0Z" fill="#a0a0a0"/><path d="M56.36,90.1h0a.47.47,0,0,1,.2,0h0a0,0,0,0,1,0,0l-.18,0h-.06a0,0,0,0,1,0,0Z" fill="#a0a0a0"/><path d="M56.49,89.63a1.07,1.07,0,0,1,.25,0v.09a.54.54,0,0,1-.25,0Z" fill="#a0a0a0"/><path d="M56.74,89.21v.08a.71.71,0,0,1-.25,0v0A.71.71,0,0,1,56.74,89.21Z" fill="#a0a0a0"/><path d="M56.36,89.19v-.08a.76.76,0,0,1,.26,0h0s0,0,0,0h0A.59.59,0,0,1,56.36,89.19Z" fill="#a0a0a0"/><path d="M56.74,88.81v.09a.72.72,0,0,1-.25,0v0A1.07,1.07,0,0,1,56.74,88.81Z" fill="#a0a0a0"/><path d="M56.62,89a.76.76,0,0,1-.26,0v-.08h.08l.15,0S56.62,88.94,56.62,89Z" fill="#a0a0a0"/><path d="M56.36,92.55v-.08h.07a.55.55,0,0,1,.18,0s0,0,0,0,0,0,0,0A.71.71,0,0,1,56.36,92.55Z" fill="#a0a0a0"/><path d="M56.74,92.77v.08a.54.54,0,0,1-.25,0h0v0A.71.71,0,0,1,56.74,92.77Z" fill="#a0a0a0"/><path d="M56.36,89.59V89.5a.62.62,0,0,1,.19,0h.06s0,0,0,0,0,0,0,0l-.25,0Z" fill="#a0a0a0"/><path d="M56.36,90.77v-.08h.16l.07,0s0,0,0,0A.74.74,0,0,1,56.36,90.77Z" fill="#a0a0a0"/><path d="M56.62,89.92v0a.76.76,0,0,1-.26,0V89.9A.76.76,0,0,1,56.62,89.92Z" fill="#a0a0a0"/><path d="M56.36,90.38v-.09h.23s0,0,0,0A.77.77,0,0,1,56.36,90.38Z" fill="#a0a0a0"/><path d="M56.36,88.6v-.08h.07a.55.55,0,0,1,.18,0s0,0,0,0,0,0,0,0l-.16,0Z" fill="#a0a0a0"/></g><g id="ferMqf-4" data-name="ferMqf"><path d="M56.76,93.2v.08a.57.57,0,0,1-.26,0h0v0A.74.74,0,0,1,56.76,93.2Z" fill="#a0a0a0"/><path d="M56.76,95.17v.08h0a.58.58,0,0,1-.19,0h-.05s0,0,0,0,0,0,0,0a1,1,0,0,1,.24,0Z" fill="#a0a0a0"/><path d="M56.76,93.59v.09a1.22,1.22,0,0,1-.26,0v0A.57.57,0,0,1,56.76,93.59Z" fill="#a0a0a0"/><path d="M56.5,94.64v0h.26v.07A.74.74,0,0,1,56.5,94.64Z" fill="#a0a0a0"/><path d="M56.76,94v.08a.66.66,0,0,1-.2,0h0s0,0,0,0h0A.74.74,0,0,1,56.76,94Z" fill="#a0a0a0"/><path d="M56.5,94.41a.57.57,0,0,1,.26,0v.08h0a.68.68,0,0,1-.2,0h0s0,0,0,0Z" fill="#a0a0a0"/><path d="M56.5,94.8a.74.74,0,0,1,.26,0v.08a.59.59,0,0,1-.19,0h0s0,0,0,0Z" fill="#a0a0a0"/><path d="M56.37,95.15v-.08h0a.75.75,0,0,1,.21,0h0s0,0,0,0,0,0,0,0A.69.69,0,0,1,56.37,95.15Z" fill="#a0a0a0"/><path d="M56.37,95.36v-.08h0a.75.75,0,0,1,.21,0h0s0,0,0,0,0,0,0,0A.74.74,0,0,1,56.37,95.36Z" fill="#a0a0a0"/><path d="M56.76,95v.09a.74.74,0,0,1-.26,0h0s0,0,0,0A.86.86,0,0,1,56.76,95Z" fill="#a0a0a0"/><path d="M56.37,93.88h.15l.08,0s0,0,0,0a.58.58,0,0,1-.26,0Z" fill="#a0a0a0"/><path d="M56.37,94.28a.58.58,0,0,1,.26,0h0s0,0,0,0l-.21,0h0Z" fill="#a0a0a0"/><path d="M56.37,93.38v-.09a.77.77,0,0,1,.26,0v0h0A.69.69,0,0,1,56.37,93.38Z" fill="#a0a0a0"/><path d="M56.37,94.68h.05a.46.46,0,0,1,.2,0h0a0,0,0,0,1,0,0l-.17,0h-.07a0,0,0,0,1,0,0Z" fill="#a0a0a0"/><path d="M56.5,94.21a1.09,1.09,0,0,1,.26,0v.09a.77.77,0,0,1-.26,0Z" fill="#a0a0a0"/><path d="M56.76,93.79v.08a.74.74,0,0,1-.26,0v0A.74.74,0,0,1,56.76,93.79Z" fill="#a0a0a0"/><path d="M56.37,93.77v-.08a.76.76,0,0,1,.26,0h0s0,0,0,0h0A.67.67,0,0,1,56.37,93.77Z" fill="#a0a0a0"/><path d="M56.76,93.39v.09a.74.74,0,0,1-.26,0v0A1.09,1.09,0,0,1,56.76,93.39Z" fill="#a0a0a0"/><path d="M56.63,93.55a.76.76,0,0,1-.26,0v-.08h.08l.15,0S56.63,93.52,56.63,93.55Z" fill="#a0a0a0"/><path d="M56.37,94.17v-.09h.19l.06,0s0,0,0,0,0,0,0,0l-.24,0Z" fill="#a0a0a0"/><path d="M56.63,94.5v0a.76.76,0,0,1-.26,0v-.08A.76.76,0,0,1,56.63,94.5Z" fill="#a0a0a0"/><path d="M56.37,95v-.09h.23s0,0,0,0A.77.77,0,0,1,56.37,95Z" fill="#a0a0a0"/><path d="M56.37,93.18v-.09h.07a1.13,1.13,0,0,1,.18,0h0a0,0,0,0,1,0,0l-.16,0Z" fill="#a0a0a0"/></g><g id="ferMqf-5" data-name="ferMqf"><path d="M56.37,95.47v.08a.57.57,0,0,0,.26,0h0v0A.74.74,0,0,0,56.37,95.47Z" fill="#a0a0a0"/><path d="M56.38,95.86V96a1.21,1.21,0,0,0,.25,0v0A.54.54,0,0,0,56.38,95.86Z" fill="#a0a0a0"/><path d="M56.63,96.91v0h-.26v.07A.74.74,0,0,0,56.63,96.91Z" fill="#a0a0a0"/><path d="M56.38,96.26v.08a.61.61,0,0,0,.19,0h0s0,0,0,0h0A.71.71,0,0,0,56.38,96.26Z" fill="#a0a0a0"/><path d="M56.63,96.68a.54.54,0,0,0-.25,0v.09h0a.68.68,0,0,0,.2,0h0s0,0,0,0Z" fill="#a0a0a0"/><path d="M56.76,96.15h-.15l-.08,0s0,0,0,0a.58.58,0,0,0,.26,0Z" fill="#a0a0a0"/><path d="M56.76,96.55a.77.77,0,0,0-.26,0h0s0,0,0,0l.21,0h0Z" fill="#a0a0a0"/><path d="M56.76,95.65v-.09a.77.77,0,0,0-.26,0v0h0A.72.72,0,0,0,56.76,95.65Z" fill="#a0a0a0"/><path d="M56.63,96.48a1.07,1.07,0,0,0-.25,0v.09a.54.54,0,0,0,.25,0Z" fill="#a0a0a0"/><path d="M56.37,96.06v.08a.74.74,0,0,0,.26,0v0A.74.74,0,0,0,56.37,96.06Z" fill="#a0a0a0"/><path d="M56.76,96V96a.76.76,0,0,0-.26,0h0s0,0,0,0h0A.67.67,0,0,0,56.76,96Z" fill="#a0a0a0"/><path d="M56.38,95.66v.09a.72.72,0,0,0,.25,0v0A1.07,1.07,0,0,0,56.38,95.66Z" fill="#a0a0a0"/><path d="M56.5,95.82a.76.76,0,0,0,.26,0v-.08h-.08l-.15,0S56.5,95.79,56.5,95.82Z" fill="#a0a0a0"/><path d="M56.76,96.44v-.09a.62.62,0,0,0-.19,0h-.06s0,0,0,0v0l.25,0Z" fill="#a0a0a0"/><path d="M56.5,96.77v0a.76.76,0,0,0,.26,0v-.08A.76.76,0,0,0,56.5,96.77Z" fill="#a0a0a0"/><path d="M56.76,95.45v-.08h-.07a.55.55,0,0,0-.18,0s0,0,0,0,0,0,0,0l.16,0Z" fill="#a0a0a0"/></g><path d="M32.5,118s3.13-8,4.53-11.28c2.28-5.24,3.29-13,.15-14.07-3.53-1.19-6.45,10.55-7.15,13.56-.54,2.33-1.58,7.71-2,10.84,0,0,.85.6,4.09,1.14Z" fill="#410099"/><path d="M28.06,116.76A8.14,8.14,0,0,0,32.41,118l-.53,1.68a4.16,4.16,0,0,1-2.2.17,3.07,3.07,0,0,1-1.74-.87A2.09,2.09,0,0,1,28.06,116.76Z" fill="#79589f"/><path d="M80,118s-3.12-8-4.53-11.28c-2.27-5.24-3.28-13-.14-14.07,3.53-1.19,6.45,10.55,7.14,13.56.54,2.33,1.59,7.71,2,10.84,0,0-.85.6-4.1,1.14Z" fill="#410099"/><path d="M84.49,116.76A8.14,8.14,0,0,1,80.14,118l.52,1.68a4.2,4.2,0,0,0,2.2.17A3,3,0,0,0,84.6,119,2.08,2.08,0,0,0,84.49,116.76Z" fill="#79589f"/><path d="M57.83,110.94c2.72-.22,4.67-.41,6.71-.68a25.21,25.21,0,0,0,5.79-1.5l-.24-3.55c-5,2.06-11.17,2.23-13.11,2.3l-.58,0c-.37,0-.53,0-.53,0s-.3,0-.82,0c-2.19-.09-13.19-2.5-13.19-2.5l.06,3.9a58.6,58.6,0,0,0,12.52,2s.68,0,1.77,0C56.21,111,57.13,111,57.83,110.94Z" fill="#79589f"/><path d="M56.32,81.13s.26,0,.27-.36a7.41,7.41,0,0,0-.26-1.65,7.25,7.25,0,0,0-.67-1.32C52,72.07,49.76,70.58,49.78,67c0-2.33-4.15-.65-6.33,1.51-.23.22,6.82,2.29,11.89,9.82A8.18,8.18,0,0,1,56.32,81.13Z" fill="#79589f"/><path d="M48.47,96.19l8.07.23s3.73.06,7.41-.29c0,0,1.55,3.94,3.25,7.11,0,0-3.29.89-10.66.84A43.24,43.24,0,0,1,45,102.74,35.14,35.14,0,0,0,48.47,96.19Z" fill="#79589f"/><g clip-path="url(#clip-path)"><g opacity="0.2"><g id="ferMqf-6" data-name="ferMqf"><path d="M56.61,97.86l-.12,0v0a.72.72,0,0,1,.25,0v.09Z" fill="#fff"/><path d="M56.49,96.81a.71.71,0,0,1,.25,0v.08H56.5s0,0,0,0Z" fill="#fff"/><path d="M56.75,95.4a.22.22,0,0,1,0,.08h0a.55.55,0,0,1-.18,0h0s0,0,0,0,0,0,0,0a1,1,0,0,1,.24,0Z" fill="#fff"/><path d="M56.74,96.59v.08a.71.71,0,0,1-.25,0h0s0,0,0,0h0A.61.61,0,0,1,56.74,96.59Z" fill="#fff"/><path d="M56.49,97h0s0,0,0,0h.23v.09A1.07,1.07,0,0,1,56.49,97Z" fill="#fff"/><path d="M56.49,95.86h0s0,0,0,0a.5.5,0,0,1,.21,0h0v.08A.71.71,0,0,1,56.49,95.86Z" fill="#fff"/><path d="M56.49,94.87v0h.25a.17.17,0,0,1,0,.07A.74.74,0,0,1,56.49,94.87Z" fill="#fff"/><path d="M56.74,96.39v.08a.71.71,0,0,1-.25,0v0A.54.54,0,0,1,56.74,96.39Z" fill="#fff"/><path d="M56.75,97.18a.22.22,0,0,1,0,.08h0a1,1,0,0,1-.24,0h0v0A.74.74,0,0,1,56.75,97.18Z" fill="#fff"/><path d="M56.49,97.44h0s0,0,0,0l.07,0h.15v.09A.71.71,0,0,1,56.49,97.44Z" fill="#fff"/><path d="M56.49,94.64a.54.54,0,0,1,.25,0v.09h0a.68.68,0,0,1-.2,0h0s0,0,0,0Z" fill="#fff"/><path d="M56.74,96.28a.62.62,0,0,1-.19,0h0s0,0,0,0,0,0,0,0l.11,0h.13Z" fill="#fff"/><path d="M56.49,96a.71.71,0,0,1,.25,0v.08H56.6l-.09,0s0,0,0,0Z" fill="#fff"/><path d="M56.49,95a.71.71,0,0,1,.25,0v.08a.55.55,0,0,1-.18,0h-.05s0,0,0,0Z" fill="#fff"/><path d="M56.62,96a.58.58,0,0,1-.26,0v-.09h0a.85.85,0,0,1,.23,0S56.62,95.92,56.62,96Z" fill="#fff"/><path d="M56.36,95.39V95.3h0a.75.75,0,0,1,.21,0h0s0,0,0,0,0,0,0,0A1.12,1.12,0,0,1,56.36,95.39Z" fill="#fff"/><path d="M56.62,96.74a.58.58,0,0,1-.26,0v-.09h.24s0,0,0,0Z" fill="#fff"/><path d="M56.74,95.6v.08a.71.71,0,0,1-.25,0v0h0a.72.72,0,0,1,.25,0Z" fill="#fff"/><path d="M56.36,95.78V95.7a1,1,0,0,1,.17,0l.08,0s0,0,0,0a0,0,0,0,1,0,0A.71.71,0,0,1,56.36,95.78Z" fill="#fff"/><path d="M56.62,97.14a.76.76,0,0,1-.26,0v-.08h0a.75.75,0,0,1,.21,0,0,0,0,0,1,0,0h0Z" fill="#fff"/><path d="M56.74,95.21v.08a.54.54,0,0,1-.25,0h0s0,0,0,0A.91.91,0,0,1,56.74,95.21Z" fill="#fff"/><path d="M56.36,94.51a.77.77,0,0,1,.26,0h0s0,0,0,0l-.21,0h0Z" fill="#fff"/><path d="M56.36,97v-.09h0a.75.75,0,0,1,.21,0s0,0,0,0h0a1,1,0,0,1-.24,0Z" fill="#fff"/><path d="M56.36,96.57v-.08a.74.74,0,0,1,.21,0h0s0,0,0,0a0,0,0,0,1,0,0,.69.69,0,0,1-.25,0Z" fill="#fff"/><path d="M56.36,97.67h.24s0,0,0,0h0a1.15,1.15,0,0,1-.26,0Z" fill="#fff"/><path d="M56.36,96.37v-.08h.09l.15,0s0,0,0,0A.76.76,0,0,1,56.36,96.37Z" fill="#fff"/><path d="M56.36,97.47h.17l.07,0s0,0,0,0,0,0,0,0l-.11,0h-.13Z" fill="#fff"/><path d="M56.36,96.18v-.09h.16l.08,0h0s0,0,0,0l-.17,0Z" fill="#fff"/><path d="M56.36,94.91h0a.47.47,0,0,1,.2,0s0,0,0,0v0l-.18,0h-.07Z" fill="#fff"/><path d="M56.36,97.36v-.08h.07a.55.55,0,0,1,.18,0s0,0,0,0,0,0,0,0A.71.71,0,0,1,56.36,97.36Z" fill="#fff"/><path d="M56.74,97.58v.08a.54.54,0,0,1-.25,0h0v0A.71.71,0,0,1,56.74,97.58Z" fill="#fff"/><path d="M56.36,95.58V95.5h.16l.07,0s0,0,0,0A.74.74,0,0,1,56.36,95.58Z" fill="#fff"/><path d="M56.62,94.73v0a.76.76,0,0,1-.26,0v-.08A.76.76,0,0,1,56.62,94.73Z" fill="#fff"/><path d="M56.36,95.19V95.1h.23s0,0,0,0A.77.77,0,0,1,56.36,95.19Z" fill="#fff"/></g><g id="ferMqf-7" data-name="ferMqf"><path d="M56.62,102.44l-.13,0v0a.77.77,0,0,1,.26,0v.09Z" fill="#fff"/><path d="M56.75,98v.08a.58.58,0,0,1-.26,0h0v0A.76.76,0,0,1,56.75,98Z" fill="#fff"/><path d="M56.49,101.39a.76.76,0,0,1,.26,0v.08h-.24s0,0,0,0Z" fill="#fff"/><path d="M56.75,100v.08h0a.55.55,0,0,1-.18,0h-.05s0,0,0,0,0,0,0,0a1.1,1.1,0,0,1,.25,0Z" fill="#fff"/><path d="M56.75,101.17v.08a.69.69,0,0,1-.25,0h0s0,0,0,0h0A.41.41,0,0,1,56.75,101.17Z" fill="#fff"/><path d="M56.49,101.62h0s0,0,0,0h.23v.09A1.15,1.15,0,0,1,56.49,101.62Z" fill="#fff"/><path d="M56.75,98.4v.09a1.3,1.3,0,0,1-.26,0v0A.58.58,0,0,1,56.75,98.4Z" fill="#fff"/><path d="M56.5,100.44h0s0,0,0,0a.5.5,0,0,1,.21,0h0v.08A.69.69,0,0,1,56.5,100.44Z" fill="#fff"/><path d="M56.49,99.45v0h.26v.07A.76.76,0,0,1,56.49,99.45Z" fill="#fff"/><path d="M56.75,101v.08a.76.76,0,0,1-.26,0v0A.58.58,0,0,1,56.75,101Z" fill="#fff"/><path d="M56.75,98.8v.08a.67.67,0,0,1-.2,0h0a0,0,0,0,1,0,0h0A.76.76,0,0,1,56.75,98.8Z" fill="#fff"/><path d="M56.75,101.76v.08h0a.72.72,0,0,1-.25,0h0v0A.58.58,0,0,1,56.75,101.76Z" fill="#fff"/><path d="M56.49,102h0s0,0,0,0l.08,0h.15V102A.58.58,0,0,1,56.49,102Z" fill="#fff"/><path d="M56.49,99.22a.58.58,0,0,1,.26,0v.09h0a.65.65,0,0,1-.2,0h0s0,0,0,0Z" fill="#fff"/><path d="M56.75,100.86a1.23,1.23,0,0,1-.19,0h-.05s0,0,0,0a0,0,0,0,1,0,0l.11,0h.13Z" fill="#fff"/><path d="M56.49,100.6a.76.76,0,0,1,.26,0v.08h-.24s0,0,0,0Z" fill="#fff"/><path d="M56.49,99.61a.76.76,0,0,1,.26,0v.08a.55.55,0,0,1-.18,0h0s0,0,0,0Z" fill="#fff"/><path d="M56.62,100.53a.72.72,0,0,1-.25,0v-.09h0a.91.91,0,0,1,.23,0S56.63,100.5,56.62,100.53Z" fill="#fff"/><path d="M56.37,100v-.08h0a.75.75,0,0,1,.21,0h0a0,0,0,0,1,0,0s0,0,0,0A.69.69,0,0,1,56.37,100Z" fill="#fff"/><path d="M56.62,101.32a.54.54,0,0,1-.25,0v-.09h.23s0,0,0,0Z" fill="#fff"/><path d="M56.75,100.18v.08a.76.76,0,0,1-.26,0v0h0a.69.69,0,0,1,.25,0Z" fill="#fff"/><path d="M56.37,100.36v-.08a1,1,0,0,1,.17,0l.07,0s0,0,0,0a0,0,0,0,1,0,0A.71.71,0,0,1,56.37,100.36Z" fill="#fff"/><path d="M56.62,101.72a.71.71,0,0,1-.25,0v-.08h0a.65.65,0,0,1,.2,0h0v0Z" fill="#fff"/><path d="M56.75,99.78v.09a.52.52,0,0,1-.25,0h0s0,0,0,0A.9.9,0,0,1,56.75,99.78Z" fill="#fff"/><path d="M56.37,98.69h.14l.09,0s0,0,0,0a.54.54,0,0,1-.25,0Z" fill="#fff"/><path d="M56.37,99.09a.72.72,0,0,1,.25,0h0s0,0,0,0l-.22,0h0Z" fill="#fff"/><path d="M56.37,101.55h0v-.09h0a.75.75,0,0,1,.21,0s0,0,0,0h0" fill="#fff"/><path d="M56.37,101.15v-.08a.66.66,0,0,1,.2,0h0s0,0,0,0v0a.71.71,0,0,1-.25,0Z" fill="#fff"/><path d="M56.37,102.25h.23a0,0,0,0,1,0,0h0a1.07,1.07,0,0,1-.25,0Z" fill="#fff"/><path d="M56.37,98.19V98.1a.72.72,0,0,1,.25,0v0h0A.66.66,0,0,1,56.37,98.19Z" fill="#fff"/><path d="M56.37,101v-.08h.08l.16,0s0,0,0,0A.78.78,0,0,1,56.37,101Z" fill="#fff"/><path d="M56.37,102.05h.17l.07,0s0,0,0,0,0,0,0,0l-.12,0h-.12Z" fill="#fff"/><path d="M56.37,100.76v-.09h.16l.08,0h0s0,0,0,0a.86.86,0,0,1-.17,0Z" fill="#fff"/><path d="M56.37,99.49h0a.44.44,0,0,1,.2,0h0s0,0,0,0l-.17,0h-.07Z" fill="#fff"/><path d="M56.49,99a1.15,1.15,0,0,1,.26,0v.09a.6.6,0,0,1-.26,0Z" fill="#fff"/><path d="M56.75,98.6v.08a.69.69,0,0,1-.25,0v0A.69.69,0,0,1,56.75,98.6Z" fill="#fff"/><path d="M56.37,98.58V98.5a.71.71,0,0,1,.25,0h0s0,0,0,0h0A.61.61,0,0,1,56.37,98.58Z" fill="#fff"/><path d="M56.75,98.2v.09a.77.77,0,0,1-.26,0v0A1.15,1.15,0,0,1,56.75,98.2Z" fill="#fff"/><path d="M56.62,98.36a.71.71,0,0,1-.25,0V98.3h.08l.15,0S56.63,98.33,56.62,98.36Z" fill="#fff"/><path d="M56.37,101.94v-.08h.07a.47.47,0,0,1,.17,0s0,0,0,0,0,0,0,0A.65.65,0,0,1,56.37,101.94Z" fill="#fff"/><path d="M56.75,102.16v.08a.58.58,0,0,1-.26,0h0v0A.76.76,0,0,1,56.75,102.16Z" fill="#fff"/><path d="M56.37,99v-.09a.65.65,0,0,1,.19,0h.06s0,0,0,0,0,0,0,0l-.24,0Z" fill="#fff"/><path d="M56.37,100.16v-.08h.15l.07,0s0,0,0,0A.67.67,0,0,1,56.37,100.16Z" fill="#fff"/><path d="M56.62,99.31v0a.71.71,0,0,1-.25,0v-.08A.71.71,0,0,1,56.62,99.31Z" fill="#fff"/><path d="M56.37,99.77v-.09h.23s0,0,0,0A.72.72,0,0,1,56.37,99.77Z" fill="#fff"/><path d="M56.37,98v-.08h.07a.47.47,0,0,1,.17,0h0s0,0,0,0l-.15,0Z" fill="#fff"/></g><g id="ferMqf-8" data-name="ferMqf"><path d="M56.61,107l-.12,0v0a.54.54,0,0,1,.25,0V107Z" fill="#fff"/><path d="M56.74,102.59v.09a.72.72,0,0,1-.25,0h0v0A.72.72,0,0,1,56.74,102.59Z" fill="#fff"/><path d="M56.49,106a.72.72,0,0,1,.25,0V106h-.15l-.09,0s0,0,0,0Z" fill="#fff"/><path d="M56.75,104.57a.17.17,0,0,1,0,.07h0a.37.37,0,0,1-.18,0h0s0,0,0,0,0,0,0,0a.65.65,0,0,1,.24,0Z" fill="#fff"/><path d="M56.74,105.75v.09a.54.54,0,0,1-.25,0h0s0,0,0,0h0A.62.62,0,0,1,56.74,105.75Z" fill="#fff"/><path d="M56.49,106.21h0s0,0,0,0l.08,0h.15v.09A.71.71,0,0,1,56.49,106.21Z" fill="#fff"/><path d="M56.74,103v.08a.74.74,0,0,1-.25,0v0A.71.71,0,0,1,56.74,103Z" fill="#fff"/><path d="M56.49,105h0s0,0,0,0l.21,0h0v.09A.72.72,0,0,1,56.49,105Z" fill="#fff"/><path d="M56.49,104v0h0a.41.41,0,0,1,.19,0h0a.22.22,0,0,1,0,.08A.57.57,0,0,1,56.49,104Z" fill="#fff"/><path d="M56.74,105.56v.08a.54.54,0,0,1-.25,0v0A.71.71,0,0,1,56.74,105.56Z" fill="#fff"/><path d="M56.74,103.38v.09a.62.62,0,0,1-.19,0h0s0,0,0,0h0A1.07,1.07,0,0,1,56.74,103.38Z" fill="#fff"/><path d="M56.75,106.35a.17.17,0,0,1,0,.07h0a.65.65,0,0,1-.24,0h0v0A.74.74,0,0,1,56.75,106.35Z" fill="#fff"/><path d="M56.49,106.6h0s0,0,0,0h.22v.09A.54.54,0,0,1,56.49,106.6Z" fill="#fff"/><path d="M56.49,103.81a.54.54,0,0,1,.25,0v.08h0a.45.45,0,0,1-.2,0h0s0,0,0,0Z" fill="#fff"/><path d="M56.74,105.44a.61.61,0,0,1-.19,0h0s0,0,0,0,0,0,0,0l.11,0h.13Z" fill="#fff"/><path d="M56.49,105.19a.54.54,0,0,1,.25,0v.09h-.23s0,0,0,0Z" fill="#fff"/><path d="M56.49,104.2a.71.71,0,0,1,.25,0v.08a.55.55,0,0,1-.18,0h-.05s0,0,0,0Z" fill="#fff"/><path d="M56.62,105.12a.76.76,0,0,1-.26,0v-.08h0a.86.86,0,0,1,.23,0S56.62,105.09,56.62,105.12Z" fill="#fff"/><path d="M56.36,104.55v-.08h0a.75.75,0,0,1,.21,0h0s0,0,0,0l0,0A.69.69,0,0,1,56.36,104.55Z" fill="#fff"/><path d="M56.62,105.91a1.15,1.15,0,0,1-.26,0v-.09a.43.43,0,0,1,.16,0h.08s0,0,0,0Z" fill="#fff"/><path d="M56.74,104.77v.08a.54.54,0,0,1-.25,0v0h0a.72.72,0,0,1,.25,0Z" fill="#fff"/><path d="M56.36,105v-.09h.17l.08,0a0,0,0,0,1,0,0,0,0,0,0,1,0,0A1.06,1.06,0,0,1,56.36,105Z" fill="#fff"/><path d="M56.62,106.3a.58.58,0,0,1-.26,0v-.08h0a1.52,1.52,0,0,1,.21,0h0v0Z" fill="#fff"/><path d="M56.74,104.37v.08a.71.71,0,0,1-.25,0h0s0,0,0,0A.93.93,0,0,1,56.74,104.37Z" fill="#fff"/><path d="M56.36,103.28h.23s0,0,0,0a1.15,1.15,0,0,1-.26,0Z" fill="#fff"/><path d="M56.36,103.68a.58.58,0,0,1,.26,0h0s0,0,0,0a.5.5,0,0,1-.21,0h0Z" fill="#fff"/><path d="M56.36,106.13v-.08h0a.75.75,0,0,1,.21,0,0,0,0,0,1,0,0h0a.65.65,0,0,1-.24,0Z" fill="#fff"/><path d="M56.36,105.74v-.09a.75.75,0,0,1,.21,0h0s0,0,0,0h0a.52.52,0,0,1-.25,0Z" fill="#fff"/><path d="M56.36,106.84h.15l.09,0s0,0,0,0h0a.76.76,0,0,1-.26,0Z" fill="#fff"/><path d="M56.36,102.77v-.08a.58.58,0,0,1,.26,0v0h0A.53.53,0,0,1,56.36,102.77Z" fill="#fff"/><path d="M56.36,105.54v-.08h.09a.39.39,0,0,1,.15,0s0,0,0,0A.58.58,0,0,1,56.36,105.54Z" fill="#fff"/><path d="M56.36,106.64h.24s0,0,0,0,0,0,0,0l-.11,0h-.13Z" fill="#fff"/><path d="M56.36,105.34v-.08h.24l0,0s0,0,0,0a.52.52,0,0,1-.17,0Z" fill="#fff"/><path d="M56.36,104.07h0l.2,0s0,0,0,0,0,0,0,0a.57.57,0,0,1-.18,0h-.07Z" fill="#fff"/><path d="M56.49,103.61a.54.54,0,0,1,.25,0v.08a.71.71,0,0,1-.25,0Z" fill="#fff"/><path d="M56.74,103.19v.08a.54.54,0,0,1-.25,0v0A.71.71,0,0,1,56.74,103.19Z" fill="#fff"/><path d="M56.36,103.17v-.08a.76.76,0,0,1,.26,0h0s0,0,0,0h0A.59.59,0,0,1,56.36,103.17Z" fill="#fff"/><path d="M56.74,102.79v.08a.71.71,0,0,1-.25,0v0A.54.54,0,0,1,56.74,102.79Z" fill="#fff"/><path d="M56.62,103a.76.76,0,0,1-.26,0v-.08h.08l.15,0S56.62,102.92,56.62,103Z" fill="#fff"/><path d="M56.36,106.53v-.09s0,0,.07,0a1.13,1.13,0,0,1,.18,0,0,0,0,0,1,0,0,0,0,0,0,1,0,0A1.06,1.06,0,0,1,56.36,106.53Z" fill="#fff"/><path d="M56.74,106.74v.09a1.07,1.07,0,0,1-.25,0h0v0A1.07,1.07,0,0,1,56.74,106.74Z" fill="#fff"/><path d="M56.36,103.56v-.08a.61.61,0,0,1,.19,0h.06a0,0,0,0,1,0,0s0,0,0,0a1,1,0,0,1-.25,0Z" fill="#fff"/><path d="M56.36,104.75v-.09h.23s0,0,0,0A.74.74,0,0,1,56.36,104.75Z" fill="#fff"/><path d="M56.62,103.9v0a.77.77,0,0,1-.26,0v-.08A.76.76,0,0,1,56.62,103.9Z" fill="#fff"/><path d="M56.36,104.35v-.08h.23s0,0,0,0A.76.76,0,0,1,56.36,104.35Z" fill="#fff"/><path d="M56.36,102.58v-.09h.07a.57.57,0,0,1,.18,0s0,0,0,0,0,0,0,0l-.16,0Z" fill="#fff"/></g><g id="ferMqf-9" data-name="ferMqf"><path d="M56.76,107.17v.09a.74.74,0,0,1-.26,0h0v0A.74.74,0,0,1,56.76,107.17Z" fill="#fff"/><path d="M56.76,109.15v.07h0a.59.59,0,0,1-.19,0H56.5s0,0,0,0a.65.65,0,0,1,.24,0Z" fill="#fff"/><path d="M56.76,107.57v.08a.78.78,0,0,1-.26,0v0A.74.74,0,0,1,56.76,107.57Z" fill="#fff"/><path d="M56.5,108.61v0h0a.68.68,0,0,1,.2,0h0v.08A.74.74,0,0,1,56.5,108.61Z" fill="#fff"/><path d="M56.76,108v.09a.65.65,0,0,1-.2,0h0s0,0,0,0h0A.74.74,0,0,1,56.76,108Z" fill="#fff"/><path d="M56.5,108.39a.57.57,0,0,1,.26,0v.08h0a.45.45,0,0,1-.2,0h0s0,0,0,0Z" fill="#fff"/><path d="M56.5,108.78a1.09,1.09,0,0,1,.26,0v.09h-.24s0,0,0,0Z" fill="#fff"/><path d="M56.37,109.13v-.08h0a.75.75,0,0,1,.21,0h0s0,0,0,0l0,0A.69.69,0,0,1,56.37,109.13Z" fill="#fff"/><path d="M56.37,109.34v-.08h0a.75.75,0,0,1,.21,0h0s0,0,0,0,0,0,0,0A.74.74,0,0,1,56.37,109.34Z" fill="#fff"/><path d="M56.76,109V109a.74.74,0,0,1-.26,0h0s0,0,0,0A.58.58,0,0,1,56.76,109Z" fill="#fff"/><path d="M56.37,107.86h.23s0,0,0,0a1.15,1.15,0,0,1-.26,0Z" fill="#fff"/><path d="M56.37,108.26a.58.58,0,0,1,.26,0h0s0,0,0,0a.5.5,0,0,1-.21,0h0Z" fill="#fff"/><path d="M56.37,107.35v-.08a.58.58,0,0,1,.26,0v0h0A.52.52,0,0,1,56.37,107.35Z" fill="#fff"/><path d="M56.37,108.65h.05a.69.69,0,0,1,.2,0h0s0,0,0,0l-.17,0h-.08Z" fill="#fff"/><path d="M56.5,108.19a.57.57,0,0,1,.26,0v.08a.76.76,0,0,1-.26,0Z" fill="#fff"/><path d="M56.76,107.77v.08a.74.74,0,0,1-.26,0v0A.74.74,0,0,1,56.76,107.77Z" fill="#fff"/><path d="M56.37,107.75v-.08a.76.76,0,0,1,.26,0h0s0,0,0,0h0A.67.67,0,0,1,56.37,107.75Z" fill="#fff"/><path d="M56.76,107.37v.08a.74.74,0,0,1-.26,0v0A.57.57,0,0,1,56.76,107.37Z" fill="#fff"/><path d="M56.63,107.53a.76.76,0,0,1-.26,0v-.08h.08l.15,0S56.63,107.49,56.63,107.53Z" fill="#fff"/><path d="M56.37,108.14v-.08a.61.61,0,0,1,.19,0h.06a0,0,0,0,1,0,0s0,0,0,0a.65.65,0,0,1-.24,0Z" fill="#fff"/><path d="M56.63,108.48v0a.77.77,0,0,1-.26,0v-.08A.76.76,0,0,1,56.63,108.48Z" fill="#fff"/><path d="M56.37,108.93v-.08h.23s0,0,0,0A.76.76,0,0,1,56.37,108.93Z" fill="#fff"/><path d="M56.37,107.16v-.09h.07a.57.57,0,0,1,.18,0s0,0,0,0,0,0,0,0a.76.76,0,0,1-.16,0Z" fill="#fff"/></g><g id="ferMqf-10" data-name="ferMqf"><path d="M56.37,109.44v.09a.74.74,0,0,0,.26,0h0v0A.74.74,0,0,0,56.37,109.44Z" fill="#fff"/><path d="M56.38,109.84v.08a.74.74,0,0,0,.25,0v0A.71.71,0,0,0,56.38,109.84Z" fill="#fff"/><path d="M56.63,110.88v0h-.05a.44.44,0,0,0-.2,0h0v.08A.57.57,0,0,0,56.63,110.88Z" fill="#fff"/><path d="M56.38,110.23v.09a.62.62,0,0,0,.19,0h0s0,0,0,0h0A1.07,1.07,0,0,0,56.38,110.23Z" fill="#fff"/><path d="M56.63,110.66a.54.54,0,0,0-.25,0v.08h0a.45.45,0,0,0,.2,0h0s0,0,0,0Z" fill="#fff"/><path d="M56.76,110.13h-.23s0,0,0,0a1.15,1.15,0,0,0,.26,0Z" fill="#fff"/><path d="M56.76,110.53a.58.58,0,0,0-.26,0h0s0,0,0,0a.5.5,0,0,0,.21,0h0Z" fill="#fff"/><path d="M56.76,109.62v-.08a.58.58,0,0,0-.26,0v0h0A.53.53,0,0,0,56.76,109.62Z" fill="#fff"/><path d="M56.63,110.46a.54.54,0,0,0-.25,0v.08a.71.71,0,0,0,.25,0Z" fill="#fff"/><path d="M56.37,110v.08a.57.57,0,0,0,.26,0v0A.74.74,0,0,0,56.37,110Z" fill="#fff"/><path d="M56.76,110v-.08a.76.76,0,0,0-.26,0h0s0,0,0,0h0A.67.67,0,0,0,56.76,110Z" fill="#fff"/><path d="M56.38,109.64v.08a.71.71,0,0,0,.25,0v0A.54.54,0,0,0,56.38,109.64Z" fill="#fff"/><path d="M56.5,109.8a.76.76,0,0,0,.26,0v-.08h-.08l-.15,0S56.5,109.77,56.5,109.8Z" fill="#fff"/><path d="M56.76,110.41v-.08a.61.61,0,0,0-.19,0h-.06a0,0,0,0,0,0,0s0,0,0,0a1,1,0,0,0,.25,0Z" fill="#fff"/><path d="M56.5,110.75v0a.77.77,0,0,0,.26,0v-.08A.76.76,0,0,0,56.5,110.75Z" fill="#fff"/><path d="M56.76,109.43v-.09h-.07a.57.57,0,0,0-.18,0h0s0,0,0,0l.16,0Z" fill="#fff"/></g></g></g><path d="M48.45,69.64a17.82,17.82,0,0,1,1,3c1.13,4-.8,5.38.13,10.09l.34-.31s.23-3.8.66-6.81c.4-2.79-1.06-5.82-1.2-6.26S48.45,68.4,48.45,69.64Z" fill="#fff"/><path d="M64.46,80H60.67a.48.48,0,0,0-.47.48v4.32a.47.47,0,0,0,.47.47h3.79a.48.48,0,0,0,.48-.47V80.44a.49.49,0,0,0-.48-.48m.21,4.8a.21.21,0,0,1-.21.21H60.67a.21.21,0,0,1-.21-.21V80.44a.21.21,0,0,1,.21-.21h3.79a.21.21,0,0,1,.21.21Z" fill="#79589f"/><polygon points="61.38 84.44 61.97 83.91 61.38 83.39 61.38 84.44" fill="#79589f"/><path d="M63.52,82.31a.82.82,0,0,0-.62-.24,3.18,3.18,0,0,0-1,.18v-1.5h-.53V83l.37-.17a3.46,3.46,0,0,1,1.15-.27c.26,0,.32.14.32.27v1.57h.53V82.86a.79.79,0,0,0-.23-.55" fill="#79589f"/><path d="M62.83,81.61h.53a1.56,1.56,0,0,0,.39-.86h-.53a1.91,1.91,0,0,1-.39.86" fill="#79589f"/><path d="M64,69.64a17.82,17.82,0,0,0-1,3c-1.13,4,.8,5.38-.13,10.09l-.33-.31s-.24-3.8-.67-6.81c-.4-2.79,1.07-5.82,1.2-6.26S64,68.4,64,69.64Z" fill="#fff"/><path d="M58.7,180.77l6.57.68s0,2.93,1.08,4a58.23,58.23,0,0,0,5,4.3s6.49,0,5.74,3.66c0,.55-4.4.57-9.72.46-1.9,0-5.71-.38-5.71-.38v.4H58.22A96.51,96.51,0,0,1,58.7,180.77Z"/><path d="M48.32,187.85a7.63,7.63,0,0,0-2.22-2.66l-1,.89Z" fill="#4c4c4c"/><path d="M50.36,183.8a7.62,7.62,0,0,0-3.36-.87l-.29,1.31Z" fill="#4c4c4c"/><path d="M46.71,189.43s-1.11-2.12-2.22-2.67l-1,.89Z" fill="#4c4c4c"/><path d="M64.24,187.85a7.63,7.63,0,0,1,2.22-2.66l1,.89Z" fill="#4c4c4c"/><path d="M62.2,183.8a7.62,7.62,0,0,1,3.36-.87l.29,1.31Z" fill="#4c4c4c"/><path d="M65.85,189.43s1.11-2.12,2.22-2.67l1,.89Z" fill="#4c4c4c"/></g><g id="face"><ellipse cx="56.61" cy="48.56" rx="10.78" ry="14.79" fill="#c58b5e"/><ellipse cx="51.18" cy="50.43" rx="1.27" ry="2.06" transform="translate(-0.74 0.76) rotate(-0.85)" fill="#0e090a"/><ellipse cx="61.32" cy="50.28" rx="1.27" ry="2.06" transform="translate(-0.74 0.91) rotate(-0.85)" fill="#0e090a"/><path d="M53.26,56.76l6.49,0s-.12,3.37-3.23,3.3C53.69,59.94,53.26,56.76,53.26,56.76Z" fill="#9e633b"/><path d="M53.41,57.29l6.24,0s-.12,1.94-2.89,2C53.68,59.23,53.41,57.29,53.41,57.29Z" fill="#fff"/></g><g id="hair"><path d="M68.36,44.94a14.94,14.94,0,0,0-.85,4.9s-2.16.22-4.67-6.07c-2.3-3.89-13.49-1.45-15.31-3.54a24.19,24.19,0,0,1-.21,3.39c-.12.91.15,2.67,0,3.42-.09.41-.42-1-.72.22a11.68,11.68,0,0,1-1,2.8s-2.42-7.6-1.9-9.34a4.25,4.25,0,0,1,3.23-3.34s3.46-8,13.8-6.06a8.22,8.22,0,0,1-1,1.63c2.69-.14,6,5,8.68,3.17,0,0,1,1.71-.47,6.45,0,0,1.83-.33,1.82-.29C69.36,43.33,68.75,43.82,68.36,44.94Z"/></g></svg>