<svg xmlns="http://www.w3.org/2000/svg" xmlns:xlink="http://www.w3.org/1999/xlink" width="110" height="194" viewBox="0 0 110 194"><defs><linearGradient id="linear-gradient" x1="61.82" y1="117.92" x2="61.82" y2="185.57" gradientUnits="userSpaceOnUse"><stop offset="0" stop-color="#698293"/><stop offset="0.26" stop-color="#657d8e"/><stop offset="0.58" stop-color="#59707f"/><stop offset="0.92" stop-color="#455b67"/><stop offset="1" stop-color="#405561"/></linearGradient><linearGradient id="linear-gradient-2" x1="46.85" y1="118.13" x2="46.85" y2="186.28" xlink:href="#linear-gradient"/></defs><title>landian-10-body</title><g id="landians"><path d="M67.48,70.48C72.14,73,74.45,87.84,75.1,90c.85,2.75,2.33,8.25,0,9.31s-4-2.54-5.71-6.56S63.88,81.13,63,78.1C62,74.29,62.83,67.94,67.48,70.48Z" fill="#c58b5e"/><path d="M42.35,70.49C37.67,73,35.27,87.81,34.6,89.92c-.86,2.74-2.38,8.23-.06,9.31s4-2.52,5.76-6.53,5.58-11.53,6.44-14.56C47.82,74.34,47,68,42.35,70.49Z" fill="#c58b5e"/><path d="M63.87,177.07s-1.6,6.63.18,8.57,8.48,8,8.48,8L57,190.14s.62-8.72.62-12.24S63.87,177.07,63.87,177.07Z" fill="#c58b5e"/><path d="M75.38,193.73c-.22-3.22-4.55-3.89-4.55-3.89s0,0,0,0l-1.37-.69.06,0s-2.89-2.67-3.95-3A1.49,1.49,0,0,0,63.82,188a3.42,3.42,0,0,0,.89,1c-.31,0-.64,0-1,0-4.73-.34-6.11-.91-6.51-1.24l-.16-.26c-2.78,2.05-1.11,6.17-1.11,6.17l.34,0v0h.79C60.67,193.84,71.77,194.29,75.38,193.73Z"/><path d="M64.82,189.62s1.11-2.12,2.23-2.67l1,.89Z" fill="#cbcbca"/><path d="M66.27,191a7.72,7.72,0,0,1,2.22-2.67l1,.89Z" fill="#cbcbca"/><path d="M64.24,184.15s4.51-58,4.3-63.42-12.13-2.21-13.11,2.69c-1.24,6.23,1.22,59.78,1.32,61.05C56.81,185.2,62.84,186.69,64.24,184.15Z" fill="url(#linear-gradient)"/><path d="M45.37,177.07s1.6,6.63-.18,8.57-8.48,8-8.48,8l15.52-3.5s-.63-8.72-.63-12.24S45.37,177.07,45.37,177.07Z" fill="#c58b5e"/><path d="M51.84,187.45l-.16.26c-.4.33-1.78.9-6.51,1.24-.35,0-.68,0-1,0a3.42,3.42,0,0,0,.89-1,1.48,1.48,0,0,0-1.72-1.78c-1.06.33-4,3-4,3l.07,0c-.43.21-.9.44-1.37.69l0,0s-4.34.67-4.56,3.89c3.61.56,14.71.11,18.31-.06h.79v0l.35,0S54.62,189.5,51.84,187.45Z"/><path d="M44.06,189.62S43,187.5,41.84,187l-1,.89Z" fill="#cbcbca"/><path d="M42.62,191a7.79,7.79,0,0,0-2.23-2.67l-1,.89Z" fill="#cbcbca"/><path d="M44.47,184.86s-4.2-58-4-63.38,11.27-3.74,12.25,1.15c1.24,6.23-.17,61.28-.28,62.55C52.39,185.91,45.87,187.4,44.47,184.86Z" fill="url(#linear-gradient-2)"/><path d="M50.71,61.33s1.85,5.55-1.4,7.13c-.09.05-1.39.54-1.36,1.46.15,5.63,3.76,25,6.65,25.21,2.17.14,5.55-18.78,6.86-25.81.12-.68-.34-.75-1.63-.94,0,0-2.14-.3-1.44-6.35C58.68,59.49,50.71,61.33,50.71,61.33Z" fill="#b7784b"/><path d="M40.9,111.43s-.45,8.34-.42,10c0,1.21,0,1.72.56,2.3,5.19,5.46,21.14,5.72,26.16-.34.81-1,1.41-1.4,1.34-2.71-.07-1.55-.54-9.6-.54-9.6Z" fill="#698293"/><path d="M82.91,121.84s-2.82-11.64-3.06-14.42S77.44,93.68,74,94.89c-3,1.06-2,8.82.21,14.06s5.48,12.26,5.65,13.75c.4,3.52-.72,8.31-.16,8.68.71.47,1.22-.87,1.9-3,1.06,0,3.11,4.24,5.55,5.68s.69-5.47-.38-6.92C86,125.94,83.44,123.36,82.91,121.84Z" fill="#c58b5e"/><path d="M27.09,121.54s2.82-11.64,3.06-14.42S32.56,93.38,36,94.58c3.05,1.07,2,8.83-.21,14.07s-5.48,12.26-5.65,13.75c-.4,3.52.72,8.31.16,8.68-.71.47-1.22-.87-1.9-3.05-1.06,0-3.11,4.24-5.55,5.68s-.69-5.47.38-6.92C24.05,125.64,26.56,123.06,27.09,121.54Z" fill="#c58b5e"/><path d="M42.62,40.43c-.16,0-1.85,5-1.54,7.5,0,0,1,6.64,2.87,10.34.07-.32.93-1.59,1.07-1.1a6.82,6.82,0,0,0,1.33,2.24A6.13,6.13,0,0,1,47,57.92c.3-.35.9,1.24,1,1.67a3.11,3.11,0,0,0,.3.67,51.49,51.49,0,0,0,6.12,1,45.91,45.91,0,0,1,7-2.7,2.54,2.54,0,0,1,2,.88,4.11,4.11,0,0,0,1-2.15s.53,1.12.64,1.27a24.05,24.05,0,0,0,1.15-4.77,9.32,9.32,0,0,0-.39-4.6C63.11,47.85,50.06,38.58,42.62,40.43Z" fill="#6c4b29"/><path d="M45.07,49.63s-1.67-2.07-3.38-.34,1.41,6,3.48,6.68S45.07,49.63,45.07,49.63Z" fill="#c58b5e"/><path d="M70.23,73.08a93.41,93.41,0,0,1,5.3,14.78s-3.39,3.84-8,2.88c0,0-2.44-8.51-2.21-11.52S66.36,72.24,70.23,73.08Z" fill="#410099"/><path d="M39.8,73.08a92.84,92.84,0,0,0-5.29,14.78s3.39,3.84,8,2.88c0,0,2.43-8.51,2.21-11.52S43.68,72.24,39.8,73.08Z" fill="#410099"/><path d="M67.84,83.15c0-1.13,2.39-10.07,2.39-10.07-2.71-4-4.55-3-6.82-3.74s-4.31-1.49-4.31-1.49.77,5.1-4.53,5.1-4.51-5-4.51-5-1.92.66-4.19,1.39-4.82.12-6.6,4.92c0,0,2.23,7.76,2.17,8.89-.65,12-.58,24.33-1,32.12C40.24,118,54,117.91,54,117.91s14.6.32,14.61-2.64C68.67,104.32,67.5,96.21,67.84,83.15Z" fill="#410099"/><path d="M58,81H51a.87.87,0,0,0-.87.88v8a.87.87,0,0,0,.87.88h7a.87.87,0,0,0,.87-.88v-8A.87.87,0,0,0,58,81m.39,8.84a.39.39,0,0,1-.39.39H51a.38.38,0,0,1-.38-.39v-8a.38.38,0,0,1,.38-.39h7a.39.39,0,0,1,.39.39Z" fill="#fff"/><polygon points="52.3 89.24 53.39 88.27 52.3 87.3 52.3 89.24" fill="#fff"/><path d="M56.24,85.3a1.53,1.53,0,0,0-1.15-.43,6,6,0,0,0-1.82.33V82.44h-1v4.21l.68-.31a6.23,6.23,0,0,1,2.11-.5c.49,0,.6.27.61.5v2.9h1V86.33a1.53,1.53,0,0,0-.43-1" fill="#fff"/><path d="M55,84h1a2.89,2.89,0,0,0,.73-1.58h-1A3.84,3.84,0,0,1,55,84" fill="#fff"/></g></svg>