<svg xmlns="http://www.w3.org/2000/svg" xmlns:xlink="http://www.w3.org/1999/xlink" width="110" height="194" viewBox="0 0 110 194"><defs><linearGradient id="New_Gradient_Swatch_4" x1="61.82" y1="104.94" x2="61.82" y2="185.57" gradientUnits="userSpaceOnUse"><stop offset="0" stop-color="#2c3b4c"/><stop offset="0.21" stop-color="#293747"/><stop offset="0.46" stop-color="#212c38"/><stop offset="0.73" stop-color="#131920"/><stop offset="1"/></linearGradient><linearGradient id="New_Gradient_Swatch_4-2" x1="46.85" y1="105.15" x2="46.85" y2="186.28" xlink:href="#New_Gradient_Swatch_4"/></defs><title>landian-31-body</title><g id="landians"><path d="M82.17,108.1s-2.9-12-3.14-14.84-2.49-14.14-6-12.91c-3.13,1.1-2,9.09.22,14.48s5.65,12.62,5.82,14.15c.41,3.64-.74,8.57-.17,9,.73.48,1.26-.9,2-3.15,1.09,0,3.2,4.37,5.72,5.85s.71-5.63-.39-7.12C85.31,112.33,82.72,109.67,82.17,108.1Z" fill="#fcdab5"/><path d="M79,93.26c-.25-2.86-2.49-14.14-6-12.91-3.13,1.1-2,9.09.22,14.48" fill="#c4c4b8"/><path d="M63.87,177.07s-1.6,6.63.18,8.57,8.48,8,8.48,8L57,190.14s.62-8.72.62-12.24S63.87,177.07,63.87,177.07Z" fill="#fcdab5"/><path d="M75.38,193.73c-.22-3.22-4.55-3.89-4.55-3.89s0,0,0,0l-1.37-.69.06,0s-2.89-2.67-3.95-3A1.49,1.49,0,0,0,63.82,188a3.42,3.42,0,0,0,.89,1c-.31,0-.64,0-1,0-4.73-.34-6.11-.91-6.51-1.24l-.16-.26c-2.78,2.05-1.11,6.17-1.11,6.17l.34,0v0h.79C60.67,193.84,71.77,194.29,75.38,193.73Z" fill="#42468c"/><path d="M64.82,189.62s1.11-2.12,2.23-2.67l1,.89Z" fill="#cbcbca"/><path d="M66.27,191a7.72,7.72,0,0,1,2.22-2.67l1,.89Z" fill="#cbcbca"/><path d="M64.24,184.15s4.51-71,4.3-76.4-12.13-2.2-13.11,2.69c-1.24,6.23,1.22,72.76,1.32,74C56.81,185.2,62.84,186.69,64.24,184.15Z" fill="url(#New_Gradient_Swatch_4)"/><path d="M45.37,177.07s1.6,6.63-.18,8.57-8.48,8-8.48,8l15.52-3.5s-.63-8.72-.63-12.24S45.37,177.07,45.37,177.07Z" fill="#fcdab5"/><path d="M51.84,187.45l-.16.26c-.4.33-1.78.9-6.51,1.24-.35,0-.68,0-1,0a3.42,3.42,0,0,0,.89-1,1.48,1.48,0,0,0-1.72-1.78c-1.06.33-4,3-4,3l.07,0c-.43.21-.9.44-1.37.69l0,0s-4.34.67-4.56,3.89c3.61.56,14.71.11,18.31-.06h.79v0l.35,0S54.62,189.5,51.84,187.45Z" fill="#42468c"/><path d="M44.06,189.62S43,187.5,41.84,187l-1,.89Z" fill="#cbcbca"/><path d="M42.62,191a7.79,7.79,0,0,0-2.23-2.67l-1,.89Z" fill="#cbcbca"/><path d="M44.47,184.86s-4.2-71-4-76.36,11.27-3.74,12.25,1.15c1.24,6.23-.17,74.26-.28,75.53C52.39,185.91,45.87,187.4,44.47,184.86Z" fill="url(#New_Gradient_Swatch_4-2)"/><path d="M40.9,98.45s-.45,8.35-.42,10c0,1.21,0,1.73.56,2.31,5.19,5.46,21.14,5.72,26.16-.35.81-1,1.41-1.4,1.34-2.71-.07-1.54-.54-9.59-.54-9.59Z" fill="#2c3b4c"/><path d="M67,57.6c4.79,2.61,7.17,17.87,7.84,20,.87,2.83,2.89,9.25,2.89,9.25l-6.13,2.67S69.93,82.73,69,80.47c-1.75-4.14-5.67-11.91-6.54-15C61.35,61.52,62.22,55,67,57.6Z" fill="#c4c4b8"/><path d="M42.49,57.61c-4.81,2.59-7.29,17.83-8,20C33.63,80.43,31.84,87,31.84,87l5.64,4.47s1.85-8.54,2.91-11c1.77-4.13,5.74-11.88,6.63-15C48.13,61.57,47.3,55,42.49,57.61Z" fill="#c4c4b8"/><path d="M50.75,48.42s.37,6.15-2.58,7.76c-.65.36,3.13,26.82,6.58,27.05,2.45.16,4.74-21.44,6.22-26.71,0,0-3-1.3-2.32-7.38C58.93,46.54,50.75,48.42,50.75,48.42Z" fill="#e1c3a5"/><path d="M54.79,63.35l1.7-4.66,4.4-2.85s5,.78,5.23,1.65c.21,2.62,1.5,7.17,0,12-.52,1.68-.1,7.72,1.16,14.68,1.29,7.15,3.2,20.46,3.89,23.49l-13.48,1.07s-1.17-3.33-3-10.13l-2.37,10.2-14-1.1c1.2-3,2.93-16.14,4.11-23.87,1-6.59.91-12.76.42-14.34-1.5-4.83-.22-8.87,0-11.49.22-.87,5.48-2.33,5.48-2.33l4.3,3Z" fill="#c4c4b8"/><path d="M58.47,61.29l4.7-5.38s3.24.28,3.46,1.16c.22,2.61,1.7,32.93,2.73,37.25,0,0-1.66,5.3-12.6,5.73l-3.77.09c-2.05-.17-13.49-.32-12.66-5.31.34-2,1.46-8.89,1.8-11.13.9-5.81.93-23.51,1.15-26.13.22-.87,3.56-1.49,3.56-1.49l4.36,5.39a5.37,5.37,0,0,0,3.55,1.28A4.79,4.79,0,0,0,58.47,61.29Z" fill="#733ec6"/><path d="M52.61,58.69,51.36,60l-2,2.28-3.53-5.84a11.75,11.75,0,0,1,2.7-3.72Z" fill="#ddddd4"/><path d="M56.46,58.69l1.6,1.79,1.67,1.8,3.53-5.84a12,12,0,0,0-2.7-3.72Z" fill="#ddddd4"/><path d="M27.83,106.7s2.9-12,3.14-14.84S33.46,77.72,37,79c3.13,1.1,2,9.09-.22,14.49s-5.65,12.62-5.82,14.15c-.41,3.63.74,8.56.17,8.94-.73.48-1.26-.9-2-3.15-1.09,0-3.2,4.37-5.72,5.85s-.71-5.63.39-7.12C24.69,110.93,27.28,108.27,27.83,106.7Z" fill="#fcdab5"/><path d="M30.93,92.21c0-.12,0-.24,0-.35C31.22,89,33.46,77.72,37,79c3.13,1.1,2,9.09-.22,14.49" fill="#c4c4b8"/><path d="M42.48,26.24S40.55,31,40.87,33.7c0,0,1,6.91,3,10.77.08-.34,1-1.66,1.13-1.15a6.89,6.89,0,0,0,1.37,2.33,6.86,6.86,0,0,1,.7-1.55c.31-.36,1,1.3,1.08,1.74a3.34,3.34,0,0,0,.32.69,50.32,50.32,0,0,0,6.38,1,46.85,46.85,0,0,1,7.28-2.8,2.67,2.67,0,0,1,2.13.92,4.4,4.4,0,0,0,1-2.24s.55,1.16.67,1.32a26.09,26.09,0,0,0,1.19-5c.13-1.71.66-8.32,0-9.95C64.2,28.46,50.23,24.31,42.48,26.24Z" fill="#14103d"/><path d="M45.07,36.65s-1.67-2.06-3.38-.34,1.41,6,3.48,6.68S45.07,36.65,45.07,36.65Z" fill="#fcdab5"/></g></svg>