<svg xmlns="http://www.w3.org/2000/svg" width="110" height="194" viewBox="0 0 110 194"><title>landian-12-face</title><g id="face"><ellipse cx="55.19" cy="46.73" rx="10.73" ry="14.72" fill="#c58b5e"/><ellipse cx="49.78" cy="48.59" rx="1.26" ry="2.05" transform="translate(-0.71 0.74) rotate(-0.85)" fill="#0c0506"/><ellipse cx="59.87" cy="48.44" rx="1.26" ry="2.05" transform="translate(-0.71 0.89) rotate(-0.85)" fill="#0c0506"/><path d="M58.73,55.63l-3.49.88-3.67-.76a26.31,26.31,0,0,1,3.55-.36A19.58,19.58,0,0,1,58.73,55.63Z" fill="#ea2127"/><path d="M51.57,55.75a13.56,13.56,0,0,0,7.16-.12,4.08,4.08,0,0,1-3.52,2A3.78,3.78,0,0,1,51.57,55.75Z" fill="#ea2127"/></g></svg>