<svg xmlns="http://www.w3.org/2000/svg" width="110" height="194" viewBox="0 0 110 194"><title>landian-15-body</title><g id="landians"><path d="M43.14,64.1a109.81,109.81,0,0,0,12.43,1.74s8-.89,11-2.32l-2.38-4.13-7.92-2-9.32-2.11S40.71,63,43.14,64.1Z" fill="#1a1a1a"/><path d="M68,71.06c4.64,2.72,7,17.48,7.6,19.43.91,2.73,2.33,8.24,0,9.3s-4-2.54-5.7-6.55-5.5-11.55-6.34-14.58C62.45,74.86,63.38,68.38,68,71.06Z" fill="#79589f"/><path d="M41.94,71.05c-4.67,2.5-7.07,17.28-7.73,19.39-.86,2.74-2.38,8.22-.06,9.29s4-2.51,5.75-6.51,5.57-11.52,6.43-14.54C47.41,74.89,46.6,68.54,41.94,71.05Z" fill="#79589f"/><path d="M66.51,147.85s5.12-15.67,2.59-30S55.59,113,55.8,125s.37,21.55.36,23.66C56.1,156.51,62.28,158.62,66.51,147.85Z" fill="#a4612f"/><path d="M56.52,188.57c.67-1.34.39-4.7.34-6.88s-.8-2.52-1.85-11.75.42-11.54,1.68-17.84a4.23,4.23,0,0,1,8.39.84c.21,5.46-2.12,28.58-2.31,28.76-.25,2-.57,5.52.42,6,1.21.6,3.51,2,6,3.43,1.42.58,1.81.4,1.94,1.15,0,1.18-2.85.8-7.11-.29-2.08-.54-2.35-2.31-4.22-2.21C55.27,190,55.85,189.91,56.52,188.57Z" fill="#a4612f"/><path d="M65.05,159.45a32.91,32.91,0,0,1-9.93-1.92s-.83,1.79-.64,9.86a125.32,125.32,0,0,0,1.92,13.06s.13,3.2-.44,4.42c0,0-1.88,3.76.76,8.66a6.56,6.56,0,0,0,2.71.09l.46-3.31s1.19.32,3.49,2.82c0,0,.32.76,2.82.64,0,0,5.44.32,8.07-.64,0,0,1.28-.71-.39-1.6A50.07,50.07,0,0,1,68.51,189s-3.65-3.2-5.32-5c0,0,0-.86-.25-2.43Z"/><path d="M42.19,149s-6-15.84-3.45-30.21,14.37-4.64,14.15,7.4-.36,21.54-.35,23.66C52.6,157.66,46.42,159.78,42.19,149Z" fill="#a4612f"/><path d="M51.51,188.48c-.67-1.34-.08-4.43,0-6.61s.81-2.52,1.86-11.75-.42-11.54-1.68-17.84a4.23,4.23,0,0,0-8.39.84c-.21,5.46,2.11,28.59,2.31,28.76.25,2,.57,5.52-.43,6-1.21.6-3.5,2-6,3.43-1.41.58-3.74.56-3.86,1.31,0,1.18,2.41,1,7.55.93,1.84,0,3.7-3.09,5.48-3.69C50.9,189,52.18,189.82,51.51,188.48Z" fill="#a4612f"/><path d="M43.21,159.63a32.91,32.91,0,0,0,9.93-1.92s.83,1.79.64,9.86a125.32,125.32,0,0,1-1.92,13.06s-.13,3.2.44,4.42c0,0,1.88,3.76-.76,8.67a6.65,6.65,0,0,1-2.71.08l-.46-3.3s-1.19.31-3.49,2.81c0,0-.32.77-2.82.64,0,0-5.44.32-8.07-.64,0,0-1.28-.71.39-1.6a51.34,51.34,0,0,0,5.37-2.56s3.65-3.2,5.32-5c0,0,0-.86.26-2.43Z"/><path d="M70.55,139.24c.51-2.9.53-5.15-.45-19.42-.47-6.73-3.82-15.58-3.82-15.58l-24.08.09a86.9,86.9,0,0,0-4.56,15.81,104.73,104.73,0,0,0-.39,19.28s.09,1.1,17,1.19C54.24,140.61,70.38,140.17,70.55,139.24Z" fill="#79589f"/><path d="M50,61.72s1.85,5.54-1.39,7.12c-.09,0-1.39.54-1.37,1.45.16,5.62,3.77,25,6.65,25.17,2.16.15,5.54-18.75,6.84-25.77.13-.68-.34-.74-1.62-.94,0,0-2.13-.3-1.44-6.34C58,59.89,50,61.72,50,61.72Z" fill="#90562d"/><path d="M49.1,68.73s-6.45,1.58-6.66,2.42a93.68,93.68,0,0,0,1.09,10.32c.07.59.66,1.51.64,2-.26,5.46-.51,7.94-.77,12.55-.11,1.88-2.39,12.12-2.48,13.14-.17,2.06,27.56,2,27,.43a79.84,79.84,0,0,1-2.9-14,58,58,0,0,1,.74-11.91c.42-3.44,2.54-12,1.67-12.61-2-1.34-8-2.43-8-2.43s-.71,2.43-5.19,2.49C54.22,71.16,50.41,71,49.1,68.73Z" fill="#79589f"/><path d="M49.16,68.73s1,5.12,5.19,5.7a6.66,6.66,0,0,0,5.06-5.76A9.16,9.16,0,0,1,56,76.44a2.69,2.69,0,0,1-.76.53,1.94,1.94,0,0,1-.82.15,2.85,2.85,0,0,1-.84-.28,3.4,3.4,0,0,1-.65-.36S49.42,74.66,49.16,68.73Z" fill="#c49a6c"/><path d="M49.32,70.3s1.54,8.87,5.32,8.74c0,0,3.49.61,4.7-8.93,0,0,.9,7.65-3.49,10.85a2,2,0,0,1-1.21.42A3.13,3.13,0,0,1,53.39,81S49.32,78.94,49.32,70.3Z" fill="#c49a6c"/><path d="M82.64,121.67s-2.82-11.62-3-14.39-2.41-13.71-5.83-12.51c-3,1.06-2,8.81.22,14s5.47,12.23,5.64,13.72c.39,3.52-.72,8.3-.17,8.67.71.47,1.23-.87,1.9-3,1.07,0,3.11,4.23,5.55,5.67s.69-5.46-.38-6.91C85.68,125.77,83.17,123.19,82.64,121.67Z" fill="#a4612f"/><path d="M80.25,110.74s-1.69-9.74-1.92-10.47c-.7-2.2-2.36-6.54-4.58-6.17s-2.07,4.77-1.89,7.09c.36,4.52,3.44,10.92,3.44,10.92Z" fill="#79589f"/><path d="M27.36,120.78s2.82-11.63,3.05-14.4,2.41-13.71,5.83-12.51c3,1.06,2,8.81-.22,14s-5.47,12.24-5.64,13.72c-.39,3.52.72,8.3.17,8.67-.71.47-1.23-.87-1.9-3.05-1.07,0-3.11,4.24-5.55,5.67s-.69-5.46.38-6.9C24.32,124.87,26.83,122.3,27.36,120.78Z" fill="#a4612f"/><path d="M29.75,109.89s1.69-9.74,1.92-10.47c.69-2.2,2.36-6.55,4.58-6.18s2.07,4.77,1.88,7.1c-.36,4.51-3.43,10.91-3.43,10.91Z" fill="#79589f"/><path d="M45.29,51.18s-1.66-2.06-3.37-.34,1.41,6,3.48,6.67S45.29,51.18,45.29,51.18Z" fill="#a4612f"/><path d="M64.26,51.18s1.67-2.06,3.37-.34-1.41,6-3.47,6.67S64.26,51.18,64.26,51.18Z" fill="#a4612f"/></g></svg>