<svg xmlns="http://www.w3.org/2000/svg" width="110" height="194" viewBox="0 0 110 194"><title>landian-31-hair</title><g id="hair"><path d="M44,37.47a40,40,0,0,0,2.43-9.39,13.39,13.39,0,0,0,4.15,3.12c.32.19-.49-1.3.25-1.3a22.32,22.32,0,0,0,2.65,2.24,13.48,13.48,0,0,0,4.95,1.47c1,.1,4.35,1,4.89,2.19a8.47,8.47,0,0,1,.82,2.66s2.63-2.67,2.85-3.81c.81-4.29,0-10.71-5.53-14.14-1.72-1.06-5.25-1.43-8-1.39a14.39,14.39,0,0,0-6.26,1.39,7.89,7.89,0,0,0-3.71,3.56,8.26,8.26,0,0,0-1.24,4,10.22,10.22,0,0,0,.14,2c.06.67.15,1.32.25,1.93C43,34.29,44,37.47,44,37.47Z" fill="#14103d"/></g></svg>