<svg xmlns="http://www.w3.org/2000/svg" xmlns:xlink="http://www.w3.org/1999/xlink" width="110" height="194" viewBox="0 0 110 194"><defs><linearGradient id="linear-gradient" x1="49.4" y1="115.12" x2="41.58" y2="188.3" gradientUnits="userSpaceOnUse"><stop offset="0" stop-color="#698293"/><stop offset="0.26" stop-color="#657d8e"/><stop offset="0.58" stop-color="#59707f"/><stop offset="0.92" stop-color="#455b67"/><stop offset="1" stop-color="#405561"/></linearGradient><linearGradient id="linear-gradient-2" x1="67.46" y1="114.28" x2="59.44" y2="189.32" xlink:href="#linear-gradient"/></defs><title>landian-34</title><g id="landians"><path d="M43.34,32.51S41.41,37.32,41.73,40c0,0-.48,6.85,1.48,10.7.07-.33,1.51-1.91,1.65-1.41.31,1.06,1.74,1.77,2.35,2.67a6.67,6.67,0,0,1,.7-1.55c.31-.36,1,1.29,1.09,1.74a2.86,2.86,0,0,0,.31.69,50.32,50.32,0,0,0,6.38,1A47.36,47.36,0,0,1,63,51c.51-.15,1.13.49,1.28,1a13.34,13.34,0,0,0,1.87-2.28s.55,1.16.67,1.32a52.09,52.09,0,0,0,1.93-6.94c.13-1.72-.08-6.36-.74-8C65.07,34.74,51.09,30.59,43.34,32.51Z" fill="#ac5f27"/><path d="M67.59,186.3c-2.32-1,11.87,1.57,13.12,1.89s1.7,4.8,1,4.87-20.28.54-21.65.38-4.51.68-2.43-3C62.23,182.33,69.92,187.27,67.59,186.3Z" fill="#050402"/><path d="M82.16,192.21s-22.81.08-25.2,0v1.7l25.37.09Z" fill="#cfd1d2"/><path d="M66.85,187.85a.4.4,0,0,1-.43-.66c.87-.82,2-1.65,2.53-1.27C69.82,186.49,69.47,186.83,66.85,187.85Z" fill="#23e5e0"/><path d="M70.27,188.47a.4.4,0,0,1-.45-.63c.73-.86,1.75-1.81,2.35-1.41C73.07,187,73.05,187.36,70.27,188.47Z" fill="#23e5e0"/><path d="M73.71,189a.4.4,0,0,1-.46-.63C74,187.5,75,186.55,75.6,187,76.5,187.55,76.48,187.89,73.71,189Z" fill="#23e5e0"/><path d="M42.9,186.15c2.32-1-11.86,1.57-13.11,1.89s-1.7,4.8-1,4.87,20.29.54,21.66.38,4.51.68,2.43-3C48.27,182.18,40.58,187.12,42.9,186.15Z" fill="#050402"/><path d="M28.34,192.06s22.81.08,25.2,0v1.7l-25.37.09Z" fill="#cfd1d2"/><path d="M43.64,187.7a.4.4,0,0,0,.43-.66c-.86-.82-2-1.65-2.53-1.27C40.67,186.34,41,186.68,43.64,187.7Z" fill="#23e5e0"/><path d="M40.22,188.32a.4.4,0,0,0,.46-.63c-.74-.86-1.75-1.81-2.35-1.41C37.43,186.88,37.45,187.21,40.22,188.32Z" fill="#23e5e0"/><path d="M36.79,188.84a.4.4,0,0,0,.46-.63c-.74-.86-1.75-1.81-2.35-1.41C34,187.4,34,187.74,36.79,188.84Z" fill="#23e5e0"/><path d="M41.54,185.77c-.53-5.07-3.69-53-4-64.39-.26-9.28,15.77-9.25,15.77,2.11,0,18.9-.59,66-.59,66S49.36,187.08,41.54,185.77Z" fill="url(#linear-gradient)"/><path d="M69.5,186.18c0-5.94,2.93-54,3-65.34.06-10-16.63-8.58-15.55,2.78,2,21.06.94,65.54.94,65.54A27.78,27.78,0,0,1,69.5,186.18Z" fill="url(#linear-gradient-2)"/><path d="M37.62,108c11,4.83,34.9,1,34.9,1l0,14.36s-20.54,5.3-34.77-.13C37.73,123.29,36.81,111.23,37.62,108Z" fill="#698293"/><circle cx="55.04" cy="84.68" r="0.73" fill="#fff"/><path d="M47.28,42.16S45.53,40,43.73,41.8s1.48,6.31,3.66,7S47.28,42.16,47.28,42.16Z" fill="#ca9067"/><path d="M63,41.93s1.69-2.23,3.54-.47S65.19,47.82,63,48.6,63,41.93,63,41.93Z" fill="#ca9067"/><path d="M35.47,64.51S25.69,84.79,24.91,91.6c-.23,2-.07,4.53,2.26,5.22s3.55-2.69,3.87-3.51,7.85-20,8.5-21.76,1.2-5.61.5-6.92S36.43,62.15,35.47,64.51Z" fill="#ca9067"/><path d="M35.76,62.37A128.14,128.14,0,0,0,26.09,80.3s3.59,5.61,9.67,5.3c0,0,4.84-10.45,5.15-14.34S40.91,62.06,35.76,62.37Z" fill="#410099"/><path d="M31.24,114s-.38-19.12-.69-20.93a3.91,3.91,0,0,0-2.83-3.48c-1.81-.66-2.72,1.08-3,2.31-1.61,7.32,1.41,18.34,1.23,21.93s-2.78,9.08-2.5,11.31,2.27,5.23,3,5.17S29.7,127.83,30,121c0,0,1.06,2.5,2.07,1.94S31.47,115.72,31.24,114Z" fill="#ca9067"/><path d="M75.91,64.54S85.22,85,85.85,91.86c.18,2,0,4.53-2.39,5.18S80,94.26,79.67,93.43s-7.38-20.18-8-21.94-1.07-5.63-.34-6.93S75,62.16,75.91,64.54Z" fill="#ca9067"/><path d="M75.24,62.37A128.14,128.14,0,0,1,84.91,80.3s-3.59,5.61-9.67,5.3c0,0-4.84-10.45-5.15-14.34S70.09,62.06,75.24,62.37Z" fill="#410099"/><path d="M64.25,58.91C59.83,57.44,59.62,52,59.62,52l-8.31.32s-.21,5.47-4.63,6.94l8.84,26.3Z" fill="#b7784b"/><path d="M72.57,77.35C72.67,75.88,75.68,63,75.68,63c-.84-2.63-5.92-2.69-8.86-3.63A27.52,27.52,0,0,1,61.53,57s.69,7.07-6.2,7.07-5.82-6.87-5.82-6.87A48.15,48.15,0,0,1,44,59.41c-3,.94-7.84.51-9.05,4.52,0,0,3.3,11.95,3.29,13.42,0,14.56.1,18.82-1.74,32.77-.47,3.56,18.32,3.43,18.32,3.43s18.44.16,18.43-3.43C73.25,97.82,71.46,94.3,72.57,77.35Z" fill="#410099"/><path d="M79,114.13s.81-19.1,1.16-20.91a3.9,3.9,0,0,1,2.91-3.41C84.9,89.2,85.78,91,86,92.19c1.44,7.36-1.83,18.3-1.73,21.9s2.57,9.13,2.24,11.36-2.38,5.17-3.09,5.1-3.21-2.57-3.38-9.41c0,0-1.11,2.48-2.1,1.89S78.74,115.83,79,114.13Z" fill="#ca9067"/><path d="M60.76,72.51H51.05a1.22,1.22,0,0,0-1.22,1.22V84.79A1.22,1.22,0,0,0,51.05,86h9.71A1.22,1.22,0,0,0,62,84.79V73.73a1.22,1.22,0,0,0-1.22-1.22m.54,12.28a.54.54,0,0,1-.54.54H51.05a.54.54,0,0,1-.54-.54V73.73a.54.54,0,0,1,.54-.54h9.71a.54.54,0,0,1,.54.54Z" fill="#fff"/><polygon points="52.87 83.98 54.39 82.63 52.87 81.28 52.87 83.98" fill="#fff"/><path d="M58.35,78.51a2.18,2.18,0,0,0-1.6-.6,8.46,8.46,0,0,0-2.53.46V74.54H52.87v5.85l1-.43a8.43,8.43,0,0,1,2.93-.7c.68,0,.84.38.84.69v4h1.35v-4a2.13,2.13,0,0,0-.59-1.42" fill="#fff"/><path d="M56.58,76.73h1.35a4,4,0,0,0,1-2.19H57.59a5.3,5.3,0,0,1-1,2.19" fill="#fff"/></g><g id="face"><path d="M65.75,42.1c.11,7.63-5.72,13.9-10.23,14S45,50,44.89,42.41,44.61,28,55.11,28C67.15,27.85,65.64,34.47,65.75,42.1Z" fill="#ca9067"/><ellipse cx="50.8" cy="40.61" rx="1.21" ry="1.97" transform="translate(-0.59 0.76) rotate(-0.85)" fill="#0c0506"/><ellipse cx="60.5" cy="40.46" rx="1.21" ry="1.97" transform="translate(-0.59 0.9) rotate(-0.85)" fill="#0c0506"/><path d="M51.16,48l8.73-.12a3.87,3.87,0,0,1-4,3.63C51.54,51.61,51.16,48,51.16,48Z" fill="#fff"/></g><g id="hair"><path d="M65.74,40.78a40,40,0,0,1-2.43-9.39,13.59,13.59,0,0,1-4.15,3.12c-.32.18-.54-2.41-1.27-2.41a24.43,24.43,0,0,1-2.65,2.24,13.52,13.52,0,0,1-5,1.46c-.94.11-3.32,2.15-3.86,3.3a8.55,8.55,0,0,0-.82,2.66A25.88,25.88,0,0,1,42.75,38c-2.51-6,.49-10,5.53-14.14,4.21-3.48,9.17-.05,9.17-.05a7.21,7.21,0,0,1,5.12.05,7.87,7.87,0,0,1,3.71,3.55,19.69,19.69,0,0,1,1.83,7.46C68.45,38.14,65.74,40.78,65.74,40.78Z" fill="#ac5f27"/></g></svg>